M48
;Layer_Color=9474304
;FILE_FORMAT=2:5
INCH,TZ
;TYPE=PLATED
T1F00S00C0.00787
T2F00S00C0.01912
T3F00S00C0.01913
T4F00S00C0.02362
T5F00S00C0.03150
T6F00S00C0.03200
T7F00S00C0.03543
T8F00S00C0.03937
T9F00S00C0.04331
T10F00S00C0.04724
T11F00S00C0.05118
T12F00S00C0.06693
T13F00S00C0.11811
%
T01
X225590Y-57480
T02
X606299Y-278740
X630358Y-288663
X643546Y-290869
X638189Y-241732
X630709Y-231496
X631102Y-216535
X631496Y-205118
X597638Y-241732
X586221Y-243701
X589517Y-268243
X564934Y-256202
X550394Y-254331
X549606Y-245276
X542126
X534646Y-244882
X526378Y-245276
X529134Y-251969
X537008Y-251575
X534646Y-256693
X542913Y-257874
X523622Y-255512
X518110Y-258268
X517717Y-251575
X516929Y-245276
X516535Y-238583
X524016Y-238189
X529921
X531102Y-231102
X537008
X540158Y-237795
X550787Y-238976
X551575Y-231102
X546850Y-231496
X549606Y-214961
X550000Y-200787
X569291Y-193307
X576772Y-187008
X590945Y-193307
X497706Y-191622
X491659Y-196499
X493639Y-214805
X515748Y-230315
X522047Y-230709
X500424Y-253491
X463786Y-200738
X458468Y-178985
X482664Y-178740
X380370Y-240278
X333197Y-288315
X302756Y-276378
X313328Y-183423
X244771Y-178308
X248404Y-192982
X208946Y-191064
X196457Y-178740
X192374Y-181634
X185433Y-181102
X179249Y-180718
X167737Y-180918
X156299Y-181102
X151921Y-178065
X142762Y-178766
X137557Y-179867
X126496Y-178265
X155905Y-233071
X198819Y-230315
X194130Y-242428
X179134Y-285433
X244460Y-230789
X124409Y-225591
X106693
X107087Y-231102
X113386Y-235433
X106693Y-242520
X105905Y-248425
X105118Y-255512
X104724Y-262205
X105118Y-268898
X107087Y-216929
Y-210630
Y-204331
X107086Y-198819
X103543Y-195276
X98819Y-189370
X100394Y-179528
X121260Y-185827
X100000Y-212205
X83858Y-196457
X66929Y-190551
X67323Y-212205
X48031
X42126Y-205906
X21654
X14567Y-211811
X7480Y-223228
X14173Y-233071
X31496Y-227953
X48031Y-233465
X63779Y-233858
X83858
X84646Y-175591
X78740
X72835
X68110
X61811
X53150
X42913
X36614
X26772
X20079
X12992
X28740Y-163779
X86221Y-151575
X92404Y-152405
X96572Y-156062
X109571Y-158639
X96457Y-174409
X92126Y-175591
X95276Y-140157
X86614Y-124016
X83734Y-117409
X111811Y-127165
X98603Y-87778
X115748Y-45669
X125590Y-113779
X131132Y-110597
X130315Y-120472
X127165Y-133464
X127165Y-148031
Y-153150
X126568Y-158988
X126865Y-168014
X143765Y-157313
X144017Y-141628
X148318Y-125437
X144735Y-112608
X150394Y-111024
X158528Y-112626
X176075Y-111175
X182147Y-110862
X187758Y-114210
X194881Y-118110
X196063Y-111417
X199213Y-103150
X195669Y-126378
Y-133071
X191808Y-142637
X197606Y-150291
X187517Y-162056
X172857Y-164902
X157425Y-164649
X178929Y-140616
X168304Y-125691
X218897Y-138976
X230708Y-144488
X227559Y-148425
X227952Y-155511
X229521Y-164185
X241441Y-168906
X247244Y-151968
X238289Y-133547
X210975Y-165756
X196457Y-173622
X281299Y-140748
X284121Y-102621
X394094Y-97244
X408898Y-57311
X391969Y-43246
X386286Y-25335
X405478Y-25497
X434224Y-22983
X367323Y-43701
X427421Y-119774
X433070Y-122834
X436613Y-126378
X432677Y-130709
X433071Y-137402
X396850Y-155512
X439248Y-143751
X437402Y-133071
X455118Y-135433
Y-130315
X458531Y-124764
X459592Y-112735
X459055Y-101969
X475197Y-100787
X481936Y-99583
X493148Y-99765
X499606Y-100000
X501359Y-106864
X494882Y-106693
X497874Y-117292
X492344Y-117860
X482296Y-122835
X475213Y-124729
X475355Y-135974
X482138Y-137791
X482898Y-146378
X495161Y-145545
X500000Y-145669
X499606Y-140551
Y-134646
X514172Y-136614
X518109Y-130708
X514567Y-126772
X526111Y-123013
X527137Y-133418
X516374Y-147525
X504931Y-147962
X529885Y-157895
X553876Y-162665
X571891Y-159372
X572710Y-154189
X572564Y-148986
X580673Y-142475
X579135Y-137678
X583922Y-136202
X552572Y-136467
X592081Y-164728
X575248Y-69148
X534645Y-72441
X537795Y-76378
X498032Y-75197
X492126Y-70866
X501575Y-68504
X490955Y-57975
X483858Y-54331
X484252Y-44488
X491170Y-41560
X509055Y-23228
X451817Y-27696
X472047Y-66929
X469685Y-72047
X487652Y-78540
X491245Y-82634
X484746Y-110252
X486221Y-131102
X464961Y-137402
X467625Y-141732
X455609Y-140506
X453543Y-145276
X459055Y-146850
X461811Y-162598
X465354Y-166929
X470472Y-166142
X470865Y-161023
X479527Y-160630
X487002Y-174784
X453937Y-167717
X446063Y-167323
X601069Y-124584
Y-111614
X641991Y-134227
X663697Y-175092
X677363Y-106167
X671545Y-55337
X672064Y-47734
X690334Y-32374
X616362Y-23611
X623744Y-66210
X563779Y-20866
X539726Y-21376
X303972Y-16261
X169842
X36220Y-16929
T03
X162205Y-180118
X100787Y-159055
X78347Y-48031
X66535
X56299
Y-34646
X67323
X77953
X78740Y-23228
X67323Y-23622
X56299
X148819Y-40945
X143701Y-48819
X144882Y-58661
X158268Y-57480
X163386
X158661Y-50787
X163779Y-45669
X171260
Y-50787
X178347Y-45276
Y-57480
X183465
X194488Y-51575
X194095Y-46063
X189764Y-38583
X197047Y-67913
X193701Y-84252
X181102Y-80274
X171260Y-69685
Y-64567
X163779Y-69685
X158661Y-64567
X156299Y-79921
X135039Y-114567
X136417Y-119488
X134587Y-124312
X132283Y-132342
X133071Y-137402
X132677Y-142519
X127165Y-142976
X127953Y-128347
X131496Y-161024
X131890Y-166142
X229921Y-76378
X226378Y-70472
X219291Y-65354
Y-48819
X226772Y-46457
X232677Y-50787
X323228Y-68504
X467323Y-146850
T04
X482677Y-32283
X490945
T05
X698228Y-266535
Y-227165
Y-218110
Y-178740
X717913Y-198425
Y-246850
X193307Y-222441
X167717
X150000Y-255906
Y-281496
X107480Y-59646
Y-34055
X58608Y-79431
X33018
X698228Y-81496
Y-120866
Y-130118
Y-169488
X717913Y-149803
Y-101181
T06
X460134Y-49606
X479134
T07
X715354Y-60628
Y-43305
T08
X235901Y-264900
X245901
X255901
Y-254900
X265901
X275901
Y-264900
X265901
X245901Y-254900
X235901
T09
X658060Y-197808
X668060
X503937Y-231339
X493937
X483937
X473937
X463937
X453937
X443937
Y-241339
X453937
X463937
X473937
X483937
X493937
X503937
X443622Y-211024
X433622
X423622
X423937Y-231339
X413937
Y-241339
X423937
X433937
Y-231339
X355118Y-228740
Y-238740
X345118
Y-228740
Y-218740
X355118
Y-208740
X345118
Y-198740
X355118
Y-188740
X345118
Y-178740
X355118
X321142Y-206102
X311142
Y-216102
X321142
Y-226102
X311142
Y-236102
X321142
Y-246102
X311142
Y-256102
X321142
X47126Y-295394
X37126
X345118Y-168740
X355118
Y-158740
X345118
Y-148740
X355118
Y-138740
X345118
Y-128740
X355118
Y-118740
X345118
Y-108740
X355118
Y-98740
X345118
Y-88740
X355118
Y-78740
X345118
Y-68740
X355118
Y-58740
X345118
Y-48740
X355118
Y-38740
X345118
Y-28740
X355118
X394104Y-86386
X404104
X527283Y-112343
X537284
X554016Y-45512
Y-35512
X564016
Y-45512
X574016
Y-35512
X584016
Y-45512
X656299Y-90000
Y-100000
X680315Y-74410
Y-14567
T10
X698228Y-246850
X717913Y-227165
Y-218110
X727756
Y-227165
Y-266535
X717913
Y-178740
X727756
X698228Y-198425
Y-149803
X717913Y-130118
Y-120866
X727756
Y-130118
Y-169488
X717913
Y-81496
X727756
X698228Y-101181
T11
X668287Y-288583
X683287
T12
X286063Y-67874
X296063Y-57874
X306063Y-47874
Y-67874
X286063Y-47874
T13
X724409Y-287402
X11811
X161417Y-145669
X421260Y-90551
X724409Y-15748
X11811
M30
