M48
;Layer_Color=9474304
;FILE_FORMAT=2:5
INCH,TZ
;TYPE=PLATED
T1F00S00C0.01913
T2F00S00C0.02800
T3F00S00C0.03543
T4F00S00C0.03937
T6F00S00C0.04331
T7F00S00C0.04724
T8F00S00C0.05118
T9F00S00C0.07087
T10F00S00C0.11811
T11F00S00C0.82677
%
T01
X578000Y-261277
X624409Y-251064
X624803Y-242009
X613500Y-224777
X677527Y-234923
X695000Y-237277
X677500Y-257777
Y-265277
X669385Y-251064
X641732Y-276261
X710000Y-289777
X540500Y-287777
X492027Y-216222
X475984Y-216025
X462500Y-196277
X444500Y-213777
X415138Y-193470
X409500Y-197277
X385138Y-198375
X369291Y-194805
X349500Y-205277
X303500Y-204277
X251000Y-212777
X215000Y-240777
X159500Y-290777
X34000Y-288277
X67500Y-155277
X67000Y-78277
X181500Y-76277
X193522Y-48636
X148742Y-34699
X200500Y-141777
X253500Y-187777
X256000Y-93777
X298000Y-169777
X353000Y-182277
X395327Y-181379
X406500Y-157277
X404500Y-70277
X462000Y-66277
Y-76277
Y-86777
Y-96277
Y-106777
Y-116277
Y-126277
X443297Y-130575
X445564Y-168771
X462500Y-186277
X485000
X508500Y-176277
X502500Y-146277
X502000Y-136277
Y-126277
Y-116277
Y-106277
Y-96277
X502500Y-86277
X502000Y-76277
Y-66277
Y-56277
Y-46277
Y-36277
X514000Y-41777
X519000Y-42777
X524000Y-43277
X529000Y-43777
X535000Y-44777
X539500Y-48277
X543000Y-44777
X532500Y-50277
X530000Y-117777
X525500Y-121777
X521000Y-126277
X517500Y-131277
X514000Y-135777
X462000Y-56277
Y-46777
Y-36277
X608000Y-25277
X696500Y-26277
T02
X287008Y-48702
T03
X122960Y-44541
X113118Y-34699
X132803
Y-15013
X122960Y-24856
X113118Y-15013
T04
X426968Y-280789
X426968Y-263072
X452559
X452559Y-280789
X479330
X479331Y-263072
X504921
X504922Y-280789
X400197
X400197Y-263072
X374606
X374606Y-280789
X347441
X347441Y-263072
X321850
X321850Y-280789
X295079
X295079Y-263072
X269488
X269488Y-280789
X242717
X242716Y-263072
X217126
X217125Y-280789
X188583Y-257167
X188583Y-239451
X162992
X162992Y-257167
X141338
X141339Y-239451
X115748
X115748Y-257167
X115748Y-205986
X141339
X162992
X188583
X94095
X68503
X46851
X21259
Y-239451
X21260Y-257167
X46850
X46851Y-239451
X68503
X68504Y-257167
X94094
X94095Y-239451
X94094Y-188269
X68504
X46850
X21260
X115748
X141338
X162992
X188583
X245500Y-48636
Y-23636
X59295Y-16919
X59296Y-34635
X33704
X33705Y-16919
T06
X574488Y-235316
X584488
X594488
X564488
X560500Y-204269
Y-194269
X550500
Y-204269
X311563Y-222269
X302051
X169138Y-148183
X159138
X149138
Y-90683
X169138
X346571Y-125474
X356571
Y-135474
X346571
Y-145474
X356571
Y-155474
X346571
X550500Y-154269
Y-144269
Y-134269
Y-124269
Y-114269
Y-104269
Y-94269
Y-84269
Y-74269
Y-64269
Y-54269
Y-44269
X560500
Y-54269
Y-64269
Y-74269
Y-84269
Y-94269
Y-104269
Y-114269
Y-124269
Y-134269
Y-144269
Y-154269
Y-164269
X550500
Y-174269
X560500
Y-184269
X550500
Y-34269
X560500
T07
X28665Y-91017
X38508
X48350
X88508
X98350
X108193
T08
X341338Y-18387
X356338
X385020
X400020
X171000Y-19777
X156000
X91500
X76500
T09
X16964Y-66277
T10
X724409Y-287679
X555988Y-218769
X217799
X11811Y-287679
X590157Y-151852
X700394
X724409Y-16025
X555988Y-20269
X217799
X11811Y-16025
T11
X645275Y-151852
M30
