M48
;Layer_Color=9474304
;FILE_FORMAT=2:5
INCH,TZ
;TYPE=PLATED
T1F00S00C0.01913
T2F00S00C0.02800
T3F00S00C0.03543
T4F00S00C0.03937
T6F00S00C0.04331
T7F00S00C0.04724
T8F00S00C0.05118
T9F00S00C0.07087
T10F00S00C0.11811
T11F00S00C0.82677
%
T01
X578000Y-261000
X624409Y-250787
X624803Y-241732
X613500Y-224500
X677527Y-234646
X695000Y-237000
X677500Y-257500
Y-265000
X669385Y-250787
X641732Y-275984
X710000Y-289500
X540500Y-287500
X492028Y-215945
X475984Y-215748
X462500Y-196000
X444500Y-213500
X415138Y-193193
X409500Y-197000
X385139Y-198098
X369291Y-194527
X349500Y-205000
X303500Y-204000
X251000Y-212500
X215000Y-240500
X159500Y-290500
X34000Y-288000
X67500Y-155000
X67000Y-78000
X181500Y-76000
X193522Y-48359
X148742Y-34421
X200500Y-141500
X253500Y-187500
X256000Y-93500
X298000Y-169500
X353000Y-182000
X395327Y-181102
X406500Y-157000
X404500Y-70000
X462000Y-66000
Y-76000
Y-86500
Y-96000
Y-106500
Y-116000
Y-126000
X443297Y-130298
X445564Y-168494
X462500Y-186000
X485000
X508500Y-176000
X502500Y-146000
X502000Y-136000
Y-126000
Y-116000
Y-106000
Y-96000
X502500Y-86000
X502000Y-76000
Y-66000
Y-56000
Y-46000
Y-36000
X514000Y-41500
X519000Y-42500
X524000Y-43000
X529000Y-43500
X535000Y-44500
X539500Y-48000
X543000Y-44500
X532500Y-50000
X530000Y-117500
X525500Y-121500
X521000Y-126000
X517500Y-131000
X514000Y-135500
X462000Y-56000
Y-46500
Y-36000
X608000Y-25000
X696500Y-26000
T02
X287008Y-48425
T03
X122960Y-44264
X113118Y-34421
X132803
Y-14736
X122960Y-24579
X113118Y-14736
T04
X426968Y-280512
X426968Y-262795
X452559
X452560Y-280512
X479330
X479331Y-262795
X504921
X504922Y-280512
X400197
X400197Y-262795
X374606
X374606Y-280512
X347441
X347441Y-262795
X321850
X321850Y-280512
X295079
X295079Y-262795
X269488
X269488Y-280512
X242717
X242717Y-262795
X217126
X217126Y-280512
X188583Y-256890
X188583Y-239173
X162992
X162992Y-256890
X141339
X141339Y-239173
X115748
X115748Y-256890
X115748Y-205709
X141339
X162992
X188583
X94095
X68503
X46851
X21260
Y-239173
X21260Y-256890
X46850
X46851Y-239173
X68503
X68504Y-256890
X94095
X94095Y-239173
X94095Y-187992
X68504
X46850
X21260
X115748
X141339
X162992
X188583
X245500Y-48359
Y-23359
X59295Y-16642
X59296Y-34358
X33704
X33705Y-16642
T06
X574488Y-235039
X584488
X594488
X564488
X560500Y-203992
Y-193992
X550500
Y-203992
X311563Y-221992
X302051
X169138Y-147906
X159138
X149138
Y-90405
X169138
X346571Y-125197
X356571
Y-135197
X346571
Y-145197
X356571
Y-155197
X346571
X550500Y-153992
Y-143992
Y-133992
Y-123992
Y-113992
Y-103992
Y-93992
Y-83992
Y-73992
Y-63992
Y-53992
Y-43992
X560500
Y-53992
Y-63992
Y-73992
Y-83992
Y-93992
Y-103992
Y-113992
Y-123992
Y-133992
Y-143992
Y-153992
Y-163992
X550500
Y-173992
X560500
Y-183992
X550500
Y-33992
X560500
T07
X28665Y-90740
X38508
X48350
X88508
X98350
X108193
T08
X341338Y-18110
X356339
X385020
X400020
X171000Y-19500
X156000
X91500
X76500
T09
X16965Y-66000
T10
X724409Y-287402
X555988Y-218492
X217799
X11811Y-287402
X590158Y-151575
X700394
X724409Y-15748
X555988Y-19992
X217799
X11811Y-15748
T11
X645275Y-151575
M30
