G04*
G04 #@! TF.GenerationSoftware,Altium Limited,Altium Designer,19.1.8 (144)*
G04*
G04 Layer_Color=65535*
%FSLAX25Y25*%
%MOIN*%
G70*
G01*
G75*
%ADD10C,0.00984*%
%ADD11C,0.01000*%
%ADD12C,0.02362*%
%ADD13C,0.00787*%
%ADD14C,0.01544*%
%ADD15C,0.00926*%
%ADD16C,0.01235*%
G36*
X623667Y-270660D02*
X623655Y-270513D01*
X623619Y-270371D01*
X623559Y-270237D01*
X623478Y-270116D01*
X623379Y-270011D01*
X623264Y-269927D01*
X623136Y-269865D01*
X623000Y-269826D01*
X622860Y-269813D01*
X622720Y-269826D01*
X622584Y-269865D01*
X622457Y-269927D01*
X622341Y-270011D01*
X622242Y-270116D01*
X622161Y-270237D01*
X622102Y-270371D01*
X622065Y-270513D01*
X622053Y-270660D01*
X622065Y-270807D01*
X622102Y-270950D01*
X622161Y-271083D01*
X622242Y-271204D01*
X622341Y-271309D01*
X622457Y-271393D01*
X622584Y-271456D01*
X622720Y-271494D01*
X622860Y-271507D01*
X623000Y-271494D01*
X623136Y-271456D01*
X623264Y-271393D01*
X623379Y-271309D01*
X623478Y-271204D01*
X623559Y-271083D01*
X623619Y-270950D01*
X623655Y-270807D01*
X623667Y-270660D01*
D01*
D02*
G37*
G36*
X596478Y-101741D02*
X596304Y-101759D01*
X596135Y-101810D01*
X595976Y-101894D01*
X595833Y-102008D01*
X595710Y-102149D01*
X595609Y-102312D01*
X595535Y-102492D01*
X595490Y-102685D01*
X595475Y-102883D01*
X595490Y-103082D01*
X595535Y-103274D01*
X595609Y-103454D01*
X595710Y-103617D01*
X595833Y-103758D01*
X595976Y-103872D01*
X596135Y-103956D01*
X596304Y-104007D01*
X596478Y-104025D01*
X596652Y-104007D01*
X596821Y-103956D01*
X596980Y-103872D01*
X597122Y-103758D01*
X597246Y-103617D01*
X597346Y-103454D01*
X597421Y-103274D01*
X597466Y-103082D01*
X597481Y-102883D01*
X597466Y-102685D01*
X597421Y-102492D01*
X597346Y-102312D01*
X597246Y-102149D01*
X597122Y-102008D01*
X596980Y-101894D01*
X596821Y-101810D01*
X596652Y-101759D01*
X596478Y-101741D01*
D01*
D02*
G37*
G36*
X433885Y-28319D02*
X433865Y-28536D01*
X433809Y-28747D01*
X433717Y-28944D01*
X433592Y-29122D01*
X433438Y-29277D01*
X433259Y-29402D01*
X433062Y-29494D01*
X432852Y-29550D01*
X432635Y-29569D01*
X432418Y-29550D01*
X432207Y-29494D01*
X432010Y-29402D01*
X431831Y-29277D01*
X431677Y-29122D01*
X431552Y-28944D01*
X431460Y-28747D01*
X431404Y-28536D01*
X431385Y-28319D01*
X431404Y-28102D01*
X431460Y-27892D01*
X431552Y-27694D01*
X431677Y-27516D01*
X431831Y-27362D01*
X432010Y-27237D01*
X432207Y-27145D01*
X432418Y-27088D01*
X432635Y-27069D01*
X432852Y-27088D01*
X433062Y-27145D01*
X433259Y-27237D01*
X433438Y-27362D01*
X433592Y-27516D01*
X433717Y-27694D01*
X433809Y-27892D01*
X433865Y-28102D01*
X433885Y-28319D01*
D01*
D02*
G37*
G36*
X488397Y-79486D02*
X488385Y-79352D01*
X488350Y-79222D01*
X488294Y-79101D01*
X488216Y-78991D01*
X488121Y-78896D01*
X488011Y-78819D01*
X487889Y-78762D01*
X487759Y-78727D01*
X487626Y-78715D01*
X487491Y-78727D01*
X487361Y-78762D01*
X487240Y-78819D01*
X487129Y-78896D01*
X487034Y-78991D01*
X486957Y-79101D01*
X486900Y-79222D01*
X486866Y-79352D01*
X486854Y-79486D01*
X486866Y-79619D01*
X486900Y-79749D01*
X486957Y-79871D01*
X487034Y-79981D01*
X487129Y-80076D01*
X487240Y-80153D01*
X487361Y-80209D01*
X487491Y-80244D01*
X487626Y-80256D01*
X487759Y-80244D01*
X487889Y-80209D01*
X488011Y-80153D01*
X488121Y-80076D01*
X488216Y-79981D01*
X488294Y-79871D01*
X488350Y-79749D01*
X488385Y-79619D01*
X488397Y-79486D01*
D01*
D02*
G37*
G36*
X656048Y-270503D02*
X656036Y-270356D01*
X656000Y-270213D01*
X655940Y-270079D01*
X655860Y-269959D01*
X655760Y-269854D01*
X655645Y-269770D01*
X655517Y-269707D01*
X655381Y-269669D01*
X655241Y-269656D01*
X655101Y-269669D01*
X654965Y-269707D01*
X654838Y-269770D01*
X654722Y-269854D01*
X654623Y-269959D01*
X654542Y-270079D01*
X654483Y-270213D01*
X654447Y-270356D01*
X654434Y-270503D01*
X654447Y-270650D01*
X654483Y-270793D01*
X654542Y-270926D01*
X654623Y-271047D01*
X654722Y-271152D01*
X654838Y-271236D01*
X654965Y-271298D01*
X655101Y-271337D01*
X655241Y-271350D01*
X655381Y-271337D01*
X655517Y-271298D01*
X655645Y-271236D01*
X655760Y-271152D01*
X655860Y-271047D01*
X655940Y-270926D01*
X656000Y-270793D01*
X656036Y-270650D01*
X656048Y-270503D01*
D01*
D02*
G37*
G36*
X642542Y-124733D02*
X642381Y-124747D01*
X642225Y-124786D01*
X642079Y-124850D01*
X641946Y-124936D01*
X641832Y-125043D01*
X641739Y-125166D01*
X641671Y-125303D01*
X641629Y-125449D01*
X641615Y-125600D01*
X641629Y-125750D01*
X641671Y-125896D01*
X641739Y-126033D01*
X641832Y-126156D01*
X641946Y-126263D01*
X642079Y-126350D01*
X642225Y-126413D01*
X642381Y-126453D01*
X642542Y-126466D01*
X642703Y-126453D01*
X642859Y-126413D01*
X643006Y-126350D01*
X643138Y-126263D01*
X643252Y-126156D01*
X643345Y-126033D01*
X643413Y-125896D01*
X643455Y-125750D01*
X643469Y-125600D01*
X643455Y-125449D01*
X643413Y-125303D01*
X643345Y-125166D01*
X643252Y-125043D01*
X643138Y-124936D01*
X643006Y-124850D01*
X642859Y-124786D01*
X642703Y-124747D01*
X642542Y-124733D01*
D01*
D02*
G37*
G36*
X643173Y-83907D02*
X643026Y-83922D01*
X642883Y-83967D01*
X642750Y-84041D01*
X642629Y-84142D01*
X642524Y-84265D01*
X642440Y-84409D01*
X642377Y-84567D01*
X642339Y-84736D01*
X642326Y-84911D01*
X642339Y-85085D01*
X642377Y-85254D01*
X642440Y-85413D01*
X642524Y-85556D01*
X642629Y-85680D01*
X642750Y-85780D01*
X642883Y-85854D01*
X643026Y-85899D01*
X643173Y-85915D01*
X643320Y-85899D01*
X643462Y-85854D01*
X643596Y-85780D01*
X643716Y-85680D01*
X643821Y-85556D01*
X643905Y-85413D01*
X643968Y-85254D01*
X644006Y-85085D01*
X644019Y-84911D01*
X644006Y-84736D01*
X643968Y-84567D01*
X643905Y-84409D01*
X643821Y-84265D01*
X643716Y-84142D01*
X643596Y-84041D01*
X643462Y-83967D01*
X643320Y-83922D01*
X643173Y-83907D01*
D01*
D02*
G37*
G36*
X690045Y-48691D02*
X689840Y-48709D01*
X689641Y-48762D01*
X689454Y-48849D01*
X689286Y-48967D01*
X689140Y-49113D01*
X689022Y-49281D01*
X688935Y-49468D01*
X688882Y-49666D01*
X688864Y-49871D01*
X688882Y-50076D01*
X688935Y-50275D01*
X689022Y-50461D01*
X689140Y-50630D01*
X689286Y-50776D01*
X689454Y-50893D01*
X689641Y-50980D01*
X689840Y-51034D01*
X690045Y-51052D01*
X690250Y-51034D01*
X690449Y-50980D01*
X690635Y-50893D01*
X690804Y-50776D01*
X690950Y-50630D01*
X691068Y-50461D01*
X691155Y-50275D01*
X691208Y-50076D01*
X691226Y-49871D01*
X691208Y-49666D01*
X691155Y-49468D01*
X691068Y-49281D01*
X690950Y-49113D01*
X690804Y-48967D01*
X690635Y-48849D01*
X690449Y-48762D01*
X690250Y-48709D01*
X690045Y-48691D01*
D01*
D02*
G37*
D10*
X224299Y-36000D02*
X223561Y-35574D01*
Y-36426D01*
X224299Y-36000D01*
X363059Y-100071D02*
X362321Y-99645D01*
Y-100497D01*
X363059Y-100071D01*
X273195Y-66921D02*
X272457Y-66495D01*
Y-67348D01*
X273195Y-66921D01*
X270032Y-100071D02*
X269294Y-99645D01*
Y-100497D01*
X270032Y-100071D01*
X316508D02*
X315769Y-99645D01*
Y-100497D01*
X316508Y-100071D01*
X462161Y-93921D02*
X461423Y-93495D01*
Y-94348D01*
X462161Y-93921D01*
X60519Y-73214D02*
X59781Y-72788D01*
Y-73640D01*
X60519Y-73214D01*
X60500Y-202655D02*
X59762Y-202228D01*
Y-203081D01*
X60500Y-202655D01*
X232074Y-90055D02*
X231336Y-89628D01*
Y-90481D01*
X232074Y-90055D01*
X104330Y-17128D02*
X103591Y-16702D01*
Y-17554D01*
X104330Y-17128D01*
D11*
X529573Y-16774D02*
X529491Y-15787D01*
X529248Y-14826D01*
X528850Y-13919D01*
X528308Y-13089D01*
X527636Y-12360D01*
X526855Y-11751D01*
X525983Y-11280D01*
X525046Y-10958D01*
X524068Y-10795D01*
X523077D01*
X522100Y-10958D01*
X521163Y-11280D01*
X520291Y-11751D01*
X519509Y-12360D01*
X518838Y-13089D01*
X518296Y-13919D01*
X517898Y-14826D01*
X517655Y-15787D01*
X517573Y-16774D01*
Y-55774D02*
X517655Y-56762D01*
X517898Y-57723D01*
X518296Y-58630D01*
X518838Y-59460D01*
X519509Y-60189D01*
X520291Y-60797D01*
X521163Y-61269D01*
X522100Y-61591D01*
X523077Y-61754D01*
X524068D01*
X525046Y-61591D01*
X525983Y-61269D01*
X526855Y-60797D01*
X527636Y-60189D01*
X528308Y-59460D01*
X528850Y-58630D01*
X529248Y-57723D01*
X529491Y-56762D01*
X529573Y-55774D01*
X393288Y-124441D02*
X392303Y-124705D01*
X391582Y-125426D01*
X391318Y-126411D01*
X391582Y-127395D01*
X392303Y-128116D01*
X393288Y-128380D01*
X583378Y-16800D02*
X583296Y-15812D01*
X583052Y-14852D01*
X582654Y-13944D01*
X582112Y-13115D01*
X581441Y-12386D01*
X580659Y-11777D01*
X579788Y-11305D01*
X578851Y-10984D01*
X577873Y-10820D01*
X576882D01*
X575905Y-10984D01*
X574967Y-11305D01*
X574096Y-11777D01*
X573314Y-12386D01*
X572643Y-13115D01*
X572101Y-13944D01*
X571703Y-14852D01*
X571459Y-15812D01*
X571378Y-16800D01*
Y-55800D02*
X571459Y-56788D01*
X571703Y-57748D01*
X572101Y-58656D01*
X572643Y-59485D01*
X573314Y-60214D01*
X574096Y-60823D01*
X574967Y-61295D01*
X575905Y-61616D01*
X576882Y-61779D01*
X577873D01*
X578851Y-61616D01*
X579788Y-61295D01*
X580659Y-60823D01*
X581441Y-60214D01*
X582112Y-59485D01*
X582654Y-58656D01*
X583052Y-57748D01*
X583296Y-56788D01*
X583378Y-55800D01*
X220474Y-125395D02*
X219489Y-125659D01*
X218768Y-126380D01*
X218504Y-127364D01*
X218768Y-128349D01*
X219489Y-129070D01*
X220474Y-129333D01*
X120604Y-239676D02*
Y-237320D01*
X126897Y-239676D02*
Y-237320D01*
X120604Y-239676D02*
X126897D01*
X120604Y-238931D02*
X126897D01*
X120604Y-209456D02*
Y-207100D01*
X126897Y-209456D02*
Y-207100D01*
X120604Y-209456D02*
X126897D01*
X120604Y-208711D02*
X126897D01*
X23499Y-256000D02*
Y-246000D01*
Y-256000D02*
X43501D01*
Y-246000D01*
X23499D02*
X43501D01*
X257765Y-35539D02*
X303265D01*
X257765Y-16539D02*
X303265D01*
Y-35539D02*
Y-16539D01*
X257765Y-35539D02*
Y-16539D01*
X82510Y-232368D02*
X89990D01*
X82510Y-218955D02*
X89990D01*
X82510Y-232368D02*
Y-218955D01*
X89990Y-232368D02*
Y-218955D01*
X510993Y-159833D02*
Y-157477D01*
X517286Y-159833D02*
Y-157477D01*
X510993Y-159091D02*
X517286D01*
X510993Y-159836D02*
X517286D01*
X717513Y-67511D02*
Y-37511D01*
X728537D01*
Y-67511D02*
Y-37511D01*
X717513Y-67511D02*
X728537D01*
X659848Y-297047D02*
Y-289567D01*
X646434Y-297047D02*
Y-289567D01*
Y-297047D02*
X659848D01*
X646434Y-289567D02*
X659848D01*
X73393Y-93254D02*
Y-90898D01*
X67100Y-93254D02*
Y-90898D01*
Y-91640D02*
X73393D01*
X67100Y-90895D02*
X73393D01*
X101426Y-158212D02*
Y-137662D01*
X126389D01*
Y-158212D02*
Y-137662D01*
X101426Y-158212D02*
X126389D01*
X492571Y-145297D02*
Y-125295D01*
X482571Y-145297D02*
X492571D01*
X482571D02*
Y-125295D01*
X492571D01*
X525656Y-279704D02*
X546206D01*
X525656D02*
Y-254742D01*
X546206D01*
Y-279704D02*
Y-254742D01*
X514648Y-147026D02*
Y-132459D01*
Y-147026D02*
X539845D01*
Y-133640D01*
X520555Y-124585D02*
X527247D01*
X532365D01*
X693177Y-257683D02*
X699470D01*
X693177Y-258428D02*
X699470D01*
Y-256072D01*
X693177Y-258428D02*
Y-256072D01*
X682760Y-21526D02*
X690831Y-21522D01*
X682760Y-43176D02*
Y-21526D01*
Y-43176D02*
X687092Y-47506D01*
X690831D01*
X700674Y-21522D02*
X708744Y-21526D01*
Y-43176D02*
Y-21526D01*
X704413Y-47506D02*
X708744Y-43176D01*
X700674Y-47506D02*
X704413D01*
X126074Y-292898D02*
Y-272348D01*
X101111Y-292898D02*
X126074D01*
X101111D02*
Y-272348D01*
X126074D01*
X459262Y-59939D02*
Y-57583D01*
X465555Y-59939D02*
Y-57583D01*
X459262Y-59198D02*
X465555D01*
X459262Y-59943D02*
X465555D01*
X517573Y-55756D02*
Y-16793D01*
X529573Y-55756D02*
Y-16793D01*
X32125Y-290393D02*
X52127D01*
Y-300394D02*
Y-290393D01*
X32125Y-300394D02*
X52127D01*
X32125D02*
Y-290393D01*
X624495Y-248672D02*
X650124D01*
Y-272688D02*
Y-248672D01*
X624495Y-272688D02*
X650124D01*
X624495D02*
Y-248672D01*
X639993Y-288127D02*
X642349D01*
X639993Y-281834D02*
X642349D01*
X649260Y-231085D02*
Y-219469D01*
X608317Y-231085D02*
Y-219469D01*
Y-231085D02*
X649260D01*
X608317Y-190140D02*
X649260D01*
Y-201756D02*
Y-190140D01*
X608317Y-201756D02*
Y-190140D01*
X353920Y-121292D02*
X393287D01*
X353920Y-131529D02*
X393287D01*
X353920D02*
Y-121292D01*
X393287Y-124441D02*
Y-121292D01*
Y-131529D02*
Y-128380D01*
X496550Y-105365D02*
Y-79382D01*
X507574Y-105365D02*
Y-79382D01*
X496550Y-105365D02*
X507574D01*
X496550Y-79382D02*
X507574D01*
X434512Y-6625D02*
X511244D01*
Y-48633D02*
Y-6625D01*
X434512Y-48633D02*
X511244D01*
X434512D02*
Y-6625D01*
X651104Y-142922D02*
Y-64182D01*
X592055D02*
X651104D01*
X592055Y-142922D02*
Y-64182D01*
Y-142922D02*
X651104D01*
X159136Y-198807D02*
Y-193693D01*
X278588Y-228057D02*
Y-222943D01*
X631523Y-240828D02*
X633879D01*
X631523Y-234535D02*
X633879D01*
X279787Y-186144D02*
Y-181029D01*
X278588Y-220557D02*
Y-215443D01*
X278537Y-251768D02*
Y-246654D01*
X571378Y-55782D02*
Y-16818D01*
X583378Y-55782D02*
Y-16818D01*
X102443Y-82088D02*
X107557D01*
X719426Y-112917D02*
Y-101300D01*
X678483Y-112917D02*
Y-101300D01*
Y-112917D02*
X719426D01*
X678483Y-71972D02*
X719426D01*
Y-83588D02*
Y-71972D01*
X678483Y-83588D02*
Y-71972D01*
X656294Y-201737D02*
Y-190121D01*
X697237Y-201737D02*
Y-190121D01*
X656294D02*
X697237D01*
X656294Y-231066D02*
X697237D01*
X656294D02*
Y-219450D01*
X697237Y-231066D02*
Y-219450D01*
X656876Y-272531D02*
Y-248515D01*
Y-272531D02*
X682505D01*
Y-248515D01*
X656876D02*
X682505D01*
X546811Y-25418D02*
Y-23062D01*
X553103Y-25418D02*
Y-23062D01*
X546811Y-25418D02*
X553103D01*
X546811Y-24673D02*
X553103D01*
X513358Y-115447D02*
Y-110333D01*
X587312Y-253088D02*
X589668D01*
X587312Y-259381D02*
X589668D01*
X606217Y-259178D02*
Y-256822D01*
X612510Y-259178D02*
Y-256822D01*
X606217Y-259178D02*
X612510D01*
X606217Y-258434D02*
X612510D01*
X475038Y-174219D02*
Y-169105D01*
X474413Y-259844D02*
Y-254730D01*
X474088Y-225057D02*
Y-219943D01*
X474413Y-252344D02*
Y-247230D01*
X489590Y-230532D02*
Y-225418D01*
X490038Y-195469D02*
Y-190355D01*
X430030Y-253247D02*
Y-248133D01*
X408337Y-212326D02*
X413451D01*
X445030Y-253247D02*
Y-248133D01*
Y-260747D02*
Y-255633D01*
Y-197622D02*
Y-192508D01*
X355450Y-41178D02*
Y-34091D01*
X339313Y-25041D02*
X346400D01*
X330263Y-41178D02*
Y-34091D01*
X339313Y-50228D02*
X346400D01*
X376434Y-260524D02*
Y-255410D01*
X378088Y-223557D02*
Y-218443D01*
X376434Y-253387D02*
Y-248273D01*
X354741Y-247669D02*
X359855D01*
X326306Y-259496D02*
Y-254382D01*
X327537Y-221066D02*
Y-215952D01*
X342556Y-259496D02*
Y-254382D01*
Y-200746D02*
Y-195632D01*
X294787Y-259268D02*
Y-254154D01*
Y-200780D02*
Y-195666D01*
X195443Y-52088D02*
X200557D01*
X223443Y-36912D02*
X228557D01*
X220472Y-132483D02*
Y-129333D01*
Y-125395D02*
Y-122245D01*
X181105Y-132483D02*
Y-122245D01*
Y-132483D02*
X220472D01*
X181105Y-122245D02*
X220472D01*
X228280Y-253388D02*
Y-248274D01*
X228588Y-220557D02*
Y-215443D01*
X166455Y-232125D02*
X171569D01*
X166455Y-205875D02*
X171569D01*
X194398Y-233046D02*
Y-227932D01*
Y-199921D02*
Y-194807D01*
X124588Y-109057D02*
Y-103943D01*
X125088Y-81057D02*
Y-75943D01*
Y-74057D02*
Y-68943D01*
X102433Y-110376D02*
X107547D01*
X92412Y-172057D02*
Y-166943D01*
X67791Y-219353D02*
X74084D01*
X67791Y-220098D02*
X74084D01*
X67791Y-221713D02*
Y-219357D01*
X74084Y-221713D02*
Y-219357D01*
X91912Y-260057D02*
Y-254943D01*
X143511Y-253807D02*
Y-248693D01*
X671912Y-57557D02*
Y-52443D01*
Y-67057D02*
Y-61943D01*
X641885Y-183899D02*
X644241D01*
X641885Y-177606D02*
X644241D01*
Y-183899D02*
Y-177606D01*
X643496Y-183899D02*
Y-177606D01*
X690779Y-179244D02*
Y-176888D01*
X697072Y-179244D02*
Y-176888D01*
X690779Y-179244D02*
X697072D01*
X690779Y-178499D02*
X697072D01*
X672019Y-240334D02*
X674375D01*
X672019Y-234041D02*
X674375D01*
X603517Y-23410D02*
X605873D01*
X603517Y-17117D02*
X605873D01*
Y-23410D02*
Y-17117D01*
X605128Y-23410D02*
Y-17117D01*
X550948Y-60668D02*
Y-58312D01*
X557241Y-60668D02*
Y-58312D01*
X550948Y-60668D02*
X557241D01*
X550948Y-59923D02*
X557241D01*
X607952Y-178132D02*
Y-175776D01*
X614245Y-178132D02*
Y-175776D01*
X607952Y-178132D02*
X614245D01*
X607952Y-177387D02*
X614245D01*
X490761Y-60148D02*
X497054D01*
X490761Y-59403D02*
X497054D01*
Y-60144D02*
Y-57788D01*
X490761Y-60144D02*
Y-57788D01*
X475038Y-181719D02*
Y-176605D01*
X430030Y-182622D02*
Y-177508D01*
X474088Y-217057D02*
Y-211943D01*
X490038Y-202969D02*
Y-197855D01*
X400837Y-212326D02*
X405951D01*
X430136Y-218057D02*
Y-212943D01*
X445030Y-205122D02*
Y-200008D01*
X489502Y-238387D02*
Y-233273D01*
X400837Y-247326D02*
X405951D01*
X408337D02*
X413451D01*
X376434Y-178227D02*
Y-173113D01*
Y-185727D02*
Y-180613D01*
X327556Y-178246D02*
Y-173132D01*
Y-185747D02*
Y-180632D01*
X345991Y-217306D02*
X351105D01*
X378088Y-216557D02*
Y-211443D01*
X354741Y-217306D02*
X359855D01*
X342556Y-208246D02*
Y-203132D01*
X294787Y-208280D02*
Y-203166D01*
X347241Y-247669D02*
X352355D01*
X326306Y-251996D02*
Y-246882D01*
X342556Y-251996D02*
Y-246882D01*
X294787Y-251768D02*
Y-246654D01*
X228280Y-185888D02*
Y-180774D01*
X256844Y-210848D02*
X261958D01*
X194398Y-208671D02*
Y-203557D01*
X256844Y-245848D02*
X261958D01*
X194398Y-241796D02*
Y-236682D01*
X125088Y-94557D02*
Y-89443D01*
Y-101557D02*
Y-96443D01*
Y-87557D02*
Y-82443D01*
X92412Y-181057D02*
Y-175943D01*
X142886Y-186107D02*
Y-180992D01*
X92114Y-205057D02*
Y-199943D01*
X142088Y-214057D02*
Y-208943D01*
X91912Y-251057D02*
Y-245943D01*
X501900Y-65569D02*
X507015D01*
X279787Y-177393D02*
Y-172279D01*
X573088Y-261057D02*
Y-255943D01*
X475412Y-88791D02*
X480526D01*
X430030Y-175122D02*
Y-170008D01*
Y-260747D02*
Y-255633D01*
X429588Y-225557D02*
Y-220443D01*
X392684Y-253387D02*
Y-248273D01*
Y-260887D02*
Y-255773D01*
Y-199477D02*
Y-194363D01*
X278537Y-259268D02*
Y-254154D01*
X243280Y-253388D02*
Y-248274D01*
Y-199638D02*
Y-194524D01*
X213861Y-103961D02*
Y-97668D01*
X213116Y-103961D02*
Y-97668D01*
X211501D02*
X213857D01*
X211501Y-103961D02*
X213857D01*
X159136Y-261307D02*
Y-256193D01*
Y-253807D02*
Y-248693D01*
X112683Y-35982D02*
X118976D01*
X112683Y-36726D02*
X118976D01*
X112683Y-38341D02*
Y-35985D01*
X118976Y-38341D02*
Y-35985D01*
X682316Y-179180D02*
Y-176824D01*
X688609Y-179180D02*
Y-176824D01*
X682316Y-179180D02*
X688609D01*
X682316Y-178435D02*
X688609D01*
X661384Y-177553D02*
X663740D01*
X661384Y-183846D02*
X663740D01*
X661384D02*
Y-177553D01*
X662129Y-183846D02*
Y-177553D01*
X617061Y-178374D02*
Y-176018D01*
X623354Y-178374D02*
Y-176018D01*
X617061Y-178374D02*
X623354D01*
X617061Y-177629D02*
X623354D01*
X572588Y-280057D02*
Y-274943D01*
X442069Y-63711D02*
Y-58597D01*
X453434Y-211423D02*
X458548D01*
X453344Y-246423D02*
X458459D01*
X392684Y-206977D02*
Y-201863D01*
X304613Y-212326D02*
X309727D01*
X304613Y-246076D02*
X309727D01*
X237105Y-26706D02*
X243398D01*
X237105Y-25961D02*
X243398D01*
Y-26702D02*
Y-24346D01*
X237105Y-26702D02*
Y-24346D01*
X243280Y-207138D02*
Y-202024D01*
Y-244274D02*
Y-239160D01*
X206587Y-212467D02*
X211701D01*
X206587Y-246217D02*
X211701D01*
X159136Y-206307D02*
Y-201193D01*
X617879Y-58968D02*
X620538D01*
X619208D01*
Y-62956D01*
X623861D02*
Y-58968D01*
X621867Y-60962D01*
X624526D01*
X262512Y-67000D02*
X266500D01*
Y-65006D01*
X265835Y-64341D01*
X263177D01*
X262512Y-65006D01*
Y-67000D01*
X266500Y-60353D02*
Y-63012D01*
X263841Y-60353D01*
X263177D01*
X262512Y-61018D01*
Y-62347D01*
X263177Y-63012D01*
X266500Y-57030D02*
X262512D01*
X264506Y-59024D01*
Y-56365D01*
X467824Y-51587D02*
X470483D01*
X469153D01*
Y-55575D01*
X474471Y-52252D02*
X473806Y-51587D01*
X472477D01*
X471812Y-52252D01*
Y-52916D01*
X472477Y-53581D01*
X473806D01*
X474471Y-54246D01*
Y-54910D01*
X473806Y-55575D01*
X472477D01*
X471812Y-54910D01*
X475800Y-51587D02*
Y-55575D01*
X477130Y-54246D01*
X478459Y-55575D01*
Y-51587D01*
X479788Y-55575D02*
Y-51587D01*
X481782D01*
X482447Y-52252D01*
Y-53581D01*
X481782Y-54246D01*
X479788D01*
X481118D02*
X482447Y-55575D01*
X510552Y-80884D02*
Y-84207D01*
X511216Y-84872D01*
X512546D01*
X513210Y-84207D01*
Y-80884D01*
X517198D02*
X514540D01*
Y-82878D01*
X515869Y-82213D01*
X516534D01*
X517198Y-82878D01*
Y-84207D01*
X516534Y-84872D01*
X515204D01*
X514540Y-84207D01*
X369902Y-106629D02*
Y-109952D01*
X370567Y-110617D01*
X371896D01*
X372561Y-109952D01*
Y-106629D01*
X375885Y-110617D02*
Y-106629D01*
X373890Y-108623D01*
X376549D01*
X379709Y-69955D02*
Y-73278D01*
X380374Y-73943D01*
X381703D01*
X382368Y-73278D01*
Y-69955D01*
X383697Y-70619D02*
X384362Y-69955D01*
X385691D01*
X386356Y-70619D01*
Y-71284D01*
X385691Y-71949D01*
X385027D01*
X385691D01*
X386356Y-72614D01*
Y-73278D01*
X385691Y-73943D01*
X384362D01*
X383697Y-73278D01*
X500028Y-78237D02*
Y-74248D01*
X502022D01*
X502686Y-74913D01*
Y-76243D01*
X502022Y-76907D01*
X500028D01*
X501357D02*
X502686Y-78237D01*
X506674Y-74248D02*
X504016D01*
Y-76243D01*
X505345Y-75578D01*
X506010D01*
X506674Y-76243D01*
Y-77572D01*
X506010Y-78237D01*
X504680D01*
X504016Y-77572D01*
X510663Y-78237D02*
X508004D01*
X510663Y-75578D01*
Y-74913D01*
X509998Y-74248D01*
X508669D01*
X508004Y-74913D01*
X595248Y-205785D02*
Y-209773D01*
X597907D01*
X599236Y-206450D02*
X599901Y-205785D01*
X601231D01*
X601895Y-206450D01*
Y-207115D01*
X601231Y-207780D01*
X600566D01*
X601231D01*
X601895Y-208444D01*
Y-209109D01*
X601231Y-209773D01*
X599901D01*
X599236Y-209109D01*
X603225Y-205785D02*
X605883D01*
Y-206450D01*
X603225Y-209109D01*
Y-209773D01*
X619595Y-288528D02*
Y-284540D01*
X621589D01*
X622254Y-285204D01*
Y-286534D01*
X621589Y-287198D01*
X619595D01*
X620924D02*
X622254Y-288528D01*
X623583Y-285204D02*
X624248Y-284540D01*
X625577D01*
X626242Y-285204D01*
Y-285869D01*
X625577Y-286534D01*
X624912D01*
X625577D01*
X626242Y-287198D01*
Y-287863D01*
X625577Y-288528D01*
X624248D01*
X623583Y-287863D01*
X627571Y-285204D02*
X628236Y-284540D01*
X629565D01*
X630230Y-285204D01*
Y-285869D01*
X629565Y-286534D01*
X630230Y-287198D01*
Y-287863D01*
X629565Y-288528D01*
X628236D01*
X627571Y-287863D01*
Y-287198D01*
X628236Y-286534D01*
X627571Y-285869D01*
Y-285204D01*
X628236Y-286534D02*
X629565D01*
X618559Y-278469D02*
Y-275811D01*
X617895Y-275146D01*
X616565D01*
X615900Y-275811D01*
Y-278469D01*
X616565Y-279134D01*
X617895D01*
X617230Y-277805D02*
X618559Y-279134D01*
X617895D02*
X618559Y-278469D01*
X619888Y-279134D02*
X621218D01*
X620553D01*
Y-275146D01*
X619888Y-275811D01*
X305500Y-23512D02*
Y-27500D01*
Y-26171D01*
X308159Y-23512D01*
X306165Y-25506D01*
X308159Y-27500D01*
X312147D02*
X309488D01*
X312147Y-24841D01*
Y-24177D01*
X311482Y-23512D01*
X310153D01*
X309488Y-24177D01*
X41460Y-69783D02*
Y-73771D01*
Y-72441D01*
X44119Y-69783D01*
X42125Y-71777D01*
X44119Y-73771D01*
X48107Y-69783D02*
X45448D01*
Y-71777D01*
X46778Y-71112D01*
X47442D01*
X48107Y-71777D01*
Y-73106D01*
X47442Y-73771D01*
X46113D01*
X45448Y-73106D01*
X41346Y-199224D02*
Y-203212D01*
Y-201882D01*
X44005Y-199224D01*
X42011Y-201218D01*
X44005Y-203212D01*
X47329D02*
Y-199224D01*
X45335Y-201218D01*
X47993D01*
X54092Y-244837D02*
X52763D01*
X53427D01*
Y-248160D01*
X52763Y-248825D01*
X52098D01*
X51433Y-248160D01*
X58080Y-248825D02*
X55422D01*
X58080Y-246166D01*
Y-245501D01*
X57416Y-244837D01*
X56086D01*
X55422Y-245501D01*
X159337Y-189204D02*
X158878Y-188745D01*
X157959D01*
X157500Y-189204D01*
Y-191041D01*
X157959Y-191500D01*
X158878D01*
X159337Y-191041D01*
X160255Y-189204D02*
X160714Y-188745D01*
X161633D01*
X162092Y-189204D01*
Y-189663D01*
X161633Y-190122D01*
X162092Y-190582D01*
Y-191041D01*
X161633Y-191500D01*
X160714D01*
X160255Y-191041D01*
Y-190582D01*
X160714Y-190122D01*
X160255Y-189663D01*
Y-189204D01*
X160714Y-190122D02*
X161633D01*
X164847Y-191500D02*
X163010D01*
X164847Y-189663D01*
Y-189204D01*
X164388Y-188745D01*
X163469D01*
X163010Y-189204D01*
X288341Y-225323D02*
X289006Y-225988D01*
X290335D01*
X291000Y-225323D01*
Y-222665D01*
X290335Y-222000D01*
X289006D01*
X288341Y-222665D01*
X284353Y-222000D02*
X287012D01*
X284353Y-224659D01*
Y-225323D01*
X285018Y-225988D01*
X286347D01*
X287012Y-225323D01*
X280365Y-225988D02*
X281694Y-225323D01*
X283024Y-223994D01*
Y-222665D01*
X282359Y-222000D01*
X281030D01*
X280365Y-222665D01*
Y-223329D01*
X281030Y-223994D01*
X283024D01*
X500940Y-168090D02*
Y-172078D01*
X498946D01*
X498281Y-171414D01*
Y-170084D01*
X498946Y-169420D01*
X500940D01*
X499610D02*
X498281Y-168090D01*
X494958D02*
Y-172078D01*
X496952Y-170084D01*
X494293D01*
X490305Y-172078D02*
X492964D01*
Y-170084D01*
X491634Y-170749D01*
X490970D01*
X490305Y-170084D01*
Y-168755D01*
X490970Y-168090D01*
X492299D01*
X492964Y-168755D01*
X608982Y-239666D02*
Y-235678D01*
X610976D01*
X611640Y-236342D01*
Y-237672D01*
X610976Y-238336D01*
X608982D01*
X610311D02*
X611640Y-239666D01*
X614964D02*
Y-235678D01*
X612970Y-237672D01*
X615628D01*
X616958Y-236342D02*
X617622Y-235678D01*
X618952D01*
X619616Y-236342D01*
Y-237007D01*
X618952Y-237672D01*
X619616Y-238336D01*
Y-239001D01*
X618952Y-239666D01*
X617622D01*
X616958Y-239001D01*
Y-238336D01*
X617622Y-237672D01*
X616958Y-237007D01*
Y-236342D01*
X617622Y-237672D02*
X618952D01*
X25500Y-40500D02*
Y-36512D01*
X27494D01*
X28159Y-37177D01*
Y-38506D01*
X27494Y-39171D01*
X25500D01*
X26829D02*
X28159Y-40500D01*
X29488Y-37177D02*
X30153Y-36512D01*
X31482D01*
X32147Y-37177D01*
Y-37841D01*
X31482Y-38506D01*
X30817D01*
X31482D01*
X32147Y-39171D01*
Y-39835D01*
X31482Y-40500D01*
X30153D01*
X29488Y-39835D01*
X33476Y-40500D02*
X34806D01*
X34141D01*
Y-36512D01*
X33476Y-37177D01*
X24000Y-32500D02*
Y-28512D01*
X25994D01*
X26659Y-29177D01*
Y-30506D01*
X25994Y-31171D01*
X24000D01*
X25329D02*
X26659Y-32500D01*
X27988Y-29177D02*
X28653Y-28512D01*
X29982D01*
X30647Y-29177D01*
Y-29841D01*
X29982Y-30506D01*
X29318D01*
X29982D01*
X30647Y-31171D01*
Y-31835D01*
X29982Y-32500D01*
X28653D01*
X27988Y-31835D01*
X31976Y-29177D02*
X32641Y-28512D01*
X33970D01*
X34635Y-29177D01*
Y-31835D01*
X33970Y-32500D01*
X32641D01*
X31976Y-31835D01*
Y-29177D01*
X156025Y-182183D02*
Y-178195D01*
X158019D01*
X158684Y-178860D01*
Y-180189D01*
X158019Y-180854D01*
X156025D01*
X157354D02*
X158684Y-182183D01*
X160013D02*
X161342D01*
X160678D01*
Y-178195D01*
X160013Y-178860D01*
X163336Y-181519D02*
X164001Y-182183D01*
X165330D01*
X165995Y-181519D01*
Y-178860D01*
X165330Y-178195D01*
X164001D01*
X163336Y-178860D01*
Y-179525D01*
X164001Y-180189D01*
X165995D01*
X247659Y-177677D02*
X246994Y-177012D01*
X245665D01*
X245000Y-177677D01*
Y-180335D01*
X245665Y-181000D01*
X246994D01*
X247659Y-180335D01*
X251647Y-181000D02*
X248988D01*
X251647Y-178341D01*
Y-177677D01*
X250982Y-177012D01*
X249653D01*
X248988Y-177677D01*
X255635Y-181000D02*
X252976D01*
X255635Y-178341D01*
Y-177677D01*
X254970Y-177012D01*
X253641D01*
X252976Y-177677D01*
X288341Y-219823D02*
X289006Y-220488D01*
X290335D01*
X291000Y-219823D01*
Y-217165D01*
X290335Y-216500D01*
X289006D01*
X288341Y-217165D01*
X284353Y-216500D02*
X287012D01*
X284353Y-219159D01*
Y-219823D01*
X285018Y-220488D01*
X286347D01*
X287012Y-219823D01*
X283024D02*
X282359Y-220488D01*
X281030D01*
X280365Y-219823D01*
Y-219159D01*
X281030Y-218494D01*
X281694D01*
X281030D01*
X280365Y-217829D01*
Y-217165D01*
X281030Y-216500D01*
X282359D01*
X283024Y-217165D01*
X248159Y-246677D02*
X247494Y-246012D01*
X246165D01*
X245500Y-246677D01*
Y-249335D01*
X246165Y-250000D01*
X247494D01*
X248159Y-249335D01*
X252147Y-250000D02*
X249488D01*
X252147Y-247341D01*
Y-246677D01*
X251482Y-246012D01*
X250153D01*
X249488Y-246677D01*
X255470Y-250000D02*
Y-246012D01*
X253476Y-248006D01*
X256135D01*
X25664Y-294887D02*
X24334D01*
X24999D01*
Y-298210D01*
X24334Y-298875D01*
X23669D01*
X23005Y-298210D01*
X26993D02*
X27657Y-298875D01*
X28987D01*
X29652Y-298210D01*
Y-295552D01*
X28987Y-294887D01*
X27657D01*
X26993Y-295552D01*
Y-296216D01*
X27657Y-296881D01*
X29652D01*
X518107Y-5560D02*
Y-9548D01*
X520766D01*
X524089D02*
Y-5560D01*
X522095Y-7554D01*
X524754D01*
X528742Y-5560D02*
X526083D01*
Y-7554D01*
X527413Y-6889D01*
X528077D01*
X528742Y-7554D01*
Y-8883D01*
X528077Y-9548D01*
X526748D01*
X526083Y-8883D01*
X571816Y-5585D02*
Y-9573D01*
X574475D01*
X577799D02*
Y-5585D01*
X575805Y-7580D01*
X578463D01*
X581787Y-9573D02*
Y-5585D01*
X579793Y-7580D01*
X582451D01*
X461223Y-81393D02*
X465211D01*
Y-79399D01*
X464547Y-78734D01*
X461888D01*
X461223Y-79399D01*
Y-81393D01*
X465211Y-74746D02*
Y-77405D01*
X462553Y-74746D01*
X461888D01*
X461223Y-75411D01*
Y-76740D01*
X461888Y-77405D01*
X465211Y-70758D02*
Y-73417D01*
X462553Y-70758D01*
X461888D01*
X461223Y-71423D01*
Y-72752D01*
X461888Y-73417D01*
X412988Y-155000D02*
X409000D01*
Y-156994D01*
X409665Y-157659D01*
X412323D01*
X412988Y-156994D01*
Y-155000D01*
X409000Y-158988D02*
Y-160318D01*
Y-159653D01*
X412988D01*
X412323Y-158988D01*
X409000Y-164970D02*
Y-162311D01*
X411659Y-164970D01*
X412323D01*
X412988Y-164306D01*
Y-162976D01*
X412323Y-162311D01*
X281252Y-170657D02*
Y-166669D01*
X283246D01*
X283911Y-167334D01*
Y-168663D01*
X283246Y-169328D01*
X281252D01*
X282582D02*
X283911Y-170657D01*
X287899D02*
X285241D01*
X287899Y-167998D01*
Y-167334D01*
X287234Y-166669D01*
X285905D01*
X285241Y-167334D01*
X291223Y-170657D02*
Y-166669D01*
X289229Y-168663D01*
X291887D01*
X183367Y-84293D02*
X187355D01*
X186026D01*
X183367Y-81635D01*
X185361Y-83629D01*
X187355Y-81635D01*
X184032Y-80305D02*
X183367Y-79641D01*
Y-78311D01*
X184032Y-77646D01*
X184697D01*
X185361Y-78311D01*
Y-78976D01*
Y-78311D01*
X186026Y-77646D01*
X186691D01*
X187355Y-78311D01*
Y-79641D01*
X186691Y-80305D01*
X181056Y-170685D02*
Y-166697D01*
X183050D01*
X183715Y-167361D01*
Y-168691D01*
X183050Y-169356D01*
X181056D01*
X182386D02*
X183715Y-170685D01*
X187703D02*
X185044D01*
X187703Y-168026D01*
Y-167361D01*
X187039Y-166697D01*
X185709D01*
X185044Y-167361D01*
X191691Y-166697D02*
X190362Y-167361D01*
X189032Y-168691D01*
Y-170020D01*
X189697Y-170685D01*
X191027D01*
X191691Y-170020D01*
Y-169356D01*
X191027Y-168691D01*
X189032D01*
X261488Y-157500D02*
X257500D01*
Y-159494D01*
X258165Y-160159D01*
X260823D01*
X261488Y-159494D01*
Y-157500D01*
Y-164147D02*
X260823Y-162818D01*
X259494Y-161488D01*
X258165D01*
X257500Y-162153D01*
Y-163482D01*
X258165Y-164147D01*
X258829D01*
X259494Y-163482D01*
Y-161488D01*
X170488Y-157000D02*
X166500D01*
Y-158994D01*
X167165Y-159659D01*
X169823D01*
X170488Y-158994D01*
Y-157000D01*
X166500Y-160988D02*
Y-162318D01*
Y-161653D01*
X170488D01*
X169823Y-160988D01*
X101159Y-62677D02*
X100494Y-62012D01*
X99165D01*
X98500Y-62677D01*
Y-65335D01*
X99165Y-66000D01*
X100494D01*
X101159Y-65335D01*
X102488Y-66000D02*
X103817D01*
X103153D01*
Y-62012D01*
X102488Y-62677D01*
X105812D02*
X106476Y-62012D01*
X107806D01*
X108470Y-62677D01*
Y-65335D01*
X107806Y-66000D01*
X106476D01*
X105812Y-65335D01*
Y-62677D01*
X109800Y-66000D02*
X111129D01*
X110464D01*
Y-62012D01*
X109800Y-62677D01*
X110144Y-262448D02*
X112803D01*
X111474D01*
Y-266436D01*
X116791D02*
X114132D01*
X116791Y-263777D01*
Y-263112D01*
X116126Y-262448D01*
X114797D01*
X114132Y-263112D01*
X692611Y-14120D02*
X691946Y-13455D01*
X690617D01*
X689952Y-14120D01*
Y-16779D01*
X690617Y-17443D01*
X691946D01*
X692611Y-16779D01*
X693940Y-17443D02*
X695269D01*
X694605D01*
Y-13455D01*
X693940Y-14120D01*
X697263Y-17443D02*
X698593D01*
X697928D01*
Y-13455D01*
X697263Y-14120D01*
X700587Y-16779D02*
X701252Y-17443D01*
X702581D01*
X703246Y-16779D01*
Y-14120D01*
X702581Y-13455D01*
X701252D01*
X700587Y-14120D01*
Y-14785D01*
X701252Y-15449D01*
X703246D01*
X707428Y-117588D02*
Y-121576D01*
X710087D01*
X713411D02*
Y-117588D01*
X711416Y-119582D01*
X714075D01*
X715405Y-118253D02*
X716069Y-117588D01*
X717399D01*
X718063Y-118253D01*
Y-118917D01*
X717399Y-119582D01*
X716734D01*
X717399D01*
X718063Y-120247D01*
Y-120911D01*
X717399Y-121576D01*
X716069D01*
X715405Y-120911D01*
X701124Y-210480D02*
Y-214468D01*
X703783D01*
X705112Y-211145D02*
X705777Y-210480D01*
X707106D01*
X707771Y-211145D01*
Y-211809D01*
X707106Y-212474D01*
X706441D01*
X707106D01*
X707771Y-213139D01*
Y-213803D01*
X707106Y-214468D01*
X705777D01*
X705112Y-213803D01*
X709100Y-211145D02*
X709765Y-210480D01*
X711094D01*
X711759Y-211145D01*
Y-211809D01*
X711094Y-212474D01*
X711759Y-213139D01*
Y-213803D01*
X711094Y-214468D01*
X709765D01*
X709100Y-213803D01*
Y-213139D01*
X709765Y-212474D01*
X709100Y-211809D01*
Y-211145D01*
X709765Y-212474D02*
X711094D01*
X686201Y-279033D02*
Y-276374D01*
X685536Y-275710D01*
X684206D01*
X683542Y-276374D01*
Y-279033D01*
X684206Y-279698D01*
X685536D01*
X684871Y-278368D02*
X686201Y-279698D01*
X685536D02*
X686201Y-279033D01*
X687530Y-276374D02*
X688195Y-275710D01*
X689524D01*
X690189Y-276374D01*
Y-277039D01*
X689524Y-277703D01*
X688859D01*
X689524D01*
X690189Y-278368D01*
Y-279033D01*
X689524Y-279698D01*
X688195D01*
X687530Y-279033D01*
X705125Y-259560D02*
X704460Y-260225D01*
Y-261554D01*
X705125Y-262219D01*
X707784D01*
X708448Y-261554D01*
Y-260225D01*
X707784Y-259560D01*
X705125Y-258231D02*
X704460Y-257566D01*
Y-256237D01*
X705125Y-255572D01*
X705790D01*
X706454Y-256237D01*
X707119Y-255572D01*
X707784D01*
X708448Y-256237D01*
Y-257566D01*
X707784Y-258231D01*
X707119D01*
X706454Y-257566D01*
X705790Y-258231D01*
X705125D01*
X706454Y-257566D02*
Y-256237D01*
X708448Y-254243D02*
Y-252913D01*
Y-253578D01*
X704460D01*
X705125Y-254243D01*
X540452Y-27907D02*
X539787Y-28572D01*
Y-29901D01*
X540452Y-30566D01*
X543110D01*
X543775Y-29901D01*
Y-28572D01*
X543110Y-27907D01*
X543775Y-26578D02*
Y-25248D01*
Y-25913D01*
X539787D01*
X540452Y-26578D01*
X543775Y-20595D02*
Y-23254D01*
X541116Y-20595D01*
X540452D01*
X539787Y-21260D01*
Y-22590D01*
X540452Y-23254D01*
X539787Y-16607D02*
Y-19266D01*
X541781D01*
X541116Y-17937D01*
Y-17272D01*
X541781Y-16607D01*
X543110D01*
X543775Y-17272D01*
Y-18601D01*
X543110Y-19266D01*
X521588Y-123358D02*
Y-119370D01*
X523582D01*
X524247Y-120035D01*
Y-121364D01*
X523582Y-122029D01*
X521588D01*
X522918D02*
X524247Y-123358D01*
X527570D02*
Y-119370D01*
X525576Y-121364D01*
X528235D01*
X529564Y-120035D02*
X530229Y-119370D01*
X531559D01*
X532223Y-120035D01*
Y-122694D01*
X531559Y-123358D01*
X530229D01*
X529564Y-122694D01*
Y-120035D01*
X516834Y-78755D02*
Y-74767D01*
X518828D01*
X519493Y-75432D01*
Y-76761D01*
X518828Y-77426D01*
X516834D01*
X518164D02*
X519493Y-78755D01*
X520822Y-75432D02*
X521487Y-74767D01*
X522816D01*
X523481Y-75432D01*
Y-76097D01*
X522816Y-76761D01*
X522152D01*
X522816D01*
X523481Y-77426D01*
Y-78091D01*
X522816Y-78755D01*
X521487D01*
X520822Y-78091D01*
X527469Y-74767D02*
X526140Y-75432D01*
X524811Y-76761D01*
Y-78091D01*
X525475Y-78755D01*
X526804D01*
X527469Y-78091D01*
Y-77426D01*
X526804Y-76761D01*
X524811D01*
X534160Y-107057D02*
X533496Y-106393D01*
X532166D01*
X531502Y-107057D01*
Y-109716D01*
X532166Y-110381D01*
X533496D01*
X534160Y-109716D01*
X535490Y-110381D02*
X536819D01*
X536154D01*
Y-106393D01*
X535490Y-107057D01*
X541472Y-110381D02*
X538813D01*
X541472Y-107722D01*
Y-107057D01*
X540807Y-106393D01*
X539478D01*
X538813Y-107057D01*
X542801D02*
X543466Y-106393D01*
X544795D01*
X545460Y-107057D01*
Y-107722D01*
X544795Y-108387D01*
X545460Y-109051D01*
Y-109716D01*
X544795Y-110381D01*
X543466D01*
X542801Y-109716D01*
Y-109051D01*
X543466Y-108387D01*
X542801Y-107722D01*
Y-107057D01*
X543466Y-108387D02*
X544795D01*
X532325Y-249469D02*
X534984D01*
X533655D01*
Y-253457D01*
X538972Y-249469D02*
X536313D01*
Y-251463D01*
X537643Y-250799D01*
X538307D01*
X538972Y-251463D01*
Y-252793D01*
X538307Y-253457D01*
X536978D01*
X536313Y-252793D01*
X582092Y-250911D02*
Y-246923D01*
X584086D01*
X584751Y-247587D01*
Y-248917D01*
X584086Y-249582D01*
X582092D01*
X583422D02*
X584751Y-250911D01*
X586080Y-247587D02*
X586745Y-246923D01*
X588074D01*
X588739Y-247587D01*
Y-248252D01*
X588074Y-248917D01*
X587410D01*
X588074D01*
X588739Y-249582D01*
Y-250246D01*
X588074Y-250911D01*
X586745D01*
X586080Y-250246D01*
X592062Y-250911D02*
Y-246923D01*
X590068Y-248917D01*
X592727D01*
X601270Y-260377D02*
X600605Y-261042D01*
Y-262371D01*
X601270Y-263036D01*
X603929D01*
X604594Y-262371D01*
Y-261042D01*
X603929Y-260377D01*
X604594Y-259048D02*
Y-257718D01*
Y-258383D01*
X600605D01*
X601270Y-259048D01*
X604594Y-255724D02*
Y-254395D01*
Y-255060D01*
X600605D01*
X601270Y-255724D01*
X604594Y-252401D02*
Y-251072D01*
Y-251736D01*
X600605D01*
X601270Y-252401D01*
X460659Y-91335D02*
Y-88677D01*
X459994Y-88012D01*
X458665D01*
X458000Y-88677D01*
Y-91335D01*
X458665Y-92000D01*
X459994D01*
X459329Y-90671D02*
X460659Y-92000D01*
X459994D02*
X460659Y-91335D01*
X464647Y-92000D02*
X461988D01*
X464647Y-89341D01*
Y-88677D01*
X463982Y-88012D01*
X462653D01*
X461988Y-88677D01*
X432451Y-168385D02*
Y-164397D01*
X434445D01*
X435110Y-165062D01*
Y-166391D01*
X434445Y-167056D01*
X432451D01*
X433780D02*
X435110Y-168385D01*
X439098D02*
X436439D01*
X439098Y-165727D01*
Y-165062D01*
X438433Y-164397D01*
X437104D01*
X436439Y-165062D01*
X440427Y-168385D02*
X441756D01*
X441092D01*
Y-164397D01*
X440427Y-165062D01*
X473422Y-144725D02*
Y-147383D01*
X475416D01*
Y-146054D01*
Y-147383D01*
X477410D01*
Y-143395D02*
X474751D01*
X473422Y-142066D01*
X474751Y-140737D01*
X477410D01*
X475416D01*
Y-143395D01*
X477410Y-139407D02*
X473422D01*
X477410Y-136749D01*
X473422D01*
X478075Y-135419D02*
Y-132760D01*
X473422Y-129437D02*
Y-130766D01*
X474087Y-131431D01*
X476745D01*
X477410Y-130766D01*
Y-129437D01*
X476745Y-128772D01*
X474087D01*
X473422Y-129437D01*
Y-127443D02*
X476745D01*
X477410Y-126778D01*
Y-125449D01*
X476745Y-124784D01*
X473422D01*
Y-123455D02*
Y-120796D01*
Y-122125D01*
X477410D01*
X464951Y-164159D02*
X464286Y-163495D01*
X462956D01*
X462292Y-164159D01*
Y-166818D01*
X462956Y-167483D01*
X464286D01*
X464951Y-166818D01*
X466280Y-163495D02*
X468939D01*
Y-164159D01*
X466280Y-166818D01*
Y-167483D01*
X470268Y-163495D02*
X472927D01*
Y-164159D01*
X470268Y-166818D01*
Y-167483D01*
X442868Y-233858D02*
X438880D01*
Y-231864D01*
X439545Y-231199D01*
X440874D01*
X441539Y-231864D01*
Y-233858D01*
Y-232528D02*
X442868Y-231199D01*
Y-229870D02*
Y-228540D01*
Y-229205D01*
X438880D01*
X439545Y-229870D01*
X442868Y-223888D02*
Y-226546D01*
X440210Y-223888D01*
X439545D01*
X438880Y-224552D01*
Y-225882D01*
X439545Y-226546D01*
X461654Y-191586D02*
Y-195574D01*
X464313D01*
X468301D02*
X465642D01*
X468301Y-192915D01*
Y-192251D01*
X467636Y-191586D01*
X466307D01*
X465642Y-192251D01*
X469631Y-194909D02*
X470295Y-195574D01*
X471625D01*
X472289Y-194909D01*
Y-192251D01*
X471625Y-191586D01*
X470295D01*
X469631Y-192251D01*
Y-192915D01*
X470295Y-193580D01*
X472289D01*
X402825Y-226964D02*
X406813D01*
Y-224305D01*
Y-220317D02*
Y-222976D01*
X404155Y-220317D01*
X403490D01*
X402825Y-220982D01*
Y-222311D01*
X403490Y-222976D01*
Y-218988D02*
X402825Y-218323D01*
Y-216993D01*
X403490Y-216329D01*
X404155D01*
X404819Y-216993D01*
X405484Y-216329D01*
X406149D01*
X406813Y-216993D01*
Y-218323D01*
X406149Y-218988D01*
X405484D01*
X404819Y-218323D01*
X404155Y-218988D01*
X403490D01*
X404819Y-218323D02*
Y-216993D01*
X402825Y-193216D02*
X406813D01*
Y-190557D01*
Y-186569D02*
Y-189228D01*
X404155Y-186569D01*
X403490D01*
X402825Y-187234D01*
Y-188563D01*
X403490Y-189228D01*
X402825Y-185240D02*
Y-182581D01*
X403490D01*
X406149Y-185240D01*
X406813D01*
X413988Y-265500D02*
X410000D01*
Y-267494D01*
X410665Y-268159D01*
X413323D01*
X413988Y-267494D01*
Y-265500D01*
X410000Y-269488D02*
Y-270817D01*
Y-270153D01*
X413988D01*
X413323Y-269488D01*
Y-272812D02*
X413988Y-273476D01*
Y-274806D01*
X413323Y-275470D01*
X412659D01*
X411994Y-274806D01*
Y-274141D01*
Y-274806D01*
X411329Y-275470D01*
X410665D01*
X410000Y-274806D01*
Y-273476D01*
X410665Y-272812D01*
X463155Y-263907D02*
X462490Y-263242D01*
X461161D01*
X460496Y-263907D01*
Y-266565D01*
X461161Y-267230D01*
X462490D01*
X463155Y-266565D01*
X464484Y-263242D02*
X467143D01*
Y-263907D01*
X464484Y-266565D01*
Y-267230D01*
X468472Y-266565D02*
X469137Y-267230D01*
X470466D01*
X471131Y-266565D01*
Y-263907D01*
X470466Y-263242D01*
X469137D01*
X468472Y-263907D01*
Y-264571D01*
X469137Y-265236D01*
X471131D01*
X468841Y-230323D02*
X469506Y-230988D01*
X470835D01*
X471500Y-230323D01*
Y-227665D01*
X470835Y-227000D01*
X469506D01*
X468841Y-227665D01*
X467512Y-230988D02*
X464853D01*
Y-230323D01*
X467512Y-227665D01*
Y-227000D01*
X463524Y-230323D02*
X462859Y-230988D01*
X461530D01*
X460865Y-230323D01*
Y-229659D01*
X461530Y-228994D01*
X460865Y-228329D01*
Y-227665D01*
X461530Y-227000D01*
X462859D01*
X463524Y-227665D01*
Y-228329D01*
X462859Y-228994D01*
X463524Y-229659D01*
Y-230323D01*
X462859Y-228994D02*
X461530D01*
X477497Y-253933D02*
X476832Y-254598D01*
Y-255927D01*
X477497Y-256592D01*
X480156D01*
X480820Y-255927D01*
Y-254598D01*
X480156Y-253933D01*
X476832Y-252604D02*
Y-249945D01*
X477497D01*
X480156Y-252604D01*
X480820D01*
X476832Y-245957D02*
X477497Y-247287D01*
X478826Y-248616D01*
X480156D01*
X480820Y-247951D01*
Y-246622D01*
X480156Y-245957D01*
X479491D01*
X478826Y-246622D01*
Y-248616D01*
X495061Y-227601D02*
X494396Y-226936D01*
X493067D01*
X492402Y-227601D01*
Y-230260D01*
X493067Y-230924D01*
X494396D01*
X495061Y-230260D01*
X496390Y-226936D02*
X499049D01*
Y-227601D01*
X496390Y-230260D01*
Y-230924D01*
X500378D02*
X501708D01*
X501043D01*
Y-226936D01*
X500378Y-227601D01*
X494144Y-192291D02*
X493479Y-191626D01*
X492150D01*
X491485Y-192291D01*
Y-194950D01*
X492150Y-195615D01*
X493479D01*
X494144Y-194950D01*
X498132Y-191626D02*
X496803Y-192291D01*
X495473Y-193620D01*
Y-194950D01*
X496138Y-195615D01*
X497468D01*
X498132Y-194950D01*
Y-194285D01*
X497468Y-193620D01*
X495473D01*
X499462Y-192291D02*
X500126Y-191626D01*
X501456D01*
X502120Y-192291D01*
Y-192956D01*
X501456Y-193620D01*
X502120Y-194285D01*
Y-194950D01*
X501456Y-195615D01*
X500126D01*
X499462Y-194950D01*
Y-194285D01*
X500126Y-193620D01*
X499462Y-192956D01*
Y-192291D01*
X500126Y-193620D02*
X501456D01*
X398659Y-250177D02*
X397994Y-249512D01*
X396665D01*
X396000Y-250177D01*
Y-252835D01*
X396665Y-253500D01*
X397994D01*
X398659Y-252835D01*
X402647Y-249512D02*
X401318Y-250177D01*
X399988Y-251506D01*
Y-252835D01*
X400653Y-253500D01*
X401982D01*
X402647Y-252835D01*
Y-252171D01*
X401982Y-251506D01*
X399988D01*
X406635Y-253500D02*
X403976D01*
X406635Y-250841D01*
Y-250177D01*
X405970Y-249512D01*
X404641D01*
X403976Y-250177D01*
X408337Y-195204D02*
X407877Y-194745D01*
X406959D01*
X406500Y-195204D01*
Y-197041D01*
X406959Y-197500D01*
X407877D01*
X408337Y-197041D01*
X411092Y-194745D02*
X409255D01*
Y-196123D01*
X410173Y-195663D01*
X410633D01*
X411092Y-196123D01*
Y-197041D01*
X410633Y-197500D01*
X409714D01*
X409255Y-197041D01*
X412010Y-195204D02*
X412469Y-194745D01*
X413388D01*
X413847Y-195204D01*
Y-195663D01*
X413388Y-196123D01*
X413847Y-196582D01*
Y-197041D01*
X413388Y-197500D01*
X412469D01*
X412010Y-197041D01*
Y-196582D01*
X412469Y-196123D01*
X412010Y-195663D01*
Y-195204D01*
X412469Y-196123D02*
X413388D01*
X434943Y-243187D02*
X434278Y-242522D01*
X432949D01*
X432284Y-243187D01*
Y-245846D01*
X432949Y-246511D01*
X434278D01*
X434943Y-245846D01*
X438931Y-242522D02*
X436272D01*
Y-244516D01*
X437602Y-243852D01*
X438266D01*
X438931Y-244516D01*
Y-245846D01*
X438266Y-246511D01*
X436937D01*
X436272Y-245846D01*
X440261Y-242522D02*
X442919D01*
Y-243187D01*
X440261Y-245846D01*
Y-246511D01*
X434545Y-263900D02*
X433880Y-263235D01*
X432551D01*
X431886Y-263900D01*
Y-266559D01*
X432551Y-267224D01*
X433880D01*
X434545Y-266559D01*
X438533Y-263235D02*
X435874D01*
Y-265230D01*
X437204Y-264565D01*
X437868D01*
X438533Y-265230D01*
Y-266559D01*
X437868Y-267224D01*
X436539D01*
X435874Y-266559D01*
X442521Y-263235D02*
X441192Y-263900D01*
X439862Y-265230D01*
Y-266559D01*
X440527Y-267224D01*
X441856D01*
X442521Y-266559D01*
Y-265894D01*
X441856Y-265230D01*
X439862D01*
X440337Y-187704D02*
X439878Y-187245D01*
X438959D01*
X438500Y-187704D01*
Y-189541D01*
X438959Y-190000D01*
X439878D01*
X440337Y-189541D01*
X443092Y-187245D02*
X441255D01*
Y-188622D01*
X442173Y-188163D01*
X442632D01*
X443092Y-188622D01*
Y-189541D01*
X442632Y-190000D01*
X441714D01*
X441255Y-189541D01*
X445388Y-190000D02*
Y-187245D01*
X444010Y-188622D01*
X445847D01*
X362248Y-36826D02*
X360918D01*
X361583D01*
Y-40150D01*
X360918Y-40815D01*
X360254D01*
X359589Y-40150D01*
X363577Y-40815D02*
X364907D01*
X364242D01*
Y-36826D01*
X363577Y-37491D01*
X286682Y-69955D02*
Y-73278D01*
X287347Y-73943D01*
X288676D01*
X289341Y-73278D01*
Y-69955D01*
X290670D02*
X293329D01*
Y-70619D01*
X290670Y-73278D01*
Y-73943D01*
X334018Y-69955D02*
Y-73278D01*
X334682Y-73943D01*
X336012D01*
X336677Y-73278D01*
Y-69955D01*
X338006Y-73943D02*
X339335D01*
X338670D01*
Y-69955D01*
X338006Y-70619D01*
X376869Y-236613D02*
X372881D01*
Y-234619D01*
X373545Y-233955D01*
X374875D01*
X375539Y-234619D01*
Y-236613D01*
Y-235284D02*
X376869Y-233955D01*
Y-232625D02*
Y-231296D01*
Y-231961D01*
X372881D01*
X373545Y-232625D01*
Y-229302D02*
X372881Y-228637D01*
Y-227308D01*
X373545Y-226643D01*
X376204D01*
X376869Y-227308D01*
Y-228637D01*
X376204Y-229302D01*
X373545D01*
X293340Y-188202D02*
X289352D01*
Y-186208D01*
X290017Y-185544D01*
X291346D01*
X292011Y-186208D01*
Y-188202D01*
Y-186873D02*
X293340Y-185544D01*
X289352Y-181555D02*
Y-184214D01*
X291346D01*
X290682Y-182885D01*
Y-182220D01*
X291346Y-181555D01*
X292676D01*
X293340Y-182220D01*
Y-183550D01*
X292676Y-184214D01*
X364145Y-194548D02*
Y-198536D01*
X366804D01*
X368133D02*
X369462D01*
X368798D01*
Y-194548D01*
X368133Y-195213D01*
X371456Y-197871D02*
X372121Y-198536D01*
X373450D01*
X374115Y-197871D01*
Y-195213D01*
X373450Y-194548D01*
X372121D01*
X371456Y-195213D01*
Y-195877D01*
X372121Y-196542D01*
X374115D01*
X314691Y-196034D02*
Y-200022D01*
X317350D01*
X318679D02*
X320008D01*
X319344D01*
Y-196034D01*
X318679Y-196698D01*
X323996Y-200022D02*
Y-196034D01*
X322003Y-198028D01*
X324661D01*
X366106Y-263402D02*
X365441Y-262737D01*
X364112D01*
X363447Y-263402D01*
Y-266060D01*
X364112Y-266725D01*
X365441D01*
X366106Y-266060D01*
X370094Y-262737D02*
X367435D01*
Y-264731D01*
X368765Y-264066D01*
X369429D01*
X370094Y-264731D01*
Y-266060D01*
X369429Y-266725D01*
X368100D01*
X367435Y-266060D01*
X371424Y-266725D02*
X372753D01*
X372088D01*
Y-262737D01*
X371424Y-263402D01*
X369663Y-227796D02*
X370123Y-228255D01*
X371041D01*
X371500Y-227796D01*
Y-225959D01*
X371041Y-225500D01*
X370123D01*
X369663Y-225959D01*
X366908Y-228255D02*
X368745D01*
Y-226877D01*
X367827Y-227337D01*
X367368D01*
X366908Y-226877D01*
Y-225959D01*
X367368Y-225500D01*
X368286D01*
X368745Y-225959D01*
X365990Y-227796D02*
X365531Y-228255D01*
X364612D01*
X364153Y-227796D01*
Y-225959D01*
X364612Y-225500D01*
X365531D01*
X365990Y-225959D01*
Y-227796D01*
X346837Y-249704D02*
X346377Y-249245D01*
X345459D01*
X345000Y-249704D01*
Y-251541D01*
X345459Y-252000D01*
X346377D01*
X346837Y-251541D01*
X349132Y-252000D02*
Y-249245D01*
X347755Y-250623D01*
X349592D01*
X350510Y-249704D02*
X350969Y-249245D01*
X351888D01*
X352347Y-249704D01*
Y-250163D01*
X351888Y-250623D01*
X352347Y-251082D01*
Y-251541D01*
X351888Y-252000D01*
X350969D01*
X350510Y-251541D01*
Y-251082D01*
X350969Y-250623D01*
X350510Y-250163D01*
Y-249704D01*
X350969Y-250623D02*
X351888D01*
X342704Y-231663D02*
X342245Y-232122D01*
Y-233041D01*
X342704Y-233500D01*
X344541D01*
X345000Y-233041D01*
Y-232122D01*
X344541Y-231663D01*
X345000Y-229367D02*
X342245D01*
X343622Y-230745D01*
Y-228908D01*
X342245Y-226153D02*
Y-227990D01*
X343622D01*
X343163Y-227072D01*
Y-226612D01*
X343622Y-226153D01*
X344541D01*
X345000Y-226612D01*
Y-227531D01*
X344541Y-227990D01*
X315663Y-262750D02*
X314998Y-262085D01*
X313669D01*
X313004Y-262750D01*
Y-265408D01*
X313669Y-266073D01*
X314998D01*
X315663Y-265408D01*
X316992Y-262750D02*
X317657Y-262085D01*
X318987D01*
X319651Y-262750D01*
Y-263414D01*
X318987Y-264079D01*
X318322D01*
X318987D01*
X319651Y-264744D01*
Y-265408D01*
X318987Y-266073D01*
X317657D01*
X316992Y-265408D01*
X320981D02*
X321645Y-266073D01*
X322975D01*
X323639Y-265408D01*
Y-262750D01*
X322975Y-262085D01*
X321645D01*
X320981Y-262750D01*
Y-263414D01*
X321645Y-264079D01*
X323639D01*
X321841Y-226323D02*
X322506Y-226988D01*
X323835D01*
X324500Y-226323D01*
Y-223665D01*
X323835Y-223000D01*
X322506D01*
X321841Y-223665D01*
X320512Y-226323D02*
X319847Y-226988D01*
X318518D01*
X317853Y-226323D01*
Y-225659D01*
X318518Y-224994D01*
X319182D01*
X318518D01*
X317853Y-224329D01*
Y-223665D01*
X318518Y-223000D01*
X319847D01*
X320512Y-223665D01*
X313865Y-226988D02*
X316524D01*
Y-224994D01*
X315194Y-225659D01*
X314530D01*
X313865Y-224994D01*
Y-223665D01*
X314530Y-223000D01*
X315859D01*
X316524Y-223665D01*
X331568Y-262600D02*
X330903Y-261935D01*
X329574D01*
X328909Y-262600D01*
Y-265259D01*
X329574Y-265923D01*
X330903D01*
X331568Y-265259D01*
X332897Y-262600D02*
X333562Y-261935D01*
X334891D01*
X335556Y-262600D01*
Y-263264D01*
X334891Y-263929D01*
X334226D01*
X334891D01*
X335556Y-264594D01*
Y-265259D01*
X334891Y-265923D01*
X333562D01*
X332897Y-265259D01*
X336885Y-262600D02*
X337550Y-261935D01*
X338879D01*
X339544Y-262600D01*
Y-265259D01*
X338879Y-265923D01*
X337550D01*
X336885Y-265259D01*
Y-262600D01*
X338727Y-189636D02*
X338062Y-188971D01*
X336733D01*
X336068Y-189636D01*
Y-192294D01*
X336733Y-192959D01*
X338062D01*
X338727Y-192294D01*
X342715Y-192959D02*
X340056D01*
X342715Y-190300D01*
Y-189636D01*
X342050Y-188971D01*
X340721D01*
X340056Y-189636D01*
X344044D02*
X344709Y-188971D01*
X346038D01*
X346703Y-189636D01*
Y-190300D01*
X346038Y-190965D01*
X346703Y-191630D01*
Y-192294D01*
X346038Y-192959D01*
X344709D01*
X344044Y-192294D01*
Y-191630D01*
X344709Y-190965D01*
X344044Y-190300D01*
Y-189636D01*
X344709Y-190965D02*
X346038D01*
X285312Y-262822D02*
X284647Y-262158D01*
X283318D01*
X282653Y-262822D01*
Y-265481D01*
X283318Y-266146D01*
X284647D01*
X285312Y-265481D01*
X286641Y-266146D02*
X287971D01*
X287306D01*
Y-262158D01*
X286641Y-262822D01*
X289965D02*
X290629Y-262158D01*
X291959D01*
X292623Y-262822D01*
Y-263487D01*
X291959Y-264152D01*
X292623Y-264816D01*
Y-265481D01*
X291959Y-266146D01*
X290629D01*
X289965Y-265481D01*
Y-264816D01*
X290629Y-264152D01*
X289965Y-263487D01*
Y-262822D01*
X290629Y-264152D02*
X291959D01*
X290612Y-191071D02*
X289947Y-190406D01*
X288618D01*
X287953Y-191071D01*
Y-193730D01*
X288618Y-194394D01*
X289947D01*
X290612Y-193730D01*
X291941Y-194394D02*
X293271D01*
X292606D01*
Y-190406D01*
X291941Y-191071D01*
X297923Y-190406D02*
X296594Y-191071D01*
X295265Y-192400D01*
Y-193730D01*
X295929Y-194394D01*
X297259D01*
X297923Y-193730D01*
Y-193065D01*
X297259Y-192400D01*
X295265D01*
X192823Y-41159D02*
X193488Y-40494D01*
Y-39165D01*
X192823Y-38500D01*
X190165D01*
X189500Y-39165D01*
Y-40494D01*
X190165Y-41159D01*
X189500Y-42488D02*
Y-43817D01*
Y-43153D01*
X193488D01*
X192823Y-42488D01*
X189500Y-48470D02*
Y-45812D01*
X192159Y-48470D01*
X192823D01*
X193488Y-47806D01*
Y-46476D01*
X192823Y-45812D01*
Y-49800D02*
X193488Y-50464D01*
Y-51794D01*
X192823Y-52458D01*
X190165D01*
X189500Y-51794D01*
Y-50464D01*
X190165Y-49800D01*
X192823D01*
X234323Y-40159D02*
X234988Y-39494D01*
Y-38165D01*
X234323Y-37500D01*
X231665D01*
X231000Y-38165D01*
Y-39494D01*
X231665Y-40159D01*
X231000Y-41488D02*
Y-42818D01*
Y-42153D01*
X234988D01*
X234323Y-41488D01*
X231000Y-44811D02*
Y-46141D01*
Y-45476D01*
X234988D01*
X234323Y-44811D01*
X231000Y-50794D02*
Y-48135D01*
X233659Y-50794D01*
X234323D01*
X234988Y-50129D01*
Y-48800D01*
X234323Y-48135D01*
X197183Y-107583D02*
Y-110906D01*
X197848Y-111571D01*
X199177D01*
X199842Y-110906D01*
Y-107583D01*
X203830Y-111571D02*
X201171D01*
X203830Y-108912D01*
Y-108247D01*
X203165Y-107583D01*
X201836D01*
X201171Y-108247D01*
X251332Y-225818D02*
X255320D01*
Y-223160D01*
Y-221830D02*
Y-220501D01*
Y-221166D01*
X251332D01*
X251997Y-221830D01*
Y-218507D02*
X251332Y-217842D01*
Y-216513D01*
X251997Y-215848D01*
X252661D01*
X253326Y-216513D01*
Y-217178D01*
Y-216513D01*
X253991Y-215848D01*
X254655D01*
X255320Y-216513D01*
Y-217842D01*
X254655Y-218507D01*
X251332Y-192069D02*
X255320D01*
Y-189410D01*
Y-188080D02*
Y-186751D01*
Y-187416D01*
X251332D01*
X251997Y-188080D01*
X255320Y-182098D02*
Y-184757D01*
X252661Y-182098D01*
X251997D01*
X251332Y-182763D01*
Y-184092D01*
X251997Y-184757D01*
X216989Y-195574D02*
Y-199563D01*
X219647D01*
X222971D02*
Y-195574D01*
X220977Y-197569D01*
X223635D01*
X261488Y-267000D02*
X257500D01*
Y-268994D01*
X258165Y-269659D01*
X260823D01*
X261488Y-268994D01*
Y-267000D01*
Y-270988D02*
Y-273647D01*
X260823D01*
X258165Y-270988D01*
X257500D01*
X170988Y-264500D02*
X167000D01*
Y-266494D01*
X167665Y-267159D01*
X170323D01*
X170988Y-266494D01*
Y-264500D01*
X167000Y-271147D02*
Y-268488D01*
X169659Y-271147D01*
X170323D01*
X170988Y-270482D01*
Y-269153D01*
X170323Y-268488D01*
X218952Y-257142D02*
X218288Y-256477D01*
X216958D01*
X216294Y-257142D01*
Y-259801D01*
X216958Y-260465D01*
X218288D01*
X218952Y-259801D01*
X220282Y-260465D02*
X221611D01*
X220947D01*
Y-256477D01*
X220282Y-257142D01*
X226264Y-256477D02*
X223605D01*
Y-258471D01*
X224935Y-257806D01*
X225599D01*
X226264Y-258471D01*
Y-259801D01*
X225599Y-260465D01*
X224270D01*
X223605Y-259801D01*
X238341Y-219823D02*
X239006Y-220488D01*
X240335D01*
X241000Y-219823D01*
Y-217165D01*
X240335Y-216500D01*
X239006D01*
X238341Y-217165D01*
X237012Y-216500D02*
X235683D01*
X236347D01*
Y-220488D01*
X237012Y-219823D01*
X231694Y-216500D02*
Y-220488D01*
X233688Y-218494D01*
X231030D01*
X161510Y-225982D02*
X160845Y-226647D01*
Y-227976D01*
X161510Y-228641D01*
X164168D01*
X164833Y-227976D01*
Y-226647D01*
X164168Y-225982D01*
X160845Y-221994D02*
X161510Y-223323D01*
X162839Y-224653D01*
X164168D01*
X164833Y-223988D01*
Y-222659D01*
X164168Y-221994D01*
X163504D01*
X162839Y-222659D01*
Y-224653D01*
X161510Y-199829D02*
X160845Y-200494D01*
Y-201823D01*
X161510Y-202488D01*
X164168D01*
X164833Y-201823D01*
Y-200494D01*
X164168Y-199829D01*
X160845Y-195841D02*
Y-198500D01*
X162839D01*
X162174Y-197171D01*
Y-196506D01*
X162839Y-195841D01*
X164168D01*
X164833Y-196506D01*
Y-197835D01*
X164168Y-198500D01*
X190159Y-223177D02*
X189494Y-222512D01*
X188165D01*
X187500Y-223177D01*
Y-225835D01*
X188165Y-226500D01*
X189494D01*
X190159Y-225835D01*
X193482Y-226500D02*
Y-222512D01*
X191488Y-224506D01*
X194147D01*
X199461Y-196742D02*
X198796Y-196077D01*
X197467D01*
X196802Y-196742D01*
Y-199401D01*
X197467Y-200065D01*
X198796D01*
X199461Y-199401D01*
X200790Y-200065D02*
X202119D01*
X201455D01*
Y-196077D01*
X200790Y-196742D01*
X86131Y-13697D02*
Y-17685D01*
Y-16356D01*
X88790Y-13697D01*
X86796Y-15691D01*
X88790Y-17685D01*
X90119D02*
X91449D01*
X90784D01*
Y-13697D01*
X90119Y-14362D01*
X111004Y-127762D02*
X113663D01*
X112334D01*
Y-131750D01*
X114992D02*
X116322D01*
X115657D01*
Y-127762D01*
X114992Y-128427D01*
X68012Y-111500D02*
X72000D01*
Y-109506D01*
X71335Y-108841D01*
X68677D01*
X68012Y-109506D01*
Y-111500D01*
X72000Y-104853D02*
Y-107512D01*
X69341Y-104853D01*
X68677D01*
X68012Y-105518D01*
Y-106847D01*
X68677Y-107512D01*
X72000Y-103524D02*
Y-102194D01*
Y-102859D01*
X68012D01*
X68677Y-103524D01*
X136841Y-107823D02*
X137506Y-108488D01*
X138835D01*
X139500Y-107823D01*
Y-105165D01*
X138835Y-104500D01*
X137506D01*
X136841Y-105165D01*
X135512Y-104500D02*
X134183D01*
X134847D01*
Y-108488D01*
X135512Y-107823D01*
X132188Y-104500D02*
X130859D01*
X131524D01*
Y-108488D01*
X132188Y-107823D01*
X128865D02*
X128200Y-108488D01*
X126871D01*
X126206Y-107823D01*
Y-105165D01*
X126871Y-104500D01*
X128200D01*
X128865Y-105165D01*
Y-107823D01*
X137841Y-79823D02*
X138506Y-80488D01*
X139835D01*
X140500Y-79823D01*
Y-77165D01*
X139835Y-76500D01*
X138506D01*
X137841Y-77165D01*
X136512Y-76500D02*
X135182D01*
X135847D01*
Y-80488D01*
X136512Y-79823D01*
X133188D02*
X132524Y-80488D01*
X131194D01*
X130530Y-79823D01*
Y-77165D01*
X131194Y-76500D01*
X132524D01*
X133188Y-77165D01*
Y-79823D01*
X126542Y-80488D02*
X127871Y-79823D01*
X129200Y-78494D01*
Y-77165D01*
X128536Y-76500D01*
X127206D01*
X126542Y-77165D01*
Y-77829D01*
X127206Y-78494D01*
X129200D01*
X137841Y-72823D02*
X138506Y-73488D01*
X139835D01*
X140500Y-72823D01*
Y-70165D01*
X139835Y-69500D01*
X138506D01*
X137841Y-70165D01*
X136512Y-69500D02*
X135182D01*
X135847D01*
Y-73488D01*
X136512Y-72823D01*
X133188D02*
X132524Y-73488D01*
X131194D01*
X130530Y-72823D01*
Y-70165D01*
X131194Y-69500D01*
X132524D01*
X133188Y-70165D01*
Y-72823D01*
X127206Y-69500D02*
Y-73488D01*
X129200Y-71494D01*
X126542D01*
X103677Y-122841D02*
X103012Y-123506D01*
Y-124835D01*
X103677Y-125500D01*
X106335D01*
X107000Y-124835D01*
Y-123506D01*
X106335Y-122841D01*
X107000Y-121512D02*
Y-120183D01*
Y-120847D01*
X103012D01*
X103677Y-121512D01*
Y-118189D02*
X103012Y-117524D01*
Y-116194D01*
X103677Y-115530D01*
X106335D01*
X107000Y-116194D01*
Y-117524D01*
X106335Y-118189D01*
X103677D01*
Y-114200D02*
X103012Y-113536D01*
Y-112206D01*
X103677Y-111542D01*
X104341D01*
X105006Y-112206D01*
Y-112871D01*
Y-112206D01*
X105671Y-111542D01*
X106335D01*
X107000Y-112206D01*
Y-113536D01*
X106335Y-114200D01*
X115841Y-171323D02*
X116506Y-171988D01*
X117835D01*
X118500Y-171323D01*
Y-168665D01*
X117835Y-168000D01*
X116506D01*
X115841Y-168665D01*
X114512D02*
X113847Y-168000D01*
X112518D01*
X111853Y-168665D01*
Y-171323D01*
X112518Y-171988D01*
X113847D01*
X114512Y-171323D01*
Y-170659D01*
X113847Y-169994D01*
X111853D01*
X107865Y-171988D02*
X109194Y-171323D01*
X110524Y-169994D01*
Y-168665D01*
X109859Y-168000D01*
X108530D01*
X107865Y-168665D01*
Y-169329D01*
X108530Y-169994D01*
X110524D01*
X99298Y-193601D02*
X95310D01*
Y-191607D01*
X95974Y-190942D01*
X97304D01*
X97969Y-191607D01*
Y-193601D01*
Y-192272D02*
X99298Y-190942D01*
Y-189613D02*
Y-188284D01*
Y-188948D01*
X95310D01*
X95974Y-189613D01*
X95310Y-186290D02*
Y-183631D01*
X95974D01*
X98633Y-186290D01*
X99298D01*
X129500Y-195512D02*
Y-199500D01*
X132159D01*
X133488Y-196177D02*
X134153Y-195512D01*
X135482D01*
X136147Y-196177D01*
Y-196841D01*
X135482Y-197506D01*
X134818D01*
X135482D01*
X136147Y-198171D01*
Y-198835D01*
X135482Y-199500D01*
X134153D01*
X133488Y-198835D01*
X140135Y-195512D02*
X137476D01*
Y-197506D01*
X138806Y-196841D01*
X139470D01*
X140135Y-197506D01*
Y-198835D01*
X139470Y-199500D01*
X138141D01*
X137476Y-198835D01*
X116991Y-189587D02*
Y-193576D01*
X119649D01*
X120979Y-190252D02*
X121643Y-189587D01*
X122973D01*
X123637Y-190252D01*
Y-190917D01*
X122973Y-191581D01*
X122308D01*
X122973D01*
X123637Y-192246D01*
Y-192911D01*
X122973Y-193576D01*
X121643D01*
X120979Y-192911D01*
X126961Y-193576D02*
Y-189587D01*
X124967Y-191581D01*
X127626D01*
X69679Y-241098D02*
X73668D01*
Y-239104D01*
X73003Y-238439D01*
X70344D01*
X69679Y-239104D01*
Y-241098D01*
X73668Y-234451D02*
Y-237109D01*
X71009Y-234451D01*
X70344D01*
X69679Y-235116D01*
Y-236445D01*
X70344Y-237109D01*
Y-233121D02*
X69679Y-232457D01*
Y-231127D01*
X70344Y-230463D01*
X73003D01*
X73668Y-231127D01*
Y-232457D01*
X73003Y-233121D01*
X70344D01*
X115518Y-258396D02*
X116183Y-259061D01*
X117512D01*
X118177Y-258396D01*
Y-255737D01*
X117512Y-255072D01*
X116183D01*
X115518Y-255737D01*
X114189D02*
X113524Y-255072D01*
X112195D01*
X111530Y-255737D01*
Y-258396D01*
X112195Y-259061D01*
X113524D01*
X114189Y-258396D01*
Y-257731D01*
X113524Y-257067D01*
X111530D01*
X110201Y-255737D02*
X109536Y-255072D01*
X108206D01*
X107542Y-255737D01*
Y-258396D01*
X108206Y-259061D01*
X109536D01*
X110201Y-258396D01*
Y-257731D01*
X109536Y-257067D01*
X107542D01*
X132856Y-258048D02*
X132191Y-257383D01*
X130862D01*
X130197Y-258048D01*
Y-260706D01*
X130862Y-261371D01*
X132191D01*
X132856Y-260706D01*
X134185D02*
X134850Y-261371D01*
X136179D01*
X136844Y-260706D01*
Y-258048D01*
X136179Y-257383D01*
X134850D01*
X134185Y-258048D01*
Y-258712D01*
X134850Y-259377D01*
X136844D01*
X138173Y-258048D02*
X138838Y-257383D01*
X140167D01*
X140832Y-258048D01*
Y-260706D01*
X140167Y-261371D01*
X138838D01*
X138173Y-260706D01*
Y-258048D01*
X698792Y-55834D02*
X699457Y-56498D01*
X700786D01*
X701451Y-55834D01*
Y-53175D01*
X700786Y-52510D01*
X699457D01*
X698792Y-53175D01*
X697463Y-52510D02*
X696133D01*
X696798D01*
Y-56498D01*
X697463Y-55834D01*
X694139Y-52510D02*
X692810D01*
X693475D01*
Y-56498D01*
X694139Y-55834D01*
X690816D02*
X690151Y-56498D01*
X688822D01*
X688157Y-55834D01*
Y-55169D01*
X688822Y-54504D01*
X688157Y-53840D01*
Y-53175D01*
X688822Y-52510D01*
X690151D01*
X690816Y-53175D01*
Y-53840D01*
X690151Y-54504D01*
X690816Y-55169D01*
Y-55834D01*
X690151Y-54504D02*
X688822D01*
X697414Y-64644D02*
X698079Y-65309D01*
X699408D01*
X700073Y-64644D01*
Y-61985D01*
X699408Y-61321D01*
X698079D01*
X697414Y-61985D01*
X696085Y-61321D02*
X694756D01*
X695420D01*
Y-65309D01*
X696085Y-64644D01*
X692762Y-61321D02*
X691432D01*
X692097D01*
Y-65309D01*
X692762Y-64644D01*
X686779Y-65309D02*
X689438D01*
Y-63315D01*
X688109Y-63979D01*
X687444D01*
X686779Y-63315D01*
Y-61985D01*
X687444Y-61321D01*
X688774D01*
X689438Y-61985D01*
X640158Y-172660D02*
X639494Y-171995D01*
X638164D01*
X637500Y-172660D01*
Y-175318D01*
X638164Y-175983D01*
X639494D01*
X640158Y-175318D01*
X641488D02*
X642152Y-175983D01*
X643482D01*
X644146Y-175318D01*
Y-172660D01*
X643482Y-171995D01*
X642152D01*
X641488Y-172660D01*
Y-173324D01*
X642152Y-173989D01*
X644146D01*
X648135Y-171995D02*
X645476D01*
Y-173989D01*
X646805Y-173324D01*
X647470D01*
X648135Y-173989D01*
Y-175318D01*
X647470Y-175983D01*
X646140D01*
X645476Y-175318D01*
X700891Y-181230D02*
X700226Y-181895D01*
Y-183224D01*
X700891Y-183889D01*
X703549D01*
X704214Y-183224D01*
Y-181895D01*
X703549Y-181230D01*
Y-179901D02*
X704214Y-179236D01*
Y-177906D01*
X703549Y-177242D01*
X700891D01*
X700226Y-177906D01*
Y-179236D01*
X700891Y-179901D01*
X701555D01*
X702220Y-179236D01*
Y-177242D01*
X700891Y-175912D02*
X700226Y-175248D01*
Y-173918D01*
X700891Y-173254D01*
X701555D01*
X702220Y-173918D01*
Y-174583D01*
Y-173918D01*
X702885Y-173254D01*
X703549D01*
X704214Y-173918D01*
Y-175248D01*
X703549Y-175912D01*
X684032Y-240429D02*
Y-236440D01*
X686026D01*
X686691Y-237105D01*
Y-238435D01*
X686026Y-239099D01*
X684032D01*
X685361D02*
X686691Y-240429D01*
X690014D02*
Y-236440D01*
X688020Y-238435D01*
X690679D01*
X692008Y-236440D02*
X694667D01*
Y-237105D01*
X692008Y-239764D01*
Y-240429D01*
X707508Y-279853D02*
X703520D01*
Y-277859D01*
X704184Y-277194D01*
X705514D01*
X706178Y-277859D01*
Y-279853D01*
Y-278524D02*
X707508Y-277194D01*
Y-273871D02*
X703520D01*
X705514Y-275865D01*
Y-273206D01*
X703520Y-269218D02*
X704184Y-270548D01*
X705514Y-271877D01*
X706843D01*
X707508Y-271212D01*
Y-269883D01*
X706843Y-269218D01*
X706178D01*
X705514Y-269883D01*
Y-271877D01*
X677340Y-299807D02*
Y-295819D01*
X679334D01*
X679998Y-296484D01*
Y-297813D01*
X679334Y-298478D01*
X677340D01*
X678669D02*
X679998Y-299807D01*
X683987Y-295819D02*
X681328D01*
Y-297813D01*
X682657Y-297148D01*
X683322D01*
X683987Y-297813D01*
Y-299142D01*
X683322Y-299807D01*
X681993D01*
X681328Y-299142D01*
X685316Y-299807D02*
X686645D01*
X685981D01*
Y-295819D01*
X685316Y-296484D01*
X600159Y-27177D02*
X599494Y-26512D01*
X598165D01*
X597500Y-27177D01*
Y-29835D01*
X598165Y-30500D01*
X599494D01*
X600159Y-29835D01*
X601488Y-30500D02*
X602817D01*
X602153D01*
Y-26512D01*
X601488Y-27177D01*
X607470Y-30500D02*
X604811D01*
X607470Y-27841D01*
Y-27177D01*
X606806Y-26512D01*
X605476D01*
X604811Y-27177D01*
X608800D02*
X609464Y-26512D01*
X610794D01*
X611458Y-27177D01*
Y-27841D01*
X610794Y-28506D01*
X610129D01*
X610794D01*
X611458Y-29171D01*
Y-29835D01*
X610794Y-30500D01*
X609464D01*
X608800Y-29835D01*
X543133Y-64428D02*
X542469Y-65093D01*
Y-66422D01*
X543133Y-67087D01*
X545792D01*
X546457Y-66422D01*
Y-65093D01*
X545792Y-64428D01*
X546457Y-63099D02*
Y-61769D01*
Y-62434D01*
X542469D01*
X543133Y-63099D01*
X546457Y-57116D02*
Y-59775D01*
X543798Y-57116D01*
X543133D01*
X542469Y-57781D01*
Y-59110D01*
X543133Y-59775D01*
X546457Y-53793D02*
X542469D01*
X544463Y-55787D01*
Y-53128D01*
X603006Y-178999D02*
X602341Y-179663D01*
Y-180993D01*
X603006Y-181658D01*
X605664D01*
X606329Y-180993D01*
Y-179663D01*
X605664Y-178999D01*
Y-177669D02*
X606329Y-177005D01*
Y-175675D01*
X605664Y-175011D01*
X603006D01*
X602341Y-175675D01*
Y-177005D01*
X603006Y-177669D01*
X603670D01*
X604335Y-177005D01*
Y-175011D01*
X606329Y-173681D02*
Y-172352D01*
Y-173017D01*
X602341D01*
X603006Y-173681D01*
X605255Y-280450D02*
X601267D01*
Y-278456D01*
X601932Y-277792D01*
X603261D01*
X603926Y-278456D01*
Y-280450D01*
Y-279121D02*
X605255Y-277792D01*
X601932Y-276462D02*
X601267Y-275798D01*
Y-274468D01*
X601932Y-273803D01*
X602597D01*
X603261Y-274468D01*
Y-275133D01*
Y-274468D01*
X603926Y-273803D01*
X604591D01*
X605255Y-274468D01*
Y-275798D01*
X604591Y-276462D01*
X605255Y-269815D02*
Y-272474D01*
X602597Y-269815D01*
X601932D01*
X601267Y-270480D01*
Y-271810D01*
X601932Y-272474D01*
X429092Y-64722D02*
Y-60733D01*
X431086D01*
X431751Y-61398D01*
Y-62727D01*
X431086Y-63392D01*
X429092D01*
X430421D02*
X431751Y-64722D01*
X435739Y-60733D02*
X433080D01*
Y-62727D01*
X434410Y-62063D01*
X435074D01*
X435739Y-62727D01*
Y-64057D01*
X435074Y-64722D01*
X433745D01*
X433080Y-64057D01*
X439062Y-64722D02*
Y-60733D01*
X437068Y-62727D01*
X439727D01*
X485012Y-62000D02*
X489000D01*
Y-60006D01*
X488335Y-59341D01*
X485677D01*
X485012Y-60006D01*
Y-62000D01*
X489000Y-58012D02*
Y-56682D01*
Y-57347D01*
X485012D01*
X485677Y-58012D01*
X488335Y-54689D02*
X489000Y-54024D01*
Y-52694D01*
X488335Y-52030D01*
X485677D01*
X485012Y-52694D01*
Y-54024D01*
X485677Y-54689D01*
X486341D01*
X487006Y-54024D01*
Y-52030D01*
X490500Y-177500D02*
Y-173512D01*
X492494D01*
X493159Y-174177D01*
Y-175506D01*
X492494Y-176171D01*
X490500D01*
X491829D02*
X493159Y-177500D01*
X497147D02*
X494488D01*
X497147Y-174841D01*
Y-174177D01*
X496482Y-173512D01*
X495153D01*
X494488Y-174177D01*
X498476D02*
X499141Y-173512D01*
X500470D01*
X501135Y-174177D01*
Y-176835D01*
X500470Y-177500D01*
X499141D01*
X498476Y-176835D01*
Y-174177D01*
X441500Y-184000D02*
X438745D01*
Y-182623D01*
X439204Y-182163D01*
X440123D01*
X440582Y-182623D01*
Y-184000D01*
Y-183082D02*
X441500Y-182163D01*
Y-181245D02*
Y-180327D01*
Y-180786D01*
X438745D01*
X439204Y-181245D01*
X441500Y-178949D02*
Y-178031D01*
Y-178490D01*
X438745D01*
X439204Y-178949D01*
X446337Y-178204D02*
X445878Y-177745D01*
X444959D01*
X444500Y-178204D01*
Y-180041D01*
X444959Y-180500D01*
X445878D01*
X446337Y-180041D01*
X447255Y-177745D02*
X449092D01*
Y-178204D01*
X447255Y-180041D01*
Y-180500D01*
X451388D02*
Y-177745D01*
X450010Y-179122D01*
X451847D01*
X398659Y-178177D02*
X397994Y-177512D01*
X396665D01*
X396000Y-178177D01*
Y-180835D01*
X396665Y-181500D01*
X397994D01*
X398659Y-180835D01*
X402647Y-177512D02*
X401318Y-178177D01*
X399988Y-179506D01*
Y-180835D01*
X400653Y-181500D01*
X401982D01*
X402647Y-180835D01*
Y-180171D01*
X401982Y-179506D01*
X399988D01*
X403976Y-178177D02*
X404641Y-177512D01*
X405970D01*
X406635Y-178177D01*
Y-180835D01*
X405970Y-181500D01*
X404641D01*
X403976Y-180835D01*
Y-178177D01*
X461760Y-198517D02*
Y-202505D01*
X464418D01*
X465748Y-199182D02*
X466412Y-198517D01*
X467742D01*
X468406Y-199182D01*
Y-199847D01*
X467742Y-200511D01*
X467077D01*
X467742D01*
X468406Y-201176D01*
Y-201841D01*
X467742Y-202505D01*
X466412D01*
X465748Y-201841D01*
X469736Y-199182D02*
X470400Y-198517D01*
X471730D01*
X472394Y-199182D01*
Y-201841D01*
X471730Y-202505D01*
X470400D01*
X469736Y-201841D01*
Y-199182D01*
X488341Y-208323D02*
X489006Y-208988D01*
X490335D01*
X491000Y-208323D01*
Y-205665D01*
X490335Y-205000D01*
X489006D01*
X488341Y-205665D01*
X487012Y-208988D02*
X484353D01*
Y-208323D01*
X487012Y-205665D01*
Y-205000D01*
X480365Y-208988D02*
X483024D01*
Y-206994D01*
X481694Y-207659D01*
X481030D01*
X480365Y-206994D01*
Y-205665D01*
X481030Y-205000D01*
X482359D01*
X483024Y-205665D01*
X494159Y-199677D02*
X493494Y-199012D01*
X492165D01*
X491500Y-199677D01*
Y-202335D01*
X492165Y-203000D01*
X493494D01*
X494159Y-202335D01*
X498147Y-199012D02*
X496817Y-199677D01*
X495488Y-201006D01*
Y-202335D01*
X496153Y-203000D01*
X497482D01*
X498147Y-202335D01*
Y-201671D01*
X497482Y-201006D01*
X495488D01*
X499476Y-202335D02*
X500141Y-203000D01*
X501470D01*
X502135Y-202335D01*
Y-199677D01*
X501470Y-199012D01*
X500141D01*
X499476Y-199677D01*
Y-200341D01*
X500141Y-201006D01*
X502135D01*
X395891Y-208043D02*
X395227Y-208708D01*
Y-210037D01*
X395891Y-210702D01*
X398550D01*
X399215Y-210037D01*
Y-208708D01*
X398550Y-208043D01*
X395227Y-204055D02*
X395891Y-205384D01*
X397221Y-206714D01*
X398550D01*
X399215Y-206049D01*
Y-204720D01*
X398550Y-204055D01*
X397885D01*
X397221Y-204720D01*
Y-206714D01*
X395227Y-200067D02*
X395891Y-201396D01*
X397221Y-202726D01*
X398550D01*
X399215Y-202061D01*
Y-200732D01*
X398550Y-200067D01*
X397885D01*
X397221Y-200732D01*
Y-202726D01*
X436163Y-215796D02*
X436622Y-216255D01*
X437541D01*
X438000Y-215796D01*
Y-213959D01*
X437541Y-213500D01*
X436622D01*
X436163Y-213959D01*
X433408Y-216255D02*
X434327Y-215796D01*
X435245Y-214878D01*
Y-213959D01*
X434786Y-213500D01*
X433868D01*
X433408Y-213959D01*
Y-214418D01*
X433868Y-214878D01*
X435245D01*
X432490Y-213500D02*
X431572D01*
X432031D01*
Y-216255D01*
X432490Y-215796D01*
X434117Y-208716D02*
X433453Y-208051D01*
X432123D01*
X431459Y-208716D01*
Y-211374D01*
X432123Y-212039D01*
X433453D01*
X434117Y-211374D01*
X438105Y-208051D02*
X435447D01*
Y-210045D01*
X436776Y-209380D01*
X437441D01*
X438105Y-210045D01*
Y-211374D01*
X437441Y-212039D01*
X436111D01*
X435447Y-211374D01*
X442094Y-208051D02*
X439435D01*
Y-210045D01*
X440764Y-209380D01*
X441429D01*
X442094Y-210045D01*
Y-211374D01*
X441429Y-212039D01*
X440100D01*
X439435Y-211374D01*
X462660Y-234418D02*
Y-238406D01*
X465319D01*
X466648Y-235083D02*
X467313Y-234418D01*
X468642D01*
X469307Y-235083D01*
Y-235748D01*
X468642Y-236412D01*
X467978D01*
X468642D01*
X469307Y-237077D01*
Y-237741D01*
X468642Y-238406D01*
X467313D01*
X466648Y-237741D01*
X470637Y-238406D02*
X471966D01*
X471301D01*
Y-234418D01*
X470637Y-235083D01*
X493503Y-235565D02*
X492838Y-234900D01*
X491509D01*
X490844Y-235565D01*
Y-238224D01*
X491509Y-238889D01*
X492838D01*
X493503Y-238224D01*
X494832Y-234900D02*
X497491D01*
Y-235565D01*
X494832Y-238224D01*
Y-238889D01*
X498820Y-235565D02*
X499485Y-234900D01*
X500814D01*
X501479Y-235565D01*
Y-238224D01*
X500814Y-238889D01*
X499485D01*
X498820Y-238224D01*
Y-235565D01*
X395677Y-241841D02*
X395012Y-242506D01*
Y-243835D01*
X395677Y-244500D01*
X398335D01*
X399000Y-243835D01*
Y-242506D01*
X398335Y-241841D01*
X395012Y-237853D02*
X395677Y-239182D01*
X397006Y-240512D01*
X398335D01*
X399000Y-239847D01*
Y-238518D01*
X398335Y-237853D01*
X397671D01*
X397006Y-238518D01*
Y-240512D01*
X395012Y-236524D02*
Y-233865D01*
X395677D01*
X398335Y-236524D01*
X399000D01*
X400659Y-228677D02*
X399994Y-228012D01*
X398665D01*
X398000Y-228677D01*
Y-231335D01*
X398665Y-232000D01*
X399994D01*
X400659Y-231335D01*
X404647Y-228012D02*
X401988D01*
Y-230006D01*
X403317Y-229341D01*
X403982D01*
X404647Y-230006D01*
Y-231335D01*
X403982Y-232000D01*
X402653D01*
X401988Y-231335D01*
X405976D02*
X406641Y-232000D01*
X407970D01*
X408635Y-231335D01*
Y-228677D01*
X407970Y-228012D01*
X406641D01*
X405976Y-228677D01*
Y-229341D01*
X406641Y-230006D01*
X408635D01*
X366347Y-168167D02*
X365682Y-167503D01*
X364353D01*
X363688Y-168167D01*
Y-170826D01*
X364353Y-171491D01*
X365682D01*
X366347Y-170826D01*
X369670Y-171491D02*
Y-167503D01*
X367676Y-169497D01*
X370335D01*
X371664Y-170826D02*
X372329Y-171491D01*
X373658D01*
X374323Y-170826D01*
Y-168167D01*
X373658Y-167503D01*
X372329D01*
X371664Y-168167D01*
Y-168832D01*
X372329Y-169497D01*
X374323D01*
X352421Y-183155D02*
X351756Y-182490D01*
X350427D01*
X349762Y-183155D01*
Y-185814D01*
X350427Y-186478D01*
X351756D01*
X352421Y-185814D01*
X355744Y-186478D02*
Y-182490D01*
X353750Y-184484D01*
X356409D01*
X360397Y-182490D02*
X359067Y-183155D01*
X357738Y-184484D01*
Y-185814D01*
X358403Y-186478D01*
X359732D01*
X360397Y-185814D01*
Y-185149D01*
X359732Y-184484D01*
X357738D01*
X317469Y-168187D02*
X316804Y-167522D01*
X315475D01*
X314810Y-168187D01*
Y-170845D01*
X315475Y-171510D01*
X316804D01*
X317469Y-170845D01*
X318798Y-168187D02*
X319463Y-167522D01*
X320792D01*
X321457Y-168187D01*
Y-168851D01*
X320792Y-169516D01*
X320127D01*
X320792D01*
X321457Y-170181D01*
Y-170845D01*
X320792Y-171510D01*
X319463D01*
X318798Y-170845D01*
X322786Y-167522D02*
X325445D01*
Y-168187D01*
X322786Y-170845D01*
Y-171510D01*
X297337Y-178704D02*
X296878Y-178245D01*
X295959D01*
X295500Y-178704D01*
Y-180541D01*
X295959Y-181000D01*
X296878D01*
X297337Y-180541D01*
X298255Y-178704D02*
X298714Y-178245D01*
X299633D01*
X300092Y-178704D01*
Y-179163D01*
X299633Y-179622D01*
X299173D01*
X299633D01*
X300092Y-180082D01*
Y-180541D01*
X299633Y-181000D01*
X298714D01*
X298255Y-180541D01*
X302388Y-181000D02*
Y-178245D01*
X301010Y-179622D01*
X302847D01*
X366000Y-200245D02*
Y-203000D01*
X367837D01*
X370592D02*
X368755D01*
X370592Y-201163D01*
Y-200704D01*
X370132Y-200245D01*
X369214D01*
X368755Y-200704D01*
X371510D02*
X371969Y-200245D01*
X372888D01*
X373347Y-200704D01*
Y-202541D01*
X372888Y-203000D01*
X371969D01*
X371510Y-202541D01*
Y-200704D01*
X315200Y-202940D02*
Y-206928D01*
X317858D01*
X319188D02*
X320517D01*
X319852D01*
Y-202940D01*
X319188Y-203605D01*
X325170Y-202940D02*
X322511D01*
Y-204934D01*
X323840Y-204270D01*
X324505D01*
X325170Y-204934D01*
Y-206264D01*
X324505Y-206928D01*
X323176D01*
X322511Y-206264D01*
X335304Y-215988D02*
X334639Y-215324D01*
X333310D01*
X332645Y-215988D01*
Y-218647D01*
X333310Y-219312D01*
X334639D01*
X335304Y-218647D01*
X339292Y-215324D02*
X336633D01*
Y-217318D01*
X337962Y-216653D01*
X338627D01*
X339292Y-217318D01*
Y-218647D01*
X338627Y-219312D01*
X337298D01*
X336633Y-218647D01*
X343280Y-219312D02*
X340621D01*
X343280Y-216653D01*
Y-215988D01*
X342615Y-215324D01*
X341286D01*
X340621Y-215988D01*
X387341Y-216823D02*
X388006Y-217488D01*
X389335D01*
X390000Y-216823D01*
Y-214165D01*
X389335Y-213500D01*
X388006D01*
X387341Y-214165D01*
X384018Y-213500D02*
Y-217488D01*
X386012Y-215494D01*
X383353D01*
X382024Y-217488D02*
X379365D01*
Y-216823D01*
X382024Y-214165D01*
Y-213500D01*
X339659Y-221177D02*
X338994Y-220512D01*
X337665D01*
X337000Y-221177D01*
Y-223835D01*
X337665Y-224500D01*
X338994D01*
X339659Y-223835D01*
X342982Y-224500D02*
Y-220512D01*
X340988Y-222506D01*
X343647D01*
X346970Y-224500D02*
Y-220512D01*
X344976Y-222506D01*
X347635D01*
X329861Y-210899D02*
X329196Y-210235D01*
X327867D01*
X327202Y-210899D01*
Y-213558D01*
X327867Y-214223D01*
X329196D01*
X329861Y-213558D01*
X333849Y-214223D02*
X331190D01*
X333849Y-211564D01*
Y-210899D01*
X333185Y-210235D01*
X331855D01*
X331190Y-210899D01*
X335179Y-213558D02*
X335843Y-214223D01*
X337173D01*
X337837Y-213558D01*
Y-210899D01*
X337173Y-210235D01*
X335843D01*
X335179Y-210899D01*
Y-211564D01*
X335843Y-212229D01*
X337837D01*
X284759Y-211534D02*
X284095Y-210869D01*
X282765D01*
X282100Y-211534D01*
Y-214192D01*
X282765Y-214857D01*
X284095D01*
X284759Y-214192D01*
X286088Y-214857D02*
X287418D01*
X286753D01*
Y-210869D01*
X286088Y-211534D01*
X289412Y-210869D02*
X292071D01*
Y-211534D01*
X289412Y-214192D01*
Y-214857D01*
X278972Y-236460D02*
X274984D01*
Y-234466D01*
X275648Y-233802D01*
X276977D01*
X277642Y-234466D01*
Y-236460D01*
Y-235131D02*
X278972Y-233802D01*
X274984Y-229813D02*
X275648Y-231143D01*
X276977Y-232472D01*
X278307D01*
X278972Y-231807D01*
Y-230478D01*
X278307Y-229813D01*
X277642D01*
X276977Y-230478D01*
Y-232472D01*
X362500Y-235012D02*
Y-239000D01*
X365159D01*
X369147D02*
X366488D01*
X369147Y-236341D01*
Y-235677D01*
X368482Y-235012D01*
X367153D01*
X366488Y-235677D01*
X370476Y-239000D02*
X371806D01*
X371141D01*
Y-235012D01*
X370476Y-235677D01*
X311500Y-233512D02*
Y-237500D01*
X314159D01*
X315488D02*
X316817D01*
X316153D01*
Y-233512D01*
X315488Y-234177D01*
X321470Y-233512D02*
X320141Y-234177D01*
X318811Y-235506D01*
Y-236835D01*
X319476Y-237500D01*
X320806D01*
X321470Y-236835D01*
Y-236171D01*
X320806Y-235506D01*
X318811D01*
X342177Y-242841D02*
X341512Y-243506D01*
Y-244835D01*
X342177Y-245500D01*
X344835D01*
X345500Y-244835D01*
Y-243506D01*
X344835Y-242841D01*
X341512Y-238853D02*
Y-241512D01*
X343506D01*
X342841Y-240182D01*
Y-239518D01*
X343506Y-238853D01*
X344835D01*
X345500Y-239518D01*
Y-240847D01*
X344835Y-241512D01*
X342177Y-237524D02*
X341512Y-236859D01*
Y-235530D01*
X342177Y-234865D01*
X342841D01*
X343506Y-235530D01*
Y-236194D01*
Y-235530D01*
X344171Y-234865D01*
X344835D01*
X345500Y-235530D01*
Y-236859D01*
X344835Y-237524D01*
X298837Y-248204D02*
X298377Y-247745D01*
X297459D01*
X297000Y-248204D01*
Y-250041D01*
X297459Y-250500D01*
X298377D01*
X298837Y-250041D01*
X299755Y-248204D02*
X300214Y-247745D01*
X301132D01*
X301592Y-248204D01*
Y-248663D01*
X301132Y-249123D01*
X300673D01*
X301132D01*
X301592Y-249582D01*
Y-250041D01*
X301132Y-250500D01*
X300214D01*
X299755Y-250041D01*
X304347Y-247745D02*
X303428Y-248204D01*
X302510Y-249123D01*
Y-250041D01*
X302969Y-250500D01*
X303888D01*
X304347Y-250041D01*
Y-249582D01*
X303888Y-249123D01*
X302510D01*
X333159Y-242177D02*
X332494Y-241512D01*
X331165D01*
X330500Y-242177D01*
Y-244835D01*
X331165Y-245500D01*
X332494D01*
X333159Y-244835D01*
X334488Y-242177D02*
X335153Y-241512D01*
X336482D01*
X337147Y-242177D01*
Y-242841D01*
X336482Y-243506D01*
X335818D01*
X336482D01*
X337147Y-244171D01*
Y-244835D01*
X336482Y-245500D01*
X335153D01*
X334488Y-244835D01*
X338476Y-245500D02*
X339806D01*
X339141D01*
Y-241512D01*
X338476Y-242177D01*
X289008Y-242259D02*
X288343Y-241595D01*
X287014D01*
X286349Y-242259D01*
Y-244918D01*
X287014Y-245583D01*
X288343D01*
X289008Y-244918D01*
X290337Y-245583D02*
X291667D01*
X291002D01*
Y-241595D01*
X290337Y-242259D01*
X293661Y-244918D02*
X294325Y-245583D01*
X295655D01*
X296320Y-244918D01*
Y-242259D01*
X295655Y-241595D01*
X294325D01*
X293661Y-242259D01*
Y-242924D01*
X294325Y-243588D01*
X296320D01*
X193656Y-188689D02*
X189668D01*
Y-186695D01*
X190333Y-186030D01*
X191662D01*
X192327Y-186695D01*
Y-188689D01*
Y-187360D02*
X193656Y-186030D01*
Y-184701D02*
Y-183371D01*
Y-184036D01*
X189668D01*
X190333Y-184701D01*
X219053Y-175828D02*
X218388Y-175163D01*
X217059D01*
X216394Y-175828D01*
Y-178487D01*
X217059Y-179151D01*
X218388D01*
X219053Y-178487D01*
X220382Y-179151D02*
X221712D01*
X221047D01*
Y-175163D01*
X220382Y-175828D01*
X223706D02*
X224370Y-175163D01*
X225700D01*
X226364Y-175828D01*
Y-176493D01*
X225700Y-177157D01*
X225035D01*
X225700D01*
X226364Y-177822D01*
Y-178487D01*
X225700Y-179151D01*
X224370D01*
X223706Y-178487D01*
X217000Y-201012D02*
Y-205000D01*
X219659D01*
X223647Y-201012D02*
X220988D01*
Y-203006D01*
X222318Y-202341D01*
X222982D01*
X223647Y-203006D01*
Y-204335D01*
X222982Y-205000D01*
X221653D01*
X220988Y-204335D01*
X251898Y-206759D02*
X251234Y-207424D01*
Y-208753D01*
X251898Y-209418D01*
X254557D01*
X255222Y-208753D01*
Y-207424D01*
X254557Y-206759D01*
X255222Y-202771D02*
Y-205430D01*
X252563Y-202771D01*
X251898D01*
X251234Y-203436D01*
Y-204765D01*
X251898Y-205430D01*
Y-201442D02*
X251234Y-200777D01*
Y-199448D01*
X251898Y-198783D01*
X254557D01*
X255222Y-199448D01*
Y-200777D01*
X254557Y-201442D01*
X251898D01*
X199120Y-204843D02*
X198456Y-204178D01*
X197126D01*
X196461Y-204843D01*
Y-207501D01*
X197126Y-208166D01*
X198456D01*
X199120Y-207501D01*
X203108Y-208166D02*
X200449D01*
X203108Y-205507D01*
Y-204843D01*
X202444Y-204178D01*
X201114D01*
X200449Y-204843D01*
X217181Y-233161D02*
Y-237149D01*
X219839D01*
X223828Y-233161D02*
X222498Y-233826D01*
X221169Y-235155D01*
Y-236484D01*
X221833Y-237149D01*
X223163D01*
X223828Y-236484D01*
Y-235820D01*
X223163Y-235155D01*
X221169D01*
X251898Y-240899D02*
X251234Y-241564D01*
Y-242893D01*
X251898Y-243558D01*
X254557D01*
X255222Y-242893D01*
Y-241564D01*
X254557Y-240899D01*
X255222Y-236911D02*
Y-239570D01*
X252563Y-236911D01*
X251898D01*
X251234Y-237576D01*
Y-238905D01*
X251898Y-239570D01*
X255222Y-235582D02*
Y-234252D01*
Y-234917D01*
X251234D01*
X251898Y-235582D01*
X185768Y-245100D02*
X185103Y-244435D01*
X183774D01*
X183109Y-245100D01*
Y-247759D01*
X183774Y-248423D01*
X185103D01*
X185768Y-247759D01*
X187097Y-245100D02*
X187762Y-244435D01*
X189091D01*
X189756Y-245100D01*
Y-245764D01*
X189091Y-246429D01*
X188426D01*
X189091D01*
X189756Y-247094D01*
Y-247759D01*
X189091Y-248423D01*
X187762D01*
X187097Y-247759D01*
X137841Y-93823D02*
X138506Y-94488D01*
X139835D01*
X140500Y-93823D01*
Y-91165D01*
X139835Y-90500D01*
X138506D01*
X137841Y-91165D01*
X136512Y-90500D02*
X135182D01*
X135847D01*
Y-94488D01*
X136512Y-93823D01*
X133188D02*
X132524Y-94488D01*
X131194D01*
X130530Y-93823D01*
Y-91165D01*
X131194Y-90500D01*
X132524D01*
X133188Y-91165D01*
Y-93823D01*
X129200Y-91165D02*
X128536Y-90500D01*
X127206D01*
X126542Y-91165D01*
Y-93823D01*
X127206Y-94488D01*
X128536D01*
X129200Y-93823D01*
Y-93159D01*
X128536Y-92494D01*
X126542D01*
X137841Y-100323D02*
X138506Y-100988D01*
X139835D01*
X140500Y-100323D01*
Y-97665D01*
X139835Y-97000D01*
X138506D01*
X137841Y-97665D01*
X136512Y-97000D02*
X135182D01*
X135847D01*
Y-100988D01*
X136512Y-100323D01*
X133188D02*
X132524Y-100988D01*
X131194D01*
X130530Y-100323D01*
Y-97665D01*
X131194Y-97000D01*
X132524D01*
X133188Y-97665D01*
Y-100323D01*
X129200D02*
X128536Y-100988D01*
X127206D01*
X126542Y-100323D01*
Y-99659D01*
X127206Y-98994D01*
X126542Y-98329D01*
Y-97665D01*
X127206Y-97000D01*
X128536D01*
X129200Y-97665D01*
Y-98329D01*
X128536Y-98994D01*
X129200Y-99659D01*
Y-100323D01*
X128536Y-98994D02*
X127206D01*
X137841Y-86323D02*
X138506Y-86988D01*
X139835D01*
X140500Y-86323D01*
Y-83665D01*
X139835Y-83000D01*
X138506D01*
X137841Y-83665D01*
X136512Y-83000D02*
X135182D01*
X135847D01*
Y-86988D01*
X136512Y-86323D01*
X133188D02*
X132524Y-86988D01*
X131194D01*
X130530Y-86323D01*
Y-83665D01*
X131194Y-83000D01*
X132524D01*
X133188Y-83665D01*
Y-86323D01*
X129200Y-86988D02*
X126542D01*
Y-86323D01*
X129200Y-83665D01*
Y-83000D01*
X88677Y-92841D02*
X88012Y-93506D01*
Y-94835D01*
X88677Y-95500D01*
X91335D01*
X92000Y-94835D01*
Y-93506D01*
X91335Y-92841D01*
X92000Y-91512D02*
Y-90183D01*
Y-90847D01*
X88012D01*
X88677Y-91512D01*
Y-88188D02*
X88012Y-87524D01*
Y-86194D01*
X88677Y-85530D01*
X91335D01*
X92000Y-86194D01*
Y-87524D01*
X91335Y-88188D01*
X88677D01*
X92000Y-81542D02*
Y-84200D01*
X89341Y-81542D01*
X88677D01*
X88012Y-82206D01*
Y-83536D01*
X88677Y-84200D01*
X115961Y-179066D02*
X116626Y-179731D01*
X117955D01*
X118620Y-179066D01*
Y-176408D01*
X117955Y-175743D01*
X116626D01*
X115961Y-176408D01*
X114632D02*
X113967Y-175743D01*
X112637D01*
X111973Y-176408D01*
Y-179066D01*
X112637Y-179731D01*
X113967D01*
X114632Y-179066D01*
Y-178402D01*
X113967Y-177737D01*
X111973D01*
X110643Y-179731D02*
X107985D01*
Y-179066D01*
X110643Y-176408D01*
Y-175743D01*
X132803Y-176047D02*
X132139Y-175382D01*
X130809D01*
X130145Y-176047D01*
Y-178706D01*
X130809Y-179370D01*
X132139D01*
X132803Y-178706D01*
X134133Y-176047D02*
X134797Y-175382D01*
X136127D01*
X136791Y-176047D01*
Y-176712D01*
X136127Y-177376D01*
X136791Y-178041D01*
Y-178706D01*
X136127Y-179370D01*
X134797D01*
X134133Y-178706D01*
Y-178041D01*
X134797Y-177376D01*
X134133Y-176712D01*
Y-176047D01*
X134797Y-177376D02*
X136127D01*
X138121Y-176047D02*
X138785Y-175382D01*
X140115D01*
X140779Y-176047D01*
Y-176712D01*
X140115Y-177376D01*
X140779Y-178041D01*
Y-178706D01*
X140115Y-179370D01*
X138785D01*
X138121Y-178706D01*
Y-178041D01*
X138785Y-177376D01*
X138121Y-176712D01*
Y-176047D01*
X138785Y-177376D02*
X140115D01*
X79659Y-201677D02*
X78994Y-201012D01*
X77665D01*
X77000Y-201677D01*
Y-204335D01*
X77665Y-205000D01*
X78994D01*
X79659Y-204335D01*
X80988Y-205000D02*
X82318D01*
X81653D01*
Y-201012D01*
X80988Y-201677D01*
X84311D02*
X84976Y-201012D01*
X86306D01*
X86970Y-201677D01*
Y-204335D01*
X86306Y-205000D01*
X84976D01*
X84311Y-204335D01*
Y-201677D01*
X88300D02*
X88964Y-201012D01*
X90294D01*
X90958Y-201677D01*
Y-204335D01*
X90294Y-205000D01*
X88964D01*
X88300Y-204335D01*
Y-201677D01*
X136841Y-219323D02*
X137506Y-219988D01*
X138835D01*
X139500Y-219323D01*
Y-216665D01*
X138835Y-216000D01*
X137506D01*
X136841Y-216665D01*
X135512Y-219323D02*
X134847Y-219988D01*
X133518D01*
X132853Y-219323D01*
Y-218659D01*
X133518Y-217994D01*
X132853Y-217329D01*
Y-216665D01*
X133518Y-216000D01*
X134847D01*
X135512Y-216665D01*
Y-217329D01*
X134847Y-217994D01*
X135512Y-218659D01*
Y-219323D01*
X134847Y-217994D02*
X133518D01*
X131524Y-216665D02*
X130859Y-216000D01*
X129530D01*
X128865Y-216665D01*
Y-219323D01*
X129530Y-219988D01*
X130859D01*
X131524Y-219323D01*
Y-218659D01*
X130859Y-217994D01*
X128865D01*
X99571Y-242191D02*
X95583D01*
Y-240197D01*
X96247Y-239532D01*
X97577D01*
X98241Y-240197D01*
Y-242191D01*
Y-240862D02*
X99571Y-239532D01*
Y-238203D02*
Y-236874D01*
Y-237538D01*
X95583D01*
X96247Y-238203D01*
Y-234879D02*
X95583Y-234215D01*
Y-232885D01*
X96247Y-232221D01*
X96912D01*
X97577Y-232885D01*
X98241Y-232221D01*
X98906D01*
X99571Y-232885D01*
Y-234215D01*
X98906Y-234879D01*
X98241D01*
X97577Y-234215D01*
X96912Y-234879D01*
X96247D01*
X97577Y-234215D02*
Y-232885D01*
X130000Y-235512D02*
Y-239500D01*
X132659D01*
X133988Y-236177D02*
X134653Y-235512D01*
X135982D01*
X136647Y-236177D01*
Y-236841D01*
X135982Y-237506D01*
X135318D01*
X135982D01*
X136647Y-238171D01*
Y-238835D01*
X135982Y-239500D01*
X134653D01*
X133988Y-238835D01*
X140635Y-235512D02*
X139306Y-236177D01*
X137976Y-237506D01*
Y-238835D01*
X138641Y-239500D01*
X139970D01*
X140635Y-238835D01*
Y-238171D01*
X139970Y-237506D01*
X137976D01*
X116109Y-249440D02*
X116773Y-250105D01*
X118103D01*
X118767Y-249440D01*
Y-246782D01*
X118103Y-246117D01*
X116773D01*
X116109Y-246782D01*
X114779D02*
X114114Y-246117D01*
X112785D01*
X112120Y-246782D01*
Y-249440D01*
X112785Y-250105D01*
X114114D01*
X114779Y-249440D01*
Y-248776D01*
X114114Y-248111D01*
X112120D01*
X110791Y-249440D02*
X110126Y-250105D01*
X108797D01*
X108132Y-249440D01*
Y-248776D01*
X108797Y-248111D01*
X108132Y-247446D01*
Y-246782D01*
X108797Y-246117D01*
X110126D01*
X110791Y-246782D01*
Y-247446D01*
X110126Y-248111D01*
X110791Y-248776D01*
Y-249440D01*
X110126Y-248111D02*
X108797D01*
X712299Y-57511D02*
Y-58840D01*
Y-58175D01*
X715622D01*
X716287Y-58840D01*
Y-59505D01*
X715622Y-60169D01*
X712963Y-56181D02*
X712299Y-55516D01*
Y-54187D01*
X712963Y-53522D01*
X713628D01*
X714293Y-54187D01*
X714958Y-53522D01*
X715622D01*
X716287Y-54187D01*
Y-55516D01*
X715622Y-56181D01*
X714958D01*
X714293Y-55516D01*
X713628Y-56181D01*
X712963D01*
X714293Y-55516D02*
Y-54187D01*
X499177Y-43841D02*
X498512Y-44506D01*
Y-45835D01*
X499177Y-46500D01*
X501835D01*
X502500Y-45835D01*
Y-44506D01*
X501835Y-43841D01*
X502500Y-42512D02*
Y-41183D01*
Y-41847D01*
X498512D01*
X499177Y-42512D01*
X502500Y-39189D02*
Y-37859D01*
Y-38524D01*
X498512D01*
X499177Y-39189D01*
Y-35865D02*
X498512Y-35200D01*
Y-33871D01*
X499177Y-33206D01*
X499841D01*
X500506Y-33871D01*
Y-34536D01*
Y-33871D01*
X501171Y-33206D01*
X501835D01*
X502500Y-33871D01*
Y-35200D01*
X501835Y-35865D01*
X456988Y-154500D02*
X453000D01*
Y-156494D01*
X453665Y-157159D01*
X456323D01*
X456988Y-156494D01*
Y-154500D01*
X453000Y-158488D02*
Y-159818D01*
Y-159153D01*
X456988D01*
X456323Y-158488D01*
X453000Y-163806D02*
X456988D01*
X454994Y-161811D01*
Y-164470D01*
X390578Y-187283D02*
X386589D01*
Y-185289D01*
X387254Y-184624D01*
X388583D01*
X389248Y-185289D01*
Y-187283D01*
Y-185954D02*
X390578Y-184624D01*
X389913Y-183295D02*
X390578Y-182630D01*
Y-181301D01*
X389913Y-180636D01*
X387254D01*
X386589Y-181301D01*
Y-182630D01*
X387254Y-183295D01*
X387919D01*
X388583Y-182630D01*
Y-180636D01*
X359488Y-155000D02*
X355500D01*
Y-156994D01*
X356165Y-157659D01*
X358823D01*
X359488Y-156994D01*
Y-155000D01*
X355500Y-158988D02*
Y-160318D01*
Y-159653D01*
X359488D01*
X358823Y-158988D01*
Y-162311D02*
X359488Y-162976D01*
Y-164306D01*
X358823Y-164970D01*
X356165D01*
X355500Y-164306D01*
Y-162976D01*
X356165Y-162311D01*
X358823D01*
X339908Y-187482D02*
X335920D01*
Y-185488D01*
X336585Y-184824D01*
X337914D01*
X338579Y-185488D01*
Y-187482D01*
Y-186153D02*
X339908Y-184824D01*
X335920Y-183494D02*
Y-180835D01*
X336585D01*
X339244Y-183494D01*
X339908D01*
X308988Y-157500D02*
X305000D01*
Y-159494D01*
X305665Y-160159D01*
X308323D01*
X308988Y-159494D01*
Y-157500D01*
X308323Y-161488D02*
X308988Y-162153D01*
Y-163482D01*
X308323Y-164147D01*
X307659D01*
X306994Y-163482D01*
X306329Y-164147D01*
X305665D01*
X305000Y-163482D01*
Y-162153D01*
X305665Y-161488D01*
X306329D01*
X306994Y-162153D01*
X307659Y-161488D01*
X308323D01*
X306994Y-162153D02*
Y-163482D01*
X269700Y-167334D02*
X269035Y-166669D01*
X267706D01*
X267041Y-167334D01*
Y-169992D01*
X267706Y-170657D01*
X269035D01*
X269700Y-169992D01*
X273688Y-170657D02*
X271029D01*
X273688Y-167998D01*
Y-167334D01*
X273023Y-166669D01*
X271694D01*
X271029Y-167334D01*
X277676Y-166669D02*
X275017D01*
Y-168663D01*
X276346Y-167998D01*
X277011D01*
X277676Y-168663D01*
Y-169992D01*
X277011Y-170657D01*
X275682D01*
X275017Y-169992D01*
X242580Y-189275D02*
X238592D01*
Y-187281D01*
X239256Y-186617D01*
X240586D01*
X241250Y-187281D01*
Y-189275D01*
Y-187946D02*
X242580Y-186617D01*
X239256Y-185287D02*
X238592Y-184622D01*
Y-183293D01*
X239256Y-182628D01*
X239921D01*
X240586Y-183293D01*
Y-183958D01*
Y-183293D01*
X241250Y-182628D01*
X241915D01*
X242580Y-183293D01*
Y-184622D01*
X241915Y-185287D01*
X210988Y-157500D02*
X207000D01*
Y-159494D01*
X207665Y-160159D01*
X210323D01*
X210988Y-159494D01*
Y-157500D01*
X207000Y-163482D02*
X210988D01*
X208994Y-161488D01*
Y-164147D01*
X132488Y-156500D02*
X128500D01*
Y-158494D01*
X129165Y-159159D01*
X131823D01*
X132488Y-158494D01*
Y-156500D01*
X128500Y-160488D02*
Y-161818D01*
Y-161153D01*
X132488D01*
X131823Y-160488D01*
X132488Y-166470D02*
X131823Y-165141D01*
X130494Y-163812D01*
X129165D01*
X128500Y-164476D01*
Y-165806D01*
X129165Y-166470D01*
X129829D01*
X130494Y-165806D01*
Y-163812D01*
X580057Y-296189D02*
X576068D01*
Y-294195D01*
X576733Y-293530D01*
X578063D01*
X578727Y-294195D01*
Y-296189D01*
Y-294860D02*
X580057Y-293530D01*
Y-290207D02*
X576068D01*
X578063Y-292201D01*
Y-289542D01*
X576733Y-288213D02*
X576068Y-287548D01*
Y-286219D01*
X576733Y-285554D01*
X577398D01*
X578063Y-286219D01*
Y-286883D01*
Y-286219D01*
X578727Y-285554D01*
X579392D01*
X580057Y-286219D01*
Y-287548D01*
X579392Y-288213D01*
X579791Y-250500D02*
X575803D01*
Y-248506D01*
X576468Y-247842D01*
X577797D01*
X578462Y-248506D01*
Y-250500D01*
Y-249171D02*
X579791Y-247842D01*
Y-244518D02*
X575803D01*
X577797Y-246512D01*
Y-243853D01*
X579791Y-239865D02*
Y-242524D01*
X577133Y-239865D01*
X576468D01*
X575803Y-240530D01*
Y-241860D01*
X576468Y-242524D01*
X559946Y-294836D02*
Y-290848D01*
X561940D01*
X562604Y-291513D01*
Y-292843D01*
X561940Y-293507D01*
X559946D01*
X561275D02*
X562604Y-294836D01*
X563934Y-291513D02*
X564599Y-290848D01*
X565928D01*
X566593Y-291513D01*
Y-292178D01*
X565928Y-292843D01*
X565263D01*
X565928D01*
X566593Y-293507D01*
Y-294172D01*
X565928Y-294836D01*
X564599D01*
X563934Y-294172D01*
X567922Y-290848D02*
X570581D01*
Y-291513D01*
X567922Y-294172D01*
Y-294836D01*
X560376Y-246699D02*
Y-242711D01*
X562370D01*
X563035Y-243376D01*
Y-244705D01*
X562370Y-245370D01*
X560376D01*
X561706D02*
X563035Y-246699D01*
X564364Y-243376D02*
X565029Y-242711D01*
X566359D01*
X567023Y-243376D01*
Y-244040D01*
X566359Y-244705D01*
X565694D01*
X566359D01*
X567023Y-245370D01*
Y-246035D01*
X566359Y-246699D01*
X565029D01*
X564364Y-246035D01*
X568353Y-243376D02*
X569017Y-242711D01*
X570347D01*
X571011Y-243376D01*
Y-244040D01*
X570347Y-244705D01*
X569682D01*
X570347D01*
X571011Y-245370D01*
Y-246035D01*
X570347Y-246699D01*
X569017D01*
X568353Y-246035D01*
X556323Y-255159D02*
X556988Y-254494D01*
Y-253165D01*
X556323Y-252500D01*
X553665D01*
X553000Y-253165D01*
Y-254494D01*
X553665Y-255159D01*
X556323Y-256488D02*
X556988Y-257153D01*
Y-258482D01*
X556323Y-259147D01*
X555659D01*
X554994Y-258482D01*
Y-257818D01*
Y-258482D01*
X554329Y-259147D01*
X553665D01*
X553000Y-258482D01*
Y-257153D01*
X553665Y-256488D01*
X556323Y-260476D02*
X556988Y-261141D01*
Y-262470D01*
X556323Y-263135D01*
X555659D01*
X554994Y-262470D01*
X554329Y-263135D01*
X553665D01*
X553000Y-262470D01*
Y-261141D01*
X553665Y-260476D01*
X554329D01*
X554994Y-261141D01*
X555659Y-260476D01*
X556323D01*
X554994Y-261141D02*
Y-262470D01*
X505382Y-164218D02*
X509370D01*
Y-162224D01*
X508705Y-161559D01*
X506047D01*
X505382Y-162224D01*
Y-164218D01*
X509370Y-157571D02*
Y-160230D01*
X506711Y-157571D01*
X506047D01*
X505382Y-158236D01*
Y-159565D01*
X506047Y-160230D01*
Y-156242D02*
X505382Y-155577D01*
Y-154247D01*
X506047Y-153583D01*
X506711D01*
X507376Y-154247D01*
Y-154912D01*
Y-154247D01*
X508041Y-153583D01*
X508705D01*
X509370Y-154247D01*
Y-155577D01*
X508705Y-156242D01*
X477151Y-84920D02*
X473163D01*
Y-82926D01*
X473828Y-82261D01*
X475157D01*
X475822Y-82926D01*
Y-84920D01*
Y-83591D02*
X477151Y-82261D01*
X473163Y-78273D02*
Y-80932D01*
X475157D01*
X474493Y-79603D01*
Y-78938D01*
X475157Y-78273D01*
X476487D01*
X477151Y-78938D01*
Y-80267D01*
X476487Y-80932D01*
X473828Y-76944D02*
X473163Y-76279D01*
Y-74950D01*
X473828Y-74285D01*
X474493D01*
X475157Y-74950D01*
Y-75615D01*
Y-74950D01*
X475822Y-74285D01*
X476487D01*
X477151Y-74950D01*
Y-76279D01*
X476487Y-76944D01*
X475136Y-107899D02*
X474471Y-107234D01*
X473141D01*
X472477Y-107899D01*
Y-110558D01*
X473141Y-111222D01*
X474471D01*
X475136Y-110558D01*
X476465Y-111222D02*
X477794D01*
X477130D01*
Y-107234D01*
X476465Y-107899D01*
X482447Y-111222D02*
X479788D01*
X482447Y-108564D01*
Y-107899D01*
X481782Y-107234D01*
X480453D01*
X479788Y-107899D01*
X486435Y-107234D02*
X485106Y-107899D01*
X483776Y-109228D01*
Y-110558D01*
X484441Y-111222D01*
X485771D01*
X486435Y-110558D01*
Y-109893D01*
X485771Y-109228D01*
X483776D01*
X455000Y-74000D02*
Y-77988D01*
X453006D01*
X452341Y-77323D01*
Y-75994D01*
X453006Y-75329D01*
X455000D01*
X453671D02*
X452341Y-74000D01*
X448353Y-77988D02*
X451012D01*
Y-75994D01*
X449683Y-76659D01*
X449018D01*
X448353Y-75994D01*
Y-74665D01*
X449018Y-74000D01*
X450347D01*
X451012Y-74665D01*
X447024Y-77323D02*
X446359Y-77988D01*
X445030D01*
X444365Y-77323D01*
Y-74665D01*
X445030Y-74000D01*
X446359D01*
X447024Y-74665D01*
Y-77323D01*
X449596Y-113387D02*
X445608D01*
Y-111393D01*
X446273Y-110729D01*
X447602D01*
X448267Y-111393D01*
Y-113387D01*
Y-112058D02*
X449596Y-110729D01*
Y-107405D02*
X445608D01*
X447602Y-109399D01*
Y-106741D01*
X449596Y-105411D02*
Y-104082D01*
Y-104746D01*
X445608D01*
X446273Y-105411D01*
X447833Y-226063D02*
X451821D01*
Y-223405D01*
X448497Y-222075D02*
X447833Y-221411D01*
Y-220081D01*
X448497Y-219416D01*
X449162D01*
X449827Y-220081D01*
Y-220746D01*
Y-220081D01*
X450491Y-219416D01*
X451156D01*
X451821Y-220081D01*
Y-221411D01*
X451156Y-222075D01*
X448497Y-218087D02*
X447833Y-217423D01*
Y-216093D01*
X448497Y-215428D01*
X449162D01*
X449827Y-216093D01*
Y-216758D01*
Y-216093D01*
X450491Y-215428D01*
X451156D01*
X451821Y-216093D01*
Y-217423D01*
X451156Y-218087D01*
X452488Y-263500D02*
X448500D01*
Y-265494D01*
X449165Y-266159D01*
X451823D01*
X452488Y-265494D01*
Y-263500D01*
X448500Y-267488D02*
Y-268817D01*
Y-268153D01*
X452488D01*
X451823Y-267488D01*
X452488Y-273470D02*
Y-270812D01*
X450494D01*
X451159Y-272141D01*
Y-272806D01*
X450494Y-273470D01*
X449165D01*
X448500Y-272806D01*
Y-271476D01*
X449165Y-270812D01*
X420040Y-165062D02*
X419376Y-164397D01*
X418046D01*
X417381Y-165062D01*
Y-167721D01*
X418046Y-168385D01*
X419376D01*
X420040Y-167721D01*
X424028Y-164397D02*
X422699Y-165062D01*
X421370Y-166391D01*
Y-167721D01*
X422034Y-168385D01*
X423364D01*
X424028Y-167721D01*
Y-167056D01*
X423364Y-166391D01*
X421370D01*
X425358Y-165062D02*
X426022Y-164397D01*
X427352D01*
X428017Y-165062D01*
Y-165727D01*
X427352Y-166391D01*
X426687D01*
X427352D01*
X428017Y-167056D01*
Y-167721D01*
X427352Y-168385D01*
X426022D01*
X425358Y-167721D01*
X416787Y-192159D02*
Y-196147D01*
X419446D01*
X423434D02*
X420776D01*
X423434Y-193488D01*
Y-192823D01*
X422770Y-192159D01*
X421440D01*
X420776Y-192823D01*
X426758Y-196147D02*
Y-192159D01*
X424764Y-194153D01*
X427422D01*
X418829Y-263735D02*
X418164Y-263071D01*
X416835D01*
X416171Y-263735D01*
Y-266394D01*
X416835Y-267059D01*
X418164D01*
X418829Y-266394D01*
X422817Y-263071D02*
X421488Y-263735D01*
X420159Y-265065D01*
Y-266394D01*
X420823Y-267059D01*
X422153D01*
X422817Y-266394D01*
Y-265729D01*
X422153Y-265065D01*
X420159D01*
X426805Y-263071D02*
X424147D01*
Y-265065D01*
X425476Y-264400D01*
X426141D01*
X426805Y-265065D01*
Y-266394D01*
X426141Y-267059D01*
X424811D01*
X424147Y-266394D01*
X439341Y-221323D02*
X440006Y-221988D01*
X441335D01*
X442000Y-221323D01*
Y-218665D01*
X441335Y-218000D01*
X440006D01*
X439341Y-218665D01*
X435353Y-221988D02*
X436683Y-221323D01*
X438012Y-219994D01*
Y-218665D01*
X437347Y-218000D01*
X436018D01*
X435353Y-218665D01*
Y-219329D01*
X436018Y-219994D01*
X438012D01*
X432030Y-218000D02*
Y-221988D01*
X434024Y-219994D01*
X431365D01*
X382392Y-242942D02*
X381727Y-242277D01*
X380398D01*
X379733Y-242942D01*
Y-245601D01*
X380398Y-246265D01*
X381727D01*
X382392Y-245601D01*
X385715Y-246265D02*
Y-242277D01*
X383721Y-244271D01*
X386380D01*
X387709Y-242942D02*
X388374Y-242277D01*
X389703D01*
X390368Y-242942D01*
Y-243606D01*
X389703Y-244271D01*
X389039D01*
X389703D01*
X390368Y-244936D01*
Y-245601D01*
X389703Y-246265D01*
X388374D01*
X387709Y-245601D01*
X381456Y-264426D02*
X380791Y-263761D01*
X379462D01*
X378797Y-264426D01*
Y-267084D01*
X379462Y-267749D01*
X380791D01*
X381456Y-267084D01*
X384779Y-267749D02*
Y-263761D01*
X382785Y-265755D01*
X385444D01*
X389432Y-267749D02*
X386773D01*
X389432Y-265090D01*
Y-264426D01*
X388768Y-263761D01*
X387438D01*
X386773Y-264426D01*
X387857Y-189718D02*
X387193Y-189053D01*
X385863D01*
X385198Y-189718D01*
Y-192377D01*
X385863Y-193041D01*
X387193D01*
X387857Y-192377D01*
X391181Y-193041D02*
Y-189053D01*
X389187Y-191047D01*
X391845D01*
X393175Y-189718D02*
X393839Y-189053D01*
X395169D01*
X395833Y-189718D01*
Y-192377D01*
X395169Y-193041D01*
X393839D01*
X393175Y-192377D01*
Y-189718D01*
X349229Y-230637D02*
X353217D01*
Y-227979D01*
Y-223991D02*
Y-226649D01*
X350558Y-223991D01*
X349894D01*
X349229Y-224655D01*
Y-225985D01*
X349894Y-226649D01*
Y-222661D02*
X349229Y-221996D01*
Y-220667D01*
X349894Y-220002D01*
X350558D01*
X351223Y-220667D01*
Y-221332D01*
Y-220667D01*
X351888Y-220002D01*
X352553D01*
X353217Y-220667D01*
Y-221996D01*
X352553Y-222661D01*
X349229Y-199387D02*
X353217D01*
Y-196729D01*
Y-192741D02*
Y-195399D01*
X350558Y-192741D01*
X349894D01*
X349229Y-193405D01*
Y-194735D01*
X349894Y-195399D01*
X353217Y-188752D02*
Y-191411D01*
X350558Y-188752D01*
X349894D01*
X349229Y-189417D01*
Y-190746D01*
X349894Y-191411D01*
X359988Y-266000D02*
X356000D01*
Y-267994D01*
X356665Y-268659D01*
X359323D01*
X359988Y-267994D01*
Y-266000D01*
X356000Y-269988D02*
Y-271318D01*
Y-270653D01*
X359988D01*
X359323Y-269988D01*
X356000Y-273311D02*
Y-274641D01*
Y-273976D01*
X359988D01*
X359323Y-273311D01*
X299101Y-226045D02*
X303089D01*
Y-223386D01*
Y-222056D02*
Y-220727D01*
Y-221392D01*
X299101D01*
X299766Y-222056D01*
Y-218733D02*
X299101Y-218068D01*
Y-216739D01*
X299766Y-216074D01*
X300430D01*
X301095Y-216739D01*
X301760Y-216074D01*
X302425D01*
X303089Y-216739D01*
Y-218068D01*
X302425Y-218733D01*
X301760D01*
X301095Y-218068D01*
X300430Y-218733D01*
X299766D01*
X301095Y-218068D02*
Y-216739D01*
X299101Y-192660D02*
X303089D01*
Y-190001D01*
Y-188672D02*
Y-187342D01*
Y-188007D01*
X299101D01*
X299766Y-188672D01*
X299101Y-185348D02*
Y-182690D01*
X299766D01*
X302425Y-185348D01*
X303089D01*
X309488Y-267500D02*
X305500D01*
Y-269494D01*
X306165Y-270159D01*
X308823D01*
X309488Y-269494D01*
Y-267500D01*
X306165Y-271488D02*
X305500Y-272153D01*
Y-273482D01*
X306165Y-274147D01*
X308823D01*
X309488Y-273482D01*
Y-272153D01*
X308823Y-271488D01*
X308159D01*
X307494Y-272153D01*
Y-274147D01*
X268330Y-195707D02*
Y-199695D01*
X270988D01*
X272318Y-199030D02*
X272982Y-199695D01*
X274312D01*
X274976Y-199030D01*
Y-196372D01*
X274312Y-195707D01*
X272982D01*
X272318Y-196372D01*
Y-197037D01*
X272982Y-197701D01*
X274976D01*
X267899Y-262172D02*
X267235Y-261507D01*
X265905D01*
X265241Y-262172D01*
Y-264830D01*
X265905Y-265495D01*
X267235D01*
X267899Y-264830D01*
X271887Y-265495D02*
X269229D01*
X271887Y-262837D01*
Y-262172D01*
X271223Y-261507D01*
X269893D01*
X269229Y-262172D01*
X273217Y-261507D02*
X275875D01*
Y-262172D01*
X273217Y-264830D01*
Y-265495D01*
X242880Y-230469D02*
X238892D01*
Y-228475D01*
X239556Y-227810D01*
X240886D01*
X241550Y-228475D01*
Y-230469D01*
Y-229139D02*
X242880Y-227810D01*
Y-224487D02*
X238892D01*
X240886Y-226481D01*
Y-223822D01*
X235495Y-256941D02*
X234831Y-256277D01*
X233501D01*
X232837Y-256941D01*
Y-259600D01*
X233501Y-260265D01*
X234831D01*
X235495Y-259600D01*
X236825D02*
X237489Y-260265D01*
X238819D01*
X239483Y-259600D01*
Y-256941D01*
X238819Y-256277D01*
X237489D01*
X236825Y-256941D01*
Y-257606D01*
X237489Y-258271D01*
X239483D01*
X247159Y-194177D02*
X246494Y-193512D01*
X245165D01*
X244500Y-194177D01*
Y-196835D01*
X245165Y-197500D01*
X246494D01*
X247159Y-196835D01*
X248488Y-193512D02*
X251147D01*
Y-194177D01*
X248488Y-196835D01*
Y-197500D01*
X210659Y-28835D02*
Y-26177D01*
X209994Y-25512D01*
X208665D01*
X208000Y-26177D01*
Y-28835D01*
X208665Y-29500D01*
X209994D01*
X209329Y-28171D02*
X210659Y-29500D01*
X209994D02*
X210659Y-28835D01*
X213982Y-29500D02*
Y-25512D01*
X211988Y-27506D01*
X214647D01*
X222500Y-99012D02*
Y-103000D01*
X224494D01*
X225159Y-102335D01*
Y-99677D01*
X224494Y-99012D01*
X222500D01*
X229147Y-103000D02*
X226488D01*
X229147Y-100341D01*
Y-99677D01*
X228482Y-99012D01*
X227153D01*
X226488Y-99677D01*
X233135Y-99012D02*
X231806Y-99677D01*
X230476Y-101006D01*
Y-102335D01*
X231141Y-103000D01*
X232470D01*
X233135Y-102335D01*
Y-101671D01*
X232470Y-101006D01*
X230476D01*
X201075Y-226339D02*
X205063D01*
Y-223680D01*
X201740Y-222351D02*
X201075Y-221686D01*
Y-220356D01*
X201740Y-219692D01*
X202404D01*
X203069Y-220356D01*
X203733Y-219692D01*
X204398D01*
X205063Y-220356D01*
Y-221686D01*
X204398Y-222351D01*
X203733D01*
X203069Y-221686D01*
X202404Y-222351D01*
X201740D01*
X203069Y-221686D02*
Y-220356D01*
X201075Y-191341D02*
X205063D01*
Y-188682D01*
X201075Y-187352D02*
Y-184694D01*
X201740D01*
X204398Y-187352D01*
X205063D01*
X211488Y-266500D02*
X207500D01*
Y-268494D01*
X208165Y-269159D01*
X210823D01*
X211488Y-268494D01*
Y-266500D01*
Y-273147D02*
Y-270488D01*
X209494D01*
X210159Y-271817D01*
Y-272482D01*
X209494Y-273147D01*
X208165D01*
X207500Y-272482D01*
Y-271153D01*
X208165Y-270488D01*
X178583Y-222733D02*
X174595D01*
Y-220739D01*
X175260Y-220074D01*
X176589D01*
X177254Y-220739D01*
Y-222733D01*
Y-221404D02*
X178583Y-220074D01*
Y-216086D02*
Y-218745D01*
X175924Y-216086D01*
X175260D01*
X174595Y-216751D01*
Y-218080D01*
X175260Y-218745D01*
X157071Y-233346D02*
X153083D01*
Y-231352D01*
X153747Y-230687D01*
X155077D01*
X155741Y-231352D01*
Y-233346D01*
Y-232017D02*
X157071Y-230687D01*
Y-229358D02*
Y-228029D01*
Y-228693D01*
X153083D01*
X153747Y-229358D01*
X153083Y-223376D02*
X153747Y-224705D01*
X155077Y-226034D01*
X156406D01*
X157071Y-225370D01*
Y-224041D01*
X156406Y-223376D01*
X155741D01*
X155077Y-224041D01*
Y-226034D01*
X148831Y-264351D02*
X148166Y-263686D01*
X146837D01*
X146172Y-264351D01*
Y-267009D01*
X146837Y-267674D01*
X148166D01*
X148831Y-267009D01*
X150160Y-264351D02*
X150825Y-263686D01*
X152154D01*
X152819Y-264351D01*
Y-265015D01*
X152154Y-265680D01*
X152819Y-266345D01*
Y-267009D01*
X152154Y-267674D01*
X150825D01*
X150160Y-267009D01*
Y-266345D01*
X150825Y-265680D01*
X150160Y-265015D01*
Y-264351D01*
X150825Y-265680D02*
X152154D01*
X156807Y-263686D02*
X154148D01*
Y-265680D01*
X155478Y-265015D01*
X156142D01*
X156807Y-265680D01*
Y-267009D01*
X156142Y-267674D01*
X154813D01*
X154148Y-267009D01*
X147871Y-244054D02*
X147207Y-243389D01*
X145877D01*
X145213Y-244054D01*
Y-246713D01*
X145877Y-247377D01*
X147207D01*
X147871Y-246713D01*
X149201Y-244054D02*
X149865Y-243389D01*
X151195D01*
X151859Y-244054D01*
Y-244719D01*
X151195Y-245383D01*
X151859Y-246048D01*
Y-246713D01*
X151195Y-247377D01*
X149865D01*
X149201Y-246713D01*
Y-246048D01*
X149865Y-245383D01*
X149201Y-244719D01*
Y-244054D01*
X149865Y-245383D02*
X151195D01*
X155183Y-247377D02*
Y-243389D01*
X153189Y-245383D01*
X155848D01*
X114012Y-57000D02*
X118000D01*
Y-55006D01*
X117335Y-54341D01*
X114677D01*
X114012Y-55006D01*
Y-57000D01*
X118000Y-53012D02*
Y-51683D01*
Y-52347D01*
X114012D01*
X114677Y-53012D01*
Y-49689D02*
X114012Y-49024D01*
Y-47694D01*
X114677Y-47030D01*
X115341D01*
X116006Y-47694D01*
X116671Y-47030D01*
X117335D01*
X118000Y-47694D01*
Y-49024D01*
X117335Y-49689D01*
X116671D01*
X116006Y-49024D01*
X115341Y-49689D01*
X114677D01*
X116006Y-49024D02*
Y-47694D01*
X131488Y-266500D02*
X127500D01*
Y-268494D01*
X128165Y-269159D01*
X130823D01*
X131488Y-268494D01*
Y-266500D01*
X127500Y-270488D02*
Y-271817D01*
Y-271153D01*
X131488D01*
X130823Y-270488D01*
X131488Y-273812D02*
Y-276470D01*
X130823D01*
X128165Y-273812D01*
X127500D01*
X114177Y-210841D02*
X113512Y-211506D01*
Y-212835D01*
X114177Y-213500D01*
X116835D01*
X117500Y-212835D01*
Y-211506D01*
X116835Y-210841D01*
X114177Y-209512D02*
X113512Y-208847D01*
Y-207518D01*
X114177Y-206853D01*
X114841D01*
X115506Y-207518D01*
X116171Y-206853D01*
X116835D01*
X117500Y-207518D01*
Y-208847D01*
X116835Y-209512D01*
X116171D01*
X115506Y-208847D01*
X114841Y-209512D01*
X114177D01*
X115506Y-208847D02*
Y-207518D01*
X113512Y-202865D02*
X114177Y-204194D01*
X115506Y-205524D01*
X116835D01*
X117500Y-204859D01*
Y-203530D01*
X116835Y-202865D01*
X116171D01*
X115506Y-203530D01*
Y-205524D01*
X88585Y-107966D02*
X92573D01*
Y-105307D01*
Y-101984D02*
X88585D01*
X90579Y-103978D01*
Y-101319D01*
X92573Y-97331D02*
Y-99989D01*
X89914Y-97331D01*
X89249D01*
X88585Y-97996D01*
Y-99325D01*
X89249Y-99989D01*
X88181Y-80062D02*
X92169D01*
Y-77403D01*
Y-74080D02*
X88181D01*
X90175Y-76074D01*
Y-73415D01*
X88846Y-72086D02*
X88181Y-71421D01*
Y-70092D01*
X88846Y-69427D01*
X91505D01*
X92169Y-70092D01*
Y-71421D01*
X91505Y-72086D01*
X88846D01*
X77295Y-230937D02*
X81283D01*
Y-228279D01*
X77960Y-226949D02*
X77295Y-226285D01*
Y-224955D01*
X77960Y-224290D01*
X78625D01*
X79289Y-224955D01*
Y-225620D01*
Y-224955D01*
X79954Y-224290D01*
X80619D01*
X81283Y-224955D01*
Y-226285D01*
X80619Y-226949D01*
Y-222961D02*
X81283Y-222297D01*
Y-220967D01*
X80619Y-220302D01*
X77960D01*
X77295Y-220967D01*
Y-222297D01*
X77960Y-222961D01*
X78625D01*
X79289Y-222297D01*
Y-220302D01*
X52072Y-55199D02*
Y-51211D01*
X54066D01*
X54731Y-51875D01*
Y-53205D01*
X54066Y-53869D01*
X52072D01*
X53401D02*
X54731Y-55199D01*
X58719D02*
X56060D01*
X58719Y-52540D01*
Y-51875D01*
X58054Y-51211D01*
X56725D01*
X56060Y-51875D01*
X60048Y-54534D02*
X60713Y-55199D01*
X62042D01*
X62707Y-54534D01*
Y-51875D01*
X62042Y-51211D01*
X60713D01*
X60048Y-51875D01*
Y-52540D01*
X60713Y-53205D01*
X62707D01*
X51861Y-18255D02*
Y-14267D01*
X53856D01*
X54520Y-14932D01*
Y-16261D01*
X53856Y-16926D01*
X51861D01*
X53191D02*
X54520Y-18255D01*
X58508D02*
X55849D01*
X58508Y-15597D01*
Y-14932D01*
X57844Y-14267D01*
X56514D01*
X55849Y-14932D01*
X59838Y-14267D02*
X62496D01*
Y-14932D01*
X59838Y-17591D01*
Y-18255D01*
X677369Y-181002D02*
X676705Y-181667D01*
Y-182996D01*
X677369Y-183661D01*
X680028D01*
X680693Y-182996D01*
Y-181667D01*
X680028Y-181002D01*
Y-179673D02*
X680693Y-179008D01*
Y-177679D01*
X680028Y-177014D01*
X677369D01*
X676705Y-177679D01*
Y-179008D01*
X677369Y-179673D01*
X678034D01*
X678699Y-179008D01*
Y-177014D01*
X680693Y-173690D02*
X676705D01*
X678699Y-175684D01*
Y-173026D01*
X658465Y-172606D02*
X657801Y-171941D01*
X656471D01*
X655807Y-172606D01*
Y-175265D01*
X656471Y-175929D01*
X657801D01*
X658465Y-175265D01*
X659795Y-175929D02*
X661124D01*
X660460D01*
Y-171941D01*
X659795Y-172606D01*
X663118D02*
X663783Y-171941D01*
X665112D01*
X665777Y-172606D01*
Y-175265D01*
X665112Y-175929D01*
X663783D01*
X663118Y-175265D01*
Y-172606D01*
X669765Y-171941D02*
X667106D01*
Y-173935D01*
X668436Y-173271D01*
X669100D01*
X669765Y-173935D01*
Y-175265D01*
X669100Y-175929D01*
X667771D01*
X667106Y-175265D01*
X627293Y-179640D02*
X626628Y-180305D01*
Y-181634D01*
X627293Y-182299D01*
X629951D01*
X630616Y-181634D01*
Y-180305D01*
X629951Y-179640D01*
Y-178311D02*
X630616Y-177646D01*
Y-176317D01*
X629951Y-175652D01*
X627293D01*
X626628Y-176317D01*
Y-177646D01*
X627293Y-178311D01*
X627957D01*
X628622Y-177646D01*
Y-175652D01*
X630616Y-171664D02*
Y-174323D01*
X627957Y-171664D01*
X627293D01*
X626628Y-172328D01*
Y-173658D01*
X627293Y-174323D01*
X562159Y-269677D02*
X561494Y-269012D01*
X560165D01*
X559500Y-269677D01*
Y-272335D01*
X560165Y-273000D01*
X561494D01*
X562159Y-272335D01*
X563488Y-269677D02*
X564153Y-269012D01*
X565482D01*
X566147Y-269677D01*
Y-270341D01*
X565482Y-271006D01*
X566147Y-271671D01*
Y-272335D01*
X565482Y-273000D01*
X564153D01*
X563488Y-272335D01*
Y-271671D01*
X564153Y-271006D01*
X563488Y-270341D01*
Y-269677D01*
X564153Y-271006D02*
X565482D01*
X567476Y-269677D02*
X568141Y-269012D01*
X569470D01*
X570135Y-269677D01*
Y-272335D01*
X569470Y-273000D01*
X568141D01*
X567476Y-272335D01*
Y-269677D01*
X512500Y-45500D02*
X516488D01*
Y-47494D01*
X515823Y-48159D01*
X514494D01*
X513829Y-47494D01*
Y-45500D01*
Y-46829D02*
X512500Y-48159D01*
Y-51482D02*
X516488D01*
X514494Y-49488D01*
Y-52147D01*
X513165Y-53476D02*
X512500Y-54141D01*
Y-55470D01*
X513165Y-56135D01*
X515823D01*
X516488Y-55470D01*
Y-54141D01*
X515823Y-53476D01*
X515159D01*
X514494Y-54141D01*
Y-56135D01*
X518254Y-176858D02*
X522242D01*
Y-178852D01*
X521578Y-179517D01*
X520248D01*
X519583Y-178852D01*
Y-176858D01*
Y-178188D02*
X518254Y-179517D01*
Y-182840D02*
X522242D01*
X520248Y-180846D01*
Y-183505D01*
X518254Y-186828D02*
X522242D01*
X520248Y-184835D01*
Y-187493D01*
X489307Y-187275D02*
X485319D01*
Y-185281D01*
X485984Y-184616D01*
X487313D01*
X487978Y-185281D01*
Y-187275D01*
Y-185945D02*
X489307Y-184616D01*
Y-183287D02*
Y-181957D01*
Y-182622D01*
X485319D01*
X485984Y-183287D01*
Y-179963D02*
X485319Y-179299D01*
Y-177969D01*
X485984Y-177304D01*
X486648D01*
X487313Y-177969D01*
Y-178634D01*
Y-177969D01*
X487978Y-177304D01*
X488642D01*
X489307Y-177969D01*
Y-179299D01*
X488642Y-179963D01*
X487000Y-222000D02*
X483012D01*
Y-220006D01*
X483677Y-219341D01*
X485006D01*
X485671Y-220006D01*
Y-222000D01*
Y-220671D02*
X487000Y-219341D01*
Y-218012D02*
Y-216683D01*
Y-217347D01*
X483012D01*
X483677Y-218012D01*
X487000Y-212694D02*
X483012D01*
X485006Y-214688D01*
Y-212030D01*
X445920Y-53652D02*
X445256Y-52987D01*
X443926D01*
X443261Y-53652D01*
Y-56310D01*
X443926Y-56975D01*
X445256D01*
X445920Y-56310D01*
X447250Y-56975D02*
X448579D01*
X447914D01*
Y-52987D01*
X447250Y-53652D01*
X450573Y-56975D02*
X451902D01*
X451238D01*
Y-52987D01*
X450573Y-53652D01*
X453896Y-52987D02*
X456555D01*
Y-53652D01*
X453896Y-56310D01*
Y-56975D01*
X448745Y-191000D02*
X451500D01*
Y-189163D01*
X449204Y-188245D02*
X448745Y-187786D01*
Y-186867D01*
X449204Y-186408D01*
X449663D01*
X450122Y-186867D01*
Y-187327D01*
Y-186867D01*
X450582Y-186408D01*
X451041D01*
X451500Y-186867D01*
Y-187786D01*
X451041Y-188245D01*
X451500Y-183653D02*
Y-185490D01*
X449663Y-183653D01*
X449204D01*
X448745Y-184112D01*
Y-185031D01*
X449204Y-185490D01*
X448488Y-207335D02*
X447823Y-207999D01*
Y-209329D01*
X448488Y-209993D01*
X451147D01*
X451811Y-209329D01*
Y-207999D01*
X451147Y-207335D01*
X447823Y-206005D02*
Y-203346D01*
X448488D01*
X451147Y-206005D01*
X451811D01*
Y-199358D02*
Y-202017D01*
X449153Y-199358D01*
X448488D01*
X447823Y-200023D01*
Y-201352D01*
X448488Y-202017D01*
X447826Y-242248D02*
X447162Y-242913D01*
Y-244242D01*
X447826Y-244907D01*
X450485D01*
X451150Y-244242D01*
Y-242913D01*
X450485Y-242248D01*
X447162Y-240919D02*
Y-238260D01*
X447826D01*
X450485Y-240919D01*
X451150D01*
X447826Y-236931D02*
X447162Y-236266D01*
Y-234937D01*
X447826Y-234272D01*
X448491D01*
X449156Y-234937D01*
Y-235601D01*
Y-234937D01*
X449821Y-234272D01*
X450485D01*
X451150Y-234937D01*
Y-236266D01*
X450485Y-236931D01*
X417177Y-200121D02*
Y-204109D01*
X419836D01*
X423824D02*
X421165D01*
X423824Y-201450D01*
Y-200785D01*
X423159Y-200121D01*
X421830D01*
X421165Y-200785D01*
X427812Y-200121D02*
X425153D01*
Y-202115D01*
X426482Y-201450D01*
X427147D01*
X427812Y-202115D01*
Y-203444D01*
X427147Y-204109D01*
X425818D01*
X425153Y-203444D01*
X416649Y-235121D02*
Y-239109D01*
X419308D01*
X423296D02*
X420637D01*
X423296Y-236450D01*
Y-235786D01*
X422631Y-235121D01*
X421302D01*
X420637Y-235786D01*
X427284Y-235121D02*
X425955Y-235786D01*
X424625Y-237115D01*
Y-238444D01*
X425290Y-239109D01*
X426619D01*
X427284Y-238444D01*
Y-237780D01*
X426619Y-237115D01*
X424625D01*
X379245Y-171491D02*
Y-167503D01*
X381239D01*
X381904Y-168167D01*
Y-169497D01*
X381239Y-170161D01*
X379245D01*
X380574D02*
X381904Y-171491D01*
X385892D02*
X383233D01*
X385892Y-168832D01*
Y-168167D01*
X385227Y-167503D01*
X383898D01*
X383233Y-168167D01*
X389880Y-171491D02*
X387221D01*
X389880Y-168832D01*
Y-168167D01*
X389215Y-167503D01*
X387886D01*
X387221Y-168167D01*
X384159Y-208677D02*
X383494Y-208012D01*
X382165D01*
X381500Y-208677D01*
Y-211335D01*
X382165Y-212000D01*
X383494D01*
X384159Y-211335D01*
X387482Y-212000D02*
Y-208012D01*
X385488Y-210006D01*
X388147D01*
X389476Y-212000D02*
X390806D01*
X390141D01*
Y-208012D01*
X389476Y-208677D01*
X329117Y-171510D02*
Y-167522D01*
X331111D01*
X331776Y-168187D01*
Y-169516D01*
X331111Y-170181D01*
X329117D01*
X330446D02*
X331776Y-171510D01*
X335764D02*
X333105D01*
X335764Y-168851D01*
Y-168187D01*
X335099Y-167522D01*
X333770D01*
X333105Y-168187D01*
X337093D02*
X337758Y-167522D01*
X339087D01*
X339752Y-168187D01*
Y-168851D01*
X339087Y-169516D01*
X338422D01*
X339087D01*
X339752Y-170181D01*
Y-170845D01*
X339087Y-171510D01*
X337758D01*
X337093Y-170845D01*
X327000Y-237000D02*
X323012D01*
Y-235006D01*
X323677Y-234341D01*
X325006D01*
X325671Y-235006D01*
Y-237000D01*
Y-235671D02*
X327000Y-234341D01*
X323677Y-233012D02*
X323012Y-232347D01*
Y-231018D01*
X323677Y-230353D01*
X324341D01*
X325006Y-231018D01*
X325671Y-230353D01*
X326335D01*
X327000Y-231018D01*
Y-232347D01*
X326335Y-233012D01*
X325671D01*
X325006Y-232347D01*
X324341Y-233012D01*
X323677D01*
X325006Y-232347D02*
Y-231018D01*
X299667Y-208237D02*
X299003Y-208902D01*
Y-210231D01*
X299667Y-210896D01*
X302326D01*
X302991Y-210231D01*
Y-208902D01*
X302326Y-208237D01*
X299667Y-206908D02*
X299003Y-206243D01*
Y-204914D01*
X299667Y-204249D01*
X300332D01*
X300997Y-204914D01*
Y-205579D01*
Y-204914D01*
X301661Y-204249D01*
X302326D01*
X302991Y-204914D01*
Y-206243D01*
X302326Y-206908D01*
X302991Y-200261D02*
Y-202920D01*
X300332Y-200261D01*
X299667D01*
X299003Y-200926D01*
Y-202255D01*
X299667Y-202920D01*
Y-241987D02*
X299003Y-242652D01*
Y-243981D01*
X299667Y-244646D01*
X302326D01*
X302991Y-243981D01*
Y-242652D01*
X302326Y-241987D01*
X299667Y-240658D02*
X299003Y-239993D01*
Y-238664D01*
X299667Y-237999D01*
X300332D01*
X300997Y-238664D01*
Y-239329D01*
Y-238664D01*
X301661Y-237999D01*
X302326D01*
X302991Y-238664D01*
Y-239993D01*
X302326Y-240658D01*
X299667Y-236670D02*
X299003Y-236005D01*
Y-234676D01*
X299667Y-234011D01*
X300332D01*
X300997Y-234676D01*
Y-235340D01*
Y-234676D01*
X301661Y-234011D01*
X302326D01*
X302991Y-234676D01*
Y-236005D01*
X302326Y-236670D01*
X265657Y-202189D02*
Y-206177D01*
X268316D01*
X269645D02*
X270975D01*
X270310D01*
Y-202189D01*
X269645Y-202854D01*
X272969D02*
X273633Y-202189D01*
X274963D01*
X275627Y-202854D01*
Y-205512D01*
X274963Y-206177D01*
X273633D01*
X272969Y-205512D01*
Y-202854D01*
X265500Y-233512D02*
Y-237500D01*
X268159D01*
X269488D02*
X270817D01*
X270153D01*
Y-233512D01*
X269488Y-234177D01*
X272812Y-237500D02*
X274141D01*
X273476D01*
Y-233512D01*
X272812Y-234177D01*
X245244Y-27880D02*
X249232D01*
Y-25886D01*
X248567Y-25221D01*
X245908D01*
X245244Y-25886D01*
Y-27880D01*
X245908Y-23892D02*
X245244Y-23227D01*
Y-21898D01*
X245908Y-21233D01*
X246573D01*
X247238Y-21898D01*
Y-22562D01*
Y-21898D01*
X247902Y-21233D01*
X248567D01*
X249232Y-21898D01*
Y-23227D01*
X248567Y-23892D01*
X229841Y-171651D02*
Y-167663D01*
X231835D01*
X232499Y-168328D01*
Y-169657D01*
X231835Y-170322D01*
X229841D01*
X231170D02*
X232499Y-171651D01*
X236487D02*
X233829D01*
X236487Y-168993D01*
Y-168328D01*
X235823Y-167663D01*
X234493D01*
X233829Y-168328D01*
X240476Y-167663D02*
X237817D01*
Y-169657D01*
X239146Y-168993D01*
X239811D01*
X240476Y-169657D01*
Y-170987D01*
X239811Y-171651D01*
X238481D01*
X237817Y-170987D01*
X236159Y-209677D02*
X235494Y-209012D01*
X234165D01*
X233500Y-209677D01*
Y-212335D01*
X234165Y-213000D01*
X235494D01*
X236159Y-212335D01*
X237488Y-209677D02*
X238153Y-209012D01*
X239482D01*
X240147Y-209677D01*
Y-210341D01*
X239482Y-211006D01*
X240147Y-211671D01*
Y-212335D01*
X239482Y-213000D01*
X238153D01*
X237488Y-212335D01*
Y-211671D01*
X238153Y-211006D01*
X237488Y-210341D01*
Y-209677D01*
X238153Y-211006D02*
X239482D01*
X241260Y-233014D02*
X240595Y-232349D01*
X239266D01*
X238601Y-233014D01*
Y-235672D01*
X239266Y-236337D01*
X240595D01*
X241260Y-235672D01*
X242589Y-236337D02*
X243919D01*
X243254D01*
Y-232349D01*
X242589Y-233014D01*
X245913D02*
X246577Y-232349D01*
X247907D01*
X248571Y-233014D01*
Y-235672D01*
X247907Y-236337D01*
X246577D01*
X245913Y-235672D01*
Y-233014D01*
X201177Y-215341D02*
X200512Y-216006D01*
Y-217335D01*
X201177Y-218000D01*
X203835D01*
X204500Y-217335D01*
Y-216006D01*
X203835Y-215341D01*
X204500Y-214012D02*
Y-212683D01*
Y-213347D01*
X200512D01*
X201177Y-214012D01*
X204500Y-210688D02*
Y-209359D01*
Y-210024D01*
X200512D01*
X201177Y-210688D01*
X201641Y-241268D02*
X200976Y-241933D01*
Y-243263D01*
X201641Y-243927D01*
X204300D01*
X204964Y-243263D01*
Y-241933D01*
X204300Y-241268D01*
X204964Y-239939D02*
Y-238610D01*
Y-239274D01*
X200976D01*
X201641Y-239939D01*
X204964Y-233957D02*
Y-236616D01*
X202306Y-233957D01*
X201641D01*
X200976Y-234622D01*
Y-235951D01*
X201641Y-236616D01*
X173500Y-175512D02*
Y-179500D01*
X176159D01*
X177488D02*
X178817D01*
X178153D01*
Y-175512D01*
X177488Y-176177D01*
X174633Y-206843D02*
X178621D01*
Y-204184D01*
Y-200196D02*
Y-202855D01*
X175962Y-200196D01*
X175298D01*
X174633Y-200861D01*
Y-202190D01*
X175298Y-202855D01*
X172731Y-231670D02*
Y-235659D01*
X175390D01*
X176719Y-232335D02*
X177383Y-231670D01*
X178713D01*
X179378Y-232335D01*
Y-233000D01*
X178713Y-233664D01*
X178048D01*
X178713D01*
X179378Y-234329D01*
Y-234994D01*
X178713Y-235659D01*
X177383D01*
X176719Y-234994D01*
X155000Y-189500D02*
X152245D01*
Y-188122D01*
X152704Y-187663D01*
X153622D01*
X154082Y-188122D01*
Y-189500D01*
Y-188582D02*
X155000Y-187663D01*
Y-186745D02*
Y-185827D01*
Y-186286D01*
X152245D01*
X152704Y-186745D01*
X152245Y-182612D02*
Y-184449D01*
X153622D01*
X153163Y-183531D01*
Y-183072D01*
X153622Y-182612D01*
X154541D01*
X155000Y-183072D01*
Y-183990D01*
X154541Y-184449D01*
X147901Y-209912D02*
X147237Y-209247D01*
X145907D01*
X145243Y-209912D01*
Y-212571D01*
X145907Y-213235D01*
X147237D01*
X147901Y-212571D01*
X149231Y-209912D02*
X149895Y-209247D01*
X151225D01*
X151889Y-209912D01*
Y-210577D01*
X151225Y-211241D01*
X151889Y-211906D01*
Y-212571D01*
X151225Y-213235D01*
X149895D01*
X149231Y-212571D01*
Y-211906D01*
X149895Y-211241D01*
X149231Y-210577D01*
Y-209912D01*
X149895Y-211241D02*
X151225D01*
X153219Y-209912D02*
X153883Y-209247D01*
X155213D01*
X155877Y-209912D01*
Y-210577D01*
X155213Y-211241D01*
X154548D01*
X155213D01*
X155877Y-211906D01*
Y-212571D01*
X155213Y-213235D01*
X153883D01*
X153219Y-212571D01*
X115177Y-240341D02*
X114512Y-241006D01*
Y-242335D01*
X115177Y-243000D01*
X117835D01*
X118500Y-242335D01*
Y-241006D01*
X117835Y-240341D01*
X115177Y-239012D02*
X114512Y-238347D01*
Y-237018D01*
X115177Y-236353D01*
X115841D01*
X116506Y-237018D01*
X117171Y-236353D01*
X117835D01*
X118500Y-237018D01*
Y-238347D01*
X117835Y-239012D01*
X117171D01*
X116506Y-238347D01*
X115841Y-239012D01*
X115177D01*
X116506Y-238347D02*
Y-237018D01*
X114512Y-235024D02*
Y-232365D01*
X115177D01*
X117835Y-235024D01*
X118500D01*
X81637Y-93382D02*
X85625D01*
Y-90723D01*
Y-87399D02*
X81637D01*
X83631Y-89393D01*
Y-86735D01*
X85625Y-85405D02*
Y-84076D01*
Y-84741D01*
X81637D01*
X82302Y-85405D01*
X64735Y-39250D02*
X60747D01*
Y-37255D01*
X61412Y-36591D01*
X62741D01*
X63406Y-37255D01*
Y-39250D01*
Y-37920D02*
X64735Y-36591D01*
Y-32603D02*
Y-35261D01*
X62077Y-32603D01*
X61412D01*
X60747Y-33267D01*
Y-34597D01*
X61412Y-35261D01*
Y-31273D02*
X60747Y-30609D01*
Y-29279D01*
X61412Y-28615D01*
X62077D01*
X62741Y-29279D01*
X63406Y-28615D01*
X64071D01*
X64735Y-29279D01*
Y-30609D01*
X64071Y-31273D01*
X63406D01*
X62741Y-30609D01*
X62077Y-31273D01*
X61412D01*
X62741Y-30609D02*
Y-29279D01*
D12*
X368748Y-92098D02*
X368303Y-91175D01*
X367304Y-90947D01*
X366503Y-91586D01*
Y-92611D01*
X367304Y-93250D01*
X368303Y-93022D01*
X368748Y-92098D01*
X275721D02*
X275277Y-91175D01*
X274277Y-90947D01*
X273476Y-91586D01*
Y-92611D01*
X274277Y-93250D01*
X275277Y-93022D01*
X275721Y-92098D01*
X322197D02*
X321752Y-91175D01*
X320753Y-90947D01*
X319951Y-91586D01*
Y-92611D01*
X320753Y-93250D01*
X321752Y-93022D01*
X322197Y-92098D01*
D13*
X201563Y-31571D02*
X221248D01*
Y-55193D02*
Y-31571D01*
X201563Y-55193D02*
X221248D01*
X201563D02*
Y-31571D01*
X407941Y-177257D02*
X408729D01*
X407941Y-169776D02*
X408729D01*
X413060Y-177257D02*
X413847D01*
X413060Y-169776D02*
X413847D01*
X407941Y-177257D02*
Y-169776D01*
X413847Y-177257D02*
Y-169776D01*
X413060Y-177257D02*
Y-175682D01*
X413847D01*
X407941D02*
X408729D01*
Y-177257D02*
Y-175682D01*
X363630Y-96035D02*
X403000D01*
X363630Y-83437D02*
X403000D01*
X363630Y-96035D02*
Y-83437D01*
X403000Y-96035D02*
Y-83437D01*
X274234Y-53141D02*
X275487Y-51888D01*
X268388Y-58987D02*
X269641Y-57734D01*
X268388Y-58987D02*
X271590Y-62189D01*
X275487Y-51888D02*
X278689Y-55090D01*
X309973Y-96035D02*
Y-83437D01*
X270603Y-96035D02*
Y-83437D01*
X309973D01*
X270603Y-96035D02*
X309973D01*
X356448D02*
Y-83437D01*
X317078Y-96035D02*
Y-83437D01*
X356448D01*
X317078Y-96035D02*
X356448D01*
X465803Y-106520D02*
X470331D01*
X465803Y-96480D02*
X470331D01*
Y-98252D02*
Y-96480D01*
Y-106520D02*
Y-104748D01*
X125915Y-253760D02*
Y-252185D01*
Y-253760D02*
X126703D01*
X120797D02*
X121585D01*
Y-252185D01*
X120797Y-259665D02*
Y-252185D01*
X126703Y-259665D02*
Y-252185D01*
X120797Y-259665D02*
X121585D01*
X120797Y-252185D02*
X121585D01*
X125915Y-259665D02*
X126703D01*
X125915Y-252185D02*
X126703D01*
X121585Y-176567D02*
Y-174992D01*
X120797D02*
X121585D01*
X125915D02*
X126703D01*
X125915Y-176567D02*
Y-174992D01*
X126703Y-176567D02*
Y-169086D01*
X120797Y-176567D02*
Y-169086D01*
X125915D02*
X126703D01*
X125915Y-176567D02*
X126703D01*
X120797Y-169086D02*
X121585D01*
X120797Y-176567D02*
X121585D01*
X458067Y-253547D02*
Y-251972D01*
Y-253547D02*
X458854D01*
X452949D02*
X453736D01*
Y-251972D01*
X452949Y-259452D02*
Y-251972D01*
X458854Y-259452D02*
Y-251972D01*
X452949Y-259452D02*
X453736D01*
X452949Y-251972D02*
X453736D01*
X458067Y-259452D02*
X458854D01*
X458067Y-251972D02*
X458854D01*
X453335Y-176740D02*
Y-175165D01*
X452547D02*
X453335D01*
X457665D02*
X458453D01*
X457665Y-176740D02*
Y-175165D01*
X458453Y-176740D02*
Y-169260D01*
X452547Y-176740D02*
Y-169260D01*
X457665D02*
X458453D01*
X457665Y-176740D02*
X458453D01*
X452547Y-169260D02*
X453335D01*
X452547Y-176740D02*
X453335D01*
X413060Y-254450D02*
Y-252875D01*
Y-254450D02*
X413847D01*
X407941D02*
X408729D01*
Y-252875D01*
X407941Y-260355D02*
Y-252875D01*
X413847Y-260355D02*
Y-252875D01*
X407941Y-260355D02*
X408729D01*
X407941Y-252875D02*
X408729D01*
X413060Y-260355D02*
X413847D01*
X413060Y-252875D02*
X413847D01*
X359463Y-254430D02*
Y-252855D01*
Y-254430D02*
X360251D01*
X354345D02*
X355133D01*
Y-252855D01*
X354345Y-260335D02*
Y-252855D01*
X360251Y-260335D02*
Y-252855D01*
X354345Y-260335D02*
X355133D01*
X354345Y-252855D02*
X355133D01*
X359463Y-260335D02*
X360251D01*
X359463Y-252855D02*
X360251D01*
X355133Y-177237D02*
Y-175662D01*
X354345D02*
X355133D01*
X359463D02*
X360251D01*
X359463Y-177237D02*
Y-175662D01*
X360251Y-177237D02*
Y-169756D01*
X354345Y-177237D02*
Y-169756D01*
X359463D02*
X360251D01*
X359463Y-177237D02*
X360251D01*
X354345Y-169756D02*
X355133D01*
X354345Y-177237D02*
X355133D01*
X309335Y-254450D02*
Y-252875D01*
Y-254450D02*
X310123D01*
X304217D02*
X305005D01*
Y-252875D01*
X304217Y-260355D02*
Y-252875D01*
X310123Y-260355D02*
Y-252875D01*
X304217Y-260355D02*
X305005D01*
X304217Y-252875D02*
X305005D01*
X309335Y-260355D02*
X310123D01*
X309335Y-252875D02*
X310123D01*
X305005Y-177256D02*
Y-175681D01*
X304217D02*
X305005D01*
X309335D02*
X310123D01*
X309335Y-177256D02*
Y-175681D01*
X310123Y-177256D02*
Y-169776D01*
X304217Y-177256D02*
Y-169776D01*
X309335D02*
X310123D01*
X309335Y-177256D02*
X310123D01*
X304217Y-169776D02*
X305005D01*
X304217Y-177256D02*
X305005D01*
X261566Y-254221D02*
Y-252646D01*
Y-254221D02*
X262353D01*
X256448D02*
X257235D01*
Y-252646D01*
X256448Y-260127D02*
Y-252646D01*
X262353Y-260127D02*
Y-252646D01*
X256448Y-260127D02*
X257235D01*
X256448Y-252646D02*
X257235D01*
X261566Y-260127D02*
X262353D01*
X261566Y-252646D02*
X262353D01*
X257235Y-177028D02*
Y-175453D01*
X256448D02*
X257235D01*
X261566D02*
X262353D01*
X261566Y-177028D02*
Y-175453D01*
X262353Y-177028D02*
Y-169548D01*
X256448Y-177028D02*
Y-169548D01*
X261566D02*
X262353D01*
X261566Y-177028D02*
X262353D01*
X256448Y-169548D02*
X257235D01*
X256448Y-177028D02*
X257235D01*
X211309Y-254591D02*
Y-253016D01*
Y-254591D02*
X212097D01*
X206191D02*
X206978D01*
Y-253016D01*
X206191Y-260496D02*
Y-253016D01*
X212097Y-260496D02*
Y-253016D01*
X206191Y-260496D02*
X206978D01*
X206191Y-253016D02*
X206978D01*
X211309Y-260496D02*
X212097D01*
X211309Y-253016D02*
X212097D01*
X206978Y-177398D02*
Y-175823D01*
X206191D02*
X206978D01*
X211309D02*
X212097D01*
X211309Y-177398D02*
Y-175823D01*
X212097Y-177398D02*
Y-169917D01*
X206191Y-177398D02*
Y-169917D01*
X211309D02*
X212097D01*
X211309Y-177398D02*
X212097D01*
X206191Y-169917D02*
X206978D01*
X206191Y-177398D02*
X206978D01*
X171178Y-252999D02*
Y-251424D01*
Y-252999D02*
X171965D01*
X166059D02*
X166847D01*
Y-251424D01*
X166059Y-258905D02*
Y-251424D01*
X171965Y-258905D02*
Y-251424D01*
X166059Y-258905D02*
X166847D01*
X166059Y-251424D02*
X166847D01*
X171178Y-258905D02*
X171965D01*
X171178Y-251424D02*
X171965D01*
X166847Y-175806D02*
Y-174231D01*
X166059D02*
X166847D01*
X171178D02*
X171965D01*
X171178Y-175806D02*
Y-174231D01*
X171965Y-175806D02*
Y-168326D01*
X166059Y-175806D02*
Y-168326D01*
X171178D02*
X171965D01*
X171178Y-175806D02*
X171965D01*
X166059Y-168326D02*
X166847D01*
X166059Y-175806D02*
X166847D01*
X64751Y-98324D02*
Y-85726D01*
X25381Y-98324D02*
X64751D01*
X25381D02*
Y-85726D01*
X64751D01*
X64732Y-227765D02*
Y-215166D01*
X25362Y-227765D02*
X64732D01*
X25362D02*
Y-215166D01*
X64732D01*
X206472Y-94779D02*
X219071D01*
X206472D02*
Y-55409D01*
X219071D01*
Y-94779D02*
Y-55409D01*
X108562Y-42238D02*
Y-29640D01*
X69192Y-42238D02*
X108562D01*
X69192D02*
Y-29640D01*
X108562D01*
D14*
X483930Y-291238D02*
Y-299439D01*
Y-291238D02*
X486663D01*
X487835Y-291629D01*
X488616Y-292410D01*
X489006Y-293191D01*
X489397Y-294362D01*
Y-296315D01*
X489006Y-297486D01*
X488616Y-298267D01*
X487835Y-299048D01*
X486663Y-299439D01*
X483930D01*
X497480D02*
X494356Y-291238D01*
X491232Y-299439D01*
X492404Y-296705D02*
X496308D01*
X505251Y-293191D02*
X504860Y-292410D01*
X504079Y-291629D01*
X503298Y-291238D01*
X501736D01*
X500955Y-291629D01*
X500174Y-292410D01*
X499784Y-293191D01*
X499393Y-294362D01*
Y-296315D01*
X499784Y-297486D01*
X500174Y-298267D01*
X500955Y-299048D01*
X501736Y-299439D01*
X503298D01*
X504079Y-299048D01*
X504860Y-298267D01*
X505251Y-297486D01*
X417325Y-289863D02*
X416153Y-290254D01*
X415763Y-291035D01*
Y-291816D01*
X416153Y-292597D01*
X416934Y-292987D01*
X418496Y-293378D01*
X419668Y-293768D01*
X420449Y-294549D01*
X420839Y-295330D01*
Y-296501D01*
X420449Y-297283D01*
X420058Y-297673D01*
X418887Y-298063D01*
X417325D01*
X416153Y-297673D01*
X415763Y-297283D01*
X415372Y-296501D01*
Y-295330D01*
X415763Y-294549D01*
X416544Y-293768D01*
X417715Y-293378D01*
X419277Y-292987D01*
X420058Y-292597D01*
X420449Y-291816D01*
Y-291035D01*
X420058Y-290254D01*
X418887Y-289863D01*
X417325D01*
X425017D02*
X423846Y-290254D01*
X423065Y-291425D01*
X422674Y-293378D01*
Y-294549D01*
X423065Y-296501D01*
X423846Y-297673D01*
X425017Y-298063D01*
X425798D01*
X426970Y-297673D01*
X427751Y-296501D01*
X428141Y-294549D01*
Y-293378D01*
X427751Y-291425D01*
X426970Y-290254D01*
X425798Y-289863D01*
X425017D01*
X444586Y-292737D02*
X445367Y-292346D01*
X446538Y-291175D01*
Y-299375D01*
X455285Y-292346D02*
X454895Y-291565D01*
X453723Y-291175D01*
X452942D01*
X451771Y-291565D01*
X450990Y-292737D01*
X450599Y-294689D01*
Y-296641D01*
X450990Y-298203D01*
X451771Y-298984D01*
X452942Y-299375D01*
X453333D01*
X454504Y-298984D01*
X455285Y-298203D01*
X455676Y-297032D01*
Y-296641D01*
X455285Y-295470D01*
X454504Y-294689D01*
X453333Y-294299D01*
X452942D01*
X451771Y-294689D01*
X450990Y-295470D01*
X450599Y-296641D01*
X459815Y-291175D02*
X458643Y-291565D01*
X457863Y-292737D01*
X457472Y-294689D01*
Y-295861D01*
X457863Y-297813D01*
X458643Y-298984D01*
X459815Y-299375D01*
X460596D01*
X461767Y-298984D01*
X462548Y-297813D01*
X462939Y-295861D01*
Y-294689D01*
X462548Y-292737D01*
X461767Y-291565D01*
X460596Y-291175D01*
X459815D01*
X335556Y-21965D02*
X332432Y-13765D01*
X329308Y-21965D01*
X330480Y-19232D02*
X334384D01*
X337469Y-13765D02*
Y-21965D01*
Y-13765D02*
X342936Y-21965D01*
Y-13765D02*
Y-21965D01*
X347934Y-13765D02*
Y-21965D01*
X345201Y-13765D02*
X350668D01*
X23528Y-51217D02*
X15328Y-54341D01*
X23528Y-57465D01*
X20795Y-56294D02*
Y-52389D01*
X15328Y-46571D02*
X23528D01*
X15328Y-49304D02*
Y-43837D01*
Y-40128D02*
X23528D01*
X15328Y-42861D02*
Y-37394D01*
X13288Y-234488D02*
X21488D01*
X13288D02*
Y-230974D01*
X13679Y-229802D01*
X14069Y-229412D01*
X14850Y-229021D01*
X15631D01*
X16412Y-229412D01*
X16802Y-229802D01*
X17193Y-230974D01*
Y-234488D02*
Y-230974D01*
X17583Y-229802D01*
X17974Y-229412D01*
X18755Y-229021D01*
X19926D01*
X20707Y-229412D01*
X21098Y-229802D01*
X21488Y-230974D01*
Y-234488D01*
X17583Y-227186D02*
Y-223672D01*
X17193Y-222500D01*
X16802Y-222110D01*
X16021Y-221719D01*
X14850D01*
X14069Y-222110D01*
X13679Y-222500D01*
X13288Y-223672D01*
Y-227186D01*
X21488D01*
X13288Y-219884D02*
X21488D01*
X13288D02*
Y-214808D01*
X17193Y-219884D02*
Y-216760D01*
X28248Y-266500D02*
X25124Y-258300D01*
X22000Y-266500D01*
X23171Y-263767D02*
X27076D01*
X30161Y-258300D02*
Y-266500D01*
Y-258300D02*
X32895D01*
X34066Y-258690D01*
X34847Y-259471D01*
X35238Y-260252D01*
X35628Y-261424D01*
Y-263376D01*
X35238Y-264548D01*
X34847Y-265329D01*
X34066Y-266109D01*
X32895Y-266500D01*
X30161D01*
X43321Y-260252D02*
X42930Y-259471D01*
X42149Y-258690D01*
X41368Y-258300D01*
X39806D01*
X39025Y-258690D01*
X38244Y-259471D01*
X37854Y-260252D01*
X37463Y-261424D01*
Y-263376D01*
X37854Y-264548D01*
X38244Y-265329D01*
X39025Y-266109D01*
X39806Y-266500D01*
X41368D01*
X42149Y-266109D01*
X42930Y-265329D01*
X43321Y-264548D01*
X12701Y-104413D02*
X20902D01*
Y-99727D01*
X16997Y-98829D02*
Y-95315D01*
X16606Y-94143D01*
X16216Y-93753D01*
X15435Y-93362D01*
X14263D01*
X13482Y-93753D01*
X13092Y-94143D01*
X12701Y-95315D01*
Y-98829D01*
X20902D01*
X12701Y-91527D02*
X20902D01*
X12701D02*
Y-86451D01*
X16606Y-91527D02*
Y-88403D01*
X540629Y-222629D02*
X546486D01*
X547657Y-222239D01*
X548438Y-221458D01*
X548829Y-220286D01*
Y-219505D01*
X548438Y-218334D01*
X547657Y-217553D01*
X546486Y-217162D01*
X540629D01*
X548829Y-208650D02*
X540629Y-211774D01*
X548829Y-214898D01*
X546095Y-213726D02*
Y-209821D01*
X540629Y-205955D02*
Y-201660D01*
X543752Y-204003D01*
Y-202832D01*
X544143Y-202050D01*
X544533Y-201660D01*
X545705Y-201270D01*
X546486D01*
X547657Y-201660D01*
X548438Y-202441D01*
X548829Y-203612D01*
Y-204784D01*
X548438Y-205955D01*
X548048Y-206346D01*
X547267Y-206736D01*
X540629Y-199434D02*
X548829D01*
X540629D02*
Y-195920D01*
X541019Y-194748D01*
X541410Y-194358D01*
X542191Y-193967D01*
X542972D01*
X543752Y-194358D01*
X544143Y-194748D01*
X544533Y-195920D01*
Y-199434D01*
Y-196701D02*
X548829Y-193967D01*
X540629Y-187056D02*
Y-192132D01*
X548829D01*
Y-187056D01*
X544533Y-192132D02*
Y-189008D01*
X540629Y-183346D02*
X541019Y-184127D01*
X541800Y-184908D01*
X542581Y-185299D01*
X543752Y-185689D01*
X545705D01*
X546876Y-185299D01*
X547657Y-184908D01*
X548438Y-184127D01*
X548829Y-183346D01*
Y-181784D01*
X548438Y-181003D01*
X547657Y-180222D01*
X546876Y-179832D01*
X545705Y-179441D01*
X543752D01*
X542581Y-179832D01*
X541800Y-180222D01*
X541019Y-181003D01*
X540629Y-181784D01*
Y-183346D01*
X382114Y-289787D02*
X378209Y-295254D01*
X384066D01*
X382114Y-289787D02*
Y-297988D01*
X387854Y-289787D02*
X386683Y-290178D01*
X385901Y-291349D01*
X385511Y-293302D01*
Y-294473D01*
X385901Y-296426D01*
X386683Y-297597D01*
X387854Y-297988D01*
X388635D01*
X389806Y-297597D01*
X390587Y-296426D01*
X390978Y-294473D01*
Y-293302D01*
X390587Y-291349D01*
X389806Y-290178D01*
X388635Y-289787D01*
X387854D01*
X318799Y-290367D02*
X323095D01*
X320752Y-293491D01*
X321923D01*
X322704Y-293882D01*
X323095Y-294272D01*
X323485Y-295444D01*
Y-296224D01*
X323095Y-297396D01*
X322314Y-298177D01*
X321142Y-298567D01*
X319971D01*
X318799Y-298177D01*
X318409Y-297786D01*
X318018Y-297006D01*
X327663Y-290367D02*
X326492Y-290758D01*
X325711Y-291929D01*
X325321Y-293882D01*
Y-295053D01*
X325711Y-297006D01*
X326492Y-298177D01*
X327663Y-298567D01*
X328444D01*
X329616Y-298177D01*
X330397Y-297006D01*
X330787Y-295053D01*
Y-293882D01*
X330397Y-291929D01*
X329616Y-290758D01*
X328444Y-290367D01*
X327663D01*
X165829Y-19691D02*
Y-27891D01*
X170515D01*
X171413Y-19691D02*
Y-27891D01*
Y-19691D02*
X176880Y-27891D01*
Y-19691D02*
Y-27891D01*
X185393D02*
X182269Y-19691D01*
X179145Y-27891D01*
X180316Y-25158D02*
X184221D01*
X135836Y-291238D02*
Y-290848D01*
X136226Y-290067D01*
X136617Y-289677D01*
X137398Y-289286D01*
X138960D01*
X139741Y-289677D01*
X140131Y-290067D01*
X140522Y-290848D01*
Y-291629D01*
X140131Y-292410D01*
X139350Y-293581D01*
X135445Y-297486D01*
X140912D01*
X142747Y-292020D02*
Y-297486D01*
Y-293581D02*
X143919Y-292410D01*
X144700Y-292020D01*
X145871D01*
X146652Y-292410D01*
X147043Y-293581D01*
Y-297486D01*
Y-293581D02*
X148214Y-292410D01*
X148995Y-292020D01*
X150167D01*
X150948Y-292410D01*
X151338Y-293581D01*
Y-297486D01*
D15*
X558260Y-224963D02*
X563180D01*
X558260D02*
Y-222855D01*
X558495Y-222152D01*
X558729Y-221918D01*
X559198Y-221683D01*
X559666D01*
X560135Y-221918D01*
X560369Y-222152D01*
X560603Y-222855D01*
Y-224963D01*
Y-223323D02*
X563180Y-221683D01*
X558260Y-220582D02*
X563180D01*
X558260D02*
Y-217536D01*
X560603Y-220582D02*
Y-218708D01*
X561072Y-216974D02*
Y-212757D01*
X558260Y-211304D02*
X561775D01*
X562478Y-211070D01*
X562946Y-210601D01*
X563180Y-209898D01*
Y-209430D01*
X562946Y-208727D01*
X562478Y-208258D01*
X561775Y-208024D01*
X558260D01*
Y-206665D02*
X563180D01*
X558260D02*
X563180Y-203385D01*
X558260D02*
X563180D01*
X558260Y-202026D02*
X563180D01*
X558260Y-199355D02*
X563180D01*
X558260Y-200995D02*
Y-197715D01*
X559900Y-193263D02*
X563180D01*
X561306D02*
X560603Y-193029D01*
X560135Y-192560D01*
X559900Y-192092D01*
Y-191389D01*
X561306Y-190944D02*
Y-188132D01*
X560838D01*
X560369Y-188366D01*
X560135Y-188601D01*
X559900Y-189069D01*
Y-189772D01*
X560135Y-190241D01*
X560603Y-190709D01*
X561306Y-190944D01*
X561775D01*
X562478Y-190709D01*
X562946Y-190241D01*
X563180Y-189772D01*
Y-189069D01*
X562946Y-188601D01*
X562478Y-188132D01*
X559900Y-187078D02*
X563180Y-185672D01*
X559900Y-184266D02*
X563180Y-185672D01*
X559198Y-183470D02*
X558963Y-183001D01*
X558260Y-182298D01*
X563180D01*
X559198Y-179861D02*
X558963Y-179393D01*
X558260Y-178690D01*
X563180D01*
D16*
X275204Y-290888D02*
Y-290575D01*
X275516Y-289950D01*
X275829Y-289638D01*
X276454Y-289326D01*
X277703D01*
X278328Y-289638D01*
X278640Y-289950D01*
X278953Y-290575D01*
Y-291200D01*
X278640Y-291825D01*
X278016Y-292762D01*
X274892Y-295886D01*
X279265D01*
X282608Y-289326D02*
X281671Y-289638D01*
X281046Y-290575D01*
X280733Y-292137D01*
Y-293074D01*
X281046Y-294637D01*
X281671Y-295574D01*
X282608Y-295886D01*
X283233D01*
X284170Y-295574D01*
X284795Y-294637D01*
X285107Y-293074D01*
Y-292137D01*
X284795Y-290575D01*
X284170Y-289638D01*
X283233Y-289326D01*
X282608D01*
X287200Y-295574D02*
X286888Y-295886D01*
X286575Y-295574D01*
X286888Y-295261D01*
X287200Y-295574D01*
Y-296199D01*
X286888Y-296823D01*
X286575Y-297136D01*
X288637Y-290575D02*
X289262Y-290263D01*
X290199Y-289326D01*
Y-295886D01*
X297822Y-289326D02*
X294698Y-295886D01*
X293448Y-289326D02*
X297822D01*
X176289Y-290262D02*
Y-296822D01*
X180663Y-290262D02*
Y-296822D01*
X176289Y-293386D02*
X180663D01*
X182474Y-293698D02*
X185286D01*
X186223Y-293386D01*
X186536Y-293073D01*
X186848Y-292448D01*
Y-291511D01*
X186536Y-290886D01*
X186223Y-290574D01*
X185286Y-290262D01*
X182474D01*
Y-296822D01*
X188316Y-290262D02*
Y-296822D01*
Y-290262D02*
X192377D01*
X188316Y-293386D02*
X190815D01*
X206630Y-290498D02*
X207255Y-290185D01*
X208192Y-289248D01*
Y-295809D01*
X215189Y-289248D02*
X212066D01*
X211753Y-292060D01*
X212066Y-291747D01*
X213003Y-291435D01*
X213940D01*
X214877Y-291747D01*
X215502Y-292372D01*
X215814Y-293309D01*
Y-293934D01*
X215502Y-294871D01*
X214877Y-295496D01*
X213940Y-295809D01*
X213003D01*
X212066Y-295496D01*
X211753Y-295184D01*
X211441Y-294559D01*
X217907Y-295496D02*
X217595Y-295809D01*
X217283Y-295496D01*
X217595Y-295184D01*
X217907Y-295496D01*
Y-296121D01*
X217595Y-296746D01*
X217283Y-297058D01*
X219344Y-290498D02*
X219969Y-290185D01*
X220906Y-289248D01*
Y-295809D01*
X224468Y-290810D02*
Y-290498D01*
X224780Y-289873D01*
X225093Y-289561D01*
X225717Y-289248D01*
X226967D01*
X227592Y-289561D01*
X227904Y-289873D01*
X228216Y-290498D01*
Y-291123D01*
X227904Y-291747D01*
X227279Y-292685D01*
X224155Y-295809D01*
X228529D01*
X230622Y-295496D02*
X230310Y-295809D01*
X229997Y-295496D01*
X230310Y-295184D01*
X230622Y-295496D01*
Y-296121D01*
X230310Y-296746D01*
X229997Y-297058D01*
X232059Y-290498D02*
X232684Y-290185D01*
X233621Y-289248D01*
Y-295809D01*
X238744Y-289248D02*
X237807Y-289561D01*
X237182Y-290498D01*
X236870Y-292060D01*
Y-292997D01*
X237182Y-294559D01*
X237807Y-295496D01*
X238744Y-295809D01*
X239369D01*
X240306Y-295496D01*
X240931Y-294559D01*
X241243Y-292997D01*
Y-292060D01*
X240931Y-290498D01*
X240306Y-289561D01*
X239369Y-289248D01*
X238744D01*
M02*
