G04*
G04 #@! TF.GenerationSoftware,Altium Limited,Altium Designer,19.1.8 (144)*
G04*
G04 Layer_Color=32768*
%FSLAX25Y25*%
%MOIN*%
G70*
G01*
G75*
%ADD123C,0.00394*%
%ADD124C,0.00197*%
D123*
X195437Y-72469D02*
Y-68532D01*
X193468Y-70500D02*
X197406D01*
X204098Y-75421D02*
Y-65579D01*
X186776D02*
X204098D01*
X186776Y-75421D02*
X204098D01*
X186776D02*
Y-65579D01*
X195000Y-84469D02*
Y-80532D01*
X193032Y-82500D02*
X196968D01*
X199921Y-91161D02*
Y-73839D01*
X190079D02*
X199921D01*
X190079Y-91161D02*
X199921D01*
X190079D02*
Y-73839D01*
X383315Y-91705D02*
Y-87768D01*
X381347Y-89736D02*
X385283D01*
X181754Y-95698D02*
X191596D01*
X181754Y-78376D02*
X191596D01*
Y-95698D02*
Y-78376D01*
X181754Y-95698D02*
Y-78376D01*
X186675Y-89006D02*
Y-85069D01*
X184707Y-87037D02*
X188644D01*
X288320Y-89736D02*
X292257D01*
X290288Y-91705D02*
Y-87768D01*
X334795Y-89736D02*
X338732D01*
X336763Y-91705D02*
Y-87768D01*
X43098Y-92025D02*
X47035D01*
X45066Y-93993D02*
Y-90056D01*
X43079Y-221466D02*
X47016D01*
X45047Y-223434D02*
Y-219497D01*
X212771Y-77063D02*
Y-73126D01*
X210803Y-75094D02*
X214740D01*
X86908Y-35939D02*
X90845D01*
X88877Y-37907D02*
Y-33970D01*
D124*
X363236Y-102925D02*
X403394D01*
X363236Y-76547D02*
X403394D01*
X363236Y-102925D02*
Y-76547D01*
X403394Y-102925D02*
Y-76547D01*
X310367Y-102925D02*
Y-76547D01*
X270210Y-102925D02*
Y-76547D01*
X310367D01*
X270210Y-102925D02*
X310367D01*
X356842D02*
Y-76547D01*
X316685Y-102925D02*
Y-76547D01*
X356842D01*
X316685Y-102925D02*
X356842D01*
X65145Y-108167D02*
Y-75883D01*
X24987Y-108167D02*
X65145D01*
X24987D02*
Y-75883D01*
X65145D01*
X65126Y-237608D02*
Y-205324D01*
X24969Y-237608D02*
X65126D01*
X24969D02*
Y-205324D01*
X65126D01*
X196630Y-95173D02*
X228913D01*
X196630D02*
Y-55015D01*
X228913D01*
Y-95173D02*
Y-55015D01*
X108956Y-52081D02*
Y-19797D01*
X68798Y-52081D02*
X108956D01*
X68798D02*
Y-19797D01*
X108956D01*
M02*
