G04*
G04 #@! TF.GenerationSoftware,Altium Limited,Altium Designer,19.1.8 (144)*
G04*
G04 Layer_Color=8388736*
%FSLAX25Y25*%
%MOIN*%
G70*
G01*
G75*
%ADD17R,0.07887X0.07099*%
%ADD18R,0.04343X0.10642*%
G04:AMPARAMS|DCode=19|XSize=82.8mil|YSize=137.92mil|CornerRadius=0mil|HoleSize=0mil|Usage=FLASHONLY|Rotation=180.000|XOffset=0mil|YOffset=0mil|HoleType=Round|Shape=Octagon|*
%AMOCTAGOND19*
4,1,8,0.02070,-0.06896,-0.02070,-0.06896,-0.04140,-0.04826,-0.04140,0.04826,-0.02070,0.06896,0.02070,0.06896,0.04140,0.04826,0.04140,-0.04826,0.02070,-0.06896,0.0*
%
%ADD19OCTAGOND19*%

%ADD20R,0.03556X0.07887*%
%ADD21R,0.03556X0.06115*%
%ADD22R,0.07296X0.04737*%
%ADD23R,0.03792X0.07296*%
%ADD24R,0.05524X0.06509*%
%ADD25R,0.04737X0.07296*%
%ADD26R,0.07296X0.03792*%
%ADD27R,0.07099X0.13202*%
%ADD28R,0.02965X0.06509*%
%ADD29R,0.24422X0.08674*%
%ADD30R,0.18910X0.04737*%
%ADD31R,0.07099X0.07887*%
%ADD32R,0.11430X0.14973*%
%ADD33R,0.05918X0.06706*%
G04:AMPARAMS|DCode=34|XSize=29.65mil|YSize=57.21mil|CornerRadius=5.95mil|HoleSize=0mil|Usage=FLASHONLY|Rotation=180.000|XOffset=0mil|YOffset=0mil|HoleType=Round|Shape=RoundedRectangle|*
%AMROUNDEDRECTD34*
21,1,0.02965,0.04532,0,0,180.0*
21,1,0.01776,0.05721,0,0,180.0*
1,1,0.01190,-0.00888,0.02266*
1,1,0.01190,0.00888,0.02266*
1,1,0.01190,0.00888,-0.02266*
1,1,0.01190,-0.00888,-0.02266*
%
%ADD34ROUNDEDRECTD34*%
%ADD35R,0.03162X0.08674*%
%ADD36R,0.09265X0.04540*%
%ADD37R,0.09265X0.13595*%
G04:AMPARAMS|DCode=38|XSize=41.47mil|YSize=59.18mil|CornerRadius=0mil|HoleSize=0mil|Usage=FLASHONLY|Rotation=45.000|XOffset=0mil|YOffset=0mil|HoleType=Round|Shape=Rectangle|*
%AMROTATEDRECTD38*
4,1,4,0.00626,-0.03558,-0.03558,0.00626,-0.00626,0.03558,0.03558,-0.00626,0.00626,-0.03558,0.0*
%
%ADD38ROTATEDRECTD38*%

%ADD39R,0.05918X0.04147*%
%ADD40R,0.03556X0.08674*%
%ADD41R,0.08674X0.03556*%
%ADD42R,0.06706X0.05918*%
%ADD43R,0.06509X0.05524*%
%ADD44C,0.07493*%
%ADD45R,0.07493X0.07493*%
%ADD46C,0.06115*%
%ADD47R,0.09855X0.09855*%
%ADD48C,0.09855*%
%ADD49R,0.07493X0.07493*%
%ADD50R,0.06706X0.06706*%
%ADD51C,0.06706*%
%ADD52C,0.07099*%
%ADD53R,0.07099X0.07099*%
%ADD54C,0.10642*%
%ADD55C,0.11036*%
%ADD56C,0.16548*%
D17*
X123750Y-232987D02*
D03*
Y-244010D02*
D03*
Y-202766D02*
D03*
Y-213790D02*
D03*
X514140Y-164166D02*
D03*
Y-153143D02*
D03*
X70247Y-86565D02*
D03*
Y-97588D02*
D03*
X696324Y-262762D02*
D03*
Y-251738D02*
D03*
X462408Y-64273D02*
D03*
Y-53250D02*
D03*
X549957Y-18728D02*
D03*
Y-29752D02*
D03*
X609363Y-252489D02*
D03*
Y-263512D02*
D03*
X70937Y-226046D02*
D03*
Y-215023D02*
D03*
X693926Y-172554D02*
D03*
Y-183578D02*
D03*
X554095Y-53978D02*
D03*
Y-65002D02*
D03*
X611099Y-171442D02*
D03*
Y-182466D02*
D03*
X493907Y-53454D02*
D03*
Y-64478D02*
D03*
X115830Y-42675D02*
D03*
Y-31651D02*
D03*
X685463Y-172491D02*
D03*
Y-183514D02*
D03*
X620208Y-171684D02*
D03*
Y-182708D02*
D03*
X240252Y-20012D02*
D03*
Y-31036D02*
D03*
D18*
X260765Y-41787D02*
D03*
X280765D02*
D03*
X290253D02*
D03*
X300253D02*
D03*
Y-10291D02*
D03*
X290253D02*
D03*
X280765D02*
D03*
X260765D02*
D03*
D19*
X211405Y-46925D02*
D03*
D20*
X211405Y-36886D02*
D03*
D21*
X217311Y-36000D02*
D03*
X205500D02*
D03*
D22*
X104301Y-160929D02*
D03*
X113750D02*
D03*
X123199D02*
D03*
Y-134945D02*
D03*
X113750D02*
D03*
X104301D02*
D03*
X123199Y-269631D02*
D03*
X113750D02*
D03*
X104301D02*
D03*
Y-295615D02*
D03*
X113750D02*
D03*
X123199D02*
D03*
D23*
X113750Y-154197D02*
D03*
X108750D02*
D03*
Y-141677D02*
D03*
X118750D02*
D03*
Y-154197D02*
D03*
X113750Y-276363D02*
D03*
X118750D02*
D03*
Y-288883D02*
D03*
X108750D02*
D03*
Y-276363D02*
D03*
D24*
X470276Y-186662D02*
D03*
X463584D02*
D03*
X364719Y-190670D02*
D03*
X371411D02*
D03*
X316000Y-190689D02*
D03*
X322693D02*
D03*
X217451Y-190831D02*
D03*
X224144D02*
D03*
X131358Y-203750D02*
D03*
X138051D02*
D03*
X131432Y-191050D02*
D03*
X138125D02*
D03*
X463584Y-207287D02*
D03*
X470276D02*
D03*
X462959Y-242287D02*
D03*
X469652D02*
D03*
X366492Y-206760D02*
D03*
X373185D02*
D03*
X316364Y-211009D02*
D03*
X323057D02*
D03*
X365242Y-243330D02*
D03*
X371935D02*
D03*
X314591Y-241939D02*
D03*
X321284D02*
D03*
X217451Y-209581D02*
D03*
X224144D02*
D03*
X217451Y-242081D02*
D03*
X224144D02*
D03*
X132057Y-243750D02*
D03*
X138750D02*
D03*
X418576Y-187565D02*
D03*
X425269D02*
D03*
X268151Y-191264D02*
D03*
X274844D02*
D03*
X419201Y-208190D02*
D03*
X425894D02*
D03*
X418576Y-243190D02*
D03*
X425269D02*
D03*
X266821Y-210258D02*
D03*
X273514D02*
D03*
X266821Y-241711D02*
D03*
X273514D02*
D03*
X169194Y-184239D02*
D03*
X175887D02*
D03*
X169194Y-211739D02*
D03*
X175887D02*
D03*
X169194Y-239239D02*
D03*
X175887D02*
D03*
D25*
X548923Y-276830D02*
D03*
Y-267381D02*
D03*
Y-257932D02*
D03*
X522939D02*
D03*
Y-267381D02*
D03*
Y-276830D02*
D03*
D26*
X542191Y-267381D02*
D03*
Y-272381D02*
D03*
X529671D02*
D03*
Y-262381D02*
D03*
X542191D02*
D03*
D27*
X695752Y-44162D02*
D03*
Y-24870D02*
D03*
D28*
X410894Y-178142D02*
D03*
Y-168891D02*
D03*
X123750Y-260551D02*
D03*
Y-251299D02*
D03*
Y-168200D02*
D03*
Y-177452D02*
D03*
X455902Y-260338D02*
D03*
Y-251086D02*
D03*
X455500Y-168374D02*
D03*
Y-177626D02*
D03*
X410894Y-261241D02*
D03*
Y-251989D02*
D03*
X357298Y-261221D02*
D03*
Y-251969D02*
D03*
Y-168870D02*
D03*
Y-178122D02*
D03*
X307170Y-261241D02*
D03*
Y-251989D02*
D03*
Y-168890D02*
D03*
Y-178142D02*
D03*
X259401Y-261013D02*
D03*
Y-251761D02*
D03*
Y-168662D02*
D03*
Y-177914D02*
D03*
X209144Y-261382D02*
D03*
Y-252130D02*
D03*
Y-169032D02*
D03*
Y-178284D02*
D03*
X169012Y-259790D02*
D03*
Y-250539D02*
D03*
Y-167440D02*
D03*
Y-176692D02*
D03*
D29*
X637211Y-260798D02*
D03*
X669592Y-260641D02*
D03*
D30*
X637211Y-269657D02*
D03*
Y-251940D02*
D03*
X669592Y-251783D02*
D03*
Y-269500D02*
D03*
D31*
X635660Y-284980D02*
D03*
X646683D02*
D03*
X627189Y-237681D02*
D03*
X638213D02*
D03*
X594002Y-256235D02*
D03*
X582978D02*
D03*
X637551Y-180753D02*
D03*
X648574D02*
D03*
X667685Y-237187D02*
D03*
X678709D02*
D03*
X599184Y-20264D02*
D03*
X610207D02*
D03*
X207167Y-100815D02*
D03*
X218191D02*
D03*
X668074Y-180699D02*
D03*
X657050D02*
D03*
D32*
X612450Y-210613D02*
D03*
X645127D02*
D03*
X682616Y-92444D02*
D03*
X715293D02*
D03*
X693104Y-210594D02*
D03*
X660427D02*
D03*
D33*
X496740Y-75500D02*
D03*
X489260D02*
D03*
X147520Y-196250D02*
D03*
X155000D02*
D03*
X266971Y-225500D02*
D03*
X274452D02*
D03*
X513740Y-171500D02*
D03*
X506260D02*
D03*
X46712Y-38072D02*
D03*
X39232D02*
D03*
X46672Y-29978D02*
D03*
X39191D02*
D03*
X147520Y-173750D02*
D03*
X155000D02*
D03*
X268170Y-183587D02*
D03*
X275651D02*
D03*
X266971Y-218000D02*
D03*
X274452D02*
D03*
X266920Y-249211D02*
D03*
X274401D02*
D03*
X283171Y-174836D02*
D03*
X290651D02*
D03*
X182782Y-174864D02*
D03*
X190262D02*
D03*
X526469Y-68987D02*
D03*
X518989D02*
D03*
X524974Y-112890D02*
D03*
X517494D02*
D03*
X433414Y-172565D02*
D03*
X440894D02*
D03*
X463421Y-171662D02*
D03*
X470902D02*
D03*
X462796Y-257287D02*
D03*
X470276D02*
D03*
X462471Y-222500D02*
D03*
X469952D02*
D03*
X462796Y-249787D02*
D03*
X470276D02*
D03*
X477974Y-227975D02*
D03*
X485454D02*
D03*
X478421Y-192912D02*
D03*
X485902D02*
D03*
X418414Y-250690D02*
D03*
X425894D02*
D03*
X433414D02*
D03*
X440894D02*
D03*
X433414Y-258190D02*
D03*
X440894D02*
D03*
X433414Y-195065D02*
D03*
X440894D02*
D03*
X364818Y-257966D02*
D03*
X372298D02*
D03*
X366471Y-221000D02*
D03*
X373952D02*
D03*
X364818Y-250830D02*
D03*
X372298D02*
D03*
X314689Y-256939D02*
D03*
X322170D02*
D03*
X315920Y-218509D02*
D03*
X323400D02*
D03*
X330939Y-256939D02*
D03*
X338420D02*
D03*
X330939Y-198189D02*
D03*
X338420D02*
D03*
X283171Y-256711D02*
D03*
X290651D02*
D03*
X283171Y-198223D02*
D03*
X290651D02*
D03*
X216663Y-250831D02*
D03*
X224144D02*
D03*
X216971Y-218000D02*
D03*
X224452D02*
D03*
X182782Y-230489D02*
D03*
X190262D02*
D03*
X182782Y-197364D02*
D03*
X190262D02*
D03*
X112971Y-106500D02*
D03*
X120452D02*
D03*
X113471Y-78500D02*
D03*
X120952D02*
D03*
X113471Y-71500D02*
D03*
X120952D02*
D03*
X104029Y-169500D02*
D03*
X96548D02*
D03*
X103529Y-257500D02*
D03*
X96048D02*
D03*
X131895Y-251250D02*
D03*
X139375D02*
D03*
X683529Y-55000D02*
D03*
X676048D02*
D03*
X683529Y-64500D02*
D03*
X676048D02*
D03*
X438491Y-68901D02*
D03*
X431010D02*
D03*
X478421Y-171662D02*
D03*
X485902D02*
D03*
X463421Y-179162D02*
D03*
X470902D02*
D03*
X418414Y-180065D02*
D03*
X425894D02*
D03*
X462471Y-214500D02*
D03*
X469952D02*
D03*
X478421Y-200412D02*
D03*
X485902D02*
D03*
X418520Y-215500D02*
D03*
X426000D02*
D03*
X433414Y-202565D02*
D03*
X440894D02*
D03*
X477885Y-235830D02*
D03*
X485365D02*
D03*
X364818Y-175670D02*
D03*
X372298D02*
D03*
X364818Y-183170D02*
D03*
X372298D02*
D03*
X315939Y-175689D02*
D03*
X323420D02*
D03*
X315939Y-183189D02*
D03*
X323420D02*
D03*
X366471Y-214000D02*
D03*
X373952D02*
D03*
X330939Y-205689D02*
D03*
X338420D02*
D03*
X283171Y-205723D02*
D03*
X290651D02*
D03*
X314689Y-249439D02*
D03*
X322170D02*
D03*
X330939D02*
D03*
X338420D02*
D03*
X283171Y-249211D02*
D03*
X290651D02*
D03*
X216663Y-183331D02*
D03*
X224144D02*
D03*
X182782Y-206114D02*
D03*
X190262D02*
D03*
X182782Y-239239D02*
D03*
X190262D02*
D03*
X113471Y-92000D02*
D03*
X120952D02*
D03*
X113471Y-99000D02*
D03*
X120952D02*
D03*
X113471Y-85000D02*
D03*
X120952D02*
D03*
X104029Y-178500D02*
D03*
X96548D02*
D03*
X131270Y-183550D02*
D03*
X138750D02*
D03*
X103731Y-202500D02*
D03*
X96250D02*
D03*
X130471Y-211500D02*
D03*
X137952D02*
D03*
X103529Y-248500D02*
D03*
X96048D02*
D03*
X268170Y-174836D02*
D03*
X275651D02*
D03*
X568678Y-286021D02*
D03*
X561198D02*
D03*
X569679Y-250878D02*
D03*
X562199D02*
D03*
X561471Y-258500D02*
D03*
X568952D02*
D03*
X446048Y-69063D02*
D03*
X453528D02*
D03*
X418414Y-172565D02*
D03*
X425894D02*
D03*
X418414Y-258190D02*
D03*
X425894D02*
D03*
X417971Y-223000D02*
D03*
X425452D02*
D03*
X381068Y-250830D02*
D03*
X388548D02*
D03*
X381068Y-258330D02*
D03*
X388548D02*
D03*
X381068Y-196920D02*
D03*
X388548D02*
D03*
X266920Y-256711D02*
D03*
X274401D02*
D03*
X231663Y-250831D02*
D03*
X239144D02*
D03*
X231663Y-197081D02*
D03*
X239144D02*
D03*
X147520Y-258750D02*
D03*
X155000D02*
D03*
X147520Y-251250D02*
D03*
X155000D02*
D03*
X61865Y-45529D02*
D03*
X54385D02*
D03*
X54042Y-22920D02*
D03*
X61523D02*
D03*
X560971Y-277500D02*
D03*
X568452D02*
D03*
X453686Y-61154D02*
D03*
X446206D02*
D03*
X381068Y-175670D02*
D03*
X388548D02*
D03*
X381068Y-204420D02*
D03*
X388548D02*
D03*
X330940Y-175689D02*
D03*
X338420D02*
D03*
X231663Y-175831D02*
D03*
X239144D02*
D03*
X231663Y-204581D02*
D03*
X239144D02*
D03*
X231663Y-241717D02*
D03*
X239144D02*
D03*
X147520Y-203750D02*
D03*
X155000D02*
D03*
D34*
X365815Y-100071D02*
D03*
X370815D02*
D03*
X375815D02*
D03*
X380815D02*
D03*
X385815D02*
D03*
X390815D02*
D03*
X395815D02*
D03*
X400815D02*
D03*
X365815Y-79402D02*
D03*
X370815D02*
D03*
X375815D02*
D03*
X380815D02*
D03*
X385815D02*
D03*
X390815D02*
D03*
X395815D02*
D03*
X400815D02*
D03*
X307788D02*
D03*
X302788D02*
D03*
X297788D02*
D03*
X292788D02*
D03*
X287788D02*
D03*
X282788D02*
D03*
X277788D02*
D03*
X272788D02*
D03*
X307788Y-100071D02*
D03*
X302788D02*
D03*
X297788D02*
D03*
X292788D02*
D03*
X287788D02*
D03*
X282788D02*
D03*
X277788D02*
D03*
X272788D02*
D03*
X354263Y-79402D02*
D03*
X349263D02*
D03*
X344263D02*
D03*
X339263D02*
D03*
X334263D02*
D03*
X329263D02*
D03*
X324263D02*
D03*
X319263D02*
D03*
X354263Y-100071D02*
D03*
X349263D02*
D03*
X344263D02*
D03*
X339263D02*
D03*
X334263D02*
D03*
X329263D02*
D03*
X324263D02*
D03*
X319263D02*
D03*
D35*
X391103Y-115781D02*
D03*
X386103D02*
D03*
X381103D02*
D03*
X376103D02*
D03*
X371103D02*
D03*
X366103D02*
D03*
X361103D02*
D03*
X356103D02*
D03*
Y-137041D02*
D03*
X361103D02*
D03*
X366103D02*
D03*
X371103D02*
D03*
X376103D02*
D03*
X381103D02*
D03*
X386103D02*
D03*
X391103D02*
D03*
X218289Y-137994D02*
D03*
X213289D02*
D03*
X208289D02*
D03*
X203289D02*
D03*
X198289D02*
D03*
X193289D02*
D03*
X188289D02*
D03*
X183289D02*
D03*
Y-116734D02*
D03*
X188289D02*
D03*
X193289D02*
D03*
X198289D02*
D03*
X203289D02*
D03*
X208289D02*
D03*
X213289D02*
D03*
X218289D02*
D03*
D36*
X490645Y-83319D02*
D03*
Y-92374D02*
D03*
Y-101429D02*
D03*
D37*
X513480Y-92374D02*
D03*
D38*
X275418Y-64207D02*
D03*
X280707Y-58918D02*
D03*
X271938Y-55438D02*
D03*
D39*
X470331Y-101500D02*
D03*
X461669Y-105240D02*
D03*
X461669Y-97760D02*
D03*
D40*
X60027Y-103836D02*
D03*
X47428D02*
D03*
X38767D02*
D03*
X30106D02*
D03*
Y-80214D02*
D03*
X38767D02*
D03*
X47428D02*
D03*
X60027D02*
D03*
X60008Y-233277D02*
D03*
X47409D02*
D03*
X38748D02*
D03*
X30087D02*
D03*
Y-209655D02*
D03*
X38748D02*
D03*
X47409D02*
D03*
X60008D02*
D03*
X103837Y-47750D02*
D03*
X91239D02*
D03*
X82578D02*
D03*
X73916D02*
D03*
Y-24128D02*
D03*
X82578D02*
D03*
X91239D02*
D03*
X103837D02*
D03*
D41*
X200960Y-90055D02*
D03*
Y-77456D02*
D03*
Y-68795D02*
D03*
Y-60133D02*
D03*
X224582D02*
D03*
Y-68795D02*
D03*
Y-77456D02*
D03*
Y-90055D02*
D03*
D42*
X105000Y-70471D02*
D03*
Y-77952D02*
D03*
X433394Y-233170D02*
D03*
Y-225690D02*
D03*
X410894Y-200709D02*
D03*
Y-208190D02*
D03*
X381048Y-235650D02*
D03*
Y-228170D02*
D03*
X283606Y-191590D02*
D03*
Y-184110D02*
D03*
X357298Y-236053D02*
D03*
Y-243533D02*
D03*
X198000Y-40471D02*
D03*
Y-47952D02*
D03*
X226000Y-48529D02*
D03*
Y-41048D02*
D03*
X169012Y-220509D02*
D03*
Y-227989D02*
D03*
Y-194259D02*
D03*
Y-201739D02*
D03*
X104990Y-98760D02*
D03*
Y-106240D02*
D03*
X103750Y-193730D02*
D03*
Y-186250D02*
D03*
X695925Y-270467D02*
D03*
Y-277947D02*
D03*
X609435Y-271147D02*
D03*
Y-278628D02*
D03*
X433849Y-187545D02*
D03*
Y-180065D02*
D03*
X403394Y-200709D02*
D03*
Y-208190D02*
D03*
Y-235710D02*
D03*
Y-243190D02*
D03*
X410894Y-235710D02*
D03*
Y-243190D02*
D03*
X348548Y-205689D02*
D03*
Y-213170D02*
D03*
X357298Y-205689D02*
D03*
Y-213170D02*
D03*
X283151Y-236692D02*
D03*
Y-229211D02*
D03*
X349798Y-236053D02*
D03*
Y-243533D02*
D03*
X182762Y-189845D02*
D03*
Y-182364D02*
D03*
X259401Y-199231D02*
D03*
Y-206711D02*
D03*
Y-234231D02*
D03*
Y-241711D02*
D03*
X105000Y-85260D02*
D03*
Y-92740D02*
D03*
X103750Y-241230D02*
D03*
Y-233750D02*
D03*
X504458Y-53952D02*
D03*
Y-61432D02*
D03*
X381048Y-190650D02*
D03*
Y-183170D02*
D03*
X331375Y-190670D02*
D03*
Y-183189D02*
D03*
X232144Y-190811D02*
D03*
Y-183331D02*
D03*
X577558Y-270930D02*
D03*
Y-278410D02*
D03*
X577570Y-256407D02*
D03*
Y-263887D02*
D03*
X481331Y-75617D02*
D03*
Y-83097D02*
D03*
X477969Y-100408D02*
D03*
Y-92928D02*
D03*
X453776Y-112329D02*
D03*
Y-104849D02*
D03*
X231644Y-233311D02*
D03*
Y-225831D02*
D03*
X182762Y-222867D02*
D03*
Y-215387D02*
D03*
X147500Y-232480D02*
D03*
Y-225000D02*
D03*
X512116Y-68941D02*
D03*
Y-61461D02*
D03*
X514075Y-186352D02*
D03*
Y-178871D02*
D03*
X478952Y-186642D02*
D03*
Y-179162D02*
D03*
X478047Y-220040D02*
D03*
Y-212560D02*
D03*
X455991Y-199806D02*
D03*
Y-207287D02*
D03*
X455902Y-234806D02*
D03*
Y-242287D02*
D03*
X330920Y-238170D02*
D03*
Y-230689D02*
D03*
X307170Y-200709D02*
D03*
Y-208189D02*
D03*
Y-234459D02*
D03*
Y-241939D02*
D03*
X209144Y-200850D02*
D03*
Y-208331D02*
D03*
Y-234600D02*
D03*
Y-242081D02*
D03*
X147500Y-188730D02*
D03*
Y-181250D02*
D03*
X53798Y-37916D02*
D03*
Y-30436D02*
D03*
D43*
X410894Y-224942D02*
D03*
Y-218249D02*
D03*
Y-191192D02*
D03*
Y-184499D02*
D03*
X259401Y-224654D02*
D03*
Y-217961D02*
D03*
Y-190904D02*
D03*
Y-184211D02*
D03*
X455902Y-224039D02*
D03*
Y-217346D02*
D03*
X357298Y-228613D02*
D03*
Y-221920D02*
D03*
Y-197363D02*
D03*
Y-190670D02*
D03*
X307170Y-224882D02*
D03*
Y-218189D02*
D03*
Y-191496D02*
D03*
Y-184803D02*
D03*
X209144Y-226274D02*
D03*
Y-219581D02*
D03*
Y-191274D02*
D03*
Y-184581D02*
D03*
X96653Y-105847D02*
D03*
Y-99154D02*
D03*
X96250Y-77943D02*
D03*
Y-71250D02*
D03*
X455902Y-190289D02*
D03*
Y-183596D02*
D03*
X96250Y-91693D02*
D03*
Y-85000D02*
D03*
D44*
X38500Y-251000D02*
D03*
X487571Y-140296D02*
D03*
X47126Y-295394D02*
D03*
X423196Y-29358D02*
D03*
X413196Y-39358D02*
D03*
Y-29358D02*
D03*
X403196Y-39358D02*
D03*
Y-29358D02*
D03*
X393196Y-39358D02*
D03*
Y-29358D02*
D03*
D45*
X28500Y-251000D02*
D03*
X37126Y-295394D02*
D03*
X423196Y-39358D02*
D03*
D46*
X86250Y-212866D02*
D03*
Y-238457D02*
D03*
X640346Y-293307D02*
D03*
X665936D02*
D03*
D47*
X723025Y-60011D02*
D03*
D48*
Y-45011D02*
D03*
D49*
X487571Y-130296D02*
D03*
D50*
X537089Y-128325D02*
D03*
D51*
X527247Y-138167D02*
D03*
X517404Y-128325D02*
D03*
X438843Y-41940D02*
D03*
X505772Y-28161D02*
D03*
X493961Y-41940D02*
D03*
X438843Y-14381D02*
D03*
X493961D02*
D03*
X438843Y-22255D02*
D03*
Y-34066D02*
D03*
X582209Y-131111D02*
D03*
Y-75993D02*
D03*
X660950Y-131111D02*
D03*
Y-75993D02*
D03*
D52*
X523573Y-18774D02*
D03*
X577378Y-53800D02*
D03*
D53*
X523573Y-53774D02*
D03*
X577378Y-18800D02*
D03*
D54*
X342857Y-37634D02*
D03*
D55*
X352857Y-47634D02*
D03*
X332857D02*
D03*
Y-27634D02*
D03*
X352857D02*
D03*
D56*
X724409Y-15748D02*
D03*
Y-287402D02*
D03*
X11811Y-15748D02*
D03*
Y-287402D02*
D03*
X421260Y-90551D02*
D03*
M02*
