G04*
G04 #@! TF.GenerationSoftware,Altium Limited,Altium Designer,19.1.8 (144)*
G04*
G04 Layer_Color=255*
%FSLAX25Y25*%
%MOIN*%
G70*
G01*
G75*
%ADD57R,0.07087X0.06299*%
%ADD71R,0.06299X0.07087*%
%ADD73R,0.05118X0.05906*%
%ADD76R,0.08465X0.03740*%
%ADD77R,0.08465X0.12795*%
%ADD82R,0.05906X0.05118*%
%ADD97C,0.06693*%
%ADD98R,0.06693X0.06693*%
%ADD99C,0.05315*%
%ADD100R,0.09055X0.09055*%
%ADD101C,0.09055*%
%ADD102R,0.06693X0.06693*%
%ADD103R,0.05906X0.05906*%
%ADD104C,0.05906*%
%ADD105C,0.06299*%
%ADD106R,0.06299X0.06299*%
%ADD107C,0.09843*%
%ADD108C,0.10236*%
%ADD111R,0.05512X0.05906*%
%ADD112R,0.05906X0.05512*%
%ADD113R,0.06299X0.04724*%
%ADD114R,0.10236X0.08661*%
%ADD115R,0.07874X0.02362*%
D57*
X205161Y-51542D02*
D03*
Y-62566D02*
D03*
D71*
X459012Y-42000D02*
D03*
X447988D02*
D03*
X473988Y-41500D02*
D03*
X485012D02*
D03*
D73*
X153624Y-99948D02*
D03*
X161104D02*
D03*
X599979Y-271108D02*
D03*
X592499D02*
D03*
X588626Y-259999D02*
D03*
X581145D02*
D03*
D76*
X161598Y-72361D02*
D03*
Y-81416D02*
D03*
Y-90471D02*
D03*
D77*
X138763Y-81416D02*
D03*
D82*
X322000Y-85240D02*
D03*
Y-77760D02*
D03*
X176240Y-82409D02*
D03*
Y-89889D02*
D03*
D97*
X38500Y-251000D02*
D03*
X487571Y-140296D02*
D03*
X47126Y-295394D02*
D03*
X423196Y-29358D02*
D03*
X413196Y-39358D02*
D03*
Y-29358D02*
D03*
X403196Y-39358D02*
D03*
Y-29358D02*
D03*
X393196Y-39358D02*
D03*
Y-29358D02*
D03*
D98*
X28500Y-251000D02*
D03*
X37126Y-295394D02*
D03*
X423196Y-39358D02*
D03*
D99*
X86250Y-212866D02*
D03*
Y-238457D02*
D03*
X640346Y-293307D02*
D03*
X665936D02*
D03*
D100*
X723025Y-60011D02*
D03*
D101*
Y-45011D02*
D03*
D102*
X487571Y-130296D02*
D03*
D103*
X537089Y-128325D02*
D03*
D104*
X527247Y-138167D02*
D03*
X517404Y-128325D02*
D03*
X438843Y-41940D02*
D03*
X505772Y-28161D02*
D03*
X493961Y-41940D02*
D03*
X438843Y-14381D02*
D03*
X493961D02*
D03*
X438843Y-22255D02*
D03*
Y-34066D02*
D03*
X582209Y-131111D02*
D03*
Y-75993D02*
D03*
X660950Y-131111D02*
D03*
Y-75993D02*
D03*
D105*
X523573Y-18774D02*
D03*
X577378Y-53800D02*
D03*
D106*
X523573Y-53774D02*
D03*
X577378Y-18800D02*
D03*
D107*
X342857Y-37634D02*
D03*
D108*
X352857Y-47634D02*
D03*
X332857D02*
D03*
Y-27634D02*
D03*
X352857D02*
D03*
D111*
X199374Y-70500D02*
D03*
X191500D02*
D03*
D112*
X195000Y-78563D02*
D03*
Y-86437D02*
D03*
X186675Y-90974D02*
D03*
Y-83100D02*
D03*
D113*
X205344Y-44573D02*
D03*
Y-32762D02*
D03*
D114*
X161558Y-112747D02*
D03*
X141873D02*
D03*
D115*
X241085Y-87910D02*
D03*
Y-92909D02*
D03*
Y-97909D02*
D03*
Y-102909D02*
D03*
Y-107909D02*
D03*
Y-112909D02*
D03*
Y-117909D02*
D03*
Y-122909D02*
D03*
X262345D02*
D03*
Y-117909D02*
D03*
Y-112909D02*
D03*
Y-107909D02*
D03*
Y-102909D02*
D03*
Y-97909D02*
D03*
Y-92909D02*
D03*
Y-87910D02*
D03*
M02*
