G04*
G04 #@! TF.GenerationSoftware,Altium Limited,Altium Designer,19.1.8 (144)*
G04*
G04 Layer_Color=16711935*
%FSLAX25Y25*%
%MOIN*%
G70*
G01*
G75*
%ADD11C,0.01000*%
%ADD121C,0.00309*%
%ADD122C,0.00591*%
D11*
X19563Y-245015D02*
X47437D01*
X493555Y-149233D02*
Y-121359D01*
X28189Y-289409D02*
X56063D01*
D121*
X24909Y-242918D02*
Y-244558D01*
Y-242918D02*
X25612D01*
X25846Y-242996D01*
X25924Y-243074D01*
X26002Y-243230D01*
Y-243386D01*
X25924Y-243542D01*
X25846Y-243620D01*
X25612Y-243699D01*
X24909D02*
X25612D01*
X25846Y-243777D01*
X25924Y-243855D01*
X26002Y-244011D01*
Y-244245D01*
X25924Y-244402D01*
X25846Y-244480D01*
X25612Y-244558D01*
X24909D01*
X26838Y-242918D02*
X26682Y-242996D01*
X26526Y-243152D01*
X26448Y-243308D01*
X26370Y-243542D01*
Y-243933D01*
X26448Y-244167D01*
X26526Y-244323D01*
X26682Y-244480D01*
X26838Y-244558D01*
X27150D01*
X27307Y-244480D01*
X27463Y-244323D01*
X27541Y-244167D01*
X27619Y-243933D01*
Y-243542D01*
X27541Y-243308D01*
X27463Y-243152D01*
X27307Y-242996D01*
X27150Y-242918D01*
X26838D01*
X29251Y-244558D02*
X28627Y-242918D01*
X28002Y-244558D01*
X28236Y-244011D02*
X29017D01*
X29634Y-242918D02*
Y-244558D01*
Y-242918D02*
X30337D01*
X30571Y-242996D01*
X30650Y-243074D01*
X30728Y-243230D01*
Y-243386D01*
X30650Y-243542D01*
X30571Y-243620D01*
X30337Y-243699D01*
X29634D01*
X30181D02*
X30728Y-244558D01*
X31095Y-242918D02*
Y-244558D01*
Y-242918D02*
X31641D01*
X31876Y-242996D01*
X32032Y-243152D01*
X32110Y-243308D01*
X32188Y-243542D01*
Y-243933D01*
X32110Y-244167D01*
X32032Y-244323D01*
X31876Y-244480D01*
X31641Y-244558D01*
X31095D01*
X34859Y-242918D02*
X33844D01*
Y-244558D01*
X34859D01*
X33844Y-243699D02*
X34469D01*
X35133Y-242918D02*
Y-244558D01*
Y-242918D02*
X35679D01*
X35914Y-242996D01*
X36070Y-243152D01*
X36148Y-243308D01*
X36226Y-243542D01*
Y-243933D01*
X36148Y-244167D01*
X36070Y-244323D01*
X35914Y-244480D01*
X35679Y-244558D01*
X35133D01*
X37765Y-243308D02*
X37686Y-243152D01*
X37530Y-242996D01*
X37374Y-242918D01*
X37062D01*
X36906Y-242996D01*
X36749Y-243152D01*
X36671Y-243308D01*
X36593Y-243542D01*
Y-243933D01*
X36671Y-244167D01*
X36749Y-244323D01*
X36906Y-244480D01*
X37062Y-244558D01*
X37374D01*
X37530Y-244480D01*
X37686Y-244323D01*
X37765Y-244167D01*
Y-243933D01*
X37374D02*
X37765D01*
X39155Y-242918D02*
X38140D01*
Y-244558D01*
X39155D01*
X38140Y-243699D02*
X38764D01*
X495653Y-126705D02*
X494013D01*
X495653D02*
Y-127408D01*
X495575Y-127642D01*
X495497Y-127720D01*
X495341Y-127798D01*
X495185D01*
X495028Y-127720D01*
X494950Y-127642D01*
X494872Y-127408D01*
Y-126705D02*
Y-127408D01*
X494794Y-127642D01*
X494716Y-127720D01*
X494560Y-127798D01*
X494325D01*
X494169Y-127720D01*
X494091Y-127642D01*
X494013Y-127408D01*
Y-126705D01*
X495653Y-128634D02*
X495575Y-128478D01*
X495419Y-128322D01*
X495263Y-128244D01*
X495028Y-128165D01*
X494638D01*
X494404Y-128244D01*
X494247Y-128322D01*
X494091Y-128478D01*
X494013Y-128634D01*
Y-128946D01*
X494091Y-129103D01*
X494247Y-129259D01*
X494404Y-129337D01*
X494638Y-129415D01*
X495028D01*
X495263Y-129337D01*
X495419Y-129259D01*
X495575Y-129103D01*
X495653Y-128946D01*
Y-128634D01*
X494013Y-131047D02*
X495653Y-130423D01*
X494013Y-129798D01*
X494560Y-130032D02*
Y-130813D01*
X495653Y-131430D02*
X494013D01*
X495653D02*
Y-132133D01*
X495575Y-132367D01*
X495497Y-132446D01*
X495341Y-132524D01*
X495185D01*
X495028Y-132446D01*
X494950Y-132367D01*
X494872Y-132133D01*
Y-131430D01*
Y-131977D02*
X494013Y-132524D01*
X495653Y-132891D02*
X494013D01*
X495653D02*
Y-133437D01*
X495575Y-133672D01*
X495419Y-133828D01*
X495263Y-133906D01*
X495028Y-133984D01*
X494638D01*
X494404Y-133906D01*
X494247Y-133828D01*
X494091Y-133672D01*
X494013Y-133437D01*
Y-132891D01*
X495653Y-136655D02*
Y-135640D01*
X494013D01*
Y-136655D01*
X494872Y-135640D02*
Y-136265D01*
X495653Y-136929D02*
X494013D01*
X495653D02*
Y-137475D01*
X495575Y-137710D01*
X495419Y-137866D01*
X495263Y-137944D01*
X495028Y-138022D01*
X494638D01*
X494404Y-137944D01*
X494247Y-137866D01*
X494091Y-137710D01*
X494013Y-137475D01*
Y-136929D01*
X495263Y-139561D02*
X495419Y-139482D01*
X495575Y-139326D01*
X495653Y-139170D01*
Y-138858D01*
X495575Y-138701D01*
X495419Y-138545D01*
X495263Y-138467D01*
X495028Y-138389D01*
X494638D01*
X494404Y-138467D01*
X494247Y-138545D01*
X494091Y-138701D01*
X494013Y-138858D01*
Y-139170D01*
X494091Y-139326D01*
X494247Y-139482D01*
X494404Y-139561D01*
X494638D01*
Y-139170D02*
Y-139561D01*
X495653Y-140951D02*
Y-139936D01*
X494013D01*
Y-140951D01*
X494872Y-139936D02*
Y-140560D01*
X33535Y-287311D02*
Y-288951D01*
Y-287311D02*
X34238D01*
X34472Y-287389D01*
X34550Y-287468D01*
X34628Y-287624D01*
Y-287780D01*
X34550Y-287936D01*
X34472Y-288014D01*
X34238Y-288092D01*
X33535D02*
X34238D01*
X34472Y-288170D01*
X34550Y-288248D01*
X34628Y-288405D01*
Y-288639D01*
X34550Y-288795D01*
X34472Y-288873D01*
X34238Y-288951D01*
X33535D01*
X35464Y-287311D02*
X35308Y-287389D01*
X35152Y-287546D01*
X35074Y-287702D01*
X34995Y-287936D01*
Y-288327D01*
X35074Y-288561D01*
X35152Y-288717D01*
X35308Y-288873D01*
X35464Y-288951D01*
X35776D01*
X35933Y-288873D01*
X36089Y-288717D01*
X36167Y-288561D01*
X36245Y-288327D01*
Y-287936D01*
X36167Y-287702D01*
X36089Y-287546D01*
X35933Y-287389D01*
X35776Y-287311D01*
X35464D01*
X37877Y-288951D02*
X37253Y-287311D01*
X36628Y-288951D01*
X36862Y-288405D02*
X37643D01*
X38260Y-287311D02*
Y-288951D01*
Y-287311D02*
X38963D01*
X39197Y-287389D01*
X39276Y-287468D01*
X39354Y-287624D01*
Y-287780D01*
X39276Y-287936D01*
X39197Y-288014D01*
X38963Y-288092D01*
X38260D01*
X38807D02*
X39354Y-288951D01*
X39721Y-287311D02*
Y-288951D01*
Y-287311D02*
X40267D01*
X40502Y-287389D01*
X40658Y-287546D01*
X40736Y-287702D01*
X40814Y-287936D01*
Y-288327D01*
X40736Y-288561D01*
X40658Y-288717D01*
X40502Y-288873D01*
X40267Y-288951D01*
X39721D01*
X43485Y-287311D02*
X42470D01*
Y-288951D01*
X43485D01*
X42470Y-288092D02*
X43095D01*
X43758Y-287311D02*
Y-288951D01*
Y-287311D02*
X44305D01*
X44539Y-287389D01*
X44696Y-287546D01*
X44774Y-287702D01*
X44852Y-287936D01*
Y-288327D01*
X44774Y-288561D01*
X44696Y-288717D01*
X44539Y-288873D01*
X44305Y-288951D01*
X43758D01*
X46391Y-287702D02*
X46312Y-287546D01*
X46156Y-287389D01*
X46000Y-287311D01*
X45688D01*
X45531Y-287389D01*
X45375Y-287546D01*
X45297Y-287702D01*
X45219Y-287936D01*
Y-288327D01*
X45297Y-288561D01*
X45375Y-288717D01*
X45531Y-288873D01*
X45688Y-288951D01*
X46000D01*
X46156Y-288873D01*
X46312Y-288717D01*
X46391Y-288561D01*
Y-288327D01*
X46000D02*
X46391D01*
X47781Y-287311D02*
X46766D01*
Y-288951D01*
X47781D01*
X46766Y-288092D02*
X47390D01*
D122*
X381422Y-95764D02*
X384046D01*
X384571Y-95239D01*
Y-94190D01*
X384046Y-93665D01*
X381422D01*
X381947Y-92615D02*
X381422Y-92090D01*
Y-91041D01*
X381947Y-90516D01*
X382472D01*
X382997Y-91041D01*
Y-91566D01*
Y-91041D01*
X383521Y-90516D01*
X384046D01*
X384571Y-91041D01*
Y-92090D01*
X384046Y-92615D01*
X288396Y-95764D02*
X291019D01*
X291544Y-95239D01*
Y-94190D01*
X291019Y-93665D01*
X288396D01*
Y-92615D02*
Y-90516D01*
X288920D01*
X291019Y-92615D01*
X291544D01*
X334871Y-95764D02*
X337494D01*
X338019Y-95239D01*
Y-94190D01*
X337494Y-93665D01*
X334871D01*
X338019Y-92615D02*
Y-91566D01*
Y-92090D01*
X334871D01*
X335396Y-92615D01*
M02*
