G04*
G04 #@! TF.GenerationSoftware,Altium Limited,Altium Designer,19.1.8 (144)*
G04*
G04 Layer_Color=8388736*
%FSLAX25Y25*%
%MOIN*%
G70*
G01*
G75*
%ADD15R,0.05918X0.06706*%
%ADD16R,0.06706X0.05918*%
%ADD17C,0.07493*%
%ADD18R,0.07493X0.07493*%
%ADD19C,0.09461*%
%ADD20R,0.09461X0.09461*%
%ADD21R,0.07493X0.07493*%
%ADD22C,0.09855*%
%ADD23R,0.09855X0.09855*%
%ADD24R,0.10642X0.14580*%
%ADD25R,0.10642X0.10642*%
%ADD26C,0.08674*%
%ADD27C,0.12611*%
%ADD28O,0.18517X0.08674*%
%ADD29O,0.08674X0.18517*%
%ADD30O,0.08674X0.20485*%
%ADD31C,0.06706*%
%ADD32R,0.07099X0.07099*%
%ADD33C,0.07099*%
%ADD34C,0.13398*%
%ADD35C,0.16548*%
%ADD36C,0.87414*%
D15*
X171579Y-159638D02*
D03*
X164099D02*
D03*
X178240Y-169000D02*
D03*
X170760D02*
D03*
X147169Y-159638D02*
D03*
X154650D02*
D03*
X141264Y-168693D02*
D03*
X148744D02*
D03*
X126760Y-83500D02*
D03*
X134240D02*
D03*
X12992Y-175591D02*
D03*
X20472D02*
D03*
D16*
X362598Y-272441D02*
D03*
Y-264961D02*
D03*
X309842Y-272441D02*
D03*
Y-264961D02*
D03*
X188583Y-279331D02*
D03*
Y-271850D02*
D03*
X153937Y-195275D02*
D03*
Y-187795D02*
D03*
X57874Y-195275D02*
D03*
Y-187795D02*
D03*
X93701Y-279331D02*
D03*
Y-271850D02*
D03*
X468110Y-272441D02*
D03*
Y-264961D02*
D03*
X415354Y-272441D02*
D03*
Y-264961D02*
D03*
X257874Y-272441D02*
D03*
Y-264961D02*
D03*
X205118Y-272441D02*
D03*
Y-264961D02*
D03*
X141339Y-279331D02*
D03*
Y-271850D02*
D03*
X107087Y-195275D02*
D03*
Y-187795D02*
D03*
X47244Y-279331D02*
D03*
Y-271850D02*
D03*
D17*
X550500Y-203992D02*
D03*
X560500D02*
D03*
Y-193992D02*
D03*
X550500D02*
D03*
X560500Y-183992D02*
D03*
X550500D02*
D03*
X560500Y-173992D02*
D03*
X550500D02*
D03*
X560500Y-163992D02*
D03*
X550500D02*
D03*
X560500Y-153992D02*
D03*
X550500D02*
D03*
X560500Y-143992D02*
D03*
X550500D02*
D03*
X560500Y-133992D02*
D03*
X550500D02*
D03*
X560500Y-123992D02*
D03*
X550500D02*
D03*
X560500Y-113992D02*
D03*
X550500D02*
D03*
X560500Y-103992D02*
D03*
X550500D02*
D03*
X560500Y-93992D02*
D03*
X550500D02*
D03*
X560500Y-83992D02*
D03*
X550500D02*
D03*
X560500Y-73992D02*
D03*
X550500D02*
D03*
X560500Y-63992D02*
D03*
X550500D02*
D03*
X560500Y-53992D02*
D03*
X550500D02*
D03*
X560500Y-43992D02*
D03*
X550500D02*
D03*
X560500Y-33992D02*
D03*
X315500Y-221992D02*
D03*
X305500D02*
D03*
X365071Y-125197D02*
D03*
X375071Y-135197D02*
D03*
X365071D02*
D03*
X375071Y-145197D02*
D03*
X365071D02*
D03*
X375071Y-155197D02*
D03*
X365071D02*
D03*
X564488Y-235039D02*
D03*
X574488D02*
D03*
X584488D02*
D03*
D18*
X550500Y-33992D02*
D03*
X594488Y-235039D02*
D03*
D19*
X59295Y-16642D02*
D03*
X59296Y-34358D02*
D03*
X33704D02*
D03*
X162992Y-205709D02*
D03*
X188583D02*
D03*
X188583Y-187992D02*
D03*
X28665Y-90740D02*
D03*
X48350D02*
D03*
X38508D02*
D03*
X162992Y-256890D02*
D03*
X162992Y-239173D02*
D03*
X188583D02*
D03*
X21260Y-256890D02*
D03*
X21260Y-239173D02*
D03*
X46851D02*
D03*
X46850Y-187992D02*
D03*
X46851Y-205709D02*
D03*
X21260D02*
D03*
X295079Y-262795D02*
D03*
X295079Y-280512D02*
D03*
X269488D02*
D03*
X88508Y-90740D02*
D03*
X108193D02*
D03*
X98350D02*
D03*
X115748Y-256890D02*
D03*
X115748Y-239173D02*
D03*
X141339D02*
D03*
X68504Y-256890D02*
D03*
X68503Y-239173D02*
D03*
X94095D02*
D03*
X504921Y-262795D02*
D03*
X504922Y-280512D02*
D03*
X479330D02*
D03*
X452559Y-262795D02*
D03*
X452560Y-280512D02*
D03*
X426968D02*
D03*
X400197Y-262795D02*
D03*
X400197Y-280512D02*
D03*
X374606D02*
D03*
X347441Y-262795D02*
D03*
X347441Y-280512D02*
D03*
X321850D02*
D03*
X242717Y-262795D02*
D03*
X242717Y-280512D02*
D03*
X217126D02*
D03*
X141339Y-187992D02*
D03*
X141339Y-205709D02*
D03*
X115748D02*
D03*
X94095Y-187992D02*
D03*
X94095Y-205709D02*
D03*
X68503D02*
D03*
D20*
X33705Y-16642D02*
D03*
X162992Y-187992D02*
D03*
X188583Y-256890D02*
D03*
X46850D02*
D03*
X21260Y-187992D02*
D03*
X269488Y-262795D02*
D03*
X141339Y-256890D02*
D03*
X94095D02*
D03*
X479331Y-262795D02*
D03*
X426968D02*
D03*
X374606D02*
D03*
X321850D02*
D03*
X217126D02*
D03*
X115748Y-187992D02*
D03*
X68504D02*
D03*
D21*
X375071Y-125197D02*
D03*
D22*
X400020Y-18110D02*
D03*
X356339D02*
D03*
X91500Y-19500D02*
D03*
X156000D02*
D03*
D23*
X385020Y-18110D02*
D03*
X341338D02*
D03*
X76500Y-19500D02*
D03*
X171000D02*
D03*
D24*
X22760Y-118299D02*
D03*
X54256D02*
D03*
X82602D02*
D03*
X114099D02*
D03*
D25*
X135516Y-117905D02*
D03*
X183547D02*
D03*
D26*
X149138Y-90405D02*
D03*
X169138D02*
D03*
X149138Y-147906D02*
D03*
X159138D02*
D03*
X169138D02*
D03*
D27*
X16965Y-66000D02*
D03*
D28*
X45311Y-47102D02*
D03*
D29*
X33500Y-66000D02*
D03*
D30*
X57122D02*
D03*
D31*
X132803Y-34421D02*
D03*
Y-14736D02*
D03*
X122960Y-44264D02*
D03*
Y-24579D02*
D03*
X113118Y-34421D02*
D03*
Y-14736D02*
D03*
D32*
X245500Y-48359D02*
D03*
D33*
Y-23359D02*
D03*
D34*
X218500Y-19992D02*
D03*
Y-218492D02*
D03*
X559000D02*
D03*
Y-19992D02*
D03*
D35*
X11811Y-287402D02*
D03*
Y-15748D02*
D03*
X724409Y-287402D02*
D03*
Y-15748D02*
D03*
X590158Y-151575D02*
D03*
X700394D02*
D03*
D36*
X645275D02*
D03*
M02*
