G04*
G04 #@! TF.GenerationSoftware,Altium Limited,Altium Designer,19.1.8 (144)*
G04*
G04 Layer_Color=16711935*
%FSLAX25Y25*%
%MOIN*%
G70*
G01*
G75*
%ADD15R,0.05918X0.06706*%
%ADD16R,0.06706X0.05918*%
%ADD17C,0.07493*%
%ADD18R,0.07493X0.07493*%
%ADD19C,0.09461*%
%ADD20R,0.09461X0.09461*%
%ADD21R,0.07493X0.07493*%
%ADD22C,0.09855*%
%ADD23R,0.09855X0.09855*%
%ADD24R,0.10642X0.14580*%
%ADD25R,0.10642X0.10642*%
%ADD26C,0.08674*%
%ADD27C,0.12611*%
%ADD28O,0.18517X0.08674*%
%ADD29O,0.08674X0.18517*%
%ADD30O,0.08674X0.20485*%
%ADD31C,0.06706*%
%ADD32R,0.07099X0.07099*%
%ADD33C,0.07099*%
%ADD34C,0.13398*%
%ADD35C,0.16548*%
%ADD36C,0.87414*%
%ADD79R,0.25210X0.23635*%
%ADD80R,0.12611X0.07099*%
%ADD81R,0.03162X0.03556*%
%ADD82R,0.06115X0.05328*%
%ADD83R,0.06509X0.05524*%
%ADD84R,0.06312X0.04737*%
%ADD85R,0.05524X0.06509*%
%ADD86R,0.03162X0.08674*%
%ADD87R,0.08674X0.06509*%
%ADD88R,0.06706X0.03950*%
%ADD89R,0.17493X0.05800*%
%ADD90R,0.08674X0.03162*%
%ADD91R,0.07887X0.07099*%
%ADD92R,0.09461X0.08674*%
D15*
X659449Y-234646D02*
D03*
X666929D02*
D03*
X633071Y-250787D02*
D03*
X640551D02*
D03*
X633464Y-242520D02*
D03*
X640945D02*
D03*
D16*
X641338Y-235827D02*
D03*
Y-228346D02*
D03*
X667323Y-227953D02*
D03*
Y-220473D02*
D03*
X666142Y-261811D02*
D03*
Y-269291D02*
D03*
X640551Y-257480D02*
D03*
Y-264961D02*
D03*
D17*
X550500Y-203992D02*
D03*
X560500D02*
D03*
Y-193992D02*
D03*
X550500D02*
D03*
X560500Y-183992D02*
D03*
X550500D02*
D03*
X560500Y-173992D02*
D03*
X550500D02*
D03*
X560500Y-163992D02*
D03*
X550500D02*
D03*
X560500Y-153992D02*
D03*
X550500D02*
D03*
X560500Y-143992D02*
D03*
X550500D02*
D03*
X560500Y-133992D02*
D03*
X550500D02*
D03*
X560500Y-123992D02*
D03*
X550500D02*
D03*
X560500Y-113992D02*
D03*
X550500D02*
D03*
X560500Y-103992D02*
D03*
X550500D02*
D03*
X560500Y-93992D02*
D03*
X550500D02*
D03*
X560500Y-83992D02*
D03*
X550500D02*
D03*
X560500Y-73992D02*
D03*
X550500D02*
D03*
X560500Y-63992D02*
D03*
X550500D02*
D03*
X560500Y-53992D02*
D03*
X550500D02*
D03*
X560500Y-43992D02*
D03*
X550500D02*
D03*
X560500Y-33992D02*
D03*
X315500Y-221992D02*
D03*
X305500D02*
D03*
X365071Y-125197D02*
D03*
X375071Y-135197D02*
D03*
X365071D02*
D03*
X375071Y-145197D02*
D03*
X365071D02*
D03*
X375071Y-155197D02*
D03*
X365071D02*
D03*
X564488Y-235039D02*
D03*
X574488D02*
D03*
X584488D02*
D03*
D18*
X550500Y-33992D02*
D03*
X594488Y-235039D02*
D03*
D19*
X59295Y-16642D02*
D03*
X59296Y-34358D02*
D03*
X33704D02*
D03*
X162992Y-205709D02*
D03*
X188583D02*
D03*
X188583Y-187992D02*
D03*
X28665Y-90740D02*
D03*
X48350D02*
D03*
X38508D02*
D03*
X162992Y-256890D02*
D03*
X162992Y-239173D02*
D03*
X188583D02*
D03*
X21260Y-256890D02*
D03*
X21260Y-239173D02*
D03*
X46851D02*
D03*
X46850Y-187992D02*
D03*
X46851Y-205709D02*
D03*
X21260D02*
D03*
X295079Y-262795D02*
D03*
X295079Y-280512D02*
D03*
X269488D02*
D03*
X88508Y-90740D02*
D03*
X108193D02*
D03*
X98350D02*
D03*
X115748Y-256890D02*
D03*
X115748Y-239173D02*
D03*
X141339D02*
D03*
X68504Y-256890D02*
D03*
X68503Y-239173D02*
D03*
X94095D02*
D03*
X504921Y-262795D02*
D03*
X504922Y-280512D02*
D03*
X479330D02*
D03*
X452559Y-262795D02*
D03*
X452560Y-280512D02*
D03*
X426968D02*
D03*
X400197Y-262795D02*
D03*
X400197Y-280512D02*
D03*
X374606D02*
D03*
X347441Y-262795D02*
D03*
X347441Y-280512D02*
D03*
X321850D02*
D03*
X242717Y-262795D02*
D03*
X242717Y-280512D02*
D03*
X217126D02*
D03*
X141339Y-187992D02*
D03*
X141339Y-205709D02*
D03*
X115748D02*
D03*
X94095Y-187992D02*
D03*
X94095Y-205709D02*
D03*
X68503D02*
D03*
D20*
X33705Y-16642D02*
D03*
X162992Y-187992D02*
D03*
X188583Y-256890D02*
D03*
X46850D02*
D03*
X21260Y-187992D02*
D03*
X269488Y-262795D02*
D03*
X141339Y-256890D02*
D03*
X94095D02*
D03*
X479331Y-262795D02*
D03*
X426968D02*
D03*
X374606D02*
D03*
X321850D02*
D03*
X217126D02*
D03*
X115748Y-187992D02*
D03*
X68504D02*
D03*
D21*
X375071Y-125197D02*
D03*
D22*
X400020Y-18110D02*
D03*
X356339D02*
D03*
X91500Y-19500D02*
D03*
X156000D02*
D03*
D23*
X385020Y-18110D02*
D03*
X341338D02*
D03*
X76500Y-19500D02*
D03*
X171000D02*
D03*
D24*
X22760Y-118299D02*
D03*
X54256D02*
D03*
X82602D02*
D03*
X114099D02*
D03*
D25*
X135516Y-117905D02*
D03*
X183547D02*
D03*
D26*
X149138Y-90405D02*
D03*
X169138D02*
D03*
X149138Y-147906D02*
D03*
X159138D02*
D03*
X169138D02*
D03*
D27*
X16965Y-66000D02*
D03*
D28*
X45311Y-47102D02*
D03*
D29*
X33500Y-66000D02*
D03*
D30*
X57122D02*
D03*
D31*
X132803Y-34421D02*
D03*
Y-14736D02*
D03*
X122960Y-44264D02*
D03*
Y-24579D02*
D03*
X113118Y-34421D02*
D03*
Y-14736D02*
D03*
D32*
X245500Y-48359D02*
D03*
D33*
Y-23359D02*
D03*
D34*
X218500Y-19992D02*
D03*
Y-218492D02*
D03*
X559000D02*
D03*
Y-19992D02*
D03*
D35*
X11811Y-287402D02*
D03*
Y-15748D02*
D03*
X724409Y-287402D02*
D03*
Y-15748D02*
D03*
X590158Y-151575D02*
D03*
X700394D02*
D03*
D36*
X645275D02*
D03*
D79*
X184000Y-43500D02*
D03*
D80*
X155654Y-34484D02*
D03*
Y-52516D02*
D03*
D81*
X184756Y-83000D02*
D03*
X179244D02*
D03*
X138744Y-66000D02*
D03*
X144256D02*
D03*
D82*
X193000Y-76791D02*
D03*
Y-82500D02*
D03*
D83*
X171000Y-69653D02*
D03*
Y-76346D02*
D03*
D84*
X161331Y-76240D02*
D03*
X152669Y-72500D02*
D03*
X161331Y-68760D02*
D03*
D85*
X128347Y-56500D02*
D03*
X121653D02*
D03*
X137307D02*
D03*
X144000D02*
D03*
D86*
X415138Y-204941D02*
D03*
X410138D02*
D03*
X405138D02*
D03*
X400138D02*
D03*
X395138D02*
D03*
X390138D02*
D03*
X385138D02*
D03*
X380138D02*
D03*
Y-226201D02*
D03*
X385138D02*
D03*
X390138D02*
D03*
X395138D02*
D03*
X400138D02*
D03*
X405138D02*
D03*
X410138D02*
D03*
X415138D02*
D03*
D87*
X690551Y-271142D02*
D03*
X723228D02*
D03*
Y-217008D02*
D03*
X690551D02*
D03*
D88*
X712992Y-256693D02*
D03*
Y-252362D02*
D03*
Y-248031D02*
D03*
Y-243701D02*
D03*
Y-239370D02*
D03*
Y-235039D02*
D03*
Y-230709D02*
D03*
Y-226378D02*
D03*
D89*
X472303Y-35945D02*
D03*
Y-45945D02*
D03*
Y-55945D02*
D03*
Y-65945D02*
D03*
Y-75945D02*
D03*
Y-85945D02*
D03*
Y-95945D02*
D03*
Y-105945D02*
D03*
Y-115945D02*
D03*
Y-125945D02*
D03*
Y-135945D02*
D03*
Y-145945D02*
D03*
Y-155945D02*
D03*
Y-165945D02*
D03*
Y-175945D02*
D03*
Y-185945D02*
D03*
Y-195945D02*
D03*
Y-205945D02*
D03*
Y-215945D02*
D03*
Y-225945D02*
D03*
Y-235945D02*
D03*
Y-245945D02*
D03*
X492028D02*
D03*
Y-235945D02*
D03*
Y-225945D02*
D03*
Y-215945D02*
D03*
Y-205945D02*
D03*
Y-195945D02*
D03*
Y-185945D02*
D03*
Y-175945D02*
D03*
Y-165945D02*
D03*
Y-155945D02*
D03*
Y-145945D02*
D03*
Y-135945D02*
D03*
Y-125945D02*
D03*
Y-115945D02*
D03*
Y-105945D02*
D03*
Y-95945D02*
D03*
Y-85945D02*
D03*
Y-75945D02*
D03*
Y-65945D02*
D03*
Y-55945D02*
D03*
Y-45945D02*
D03*
Y-35945D02*
D03*
D90*
X242913Y-198500D02*
D03*
Y-193500D02*
D03*
Y-188500D02*
D03*
Y-183500D02*
D03*
Y-178500D02*
D03*
Y-173500D02*
D03*
Y-168500D02*
D03*
Y-163500D02*
D03*
X221654D02*
D03*
Y-168500D02*
D03*
Y-173500D02*
D03*
Y-178500D02*
D03*
Y-183500D02*
D03*
Y-188500D02*
D03*
Y-193500D02*
D03*
Y-198500D02*
D03*
D91*
X305906Y-36614D02*
D03*
Y-47638D02*
D03*
X296457Y-36614D02*
D03*
Y-47638D02*
D03*
X277953Y-36614D02*
D03*
Y-47638D02*
D03*
X268898Y-36614D02*
D03*
Y-47638D02*
D03*
X287402Y-36614D02*
D03*
Y-47638D02*
D03*
D92*
X652362Y-262992D02*
D03*
Y-274803D02*
D03*
M02*
