G04*
G04 #@! TF.GenerationSoftware,Altium Limited,Altium Designer,19.1.8 (144)*
G04*
G04 Layer_Color=16711935*
%FSLAX25Y25*%
%MOIN*%
G70*
G01*
G75*
%ADD129C,0.00394*%
D129*
X369142Y-94067D02*
X368878Y-93083D01*
X368158Y-92362D01*
X367173Y-92098D01*
X366189Y-92362D01*
X365469Y-93083D01*
X365205Y-94067D01*
X365469Y-95051D01*
X366189Y-95772D01*
X367173Y-96035D01*
X368158Y-95772D01*
X368878Y-95051D01*
X369142Y-94067D01*
X276115D02*
X275851Y-93083D01*
X275131Y-92362D01*
X274147Y-92098D01*
X273162Y-92362D01*
X272442Y-93083D01*
X272178Y-94067D01*
X272442Y-95051D01*
X273162Y-95772D01*
X274147Y-96035D01*
X275131Y-95772D01*
X275851Y-95051D01*
X276115Y-94067D01*
X322590D02*
X322326Y-93083D01*
X321606Y-92362D01*
X320622Y-92098D01*
X319637Y-92362D01*
X318917Y-93083D01*
X318653Y-94067D01*
X318917Y-95051D01*
X319637Y-95772D01*
X320622Y-96035D01*
X321606Y-95772D01*
X322326Y-95051D01*
X322590Y-94067D01*
X199669Y-73256D02*
Y-67744D01*
X191205D02*
X199669D01*
X191205Y-73256D02*
Y-67744D01*
Y-73256D02*
X199669D01*
X197756Y-86732D02*
Y-78268D01*
X192244Y-86732D02*
X197756D01*
X192244D02*
Y-78268D01*
X197756D01*
X363630Y-97610D02*
X403000D01*
X363630Y-81862D02*
X403000D01*
X363630Y-97610D02*
Y-81862D01*
X403000Y-97610D02*
Y-81862D01*
X183919Y-91269D02*
X189431D01*
X183919Y-82805D02*
X189431D01*
Y-91269D02*
Y-82805D01*
X183919Y-91269D02*
Y-82805D01*
X309973Y-97610D02*
Y-81862D01*
X270603Y-97610D02*
Y-81862D01*
X309973D01*
X270603Y-97610D02*
X309973D01*
X356448D02*
Y-81862D01*
X317078Y-97610D02*
Y-81862D01*
X356448D01*
X317078Y-97610D02*
X356448D01*
X64751Y-103836D02*
Y-80214D01*
X25381Y-103836D02*
X64751D01*
X25381D02*
Y-80214D01*
X64751D01*
X64732Y-233277D02*
Y-209655D01*
X25362Y-233277D02*
X64732D01*
X25362D02*
Y-209655D01*
X64732D01*
X200960Y-94779D02*
X224582D01*
X200960D02*
Y-55409D01*
X224582D01*
Y-94779D02*
Y-55409D01*
X108562Y-47750D02*
Y-24128D01*
X69192Y-47750D02*
X108562D01*
X69192D02*
Y-24128D01*
X108562D01*
M02*
