G04*
G04 #@! TF.GenerationSoftware,Altium Limited,Altium Designer,19.1.8 (144)*
G04*
G04 Layer_Color=255*
%FSLAX25Y25*%
%MOIN*%
G70*
G01*
G75*
%ADD68R,0.07087X0.06299*%
%ADD74R,0.06299X0.07087*%
%ADD76R,0.05118X0.05906*%
%ADD79R,0.08465X0.03740*%
%ADD80R,0.08465X0.12795*%
%ADD85R,0.05906X0.05118*%
%ADD101C,0.05906*%
%ADD102C,0.10236*%
%ADD103C,0.09843*%
%ADD104C,0.05315*%
%ADD105R,0.09055X0.09055*%
%ADD106C,0.09055*%
%ADD107R,0.06693X0.06693*%
%ADD108C,0.06693*%
%ADD109R,0.05906X0.05906*%
%ADD110C,0.06299*%
%ADD111R,0.06299X0.06299*%
%ADD112R,0.06693X0.06693*%
%ADD116R,0.05512X0.05906*%
%ADD117R,0.05906X0.05512*%
%ADD118R,0.06299X0.04724*%
%ADD119R,0.10236X0.08661*%
%ADD120R,0.07874X0.02362*%
D68*
X205161Y-51542D02*
D03*
Y-62566D02*
D03*
D74*
X459012Y-42000D02*
D03*
X447988D02*
D03*
X473988Y-41500D02*
D03*
X485012D02*
D03*
D76*
X153624Y-99948D02*
D03*
X161104D02*
D03*
X607029Y-278500D02*
D03*
X599548D02*
D03*
D79*
X161598Y-72361D02*
D03*
Y-81416D02*
D03*
Y-90471D02*
D03*
D80*
X138763Y-81416D02*
D03*
D85*
X322000Y-85240D02*
D03*
Y-77760D02*
D03*
X580500Y-278029D02*
D03*
Y-270548D02*
D03*
X176240Y-82409D02*
D03*
Y-89889D02*
D03*
D101*
X614000Y-161000D02*
D03*
X684000Y-151000D02*
D03*
X614000D02*
D03*
X684000Y-161000D02*
D03*
X527247Y-138167D02*
D03*
X517404Y-128325D02*
D03*
X438843Y-41940D02*
D03*
X505772Y-28161D02*
D03*
X493961Y-41940D02*
D03*
X438843Y-14381D02*
D03*
X493961D02*
D03*
X438843Y-22255D02*
D03*
Y-34066D02*
D03*
X582209Y-131111D02*
D03*
Y-75993D02*
D03*
X660950Y-131111D02*
D03*
Y-75993D02*
D03*
D102*
X486000Y-285500D02*
D03*
X506000D02*
D03*
Y-265500D02*
D03*
X486000D02*
D03*
X28500Y-276500D02*
D03*
X48500D02*
D03*
Y-256500D02*
D03*
X28500D02*
D03*
X352857Y-47634D02*
D03*
X332857D02*
D03*
Y-27634D02*
D03*
X352857D02*
D03*
D103*
X496000Y-275500D02*
D03*
X38500Y-266500D02*
D03*
X342857Y-37634D02*
D03*
D104*
X86250Y-212866D02*
D03*
Y-238457D02*
D03*
X640346Y-293307D02*
D03*
X665936D02*
D03*
D105*
X723025Y-60011D02*
D03*
D106*
Y-45011D02*
D03*
D107*
X487571Y-130296D02*
D03*
D108*
Y-140296D02*
D03*
X423196Y-29358D02*
D03*
X413196Y-39358D02*
D03*
Y-29358D02*
D03*
X403196Y-39358D02*
D03*
Y-29358D02*
D03*
X393196Y-39358D02*
D03*
Y-29358D02*
D03*
D109*
X537089Y-128325D02*
D03*
D110*
X523573Y-18774D02*
D03*
X577378Y-53800D02*
D03*
D111*
X523573Y-53774D02*
D03*
X577378Y-18800D02*
D03*
D112*
X423196Y-39358D02*
D03*
D116*
X199374Y-70500D02*
D03*
X191500D02*
D03*
D117*
X195000Y-78563D02*
D03*
Y-86437D02*
D03*
X186675Y-90974D02*
D03*
Y-83100D02*
D03*
D118*
X205344Y-44573D02*
D03*
Y-32762D02*
D03*
D119*
X161558Y-112747D02*
D03*
X141873D02*
D03*
D120*
X241085Y-87910D02*
D03*
Y-92909D02*
D03*
Y-97909D02*
D03*
Y-102909D02*
D03*
Y-107909D02*
D03*
Y-112909D02*
D03*
Y-117909D02*
D03*
Y-122909D02*
D03*
X262345D02*
D03*
Y-117909D02*
D03*
Y-112909D02*
D03*
Y-107909D02*
D03*
Y-102909D02*
D03*
Y-97909D02*
D03*
Y-92909D02*
D03*
Y-87910D02*
D03*
M02*
