G04*
G04 #@! TF.GenerationSoftware,Altium Limited,Altium Designer,19.1.8 (144)*
G04*
G04 Layer_Color=16711935*
%FSLAX25Y25*%
%MOIN*%
G70*
G01*
G75*
%ADD17R,0.07887X0.07099*%
%ADD31R,0.07099X0.07887*%
%ADD33R,0.05918X0.06706*%
%ADD36R,0.09265X0.04540*%
%ADD37R,0.09265X0.13595*%
%ADD42R,0.06706X0.05918*%
%ADD44C,0.07493*%
%ADD45R,0.07493X0.07493*%
%ADD46C,0.06115*%
%ADD47R,0.09855X0.09855*%
%ADD48C,0.09855*%
%ADD49R,0.07493X0.07493*%
%ADD50R,0.06706X0.06706*%
%ADD51C,0.06706*%
%ADD52C,0.07099*%
%ADD53R,0.07099X0.07099*%
%ADD54C,0.10642*%
%ADD55C,0.11036*%
%ADD56C,0.16548*%
%ADD116R,0.06312X0.06706*%
%ADD117R,0.06706X0.06312*%
%ADD118R,0.07099X0.05524*%
%ADD119R,0.11036X0.09461*%
%ADD120R,0.08674X0.03162*%
D17*
X205161Y-51542D02*
D03*
Y-62566D02*
D03*
D31*
X459012Y-42000D02*
D03*
X447988D02*
D03*
X473988Y-41500D02*
D03*
X485012D02*
D03*
D33*
X153624Y-99948D02*
D03*
X161104D02*
D03*
X599979Y-271108D02*
D03*
X592499D02*
D03*
X588626Y-259999D02*
D03*
X581145D02*
D03*
D36*
X161598Y-72361D02*
D03*
Y-81416D02*
D03*
Y-90471D02*
D03*
D37*
X138763Y-81416D02*
D03*
D42*
X322000Y-85240D02*
D03*
Y-77760D02*
D03*
X176240Y-82409D02*
D03*
Y-89889D02*
D03*
D44*
X38500Y-251000D02*
D03*
X487571Y-140296D02*
D03*
X47126Y-295394D02*
D03*
X423196Y-29358D02*
D03*
X413196Y-39358D02*
D03*
Y-29358D02*
D03*
X403196Y-39358D02*
D03*
Y-29358D02*
D03*
X393196Y-39358D02*
D03*
Y-29358D02*
D03*
D45*
X28500Y-251000D02*
D03*
X37126Y-295394D02*
D03*
X423196Y-39358D02*
D03*
D46*
X86250Y-212866D02*
D03*
Y-238457D02*
D03*
X640346Y-293307D02*
D03*
X665936D02*
D03*
D47*
X723025Y-60011D02*
D03*
D48*
Y-45011D02*
D03*
D49*
X487571Y-130296D02*
D03*
D50*
X537089Y-128325D02*
D03*
D51*
X527247Y-138167D02*
D03*
X517404Y-128325D02*
D03*
X438843Y-41940D02*
D03*
X505772Y-28161D02*
D03*
X493961Y-41940D02*
D03*
X438843Y-14381D02*
D03*
X493961D02*
D03*
X438843Y-22255D02*
D03*
Y-34066D02*
D03*
X582209Y-131111D02*
D03*
Y-75993D02*
D03*
X660950Y-131111D02*
D03*
Y-75993D02*
D03*
D52*
X523573Y-18774D02*
D03*
X577378Y-53800D02*
D03*
D53*
X523573Y-53774D02*
D03*
X577378Y-18800D02*
D03*
D54*
X342857Y-37634D02*
D03*
D55*
X352857Y-47634D02*
D03*
X332857D02*
D03*
Y-27634D02*
D03*
X352857D02*
D03*
D56*
X724409Y-15748D02*
D03*
Y-287402D02*
D03*
X11811Y-15748D02*
D03*
Y-287402D02*
D03*
X421260Y-90551D02*
D03*
D116*
X199374Y-70500D02*
D03*
X191500D02*
D03*
D117*
X195000Y-78563D02*
D03*
Y-86437D02*
D03*
X186675Y-90974D02*
D03*
Y-83100D02*
D03*
D118*
X205344Y-44573D02*
D03*
Y-32762D02*
D03*
D119*
X161558Y-112747D02*
D03*
X141873D02*
D03*
D120*
X241085Y-87910D02*
D03*
Y-92909D02*
D03*
Y-97909D02*
D03*
Y-102909D02*
D03*
Y-107909D02*
D03*
Y-112909D02*
D03*
Y-117909D02*
D03*
Y-122909D02*
D03*
X262345D02*
D03*
Y-117909D02*
D03*
Y-112909D02*
D03*
Y-107909D02*
D03*
Y-102909D02*
D03*
Y-97909D02*
D03*
Y-92909D02*
D03*
Y-87910D02*
D03*
M02*
