G04*
G04 #@! TF.GenerationSoftware,Altium Limited,Altium Designer,19.1.8 (144)*
G04*
G04 Layer_Physical_Order=2*
G04 Layer_Color=16711680*
%FSLAX25Y25*%
%MOIN*%
G70*
G01*
G75*
%ADD12C,0.02362*%
%ADD68R,0.07087X0.06299*%
%ADD74R,0.06299X0.07087*%
%ADD76R,0.05118X0.05906*%
%ADD79R,0.08465X0.03740*%
%ADD80R,0.08465X0.12795*%
%ADD85R,0.05906X0.05118*%
%ADD87C,0.03937*%
%ADD89C,0.00906*%
%ADD92C,0.05906*%
%ADD96C,0.03740*%
%ADD101C,0.05906*%
%ADD102C,0.10236*%
%ADD103C,0.09843*%
%ADD104C,0.05315*%
%ADD105R,0.09055X0.09055*%
%ADD106C,0.09055*%
%ADD107R,0.06693X0.06693*%
%ADD108C,0.06693*%
%ADD109R,0.05906X0.05906*%
%ADD110C,0.06299*%
%ADD111R,0.06299X0.06299*%
%ADD112R,0.06693X0.06693*%
%ADD113C,0.04000*%
%ADD114C,0.12598*%
%ADD115C,0.15748*%
%ADD116R,0.05512X0.05906*%
%ADD117R,0.05906X0.05512*%
%ADD118R,0.06299X0.04724*%
%ADD119R,0.10236X0.08661*%
%ADD120R,0.07874X0.02362*%
G36*
X735137Y-298764D02*
X4957D01*
Y-1084D01*
X735137D01*
Y-298764D01*
D02*
G37*
%LPC*%
G36*
X493961Y-10609D02*
X492985Y-10737D01*
X492075Y-11114D01*
X491293Y-11714D01*
X490694Y-12495D01*
X490317Y-13405D01*
X490189Y-14381D01*
X490317Y-15358D01*
X490694Y-16267D01*
X491293Y-17049D01*
X492075Y-17648D01*
X492985Y-18025D01*
X493961Y-18154D01*
X494937Y-18025D01*
X495847Y-17648D01*
X496629Y-17049D01*
X497228Y-16267D01*
X497605Y-15358D01*
X497733Y-14381D01*
X497605Y-13405D01*
X497228Y-12495D01*
X496629Y-11714D01*
X495847Y-11114D01*
X494937Y-10737D01*
X493961Y-10609D01*
D02*
G37*
G36*
X581315Y-14863D02*
X573441D01*
Y-22737D01*
X581315D01*
Y-14863D01*
D02*
G37*
G36*
X523573Y-14803D02*
X522545Y-14939D01*
X521587Y-15336D01*
X520765Y-15967D01*
X520134Y-16789D01*
X519737Y-17747D01*
X519602Y-18774D01*
X519737Y-19802D01*
X520134Y-20760D01*
X520765Y-21582D01*
X521587Y-22213D01*
X522545Y-22610D01*
X523573Y-22745D01*
X524601Y-22610D01*
X525558Y-22213D01*
X526381Y-21582D01*
X527012Y-20760D01*
X527409Y-19802D01*
X527544Y-18774D01*
X527409Y-17747D01*
X527012Y-16789D01*
X526381Y-15967D01*
X525558Y-15336D01*
X524601Y-14939D01*
X523573Y-14803D01*
D02*
G37*
G36*
X438843Y-10609D02*
X437867Y-10737D01*
X436957Y-11114D01*
X436175Y-11714D01*
X435576Y-12495D01*
X435199Y-13405D01*
X435071Y-14381D01*
Y-22255D01*
X435199Y-23232D01*
X435576Y-24141D01*
X436175Y-24923D01*
X436957Y-25522D01*
X437867Y-25899D01*
X438843Y-26028D01*
X439819Y-25899D01*
X440729Y-25522D01*
X441510Y-24923D01*
X442110Y-24141D01*
X442487Y-23232D01*
X442615Y-22255D01*
Y-14381D01*
X442487Y-13405D01*
X442110Y-12495D01*
X441510Y-11714D01*
X440729Y-11114D01*
X439819Y-10737D01*
X438843Y-10609D01*
D02*
G37*
G36*
X353357Y-21536D02*
Y-27134D01*
X358955D01*
X358886Y-26435D01*
X358536Y-25282D01*
X357968Y-24219D01*
X357204Y-23287D01*
X356272Y-22523D01*
X355209Y-21955D01*
X354056Y-21605D01*
X353357Y-21536D01*
D02*
G37*
G36*
X333357D02*
Y-27134D01*
X338955D01*
X338886Y-26435D01*
X338536Y-25282D01*
X337968Y-24219D01*
X337204Y-23287D01*
X336272Y-22523D01*
X335209Y-21955D01*
X334056Y-21605D01*
X333357Y-21536D01*
D02*
G37*
G36*
X352357D02*
X351657Y-21605D01*
X350504Y-21955D01*
X349441Y-22523D01*
X348510Y-23287D01*
X347745Y-24219D01*
X347177Y-25282D01*
X346827Y-26435D01*
X346758Y-27134D01*
X352357D01*
Y-21536D01*
D02*
G37*
G36*
X332357D02*
X331657Y-21605D01*
X330504Y-21955D01*
X329441Y-22523D01*
X328510Y-23287D01*
X327745Y-24219D01*
X327177Y-25282D01*
X326827Y-26435D01*
X326758Y-27134D01*
X332357D01*
Y-21536D01*
D02*
G37*
G36*
X506272Y-24240D02*
Y-27661D01*
X509693D01*
X509623Y-27129D01*
X509225Y-26167D01*
X508591Y-25341D01*
X507765Y-24708D01*
X506804Y-24310D01*
X506272Y-24240D01*
D02*
G37*
G36*
X505272D02*
X504740Y-24310D01*
X503779Y-24708D01*
X502953Y-25341D01*
X502319Y-26167D01*
X501921Y-27129D01*
X501851Y-27661D01*
X505272D01*
Y-24240D01*
D02*
G37*
G36*
X423696Y-25040D02*
Y-28858D01*
X427514D01*
X427431Y-28223D01*
X426993Y-27166D01*
X426296Y-26258D01*
X425388Y-25561D01*
X424331Y-25123D01*
X423696Y-25040D01*
D02*
G37*
G36*
X422696Y-25040D02*
X422061Y-25123D01*
X421004Y-25561D01*
X420096Y-26258D01*
X419399Y-27166D01*
X418961Y-28223D01*
X418878Y-28858D01*
X422696D01*
Y-25040D01*
D02*
G37*
G36*
X509693Y-28661D02*
X506272D01*
Y-32082D01*
X506804Y-32012D01*
X507765Y-31613D01*
X508591Y-30980D01*
X509225Y-30154D01*
X509623Y-29193D01*
X509693Y-28661D01*
D02*
G37*
G36*
X505272D02*
X501851D01*
X501921Y-29193D01*
X502319Y-30154D01*
X502953Y-30980D01*
X503779Y-31613D01*
X504740Y-32012D01*
X505272Y-32082D01*
Y-28661D01*
D02*
G37*
G36*
X413196Y-25188D02*
X412117Y-25330D01*
X411111Y-25747D01*
X410248Y-26410D01*
X409585Y-27273D01*
X409169Y-28279D01*
X409026Y-29358D01*
X409169Y-30437D01*
X409585Y-31443D01*
X410248Y-32306D01*
X411111Y-32969D01*
X412117Y-33385D01*
X413196Y-33527D01*
X414275Y-33385D01*
X415281Y-32969D01*
X416144Y-32306D01*
X416807Y-31443D01*
X417224Y-30437D01*
X417366Y-29358D01*
X417224Y-28279D01*
X416807Y-27273D01*
X416144Y-26410D01*
X415281Y-25747D01*
X414275Y-25330D01*
X413196Y-25188D01*
D02*
G37*
G36*
X403196D02*
X402117Y-25330D01*
X401111Y-25747D01*
X400248Y-26410D01*
X399585Y-27273D01*
X399169Y-28279D01*
X399026Y-29358D01*
X399169Y-30437D01*
X399585Y-31443D01*
X400248Y-32306D01*
X401111Y-32969D01*
X402117Y-33385D01*
X403196Y-33527D01*
X404275Y-33385D01*
X405281Y-32969D01*
X406144Y-32306D01*
X406807Y-31443D01*
X407224Y-30437D01*
X407366Y-29358D01*
X407224Y-28279D01*
X406807Y-27273D01*
X406144Y-26410D01*
X405281Y-25747D01*
X404275Y-25330D01*
X403196Y-25188D01*
D02*
G37*
G36*
X393196D02*
X392117Y-25330D01*
X391111Y-25747D01*
X390248Y-26410D01*
X389585Y-27273D01*
X389169Y-28279D01*
X389026Y-29358D01*
X389169Y-30437D01*
X389237Y-30602D01*
X386633Y-33205D01*
X386359Y-33615D01*
X386263Y-34099D01*
Y-43611D01*
X386359Y-44094D01*
X386633Y-44505D01*
X389055Y-46927D01*
X388864Y-47388D01*
X375366D01*
X374647Y-47483D01*
X373976Y-47761D01*
X373643Y-48017D01*
X373401Y-48202D01*
X365449Y-56154D01*
X365256Y-56302D01*
X365108Y-56495D01*
X361518Y-60085D01*
X330828D01*
X330108Y-60180D01*
X330022Y-60215D01*
X329844Y-60239D01*
X329173Y-60516D01*
X328598Y-60958D01*
X313977Y-75579D01*
X313536Y-76154D01*
X313486Y-76275D01*
X313466Y-76294D01*
X305710D01*
Y-73460D01*
X305742Y-73219D01*
X305646Y-72491D01*
X305365Y-71813D01*
X304919Y-71231D01*
X304336Y-70784D01*
X303658Y-70503D01*
X302931Y-70407D01*
X302203Y-70503D01*
X301525Y-70784D01*
X300943Y-71231D01*
X300496Y-71813D01*
X300215Y-72491D01*
X300119Y-73219D01*
X300151Y-73460D01*
Y-76294D01*
X269827D01*
X269586Y-76263D01*
X268858Y-76358D01*
X268180Y-76639D01*
X267598Y-77086D01*
X267151Y-77668D01*
X266870Y-78346D01*
X266774Y-79074D01*
X266870Y-79802D01*
X267151Y-80480D01*
X267598Y-81062D01*
X268180Y-81509D01*
X268858Y-81790D01*
X269586Y-81885D01*
X269827Y-81854D01*
X315103D01*
X315317Y-81882D01*
X316045Y-81786D01*
X316723Y-81505D01*
X317305Y-81059D01*
X317752Y-80476D01*
X317760Y-80458D01*
X318260Y-80557D01*
Y-81106D01*
X325740D01*
Y-74413D01*
X323863D01*
X323672Y-73951D01*
X331920Y-65703D01*
X362610D01*
X363330Y-65609D01*
X364000Y-65331D01*
X364576Y-64889D01*
X364633Y-64831D01*
X364635Y-64830D01*
X364635Y-64830D01*
X364635Y-64830D01*
X369039Y-60426D01*
X369232Y-60278D01*
X369380Y-60085D01*
X376518Y-52948D01*
X393116D01*
X399410Y-59242D01*
X399558Y-59435D01*
X400141Y-59882D01*
X400819Y-60163D01*
X401546Y-60258D01*
X402274Y-60163D01*
X402952Y-59882D01*
X403535Y-59435D01*
X403981Y-58853D01*
X404262Y-58175D01*
X404358Y-57447D01*
X404262Y-56719D01*
X403981Y-56041D01*
X403535Y-55459D01*
X403341Y-55311D01*
X396357Y-48326D01*
X396531Y-47826D01*
X412060D01*
X439585Y-75351D01*
X439526Y-75492D01*
X439430Y-76220D01*
X439526Y-76947D01*
X439807Y-77625D01*
X440254Y-78208D01*
X440836Y-78654D01*
X441514Y-78935D01*
X442242Y-79031D01*
X442969Y-78935D01*
X443647Y-78654D01*
X444230Y-78208D01*
X444676Y-77625D01*
X444957Y-76947D01*
X445053Y-76220D01*
X444957Y-75492D01*
X444676Y-74814D01*
X444230Y-74232D01*
X443647Y-73785D01*
X442969Y-73504D01*
X442242Y-73408D01*
X441514Y-73504D01*
X441373Y-73563D01*
X414205Y-46395D01*
X414391Y-45919D01*
X414768Y-45878D01*
X435509Y-66619D01*
X435919Y-66893D01*
X436403Y-66990D01*
X482337D01*
X482368Y-67064D01*
X482814Y-67646D01*
X483397Y-68093D01*
X484075Y-68374D01*
X484802Y-68469D01*
X485530Y-68374D01*
X486208Y-68093D01*
X486790Y-67646D01*
X487237Y-67064D01*
X487518Y-66386D01*
X487614Y-65658D01*
X487518Y-64930D01*
X487237Y-64252D01*
X486790Y-63670D01*
X486208Y-63223D01*
X485530Y-62942D01*
X484802Y-62846D01*
X484075Y-62942D01*
X483397Y-63223D01*
X482814Y-63670D01*
X482368Y-64252D01*
X482281Y-64461D01*
X436927D01*
X416150Y-43684D01*
X415739Y-43410D01*
X415556Y-43373D01*
X415447Y-42842D01*
X416144Y-42306D01*
X416807Y-41443D01*
X417224Y-40437D01*
X417366Y-39358D01*
X417224Y-38279D01*
X416807Y-37273D01*
X416144Y-36410D01*
X415281Y-35747D01*
X414275Y-35330D01*
X413196Y-35188D01*
X412117Y-35330D01*
X411111Y-35747D01*
X410248Y-36410D01*
X409585Y-37273D01*
X409169Y-38279D01*
X409026Y-39358D01*
X409169Y-40437D01*
X409585Y-41443D01*
X410248Y-42306D01*
X410909Y-42814D01*
X410739Y-43314D01*
X405653D01*
X405483Y-42814D01*
X406144Y-42306D01*
X406807Y-41443D01*
X407224Y-40437D01*
X407366Y-39358D01*
X407224Y-38279D01*
X406807Y-37273D01*
X406144Y-36410D01*
X405281Y-35747D01*
X404275Y-35330D01*
X403196Y-35188D01*
X402117Y-35330D01*
X401111Y-35747D01*
X400248Y-36410D01*
X399585Y-37273D01*
X399169Y-38279D01*
X399026Y-39358D01*
X399169Y-40437D01*
X399585Y-41443D01*
X400248Y-42306D01*
X400909Y-42814D01*
X400739Y-43314D01*
X396226D01*
X395897Y-42972D01*
X395933Y-42468D01*
X396144Y-42306D01*
X396807Y-41443D01*
X397223Y-40437D01*
X397366Y-39358D01*
X397223Y-38279D01*
X396807Y-37273D01*
X396144Y-36410D01*
X395281Y-35747D01*
X394275Y-35330D01*
X393196Y-35188D01*
X392117Y-35330D01*
X391111Y-35747D01*
X390248Y-36410D01*
X389585Y-37273D01*
X389292Y-37981D01*
X388792Y-37881D01*
Y-34623D01*
X390735Y-32680D01*
X391111Y-32969D01*
X392117Y-33385D01*
X393196Y-33527D01*
X394275Y-33385D01*
X395281Y-32969D01*
X396144Y-32306D01*
X396807Y-31443D01*
X397223Y-30437D01*
X397366Y-29358D01*
X397223Y-28279D01*
X396807Y-27273D01*
X396144Y-26410D01*
X395281Y-25747D01*
X394275Y-25330D01*
X393196Y-25188D01*
D02*
G37*
G36*
X422696Y-29858D02*
X418878D01*
X418961Y-30492D01*
X419399Y-31550D01*
X420096Y-32458D01*
X421004Y-33154D01*
X422061Y-33593D01*
X422696Y-33676D01*
Y-29858D01*
D02*
G37*
G36*
X427514D02*
X423696D01*
Y-33676D01*
X424331Y-33593D01*
X425388Y-33154D01*
X426296Y-32458D01*
X426993Y-31550D01*
X427431Y-30492D01*
X427514Y-29858D01*
D02*
G37*
G36*
X358955Y-28134D02*
X353357D01*
Y-33733D01*
X354056Y-33664D01*
X355209Y-33314D01*
X356272Y-32746D01*
X357204Y-31981D01*
X357968Y-31050D01*
X358536Y-29987D01*
X358886Y-28834D01*
X358955Y-28134D01*
D02*
G37*
G36*
X338955D02*
X333357D01*
Y-33733D01*
X334056Y-33664D01*
X335209Y-33314D01*
X336272Y-32746D01*
X337204Y-31981D01*
X337968Y-31050D01*
X338536Y-29987D01*
X338886Y-28834D01*
X338955Y-28134D01*
D02*
G37*
G36*
X352357D02*
X346758D01*
X346827Y-28834D01*
X347177Y-29987D01*
X347745Y-31050D01*
X348510Y-31981D01*
X349441Y-32746D01*
X350504Y-33314D01*
X351657Y-33664D01*
X352357Y-33733D01*
Y-28134D01*
D02*
G37*
G36*
X332357D02*
X326758D01*
X326827Y-28834D01*
X327177Y-29987D01*
X327745Y-31050D01*
X328510Y-31981D01*
X329441Y-32746D01*
X330504Y-33314D01*
X331657Y-33664D01*
X332357Y-33733D01*
Y-28134D01*
D02*
G37*
G36*
X215655Y-9412D02*
X135568D01*
X134848Y-9507D01*
X134178Y-9785D01*
X133602Y-10226D01*
X115001Y-28828D01*
X104215D01*
X103495Y-28923D01*
X102825Y-29200D01*
X102249Y-29642D01*
X68064Y-63827D01*
X67622Y-64403D01*
X67345Y-65073D01*
X67250Y-65793D01*
Y-87170D01*
X67218Y-87411D01*
X67314Y-88139D01*
X67595Y-88817D01*
X68041Y-89399D01*
X68624Y-89846D01*
X69302Y-90127D01*
X70029Y-90223D01*
X70271Y-90191D01*
X71488D01*
X78460Y-97162D01*
Y-107286D01*
X78554Y-108005D01*
X78832Y-108676D01*
X79274Y-109251D01*
X105157Y-135134D01*
X105157Y-135634D01*
X69050Y-171741D01*
X68608Y-172317D01*
X68330Y-172987D01*
X68236Y-173706D01*
Y-214655D01*
X68204Y-214896D01*
X68300Y-215624D01*
X68581Y-216302D01*
X69027Y-216884D01*
X69610Y-217331D01*
X70288Y-217612D01*
X71015Y-217707D01*
X71743Y-217612D01*
X72421Y-217331D01*
X73003Y-216884D01*
X73450Y-216302D01*
X73731Y-215624D01*
X73827Y-214896D01*
X73795Y-214655D01*
Y-174858D01*
X111303Y-137350D01*
X120009Y-128644D01*
X176210D01*
Y-137125D01*
X176179Y-137366D01*
X176275Y-138094D01*
X176555Y-138772D01*
X177002Y-139355D01*
X177584Y-139801D01*
X178262Y-140082D01*
X178990Y-140178D01*
X179241Y-140145D01*
X241217Y-139832D01*
X346761D01*
X347002Y-139863D01*
X347730Y-139768D01*
X348408Y-139487D01*
X348990Y-139040D01*
X349138Y-138847D01*
X354910Y-133076D01*
X483437D01*
Y-134430D01*
X491705D01*
Y-126162D01*
X490351D01*
Y-115472D01*
X512687Y-93136D01*
X608476D01*
X609195Y-93041D01*
X609865Y-92764D01*
X610441Y-92322D01*
X653552Y-49211D01*
X653746Y-49062D01*
X654192Y-48480D01*
X654473Y-47802D01*
X654569Y-47074D01*
X654473Y-46347D01*
X654192Y-45669D01*
X653746Y-45086D01*
X653163Y-44640D01*
X652485Y-44359D01*
X651757Y-44263D01*
X651030Y-44359D01*
X650352Y-44640D01*
X649769Y-45086D01*
X649621Y-45279D01*
X607324Y-87577D01*
X511535D01*
X510816Y-87671D01*
X510146Y-87949D01*
X509570Y-88391D01*
X485605Y-112355D01*
X485164Y-112931D01*
X484886Y-113601D01*
X484791Y-114321D01*
Y-126162D01*
X483437D01*
Y-127516D01*
X353758D01*
X353039Y-127611D01*
X352368Y-127889D01*
X351793Y-128331D01*
X345851Y-134272D01*
X243990D01*
Y-126059D01*
X243901Y-125378D01*
X243917Y-125233D01*
X244154Y-124878D01*
X245809D01*
Y-120941D01*
X241239D01*
X241004Y-120904D01*
X240851Y-120941D01*
X236360D01*
Y-124878D01*
X238267D01*
X238504Y-125233D01*
X238521Y-125378D01*
X238431Y-126059D01*
Y-134286D01*
X182124Y-134571D01*
X181770Y-134218D01*
Y-127934D01*
X204451Y-105253D01*
X205808D01*
X205908Y-105753D01*
X205566Y-105894D01*
X204984Y-106341D01*
X204537Y-106923D01*
X204256Y-107601D01*
X204161Y-108329D01*
X204256Y-109057D01*
X204537Y-109735D01*
X204984Y-110317D01*
X205566Y-110764D01*
X206244Y-111045D01*
X206972Y-111141D01*
X207700Y-111045D01*
X207841Y-110986D01*
X215659Y-118804D01*
X216069Y-119078D01*
X216553Y-119174D01*
X236360D01*
Y-119878D01*
X245809D01*
Y-115941D01*
X236360D01*
Y-116645D01*
X217076D01*
X209629Y-109198D01*
X209688Y-109057D01*
X209784Y-108329D01*
X209688Y-107601D01*
X209407Y-106923D01*
X208960Y-106341D01*
X208378Y-105894D01*
X208036Y-105753D01*
X208136Y-105253D01*
X218323D01*
X218565Y-105285D01*
X219292Y-105189D01*
X219970Y-104908D01*
X220553Y-104461D01*
X220999Y-103879D01*
X221280Y-103201D01*
X221376Y-102473D01*
X221280Y-101746D01*
X220999Y-101067D01*
X220553Y-100485D01*
X219970Y-100038D01*
X219292Y-99758D01*
X218565Y-99662D01*
X218323Y-99694D01*
X203300D01*
X202581Y-99788D01*
X201910Y-100066D01*
X201335Y-100508D01*
X178758Y-123084D01*
X164338D01*
Y-117865D01*
X167464D01*
Y-107628D01*
X163884D01*
Y-103689D01*
X164450D01*
Y-96208D01*
X164378D01*
Y-94310D01*
X164288Y-93629D01*
X164296Y-93561D01*
X164481Y-93129D01*
X166618D01*
Y-87814D01*
X161772D01*
X161598Y-87791D01*
X161424Y-87814D01*
X156578D01*
Y-93129D01*
X158715D01*
X158900Y-93561D01*
X158908Y-93629D01*
X158818Y-94310D01*
Y-96208D01*
X157757D01*
Y-103689D01*
X158324D01*
Y-107628D01*
X155653D01*
Y-117865D01*
X158779D01*
Y-123084D01*
X118858D01*
X118138Y-123179D01*
X117726Y-123350D01*
X117468Y-123457D01*
X117468Y-123457D01*
X116892Y-123898D01*
X109588Y-131203D01*
X109088D01*
X84019Y-106134D01*
Y-96011D01*
X83924Y-95292D01*
X83647Y-94621D01*
X83205Y-94046D01*
X74605Y-85445D01*
X74029Y-85004D01*
X73359Y-84726D01*
X72809Y-84654D01*
Y-66944D01*
X105366Y-34387D01*
X115911D01*
X116152Y-34419D01*
X116880Y-34323D01*
X117558Y-34042D01*
X118140Y-33595D01*
X118288Y-33402D01*
X136719Y-14971D01*
X214504D01*
X232809Y-33277D01*
X233385Y-33719D01*
X234055Y-33996D01*
X234775Y-34091D01*
X239589D01*
X239830Y-34123D01*
X240558Y-34027D01*
X241236Y-33746D01*
X241818Y-33299D01*
X242265Y-32717D01*
X242546Y-32039D01*
X242641Y-31311D01*
X242546Y-30584D01*
X242265Y-29906D01*
X241818Y-29323D01*
X241236Y-28877D01*
X240558Y-28596D01*
X239830Y-28500D01*
X239589Y-28532D01*
X235926D01*
X217621Y-10226D01*
X217045Y-9785D01*
X216374Y-9507D01*
X215655Y-9412D01*
D02*
G37*
G36*
X205258Y-23302D02*
X204530Y-23398D01*
X203852Y-23679D01*
X203270Y-24126D01*
X202823Y-24708D01*
X202542Y-25386D01*
X202446Y-26114D01*
X202542Y-26841D01*
X202564Y-26895D01*
Y-29613D01*
X201407D01*
Y-35912D01*
X209281D01*
Y-29613D01*
X208123D01*
Y-26200D01*
X208029Y-25481D01*
X207751Y-24810D01*
X207715Y-24764D01*
X207692Y-24708D01*
X207245Y-24126D01*
X206663Y-23679D01*
X205985Y-23398D01*
X205258Y-23302D01*
D02*
G37*
G36*
X478138Y-36957D02*
X474488D01*
Y-41000D01*
X478138D01*
Y-36957D01*
D02*
G37*
G36*
X473488D02*
X469839D01*
Y-41000D01*
X473488D01*
Y-36957D01*
D02*
G37*
G36*
X463161Y-37457D02*
X459512D01*
Y-41500D01*
X463161D01*
Y-37457D01*
D02*
G37*
G36*
X458512D02*
X454862D01*
Y-41500D01*
X458512D01*
Y-37457D01*
D02*
G37*
G36*
X342857Y-31876D02*
X341366Y-32072D01*
X339978Y-32648D01*
X338785Y-33563D01*
X337870Y-34755D01*
X337295Y-36144D01*
X337099Y-37634D01*
X337295Y-39125D01*
X337870Y-40513D01*
X338785Y-41706D01*
X339978Y-42621D01*
X341366Y-43196D01*
X342857Y-43392D01*
X344347Y-43196D01*
X345736Y-42621D01*
X346928Y-41706D01*
X347843Y-40513D01*
X348418Y-39125D01*
X348615Y-37634D01*
X348418Y-36144D01*
X347843Y-34755D01*
X346928Y-33563D01*
X345736Y-32648D01*
X344347Y-32072D01*
X342857Y-31876D01*
D02*
G37*
G36*
X427330Y-35224D02*
X419062D01*
Y-43492D01*
X427330D01*
Y-35224D01*
D02*
G37*
G36*
X488949Y-37169D02*
X481075D01*
Y-45831D01*
X488949D01*
Y-44218D01*
X490995D01*
X491293Y-44608D01*
X492075Y-45207D01*
X492985Y-45584D01*
X493961Y-45713D01*
X494937Y-45584D01*
X495847Y-45207D01*
X496629Y-44608D01*
X497228Y-43826D01*
X497605Y-42917D01*
X497733Y-41940D01*
X497605Y-40964D01*
X497228Y-40054D01*
X496629Y-39273D01*
X495847Y-38673D01*
X494937Y-38296D01*
X493961Y-38168D01*
X492985Y-38296D01*
X492109Y-38659D01*
X488949D01*
Y-37169D01*
D02*
G37*
G36*
X478138Y-42000D02*
X474488D01*
Y-46043D01*
X478138D01*
Y-42000D01*
D02*
G37*
G36*
X473488D02*
X469839D01*
Y-46043D01*
X473488D01*
Y-42000D01*
D02*
G37*
G36*
X438843Y-30294D02*
X437867Y-30422D01*
X436957Y-30799D01*
X436175Y-31399D01*
X435576Y-32180D01*
X435199Y-33090D01*
X435071Y-34066D01*
X435199Y-35043D01*
X435576Y-35952D01*
X436063Y-36588D01*
Y-39419D01*
X435576Y-40054D01*
X435199Y-40964D01*
X435071Y-41940D01*
X435199Y-42917D01*
X435576Y-43826D01*
X436175Y-44608D01*
X436957Y-45207D01*
X437867Y-45584D01*
X438843Y-45713D01*
X439819Y-45584D01*
X440729Y-45207D01*
X440993Y-45004D01*
X444051D01*
Y-46331D01*
X451925D01*
Y-37669D01*
X444051D01*
Y-39445D01*
X441643D01*
X441623Y-39419D01*
Y-36588D01*
X442110Y-35952D01*
X442487Y-35043D01*
X442615Y-34066D01*
X442487Y-33090D01*
X442110Y-32180D01*
X441510Y-31399D01*
X440729Y-30799D01*
X439819Y-30422D01*
X438843Y-30294D01*
D02*
G37*
G36*
X463161Y-42500D02*
X459512D01*
Y-46543D01*
X463161D01*
Y-42500D01*
D02*
G37*
G36*
X458512D02*
X454862D01*
Y-46543D01*
X458512D01*
Y-42500D01*
D02*
G37*
G36*
X353357Y-41536D02*
Y-47134D01*
X358955D01*
X358886Y-46435D01*
X358536Y-45282D01*
X357968Y-44219D01*
X357204Y-43287D01*
X356272Y-42523D01*
X355209Y-41954D01*
X354056Y-41605D01*
X353357Y-41536D01*
D02*
G37*
G36*
X333357D02*
Y-47134D01*
X338955D01*
X338886Y-46435D01*
X338536Y-45282D01*
X337968Y-44219D01*
X337204Y-43287D01*
X336272Y-42523D01*
X335209Y-41954D01*
X334056Y-41605D01*
X333357Y-41536D01*
D02*
G37*
G36*
X352357D02*
X351657Y-41605D01*
X350504Y-41954D01*
X349441Y-42523D01*
X348510Y-43287D01*
X347745Y-44219D01*
X347177Y-45282D01*
X346827Y-46435D01*
X346758Y-47134D01*
X352357D01*
Y-41536D01*
D02*
G37*
G36*
X332357D02*
X331657Y-41605D01*
X330504Y-41954D01*
X329441Y-42523D01*
X328510Y-43287D01*
X327745Y-44219D01*
X327177Y-45282D01*
X326827Y-46435D01*
X326758Y-47134D01*
X332357D01*
Y-41536D01*
D02*
G37*
G36*
X723025Y-39650D02*
X721638Y-39833D01*
X720345Y-40368D01*
X719235Y-41220D01*
X718383Y-42331D01*
X717847Y-43624D01*
X717664Y-45011D01*
X717847Y-46398D01*
X718383Y-47691D01*
X719235Y-48802D01*
X720345Y-49654D01*
X721638Y-50189D01*
X723025Y-50372D01*
X724413Y-50189D01*
X725706Y-49654D01*
X726816Y-48802D01*
X727668Y-47691D01*
X728203Y-46398D01*
X728386Y-45011D01*
X728203Y-43624D01*
X727668Y-42331D01*
X726816Y-41220D01*
X725706Y-40368D01*
X724413Y-39833D01*
X723025Y-39650D01*
D02*
G37*
G36*
X358955Y-48134D02*
X353357D01*
Y-53733D01*
X354056Y-53664D01*
X355209Y-53314D01*
X356272Y-52746D01*
X357204Y-51981D01*
X357968Y-51050D01*
X358536Y-49987D01*
X358886Y-48834D01*
X358955Y-48134D01*
D02*
G37*
G36*
X338955D02*
X333357D01*
Y-53733D01*
X334056Y-53664D01*
X335209Y-53314D01*
X336272Y-52746D01*
X337204Y-51981D01*
X337968Y-51050D01*
X338536Y-49987D01*
X338886Y-48834D01*
X338955Y-48134D01*
D02*
G37*
G36*
X352357D02*
X346758D01*
X346827Y-48834D01*
X347177Y-49987D01*
X347745Y-51050D01*
X348510Y-51981D01*
X349441Y-52746D01*
X350504Y-53314D01*
X351657Y-53664D01*
X352357Y-53733D01*
Y-48134D01*
D02*
G37*
G36*
X332357D02*
X326758D01*
X326827Y-48834D01*
X327177Y-49987D01*
X327745Y-51050D01*
X328510Y-51981D01*
X329441Y-52746D01*
X330504Y-53314D01*
X331657Y-53664D01*
X332357Y-53733D01*
Y-48134D01*
D02*
G37*
G36*
X209281Y-41424D02*
X201407D01*
Y-47605D01*
X200830D01*
Y-55479D01*
X209492D01*
Y-47605D01*
X209281D01*
Y-41424D01*
D02*
G37*
G36*
X527510Y-49837D02*
X519636D01*
Y-57711D01*
X527510D01*
Y-49837D01*
D02*
G37*
G36*
X577378Y-49829D02*
X576350Y-49964D01*
X575392Y-50361D01*
X574570Y-50992D01*
X573939Y-51815D01*
X573542Y-52772D01*
X573407Y-53800D01*
X573542Y-54828D01*
X573939Y-55786D01*
X574570Y-56608D01*
X575392Y-57239D01*
X576350Y-57636D01*
X577378Y-57771D01*
X578405Y-57636D01*
X579363Y-57239D01*
X580186Y-56608D01*
X580817Y-55786D01*
X581213Y-54828D01*
X581349Y-53800D01*
X581213Y-52772D01*
X580817Y-51815D01*
X580186Y-50992D01*
X579363Y-50361D01*
X578405Y-49964D01*
X577378Y-49829D01*
D02*
G37*
G36*
X728553Y-54483D02*
X724025D01*
Y-59011D01*
X728553D01*
Y-54483D01*
D02*
G37*
G36*
X722025D02*
X717498D01*
Y-59011D01*
X722025D01*
Y-54483D01*
D02*
G37*
G36*
X728553Y-61011D02*
X724025D01*
Y-65539D01*
X728553D01*
Y-61011D01*
D02*
G37*
G36*
X722025D02*
X717498D01*
Y-65539D01*
X722025D01*
Y-61011D01*
D02*
G37*
G36*
X195256Y-66547D02*
X192000D01*
Y-70000D01*
X195256D01*
Y-66547D01*
D02*
G37*
G36*
X191000D02*
X187744D01*
Y-70000D01*
X191000D01*
Y-66547D01*
D02*
G37*
G36*
X166830Y-69491D02*
X162598D01*
Y-71361D01*
X166830D01*
Y-69491D01*
D02*
G37*
G36*
X160598D02*
X156366D01*
Y-71361D01*
X160598D01*
Y-69491D01*
D02*
G37*
G36*
X401056Y-70717D02*
X400329Y-70813D01*
X399651Y-71094D01*
X399068Y-71540D01*
X398622Y-72123D01*
X398563Y-72264D01*
X331551D01*
X331404Y-72072D01*
X330821Y-71626D01*
X330143Y-71345D01*
X329416Y-71249D01*
X328688Y-71345D01*
X328010Y-71626D01*
X327428Y-72072D01*
X326981Y-72654D01*
X326700Y-73333D01*
X326604Y-74060D01*
X326700Y-74788D01*
X326981Y-75466D01*
X327428Y-76048D01*
X328010Y-76495D01*
X328688Y-76776D01*
X329416Y-76872D01*
X330143Y-76776D01*
X330821Y-76495D01*
X331404Y-76048D01*
X331851Y-75466D01*
X332129Y-74793D01*
X398563D01*
X398622Y-74934D01*
X399068Y-75516D01*
X399651Y-75963D01*
X400329Y-76244D01*
X401056Y-76340D01*
X401784Y-76244D01*
X402462Y-75963D01*
X403044Y-75516D01*
X403491Y-74934D01*
X403772Y-74256D01*
X403868Y-73528D01*
X403772Y-72801D01*
X403491Y-72123D01*
X403044Y-71540D01*
X402462Y-71094D01*
X401784Y-70813D01*
X401056Y-70717D01*
D02*
G37*
G36*
X209492Y-58629D02*
X200830D01*
Y-66503D01*
X200437Y-66760D01*
X195831D01*
Y-74240D01*
X195831D01*
X195961Y-74554D01*
X195496Y-75020D01*
X191260D01*
Y-79255D01*
X190799Y-79716D01*
X190415Y-79557D01*
Y-79557D01*
X182935D01*
Y-80152D01*
X179980D01*
Y-79062D01*
X172500D01*
Y-80152D01*
X166618D01*
Y-78759D01*
X156578D01*
Y-80152D01*
X154346D01*
Y-62992D01*
X154285Y-62685D01*
X154111Y-62424D01*
X153850Y-62250D01*
X153543Y-62189D01*
X114173D01*
X113866Y-62250D01*
X113605Y-62424D01*
X113432Y-62685D01*
X113370Y-62992D01*
Y-94488D01*
X113432Y-94795D01*
X113605Y-95056D01*
X113866Y-95230D01*
X114173Y-95291D01*
X153543D01*
X153850Y-95230D01*
X154111Y-95056D01*
X154285Y-94795D01*
X154346Y-94488D01*
Y-82681D01*
X156578D01*
Y-84074D01*
X166618D01*
Y-82681D01*
X172500D01*
Y-85755D01*
X179980D01*
Y-82681D01*
X182935D01*
Y-86643D01*
X190415D01*
Y-83126D01*
X190487Y-83059D01*
X190953Y-83142D01*
X191037Y-83209D01*
X191047Y-83226D01*
Y-85937D01*
X194500D01*
Y-82681D01*
X192624D01*
X192363Y-82181D01*
X192416Y-82106D01*
X198740D01*
Y-75352D01*
X199852Y-74240D01*
X202917D01*
Y-71174D01*
X206055Y-68037D01*
X206329Y-67626D01*
X206425Y-67142D01*
Y-66503D01*
X209492D01*
Y-58629D01*
D02*
G37*
G36*
X195256Y-71000D02*
X192000D01*
Y-74453D01*
X195256D01*
Y-71000D01*
D02*
G37*
G36*
X191000D02*
X187744D01*
Y-74453D01*
X191000D01*
Y-71000D01*
D02*
G37*
G36*
X278016Y-69242D02*
X277289Y-69338D01*
X276610Y-69619D01*
X276028Y-70065D01*
X275581Y-70648D01*
X275523Y-70789D01*
X268787D01*
X268303Y-70885D01*
X267893Y-71159D01*
X262715Y-76337D01*
X262441Y-76748D01*
X262345Y-77232D01*
Y-85941D01*
X257620D01*
Y-89878D01*
X267069D01*
Y-85941D01*
X264874D01*
Y-77755D01*
X269311Y-73318D01*
X275523D01*
X275581Y-73459D01*
X276028Y-74041D01*
X276610Y-74488D01*
X277289Y-74769D01*
X278016Y-74865D01*
X278744Y-74769D01*
X279422Y-74488D01*
X280004Y-74041D01*
X280451Y-73459D01*
X280732Y-72781D01*
X280828Y-72053D01*
X280732Y-71326D01*
X280451Y-70648D01*
X280004Y-70065D01*
X279422Y-69619D01*
X278744Y-69338D01*
X278016Y-69242D01*
D02*
G37*
G36*
X661950Y-72138D02*
Y-74993D01*
X664805D01*
X664801Y-74961D01*
X664402Y-74000D01*
X663769Y-73174D01*
X662943Y-72541D01*
X661981Y-72142D01*
X661950Y-72138D01*
D02*
G37*
G36*
X659950D02*
X659918Y-72142D01*
X658956Y-72541D01*
X658131Y-73174D01*
X657497Y-74000D01*
X657099Y-74961D01*
X657094Y-74993D01*
X659950D01*
Y-72138D01*
D02*
G37*
G36*
X166830Y-73361D02*
X162598D01*
Y-75231D01*
X166830D01*
Y-73361D01*
D02*
G37*
G36*
X160598D02*
X156366D01*
Y-75231D01*
X160598D01*
Y-73361D01*
D02*
G37*
G36*
X582209Y-72221D02*
X581233Y-72349D01*
X580323Y-72726D01*
X579542Y-73326D01*
X578942Y-74107D01*
X578566Y-75017D01*
X578437Y-75993D01*
X578566Y-76970D01*
X578942Y-77880D01*
X579542Y-78661D01*
X580323Y-79260D01*
X581233Y-79637D01*
X582209Y-79766D01*
X583186Y-79637D01*
X584096Y-79260D01*
X584877Y-78661D01*
X585476Y-77880D01*
X585853Y-76970D01*
X585982Y-75993D01*
X585853Y-75017D01*
X585476Y-74107D01*
X584877Y-73326D01*
X584096Y-72726D01*
X583186Y-72349D01*
X582209Y-72221D01*
D02*
G37*
G36*
X664805Y-76993D02*
X661950D01*
Y-79848D01*
X661981Y-79844D01*
X662943Y-79446D01*
X663769Y-78812D01*
X664402Y-77987D01*
X664801Y-77025D01*
X664805Y-76993D01*
D02*
G37*
G36*
X659950D02*
X657094D01*
X657099Y-77025D01*
X657497Y-77987D01*
X658131Y-78812D01*
X658956Y-79446D01*
X659918Y-79844D01*
X659950Y-79848D01*
Y-76993D01*
D02*
G37*
G36*
X325740Y-81894D02*
X318260D01*
Y-84618D01*
X290251D01*
X290192Y-84477D01*
X289745Y-83894D01*
X289163Y-83447D01*
X288485Y-83167D01*
X287757Y-83071D01*
X287030Y-83167D01*
X286352Y-83447D01*
X285770Y-83894D01*
X285323Y-84477D01*
X285042Y-85155D01*
X284946Y-85882D01*
X285042Y-86610D01*
X285323Y-87288D01*
X285770Y-87870D01*
X286352Y-88317D01*
X287030Y-88598D01*
X287757Y-88694D01*
X288485Y-88598D01*
X289163Y-88317D01*
X289641Y-87950D01*
X290055Y-88258D01*
X289871Y-88701D01*
X289776Y-89429D01*
X289871Y-90157D01*
X290152Y-90835D01*
X290599Y-91417D01*
X291181Y-91864D01*
X291859Y-92145D01*
X292587Y-92241D01*
X293315Y-92145D01*
X293993Y-91864D01*
X294575Y-91417D01*
X295022Y-90835D01*
X295118Y-90603D01*
X295418Y-90603D01*
X295650Y-91102D01*
X295462Y-91347D01*
X295182Y-92025D01*
X295086Y-92753D01*
X295182Y-93480D01*
X295462Y-94159D01*
X295909Y-94741D01*
X296492Y-95187D01*
X297170Y-95468D01*
X297897Y-95564D01*
X298625Y-95468D01*
X299303Y-95187D01*
X299885Y-94741D01*
X300332Y-94159D01*
X300341Y-94137D01*
X341773D01*
X341984Y-94646D01*
X342431Y-95228D01*
X343013Y-95675D01*
X343691Y-95956D01*
X344419Y-96052D01*
X345147Y-95956D01*
X345825Y-95675D01*
X346407Y-95228D01*
X346854Y-94646D01*
X346912Y-94505D01*
X389133D01*
X389538Y-95033D01*
X390120Y-95480D01*
X390798Y-95761D01*
X391526Y-95857D01*
X392254Y-95761D01*
X392932Y-95480D01*
X393514Y-95033D01*
X393961Y-94451D01*
X394242Y-93773D01*
X394337Y-93045D01*
X394242Y-92318D01*
X393961Y-91640D01*
X393514Y-91057D01*
X392932Y-90610D01*
X392254Y-90330D01*
X391526Y-90234D01*
X390798Y-90330D01*
X390120Y-90610D01*
X389538Y-91057D01*
X389091Y-91640D01*
X388952Y-91976D01*
X387255D01*
X387155Y-91476D01*
X387227Y-91447D01*
X387809Y-91000D01*
X388256Y-90417D01*
X388537Y-89740D01*
X388632Y-89012D01*
X388537Y-88284D01*
X388256Y-87606D01*
X387809Y-87024D01*
X387227Y-86577D01*
X386548Y-86296D01*
X385821Y-86200D01*
X385093Y-86296D01*
X384415Y-86577D01*
X383833Y-87024D01*
X383386Y-87606D01*
X383120Y-88249D01*
X382554D01*
X382218Y-87805D01*
X382219Y-87749D01*
X382760Y-87334D01*
X383207Y-86752D01*
X383488Y-86074D01*
X383583Y-85346D01*
X383488Y-84618D01*
X383207Y-83940D01*
X382760Y-83358D01*
X382178Y-82911D01*
X381500Y-82630D01*
X380772Y-82535D01*
X380044Y-82630D01*
X379366Y-82911D01*
X378784Y-83358D01*
X378337Y-83940D01*
X378234Y-84189D01*
X336919D01*
X336860Y-84047D01*
X336414Y-83465D01*
X335831Y-83018D01*
X335153Y-82737D01*
X334426Y-82642D01*
X333698Y-82737D01*
X333020Y-83018D01*
X332438Y-83465D01*
X331991Y-84047D01*
X331932Y-84189D01*
X325740D01*
Y-81894D01*
D02*
G37*
G36*
X198953Y-82681D02*
X195500D01*
Y-85937D01*
X198953D01*
Y-82681D01*
D02*
G37*
G36*
X180192Y-86330D02*
X176740D01*
Y-89389D01*
X180192D01*
Y-86330D01*
D02*
G37*
G36*
X175740D02*
X172287D01*
Y-89389D01*
X175740D01*
Y-86330D01*
D02*
G37*
G36*
X240210Y-17287D02*
X239483Y-17382D01*
X238805Y-17663D01*
X238222Y-18110D01*
X237775Y-18692D01*
X237495Y-19370D01*
X237399Y-20098D01*
X237495Y-20826D01*
X237775Y-21504D01*
X238222Y-22086D01*
X238805Y-22533D01*
X239483Y-22814D01*
X240210Y-22909D01*
X240938Y-22814D01*
X241079Y-22755D01*
X258052Y-39728D01*
Y-58072D01*
X240191Y-75933D01*
X239916Y-76343D01*
X239820Y-76827D01*
Y-85941D01*
X236360D01*
Y-89878D01*
X245809D01*
Y-85941D01*
X242349D01*
Y-77350D01*
X260210Y-59490D01*
X260484Y-59079D01*
X260581Y-58596D01*
Y-39204D01*
X260484Y-38720D01*
X260210Y-38310D01*
X242867Y-20967D01*
X242926Y-20826D01*
X243022Y-20098D01*
X242926Y-19370D01*
X242645Y-18692D01*
X242198Y-18110D01*
X241616Y-17663D01*
X240938Y-17382D01*
X240210Y-17287D01*
D02*
G37*
G36*
X198953Y-86937D02*
X195500D01*
Y-90193D01*
X198953D01*
Y-86937D01*
D02*
G37*
G36*
X194500D02*
X191047D01*
Y-87023D01*
X190628Y-87218D01*
X190547Y-87218D01*
X187175D01*
Y-90474D01*
X190628D01*
Y-90388D01*
X191047Y-90193D01*
X191128Y-90193D01*
X194500D01*
Y-86937D01*
D02*
G37*
G36*
X186175Y-87218D02*
X182722D01*
Y-90474D01*
X186175D01*
Y-87218D01*
D02*
G37*
G36*
X180192Y-90389D02*
X176740D01*
Y-93448D01*
X180192D01*
Y-90389D01*
D02*
G37*
G36*
X175740D02*
X172287D01*
Y-93448D01*
X175740D01*
Y-90389D01*
D02*
G37*
G36*
X190628Y-91474D02*
X187175D01*
Y-94730D01*
X190628D01*
Y-91474D01*
D02*
G37*
G36*
X186175D02*
X182722D01*
Y-94730D01*
X186175D01*
Y-91474D01*
D02*
G37*
G36*
X245809Y-90941D02*
X236360D01*
Y-94878D01*
X245809D01*
Y-90941D01*
D02*
G37*
G36*
X157183Y-95996D02*
X154124D01*
Y-99448D01*
X157183D01*
Y-95996D01*
D02*
G37*
G36*
X153124D02*
X150065D01*
Y-99448D01*
X153124D01*
Y-95996D01*
D02*
G37*
G36*
X245809Y-95941D02*
X236360D01*
Y-99878D01*
X245809D01*
Y-95941D01*
D02*
G37*
G36*
X157183Y-100448D02*
X154124D01*
Y-103901D01*
X157183D01*
Y-100448D01*
D02*
G37*
G36*
X153124D02*
X150065D01*
Y-103901D01*
X153124D01*
Y-100448D01*
D02*
G37*
G36*
X245809Y-100941D02*
X236360D01*
Y-104878D01*
X245809D01*
Y-100941D01*
D02*
G37*
G36*
Y-105941D02*
X236360D01*
Y-109878D01*
X245809D01*
Y-105941D01*
D02*
G37*
G36*
X267069Y-90941D02*
X257620D01*
Y-94878D01*
X266433D01*
X266996Y-95441D01*
X266789Y-95941D01*
X266685Y-95941D01*
X257620D01*
Y-99878D01*
X266569D01*
X267156Y-100466D01*
X267171Y-100495D01*
X266925Y-100941D01*
X266629Y-100941D01*
X257620D01*
Y-104878D01*
X266692D01*
X267083Y-105269D01*
X267084Y-105456D01*
X266600Y-105941D01*
X257620D01*
Y-109878D01*
X266468D01*
X267031Y-110441D01*
X266824Y-110941D01*
X266670Y-110941D01*
X257620D01*
Y-114878D01*
X266533D01*
X267115Y-115460D01*
X266889Y-115941D01*
X266643Y-115941D01*
X257620D01*
Y-119878D01*
X267069D01*
Y-119174D01*
X288656D01*
X289140Y-119078D01*
X289550Y-118804D01*
X297118Y-111236D01*
X297416Y-111360D01*
X298144Y-111456D01*
X298872Y-111360D01*
X299550Y-111079D01*
X300132Y-110632D01*
X300579Y-110050D01*
X300860Y-109372D01*
X300956Y-108644D01*
X300860Y-107916D01*
X300579Y-107238D01*
X300132Y-106656D01*
X299550Y-106209D01*
X298872Y-105928D01*
X298144Y-105833D01*
X297416Y-105928D01*
X296738Y-106209D01*
X296156Y-106656D01*
X295709Y-107238D01*
X295683Y-107302D01*
X295563Y-107353D01*
X295118Y-107359D01*
X294776Y-106913D01*
X294194Y-106466D01*
X293516Y-106185D01*
X292788Y-106090D01*
X292060Y-106185D01*
X291383Y-106466D01*
X290800Y-106913D01*
X290370Y-107474D01*
X290348Y-107496D01*
X289793Y-107543D01*
X289608Y-107302D01*
X289026Y-106855D01*
X288348Y-106574D01*
X287620Y-106479D01*
X286892Y-106574D01*
X286214Y-106855D01*
X285632Y-107302D01*
X285418Y-107581D01*
X285371Y-107603D01*
X284800Y-107565D01*
X284523Y-107205D01*
X283941Y-106758D01*
X283263Y-106477D01*
X282535Y-106381D01*
X281808Y-106477D01*
X281666Y-106536D01*
X267146Y-92015D01*
X267069Y-91963D01*
Y-90941D01*
D02*
G37*
G36*
X147991Y-107416D02*
X142373D01*
Y-112246D01*
X147991D01*
Y-107416D01*
D02*
G37*
G36*
X141373D02*
X135755D01*
Y-112246D01*
X141373D01*
Y-107416D01*
D02*
G37*
G36*
X245809Y-110941D02*
X236360D01*
Y-114878D01*
X245809D01*
Y-110941D01*
D02*
G37*
G36*
X147991Y-113246D02*
X142373D01*
Y-118077D01*
X147991D01*
Y-113246D01*
D02*
G37*
G36*
X141373D02*
X135755D01*
Y-118077D01*
X141373D01*
Y-113246D01*
D02*
G37*
G36*
X267282Y-120728D02*
X262844D01*
Y-122409D01*
X267282D01*
Y-120728D01*
D02*
G37*
G36*
X261844D02*
X257407D01*
Y-122409D01*
X261844D01*
Y-120728D01*
D02*
G37*
G36*
X70620Y-94867D02*
X69892Y-94962D01*
X69214Y-95243D01*
X68632Y-95690D01*
X68185Y-96272D01*
X67904Y-96950D01*
X67808Y-97678D01*
X67904Y-98406D01*
X68185Y-99084D01*
X68632Y-99666D01*
X69214Y-100113D01*
X69355Y-100171D01*
Y-112548D01*
X69451Y-113031D01*
X69726Y-113442D01*
X75987Y-119703D01*
X75929Y-119845D01*
X75833Y-120572D01*
X75929Y-121300D01*
X76210Y-121978D01*
X76657Y-122560D01*
X77239Y-123007D01*
X77917Y-123288D01*
X78645Y-123384D01*
X79372Y-123288D01*
X80050Y-123007D01*
X80633Y-122560D01*
X81079Y-121978D01*
X81360Y-121300D01*
X81456Y-120572D01*
X81360Y-119845D01*
X81079Y-119167D01*
X80633Y-118584D01*
X80050Y-118138D01*
X79372Y-117857D01*
X78645Y-117761D01*
X77917Y-117857D01*
X77776Y-117915D01*
X71884Y-112024D01*
Y-100171D01*
X72025Y-100113D01*
X72608Y-99666D01*
X73054Y-99084D01*
X73335Y-98406D01*
X73431Y-97678D01*
X73335Y-96950D01*
X73054Y-96272D01*
X72608Y-95690D01*
X72025Y-95243D01*
X71347Y-94962D01*
X70620Y-94867D01*
D02*
G37*
G36*
X267282Y-123409D02*
X262844D01*
Y-125091D01*
X267282D01*
Y-123409D01*
D02*
G37*
G36*
X261844D02*
X257407D01*
Y-125091D01*
X261844D01*
Y-123409D01*
D02*
G37*
G36*
X541042Y-124372D02*
X537589D01*
Y-127825D01*
X541042D01*
Y-124372D01*
D02*
G37*
G36*
X536589D02*
X533136D01*
Y-127825D01*
X536589D01*
Y-124372D01*
D02*
G37*
G36*
X517404Y-124552D02*
X516428Y-124681D01*
X515518Y-125058D01*
X514736Y-125657D01*
X514137Y-126439D01*
X513760Y-127348D01*
X513631Y-128325D01*
X513760Y-129301D01*
X514137Y-130211D01*
X514736Y-130992D01*
X515518Y-131592D01*
X516428Y-131969D01*
X517404Y-132097D01*
X518380Y-131969D01*
X519290Y-131592D01*
X520071Y-130992D01*
X520671Y-130211D01*
X521048Y-129301D01*
X521176Y-128325D01*
X521048Y-127348D01*
X520671Y-126439D01*
X520071Y-125657D01*
X519290Y-125058D01*
X518380Y-124681D01*
X517404Y-124552D01*
D02*
G37*
G36*
X541042Y-128825D02*
X537589D01*
Y-132278D01*
X541042D01*
Y-128825D01*
D02*
G37*
G36*
X536589D02*
X533136D01*
Y-132278D01*
X536589D01*
Y-128825D01*
D02*
G37*
G36*
X660950Y-127339D02*
X659973Y-127468D01*
X659063Y-127844D01*
X658282Y-128444D01*
X657683Y-129225D01*
X657306Y-130135D01*
X657177Y-131111D01*
X657306Y-132088D01*
X657683Y-132998D01*
X658282Y-133779D01*
X659063Y-134378D01*
X659973Y-134755D01*
X660950Y-134884D01*
X661926Y-134755D01*
X662836Y-134378D01*
X663617Y-133779D01*
X664217Y-132998D01*
X664594Y-132088D01*
X664722Y-131111D01*
X664594Y-130135D01*
X664217Y-129225D01*
X663617Y-128444D01*
X662836Y-127844D01*
X661926Y-127468D01*
X660950Y-127339D01*
D02*
G37*
G36*
X582209D02*
X581233Y-127468D01*
X580323Y-127844D01*
X579542Y-128444D01*
X578942Y-129225D01*
X578566Y-130135D01*
X578437Y-131111D01*
X578566Y-132088D01*
X578942Y-132998D01*
X579542Y-133779D01*
X580323Y-134378D01*
X581233Y-134755D01*
X582209Y-134884D01*
X583186Y-134755D01*
X584096Y-134378D01*
X584877Y-133779D01*
X585476Y-132998D01*
X585853Y-132088D01*
X585982Y-131111D01*
X585853Y-130135D01*
X585476Y-129225D01*
X584877Y-128444D01*
X584096Y-127844D01*
X583186Y-127468D01*
X582209Y-127339D01*
D02*
G37*
G36*
X527247Y-134395D02*
X526270Y-134523D01*
X525360Y-134900D01*
X524579Y-135500D01*
X523979Y-136281D01*
X523603Y-137191D01*
X523474Y-138167D01*
X523603Y-139144D01*
X523979Y-140053D01*
X524579Y-140835D01*
X525360Y-141434D01*
X526270Y-141811D01*
X527247Y-141940D01*
X528223Y-141811D01*
X529133Y-141434D01*
X529914Y-140835D01*
X530513Y-140053D01*
X530890Y-139144D01*
X531019Y-138167D01*
X530890Y-137191D01*
X530513Y-136281D01*
X529914Y-135500D01*
X529133Y-134900D01*
X528223Y-134523D01*
X527247Y-134395D01*
D02*
G37*
G36*
X487571Y-136126D02*
X486492Y-136269D01*
X485486Y-136685D01*
X484623Y-137348D01*
X483960Y-138211D01*
X483543Y-139217D01*
X483401Y-140296D01*
X483543Y-141375D01*
X483960Y-142381D01*
X484623Y-143244D01*
X485486Y-143907D01*
X486492Y-144324D01*
X487571Y-144466D01*
X488650Y-144324D01*
X489656Y-143907D01*
X490519Y-143244D01*
X491182Y-142381D01*
X491598Y-141375D01*
X491740Y-140296D01*
X491598Y-139217D01*
X491182Y-138211D01*
X490519Y-137348D01*
X489656Y-136685D01*
X488650Y-136269D01*
X487571Y-136126D01*
D02*
G37*
G36*
X685000Y-147145D02*
Y-150000D01*
X687855D01*
X687851Y-149968D01*
X687453Y-149007D01*
X686819Y-148181D01*
X685993Y-147547D01*
X685032Y-147149D01*
X685000Y-147145D01*
D02*
G37*
G36*
X683000D02*
X682968Y-147149D01*
X682007Y-147547D01*
X681181Y-148181D01*
X680547Y-149007D01*
X680149Y-149968D01*
X680145Y-150000D01*
X683000D01*
Y-147145D01*
D02*
G37*
G36*
X615000D02*
Y-150000D01*
X617855D01*
X617851Y-149968D01*
X617453Y-149007D01*
X616819Y-148181D01*
X615993Y-147547D01*
X615032Y-147149D01*
X615000Y-147145D01*
D02*
G37*
G36*
X613000D02*
X612968Y-147149D01*
X612007Y-147547D01*
X611181Y-148181D01*
X610547Y-149007D01*
X610149Y-149968D01*
X610145Y-150000D01*
X613000D01*
Y-147145D01*
D02*
G37*
G36*
X206026Y-147733D02*
X205298Y-147829D01*
X204620Y-148110D01*
X204038Y-148556D01*
X203591Y-149139D01*
X203310Y-149817D01*
X203215Y-150545D01*
X203310Y-151272D01*
X203369Y-151413D01*
X187002Y-167780D01*
X185259D01*
X185200Y-167639D01*
X184753Y-167057D01*
X184171Y-166610D01*
X183493Y-166329D01*
X182765Y-166233D01*
X182038Y-166329D01*
X181360Y-166610D01*
X180777Y-167057D01*
X180331Y-167639D01*
X180050Y-168317D01*
X179954Y-169044D01*
X180050Y-169772D01*
X180331Y-170450D01*
X180777Y-171033D01*
X181360Y-171479D01*
X182038Y-171760D01*
X182765Y-171856D01*
X183493Y-171760D01*
X184171Y-171479D01*
X184753Y-171033D01*
X185200Y-170450D01*
X185259Y-170309D01*
X187526D01*
X188010Y-170213D01*
X188420Y-169939D01*
X205157Y-153202D01*
X205298Y-153260D01*
X206026Y-153356D01*
X206754Y-153260D01*
X207432Y-152979D01*
X208014Y-152532D01*
X208461Y-151950D01*
X208742Y-151272D01*
X208837Y-150545D01*
X208742Y-149817D01*
X208461Y-149139D01*
X208014Y-148556D01*
X207432Y-148110D01*
X206754Y-147829D01*
X206026Y-147733D01*
D02*
G37*
G36*
X398622Y-148001D02*
X397894Y-148097D01*
X397216Y-148377D01*
X396634Y-148824D01*
X396187Y-149407D01*
X395906Y-150084D01*
X395810Y-150812D01*
X395906Y-151540D01*
X395931Y-151600D01*
X381441Y-166091D01*
X381299Y-166032D01*
X380572Y-165936D01*
X379844Y-166032D01*
X379166Y-166313D01*
X378584Y-166760D01*
X378137Y-167342D01*
X377856Y-168020D01*
X377760Y-168748D01*
X377856Y-169475D01*
X378137Y-170153D01*
X378584Y-170736D01*
X379166Y-171182D01*
X379844Y-171463D01*
X380572Y-171559D01*
X381299Y-171463D01*
X381977Y-171182D01*
X382560Y-170736D01*
X383006Y-170153D01*
X383287Y-169475D01*
X383383Y-168748D01*
X383287Y-168020D01*
X383229Y-167879D01*
X397672Y-153436D01*
X397894Y-153528D01*
X398622Y-153624D01*
X399349Y-153528D01*
X400027Y-153247D01*
X400610Y-152800D01*
X401056Y-152218D01*
X401337Y-151540D01*
X401433Y-150812D01*
X401337Y-150084D01*
X401056Y-149407D01*
X400610Y-148824D01*
X400027Y-148377D01*
X399349Y-148097D01*
X398622Y-148001D01*
D02*
G37*
G36*
X351284D02*
X350557Y-148097D01*
X349879Y-148377D01*
X349296Y-148824D01*
X348850Y-149407D01*
X348791Y-149548D01*
X348497D01*
X348013Y-149644D01*
X347603Y-149918D01*
X331726Y-165796D01*
X331584Y-165737D01*
X330857Y-165642D01*
X330129Y-165737D01*
X329451Y-166018D01*
X328869Y-166465D01*
X328422Y-167047D01*
X328141Y-167726D01*
X328045Y-168453D01*
X328141Y-169181D01*
X328422Y-169859D01*
X328869Y-170441D01*
X329451Y-170888D01*
X330129Y-171169D01*
X330857Y-171265D01*
X331584Y-171169D01*
X332262Y-170888D01*
X332845Y-170441D01*
X333292Y-169859D01*
X333572Y-169181D01*
X333668Y-168453D01*
X333572Y-167726D01*
X333514Y-167584D01*
X348594Y-152503D01*
X349093Y-152536D01*
X349296Y-152800D01*
X349879Y-153247D01*
X350557Y-153528D01*
X351284Y-153624D01*
X352012Y-153528D01*
X352690Y-153247D01*
X353272Y-152800D01*
X353719Y-152218D01*
X354000Y-151540D01*
X354096Y-150812D01*
X354000Y-150084D01*
X353719Y-149407D01*
X353272Y-148824D01*
X352690Y-148377D01*
X352012Y-148097D01*
X351284Y-148001D01*
D02*
G37*
G36*
X252533Y-148161D02*
X251805Y-148257D01*
X251127Y-148538D01*
X250545Y-148985D01*
X250098Y-149567D01*
X249817Y-150245D01*
X249721Y-150973D01*
X249817Y-151700D01*
X249876Y-151842D01*
X233632Y-168085D01*
X233170Y-167730D01*
X232492Y-167449D01*
X231765Y-167353D01*
X231037Y-167449D01*
X230359Y-167730D01*
X229777Y-168177D01*
X229330Y-168759D01*
X229049Y-169437D01*
X228953Y-170165D01*
X229049Y-170893D01*
X229330Y-171571D01*
X229777Y-172153D01*
X230359Y-172600D01*
X231037Y-172881D01*
X231765Y-172976D01*
X232492Y-172881D01*
X233170Y-172600D01*
X233753Y-172153D01*
X234199Y-171571D01*
X234480Y-170893D01*
X234492Y-170801D01*
X251664Y-153630D01*
X251805Y-153689D01*
X252533Y-153784D01*
X253260Y-153689D01*
X253938Y-153408D01*
X254521Y-152961D01*
X254967Y-152379D01*
X255248Y-151700D01*
X255344Y-150973D01*
X255248Y-150245D01*
X254967Y-149567D01*
X254521Y-148985D01*
X253938Y-148538D01*
X253260Y-148257D01*
X252533Y-148161D01*
D02*
G37*
G36*
X302240Y-148196D02*
X301513Y-148292D01*
X300835Y-148573D01*
X300253Y-149020D01*
X299806Y-149602D01*
X299525Y-150280D01*
X299429Y-151007D01*
X299439Y-151084D01*
X284357Y-166167D01*
X283907Y-165980D01*
X283179Y-165885D01*
X282452Y-165980D01*
X281774Y-166261D01*
X281191Y-166708D01*
X280745Y-167290D01*
X280464Y-167968D01*
X280368Y-168696D01*
X280464Y-169424D01*
X280745Y-170102D01*
X281191Y-170684D01*
X281774Y-171131D01*
X282452Y-171412D01*
X283179Y-171508D01*
X283907Y-171412D01*
X284585Y-171131D01*
X285168Y-170684D01*
X285614Y-170102D01*
X285895Y-169424D01*
X285991Y-168696D01*
X285923Y-168177D01*
X300734Y-153365D01*
X300835Y-153442D01*
X301513Y-153723D01*
X302240Y-153819D01*
X302968Y-153723D01*
X303646Y-153442D01*
X304228Y-152996D01*
X304675Y-152413D01*
X304956Y-151735D01*
X305052Y-151007D01*
X304956Y-150280D01*
X304675Y-149602D01*
X304228Y-149020D01*
X303646Y-148573D01*
X302968Y-148292D01*
X302240Y-148196D01*
D02*
G37*
G36*
X687855Y-152000D02*
X685000D01*
Y-154855D01*
X685032Y-154851D01*
X685993Y-154453D01*
X686819Y-153819D01*
X687453Y-152993D01*
X687851Y-152032D01*
X687855Y-152000D01*
D02*
G37*
G36*
X683000D02*
X680145D01*
X680149Y-152032D01*
X680547Y-152993D01*
X681181Y-153819D01*
X682007Y-154453D01*
X682968Y-154851D01*
X683000Y-154855D01*
Y-152000D01*
D02*
G37*
G36*
X617855D02*
X615000D01*
Y-154855D01*
X615032Y-154851D01*
X615993Y-154453D01*
X616819Y-153819D01*
X617453Y-152993D01*
X617851Y-152032D01*
X617855Y-152000D01*
D02*
G37*
G36*
X613000D02*
X610145D01*
X610149Y-152032D01*
X610547Y-152993D01*
X611181Y-153819D01*
X612007Y-154453D01*
X612968Y-154851D01*
X613000Y-154855D01*
Y-152000D01*
D02*
G37*
G36*
X483911Y-150732D02*
X483183Y-150828D01*
X482505Y-151109D01*
X481923Y-151555D01*
X481476Y-152138D01*
X481195Y-152816D01*
X481099Y-153543D01*
X481195Y-154271D01*
X481476Y-154949D01*
X481923Y-155531D01*
X482122Y-155684D01*
X482154Y-156183D01*
X481342Y-156995D01*
X481201Y-156937D01*
X480473Y-156841D01*
X479745Y-156937D01*
X479067Y-157218D01*
X478485Y-157664D01*
X478038Y-158247D01*
X477757Y-158925D01*
X477661Y-159652D01*
X477757Y-160380D01*
X478038Y-161058D01*
X478485Y-161640D01*
X479067Y-162087D01*
X479745Y-162368D01*
X480473Y-162464D01*
X481201Y-162368D01*
X481879Y-162087D01*
X482461Y-161640D01*
X482908Y-161058D01*
X483188Y-160380D01*
X483284Y-159652D01*
X483188Y-158925D01*
X483130Y-158784D01*
X484805Y-157109D01*
X484805Y-157109D01*
X484805Y-157109D01*
X484941Y-156905D01*
X485079Y-156699D01*
X485079Y-156699D01*
X485079Y-156699D01*
X485130Y-156440D01*
X485175Y-156215D01*
X485175Y-156215D01*
X485175Y-156215D01*
Y-156037D01*
X485316Y-155978D01*
X485899Y-155531D01*
X486345Y-154949D01*
X486626Y-154271D01*
X486722Y-153543D01*
X486626Y-152816D01*
X486345Y-152138D01*
X485899Y-151555D01*
X485316Y-151109D01*
X484638Y-150828D01*
X483911Y-150732D01*
D02*
G37*
G36*
X446566Y-147416D02*
X445838Y-147511D01*
X445160Y-147792D01*
X444578Y-148239D01*
X444131Y-148821D01*
X443850Y-149499D01*
X443754Y-150227D01*
X443850Y-150955D01*
X444131Y-151633D01*
X444578Y-152215D01*
X444730Y-152332D01*
X444762Y-152831D01*
X433839Y-163754D01*
X433697Y-163696D01*
X432970Y-163600D01*
X432242Y-163696D01*
X431564Y-163977D01*
X430982Y-164423D01*
X430535Y-165006D01*
X430254Y-165684D01*
X430158Y-166411D01*
X430254Y-167139D01*
X430535Y-167817D01*
X430982Y-168399D01*
X431564Y-168846D01*
X432242Y-169127D01*
X432970Y-169223D01*
X433697Y-169127D01*
X434375Y-168846D01*
X434958Y-168399D01*
X435404Y-167817D01*
X435685Y-167139D01*
X435781Y-166411D01*
X435685Y-165684D01*
X435627Y-165542D01*
X447460Y-153709D01*
X447734Y-153299D01*
X447830Y-152815D01*
Y-152720D01*
X447971Y-152662D01*
X448554Y-152215D01*
X449001Y-151633D01*
X449281Y-150955D01*
X449377Y-150227D01*
X449281Y-149499D01*
X449001Y-148821D01*
X448554Y-148239D01*
X447971Y-147792D01*
X447293Y-147511D01*
X446566Y-147416D01*
D02*
G37*
G36*
X684000Y-157228D02*
X683024Y-157356D01*
X682114Y-157733D01*
X681332Y-158333D01*
X680733Y-159114D01*
X680356Y-160024D01*
X680228Y-161000D01*
X680356Y-161976D01*
X680733Y-162886D01*
X681332Y-163668D01*
X682114Y-164267D01*
X683024Y-164644D01*
X684000Y-164772D01*
X684976Y-164644D01*
X685886Y-164267D01*
X686667Y-163668D01*
X687267Y-162886D01*
X687644Y-161976D01*
X687772Y-161000D01*
X687644Y-160024D01*
X687267Y-159114D01*
X686667Y-158333D01*
X685886Y-157733D01*
X684976Y-157356D01*
X684000Y-157228D01*
D02*
G37*
G36*
X614000D02*
X613024Y-157356D01*
X612114Y-157733D01*
X611333Y-158333D01*
X610733Y-159114D01*
X610356Y-160024D01*
X610228Y-161000D01*
X610356Y-161976D01*
X610733Y-162886D01*
X611333Y-163668D01*
X612114Y-164267D01*
X613024Y-164644D01*
X614000Y-164772D01*
X614976Y-164644D01*
X615886Y-164267D01*
X616668Y-163668D01*
X617267Y-162886D01*
X617644Y-161976D01*
X617772Y-161000D01*
X617644Y-160024D01*
X617267Y-159114D01*
X616668Y-158333D01*
X615886Y-157733D01*
X614976Y-157356D01*
X614000Y-157228D01*
D02*
G37*
G36*
X146996Y-146448D02*
X146268Y-146544D01*
X145590Y-146825D01*
X145008Y-147272D01*
X144561Y-147854D01*
X144280Y-148532D01*
X144185Y-149259D01*
X144280Y-149987D01*
X144561Y-150665D01*
X145008Y-151248D01*
X145590Y-151694D01*
X145732Y-151753D01*
Y-163228D01*
X145590Y-163287D01*
X145008Y-163734D01*
X144561Y-164316D01*
X144280Y-164994D01*
X144185Y-165722D01*
X144280Y-166449D01*
X144561Y-167127D01*
X145008Y-167710D01*
X145590Y-168156D01*
X146268Y-168437D01*
X146996Y-168533D01*
X147724Y-168437D01*
X148402Y-168156D01*
X148984Y-167710D01*
X149431Y-167127D01*
X149712Y-166449D01*
X149808Y-165722D01*
X149712Y-164994D01*
X149431Y-164316D01*
X148984Y-163734D01*
X148402Y-163287D01*
X148260Y-163228D01*
Y-151753D01*
X148402Y-151694D01*
X148984Y-151248D01*
X149431Y-150665D01*
X149712Y-149987D01*
X149808Y-149259D01*
X149712Y-148532D01*
X149431Y-147854D01*
X148984Y-147272D01*
X148402Y-146825D01*
X147724Y-146544D01*
X146996Y-146448D01*
D02*
G37*
G36*
X486273Y-166902D02*
X485545Y-166997D01*
X484867Y-167278D01*
X484285Y-167725D01*
X483838Y-168307D01*
X483557Y-168985D01*
X483461Y-169713D01*
X483557Y-170441D01*
X483616Y-170582D01*
X461812Y-192385D01*
X423743D01*
X423552Y-191924D01*
X440075Y-175400D01*
X440216Y-175459D01*
X440944Y-175554D01*
X441672Y-175459D01*
X442350Y-175178D01*
X442932Y-174731D01*
X443379Y-174149D01*
X443660Y-173471D01*
X443756Y-172743D01*
X443660Y-172015D01*
X443379Y-171337D01*
X442932Y-170755D01*
X442350Y-170308D01*
X441672Y-170027D01*
X440944Y-169931D01*
X440216Y-170027D01*
X439538Y-170308D01*
X438956Y-170755D01*
X438509Y-171337D01*
X438228Y-172015D01*
X438133Y-172743D01*
X438228Y-173471D01*
X438287Y-173612D01*
X419513Y-192385D01*
X374765D01*
X374574Y-191924D01*
X388007Y-178490D01*
X388148Y-178549D01*
X388876Y-178645D01*
X389604Y-178549D01*
X390282Y-178268D01*
X390864Y-177821D01*
X391311Y-177239D01*
X391592Y-176561D01*
X391687Y-175833D01*
X391592Y-175105D01*
X391311Y-174427D01*
X390864Y-173845D01*
X390282Y-173398D01*
X389604Y-173117D01*
X388876Y-173022D01*
X388148Y-173117D01*
X387470Y-173398D01*
X386888Y-173845D01*
X386441Y-174427D01*
X386160Y-175105D01*
X386065Y-175833D01*
X386160Y-176561D01*
X386219Y-176702D01*
X370535Y-192385D01*
X324456D01*
X324265Y-191924D01*
X337679Y-178509D01*
X337820Y-178568D01*
X338548Y-178664D01*
X339276Y-178568D01*
X339954Y-178287D01*
X340536Y-177840D01*
X340983Y-177258D01*
X341264Y-176580D01*
X341359Y-175852D01*
X341264Y-175125D01*
X340983Y-174447D01*
X340536Y-173864D01*
X339954Y-173418D01*
X339276Y-173137D01*
X338548Y-173041D01*
X337820Y-173137D01*
X337142Y-173418D01*
X336560Y-173864D01*
X336113Y-174447D01*
X335832Y-175125D01*
X335737Y-175852D01*
X335832Y-176580D01*
X335891Y-176721D01*
X320227Y-192385D01*
X276128D01*
X275936Y-191924D01*
X289924Y-177936D01*
X290065Y-177994D01*
X290792Y-178090D01*
X291520Y-177994D01*
X292198Y-177714D01*
X292780Y-177267D01*
X293227Y-176684D01*
X293508Y-176006D01*
X293604Y-175279D01*
X293508Y-174551D01*
X293227Y-173873D01*
X292780Y-173291D01*
X292198Y-172844D01*
X291520Y-172563D01*
X290792Y-172467D01*
X290065Y-172563D01*
X289387Y-172844D01*
X288805Y-173291D01*
X288358Y-173873D01*
X288077Y-174551D01*
X287981Y-175279D01*
X288077Y-176006D01*
X288135Y-176148D01*
X271898Y-192385D01*
X224830D01*
X224639Y-191924D01*
X238085Y-178478D01*
X238226Y-178536D01*
X238953Y-178632D01*
X239681Y-178536D01*
X240359Y-178256D01*
X240942Y-177809D01*
X241388Y-177227D01*
X241669Y-176549D01*
X241765Y-175821D01*
X241669Y-175093D01*
X241388Y-174415D01*
X240942Y-173833D01*
X240359Y-173386D01*
X239681Y-173105D01*
X238953Y-173009D01*
X238226Y-173105D01*
X237548Y-173386D01*
X236965Y-173833D01*
X236519Y-174415D01*
X236238Y-175093D01*
X236142Y-175821D01*
X236238Y-176549D01*
X236296Y-176690D01*
X220601Y-192385D01*
X175559D01*
X175368Y-191924D01*
X189541Y-177750D01*
X189682Y-177809D01*
X190410Y-177905D01*
X191138Y-177809D01*
X191816Y-177528D01*
X192398Y-177081D01*
X192845Y-176499D01*
X193125Y-175821D01*
X193221Y-175093D01*
X193125Y-174366D01*
X192845Y-173688D01*
X192398Y-173105D01*
X191816Y-172659D01*
X191138Y-172378D01*
X190410Y-172282D01*
X189682Y-172378D01*
X189004Y-172659D01*
X188422Y-173105D01*
X187975Y-173688D01*
X187694Y-174366D01*
X187598Y-175093D01*
X187694Y-175821D01*
X187753Y-175962D01*
X171329Y-192385D01*
X138666D01*
X138474Y-191924D01*
X153960Y-176438D01*
X154102Y-176496D01*
X154829Y-176592D01*
X155557Y-176496D01*
X156235Y-176216D01*
X156817Y-175769D01*
X157264Y-175186D01*
X157545Y-174508D01*
X157641Y-173781D01*
X157545Y-173053D01*
X157264Y-172375D01*
X156817Y-171793D01*
X156235Y-171346D01*
X155557Y-171065D01*
X154829Y-170969D01*
X154102Y-171065D01*
X153423Y-171346D01*
X152841Y-171793D01*
X152394Y-172375D01*
X152113Y-173053D01*
X152018Y-173781D01*
X152113Y-174508D01*
X152172Y-174650D01*
X134436Y-192385D01*
X111364D01*
X111305Y-192244D01*
X110859Y-191662D01*
X110276Y-191215D01*
X109598Y-190934D01*
X108870Y-190839D01*
X108143Y-190934D01*
X107465Y-191215D01*
X106883Y-191662D01*
X106436Y-192244D01*
X106155Y-192922D01*
X106059Y-193650D01*
X106155Y-194378D01*
X106436Y-195056D01*
X106883Y-195638D01*
X107465Y-196085D01*
X108143Y-196366D01*
X108870Y-196461D01*
X109598Y-196366D01*
X110276Y-196085D01*
X110859Y-195638D01*
X111305Y-195056D01*
X111364Y-194914D01*
X462336D01*
X462820Y-194818D01*
X463230Y-194544D01*
X485404Y-172370D01*
X485545Y-172429D01*
X486273Y-172524D01*
X487001Y-172429D01*
X487679Y-172148D01*
X488261Y-171701D01*
X488708Y-171119D01*
X488988Y-170441D01*
X489084Y-169713D01*
X488988Y-168985D01*
X488708Y-168307D01*
X488261Y-167725D01*
X487679Y-167278D01*
X487001Y-166997D01*
X486273Y-166902D01*
D02*
G37*
G36*
X707023Y-90560D02*
X706295Y-90656D01*
X705617Y-90936D01*
X705035Y-91383D01*
X704588Y-91966D01*
X704307Y-92644D01*
X704211Y-93371D01*
X704243Y-93613D01*
Y-95950D01*
X651000Y-149194D01*
X650558Y-149769D01*
X650280Y-150440D01*
X650186Y-151159D01*
Y-181376D01*
X650154Y-181617D01*
X650250Y-182345D01*
X650531Y-183023D01*
X650977Y-183605D01*
X651560Y-184052D01*
X652238Y-184333D01*
X652965Y-184429D01*
X653693Y-184333D01*
X654371Y-184052D01*
X654953Y-183605D01*
X655400Y-183023D01*
X655681Y-182345D01*
X655777Y-181617D01*
X655745Y-181376D01*
Y-152311D01*
X708988Y-99067D01*
X709430Y-98492D01*
X709708Y-97821D01*
X709802Y-97102D01*
Y-93613D01*
X709834Y-93371D01*
X709738Y-92644D01*
X709458Y-91966D01*
X709011Y-91383D01*
X708429Y-90936D01*
X707751Y-90656D01*
X707023Y-90560D01*
D02*
G37*
G36*
X86250Y-209392D02*
X85351Y-209510D01*
X84513Y-209857D01*
X83793Y-210410D01*
X83241Y-211129D01*
X82894Y-211967D01*
X82775Y-212866D01*
X82894Y-213766D01*
X83241Y-214604D01*
X83793Y-215323D01*
X84513Y-215876D01*
X85351Y-216223D01*
X86250Y-216341D01*
X87149Y-216223D01*
X87987Y-215876D01*
X88707Y-215323D01*
X89259Y-214604D01*
X89606Y-213766D01*
X89725Y-212866D01*
X89606Y-211967D01*
X89259Y-211129D01*
X88707Y-210410D01*
X87987Y-209857D01*
X87149Y-209510D01*
X86250Y-209392D01*
D02*
G37*
G36*
X56089Y-169306D02*
X55361Y-169402D01*
X54683Y-169683D01*
X54101Y-170129D01*
X53654Y-170712D01*
X53373Y-171390D01*
X53277Y-172117D01*
X53373Y-172845D01*
X53654Y-173523D01*
X54101Y-174105D01*
X54683Y-174552D01*
X54986Y-174678D01*
Y-213796D01*
X55082Y-214280D01*
X55356Y-214690D01*
X67451Y-226785D01*
X67861Y-227060D01*
X68345Y-227156D01*
X68836D01*
X68895Y-227297D01*
X69341Y-227879D01*
X69924Y-228326D01*
X70602Y-228607D01*
X71329Y-228703D01*
X72057Y-228607D01*
X72735Y-228326D01*
X73317Y-227879D01*
X73764Y-227297D01*
X74045Y-226619D01*
X74141Y-225891D01*
X74045Y-225164D01*
X73764Y-224486D01*
X73317Y-223903D01*
X72735Y-223457D01*
X72057Y-223176D01*
X71329Y-223080D01*
X70602Y-223176D01*
X69924Y-223457D01*
X69341Y-223903D01*
X69129Y-224180D01*
X68482Y-224240D01*
X57515Y-213273D01*
Y-174537D01*
X58077Y-174105D01*
X58524Y-173523D01*
X58805Y-172845D01*
X58900Y-172117D01*
X58805Y-171390D01*
X58524Y-170712D01*
X58077Y-170129D01*
X57495Y-169683D01*
X56817Y-169402D01*
X56089Y-169306D01*
D02*
G37*
G36*
X86250Y-234982D02*
X85351Y-235101D01*
X84513Y-235448D01*
X83793Y-236000D01*
X83241Y-236720D01*
X82894Y-237558D01*
X82775Y-238457D01*
X82894Y-239356D01*
X83241Y-240194D01*
X83793Y-240914D01*
X84513Y-241466D01*
X85351Y-241813D01*
X86250Y-241932D01*
X87149Y-241813D01*
X87987Y-241466D01*
X88707Y-240914D01*
X89259Y-240194D01*
X89606Y-239356D01*
X89725Y-238457D01*
X89606Y-237558D01*
X89259Y-236720D01*
X88707Y-236000D01*
X87987Y-235448D01*
X87149Y-235101D01*
X86250Y-234982D01*
D02*
G37*
G36*
X49500Y-250451D02*
Y-255500D01*
X54549D01*
X54530Y-255301D01*
X54180Y-254147D01*
X53612Y-253084D01*
X52847Y-252153D01*
X51916Y-251388D01*
X50853Y-250820D01*
X49699Y-250470D01*
X49500Y-250451D01*
D02*
G37*
G36*
X47500D02*
X47301Y-250470D01*
X46147Y-250820D01*
X45085Y-251388D01*
X44153Y-252153D01*
X43388Y-253084D01*
X42820Y-254147D01*
X42470Y-255301D01*
X42451Y-255500D01*
X47500D01*
Y-250451D01*
D02*
G37*
G36*
X29500D02*
Y-255500D01*
X34549D01*
X34530Y-255301D01*
X34180Y-254147D01*
X33612Y-253084D01*
X32847Y-252153D01*
X31916Y-251388D01*
X30853Y-250820D01*
X29699Y-250470D01*
X29500Y-250451D01*
D02*
G37*
G36*
X27500D02*
X27301Y-250470D01*
X26147Y-250820D01*
X25084Y-251388D01*
X24153Y-252153D01*
X23388Y-253084D01*
X22820Y-254147D01*
X22470Y-255301D01*
X22451Y-255500D01*
X27500D01*
Y-250451D01*
D02*
G37*
G36*
X54549Y-257500D02*
X49500D01*
Y-262549D01*
X49699Y-262530D01*
X50853Y-262180D01*
X51916Y-261612D01*
X52847Y-260847D01*
X53612Y-259915D01*
X54180Y-258853D01*
X54530Y-257699D01*
X54549Y-257500D01*
D02*
G37*
G36*
X47500D02*
X42451D01*
X42470Y-257699D01*
X42820Y-258853D01*
X43388Y-259915D01*
X44153Y-260847D01*
X45085Y-261612D01*
X46147Y-262180D01*
X47301Y-262530D01*
X47500Y-262549D01*
Y-257500D01*
D02*
G37*
G36*
X34549D02*
X29500D01*
Y-262549D01*
X29699Y-262530D01*
X30853Y-262180D01*
X31916Y-261612D01*
X32847Y-260847D01*
X33612Y-259915D01*
X34180Y-258853D01*
X34530Y-257699D01*
X34549Y-257500D01*
D02*
G37*
G36*
X27500D02*
X22451D01*
X22470Y-257699D01*
X22820Y-258853D01*
X23388Y-259915D01*
X24153Y-260847D01*
X25084Y-261612D01*
X26147Y-262180D01*
X27301Y-262530D01*
X27500Y-262549D01*
Y-257500D01*
D02*
G37*
G36*
X507000Y-259451D02*
Y-264500D01*
X512049D01*
X512030Y-264301D01*
X511680Y-263147D01*
X511112Y-262085D01*
X510347Y-261153D01*
X509415Y-260388D01*
X508353Y-259820D01*
X507199Y-259470D01*
X507000Y-259451D01*
D02*
G37*
G36*
X505000D02*
X504801Y-259470D01*
X503647Y-259820D01*
X502585Y-260388D01*
X501653Y-261153D01*
X500888Y-262085D01*
X500320Y-263147D01*
X499970Y-264301D01*
X499951Y-264500D01*
X505000D01*
Y-259451D01*
D02*
G37*
G36*
X487000D02*
Y-264500D01*
X492049D01*
X492030Y-264301D01*
X491680Y-263147D01*
X491112Y-262085D01*
X490347Y-261153D01*
X489416Y-260388D01*
X488353Y-259820D01*
X487199Y-259470D01*
X487000Y-259451D01*
D02*
G37*
G36*
X485000D02*
X484801Y-259470D01*
X483647Y-259820D01*
X482584Y-260388D01*
X481653Y-261153D01*
X480888Y-262085D01*
X480320Y-263147D01*
X479970Y-264301D01*
X479951Y-264500D01*
X485000D01*
Y-259451D01*
D02*
G37*
G36*
X514089Y-191715D02*
X513361Y-191811D01*
X512683Y-192092D01*
X512101Y-192539D01*
X511654Y-193121D01*
X511373Y-193799D01*
X511277Y-194527D01*
X511309Y-194768D01*
Y-196946D01*
X511404Y-197665D01*
X511681Y-198336D01*
X512123Y-198911D01*
X576093Y-262881D01*
X576109Y-262918D01*
X576558Y-263489D01*
X577345Y-264257D01*
X577156Y-264720D01*
X572741D01*
X572500Y-264688D01*
X571772Y-264784D01*
X571094Y-265065D01*
X570512Y-265512D01*
X570065Y-266094D01*
X569784Y-266772D01*
X569689Y-267500D01*
X569784Y-268228D01*
X570065Y-268906D01*
X570512Y-269488D01*
X571094Y-269935D01*
X571772Y-270216D01*
X572500Y-270311D01*
X572741Y-270280D01*
X576760D01*
Y-273895D01*
X584240D01*
Y-271689D01*
X584702Y-271498D01*
X586281Y-273077D01*
X593126Y-279922D01*
X608477Y-295273D01*
X609053Y-295714D01*
X609723Y-295992D01*
X610442Y-296087D01*
X638309D01*
X638608Y-296316D01*
X639446Y-296663D01*
X640346Y-296782D01*
X641245Y-296663D01*
X642083Y-296316D01*
X642803Y-295764D01*
X643355Y-295044D01*
X643702Y-294206D01*
X643820Y-293307D01*
X643702Y-292408D01*
X643355Y-291570D01*
X642803Y-290850D01*
X642083Y-290298D01*
X641245Y-289951D01*
X640346Y-289832D01*
X639446Y-289951D01*
X638608Y-290298D01*
X638309Y-290527D01*
X611594D01*
X603981Y-282915D01*
X604173Y-282453D01*
X606529D01*
Y-279000D01*
X603470D01*
Y-281229D01*
X602970Y-281497D01*
X602895Y-281447D01*
Y-274760D01*
X596202D01*
Y-274760D01*
X595936Y-274870D01*
X590241Y-269174D01*
X590216Y-269142D01*
X586608Y-265534D01*
X586576Y-265510D01*
X586307Y-265241D01*
X586294Y-265231D01*
X586284Y-265218D01*
X582269Y-261296D01*
X581935Y-260861D01*
X516868Y-195794D01*
Y-194768D01*
X516900Y-194527D01*
X516804Y-193799D01*
X516523Y-193121D01*
X516077Y-192539D01*
X515494Y-192092D01*
X514816Y-191811D01*
X514089Y-191715D01*
D02*
G37*
G36*
X512049Y-266500D02*
X507000D01*
Y-271549D01*
X507199Y-271530D01*
X508353Y-271180D01*
X509415Y-270612D01*
X510347Y-269847D01*
X511112Y-268916D01*
X511680Y-267853D01*
X512030Y-266699D01*
X512049Y-266500D01*
D02*
G37*
G36*
X505000D02*
X499951D01*
X499970Y-266699D01*
X500320Y-267853D01*
X500888Y-268916D01*
X501653Y-269847D01*
X502585Y-270612D01*
X503647Y-271180D01*
X504801Y-271530D01*
X505000Y-271549D01*
Y-266500D01*
D02*
G37*
G36*
X492049D02*
X487000D01*
Y-271549D01*
X487199Y-271530D01*
X488353Y-271180D01*
X489416Y-270612D01*
X490347Y-269847D01*
X491112Y-268916D01*
X491680Y-267853D01*
X492030Y-266699D01*
X492049Y-266500D01*
D02*
G37*
G36*
X485000D02*
X479951D01*
X479970Y-266699D01*
X480320Y-267853D01*
X480888Y-268916D01*
X481653Y-269847D01*
X482584Y-270612D01*
X483647Y-271180D01*
X484801Y-271530D01*
X485000Y-271549D01*
Y-266500D01*
D02*
G37*
G36*
X38500Y-260742D02*
X37010Y-260938D01*
X35621Y-261513D01*
X34429Y-262428D01*
X33514Y-263621D01*
X32938Y-265010D01*
X32742Y-266500D01*
X32938Y-267990D01*
X33514Y-269379D01*
X34429Y-270571D01*
X35621Y-271486D01*
X37010Y-272062D01*
X38500Y-272258D01*
X39990Y-272062D01*
X41379Y-271486D01*
X42571Y-270571D01*
X43486Y-269379D01*
X44062Y-267990D01*
X44258Y-266500D01*
X44062Y-265010D01*
X43486Y-263621D01*
X42571Y-262428D01*
X41379Y-261513D01*
X39990Y-260938D01*
X38500Y-260742D01*
D02*
G37*
G36*
X49500Y-270451D02*
Y-275500D01*
X54549D01*
X54530Y-275301D01*
X54180Y-274147D01*
X53612Y-273084D01*
X52847Y-272153D01*
X51916Y-271388D01*
X50853Y-270820D01*
X49699Y-270470D01*
X49500Y-270451D01*
D02*
G37*
G36*
X47500D02*
X47301Y-270470D01*
X46147Y-270820D01*
X45085Y-271388D01*
X44153Y-272153D01*
X43388Y-273084D01*
X42820Y-274147D01*
X42470Y-275301D01*
X42451Y-275500D01*
X47500D01*
Y-270451D01*
D02*
G37*
G36*
X29500D02*
Y-275500D01*
X34549D01*
X34530Y-275301D01*
X34180Y-274147D01*
X33612Y-273084D01*
X32847Y-272153D01*
X31916Y-271388D01*
X30853Y-270820D01*
X29699Y-270470D01*
X29500Y-270451D01*
D02*
G37*
G36*
X27500D02*
X27301Y-270470D01*
X26147Y-270820D01*
X25084Y-271388D01*
X24153Y-272153D01*
X23388Y-273084D01*
X22820Y-274147D01*
X22470Y-275301D01*
X22451Y-275500D01*
X27500D01*
Y-270451D01*
D02*
G37*
G36*
X584453Y-274470D02*
X581000D01*
Y-277529D01*
X584453D01*
Y-274470D01*
D02*
G37*
G36*
X580000D02*
X576547D01*
Y-277529D01*
X580000D01*
Y-274470D01*
D02*
G37*
G36*
X610588Y-274547D02*
X607529D01*
Y-278000D01*
X610588D01*
Y-274547D01*
D02*
G37*
G36*
X606529D02*
X603470D01*
Y-278000D01*
X606529D01*
Y-274547D01*
D02*
G37*
G36*
X496000Y-269742D02*
X494510Y-269938D01*
X493121Y-270514D01*
X491928Y-271428D01*
X491013Y-272621D01*
X490438Y-274010D01*
X490242Y-275500D01*
X490438Y-276990D01*
X491013Y-278379D01*
X491928Y-279572D01*
X493121Y-280486D01*
X494510Y-281062D01*
X496000Y-281258D01*
X497490Y-281062D01*
X498879Y-280486D01*
X500071Y-279572D01*
X500986Y-278379D01*
X501562Y-276990D01*
X501758Y-275500D01*
X501562Y-274010D01*
X500986Y-272621D01*
X500071Y-271428D01*
X498879Y-270514D01*
X497490Y-269938D01*
X496000Y-269742D01*
D02*
G37*
G36*
X584453Y-278529D02*
X581000D01*
Y-281588D01*
X584453D01*
Y-278529D01*
D02*
G37*
G36*
X580000D02*
X576547D01*
Y-281588D01*
X580000D01*
Y-278529D01*
D02*
G37*
G36*
X610588Y-279000D02*
X607529D01*
Y-282453D01*
X610588D01*
Y-279000D01*
D02*
G37*
G36*
X54549Y-277500D02*
X49500D01*
Y-282549D01*
X49699Y-282530D01*
X50853Y-282180D01*
X51916Y-281612D01*
X52847Y-280847D01*
X53612Y-279915D01*
X54180Y-278853D01*
X54530Y-277699D01*
X54549Y-277500D01*
D02*
G37*
G36*
X47500D02*
X42451D01*
X42470Y-277699D01*
X42820Y-278853D01*
X43388Y-279915D01*
X44153Y-280847D01*
X45085Y-281612D01*
X46147Y-282180D01*
X47301Y-282530D01*
X47500Y-282549D01*
Y-277500D01*
D02*
G37*
G36*
X34549D02*
X29500D01*
Y-282549D01*
X29699Y-282530D01*
X30853Y-282180D01*
X31916Y-281612D01*
X32847Y-280847D01*
X33612Y-279915D01*
X34180Y-278853D01*
X34530Y-277699D01*
X34549Y-277500D01*
D02*
G37*
G36*
X27500D02*
X22451D01*
X22470Y-277699D01*
X22820Y-278853D01*
X23388Y-279915D01*
X24153Y-280847D01*
X25084Y-281612D01*
X26147Y-282180D01*
X27301Y-282530D01*
X27500Y-282549D01*
Y-277500D01*
D02*
G37*
G36*
X507000Y-279451D02*
Y-284500D01*
X512049D01*
X512030Y-284301D01*
X511680Y-283147D01*
X511112Y-282084D01*
X510347Y-281153D01*
X509415Y-280388D01*
X508353Y-279820D01*
X507199Y-279470D01*
X507000Y-279451D01*
D02*
G37*
G36*
X505000D02*
X504801Y-279470D01*
X503647Y-279820D01*
X502585Y-280388D01*
X501653Y-281153D01*
X500888Y-282084D01*
X500320Y-283147D01*
X499970Y-284301D01*
X499951Y-284500D01*
X505000D01*
Y-279451D01*
D02*
G37*
G36*
X487000D02*
Y-284500D01*
X492049D01*
X492030Y-284301D01*
X491680Y-283147D01*
X491112Y-282084D01*
X490347Y-281153D01*
X489416Y-280388D01*
X488353Y-279820D01*
X487199Y-279470D01*
X487000Y-279451D01*
D02*
G37*
G36*
X485000D02*
X484801Y-279470D01*
X483647Y-279820D01*
X482584Y-280388D01*
X481653Y-281153D01*
X480888Y-282084D01*
X480320Y-283147D01*
X479970Y-284301D01*
X479951Y-284500D01*
X485000D01*
Y-279451D01*
D02*
G37*
G36*
X512049Y-286500D02*
X507000D01*
Y-291549D01*
X507199Y-291530D01*
X508353Y-291180D01*
X509415Y-290612D01*
X510347Y-289847D01*
X511112Y-288915D01*
X511680Y-287853D01*
X512030Y-286699D01*
X512049Y-286500D01*
D02*
G37*
G36*
X505000D02*
X499951D01*
X499970Y-286699D01*
X500320Y-287853D01*
X500888Y-288915D01*
X501653Y-289847D01*
X502585Y-290612D01*
X503647Y-291180D01*
X504801Y-291530D01*
X505000Y-291549D01*
Y-286500D01*
D02*
G37*
G36*
X492049D02*
X487000D01*
Y-291549D01*
X487199Y-291530D01*
X488353Y-291180D01*
X489416Y-290612D01*
X490347Y-289847D01*
X491112Y-288915D01*
X491680Y-287853D01*
X492030Y-286699D01*
X492049Y-286500D01*
D02*
G37*
G36*
X485000D02*
X479951D01*
X479970Y-286699D01*
X480320Y-287853D01*
X480888Y-288915D01*
X481653Y-289847D01*
X482584Y-290612D01*
X483647Y-291180D01*
X484801Y-291530D01*
X485000Y-291549D01*
Y-286500D01*
D02*
G37*
G36*
X666436Y-289684D02*
Y-292807D01*
X669559D01*
X669500Y-292352D01*
X669131Y-291463D01*
X668545Y-290699D01*
X667781Y-290112D01*
X666891Y-289744D01*
X666436Y-289684D01*
D02*
G37*
G36*
X665436D02*
X664981Y-289744D01*
X664092Y-290112D01*
X663328Y-290699D01*
X662741Y-291463D01*
X662373Y-292352D01*
X662313Y-292807D01*
X665436D01*
Y-289684D01*
D02*
G37*
G36*
X669559Y-293807D02*
X666436D01*
Y-296930D01*
X666891Y-296870D01*
X667781Y-296502D01*
X668545Y-295916D01*
X669131Y-295152D01*
X669500Y-294262D01*
X669559Y-293807D01*
D02*
G37*
G36*
X665436D02*
X662313D01*
X662373Y-294262D01*
X662741Y-295152D01*
X663328Y-295916D01*
X664092Y-296502D01*
X664981Y-296870D01*
X665436Y-296930D01*
Y-293807D01*
D02*
G37*
%LPD*%
G36*
X153543Y-94488D02*
X114173D01*
Y-62992D01*
X153543D01*
Y-94488D01*
D02*
G37*
%LPC*%
G36*
X143996Y-74019D02*
X139763D01*
Y-80416D01*
X143996D01*
Y-74019D01*
D02*
G37*
G36*
X137763D02*
X133531D01*
Y-80416D01*
X137763D01*
Y-74019D01*
D02*
G37*
G36*
X143996Y-82416D02*
X139763D01*
Y-88814D01*
X143996D01*
Y-82416D01*
D02*
G37*
G36*
X137763D02*
X133531D01*
Y-88814D01*
X137763D01*
Y-82416D01*
D02*
G37*
%LPD*%
D12*
X241085Y-122909D02*
X241211Y-126059D01*
D68*
X205161Y-51542D02*
D03*
Y-62566D02*
D03*
D74*
X459012Y-42000D02*
D03*
X447988D02*
D03*
X473988Y-41500D02*
D03*
X485012D02*
D03*
D76*
X153624Y-99948D02*
D03*
X161104D02*
D03*
X607029Y-278500D02*
D03*
X599548D02*
D03*
D79*
X161598Y-72361D02*
D03*
Y-81416D02*
D03*
Y-90471D02*
D03*
D80*
X138763Y-81416D02*
D03*
D85*
X322000Y-85240D02*
D03*
Y-77760D02*
D03*
X580500Y-278029D02*
D03*
Y-270548D02*
D03*
X176240Y-82409D02*
D03*
Y-89889D02*
D03*
D87*
X584342Y-267207D02*
X584580Y-267444D01*
X578500Y-261500D02*
X584342Y-267207D01*
X581000Y-267500D02*
X584524D01*
X595092Y-277957D02*
X610442Y-293307D01*
X588247Y-271111D02*
X595092Y-277957D01*
X584580Y-267444D02*
X584635Y-267500D01*
X588247Y-271111D01*
X584635Y-267500D02*
X584643D01*
X584524D02*
X584635D01*
X575296D02*
X581000D01*
X514089Y-196946D02*
X579970Y-262826D01*
X514089Y-196946D02*
Y-194527D01*
X572500Y-267500D02*
X575296D01*
X584643D02*
X588250Y-271108D01*
X584524Y-267500D02*
X584580Y-267444D01*
X652965Y-151159D02*
X707023Y-97102D01*
X652965Y-181617D02*
Y-151159D01*
X707023Y-97102D02*
Y-93371D01*
X241211Y-137052D02*
X347002D01*
X608476Y-90356D02*
X651757Y-47074D01*
X487571Y-114321D02*
X511535Y-90356D01*
X353758Y-130296D02*
X487571D01*
X610442Y-293307D02*
X640346D01*
X135568Y-12192D02*
X215655D01*
X269586Y-79074D02*
X302931D01*
X118858Y-125864D02*
X161558D01*
X70029Y-65793D02*
X104215Y-31607D01*
X71015Y-214896D02*
Y-173706D01*
X314618Y-79074D02*
X330828Y-62865D01*
X215655Y-12192D02*
X234775Y-31311D01*
X178990Y-126783D02*
X203300Y-102473D01*
X161104Y-112292D02*
Y-99948D01*
X116152Y-31607D02*
X135568Y-12192D01*
X81239Y-107286D02*
X109338Y-135384D01*
X71015Y-173706D02*
X109338Y-135384D01*
X511535Y-90356D02*
X608476D01*
X493460Y-41439D02*
X493961Y-41940D01*
X485147Y-41439D02*
X493460D01*
X394268Y-50168D02*
X401546Y-57447D01*
X330828Y-62865D02*
X362670D01*
X330563Y-62924D02*
X362610D01*
X367244Y-58290D02*
X375366Y-50168D01*
X314618Y-79074D02*
X315317Y-79071D01*
X314618Y-79074D02*
X315314D01*
X302931D02*
X314618D01*
X161104Y-99948D02*
X161598Y-99454D01*
Y-94310D01*
X161104Y-112292D02*
X161558Y-112747D01*
Y-125864D02*
Y-112747D01*
Y-125864D02*
X178990D01*
Y-137366D02*
X241211Y-137052D01*
X104215Y-31607D02*
X116152D01*
X72639Y-87411D02*
X81239Y-96011D01*
X70029Y-87411D02*
X72639D01*
X347002Y-137052D02*
X353758Y-130296D01*
X315943Y-77544D02*
X330563Y-62924D01*
X302931Y-79074D02*
Y-73219D01*
X241211Y-137052D02*
Y-126059D01*
X178990Y-137366D02*
Y-126783D01*
X109338Y-135384D02*
X118858Y-125864D01*
X81239Y-107286D02*
Y-96011D01*
X70029Y-87411D02*
Y-65793D01*
X487571Y-130296D02*
Y-114321D01*
X438843Y-41940D02*
Y-34066D01*
Y-41940D02*
X439128Y-42225D01*
X447884D01*
X375366Y-50168D02*
X394268D01*
X362670Y-62865D02*
X367244Y-58290D01*
X362610Y-62924D02*
X367244Y-58290D01*
X315314Y-79074D02*
X315317Y-79071D01*
X315943Y-77544D02*
X321952D01*
X234775Y-31311D02*
X239830D01*
X205258Y-26114D02*
X205344Y-26200D01*
Y-32762D02*
Y-26200D01*
X203300Y-102473D02*
X218565D01*
X178990Y-126783D02*
Y-125864D01*
D89*
X297922Y-108644D02*
X298144D01*
X288656Y-117909D02*
X297922Y-108644D01*
X286347Y-115342D02*
X292788Y-108901D01*
X268786Y-115342D02*
X286347D01*
X266062Y-112619D02*
X268786Y-115342D01*
X283339Y-113571D02*
X287620Y-109290D01*
X271950Y-113571D02*
X283339D01*
X298017Y-92872D02*
X343812D01*
X343932Y-92753D01*
X297897D02*
X298017Y-92872D01*
X335471Y-89157D02*
X336128Y-88500D01*
X292859Y-89157D02*
X335471D01*
X292587Y-89429D02*
X292859Y-89157D01*
X336128Y-88500D02*
X338109D01*
X339128Y-89514D01*
X385318D01*
X196227Y-76077D02*
X201662Y-70642D01*
X187347Y-82508D02*
Y-81416D01*
X176615D02*
X187347D01*
X138763D02*
X176615D01*
X187347D02*
X190887D01*
X196227Y-76077D01*
X108870Y-193650D02*
X462336D01*
X108870D02*
X420037D01*
X108870D02*
X371059D01*
X266252Y-92909D02*
X282535Y-109193D01*
X329948Y-73528D02*
X401056D01*
X344419Y-93240D02*
X391331D01*
X371059Y-193650D02*
X388876Y-175833D01*
X262345Y-117909D02*
X288656D01*
X108870Y-193650D02*
X320750D01*
X108870D02*
X272422D01*
X108870D02*
X221124D01*
X108870D02*
X171853D01*
X415255Y-44578D02*
X436403Y-65725D01*
X412583Y-46561D02*
X442242Y-76220D01*
X241085Y-76827D02*
X259316Y-58596D01*
X395669Y-44578D02*
X415255D01*
X432970Y-166411D02*
X446566Y-152815D01*
X330857Y-168453D02*
X348497Y-150812D01*
X187526Y-169044D02*
X206026Y-150545D01*
X233341Y-170165D02*
X252533Y-150973D01*
X436403Y-65725D02*
X484870D01*
X390478Y-46561D02*
X412583D01*
X462336Y-193650D02*
X486273Y-169713D01*
X420037Y-193650D02*
X440944Y-172743D01*
X334426Y-85453D02*
X380665D01*
X287757Y-85882D02*
X333997D01*
X272422Y-193650D02*
X290792Y-175279D01*
X240210Y-20098D02*
X259316Y-39204D01*
X216553Y-117909D02*
X241085D01*
X221124Y-193650D02*
X238953Y-175821D01*
X70620Y-112548D02*
X78645Y-120572D01*
X108870Y-193650D02*
X134960D01*
X56250Y-213796D02*
Y-172279D01*
X393089Y-41998D02*
X395669Y-44578D01*
X387528Y-43611D02*
X390478Y-46561D01*
X380572Y-168748D02*
X398507Y-150812D01*
X283615Y-168696D02*
X301304Y-151007D01*
X259316Y-58596D02*
Y-39204D01*
X263609Y-77232D02*
X268787Y-72053D01*
X266389Y-97909D02*
X277477Y-108998D01*
X266512Y-102909D02*
X272113Y-108510D01*
X205344Y-51360D02*
Y-44573D01*
X146996Y-165722D02*
Y-149259D01*
X70620Y-112548D02*
Y-97678D01*
X56250Y-213796D02*
X68345Y-225891D01*
X484802Y-65658D02*
X484870Y-65725D01*
X480473Y-159652D02*
X483911Y-156215D01*
Y-153543D01*
X446566Y-152815D02*
Y-150227D01*
X393089Y-39465D02*
X393196Y-39358D01*
X393089Y-41998D02*
Y-39465D01*
X387528Y-43611D02*
Y-34099D01*
X392269Y-29358D01*
X393196D01*
X391331Y-93240D02*
X391526Y-93045D01*
X385318Y-89514D02*
X385821Y-89012D01*
X380665Y-85453D02*
X380772Y-85346D01*
X398507Y-150812D02*
X398622D01*
X343932Y-92753D02*
X344419Y-93240D01*
X348497Y-150812D02*
X351284D01*
X329416Y-74060D02*
X329948Y-73528D01*
X321952Y-85453D02*
X334426D01*
X321952D02*
Y-85024D01*
X333997Y-85882D02*
X334426Y-85453D01*
X320750Y-193650D02*
X338548Y-175852D01*
X301304Y-151007D02*
X302240D01*
X283179Y-168696D02*
X283615D01*
X268787Y-72053D02*
X278016D01*
X262345Y-87910D02*
X262683Y-88248D01*
X263609D01*
Y-77232D01*
X262345Y-97909D02*
X266389D01*
X262345Y-92909D02*
X266252D01*
X262345Y-102909D02*
X266512D01*
X262345Y-112619D02*
X266062D01*
X262345Y-112909D02*
Y-112619D01*
X266288Y-107909D02*
X271950Y-113571D01*
X262345Y-107909D02*
X266288D01*
X241085Y-87910D02*
Y-76827D01*
X231765Y-170165D02*
X233341D01*
X201637Y-70642D02*
X201662D01*
X205161Y-67142D02*
Y-62566D01*
X201662Y-70642D02*
X205161Y-67142D01*
Y-51542D02*
X205344Y-51360D01*
X196227Y-76234D02*
Y-76077D01*
X206972Y-108329D02*
X216553Y-117909D01*
X176240Y-82409D02*
X176615Y-81416D01*
X186675Y-82508D02*
X187347D01*
X176186Y-82463D02*
X176240Y-82409D01*
X176186Y-82603D02*
Y-82463D01*
X171853Y-193650D02*
X190410Y-175093D01*
X182765Y-169044D02*
X187526D01*
X134960Y-193650D02*
X154829Y-173781D01*
X56089Y-172117D02*
X56250Y-172279D01*
X68345Y-225891D02*
X71329D01*
D92*
X438843Y-22255D02*
Y-14381D01*
D96*
X161598Y-94310D02*
Y-90471D01*
D101*
X614000Y-161000D02*
D03*
X684000Y-151000D02*
D03*
X614000D02*
D03*
X684000Y-161000D02*
D03*
X527247Y-138167D02*
D03*
X517404Y-128325D02*
D03*
X438843Y-41940D02*
D03*
X505772Y-28161D02*
D03*
X493961Y-41940D02*
D03*
X438843Y-14381D02*
D03*
X493961D02*
D03*
X438843Y-22255D02*
D03*
Y-34066D02*
D03*
X582209Y-131111D02*
D03*
Y-75993D02*
D03*
X660950Y-131111D02*
D03*
Y-75993D02*
D03*
D102*
X486000Y-285500D02*
D03*
X506000D02*
D03*
Y-265500D02*
D03*
X486000D02*
D03*
X28500Y-276500D02*
D03*
X48500D02*
D03*
Y-256500D02*
D03*
X28500D02*
D03*
X352857Y-47634D02*
D03*
X332857D02*
D03*
Y-27634D02*
D03*
X352857D02*
D03*
D103*
X496000Y-275500D02*
D03*
X38500Y-266500D02*
D03*
X342857Y-37634D02*
D03*
D104*
X86250Y-212866D02*
D03*
Y-238457D02*
D03*
X640346Y-293307D02*
D03*
X665936D02*
D03*
D105*
X723025Y-60011D02*
D03*
D106*
Y-45011D02*
D03*
D107*
X487571Y-130296D02*
D03*
D108*
Y-140296D02*
D03*
X423196Y-29358D02*
D03*
X413196Y-39358D02*
D03*
Y-29358D02*
D03*
X403196Y-39358D02*
D03*
Y-29358D02*
D03*
X393196Y-39358D02*
D03*
Y-29358D02*
D03*
D109*
X537089Y-128325D02*
D03*
D110*
X523573Y-18774D02*
D03*
X577378Y-53800D02*
D03*
D111*
X523573Y-53774D02*
D03*
X577378Y-18800D02*
D03*
D112*
X423196Y-39358D02*
D03*
D113*
X625000Y-151500D02*
D03*
X714000Y-271000D02*
D03*
X572500Y-267500D02*
D03*
X14500Y-269000D02*
D03*
X536000Y-283000D02*
D03*
X517000Y-284000D02*
D03*
X514500Y-257000D02*
D03*
X485500Y-255500D02*
D03*
X487000Y-295500D02*
D03*
X503000Y-296000D02*
D03*
X494000Y-295000D02*
D03*
X498000Y-255000D02*
D03*
X475000Y-288000D02*
D03*
X486500Y-249500D02*
D03*
X481500Y-251000D02*
D03*
X475500Y-264500D02*
D03*
X665500Y-261000D02*
D03*
X670500Y-260500D02*
D03*
X673000Y-264000D02*
D03*
X677500Y-263500D02*
D03*
X163000Y-261500D02*
D03*
X160500Y-265500D02*
D03*
X298144Y-108644D02*
D03*
X292788Y-108901D02*
D03*
X287620Y-109290D02*
D03*
X319465Y-5229D02*
D03*
X291678Y-29855D02*
D03*
X293470Y-22622D02*
D03*
X339128Y-89514D02*
D03*
X652000Y-243000D02*
D03*
X656500Y-242500D02*
D03*
X677500Y-275000D02*
D03*
X680000Y-280000D02*
D03*
X683000Y-276000D02*
D03*
X686000Y-279500D02*
D03*
X688500Y-276000D02*
D03*
X685500Y-272500D02*
D03*
X682000Y-270500D02*
D03*
X689000Y-265000D02*
D03*
X668000Y-257500D02*
D03*
Y-264500D02*
D03*
X662500Y-264000D02*
D03*
X664000Y-257000D02*
D03*
X656000Y-259000D02*
D03*
X652000Y-259500D02*
D03*
X624000Y-257000D02*
D03*
X618500Y-257500D02*
D03*
X633000Y-257000D02*
D03*
X638000D02*
D03*
X642500D02*
D03*
X648000D02*
D03*
X645500Y-264000D02*
D03*
X656500Y-271000D02*
D03*
X649500D02*
D03*
X646500Y-275000D02*
D03*
X649000Y-278500D02*
D03*
X642000Y-275500D02*
D03*
X638500Y-278500D02*
D03*
X189895Y-56243D02*
D03*
X187691Y-76370D02*
D03*
X672826Y-165168D02*
D03*
X654500Y-138000D02*
D03*
X702528Y-167738D02*
D03*
X701671Y-164597D02*
D03*
X705603Y-161661D02*
D03*
X700386Y-195584D02*
D03*
X702528Y-223287D02*
D03*
X703500Y-252000D02*
D03*
X702099Y-284403D02*
D03*
X522461Y-43362D02*
D03*
X554304Y-45219D02*
D03*
X554590Y-75348D02*
D03*
X581443Y-223112D02*
D03*
X552074Y-223656D02*
D03*
X523802Y-224442D02*
D03*
X401056Y-73528D02*
D03*
X432970Y-166411D02*
D03*
X400337Y-255786D02*
D03*
X372746Y-167530D02*
D03*
X315136Y-167389D02*
D03*
X189656Y-43501D02*
D03*
X159674Y-166054D02*
D03*
X220161Y-167127D02*
D03*
X225561Y-166724D02*
D03*
X225550Y-107361D02*
D03*
X252881Y-76820D02*
D03*
X164256Y-251902D02*
D03*
X252251Y-252111D02*
D03*
X194406Y-223048D02*
D03*
X250833Y-256249D02*
D03*
X161840Y-222334D02*
D03*
X162800Y-256592D02*
D03*
X44896Y-46328D02*
D03*
X72852Y-13566D02*
D03*
X75360Y-105653D02*
D03*
X69922Y-281572D02*
D03*
X132537Y-222136D02*
D03*
X71329Y-225891D02*
D03*
X675898Y-30711D02*
D03*
X640566Y-18749D02*
D03*
X645063Y-33986D02*
D03*
X701848Y-62104D02*
D03*
X640849Y-95134D02*
D03*
X644500Y-158500D02*
D03*
X644215Y-148872D02*
D03*
X641696Y-170166D02*
D03*
X669684Y-171451D02*
D03*
X702670Y-172022D02*
D03*
X703813Y-179591D02*
D03*
X703385Y-185017D02*
D03*
X700814Y-189586D02*
D03*
X705590Y-172765D02*
D03*
X702670Y-200439D02*
D03*
X703242Y-207008D02*
D03*
X702813Y-211434D02*
D03*
Y-216718D02*
D03*
X699815Y-228427D02*
D03*
X701957Y-243135D02*
D03*
X705526Y-247562D02*
D03*
X672398Y-245848D02*
D03*
X705311Y-232445D02*
D03*
X640411Y-245848D02*
D03*
X643552Y-245991D02*
D03*
X703000Y-264000D02*
D03*
X705241Y-268982D02*
D03*
X705098Y-275122D02*
D03*
X704098Y-280548D02*
D03*
X645822Y-259902D02*
D03*
X675253Y-278549D02*
D03*
X674682Y-258272D02*
D03*
X641268Y-263270D02*
D03*
X704146Y-295424D02*
D03*
X672803Y-297394D02*
D03*
X615422Y-11376D02*
D03*
X584720Y-10090D02*
D03*
X613761Y-7989D02*
D03*
X580579Y-27940D02*
D03*
X553019Y-39506D02*
D03*
X520604Y-28939D02*
D03*
X581864Y-64353D02*
D03*
X610709Y-59070D02*
D03*
X613637Y-50417D02*
D03*
X615188Y-58850D02*
D03*
X581883Y-99873D02*
D03*
X613832Y-99189D02*
D03*
X579715Y-116766D02*
D03*
X582150Y-146890D02*
D03*
X552979Y-159942D02*
D03*
X581586Y-156701D02*
D03*
X551576Y-173982D02*
D03*
X551890Y-187019D02*
D03*
X553743Y-212342D02*
D03*
X585417Y-240045D02*
D03*
X522318Y-248561D02*
D03*
X550449Y-249847D02*
D03*
X551163Y-243706D02*
D03*
X579579Y-247276D02*
D03*
X613000Y-245000D02*
D03*
X612565Y-233139D02*
D03*
X585060Y-294325D02*
D03*
X550504Y-295226D02*
D03*
X524099Y-291979D02*
D03*
X464850Y-4994D02*
D03*
X404430D02*
D03*
X489556Y-22238D02*
D03*
X430070Y-22644D02*
D03*
X402053Y-22546D02*
D03*
X401546Y-57447D02*
D03*
X492572Y-153393D02*
D03*
X461903Y-158036D02*
D03*
X403760Y-174079D02*
D03*
X494167Y-167891D02*
D03*
X493800Y-188387D02*
D03*
X401598Y-168630D02*
D03*
X400019Y-177866D02*
D03*
X401739Y-182220D02*
D03*
X495279Y-174450D02*
D03*
X495058Y-204177D02*
D03*
X495165Y-198491D02*
D03*
X490959Y-214806D02*
D03*
X491248Y-220852D02*
D03*
X492937Y-244747D02*
D03*
X399537Y-249905D02*
D03*
X404155Y-251197D02*
D03*
X492124Y-230763D02*
D03*
X493030Y-237026D02*
D03*
X480000Y-256000D02*
D03*
X477500Y-260000D02*
D03*
X464349Y-266918D02*
D03*
X460188Y-271200D02*
D03*
X430420Y-265027D02*
D03*
X404262Y-259985D02*
D03*
X401448Y-263693D02*
D03*
X435652Y-265160D02*
D03*
X464806Y-278690D02*
D03*
X433685Y-280709D02*
D03*
X403807D02*
D03*
X465122Y-295081D02*
D03*
X429623Y-295866D02*
D03*
X401350Y-294767D02*
D03*
X492500Y-253500D02*
D03*
X433192Y-295571D02*
D03*
X370090Y-4522D02*
D03*
X339526Y-5348D02*
D03*
X310024Y-5702D02*
D03*
X371034Y-23167D02*
D03*
X343201Y-26618D02*
D03*
X314941Y-32835D02*
D03*
X280212Y-29855D02*
D03*
X279741Y-23101D02*
D03*
X282846Y-53386D02*
D03*
X342415Y-50678D02*
D03*
X282084Y-64414D02*
D03*
X315908Y-59099D02*
D03*
X344419Y-93240D02*
D03*
X315317Y-79071D02*
D03*
X282535Y-109193D02*
D03*
X280368Y-149600D02*
D03*
X342414Y-168175D02*
D03*
X283179Y-168696D02*
D03*
X342269Y-219574D02*
D03*
X281778Y-264700D02*
D03*
X341215Y-264071D02*
D03*
X371863Y-265338D02*
D03*
X372952Y-280709D02*
D03*
X345467D02*
D03*
X310002D02*
D03*
X314435D02*
D03*
X282784D02*
D03*
X341190Y-294767D02*
D03*
X315429Y-295395D02*
D03*
X280873Y-295709D02*
D03*
X193078Y-32526D02*
D03*
X190010Y-36893D02*
D03*
X164011Y-33512D02*
D03*
X160242Y-29428D02*
D03*
X252018Y-20691D02*
D03*
X224047Y-29869D02*
D03*
X164954Y-64455D02*
D03*
X159771Y-59115D02*
D03*
X249782Y-49922D02*
D03*
X253666Y-54673D02*
D03*
X194526Y-96877D02*
D03*
X224841Y-112672D02*
D03*
X223686Y-151405D02*
D03*
X252533Y-150973D02*
D03*
X252165Y-175747D02*
D03*
X251644Y-168219D02*
D03*
X163720Y-172514D02*
D03*
X161574Y-177878D02*
D03*
X161789Y-184529D02*
D03*
X161897Y-188928D02*
D03*
X192190Y-183948D02*
D03*
X192633Y-188558D02*
D03*
X190410Y-175093D02*
D03*
X160230Y-168982D02*
D03*
X162004Y-199334D02*
D03*
X162111Y-205771D02*
D03*
X161789Y-212208D02*
D03*
X195559Y-213738D02*
D03*
X189707Y-215334D02*
D03*
X191215Y-219235D02*
D03*
X160931Y-229587D02*
D03*
X160716Y-237204D02*
D03*
X161897Y-245465D02*
D03*
X249890Y-245781D02*
D03*
X190948Y-247075D02*
D03*
X221116Y-230356D02*
D03*
X222036Y-264641D02*
D03*
X255032Y-280709D02*
D03*
X249979D02*
D03*
X220188D02*
D03*
X195008D02*
D03*
X189689D02*
D03*
X161583D02*
D03*
X192091Y-264407D02*
D03*
X220870Y-295395D02*
D03*
X195739Y-295709D02*
D03*
X161339Y-295238D02*
D03*
X105109Y-4724D02*
D03*
X135581Y-5239D02*
D03*
X72809Y-6528D02*
D03*
X70444Y-38048D02*
D03*
X134639Y-31941D02*
D03*
X130419Y-26567D02*
D03*
X73537Y-32884D02*
D03*
X43493Y-18089D02*
D03*
X133896Y-57283D02*
D03*
X103696Y-58801D02*
D03*
X40082Y-52692D02*
D03*
X39909Y-92604D02*
D03*
X70620Y-97678D02*
D03*
X70029Y-87411D02*
D03*
X133473Y-100286D02*
D03*
X103313Y-113303D02*
D03*
X132119Y-149491D02*
D03*
X132380Y-138626D02*
D03*
X73249Y-160828D02*
D03*
X131160Y-169250D02*
D03*
X45128Y-220223D02*
D03*
X39978Y-220330D02*
D03*
X71015Y-214896D02*
D03*
X72754Y-248853D02*
D03*
X132072Y-264403D02*
D03*
X135428Y-280709D02*
D03*
X131882D02*
D03*
X72500Y-275000D02*
D03*
X76500Y-279500D02*
D03*
X71807Y-294610D02*
D03*
X40500Y-287000D02*
D03*
X131666Y-295259D02*
D03*
X14905Y-258311D02*
D03*
X713450Y-162465D02*
D03*
X724817Y-135627D02*
D03*
X726606Y-74471D02*
D03*
X726237Y-191492D02*
D03*
X721838Y-224244D02*
D03*
Y-254244D02*
D03*
X709759Y-287779D02*
D03*
X711338Y-197673D02*
D03*
X697860Y-15080D02*
D03*
X678046Y-17119D02*
D03*
X676000Y-161500D02*
D03*
X691675Y-162598D02*
D03*
X696530Y-163454D02*
D03*
X685108Y-136487D02*
D03*
X697958Y-286260D02*
D03*
X656638Y-12378D02*
D03*
X651757Y-47074D02*
D03*
X648693Y-136751D02*
D03*
X666257Y-166596D02*
D03*
X660117Y-163597D02*
D03*
X661973Y-106335D02*
D03*
X652947Y-107132D02*
D03*
X655690Y-254844D02*
D03*
X650693Y-253845D02*
D03*
X620848Y-12946D02*
D03*
X633414Y-44076D02*
D03*
X626577Y-11628D02*
D03*
X618416Y-42029D02*
D03*
X626560Y-163883D02*
D03*
X608139Y-47789D02*
D03*
X589432Y-47218D02*
D03*
X588655Y-42400D02*
D03*
X600999Y-161598D02*
D03*
X595715Y-133324D02*
D03*
X600713Y-137608D02*
D03*
X598571Y-74349D02*
D03*
X586719Y-103622D02*
D03*
X604613Y-72027D02*
D03*
X605854Y-222144D02*
D03*
X601142Y-192871D02*
D03*
X600661Y-227065D02*
D03*
X568727Y-14517D02*
D03*
X567013Y-44361D02*
D03*
X577437Y-43933D02*
D03*
X572439Y-137180D02*
D03*
X568727Y-135038D02*
D03*
X568155Y-73778D02*
D03*
X577171Y-105841D02*
D03*
X556881Y-136287D02*
D03*
X572152Y-222987D02*
D03*
X561785D02*
D03*
X528886Y-43362D02*
D03*
X537883Y-44076D02*
D03*
X545737D02*
D03*
X544166Y-71921D02*
D03*
X529557Y-192253D02*
D03*
X505611Y-43505D02*
D03*
X512607Y-44076D02*
D03*
X516500Y-266500D02*
D03*
X508789Y-255341D02*
D03*
X516000Y-294500D02*
D03*
X511393Y-224128D02*
D03*
X499561Y-193752D02*
D03*
X514089Y-194527D02*
D03*
X482815Y-14961D02*
D03*
X466571Y-162494D02*
D03*
X485976Y-163242D02*
D03*
X473080Y-162456D02*
D03*
X448789Y-13351D02*
D03*
X440353Y-165938D02*
D03*
X442242Y-76220D02*
D03*
X448344Y-254110D02*
D03*
X443919Y-224863D02*
D03*
X418590Y-166099D02*
D03*
X425797Y-165739D02*
D03*
X388705Y-167611D02*
D03*
X398035Y-222716D02*
D03*
X368830Y-45801D02*
D03*
X366137Y-167369D02*
D03*
X347002Y-137052D02*
D03*
X329416Y-74060D02*
D03*
X322470Y-167792D02*
D03*
X336576Y-167630D02*
D03*
X302931Y-73219D02*
D03*
X297567Y-257706D02*
D03*
X268308Y-166919D02*
D03*
X274676Y-166838D02*
D03*
X262475Y-71983D02*
D03*
X258570Y-75137D02*
D03*
X278016Y-72053D02*
D03*
X230950Y-13638D02*
D03*
X226561Y-13698D02*
D03*
X239000Y-46500D02*
D03*
X227435Y-102109D02*
D03*
X235227Y-77326D02*
D03*
X247226Y-77762D02*
D03*
X249354Y-222287D02*
D03*
X218565Y-102473D02*
D03*
X201388Y-226616D02*
D03*
X201878Y-254938D02*
D03*
X216779Y-257775D02*
D03*
X177520Y-47491D02*
D03*
X173750Y-42779D02*
D03*
X177585Y-71604D02*
D03*
X181639Y-75942D02*
D03*
X188245Y-102464D02*
D03*
X184303Y-106233D02*
D03*
X171977Y-132523D02*
D03*
X178990Y-137366D02*
D03*
X185744Y-256345D02*
D03*
X177472Y-256916D02*
D03*
X145163Y-41994D02*
D03*
X153871Y-165974D02*
D03*
X139767Y-132667D02*
D03*
X146996Y-165722D02*
D03*
X156862Y-221567D02*
D03*
X128210Y-107001D02*
D03*
X113090Y-227546D02*
D03*
X127330Y-281603D02*
D03*
X108870Y-193650D02*
D03*
X87596Y-105297D02*
D03*
X95797Y-135676D02*
D03*
X84000Y-286000D02*
D03*
X79648Y-255355D02*
D03*
X64462Y-12237D02*
D03*
X55684D02*
D03*
X48272Y-12042D02*
D03*
X47035Y-135224D02*
D03*
X46866Y-165280D02*
D03*
X68056Y-166410D02*
D03*
X60889Y-137653D02*
D03*
X62539Y-281887D02*
D03*
X61769Y-195703D02*
D03*
X57949Y-223584D02*
D03*
X30364Y-42232D02*
D03*
X35046Y-46231D02*
D03*
X27756Y-14455D02*
D03*
X21405Y-104594D02*
D03*
X21633Y-74977D02*
D03*
X30676Y-135626D02*
D03*
X30507Y-165683D02*
D03*
X20687Y-223631D02*
D03*
X30403Y-192404D02*
D03*
X714809Y-29604D02*
D03*
X707023Y-93371D02*
D03*
X726882Y-99266D02*
D03*
X727550Y-85695D02*
D03*
X724169Y-124908D02*
D03*
X727242Y-114170D02*
D03*
X724814Y-146250D02*
D03*
X723268Y-157525D02*
D03*
X709649Y-142938D02*
D03*
X713105Y-177324D02*
D03*
X721773Y-169831D02*
D03*
X709984Y-186917D02*
D03*
X721062Y-181215D02*
D03*
X728310Y-202205D02*
D03*
X717597Y-203933D02*
D03*
X713105Y-219656D02*
D03*
X723602Y-215385D02*
D03*
X706051Y-219346D02*
D03*
X726237Y-232270D02*
D03*
X712241Y-231233D02*
D03*
X714487Y-247820D02*
D03*
X720738Y-240893D02*
D03*
X726582Y-260952D02*
D03*
X703000Y-258500D02*
D03*
X721052Y-266652D02*
D03*
X713553Y-275258D02*
D03*
X678538Y-138750D02*
D03*
X681537Y-142321D02*
D03*
X687391Y-147033D02*
D03*
X691104Y-150603D02*
D03*
X692389Y-157314D02*
D03*
X696915Y-152470D02*
D03*
X677824Y-170737D02*
D03*
X698937Y-237626D02*
D03*
X694103Y-232997D02*
D03*
X689533Y-235424D02*
D03*
X686535Y-239280D02*
D03*
X685535Y-244135D02*
D03*
X690390Y-243564D02*
D03*
X696102Y-243706D02*
D03*
X689500Y-270500D02*
D03*
X685678Y-267982D02*
D03*
X685249Y-262413D02*
D03*
X687677Y-258129D02*
D03*
X683250D02*
D03*
X681394Y-264269D02*
D03*
X678824Y-258700D02*
D03*
X693532Y-290544D02*
D03*
X688105Y-292257D02*
D03*
X682108Y-292400D02*
D03*
X676253Y-292115D02*
D03*
X688799Y-297456D02*
D03*
X696282Y-297262D02*
D03*
X651978Y-60783D02*
D03*
X658261Y-65924D02*
D03*
X655530Y-67193D02*
D03*
X664829Y-81917D02*
D03*
X663972Y-86772D02*
D03*
X662687Y-95197D02*
D03*
X662830Y-99910D02*
D03*
X663740Y-92419D02*
D03*
X653691Y-120044D02*
D03*
X647837Y-127470D02*
D03*
X661831Y-110334D02*
D03*
Y-115760D02*
D03*
X665258Y-122615D02*
D03*
X667000Y-154500D02*
D03*
X659500Y-158000D02*
D03*
X660545Y-152459D02*
D03*
X664398Y-160217D02*
D03*
X659974Y-170880D02*
D03*
X652965Y-181617D02*
D03*
X667400Y-245134D02*
D03*
X663972Y-245706D02*
D03*
X657404Y-246134D02*
D03*
X660831Y-244135D02*
D03*
X646980Y-243849D02*
D03*
X649407Y-246277D02*
D03*
X653548Y-246848D02*
D03*
X650693Y-249989D02*
D03*
X655833Y-250418D02*
D03*
X651978Y-267696D02*
D03*
X656404Y-266982D02*
D03*
X656833Y-274979D02*
D03*
X651835Y-274408D02*
D03*
X653834Y-278835D02*
D03*
X658403Y-278263D02*
D03*
X661831Y-275122D02*
D03*
X658261Y-262841D02*
D03*
X659831Y-257986D02*
D03*
X653977Y-263413D02*
D03*
X649693Y-263698D02*
D03*
X653682Y-296309D02*
D03*
X622133Y-23370D02*
D03*
X628000Y-34000D02*
D03*
X616456Y-31451D02*
D03*
X632623Y-39217D02*
D03*
X625000Y-29500D02*
D03*
X631424Y-23139D02*
D03*
X621134Y-58356D02*
D03*
X617596Y-67329D02*
D03*
X627126Y-57437D02*
D03*
X637806Y-48327D02*
D03*
X634351Y-79112D02*
D03*
X633218Y-128175D02*
D03*
X630252Y-108970D02*
D03*
X619991Y-157171D02*
D03*
X631542Y-157091D02*
D03*
X633500Y-150000D02*
D03*
X629701Y-170452D02*
D03*
X634128Y-170880D02*
D03*
X615992Y-237709D02*
D03*
X620134Y-245420D02*
D03*
X616278Y-240993D02*
D03*
X633843Y-245563D02*
D03*
X637127Y-245848D02*
D03*
Y-263127D02*
D03*
X632557Y-263555D02*
D03*
X628559Y-263127D02*
D03*
X628987Y-258129D02*
D03*
X618500Y-262000D02*
D03*
X622990Y-261556D02*
D03*
X622704Y-266411D02*
D03*
X618000Y-267000D02*
D03*
Y-272000D02*
D03*
X622990Y-272409D02*
D03*
X608282Y-10947D02*
D03*
X601570Y-10376D02*
D03*
X593431D02*
D03*
X603565Y-6233D02*
D03*
X590214Y-4505D02*
D03*
X607282Y-38650D02*
D03*
X607996Y-32081D02*
D03*
X589432Y-35794D02*
D03*
X587281Y-31665D02*
D03*
X606853Y-66638D02*
D03*
X607853Y-55928D02*
D03*
X588433Y-53215D02*
D03*
X586576Y-60498D02*
D03*
X590432Y-82917D02*
D03*
X596572Y-79490D02*
D03*
X586862Y-98196D02*
D03*
X586576Y-84059D02*
D03*
X590718Y-128469D02*
D03*
X586576Y-117331D02*
D03*
X604125Y-111536D02*
D03*
X586993Y-122265D02*
D03*
X586636Y-110730D02*
D03*
X609425Y-131453D02*
D03*
X593716Y-159599D02*
D03*
X586148Y-148747D02*
D03*
X595430Y-156029D02*
D03*
X606568Y-143035D02*
D03*
X590666Y-148889D02*
D03*
X601998Y-185445D02*
D03*
X598000Y-178734D02*
D03*
X600142Y-169309D02*
D03*
X597280Y-171579D02*
D03*
X597372Y-184637D02*
D03*
X586885Y-168224D02*
D03*
X587102Y-184322D02*
D03*
X590773Y-220866D02*
D03*
X601856Y-200296D02*
D03*
X600856Y-221287D02*
D03*
X599571Y-214005D02*
D03*
X600142Y-204009D02*
D03*
X586132Y-202098D02*
D03*
X596048Y-200565D02*
D03*
X595784Y-233652D02*
D03*
X607000Y-245000D02*
D03*
X587576Y-246134D02*
D03*
X596144Y-247848D02*
D03*
X601285Y-245420D02*
D03*
X608424Y-232711D02*
D03*
X605426Y-230140D02*
D03*
X591644Y-295333D02*
D03*
X602834Y-297721D02*
D03*
X574153Y-10661D02*
D03*
X558160Y-10804D02*
D03*
X564728Y-11233D02*
D03*
X578748Y-4505D02*
D03*
X567911Y-4819D02*
D03*
X559586D02*
D03*
X569012Y-21514D02*
D03*
X569155Y-28083D02*
D03*
X558303Y-21942D02*
D03*
X559160Y-32795D02*
D03*
X565300Y-19658D02*
D03*
X564871Y-29225D02*
D03*
X576581Y-29939D02*
D03*
X565300Y-66352D02*
D03*
X577723Y-64639D02*
D03*
X572931Y-71185D02*
D03*
X577580Y-83609D02*
D03*
X572725Y-81346D02*
D03*
X572844Y-96803D02*
D03*
X556945Y-100306D02*
D03*
X563815Y-80849D02*
D03*
X571154Y-117045D02*
D03*
X562768Y-108207D02*
D03*
X569506Y-126504D02*
D03*
X575280Y-122368D02*
D03*
X569537Y-161322D02*
D03*
X570247Y-143954D02*
D03*
X574252Y-153056D02*
D03*
X579011Y-142100D02*
D03*
X566929Y-168512D02*
D03*
X563128Y-184754D02*
D03*
X579055Y-177807D02*
D03*
X576788Y-187513D02*
D03*
X556908Y-201860D02*
D03*
X575108Y-212634D02*
D03*
X570424Y-199270D02*
D03*
X564411Y-211507D02*
D03*
X570012Y-241565D02*
D03*
X573439Y-242421D02*
D03*
X578984Y-231170D02*
D03*
X570895Y-230526D02*
D03*
X562570Y-234453D02*
D03*
X576245Y-295180D02*
D03*
X564170Y-295596D02*
D03*
X530885Y-8091D02*
D03*
X541167Y-9091D02*
D03*
X548973Y-9370D02*
D03*
X536507Y-8764D02*
D03*
X525964Y-7268D02*
D03*
X541738Y-37079D02*
D03*
X538168Y-29368D02*
D03*
X529315D02*
D03*
X533884Y-64496D02*
D03*
X540739Y-65353D02*
D03*
X536276Y-115195D02*
D03*
X535004Y-157887D02*
D03*
X533213Y-172082D02*
D03*
X540947Y-209615D02*
D03*
X547335Y-199270D02*
D03*
X532028Y-250561D02*
D03*
X542310Y-249989D02*
D03*
X534325Y-232296D02*
D03*
X541533Y-240914D02*
D03*
X526737Y-237663D02*
D03*
X541659Y-292387D02*
D03*
X517177Y-5521D02*
D03*
X512526Y-5702D02*
D03*
X504973Y-5348D02*
D03*
X496004Y-5111D02*
D03*
X502451Y-22254D02*
D03*
X511875Y-24138D02*
D03*
X497221Y-117856D02*
D03*
X502191Y-122410D02*
D03*
X500355Y-145978D02*
D03*
X499295Y-168306D02*
D03*
X498969Y-186919D02*
D03*
X515229Y-213159D02*
D03*
X500093Y-201111D02*
D03*
X498941Y-207761D02*
D03*
X500349Y-220264D02*
D03*
X505930Y-213467D02*
D03*
X508466Y-244706D02*
D03*
X514178Y-247705D02*
D03*
X512459Y-238574D02*
D03*
X505317Y-241234D02*
D03*
X511988Y-231477D02*
D03*
X498941Y-227976D02*
D03*
X499207Y-232231D02*
D03*
X498409Y-237906D02*
D03*
X498497Y-243225D02*
D03*
X497788Y-247747D02*
D03*
X503500Y-255000D02*
D03*
X530000Y-285500D02*
D03*
X543500Y-286500D02*
D03*
X486349Y-8291D02*
D03*
X472285Y-4876D02*
D03*
X484802Y-65658D02*
D03*
X469035Y-91863D02*
D03*
X489236Y-160205D02*
D03*
X468716Y-153322D02*
D03*
X483911Y-153543D02*
D03*
X480473Y-159652D02*
D03*
X487698Y-180967D02*
D03*
X486273Y-169713D02*
D03*
X486358Y-209365D02*
D03*
X483528Y-245887D02*
D03*
X467624Y-232353D02*
D03*
X477337Y-281409D02*
D03*
X475083Y-276705D02*
D03*
X469856Y-265481D02*
D03*
X469150Y-281439D02*
D03*
X476420Y-272041D02*
D03*
X471278Y-272040D02*
D03*
X468352Y-275587D02*
D03*
X478002Y-295238D02*
D03*
X471719Y-295081D02*
D03*
X453757Y-4876D02*
D03*
X440187Y-5702D02*
D03*
X448182Y-21987D02*
D03*
X449978Y-31255D02*
D03*
X454621Y-81626D02*
D03*
X452456Y-122582D02*
D03*
X455094Y-149695D02*
D03*
X457433Y-154592D02*
D03*
X446566Y-150227D02*
D03*
X448312Y-170151D02*
D03*
X443647Y-182115D02*
D03*
X440944Y-172743D02*
D03*
X443420Y-211825D02*
D03*
X443741Y-219549D02*
D03*
X444171Y-229419D02*
D03*
X443527Y-234676D02*
D03*
X443312Y-241649D02*
D03*
X448249Y-248228D02*
D03*
X454701Y-276556D02*
D03*
X441110Y-265124D02*
D03*
X459398Y-280709D02*
D03*
X452393D02*
D03*
X446453D02*
D03*
X440246D02*
D03*
X444702Y-295081D02*
D03*
X457426Y-294767D02*
D03*
X450828D02*
D03*
X439362D02*
D03*
X425554Y-5584D02*
D03*
X413517Y-5348D02*
D03*
X421398Y-22556D02*
D03*
X412701Y-22343D02*
D03*
X423268Y-70902D02*
D03*
X416475Y-122057D02*
D03*
X421431Y-233636D02*
D03*
X421585Y-265281D02*
D03*
X425411Y-265266D02*
D03*
X427213Y-280709D02*
D03*
X422426D02*
D03*
X417726D02*
D03*
X413028D02*
D03*
X408683D02*
D03*
X425068Y-295552D02*
D03*
X417842Y-295238D02*
D03*
X409675Y-295081D02*
D03*
X391450Y-4876D02*
D03*
X379767Y-5229D02*
D03*
X377052Y-22223D02*
D03*
X387673Y-22100D02*
D03*
X394862Y-22174D02*
D03*
X381829Y-22121D02*
D03*
X391526Y-93045D02*
D03*
X385821Y-89012D02*
D03*
X380772Y-85346D02*
D03*
X398622Y-150812D02*
D03*
X396991Y-173158D02*
D03*
X395811Y-180607D02*
D03*
X395918Y-184851D02*
D03*
Y-188713D02*
D03*
X399386Y-187113D02*
D03*
X388876Y-175833D02*
D03*
X393701Y-168594D02*
D03*
X396954Y-168982D02*
D03*
X380572Y-168748D02*
D03*
X395660Y-210197D02*
D03*
X395808Y-203855D02*
D03*
X395461Y-198214D02*
D03*
X397928Y-217030D02*
D03*
X393315Y-217254D02*
D03*
X398035Y-229046D02*
D03*
X390615Y-238428D02*
D03*
X394778Y-242899D02*
D03*
X390498Y-231464D02*
D03*
X395670Y-264246D02*
D03*
X391174Y-265446D02*
D03*
X385380Y-265338D02*
D03*
X378992Y-265280D02*
D03*
X398664Y-280709D02*
D03*
X394320D02*
D03*
X388823D02*
D03*
X383946D02*
D03*
X378981D02*
D03*
X395680Y-258528D02*
D03*
X387056Y-294924D02*
D03*
X380459D02*
D03*
X394215Y-295537D02*
D03*
X358879Y-5111D02*
D03*
X348967Y-4522D02*
D03*
X354058Y-37710D02*
D03*
X364202Y-22872D02*
D03*
X367244Y-58290D02*
D03*
X355501Y-108034D02*
D03*
X368189Y-150225D02*
D03*
X351284Y-150812D02*
D03*
X352112Y-174623D02*
D03*
X348476Y-175974D02*
D03*
Y-183483D02*
D03*
X348690Y-189383D02*
D03*
X351694Y-250748D02*
D03*
X369450Y-233236D02*
D03*
X365855Y-265124D02*
D03*
X347842Y-262627D02*
D03*
X365239Y-280709D02*
D03*
X357880D02*
D03*
X351408D02*
D03*
X368521Y-294924D02*
D03*
X361610D02*
D03*
X352971Y-295081D02*
D03*
X347833Y-295721D02*
D03*
X330557Y-4639D02*
D03*
X321292Y-28706D02*
D03*
X323698Y-49979D02*
D03*
X319959Y-55954D02*
D03*
X334426Y-85453D02*
D03*
X327503Y-150238D02*
D03*
X338548Y-175852D02*
D03*
X330857Y-168453D02*
D03*
X319796Y-234206D02*
D03*
X336280Y-264821D02*
D03*
X330058Y-264607D02*
D03*
X322978Y-264714D02*
D03*
X316326Y-264178D02*
D03*
X338374Y-280709D02*
D03*
X329331D02*
D03*
X321174D02*
D03*
X335850Y-294610D02*
D03*
X329724D02*
D03*
X322498Y-295395D02*
D03*
X307424Y-10657D02*
D03*
X286500Y-22000D02*
D03*
X286779Y-27012D02*
D03*
X308907Y-37762D02*
D03*
X287573Y-58943D02*
D03*
X308411Y-62067D02*
D03*
X301234Y-62153D02*
D03*
X294079Y-62283D02*
D03*
X297897Y-92753D02*
D03*
X292587Y-89429D02*
D03*
X287757Y-85882D02*
D03*
X307745Y-110589D02*
D03*
X287330Y-149673D02*
D03*
X294732Y-149722D02*
D03*
X302240Y-151007D02*
D03*
X302078Y-174401D02*
D03*
X291295Y-167979D02*
D03*
X298299Y-185856D02*
D03*
X297978Y-178454D02*
D03*
X298728Y-170515D02*
D03*
X290792Y-175279D02*
D03*
X296360Y-168535D02*
D03*
X297656Y-220293D02*
D03*
X298621Y-210316D02*
D03*
X298299Y-203343D02*
D03*
X298192Y-198753D02*
D03*
X298053Y-214723D02*
D03*
X298085Y-249795D02*
D03*
X298299Y-243144D02*
D03*
X298407Y-236492D02*
D03*
X298192Y-228124D02*
D03*
X293257Y-263950D02*
D03*
X287893Y-264486D02*
D03*
X306013Y-280709D02*
D03*
X300516D02*
D03*
X293334D02*
D03*
X287394D02*
D03*
X296892Y-280913D02*
D03*
X308204Y-295238D02*
D03*
X301764D02*
D03*
X295167Y-295395D02*
D03*
X289198Y-295709D02*
D03*
X271730Y-9279D02*
D03*
X271224Y-26505D02*
D03*
X270159Y-30955D02*
D03*
X265604Y-21373D02*
D03*
X257279Y-23258D02*
D03*
X260420Y-30798D02*
D03*
X273301Y-67841D02*
D03*
X268797Y-65350D02*
D03*
X265318Y-68777D02*
D03*
X269586Y-79074D02*
D03*
X272113Y-108510D02*
D03*
X277477Y-108998D02*
D03*
X264102Y-149526D02*
D03*
X259925Y-149966D02*
D03*
X269158Y-149600D02*
D03*
X274433D02*
D03*
X273371Y-233788D02*
D03*
X277487Y-264915D02*
D03*
X272874Y-264700D02*
D03*
X268368Y-264593D02*
D03*
X278439Y-280709D02*
D03*
X272410D02*
D03*
X266824D02*
D03*
X260707D02*
D03*
X271292Y-294767D02*
D03*
X262652Y-295081D02*
D03*
X256527Y-295395D02*
D03*
X249264Y-5518D02*
D03*
X242698Y-7591D02*
D03*
X235269Y-9319D02*
D03*
X231654Y-18822D02*
D03*
X237000Y-40000D02*
D03*
X228552Y-33571D02*
D03*
X239830Y-31311D02*
D03*
X240210Y-20098D02*
D03*
X234174Y-59678D02*
D03*
X232933Y-53620D02*
D03*
X241682Y-59956D02*
D03*
X248169Y-59699D02*
D03*
X233623Y-151502D02*
D03*
X243213Y-168175D02*
D03*
X248818Y-172616D02*
D03*
X249139Y-177122D02*
D03*
X249354Y-183666D02*
D03*
X249247Y-189137D02*
D03*
X238953Y-175821D02*
D03*
X231765Y-170165D02*
D03*
X248925Y-199436D02*
D03*
Y-205551D02*
D03*
X249461Y-212095D02*
D03*
X249247Y-231084D02*
D03*
X248818Y-238701D02*
D03*
X241454Y-263997D02*
D03*
X235016Y-264641D02*
D03*
X227507Y-264963D02*
D03*
X247589Y-263754D02*
D03*
X248389Y-258869D02*
D03*
X241645Y-280709D02*
D03*
X234817D02*
D03*
X227724D02*
D03*
X245972Y-280955D02*
D03*
X248987Y-295081D02*
D03*
X237521D02*
D03*
X228567Y-295395D02*
D03*
X210524Y-20554D02*
D03*
X206152Y-19034D02*
D03*
X201591D02*
D03*
X198740Y-23025D02*
D03*
X218451Y-25328D02*
D03*
X211252Y-25681D02*
D03*
X205258Y-26114D02*
D03*
X198979Y-28632D02*
D03*
X206972Y-108329D02*
D03*
X216911Y-108705D02*
D03*
X214739Y-150225D02*
D03*
X206026Y-150545D02*
D03*
X197091Y-182245D02*
D03*
X215163Y-176235D02*
D03*
X215647Y-172447D02*
D03*
X201878Y-175765D02*
D03*
X201985Y-179627D02*
D03*
X202890Y-185635D02*
D03*
X196236Y-188015D02*
D03*
X202676Y-202800D02*
D03*
X203105Y-209451D02*
D03*
X200912Y-216639D02*
D03*
X201281Y-232194D02*
D03*
X202032Y-237988D02*
D03*
X202890Y-244746D02*
D03*
X201663Y-249789D02*
D03*
X217735Y-264709D02*
D03*
X203685Y-258111D02*
D03*
X211854Y-280709D02*
D03*
X207421D02*
D03*
X200949D02*
D03*
X198472Y-264283D02*
D03*
X211446Y-295709D02*
D03*
X202650D02*
D03*
X168252Y-38067D02*
D03*
X171708Y-69796D02*
D03*
X181604Y-52204D02*
D03*
X189109Y-49804D02*
D03*
X186854Y-129214D02*
D03*
X175949Y-169810D02*
D03*
X175304Y-176097D02*
D03*
X182765Y-169044D02*
D03*
X175476Y-218350D02*
D03*
X184387Y-247341D02*
D03*
X178624D02*
D03*
X174723Y-248848D02*
D03*
X185842Y-264089D02*
D03*
X178243Y-264293D02*
D03*
X184103Y-280709D02*
D03*
X178517D02*
D03*
X173375D02*
D03*
X167080D02*
D03*
X187728Y-295238D02*
D03*
X178774D02*
D03*
X173434Y-294453D02*
D03*
X167622Y-295238D02*
D03*
X147679Y-5498D02*
D03*
X141328Y-5795D02*
D03*
X139665Y-37439D02*
D03*
X155058Y-24716D02*
D03*
X149247Y-19061D02*
D03*
X154271Y-18229D02*
D03*
X139867Y-57024D02*
D03*
X155372Y-53460D02*
D03*
X150503Y-48277D02*
D03*
X148307Y-57070D02*
D03*
X141438Y-100658D02*
D03*
X140019Y-149296D02*
D03*
X141930Y-140469D02*
D03*
X146996Y-149259D02*
D03*
X154829Y-173781D02*
D03*
X139129Y-169333D02*
D03*
X139206Y-221446D02*
D03*
X155609Y-215692D02*
D03*
X136958Y-231235D02*
D03*
X154621Y-265058D02*
D03*
X145161Y-265205D02*
D03*
X138294D02*
D03*
X155111Y-280709D02*
D03*
X148372D02*
D03*
X141545D02*
D03*
X154585Y-295395D02*
D03*
X136984Y-295804D02*
D03*
X148139Y-295558D02*
D03*
X142322Y-295632D02*
D03*
X128670Y-4724D02*
D03*
X120817D02*
D03*
X112178D02*
D03*
X116152Y-31607D02*
D03*
X106523Y-38538D02*
D03*
X111235Y-21417D02*
D03*
X117047Y-20946D02*
D03*
X125372Y-31470D02*
D03*
X125686Y-39952D02*
D03*
X126458Y-49376D02*
D03*
X116773Y-51575D02*
D03*
X110764D02*
D03*
X111863Y-58644D02*
D03*
X126734Y-57173D02*
D03*
X117011Y-57153D02*
D03*
X128210Y-100039D02*
D03*
X127933Y-113914D02*
D03*
X109210Y-114082D02*
D03*
X118415Y-114318D02*
D03*
X125299Y-149837D02*
D03*
X127187Y-143937D02*
D03*
X113343Y-170124D02*
D03*
X113090Y-177207D02*
D03*
X113849Y-185302D02*
D03*
X112584Y-200479D02*
D03*
X111000Y-211500D02*
D03*
X113090Y-219452D02*
D03*
X113343Y-234376D02*
D03*
X112500Y-243500D02*
D03*
X113596Y-250566D02*
D03*
X113849Y-259419D02*
D03*
X97098Y-4724D02*
D03*
X90816D02*
D03*
X82962D02*
D03*
X77307Y-5239D02*
D03*
X82539Y-39304D02*
D03*
X76413Y-38362D02*
D03*
X97570Y-22046D02*
D03*
X79192Y-32727D02*
D03*
X97255Y-50319D02*
D03*
X95999Y-58487D02*
D03*
X91915Y-61785D02*
D03*
X79732Y-78417D02*
D03*
X85509Y-79499D02*
D03*
X87910Y-92381D02*
D03*
X87871Y-98990D02*
D03*
X87085Y-86133D02*
D03*
X78645Y-120572D02*
D03*
X97645Y-114672D02*
D03*
X92256Y-140161D02*
D03*
X88007Y-145471D02*
D03*
X77589Y-154693D02*
D03*
X96183Y-161048D02*
D03*
X83868Y-149219D02*
D03*
X78181Y-180820D02*
D03*
X88565Y-169416D02*
D03*
X85328Y-174063D02*
D03*
X93406Y-269411D02*
D03*
X85771Y-262188D02*
D03*
X90970Y-295395D02*
D03*
X85786D02*
D03*
X77618Y-295081D02*
D03*
X64632Y-37734D02*
D03*
X64475Y-32079D02*
D03*
X65936Y-52613D02*
D03*
X58883Y-52661D02*
D03*
X48281Y-52504D02*
D03*
X59778Y-92259D02*
D03*
X53213D02*
D03*
X47511Y-92604D02*
D03*
X67434Y-119393D02*
D03*
X53132Y-119626D02*
D03*
X60766Y-120584D02*
D03*
X46991Y-117931D02*
D03*
X46845Y-123346D02*
D03*
X47021Y-128841D02*
D03*
X46889Y-141202D02*
D03*
X46984Y-146617D02*
D03*
X46918Y-152113D02*
D03*
X46852Y-158414D02*
D03*
X46464Y-187094D02*
D03*
X46365Y-182434D02*
D03*
X46270Y-171077D02*
D03*
X46511Y-176818D02*
D03*
X64995Y-190458D02*
D03*
X50807Y-180761D02*
D03*
X56089Y-172117D02*
D03*
X63573Y-170159D02*
D03*
X52852Y-220974D02*
D03*
X66936Y-242952D02*
D03*
X32000Y-241500D02*
D03*
X56976Y-259191D02*
D03*
X63831Y-266974D02*
D03*
X45000Y-246500D02*
D03*
X57947Y-295267D02*
D03*
X36021Y-20776D02*
D03*
X31535Y-24677D02*
D03*
X30462Y-33650D02*
D03*
X22504Y-69094D02*
D03*
X36453Y-56493D02*
D03*
X30060Y-62368D02*
D03*
X29296Y-69357D02*
D03*
X20148Y-98154D02*
D03*
X20620Y-86059D02*
D03*
X18892Y-80718D02*
D03*
X20252Y-91790D02*
D03*
X23253Y-110643D02*
D03*
X30706Y-113594D02*
D03*
X30632Y-118334D02*
D03*
X30486Y-123749D02*
D03*
X30662Y-129244D02*
D03*
X30529Y-141605D02*
D03*
X30625Y-147020D02*
D03*
X30559Y-152516D02*
D03*
X30493Y-158817D02*
D03*
X17119Y-147753D02*
D03*
X30313Y-187172D02*
D03*
X30577Y-182028D02*
D03*
X30664Y-177150D02*
D03*
X30663Y-171385D02*
D03*
X22322Y-199237D02*
D03*
X19431Y-217504D02*
D03*
X19588Y-212635D02*
D03*
X20706Y-206735D02*
D03*
X30404Y-198523D02*
D03*
X21002Y-229914D02*
D03*
X16000Y-243500D02*
D03*
X31500Y-248500D02*
D03*
X67500Y-270500D02*
D03*
X29000Y-291000D02*
D03*
D114*
X712000Y-260630D02*
D03*
X598425D02*
D03*
D115*
X724409Y-15748D02*
D03*
Y-287402D02*
D03*
X11811Y-15748D02*
D03*
Y-287402D02*
D03*
X421260Y-90551D02*
D03*
D116*
X199374Y-70500D02*
D03*
X191500D02*
D03*
D117*
X195000Y-78563D02*
D03*
Y-86437D02*
D03*
X186675Y-90974D02*
D03*
Y-83100D02*
D03*
D118*
X205344Y-44573D02*
D03*
Y-32762D02*
D03*
D119*
X161558Y-112747D02*
D03*
X141873D02*
D03*
D120*
X241085Y-87910D02*
D03*
Y-92909D02*
D03*
Y-97909D02*
D03*
Y-102909D02*
D03*
Y-107909D02*
D03*
Y-112909D02*
D03*
Y-117909D02*
D03*
Y-122909D02*
D03*
X262345D02*
D03*
Y-117909D02*
D03*
Y-112909D02*
D03*
Y-107909D02*
D03*
Y-102909D02*
D03*
Y-97909D02*
D03*
Y-92909D02*
D03*
Y-87910D02*
D03*
M02*
