G04*
G04 #@! TF.GenerationSoftware,Altium Limited,Altium Designer,19.1.8 (144)*
G04*
G04 Layer_Color=16711935*
%FSLAX25Y25*%
%MOIN*%
G70*
G01*
G75*
%ADD11C,0.01000*%
%ADD127C,0.00309*%
%ADD128C,0.00591*%
D11*
X493555Y-149233D02*
Y-121359D01*
D127*
X495653Y-126705D02*
X494013D01*
X495653D02*
Y-127408D01*
X495575Y-127642D01*
X495497Y-127720D01*
X495341Y-127798D01*
X495185D01*
X495028Y-127720D01*
X494950Y-127642D01*
X494872Y-127408D01*
Y-126705D02*
Y-127408D01*
X494794Y-127642D01*
X494716Y-127720D01*
X494560Y-127798D01*
X494325D01*
X494169Y-127720D01*
X494091Y-127642D01*
X494013Y-127408D01*
Y-126705D01*
X495653Y-128634D02*
X495575Y-128478D01*
X495419Y-128322D01*
X495263Y-128244D01*
X495028Y-128165D01*
X494638D01*
X494404Y-128244D01*
X494247Y-128322D01*
X494091Y-128478D01*
X494013Y-128634D01*
Y-128946D01*
X494091Y-129103D01*
X494247Y-129259D01*
X494404Y-129337D01*
X494638Y-129415D01*
X495028D01*
X495263Y-129337D01*
X495419Y-129259D01*
X495575Y-129103D01*
X495653Y-128946D01*
Y-128634D01*
X494013Y-131047D02*
X495653Y-130423D01*
X494013Y-129798D01*
X494560Y-130032D02*
Y-130813D01*
X495653Y-131430D02*
X494013D01*
X495653D02*
Y-132133D01*
X495575Y-132367D01*
X495497Y-132446D01*
X495341Y-132524D01*
X495185D01*
X495028Y-132446D01*
X494950Y-132367D01*
X494872Y-132133D01*
Y-131430D01*
Y-131977D02*
X494013Y-132524D01*
X495653Y-132891D02*
X494013D01*
X495653D02*
Y-133437D01*
X495575Y-133672D01*
X495419Y-133828D01*
X495263Y-133906D01*
X495028Y-133984D01*
X494638D01*
X494404Y-133906D01*
X494247Y-133828D01*
X494091Y-133672D01*
X494013Y-133437D01*
Y-132891D01*
X495653Y-136655D02*
Y-135640D01*
X494013D01*
Y-136655D01*
X494872Y-135640D02*
Y-136265D01*
X495653Y-136929D02*
X494013D01*
X495653D02*
Y-137475D01*
X495575Y-137710D01*
X495419Y-137866D01*
X495263Y-137944D01*
X495028Y-138022D01*
X494638D01*
X494404Y-137944D01*
X494247Y-137866D01*
X494091Y-137710D01*
X494013Y-137475D01*
Y-136929D01*
X495263Y-139561D02*
X495419Y-139482D01*
X495575Y-139326D01*
X495653Y-139170D01*
Y-138858D01*
X495575Y-138701D01*
X495419Y-138545D01*
X495263Y-138467D01*
X495028Y-138389D01*
X494638D01*
X494404Y-138467D01*
X494247Y-138545D01*
X494091Y-138701D01*
X494013Y-138858D01*
Y-139170D01*
X494091Y-139326D01*
X494247Y-139482D01*
X494404Y-139561D01*
X494638D01*
Y-139170D02*
Y-139561D01*
X495653Y-140951D02*
Y-139936D01*
X494013D01*
Y-140951D01*
X494872Y-139936D02*
Y-140560D01*
D128*
X381422Y-95764D02*
X384046D01*
X384571Y-95239D01*
Y-94190D01*
X384046Y-93665D01*
X381422D01*
X381947Y-92615D02*
X381422Y-92090D01*
Y-91041D01*
X381947Y-90516D01*
X382472D01*
X382997Y-91041D01*
Y-91566D01*
Y-91041D01*
X383521Y-90516D01*
X384046D01*
X384571Y-91041D01*
Y-92090D01*
X384046Y-92615D01*
X288396Y-95764D02*
X291019D01*
X291544Y-95239D01*
Y-94190D01*
X291019Y-93665D01*
X288396D01*
Y-92615D02*
Y-90516D01*
X288920D01*
X291019Y-92615D01*
X291544D01*
X334871Y-95764D02*
X337494D01*
X338019Y-95239D01*
Y-94190D01*
X337494Y-93665D01*
X334871D01*
X338019Y-92615D02*
Y-91566D01*
Y-92090D01*
X334871D01*
X335396Y-92615D01*
M02*
