G04*
G04 #@! TF.GenerationSoftware,Altium Limited,Altium Designer,19.1.8 (144)*
G04*
G04 Layer_Color=32768*
%FSLAX25Y25*%
%MOIN*%
G70*
G01*
G75*
%ADD109C,0.00394*%
%ADD110C,0.00197*%
D109*
X709000Y-247246D02*
Y-243309D01*
X707031Y-245277D02*
X710968D01*
X182787Y-83277D02*
X186724D01*
X184756Y-85246D02*
Y-81309D01*
X135497Y-66277D02*
X139434D01*
X137465Y-68246D02*
Y-64309D01*
X173500Y-51246D02*
Y-47309D01*
X171531Y-49277D02*
X175468D01*
X201500Y-82246D02*
Y-78309D01*
X199531Y-80277D02*
X203468D01*
X169031Y-73277D02*
X172968D01*
X171000Y-75246D02*
Y-71309D01*
X157000Y-74746D02*
Y-70809D01*
X155031Y-72777D02*
X158968D01*
X125000Y-58746D02*
Y-54809D01*
X123031Y-56777D02*
X126968D01*
X140653Y-58746D02*
Y-54809D01*
X138685Y-56777D02*
X142622D01*
D110*
X733705Y-270769D02*
Y-219785D01*
X683902Y-270769D02*
X733705D01*
X683902D02*
Y-219785D01*
X733705D01*
X194008Y-86919D02*
Y-79636D01*
X175504Y-86919D02*
X194008D01*
X175504D02*
Y-79636D01*
X194008D01*
X146717Y-69919D02*
Y-62635D01*
X128213Y-69919D02*
X146717D01*
X128213D02*
Y-62635D01*
X146717D01*
X149878Y-35635D02*
X197122D01*
X149878Y-62919D02*
X197122D01*
Y-35635D01*
X149878Y-62919D02*
Y-35635D01*
X198153Y-74765D02*
X204846D01*
X198153Y-85789D02*
X204846D01*
X198153D02*
Y-74765D01*
X204846Y-85789D02*
Y-74765D01*
X167063Y-79970D02*
Y-66584D01*
X174937Y-79970D02*
Y-66584D01*
X167063D02*
X174937D01*
X167063Y-79970D02*
X174937D01*
X149520Y-78879D02*
X164480D01*
X149520Y-66675D02*
X164480D01*
Y-78879D02*
Y-66675D01*
X149520Y-78879D02*
Y-66675D01*
X118307Y-52840D02*
X131693D01*
X118307Y-60714D02*
X131693D01*
Y-52840D01*
X118307Y-60714D02*
Y-52840D01*
X133960Y-60714D02*
X147346D01*
X133960Y-52840D02*
X147346D01*
X133960Y-60714D02*
Y-52840D01*
X147346Y-60714D02*
Y-52840D01*
M02*
