G04*
G04 #@! TF.GenerationSoftware,Altium Limited,Altium Designer,19.1.8 (144)*
G04*
G04 Layer_Color=16711935*
%FSLAX25Y25*%
%MOIN*%
G70*
G01*
G75*
%ADD109C,0.00394*%
D109*
X731342Y-268801D02*
Y-221754D01*
X686264Y-268801D02*
X731342D01*
X686264Y-221754D02*
X731342D01*
X686264Y-268801D02*
Y-221754D01*
X177964Y-80521D02*
X191547D01*
Y-86033D02*
Y-80521D01*
X177964Y-86033D02*
X191547D01*
X177964D02*
Y-80521D01*
X130674Y-63521D02*
X144257D01*
Y-69033D02*
Y-63521D01*
X130674Y-69033D02*
X144257D01*
X130674D02*
Y-63521D01*
X167201Y-36403D02*
X191197D01*
X167201Y-62151D02*
X191197D01*
Y-36403D01*
X167201Y-62151D02*
Y-36403D01*
X198646Y-75927D02*
X204354D01*
X198646Y-84628D02*
X204354D01*
X198646D02*
Y-75927D01*
X204354Y-84628D02*
Y-75927D01*
X168146Y-77608D02*
Y-68946D01*
X173854Y-77608D02*
Y-68946D01*
X168146D02*
X173854D01*
X168146Y-77608D02*
X173854D01*
X154441Y-67029D02*
X159559D01*
X154441Y-78525D02*
X159559D01*
Y-67029D01*
X154441Y-78525D02*
Y-67029D01*
X120669Y-53923D02*
X129331D01*
X120669Y-59632D02*
X129331D01*
Y-53923D01*
X120669Y-59632D02*
Y-53923D01*
X136323Y-59632D02*
X144984D01*
X136323Y-53923D02*
X144984D01*
X136323Y-59632D02*
Y-53923D01*
X144984Y-59632D02*
Y-53923D01*
M02*
