G04*
G04 #@! TF.GenerationSoftware,Altium Limited,Altium Designer,19.1.8 (144)*
G04*
G04 Layer_Color=16711935*
%FSLAX25Y25*%
%MOIN*%
G70*
G01*
G75*
%ADD109C,0.00394*%
D109*
X731343Y-268524D02*
Y-221476D01*
X686264Y-268524D02*
X731343D01*
X686264Y-221476D02*
X731343D01*
X686264Y-268524D02*
Y-221476D01*
X177965Y-80244D02*
X191547D01*
Y-85756D02*
Y-80244D01*
X177965Y-85756D02*
X191547D01*
X177965D02*
Y-80244D01*
X130674Y-63244D02*
X144257D01*
Y-68756D02*
Y-63244D01*
X130674Y-68756D02*
X144257D01*
X130674D02*
Y-63244D01*
X167201Y-36126D02*
X191197D01*
X167201Y-61874D02*
X191197D01*
Y-36126D01*
X167201Y-61874D02*
Y-36126D01*
X198646Y-75650D02*
X204354D01*
X198646Y-84350D02*
X204354D01*
X198646D02*
Y-75650D01*
X204354Y-84350D02*
Y-75650D01*
X168146Y-77331D02*
Y-68669D01*
X173854Y-77331D02*
Y-68669D01*
X168146D02*
X173854D01*
X168146Y-77331D02*
X173854D01*
X154441Y-66752D02*
X159559D01*
X154441Y-78248D02*
X159559D01*
Y-66752D01*
X154441Y-78248D02*
Y-66752D01*
X120669Y-53646D02*
X129331D01*
X120669Y-59354D02*
X129331D01*
Y-53646D01*
X120669Y-59354D02*
Y-53646D01*
X136323Y-59354D02*
X144984D01*
X136323Y-53646D02*
X144984D01*
X136323Y-59354D02*
Y-53646D01*
X144984Y-59354D02*
Y-53646D01*
M02*
