G04*
G04 #@! TF.GenerationSoftware,Altium Limited,Altium Designer,19.1.8 (144)*
G04*
G04 Layer_Color=65535*
%FSLAX25Y25*%
%MOIN*%
G70*
G01*
G75*
%ADD10C,0.01000*%
%ADD11C,0.01181*%
%ADD12C,0.01235*%
%ADD13C,0.01544*%
%ADD14C,0.00926*%
D10*
X166773Y-118102D02*
X166706Y-117105D01*
X166507Y-116126D01*
X166179Y-115182D01*
X165729Y-114289D01*
X165163Y-113465D01*
X164493Y-112724D01*
X163729Y-112079D01*
X162887Y-111541D01*
X161980Y-111120D01*
X161026Y-110824D01*
X160040Y-110658D01*
X159041Y-110625D01*
X158047Y-110725D01*
X157074Y-110956D01*
X156142Y-111316D01*
X155265Y-111796D01*
X154461Y-112389D01*
X153742Y-113084D01*
X153123Y-113868D01*
X152613Y-114728D01*
X152223Y-115648D01*
X151959Y-116612D01*
X151826Y-117603D01*
Y-118602D01*
X151959Y-119593D01*
X152223Y-120557D01*
X152613Y-121477D01*
X153123Y-122337D01*
X153742Y-123121D01*
X154461Y-123816D01*
X155265Y-124409D01*
X156142Y-124889D01*
X157074Y-125248D01*
X158047Y-125480D01*
X159041Y-125580D01*
X160040Y-125547D01*
X161026Y-125380D01*
X161980Y-125084D01*
X162887Y-124664D01*
X163729Y-124126D01*
X164493Y-123480D01*
X165163Y-122739D01*
X165729Y-121915D01*
X166179Y-121023D01*
X166507Y-120079D01*
X166706Y-119100D01*
X166773Y-118102D01*
X51502Y-25778D02*
X51399Y-24772D01*
X51096Y-23807D01*
X50605Y-22922D01*
X49946Y-22154D01*
X49146Y-21535D01*
X48238Y-21090D01*
X47259Y-20836D01*
X46248Y-20785D01*
X45248Y-20938D01*
X44300Y-21289D01*
X43441Y-21824D01*
X42708Y-22522D01*
X42130Y-23352D01*
X41731Y-24282D01*
X41527Y-25273D01*
Y-26284D01*
X41731Y-27275D01*
X42130Y-28205D01*
X42708Y-29035D01*
X43441Y-29732D01*
X44300Y-30267D01*
X45248Y-30619D01*
X46248Y-30772D01*
X47259Y-30721D01*
X48238Y-30467D01*
X49146Y-30022D01*
X49946Y-29402D01*
X50605Y-28635D01*
X51096Y-27750D01*
X51399Y-26785D01*
X51502Y-25778D01*
X180789Y-197129D02*
X180686Y-196122D01*
X180384Y-195157D01*
X179893Y-194272D01*
X179234Y-193505D01*
X178434Y-192885D01*
X177525Y-192440D01*
X176546Y-192186D01*
X175536Y-192135D01*
X174536Y-192288D01*
X173587Y-192640D01*
X172728Y-193175D01*
X171995Y-193872D01*
X171417Y-194702D01*
X171018Y-195632D01*
X170815Y-196623D01*
Y-197635D01*
X171018Y-198626D01*
X171417Y-199555D01*
X171995Y-200386D01*
X172728Y-201083D01*
X173587Y-201618D01*
X174536Y-201969D01*
X175536Y-202122D01*
X176546Y-202071D01*
X177525Y-201817D01*
X178434Y-201372D01*
X179234Y-200753D01*
X179893Y-199985D01*
X180384Y-199100D01*
X180686Y-198135D01*
X180789Y-197129D01*
X47960Y-118421D02*
X47907Y-117417D01*
X47747Y-116424D01*
X47482Y-115453D01*
X47116Y-114516D01*
X46652Y-113624D01*
X46096Y-112786D01*
X45454Y-112011D01*
X44733Y-111310D01*
X43942Y-110688D01*
X43089Y-110155D01*
X42184Y-109715D01*
X41238Y-109374D01*
X40261Y-109135D01*
X39264Y-109001D01*
X38259Y-108975D01*
X37256Y-109055D01*
X36267Y-109241D01*
X35304Y-109532D01*
X34378Y-109923D01*
X33498Y-110410D01*
X32675Y-110988D01*
X31918Y-111651D01*
X31235Y-112390D01*
X30635Y-113197D01*
X30125Y-114064D01*
X29709Y-114980D01*
X29393Y-115935D01*
X29180Y-116918D01*
X29074Y-117918D01*
Y-118924D01*
X29180Y-119924D01*
X29393Y-120908D01*
X29709Y-121863D01*
X30125Y-122779D01*
X30635Y-123645D01*
X31235Y-124453D01*
X31918Y-125192D01*
X32675Y-125854D01*
X33498Y-126432D01*
X34378Y-126920D01*
X35304Y-127311D01*
X36267Y-127601D01*
X37256Y-127788D01*
X38259Y-127868D01*
X39264Y-127841D01*
X40261Y-127708D01*
X41238Y-127469D01*
X42184Y-127128D01*
X43089Y-126688D01*
X43942Y-126154D01*
X44733Y-125533D01*
X45454Y-124831D01*
X46096Y-124057D01*
X46652Y-123219D01*
X47116Y-122326D01*
X47482Y-121389D01*
X47747Y-120419D01*
X47907Y-119426D01*
X47960Y-118421D01*
X180786Y-248307D02*
X180683Y-247301D01*
X180380Y-246336D01*
X179890Y-245451D01*
X179231Y-244684D01*
X178430Y-244064D01*
X177522Y-243619D01*
X176543Y-243365D01*
X175532Y-243314D01*
X174532Y-243467D01*
X173584Y-243818D01*
X172725Y-244354D01*
X171992Y-245051D01*
X171414Y-245881D01*
X171015Y-246811D01*
X170811Y-247802D01*
Y-248813D01*
X171015Y-249804D01*
X171414Y-250734D01*
X171992Y-251564D01*
X172725Y-252261D01*
X173584Y-252797D01*
X174532Y-253148D01*
X175532Y-253301D01*
X176543Y-253250D01*
X177522Y-252996D01*
X178430Y-252551D01*
X179231Y-251932D01*
X179890Y-251164D01*
X180380Y-250279D01*
X180683Y-249314D01*
X180786Y-248307D01*
X39053D02*
X38951Y-247301D01*
X38648Y-246336D01*
X38157Y-245451D01*
X37498Y-244684D01*
X36698Y-244064D01*
X35790Y-243619D01*
X34811Y-243365D01*
X33800Y-243314D01*
X32800Y-243467D01*
X31852Y-243818D01*
X30993Y-244354D01*
X30260Y-245051D01*
X29682Y-245881D01*
X29283Y-246811D01*
X29079Y-247802D01*
Y-248813D01*
X29283Y-249804D01*
X29682Y-250734D01*
X30260Y-251564D01*
X30993Y-252261D01*
X31852Y-252797D01*
X32800Y-253148D01*
X33800Y-253301D01*
X34811Y-253250D01*
X35790Y-252996D01*
X36698Y-252551D01*
X37498Y-251932D01*
X38157Y-251164D01*
X38648Y-250279D01*
X38951Y-249314D01*
X39053Y-248307D01*
X39057Y-197129D02*
X38954Y-196122D01*
X38651Y-195157D01*
X38160Y-194272D01*
X37501Y-193505D01*
X36701Y-192885D01*
X35793Y-192440D01*
X34814Y-192186D01*
X33803Y-192135D01*
X32803Y-192288D01*
X31855Y-192640D01*
X30996Y-193175D01*
X30263Y-193872D01*
X29685Y-194702D01*
X29286Y-195632D01*
X29082Y-196623D01*
Y-197635D01*
X29286Y-198626D01*
X29685Y-199555D01*
X30263Y-200386D01*
X30996Y-201083D01*
X31855Y-201618D01*
X32803Y-201969D01*
X33803Y-202122D01*
X34814Y-202071D01*
X35793Y-201817D01*
X36701Y-201372D01*
X37501Y-200753D01*
X38160Y-199985D01*
X38651Y-199100D01*
X38954Y-198135D01*
X39057Y-197129D01*
X287285Y-271932D02*
X287183Y-270925D01*
X286880Y-269960D01*
X286389Y-269076D01*
X285730Y-268308D01*
X284930Y-267689D01*
X284021Y-267243D01*
X283042Y-266990D01*
X282032Y-266938D01*
X281032Y-267091D01*
X280083Y-267443D01*
X279224Y-267978D01*
X278491Y-268675D01*
X277913Y-269505D01*
X277514Y-270435D01*
X277311Y-271426D01*
Y-272438D01*
X277514Y-273429D01*
X277913Y-274358D01*
X278491Y-275189D01*
X279224Y-275886D01*
X280083Y-276421D01*
X281032Y-276772D01*
X282032Y-276925D01*
X283042Y-276874D01*
X284021Y-276621D01*
X284930Y-276175D01*
X285730Y-275556D01*
X286389Y-274788D01*
X286880Y-273904D01*
X287183Y-272938D01*
X287285Y-271932D01*
X107803Y-118421D02*
X107749Y-117417D01*
X107589Y-116424D01*
X107325Y-115453D01*
X106958Y-114516D01*
X106494Y-113624D01*
X105938Y-112786D01*
X105296Y-112011D01*
X104576Y-111310D01*
X103784Y-110688D01*
X102932Y-110155D01*
X102027Y-109715D01*
X101081Y-109374D01*
X100104Y-109135D01*
X99107Y-109001D01*
X98101Y-108975D01*
X97098Y-109055D01*
X96110Y-109241D01*
X95147Y-109532D01*
X94220Y-109923D01*
X93340Y-110410D01*
X92517Y-110988D01*
X91760Y-111651D01*
X91078Y-112390D01*
X90478Y-113197D01*
X89967Y-114064D01*
X89552Y-114980D01*
X89236Y-115935D01*
X89023Y-116918D01*
X88916Y-117918D01*
Y-118924D01*
X89023Y-119924D01*
X89236Y-120908D01*
X89552Y-121863D01*
X89967Y-122779D01*
X90478Y-123645D01*
X91078Y-124453D01*
X91760Y-125192D01*
X92517Y-125854D01*
X93340Y-126432D01*
X94220Y-126920D01*
X95147Y-127311D01*
X96110Y-127601D01*
X97098Y-127788D01*
X98101Y-127868D01*
X99107Y-127841D01*
X100104Y-127708D01*
X101081Y-127469D01*
X102027Y-127128D01*
X102932Y-126688D01*
X103784Y-126154D01*
X104576Y-125533D01*
X105296Y-124831D01*
X105938Y-124057D01*
X106494Y-123219D01*
X106958Y-122326D01*
X107325Y-121389D01*
X107589Y-120419D01*
X107749Y-119426D01*
X107803Y-118421D01*
X133542Y-248307D02*
X133439Y-247301D01*
X133136Y-246336D01*
X132645Y-245451D01*
X131986Y-244684D01*
X131186Y-244064D01*
X130278Y-243619D01*
X129299Y-243365D01*
X128288Y-243314D01*
X127288Y-243467D01*
X126340Y-243818D01*
X125481Y-244354D01*
X124748Y-245051D01*
X124170Y-245881D01*
X123771Y-246811D01*
X123567Y-247802D01*
Y-248813D01*
X123771Y-249804D01*
X124170Y-250734D01*
X124748Y-251564D01*
X125481Y-252261D01*
X126340Y-252797D01*
X127288Y-253148D01*
X128288Y-253301D01*
X129299Y-253250D01*
X130278Y-252996D01*
X131186Y-252551D01*
X131986Y-251932D01*
X132645Y-251164D01*
X133136Y-250279D01*
X133439Y-249314D01*
X133542Y-248307D01*
X86298D02*
X86195Y-247301D01*
X85892Y-246336D01*
X85401Y-245451D01*
X84742Y-244684D01*
X83942Y-244064D01*
X83034Y-243619D01*
X82055Y-243365D01*
X81044Y-243314D01*
X80044Y-243467D01*
X79096Y-243818D01*
X78237Y-244354D01*
X77504Y-245051D01*
X76926Y-245881D01*
X76527Y-246811D01*
X76323Y-247802D01*
Y-248813D01*
X76527Y-249804D01*
X76926Y-250734D01*
X77504Y-251564D01*
X78237Y-252261D01*
X79096Y-252797D01*
X80044Y-253148D01*
X81044Y-253301D01*
X82055Y-253250D01*
X83034Y-252996D01*
X83942Y-252551D01*
X84742Y-251932D01*
X85401Y-251164D01*
X85892Y-250279D01*
X86195Y-249314D01*
X86298Y-248307D01*
X497127Y-271932D02*
X497025Y-270925D01*
X496722Y-269960D01*
X496231Y-269076D01*
X495572Y-268308D01*
X494772Y-267689D01*
X493864Y-267243D01*
X492885Y-266990D01*
X491874Y-266938D01*
X490874Y-267091D01*
X489925Y-267443D01*
X489067Y-267978D01*
X488334Y-268675D01*
X487756Y-269505D01*
X487357Y-270435D01*
X487153Y-271426D01*
Y-272438D01*
X487357Y-273429D01*
X487756Y-274358D01*
X488334Y-275189D01*
X489067Y-275886D01*
X489925Y-276421D01*
X490874Y-276772D01*
X491874Y-276925D01*
X492885Y-276874D01*
X493864Y-276621D01*
X494772Y-276175D01*
X495572Y-275556D01*
X496231Y-274788D01*
X496722Y-273904D01*
X497025Y-272938D01*
X497127Y-271932D01*
X444765D02*
X444663Y-270925D01*
X444360Y-269960D01*
X443869Y-269076D01*
X443210Y-268308D01*
X442410Y-267689D01*
X441502Y-267243D01*
X440522Y-266990D01*
X439512Y-266938D01*
X438512Y-267091D01*
X437563Y-267443D01*
X436705Y-267978D01*
X435971Y-268675D01*
X435393Y-269505D01*
X434995Y-270435D01*
X434791Y-271426D01*
Y-272438D01*
X434995Y-273429D01*
X435393Y-274358D01*
X435971Y-275189D01*
X436705Y-275886D01*
X437563Y-276421D01*
X438512Y-276772D01*
X439512Y-276925D01*
X440522Y-276874D01*
X441502Y-276621D01*
X442410Y-276175D01*
X443210Y-275556D01*
X443869Y-274788D01*
X444360Y-273904D01*
X444663Y-272938D01*
X444765Y-271932D01*
X392403D02*
X392301Y-270925D01*
X391998Y-269960D01*
X391507Y-269076D01*
X390848Y-268308D01*
X390048Y-267689D01*
X389140Y-267243D01*
X388160Y-266990D01*
X387150Y-266938D01*
X386150Y-267091D01*
X385201Y-267443D01*
X384343Y-267978D01*
X383609Y-268675D01*
X383031Y-269505D01*
X382632Y-270435D01*
X382429Y-271426D01*
Y-272438D01*
X382632Y-273429D01*
X383031Y-274358D01*
X383609Y-275189D01*
X384343Y-275886D01*
X385201Y-276421D01*
X386150Y-276772D01*
X387150Y-276925D01*
X388160Y-276874D01*
X389140Y-276621D01*
X390048Y-276175D01*
X390848Y-275556D01*
X391507Y-274788D01*
X391998Y-273904D01*
X392301Y-272938D01*
X392403Y-271932D01*
X339647D02*
X339545Y-270925D01*
X339242Y-269960D01*
X338751Y-269076D01*
X338092Y-268308D01*
X337292Y-267689D01*
X336384Y-267243D01*
X335404Y-266990D01*
X334394Y-266938D01*
X333394Y-267091D01*
X332445Y-267443D01*
X331587Y-267978D01*
X330853Y-268675D01*
X330275Y-269505D01*
X329876Y-270435D01*
X329673Y-271426D01*
Y-272438D01*
X329876Y-273429D01*
X330275Y-274358D01*
X330853Y-275189D01*
X331587Y-275886D01*
X332445Y-276421D01*
X333394Y-276772D01*
X334394Y-276925D01*
X335404Y-276874D01*
X336384Y-276621D01*
X337292Y-276175D01*
X338092Y-275556D01*
X338751Y-274788D01*
X339242Y-273904D01*
X339545Y-272938D01*
X339647Y-271932D01*
X234923D02*
X234820Y-270925D01*
X234518Y-269960D01*
X234027Y-269076D01*
X233368Y-268308D01*
X232568Y-267689D01*
X231659Y-267243D01*
X230680Y-266990D01*
X229669Y-266938D01*
X228670Y-267091D01*
X227721Y-267443D01*
X226862Y-267978D01*
X226129Y-268675D01*
X225551Y-269505D01*
X225152Y-270435D01*
X224948Y-271426D01*
Y-272438D01*
X225152Y-273429D01*
X225551Y-274358D01*
X226129Y-275189D01*
X226862Y-275886D01*
X227721Y-276421D01*
X228670Y-276772D01*
X229669Y-276925D01*
X230680Y-276874D01*
X231659Y-276621D01*
X232568Y-276175D01*
X233368Y-275556D01*
X234027Y-274788D01*
X234518Y-273904D01*
X234820Y-272938D01*
X234923Y-271932D01*
X133545Y-197129D02*
X133442Y-196122D01*
X133140Y-195157D01*
X132649Y-194272D01*
X131990Y-193505D01*
X131190Y-192885D01*
X130281Y-192440D01*
X129302Y-192186D01*
X128291Y-192135D01*
X127292Y-192288D01*
X126343Y-192640D01*
X125484Y-193175D01*
X124751Y-193872D01*
X124173Y-194702D01*
X123774Y-195632D01*
X123570Y-196623D01*
Y-197635D01*
X123774Y-198626D01*
X124173Y-199555D01*
X124751Y-200386D01*
X125484Y-201083D01*
X126343Y-201618D01*
X127292Y-201969D01*
X128291Y-202122D01*
X129302Y-202071D01*
X130281Y-201817D01*
X131190Y-201372D01*
X131990Y-200753D01*
X132649Y-199985D01*
X133140Y-199100D01*
X133442Y-198135D01*
X133545Y-197129D01*
X86301D02*
X86198Y-196122D01*
X85896Y-195157D01*
X85404Y-194272D01*
X84746Y-193505D01*
X83946Y-192885D01*
X83037Y-192440D01*
X82058Y-192186D01*
X81047Y-192135D01*
X80047Y-192288D01*
X79099Y-192640D01*
X78240Y-193175D01*
X77507Y-193872D01*
X76929Y-194702D01*
X76530Y-195632D01*
X76326Y-196623D01*
Y-197635D01*
X76530Y-198626D01*
X76929Y-199555D01*
X77507Y-200386D01*
X78240Y-201083D01*
X79099Y-201618D01*
X80047Y-201969D01*
X81047Y-202122D01*
X82058Y-202071D01*
X83037Y-201817D01*
X83946Y-201372D01*
X84746Y-200753D01*
X85404Y-199985D01*
X85896Y-199100D01*
X86198Y-198135D01*
X86301Y-197129D01*
X317799Y-226269D02*
Y-218269D01*
X294177Y-226269D02*
Y-218269D01*
X207563Y-227049D02*
X565831Y-225868D01*
Y-13269D01*
X207563D02*
X565831D01*
X207563Y-226769D02*
X207563Y-13269D01*
X545483Y-29261D02*
X565510D01*
Y-209269D02*
Y-29261D01*
X545483Y-209269D02*
X565510D01*
X545483D02*
Y-29261D01*
X231500Y-17206D02*
X538272D01*
X231500D02*
X231500Y-217600D01*
X538272Y-217994D01*
Y-17206D01*
X135439Y-110771D02*
X135514Y-90623D01*
X142602D01*
X183509Y-110771D02*
X183549Y-90623D01*
X175279D02*
X183549D01*
X135514Y-148498D02*
Y-125338D01*
Y-148498D02*
X143783Y-148420D01*
X183549Y-147713D02*
X183624Y-125338D01*
X183155Y-148106D02*
X183549D01*
X175279Y-148145D02*
X183155Y-148106D01*
X155594Y-90623D02*
X162681D01*
X61499Y-28278D02*
Y-23276D01*
X31501Y-28278D02*
Y-23276D01*
X39002Y-38275D02*
X53998D01*
X39002Y-13277D02*
X53998D01*
X168289Y-184627D02*
X183285D01*
X168289Y-209626D02*
X183285D01*
X160788Y-199628D02*
Y-194627D01*
X190787Y-199628D02*
Y-194627D01*
X60319Y-140230D02*
Y-84836D01*
X16579D02*
X60319D01*
X16579Y-140230D02*
Y-84836D01*
Y-140230D02*
X60319D01*
X160788Y-250810D02*
Y-245808D01*
X190787Y-250810D02*
Y-245808D01*
X168289Y-235811D02*
X183285D01*
X168289Y-260809D02*
X183285D01*
X19056Y-250810D02*
Y-245808D01*
X49054Y-250810D02*
Y-245808D01*
X26557Y-235811D02*
X41553D01*
X26557Y-260809D02*
X41553D01*
X49054Y-199628D02*
Y-194627D01*
X19056Y-199628D02*
Y-194627D01*
X26557Y-209626D02*
X41553D01*
X26557Y-184627D02*
X41553D01*
X159962Y-162472D02*
Y-157358D01*
X297283Y-274431D02*
Y-269430D01*
X267284Y-274431D02*
Y-269430D01*
X274785Y-284429D02*
X289781D01*
X274785Y-259430D02*
X289781D01*
X120161Y-140230D02*
Y-84836D01*
X76421D02*
X120161D01*
X76421Y-140230D02*
Y-84836D01*
Y-140230D02*
X120161D01*
X113544Y-250810D02*
Y-245808D01*
X143542Y-250810D02*
Y-245808D01*
X121045Y-235811D02*
X136041D01*
X121045Y-260809D02*
X136041D01*
X66300Y-250810D02*
Y-245808D01*
X96298Y-250810D02*
Y-245808D01*
X73801Y-235811D02*
X88797D01*
X73801Y-260809D02*
X88797D01*
X507125Y-274431D02*
Y-269430D01*
X477127Y-274431D02*
Y-269430D01*
X484628Y-284429D02*
X499624D01*
X484628Y-259430D02*
X499624D01*
X454763Y-274431D02*
Y-269430D01*
X424764Y-274431D02*
Y-269430D01*
X432266Y-284429D02*
X447262D01*
X432266Y-259430D02*
X447262D01*
X402401Y-274431D02*
Y-269430D01*
X372402Y-274431D02*
Y-269430D01*
X379903Y-284429D02*
X394900D01*
X379903Y-259430D02*
X394900D01*
X349645Y-274431D02*
Y-269430D01*
X319646Y-274431D02*
Y-269430D01*
X327148Y-284429D02*
X342144D01*
X327148Y-259430D02*
X342144D01*
X244920Y-274431D02*
Y-269430D01*
X214922Y-274431D02*
Y-269430D01*
X222423Y-284429D02*
X237419D01*
X222423Y-259430D02*
X237419D01*
X143542Y-199628D02*
Y-194627D01*
X113544Y-199628D02*
Y-194627D01*
X121045Y-209626D02*
X136041D01*
X121045Y-184627D02*
X136041D01*
X96298Y-199628D02*
Y-194627D01*
X66300Y-199628D02*
Y-194627D01*
X73801Y-209626D02*
X88797D01*
X73801Y-184627D02*
X88797D01*
X158786Y-162472D02*
Y-157358D01*
X66501Y-37778D02*
X65502Y-38778D01*
Y-40778D01*
X66501Y-41777D01*
X67501D01*
X68501Y-40778D01*
Y-38778D01*
X69500Y-37778D01*
X70500D01*
X71500Y-38778D01*
Y-40778D01*
X70500Y-41777D01*
X71500Y-35779D02*
Y-33780D01*
Y-34779D01*
X65502D01*
X66501Y-35779D01*
X65502Y-26782D02*
Y-30781D01*
X68501D01*
X67501Y-28781D01*
Y-27782D01*
X68501Y-26782D01*
X70500D01*
X71500Y-27782D01*
Y-29781D01*
X70500Y-30781D01*
X36000Y-9777D02*
Y-3779D01*
X38999D01*
X39999Y-4779D01*
Y-6778D01*
X38999Y-7778D01*
X36000D01*
X41998Y-3779D02*
Y-9777D01*
X43997Y-7778D01*
X45997Y-9777D01*
Y-3779D01*
X47996Y-9777D02*
Y-3779D01*
X50995D01*
X51995Y-4779D01*
Y-6778D01*
X50995Y-7778D01*
X47996D01*
X49995D02*
X51995Y-9777D01*
X174659Y-212454D02*
X173994Y-211789D01*
X172665D01*
X172000Y-212454D01*
Y-213118D01*
X172665Y-213783D01*
X173994D01*
X174659Y-214448D01*
Y-215112D01*
X173994Y-215777D01*
X172665D01*
X172000Y-215112D01*
X177982Y-215777D02*
Y-211789D01*
X175988Y-213783D01*
X178647D01*
X160000Y-181777D02*
Y-174180D01*
X162532Y-176712D01*
X165065Y-174180D01*
Y-181777D01*
X171396Y-174180D02*
X168864D01*
X167597Y-175446D01*
Y-180511D01*
X168864Y-181777D01*
X171396D01*
X172662Y-180511D01*
Y-175446D01*
X171396Y-174180D01*
X175195D02*
Y-181777D01*
X178994D01*
X180260Y-180511D01*
Y-175446D01*
X178994Y-174180D01*
X175195D01*
X187857D02*
X182792D01*
Y-181777D01*
X187857D01*
X182792Y-177978D02*
X185325D01*
X190390D02*
X195455D01*
X192923Y-175446D02*
Y-180511D01*
X408719Y-11649D02*
Y-7661D01*
X406725D01*
X406060Y-8326D01*
Y-9655D01*
X406725Y-10320D01*
X408719D01*
X407390D02*
X406060Y-11649D01*
X402072Y-7661D02*
X404731D01*
Y-9655D01*
X403402D01*
X404731D01*
Y-11649D01*
X400743Y-9655D02*
X398084D01*
X396755Y-7661D02*
Y-10984D01*
X396090Y-11649D01*
X394761D01*
X394096Y-10984D01*
Y-7661D01*
X392767Y-11649D02*
Y-7661D01*
X390108Y-11649D01*
Y-7661D01*
X388778D02*
X387449D01*
X388114D01*
Y-11649D01*
X388778D01*
X387449D01*
X385455Y-7661D02*
X382796D01*
X384126D01*
Y-11649D01*
X36000Y-83277D02*
Y-79289D01*
X37994D01*
X38659Y-79954D01*
Y-81283D01*
X37994Y-81948D01*
X36000D01*
X37329D02*
X38659Y-83277D01*
X39988D02*
X41317D01*
X40653D01*
Y-79289D01*
X39988Y-79954D01*
X14500Y-149777D02*
Y-144712D01*
X17032Y-142180D01*
X19565Y-144712D01*
Y-149777D01*
Y-145978D01*
X14500D01*
X27163Y-142180D02*
X22097D01*
Y-145978D01*
X24630D01*
X22097D01*
Y-149777D01*
X42358Y-143446D02*
X41091Y-142180D01*
X38559D01*
X37293Y-143446D01*
Y-148511D01*
X38559Y-149777D01*
X41091D01*
X42358Y-148511D01*
Y-145978D01*
X39825D01*
X44890Y-149777D02*
Y-144712D01*
X47423Y-142180D01*
X49955Y-144712D01*
Y-149777D01*
Y-145978D01*
X44890D01*
X52488Y-142180D02*
X55020D01*
X53754D01*
Y-149777D01*
X52488D01*
X55020D01*
X58819D02*
Y-142180D01*
X63884Y-149777D01*
Y-142180D01*
X176159Y-263954D02*
X175494Y-263289D01*
X174165D01*
X173500Y-263954D01*
Y-264618D01*
X174165Y-265283D01*
X175494D01*
X176159Y-265948D01*
Y-266613D01*
X175494Y-267277D01*
X174165D01*
X173500Y-266613D01*
X177488Y-263954D02*
X178153Y-263289D01*
X179482D01*
X180147Y-263954D01*
Y-264618D01*
X179482Y-265283D01*
X180147Y-265948D01*
Y-266613D01*
X179482Y-267277D01*
X178153D01*
X177488Y-266613D01*
Y-265948D01*
X178153Y-265283D01*
X177488Y-264618D01*
Y-263954D01*
X178153Y-265283D02*
X179482D01*
X166500Y-233277D02*
Y-228212D01*
X169032Y-225680D01*
X171565Y-228212D01*
Y-233277D01*
Y-229478D01*
X166500D01*
X174097Y-233277D02*
X179163Y-228212D01*
X181695Y-225680D02*
Y-233277D01*
X185494D01*
X186760Y-232011D01*
Y-230745D01*
X185494Y-229478D01*
X181695D01*
X185494D01*
X186760Y-228212D01*
Y-226946D01*
X185494Y-225680D01*
X181695D01*
X33659Y-264454D02*
X32994Y-263789D01*
X31665D01*
X31000Y-264454D01*
Y-265118D01*
X31665Y-265783D01*
X32994D01*
X33659Y-266448D01*
Y-267112D01*
X32994Y-267777D01*
X31665D01*
X31000Y-267112D01*
X37647Y-263789D02*
X34988D01*
Y-265783D01*
X36317Y-265118D01*
X36982D01*
X37647Y-265783D01*
Y-267112D01*
X36982Y-267777D01*
X35653D01*
X34988Y-267112D01*
X27065Y-224680D02*
X22000D01*
Y-228478D01*
X24532D01*
X22000D01*
Y-232277D01*
X29597D02*
Y-227212D01*
X32130Y-224680D01*
X34663Y-227212D01*
Y-232277D01*
Y-228478D01*
X29597D01*
X42260Y-225946D02*
X40994Y-224680D01*
X38461D01*
X37195Y-225946D01*
Y-227212D01*
X38461Y-228478D01*
X40994D01*
X42260Y-229745D01*
Y-231011D01*
X40994Y-232277D01*
X38461D01*
X37195Y-231011D01*
X44793Y-224680D02*
X49858D01*
X47325D01*
Y-232277D01*
X154672Y-81531D02*
X152013D01*
Y-85519D01*
X154672D01*
X152013Y-83525D02*
X153343D01*
X156001Y-85519D02*
Y-81531D01*
X158660Y-85519D01*
Y-81531D01*
X162648Y-82196D02*
X161984Y-81531D01*
X160654D01*
X159990Y-82196D01*
Y-84855D01*
X160654Y-85519D01*
X161984D01*
X162648Y-84855D01*
X166636Y-85519D02*
X163978D01*
X166636Y-82860D01*
Y-82196D01*
X165972Y-81531D01*
X164642D01*
X163978Y-82196D01*
X34659Y-212954D02*
X33994Y-212289D01*
X32665D01*
X32000Y-212954D01*
Y-213618D01*
X32665Y-214283D01*
X33994D01*
X34659Y-214948D01*
Y-215613D01*
X33994Y-216277D01*
X32665D01*
X32000Y-215613D01*
X35988Y-216277D02*
X37317D01*
X36653D01*
Y-212289D01*
X35988Y-212954D01*
X24500Y-173680D02*
Y-181277D01*
X28299D01*
X29565Y-180011D01*
Y-178745D01*
X28299Y-177478D01*
X24500D01*
X28299D01*
X29565Y-176212D01*
Y-174946D01*
X28299Y-173680D01*
X24500D01*
X32097Y-181277D02*
Y-176212D01*
X34630Y-173680D01*
X37163Y-176212D01*
Y-181277D01*
Y-177478D01*
X32097D01*
X39695Y-181277D02*
Y-173680D01*
X44760Y-181277D01*
Y-173680D01*
X47293D02*
Y-181277D01*
X51091D01*
X52358Y-180011D01*
Y-174946D01*
X51091Y-173680D01*
X47293D01*
X54890Y-177478D02*
X59955D01*
X180647Y-160286D02*
X179982Y-159622D01*
X178653D01*
X177989Y-160286D01*
Y-162945D01*
X178653Y-163610D01*
X179982D01*
X180647Y-162945D01*
X181977Y-163610D02*
X183306D01*
X182641D01*
Y-159622D01*
X181977Y-160286D01*
X280659Y-288954D02*
X279994Y-288289D01*
X278665D01*
X278000Y-288954D01*
Y-289618D01*
X278665Y-290283D01*
X279994D01*
X280659Y-290948D01*
Y-291613D01*
X279994Y-292277D01*
X278665D01*
X278000Y-291613D01*
X281988Y-292277D02*
X283317D01*
X282653D01*
Y-288289D01*
X281988Y-288954D01*
X285311D02*
X285976Y-288289D01*
X287305D01*
X287970Y-288954D01*
Y-291613D01*
X287305Y-292277D01*
X285976D01*
X285311Y-291613D01*
Y-288954D01*
X271500Y-247680D02*
Y-255277D01*
X275299D01*
X276565Y-254011D01*
Y-248946D01*
X275299Y-247680D01*
X271500D01*
X279097Y-255277D02*
Y-247680D01*
X284162Y-255277D01*
Y-247680D01*
X286695Y-255277D02*
Y-247680D01*
X290494D01*
X291760Y-248946D01*
Y-251478D01*
X290494Y-252745D01*
X286695D01*
X289228D02*
X291760Y-255277D01*
X183579Y-172578D02*
Y-168590D01*
X185573D01*
X186237Y-169255D01*
Y-170584D01*
X185573Y-171249D01*
X183579D01*
X184908D02*
X186237Y-172578D01*
X187567D02*
X188896D01*
X188231D01*
Y-168590D01*
X187567Y-169255D01*
X190890D02*
X191555Y-168590D01*
X192884D01*
X193549Y-169255D01*
Y-169920D01*
X192884Y-170584D01*
X193549Y-171249D01*
Y-171914D01*
X192884Y-172578D01*
X191555D01*
X190890Y-171914D01*
Y-171249D01*
X191555Y-170584D01*
X190890Y-169920D01*
Y-169255D01*
X191555Y-170584D02*
X192884D01*
X371491Y-11649D02*
Y-7661D01*
X370162Y-8990D01*
X368833Y-7661D01*
Y-11649D01*
X365509Y-7661D02*
X366839D01*
X367503Y-8326D01*
Y-10984D01*
X366839Y-11649D01*
X365509D01*
X364844Y-10984D01*
Y-8326D01*
X365509Y-7661D01*
X363515D02*
X360856D01*
X362186D01*
Y-11649D01*
X359527Y-7661D02*
Y-11649D01*
Y-9655D01*
X356868D01*
Y-7661D01*
Y-11649D01*
X352880Y-7661D02*
X355539D01*
Y-11649D01*
X352880D01*
X355539Y-9655D02*
X354209D01*
X351551Y-11649D02*
Y-7661D01*
X349557D01*
X348892Y-8326D01*
Y-9655D01*
X349557Y-10320D01*
X351551D01*
X350221D02*
X348892Y-11649D01*
X347563Y-7661D02*
Y-11649D01*
X345569D01*
X344904Y-10984D01*
Y-10320D01*
X345569Y-9655D01*
X347563D01*
X345569D01*
X344904Y-8990D01*
Y-8326D01*
X345569Y-7661D01*
X347563D01*
X341581D02*
X342910D01*
X343575Y-8326D01*
Y-10984D01*
X342910Y-11649D01*
X341581D01*
X340916Y-10984D01*
Y-8326D01*
X341581Y-7661D01*
X339586Y-11649D02*
Y-8990D01*
X338257Y-7661D01*
X336928Y-8990D01*
Y-11649D01*
Y-9655D01*
X339586D01*
X335598Y-11649D02*
Y-7661D01*
X333604D01*
X332940Y-8326D01*
Y-9655D01*
X333604Y-10320D01*
X335598D01*
X334269D02*
X332940Y-11649D01*
X331610Y-7661D02*
Y-11649D01*
X329616D01*
X328952Y-10984D01*
Y-8326D01*
X329616Y-7661D01*
X331610D01*
X95000Y-82777D02*
Y-78789D01*
X96994D01*
X97659Y-79454D01*
Y-80783D01*
X96994Y-81448D01*
X95000D01*
X96329D02*
X97659Y-82777D01*
X101647D02*
X98988D01*
X101647Y-80118D01*
Y-79454D01*
X100982Y-78789D01*
X99653D01*
X98988Y-79454D01*
X88065Y-143946D02*
X86799Y-142680D01*
X84266D01*
X83000Y-143946D01*
Y-145212D01*
X84266Y-146478D01*
X86799D01*
X88065Y-147745D01*
Y-149011D01*
X86799Y-150277D01*
X84266D01*
X83000Y-149011D01*
X90597Y-142680D02*
Y-150277D01*
Y-146478D01*
X95662D01*
Y-142680D01*
Y-150277D01*
X98195Y-142680D02*
X100727D01*
X99461D01*
Y-150277D01*
X98195D01*
X100727D01*
X109591Y-142680D02*
X104526D01*
Y-146478D01*
X107059D01*
X104526D01*
Y-150277D01*
X112124Y-142680D02*
X117189D01*
X114656D01*
Y-150277D01*
X127659Y-265454D02*
X126994Y-264789D01*
X125665D01*
X125000Y-265454D01*
Y-266118D01*
X125665Y-266783D01*
X126994D01*
X127659Y-267448D01*
Y-268112D01*
X126994Y-268777D01*
X125665D01*
X125000Y-268112D01*
X128988Y-264789D02*
X131647D01*
Y-265454D01*
X128988Y-268112D01*
Y-268777D01*
X116500Y-225180D02*
X121565D01*
X119032D01*
Y-232777D01*
X124097Y-225180D02*
Y-231511D01*
X125364Y-232777D01*
X127896D01*
X129163Y-231511D01*
Y-225180D01*
X131695Y-232777D02*
Y-225180D01*
X136760Y-232777D01*
Y-225180D01*
X144358D02*
X139293D01*
Y-232777D01*
X144358D01*
X139293Y-228978D02*
X141825D01*
X81659Y-264454D02*
X80994Y-263789D01*
X79665D01*
X79000Y-264454D01*
Y-265118D01*
X79665Y-265783D01*
X80994D01*
X81659Y-266448D01*
Y-267112D01*
X80994Y-267777D01*
X79665D01*
X79000Y-267112D01*
X85647Y-263789D02*
X84317Y-264454D01*
X82988Y-265783D01*
Y-267112D01*
X83653Y-267777D01*
X84982D01*
X85647Y-267112D01*
Y-266448D01*
X84982Y-265783D01*
X82988D01*
X56000Y-232277D02*
Y-224680D01*
X59799D01*
X61065Y-225946D01*
Y-228478D01*
X59799Y-229745D01*
X56000D01*
X63597Y-232277D02*
Y-224680D01*
X67396D01*
X68663Y-225946D01*
Y-228478D01*
X67396Y-229745D01*
X63597D01*
X66130D02*
X68663Y-232277D01*
X76260Y-224680D02*
X71195D01*
Y-232277D01*
X76260D01*
X71195Y-228478D02*
X73728D01*
X78793Y-232277D02*
X83858Y-227212D01*
X86390Y-232277D02*
Y-227212D01*
X88923Y-224680D01*
X91455Y-227212D01*
Y-232277D01*
Y-228478D01*
X86390D01*
X93988Y-224680D02*
X99053D01*
X96520D01*
Y-232277D01*
X101585Y-224680D02*
X106650D01*
X104118D01*
Y-232277D01*
X89716Y-9051D02*
X88387D01*
X89051D01*
Y-13039D01*
X89716D01*
X88387D01*
X86392D02*
Y-9051D01*
X83734Y-13039D01*
Y-9051D01*
X174061Y-13039D02*
Y-10380D01*
X172731Y-9051D01*
X171402Y-10380D01*
Y-13039D01*
Y-11045D01*
X174061D01*
X167414Y-9715D02*
X168078Y-9051D01*
X169408D01*
X170073Y-9715D01*
Y-12374D01*
X169408Y-13039D01*
X168078D01*
X167414Y-12374D01*
X163426Y-9715D02*
X164090Y-9051D01*
X165420D01*
X166085Y-9715D01*
Y-12374D01*
X165420Y-13039D01*
X164090D01*
X163426Y-12374D01*
X162096Y-9051D02*
Y-12374D01*
X161432Y-13039D01*
X160102D01*
X159438Y-12374D01*
Y-9051D01*
X158108Y-13039D02*
Y-9051D01*
X156779Y-10380D01*
X155449Y-9051D01*
Y-13039D01*
X489659Y-287954D02*
X488994Y-287289D01*
X487665D01*
X487000Y-287954D01*
Y-288618D01*
X487665Y-289283D01*
X488994D01*
X489659Y-289948D01*
Y-290613D01*
X488994Y-291277D01*
X487665D01*
X487000Y-290613D01*
X490988Y-291277D02*
X492317D01*
X491653D01*
Y-287289D01*
X490988Y-287954D01*
X496306Y-291277D02*
Y-287289D01*
X494311Y-289283D01*
X496970D01*
X478500Y-255777D02*
Y-248180D01*
X481032Y-250712D01*
X483565Y-248180D01*
Y-255777D01*
X491162Y-248180D02*
X486097D01*
Y-255777D01*
X491162D01*
X486097Y-251978D02*
X488630D01*
X493695Y-255777D02*
Y-248180D01*
X498760Y-255777D01*
Y-248180D01*
X501293D02*
Y-254511D01*
X502559Y-255777D01*
X505091D01*
X506357Y-254511D01*
Y-248180D01*
X437159Y-287954D02*
X436494Y-287289D01*
X435165D01*
X434500Y-287954D01*
Y-288618D01*
X435165Y-289283D01*
X436494D01*
X437159Y-289948D01*
Y-290613D01*
X436494Y-291277D01*
X435165D01*
X434500Y-290613D01*
X438488Y-291277D02*
X439817D01*
X439153D01*
Y-287289D01*
X438488Y-287954D01*
X441811D02*
X442476Y-287289D01*
X443806D01*
X444470Y-287954D01*
Y-288618D01*
X443806Y-289283D01*
X443141D01*
X443806D01*
X444470Y-289948D01*
Y-290613D01*
X443806Y-291277D01*
X442476D01*
X441811Y-290613D01*
X430065Y-248946D02*
X428799Y-247680D01*
X426266D01*
X425000Y-248946D01*
Y-254011D01*
X426266Y-255277D01*
X428799D01*
X430065Y-254011D01*
X432597Y-247680D02*
Y-255277D01*
X437663D01*
X440195D02*
Y-250212D01*
X442728Y-247680D01*
X445260Y-250212D01*
Y-255277D01*
Y-251478D01*
X440195D01*
X447792Y-255277D02*
Y-247680D01*
X451591D01*
X452857Y-248946D01*
Y-251478D01*
X451591Y-252745D01*
X447792D01*
X450325D02*
X452857Y-255277D01*
X384659Y-288954D02*
X383994Y-288289D01*
X382665D01*
X382000Y-288954D01*
Y-289618D01*
X382665Y-290283D01*
X383994D01*
X384659Y-290948D01*
Y-291613D01*
X383994Y-292277D01*
X382665D01*
X382000Y-291613D01*
X385988Y-292277D02*
X387317D01*
X386653D01*
Y-288289D01*
X385988Y-288954D01*
X391970Y-292277D02*
X389311D01*
X391970Y-289618D01*
Y-288954D01*
X391305Y-288289D01*
X389976D01*
X389311Y-288954D01*
X370000Y-255277D02*
Y-247680D01*
X375065Y-255277D01*
Y-247680D01*
X381396D02*
X378864D01*
X377597Y-248946D01*
Y-254011D01*
X378864Y-255277D01*
X381396D01*
X382663Y-254011D01*
Y-248946D01*
X381396Y-247680D01*
X385195D02*
X390260D01*
X387727D01*
Y-255277D01*
X397857Y-248946D02*
X396591Y-247680D01*
X394059D01*
X392793Y-248946D01*
Y-254011D01*
X394059Y-255277D01*
X396591D01*
X397857Y-254011D01*
X400390Y-247680D02*
Y-255277D01*
Y-251478D01*
X405455D01*
Y-247680D01*
Y-255277D01*
X333659Y-288454D02*
X332994Y-287789D01*
X331665D01*
X331000Y-288454D01*
Y-289118D01*
X331665Y-289783D01*
X332994D01*
X333659Y-290448D01*
Y-291112D01*
X332994Y-291777D01*
X331665D01*
X331000Y-291112D01*
X334988Y-291777D02*
X336317D01*
X335653D01*
Y-287789D01*
X334988Y-288454D01*
X338311Y-291777D02*
X339641D01*
X338976D01*
Y-287789D01*
X338311Y-288454D01*
X324000Y-256277D02*
Y-248680D01*
X329065Y-256277D01*
Y-248680D01*
X335396D02*
X332864D01*
X331597Y-249946D01*
Y-255011D01*
X332864Y-256277D01*
X335396D01*
X336663Y-255011D01*
Y-249946D01*
X335396Y-248680D01*
X339195D02*
X344260D01*
X341727D01*
Y-256277D01*
X351857Y-249946D02*
X350591Y-248680D01*
X348059D01*
X346793Y-249946D01*
Y-255011D01*
X348059Y-256277D01*
X350591D01*
X351857Y-255011D01*
X354390Y-248680D02*
Y-256277D01*
Y-252478D01*
X359455D01*
Y-248680D01*
Y-256277D01*
X358419Y-273776D02*
X354431D01*
Y-271782D01*
X355096Y-271117D01*
X356425D01*
X357090Y-271782D01*
Y-273776D01*
Y-272447D02*
X358419Y-271117D01*
Y-269788D02*
Y-268459D01*
Y-269123D01*
X354431D01*
X355096Y-269788D01*
X358419Y-264470D02*
X354431D01*
X356425Y-266464D01*
Y-263806D01*
X305663Y-273681D02*
X301675D01*
Y-271687D01*
X302340Y-271022D01*
X303669D01*
X304334Y-271687D01*
Y-273681D01*
Y-272352D02*
X305663Y-271022D01*
Y-269693D02*
Y-268364D01*
Y-269028D01*
X301675D01*
X302340Y-269693D01*
Y-266370D02*
X301675Y-265705D01*
Y-264375D01*
X302340Y-263711D01*
X303005D01*
X303669Y-264375D01*
Y-265040D01*
Y-264375D01*
X304334Y-263711D01*
X304998D01*
X305663Y-264375D01*
Y-265705D01*
X304998Y-266370D01*
X229659Y-288454D02*
X228994Y-287789D01*
X227665D01*
X227000Y-288454D01*
Y-289118D01*
X227665Y-289783D01*
X228994D01*
X229659Y-290448D01*
Y-291112D01*
X228994Y-291777D01*
X227665D01*
X227000Y-291112D01*
X230988D02*
X231653Y-291777D01*
X232982D01*
X233647Y-291112D01*
Y-288454D01*
X232982Y-287789D01*
X231653D01*
X230988Y-288454D01*
Y-289118D01*
X231653Y-289783D01*
X233647D01*
X220000Y-256277D02*
Y-251212D01*
X222532Y-248680D01*
X225065Y-251212D01*
Y-256277D01*
Y-252478D01*
X220000D01*
X232663Y-249946D02*
X231396Y-248680D01*
X228864D01*
X227597Y-249946D01*
Y-255011D01*
X228864Y-256277D01*
X231396D01*
X232663Y-255011D01*
Y-252478D01*
X230130D01*
X240260Y-249946D02*
X238994Y-248680D01*
X236461D01*
X235195Y-249946D01*
Y-255011D01*
X236461Y-256277D01*
X238994D01*
X240260Y-255011D01*
X128159Y-212954D02*
X127494Y-212289D01*
X126165D01*
X125500Y-212954D01*
Y-213618D01*
X126165Y-214283D01*
X127494D01*
X128159Y-214948D01*
Y-215613D01*
X127494Y-216277D01*
X126165D01*
X125500Y-215613D01*
X129488Y-212954D02*
X130153Y-212289D01*
X131482D01*
X132147Y-212954D01*
Y-213618D01*
X131482Y-214283D01*
X130817D01*
X131482D01*
X132147Y-214948D01*
Y-215613D01*
X131482Y-216277D01*
X130153D01*
X129488Y-215613D01*
X112000Y-181777D02*
Y-174180D01*
X114532Y-176712D01*
X117065Y-174180D01*
Y-181777D01*
X123396Y-174180D02*
X120864D01*
X119597Y-175446D01*
Y-180511D01*
X120864Y-181777D01*
X123396D01*
X124662Y-180511D01*
Y-175446D01*
X123396Y-174180D01*
X127195D02*
Y-181777D01*
X130994D01*
X132260Y-180511D01*
Y-175446D01*
X130994Y-174180D01*
X127195D01*
X139857D02*
X134792D01*
Y-181777D01*
X139857D01*
X134792Y-177978D02*
X137325D01*
X142390D02*
X147455D01*
X80659Y-212454D02*
X79994Y-211789D01*
X78665D01*
X78000Y-212454D01*
Y-213118D01*
X78665Y-213783D01*
X79994D01*
X80659Y-214448D01*
Y-215112D01*
X79994Y-215777D01*
X78665D01*
X78000Y-215112D01*
X84647Y-215777D02*
X81988D01*
X84647Y-213118D01*
Y-212454D01*
X83982Y-211789D01*
X82653D01*
X81988Y-212454D01*
X67000Y-173680D02*
Y-181277D01*
X70799D01*
X72065Y-180011D01*
Y-178745D01*
X70799Y-177478D01*
X67000D01*
X70799D01*
X72065Y-176212D01*
Y-174946D01*
X70799Y-173680D01*
X67000D01*
X74597Y-181277D02*
Y-176212D01*
X77130Y-173680D01*
X79663Y-176212D01*
Y-181277D01*
Y-177478D01*
X74597D01*
X82195Y-181277D02*
Y-173680D01*
X87260Y-181277D01*
Y-173680D01*
X89793D02*
Y-181277D01*
X93591D01*
X94858Y-180011D01*
Y-174946D01*
X93591Y-173680D01*
X89793D01*
X97390Y-177478D02*
X102455D01*
X99923Y-174946D02*
Y-180011D01*
X136876Y-158712D02*
X136212Y-158047D01*
X134882D01*
X134218Y-158712D01*
Y-161370D01*
X134882Y-162035D01*
X136212D01*
X136876Y-161370D01*
X140865Y-162035D02*
X138206D01*
X140865Y-159376D01*
Y-158712D01*
X140200Y-158047D01*
X138870D01*
X138206Y-158712D01*
X184403Y-279378D02*
X180415D01*
Y-277384D01*
X181080Y-276720D01*
X182409D01*
X183074Y-277384D01*
Y-279378D01*
Y-278049D02*
X184403Y-276720D01*
X183739Y-275390D02*
X184403Y-274726D01*
Y-273396D01*
X183739Y-272731D01*
X181080D01*
X180415Y-273396D01*
Y-274726D01*
X181080Y-275390D01*
X181745D01*
X182409Y-274726D01*
Y-272731D01*
X126521Y-171484D02*
Y-167496D01*
X128515D01*
X129180Y-168160D01*
Y-169490D01*
X128515Y-170154D01*
X126521D01*
X127850D02*
X129180Y-171484D01*
X130509D02*
X131839D01*
X131174D01*
Y-167496D01*
X130509Y-168160D01*
X133833Y-167496D02*
X136491D01*
Y-168160D01*
X133833Y-170819D01*
Y-171484D01*
X156451Y-183117D02*
X152462D01*
Y-181123D01*
X153127Y-180458D01*
X154456D01*
X155121Y-181123D01*
Y-183117D01*
Y-181787D02*
X156451Y-180458D01*
X152462Y-176470D02*
X153127Y-177799D01*
X154456Y-179128D01*
X155786D01*
X156451Y-178464D01*
Y-177134D01*
X155786Y-176470D01*
X155121D01*
X154456Y-177134D01*
Y-179128D01*
X59000Y-207777D02*
X55012D01*
Y-205783D01*
X55677Y-205118D01*
X57006D01*
X57670Y-205783D01*
Y-207777D01*
Y-206448D02*
X59000Y-205118D01*
Y-201795D02*
X55012D01*
X57006Y-203789D01*
Y-201130D01*
X89521Y-279471D02*
X85533D01*
Y-277477D01*
X86198Y-276813D01*
X87527D01*
X88192Y-277477D01*
Y-279471D01*
Y-278142D02*
X89521Y-276813D01*
X86198Y-275483D02*
X85533Y-274818D01*
Y-273489D01*
X86198Y-272824D01*
X86863D01*
X87527Y-273489D01*
X88192Y-272824D01*
X88857D01*
X89521Y-273489D01*
Y-274818D01*
X88857Y-275483D01*
X88192D01*
X87527Y-274818D01*
X86863Y-275483D01*
X86198D01*
X87527Y-274818D02*
Y-273489D01*
X463931Y-273584D02*
X459943D01*
Y-271590D01*
X460607Y-270925D01*
X461937D01*
X462602Y-271590D01*
Y-273584D01*
Y-272254D02*
X463931Y-270925D01*
Y-269596D02*
Y-268266D01*
Y-268931D01*
X459943D01*
X460607Y-269596D01*
X459943Y-263614D02*
X460607Y-264943D01*
X461937Y-266272D01*
X463266D01*
X463931Y-265608D01*
Y-264278D01*
X463266Y-263614D01*
X462602D01*
X461937Y-264278D01*
Y-266272D01*
X411175Y-273681D02*
X407187D01*
Y-271687D01*
X407852Y-271022D01*
X409181D01*
X409846Y-271687D01*
Y-273681D01*
Y-272352D02*
X411175Y-271022D01*
Y-269693D02*
Y-268364D01*
Y-269028D01*
X407187D01*
X407852Y-269693D01*
X407187Y-263711D02*
Y-266370D01*
X409181D01*
X408516Y-265040D01*
Y-264375D01*
X409181Y-263711D01*
X410510D01*
X411175Y-264375D01*
Y-265705D01*
X410510Y-266370D01*
X253695Y-273681D02*
X249707D01*
Y-271687D01*
X250371Y-271022D01*
X251701D01*
X252365Y-271687D01*
Y-273681D01*
Y-272352D02*
X253695Y-271022D01*
Y-269693D02*
Y-268364D01*
Y-269028D01*
X249707D01*
X250371Y-269693D01*
X253695Y-263711D02*
Y-266370D01*
X251036Y-263711D01*
X250371D01*
X249707Y-264375D01*
Y-265705D01*
X250371Y-266370D01*
X200939Y-272821D02*
X196951D01*
Y-270827D01*
X197615Y-270163D01*
X198945D01*
X199609Y-270827D01*
Y-272821D01*
Y-271492D02*
X200939Y-270163D01*
Y-268833D02*
Y-267504D01*
Y-268168D01*
X196951D01*
X197615Y-268833D01*
X200939Y-265510D02*
Y-264180D01*
Y-264845D01*
X196951D01*
X197615Y-265510D01*
X125892Y-79598D02*
Y-75610D01*
X127886D01*
X128551Y-76275D01*
Y-77604D01*
X127886Y-78269D01*
X125892D01*
X127221D02*
X128551Y-79598D01*
X129880D02*
X131210D01*
X130545D01*
Y-75610D01*
X129880Y-76275D01*
X133204Y-78933D02*
X133868Y-79598D01*
X135198D01*
X135862Y-78933D01*
Y-76275D01*
X135198Y-75610D01*
X133868D01*
X133204Y-76275D01*
Y-76939D01*
X133868Y-77604D01*
X135862D01*
X13126Y-171688D02*
Y-167700D01*
X15120D01*
X15785Y-168365D01*
Y-169694D01*
X15120Y-170359D01*
X13126D01*
X14456D02*
X15785Y-171688D01*
X17114Y-168365D02*
X17779Y-167700D01*
X19108D01*
X19773Y-168365D01*
Y-169030D01*
X19108Y-169694D01*
X18444D01*
X19108D01*
X19773Y-170359D01*
Y-171024D01*
X19108Y-171688D01*
X17779D01*
X17114Y-171024D01*
X137159Y-280571D02*
X133171D01*
Y-278577D01*
X133836Y-277912D01*
X135165D01*
X135830Y-278577D01*
Y-280571D01*
Y-279241D02*
X137159Y-277912D01*
Y-276583D02*
Y-275253D01*
Y-275918D01*
X133171D01*
X133836Y-276583D01*
Y-273259D02*
X133171Y-272595D01*
Y-271265D01*
X133836Y-270601D01*
X136495D01*
X137159Y-271265D01*
Y-272595D01*
X136495Y-273259D01*
X133836D01*
X109600Y-181245D02*
X105612D01*
Y-179251D01*
X106277Y-178587D01*
X107606D01*
X108271Y-179251D01*
Y-181245D01*
Y-179916D02*
X109600Y-178587D01*
X105612Y-174598D02*
Y-177257D01*
X107606D01*
X106941Y-175928D01*
Y-175263D01*
X107606Y-174598D01*
X108935D01*
X109600Y-175263D01*
Y-176593D01*
X108935Y-177257D01*
X43065Y-279474D02*
X39077D01*
Y-277480D01*
X39741Y-276815D01*
X41071D01*
X41735Y-277480D01*
Y-279474D01*
Y-278144D02*
X43065Y-276815D01*
X39077Y-275485D02*
Y-272827D01*
X39741D01*
X42400Y-275485D01*
X43065D01*
D11*
X570472Y-151852D02*
X571609Y-138863D01*
X658265Y-78185D02*
X670860Y-81560D01*
X682677Y-87071D02*
X693358Y-94550D01*
X658265Y-225518D02*
X670860Y-222144D01*
X682677Y-216634D02*
X693358Y-209154D01*
X619691Y-81560D02*
X632286Y-78185D01*
X597193Y-94550D02*
X607874Y-87071D01*
X570472Y-151852D02*
X571609Y-164841D01*
X597193Y-209154D02*
X607874Y-216634D01*
X619691Y-222144D02*
X632286Y-225518D01*
X702578Y-103769D02*
X710057Y-114451D01*
X718942Y-138863D02*
X720079Y-151852D01*
X693358Y-209154D02*
X702578Y-199935D01*
X715568Y-177436D02*
X718942Y-164841D01*
X670860Y-81560D02*
X682677Y-87071D01*
X607874D02*
X619691Y-81560D01*
X580494Y-114451D02*
X587973Y-103769D01*
X571609Y-164841D02*
X574983Y-177436D01*
X587973Y-199935D02*
X597193Y-209154D01*
X693358Y-94550D02*
X702578Y-103769D01*
X715568Y-126268D02*
X718942Y-138863D01*
X710057Y-114451D02*
X715568Y-126268D01*
X718942Y-164841D02*
X720079Y-151852D01*
X702578Y-199935D02*
X710057Y-189253D01*
X715568Y-177436D01*
X670860Y-222144D02*
X682677Y-216634D01*
X645275Y-77049D02*
X658265Y-78185D01*
X632286D02*
X645275Y-77049D01*
X632286Y-225518D02*
X645275Y-226655D01*
X658265Y-225518D01*
X607874Y-216634D02*
X619691Y-222144D01*
X587973Y-103769D02*
X597193Y-94550D01*
X574983Y-126268D02*
X580494Y-114451D01*
X571609Y-138863D02*
X574983Y-126268D01*
Y-177436D02*
X580494Y-189253D01*
X587973Y-199935D01*
D12*
X368139Y-115756D02*
Y-122317D01*
X371888D01*
X377292Y-117318D02*
X376980Y-116694D01*
X376355Y-116069D01*
X375730Y-115756D01*
X374481D01*
X373856Y-116069D01*
X373231Y-116694D01*
X372919Y-117318D01*
X372606Y-118256D01*
Y-119818D01*
X372919Y-120755D01*
X373231Y-121380D01*
X373856Y-122004D01*
X374481Y-122317D01*
X375730D01*
X376355Y-122004D01*
X376980Y-121380D01*
X377292Y-120755D01*
X379135Y-115756D02*
Y-122317D01*
Y-115756D02*
X381322D01*
X382259Y-116069D01*
X382884Y-116694D01*
X383196Y-117318D01*
X383509Y-118256D01*
Y-119818D01*
X383196Y-120755D01*
X382884Y-121380D01*
X382259Y-122004D01*
X381322Y-122317D01*
X379135D01*
X384977Y-119505D02*
X390600D01*
X392537Y-115756D02*
Y-122317D01*
Y-115756D02*
X395036Y-122317D01*
X397535Y-115756D02*
X395036Y-122317D01*
X397535Y-115756D02*
Y-122317D01*
X401284Y-115756D02*
X400659Y-116069D01*
X400035Y-116694D01*
X399722Y-117318D01*
X399410Y-118256D01*
Y-119818D01*
X399722Y-120755D01*
X400035Y-121380D01*
X400659Y-122004D01*
X401284Y-122317D01*
X402534D01*
X403159Y-122004D01*
X403783Y-121380D01*
X404096Y-120755D01*
X404408Y-119818D01*
Y-118256D01*
X404096Y-117318D01*
X403783Y-116694D01*
X403159Y-116069D01*
X402534Y-115756D01*
X401284D01*
X405939D02*
Y-122317D01*
Y-115756D02*
X408126D01*
X409063Y-116069D01*
X409688Y-116694D01*
X410000Y-117318D01*
X410313Y-118256D01*
Y-119818D01*
X410000Y-120755D01*
X409688Y-121380D01*
X409063Y-122004D01*
X408126Y-122317D01*
X405939D01*
X411781Y-115756D02*
Y-120442D01*
X412093Y-121380D01*
X412718Y-122004D01*
X413655Y-122317D01*
X414280D01*
X415217Y-122004D01*
X415842Y-121380D01*
X416154Y-120442D01*
Y-115756D01*
X417966D02*
Y-122317D01*
X421715D01*
X426495Y-115756D02*
X422434D01*
Y-122317D01*
X426495D01*
X422434Y-118880D02*
X424933D01*
X367125Y-140709D02*
X370561D01*
X368687Y-143208D01*
X369624D01*
X370249Y-143520D01*
X370561Y-143833D01*
X370873Y-144770D01*
Y-145395D01*
X370561Y-146332D01*
X369936Y-146957D01*
X368999Y-147269D01*
X368062D01*
X367125Y-146957D01*
X366812Y-146644D01*
X366500Y-146020D01*
X372654Y-141334D02*
X372342Y-141021D01*
X372654Y-140709D01*
X372967Y-141021D01*
Y-141646D01*
X372654Y-142271D01*
X372342Y-142583D01*
X374716Y-142271D02*
Y-141958D01*
X375028Y-141334D01*
X375341Y-141021D01*
X375966Y-140709D01*
X377215D01*
X377840Y-141021D01*
X378152Y-141334D01*
X378465Y-141958D01*
Y-142583D01*
X378152Y-143208D01*
X377528Y-144145D01*
X374404Y-147269D01*
X378777D01*
X388524Y-140709D02*
X385400Y-145082D01*
X390086D01*
X388524Y-140709D02*
Y-147269D01*
X392804Y-140709D02*
X391867Y-141021D01*
X391554Y-141646D01*
Y-142271D01*
X391867Y-142896D01*
X392491Y-143208D01*
X393741Y-143520D01*
X394678Y-143833D01*
X395303Y-144458D01*
X395615Y-145082D01*
Y-146020D01*
X395303Y-146644D01*
X394991Y-146957D01*
X394053Y-147269D01*
X392804D01*
X391867Y-146957D01*
X391554Y-146644D01*
X391242Y-146020D01*
Y-145082D01*
X391554Y-144458D01*
X392179Y-143833D01*
X393116Y-143520D01*
X394366Y-143208D01*
X394991Y-142896D01*
X395303Y-142271D01*
Y-141646D01*
X394991Y-141021D01*
X394053Y-140709D01*
X392804D01*
X398958D02*
X398021Y-141021D01*
X397396Y-141958D01*
X397084Y-143520D01*
Y-144458D01*
X397396Y-146020D01*
X398021Y-146957D01*
X398958Y-147269D01*
X399583D01*
X400520Y-146957D01*
X401145Y-146020D01*
X401457Y-144458D01*
Y-143520D01*
X401145Y-141958D01*
X400520Y-141021D01*
X399583Y-140709D01*
X398958D01*
X404488D02*
Y-144458D01*
X402925Y-141646D02*
X406049Y-143520D01*
Y-141646D02*
X402925Y-143520D01*
X408018Y-140709D02*
X411454D01*
X409580Y-143208D01*
X410517D01*
X411142Y-143520D01*
X411454Y-143833D01*
X411766Y-144770D01*
Y-145395D01*
X411454Y-146332D01*
X410829Y-146957D01*
X409892Y-147269D01*
X408955D01*
X408018Y-146957D01*
X407705Y-146644D01*
X407393Y-146020D01*
X413547Y-142271D02*
Y-141958D01*
X413859Y-141334D01*
X414172Y-141021D01*
X414797Y-140709D01*
X416046D01*
X416671Y-141021D01*
X416983Y-141334D01*
X417296Y-141958D01*
Y-142583D01*
X416983Y-143208D01*
X416359Y-144145D01*
X413235Y-147269D01*
X417608D01*
X420951Y-140709D02*
X420014Y-141021D01*
X419389Y-141958D01*
X419076Y-143520D01*
Y-144458D01*
X419389Y-146020D01*
X420014Y-146957D01*
X420951Y-147269D01*
X421576D01*
X422513Y-146957D01*
X423138Y-146020D01*
X423450Y-144458D01*
Y-143520D01*
X423138Y-141958D01*
X422513Y-141021D01*
X421576Y-140709D01*
X420951D01*
D13*
X600500Y-45577D02*
Y-51434D01*
X600890Y-52606D01*
X601671Y-53387D01*
X602843Y-53777D01*
X603624D01*
X604795Y-53387D01*
X605576Y-52606D01*
X605967Y-51434D01*
Y-45577D01*
X614479Y-53777D02*
X611355Y-45577D01*
X608232Y-53777D01*
X609403Y-51044D02*
X613308D01*
X617174Y-45577D02*
X621469D01*
X619126Y-48701D01*
X620298D01*
X621079Y-49091D01*
X621469Y-49482D01*
X621860Y-50653D01*
Y-51434D01*
X621469Y-52606D01*
X620688Y-53387D01*
X619517Y-53777D01*
X618345D01*
X617174Y-53387D01*
X616783Y-52996D01*
X616393Y-52215D01*
X623695Y-45577D02*
Y-53777D01*
Y-45577D02*
X627209D01*
X628381Y-45967D01*
X628771Y-46358D01*
X629162Y-47139D01*
Y-47920D01*
X628771Y-48701D01*
X628381Y-49091D01*
X627209Y-49482D01*
X623695D01*
X626428D02*
X629162Y-53777D01*
X636073Y-45577D02*
X630997D01*
Y-53777D01*
X636073D01*
X630997Y-49482D02*
X634121D01*
X639783Y-45577D02*
X639002Y-45967D01*
X638221Y-46748D01*
X637831Y-47529D01*
X637440Y-48701D01*
Y-50653D01*
X637831Y-51825D01*
X638221Y-52606D01*
X639002Y-53387D01*
X639783Y-53777D01*
X641345D01*
X642126Y-53387D01*
X642907Y-52606D01*
X643297Y-51825D01*
X643688Y-50653D01*
Y-48701D01*
X643297Y-47529D01*
X642907Y-46748D01*
X642126Y-45967D01*
X641345Y-45577D01*
X639783D01*
X654778D02*
Y-53777D01*
X652044Y-45577D02*
X657511D01*
X658488Y-48310D02*
Y-53777D01*
Y-50653D02*
X658878Y-49482D01*
X659659Y-48701D01*
X660440Y-48310D01*
X661611D01*
X667039D02*
Y-53777D01*
Y-49482D02*
X666258Y-48701D01*
X665477Y-48310D01*
X664306D01*
X663525Y-48701D01*
X662744Y-49482D01*
X662353Y-50653D01*
Y-51434D01*
X662744Y-52606D01*
X663525Y-53387D01*
X664306Y-53777D01*
X665477D01*
X666258Y-53387D01*
X667039Y-52606D01*
X669226Y-48310D02*
Y-53777D01*
Y-49872D02*
X670397Y-48701D01*
X671178Y-48310D01*
X672350D01*
X673131Y-48701D01*
X673521Y-49872D01*
Y-53777D01*
X679964Y-49482D02*
X679574Y-48701D01*
X678402Y-48310D01*
X677231D01*
X676059Y-48701D01*
X675669Y-49482D01*
X676059Y-50263D01*
X676840Y-50653D01*
X678793Y-51044D01*
X679574Y-51434D01*
X679964Y-52215D01*
Y-52606D01*
X679574Y-53387D01*
X678402Y-53777D01*
X677231D01*
X676059Y-53387D01*
X675669Y-52606D01*
X686368Y-49482D02*
X685587Y-48701D01*
X684806Y-48310D01*
X683635D01*
X682854Y-48701D01*
X682073Y-49482D01*
X681682Y-50653D01*
Y-51434D01*
X682073Y-52606D01*
X682854Y-53387D01*
X683635Y-53777D01*
X684806D01*
X685587Y-53387D01*
X686368Y-52606D01*
X688126Y-50653D02*
X692811D01*
Y-49872D01*
X692421Y-49091D01*
X692030Y-48701D01*
X691250Y-48310D01*
X690078D01*
X689297Y-48701D01*
X688516Y-49482D01*
X688126Y-50653D01*
Y-51434D01*
X688516Y-52606D01*
X689297Y-53387D01*
X690078Y-53777D01*
X691250D01*
X692030Y-53387D01*
X692811Y-52606D01*
X695350Y-45577D02*
X695740Y-45967D01*
X696131Y-45577D01*
X695740Y-45186D01*
X695350Y-45577D01*
X695740Y-48310D02*
Y-53777D01*
X697575Y-48310D02*
X699918Y-53777D01*
X702261Y-48310D02*
X699918Y-53777D01*
X703589Y-50653D02*
X708275D01*
Y-49872D01*
X707884Y-49091D01*
X707494Y-48701D01*
X706713Y-48310D01*
X705541D01*
X704760Y-48701D01*
X703979Y-49482D01*
X703589Y-50653D01*
Y-51434D01*
X703979Y-52606D01*
X704760Y-53387D01*
X705541Y-53777D01*
X706713D01*
X707494Y-53387D01*
X708275Y-52606D01*
X710032Y-48310D02*
Y-53777D01*
Y-50653D02*
X710423Y-49482D01*
X711203Y-48701D01*
X711984Y-48310D01*
X713156D01*
D14*
X632540Y-290813D02*
Y-295734D01*
Y-290813D02*
X635585D01*
X632540Y-293156D02*
X634414D01*
X636148Y-290813D02*
Y-295734D01*
Y-290813D02*
X638257D01*
X638959Y-291048D01*
X639194Y-291282D01*
X639428Y-291751D01*
Y-292219D01*
X639194Y-292688D01*
X638959Y-292922D01*
X638257Y-293156D01*
X636148D01*
X637788D02*
X639428Y-295734D01*
X641935Y-290813D02*
X641466Y-291048D01*
X640998Y-291516D01*
X640763Y-291985D01*
X640529Y-292688D01*
Y-293859D01*
X640763Y-294562D01*
X640998Y-295031D01*
X641466Y-295499D01*
X641935Y-295734D01*
X642872D01*
X643341Y-295499D01*
X643809Y-295031D01*
X644044Y-294562D01*
X644278Y-293859D01*
Y-292688D01*
X644044Y-291985D01*
X643809Y-291516D01*
X643341Y-291048D01*
X642872Y-290813D01*
X641935D01*
X645426D02*
Y-295734D01*
Y-290813D02*
X648706Y-295734D01*
Y-290813D02*
Y-295734D01*
X651705Y-290813D02*
Y-295734D01*
X650065Y-290813D02*
X653345D01*
X653931Y-293625D02*
X658148D01*
X659601Y-290813D02*
Y-294328D01*
X659835Y-295031D01*
X660304Y-295499D01*
X661007Y-295734D01*
X661475D01*
X662178Y-295499D01*
X662647Y-295031D01*
X662881Y-294328D01*
Y-290813D01*
X664240D02*
Y-295734D01*
Y-290813D02*
X667520Y-295734D01*
Y-290813D02*
Y-295734D01*
X668879Y-290813D02*
Y-295734D01*
X671550Y-290813D02*
Y-295734D01*
X669910Y-290813D02*
X673190D01*
X677642Y-292454D02*
Y-295734D01*
Y-293859D02*
X677876Y-293156D01*
X678344Y-292688D01*
X678813Y-292454D01*
X679516D01*
X679961Y-293859D02*
X682773D01*
Y-293391D01*
X682538Y-292922D01*
X682304Y-292688D01*
X681836Y-292454D01*
X681133D01*
X680664Y-292688D01*
X680195Y-293156D01*
X679961Y-293859D01*
Y-294328D01*
X680195Y-295031D01*
X680664Y-295499D01*
X681133Y-295734D01*
X681836D01*
X682304Y-295499D01*
X682773Y-295031D01*
X683827Y-292454D02*
X685233Y-295734D01*
X686638Y-292454D02*
X685233Y-295734D01*
X690247Y-291516D02*
X690012Y-291048D01*
X689310Y-290813D01*
X688841D01*
X688138Y-291048D01*
X687669Y-291751D01*
X687435Y-292922D01*
Y-294094D01*
X687669Y-295031D01*
X688138Y-295499D01*
X688841Y-295734D01*
X689075D01*
X689778Y-295499D01*
X690247Y-295031D01*
X690481Y-294328D01*
Y-294094D01*
X690247Y-293391D01*
X689778Y-292922D01*
X689075Y-292688D01*
X688841D01*
X688138Y-292922D01*
X687669Y-293391D01*
X687435Y-294094D01*
M02*
