G04*
G04 #@! TF.GenerationSoftware,Altium Limited,Altium Designer,19.1.8 (144)*
G04*
G04 Layer_Color=32896*
%FSLAX25Y25*%
%MOIN*%
G70*
G01*
G75*
%ADD10C,0.01000*%
%ADD12C,0.01235*%
%ADD105C,0.00984*%
%ADD106C,0.00787*%
%ADD107C,0.01575*%
G36*
X652362Y-280198D02*
X652533Y-280213D01*
X652699Y-280258D01*
X652854Y-280330D01*
X652994Y-280429D01*
X653116Y-280550D01*
X653214Y-280691D01*
X653287Y-280846D01*
X653331Y-281012D01*
X653346Y-281183D01*
X653331Y-281354D01*
X653287Y-281519D01*
X653214Y-281675D01*
X653116Y-281815D01*
X652994Y-281937D01*
X652854Y-282035D01*
X652699Y-282107D01*
X652533Y-282152D01*
X652362Y-282167D01*
X652191Y-282152D01*
X652026Y-282107D01*
X651870Y-282035D01*
X651730Y-281937D01*
X651609Y-281815D01*
X651510Y-281675D01*
X651438Y-281519D01*
X651393Y-281354D01*
X651378Y-281183D01*
X651393Y-281012D01*
X651438Y-280846D01*
X651510Y-280691D01*
X651609Y-280550D01*
X651730Y-280429D01*
X651870Y-280330D01*
X652026Y-280258D01*
X652191Y-280213D01*
X652362Y-280198D01*
D01*
D02*
G37*
G36*
X507951Y-37586D02*
X507712Y-37565D01*
X507480Y-37503D01*
X507262Y-37402D01*
X507065Y-37264D01*
X506895Y-37095D01*
X506757Y-36898D01*
X506656Y-36681D01*
X506594Y-36449D01*
X506572Y-36210D01*
X506594Y-35971D01*
X506656Y-35739D01*
X506757Y-35522D01*
X506895Y-35325D01*
X507065Y-35155D01*
X507262Y-35018D01*
X507480Y-34917D01*
X507712Y-34854D01*
X507951Y-34833D01*
X508191Y-34854D01*
X508423Y-34917D01*
X508641Y-35018D01*
X508838Y-35155D01*
X509008Y-35325D01*
X509146Y-35522D01*
X509247Y-35739D01*
X509310Y-35971D01*
X509331Y-36210D01*
X509310Y-36449D01*
X509247Y-36681D01*
X509146Y-36898D01*
X509008Y-37095D01*
X508838Y-37264D01*
X508641Y-37402D01*
X508423Y-37503D01*
X508191Y-37565D01*
X507951Y-37586D01*
D01*
D02*
G37*
D10*
X417322Y-213879D02*
X416338Y-214143D01*
X415617Y-214863D01*
X415353Y-215848D01*
X415617Y-216833D01*
X416338Y-217553D01*
X417322Y-217817D01*
X263020Y-36136D02*
X262991Y-35136D01*
X262905Y-34139D01*
X262763Y-33149D01*
X262564Y-32168D01*
X262310Y-31200D01*
X262001Y-30249D01*
X261638Y-29316D01*
X261222Y-28406D01*
X260755Y-27521D01*
X260238Y-26664D01*
X259674Y-25838D01*
X259063Y-25046D01*
X258407Y-24290D01*
X257710Y-23572D01*
X256973Y-22896D01*
X256198Y-22262D01*
X255389Y-21674D01*
X254547Y-21133D01*
X253676Y-20641D01*
X252778Y-20200D01*
X251856Y-19810D01*
X250914Y-19474D01*
X249954Y-19192D01*
X248979Y-18966D01*
X247993Y-18795D01*
X246999Y-18681D01*
X246000Y-18624D01*
X245000D01*
X244001Y-18681D01*
X243007Y-18795D01*
X242021Y-18966D01*
X241046Y-19192D01*
X240086Y-19474D01*
X239144Y-19810D01*
X238222Y-20200D01*
X237324Y-20641D01*
X236453Y-21133D01*
X235611Y-21674D01*
X234802Y-22262D01*
X234027Y-22896D01*
X233290Y-23572D01*
X232592Y-24290D01*
X231937Y-25046D01*
X231326Y-25838D01*
X230761Y-26664D01*
X230245Y-27521D01*
X229778Y-28406D01*
X229362Y-29316D01*
X228999Y-30249D01*
X228690Y-31200D01*
X228435Y-32168D01*
X228237Y-33149D01*
X228094Y-34139D01*
X228009Y-35136D01*
X227980Y-36136D01*
X228009Y-37136D01*
X228094Y-38133D01*
X228237Y-39124D01*
X228435Y-40104D01*
X228690Y-41072D01*
X228999Y-42024D01*
X229362Y-42956D01*
X229778Y-43866D01*
X230245Y-44751D01*
X230761Y-45608D01*
X231326Y-46434D01*
X231937Y-47226D01*
X232592Y-47983D01*
X233290Y-48700D01*
X234027Y-49377D01*
X234802Y-50010D01*
X235611Y-50598D01*
X236453Y-51139D01*
X237324Y-51631D01*
X238222Y-52073D01*
X239144Y-52462D01*
X240086Y-52798D01*
X241046Y-53080D01*
X242021Y-53307D01*
X243006Y-53478D01*
X244001Y-53592D01*
X245000Y-53649D01*
X246000Y-53649D01*
X246999Y-53592D01*
X247993Y-53478D01*
X248979Y-53307D01*
X249954Y-53080D01*
X250914Y-52798D01*
X251856Y-52462D01*
X252778Y-52073D01*
X253676Y-51631D01*
X254547Y-51139D01*
X255389Y-50598D01*
X256198Y-50010D01*
X256973Y-49377D01*
X257710Y-48700D01*
X258407Y-47983D01*
X259063Y-47226D01*
X259674Y-46434D01*
X260238Y-45608D01*
X260755Y-44751D01*
X261222Y-43866D01*
X261638Y-42956D01*
X262001Y-42024D01*
X262310Y-41072D01*
X262564Y-40104D01*
X262763Y-39124D01*
X262905Y-38133D01*
X262991Y-37136D01*
X263020Y-36136D01*
X234253Y-200962D02*
X233989Y-199977D01*
X233268Y-199256D01*
X232283Y-198993D01*
X231299Y-199256D01*
X230578Y-199977D01*
X230314Y-200962D01*
X69000Y-25289D02*
X99000D01*
Y-14266D01*
X69000D02*
X99000D01*
X69000Y-25289D02*
Y-14266D01*
X148500D02*
X178500D01*
X148500Y-25289D02*
Y-14266D01*
Y-25289D02*
X178500D01*
Y-14266D01*
X333838Y-23899D02*
X363838D01*
Y-12876D01*
X333838D02*
X363838D01*
X333838Y-23899D02*
Y-12876D01*
X377520Y-23899D02*
X407520D01*
Y-12876D01*
X377520D02*
X407520D01*
X377520Y-23899D02*
Y-12876D01*
X362713Y-168821D02*
Y-111734D01*
X264287Y-168821D02*
X362713D01*
X264287D02*
Y-111734D01*
X362713D01*
X341571Y-160474D02*
Y-120474D01*
Y-160474D02*
X361571D01*
Y-120474D01*
X341571D02*
X361571D01*
X417321Y-213879D02*
Y-210729D01*
Y-220967D02*
Y-217817D01*
X377954Y-220967D02*
Y-210729D01*
X417321D01*
X377954Y-220967D02*
X417321D01*
X3185Y-48560D02*
X34680D01*
X55943D02*
X59878D01*
Y-55255D02*
Y-48560D01*
Y-83994D02*
Y-77300D01*
X3185Y-83994D02*
X59878D01*
X3185D02*
Y-48560D01*
X462264Y-17226D02*
X504271D01*
Y-265218D02*
Y-17226D01*
X462264Y-265218D02*
X504271D01*
X462264D02*
Y-17226D01*
X109063Y-10840D02*
X136937D01*
Y-48714D02*
Y-10840D01*
X109063Y-48714D02*
X136937D01*
X109063D02*
Y-10840D01*
X662979Y-277262D02*
X668093D01*
X599490Y-240317D02*
Y-230316D01*
X559487Y-240317D02*
X599490D01*
X559487D02*
Y-230316D01*
X599490D01*
X245500Y-57938D02*
Y-55575D01*
X244319Y-56758D02*
X246681D01*
X234253Y-200961D02*
X237402D01*
X227164D02*
X230314D01*
X227164Y-161594D02*
X237402D01*
Y-200961D02*
Y-161594D01*
X227164Y-200961D02*
Y-161594D01*
X309052Y-43581D02*
Y-41225D01*
X302759Y-43581D02*
Y-41225D01*
Y-43581D02*
X309052D01*
X302759Y-42836D02*
X309052D01*
X299603Y-43581D02*
Y-41225D01*
X293310Y-43581D02*
Y-41225D01*
Y-43581D02*
X299603D01*
X293310Y-42836D02*
X299603D01*
X281099Y-43581D02*
Y-41225D01*
X274806Y-43581D02*
Y-41225D01*
Y-43581D02*
X281099D01*
X274806Y-42836D02*
X281099D01*
X272044Y-43581D02*
Y-41225D01*
X265751Y-43581D02*
Y-41225D01*
Y-43581D02*
X272044D01*
X265751Y-42836D02*
X272044D01*
X646457Y-276262D02*
Y-262089D01*
X658268Y-276262D02*
Y-262089D01*
X290548Y-43581D02*
Y-41225D01*
X284255Y-43581D02*
Y-41225D01*
Y-43581D02*
X290548D01*
X284255Y-42836D02*
X290548D01*
X192000Y-72277D02*
Y-66279D01*
X189001D01*
X188001Y-67279D01*
Y-69278D01*
X189001Y-70278D01*
X192000D01*
X190000D02*
X188001Y-72277D01*
X182003D02*
X186002D01*
X182003Y-68278D01*
Y-67279D01*
X183003Y-66279D01*
X185002D01*
X186002Y-67279D01*
X180004D02*
X179004Y-66279D01*
X177005D01*
X176005Y-67279D01*
Y-68278D01*
X177005Y-69278D01*
X176005Y-70278D01*
Y-71277D01*
X177005Y-72277D01*
X179004D01*
X180004Y-71277D01*
Y-70278D01*
X179004Y-69278D01*
X180004Y-68278D01*
Y-67279D01*
X179004Y-69278D02*
X177005D01*
X116500Y-59277D02*
Y-53279D01*
X113501D01*
X112501Y-54279D01*
Y-56278D01*
X113501Y-57278D01*
X116500D01*
X114500D02*
X112501Y-59277D01*
X106503D02*
X110502D01*
X106503Y-55278D01*
Y-54279D01*
X107503Y-53279D01*
X109502D01*
X110502Y-54279D01*
X104504Y-53279D02*
X100505D01*
Y-54279D01*
X104504Y-58277D01*
Y-59277D01*
X145490Y-34699D02*
X139492D01*
Y-37697D01*
X140491Y-38697D01*
X142491D01*
X143491Y-37697D01*
Y-34699D01*
Y-36698D02*
X145490Y-38697D01*
Y-44695D02*
Y-40696D01*
X141491Y-44695D01*
X140491D01*
X139492Y-43696D01*
Y-41696D01*
X140491Y-40696D01*
X139492Y-50693D02*
X140491Y-48694D01*
X142491Y-46695D01*
X144490D01*
X145490Y-47694D01*
Y-49694D01*
X144490Y-50693D01*
X143491D01*
X142491Y-49694D01*
Y-46695D01*
X144501Y-81278D02*
Y-77279D01*
X145501Y-76279D01*
X147500D01*
X148500Y-77279D01*
Y-81278D01*
X147500Y-82277D01*
X145501D01*
X146501Y-80278D02*
X144501Y-82277D01*
X145501D02*
X144501Y-81278D01*
X138503Y-82277D02*
X142502D01*
X138503Y-78278D01*
Y-77279D01*
X139503Y-76279D01*
X141502D01*
X142502Y-77279D01*
X204524Y-44276D02*
X200525D01*
X199525Y-43276D01*
Y-41277D01*
X200525Y-40277D01*
X204524D01*
X205523Y-41277D01*
Y-43276D01*
X203524Y-42276D02*
X205523Y-44276D01*
Y-43276D02*
X204524Y-44276D01*
X205523Y-46275D02*
Y-48275D01*
Y-47275D01*
X199525D01*
X200525Y-46275D01*
X180500Y-94775D02*
Y-88777D01*
X183499D01*
X184499Y-89777D01*
Y-93776D01*
X183499Y-94775D01*
X180500D01*
X190497Y-88777D02*
X186498D01*
X190497Y-92776D01*
Y-93776D01*
X189497Y-94775D01*
X187498D01*
X186498Y-93776D01*
X207502Y-78130D02*
X206502Y-77131D01*
Y-75131D01*
X207502Y-74132D01*
X211500D01*
X212500Y-75131D01*
Y-77131D01*
X211500Y-78130D01*
X212500Y-80130D02*
Y-82129D01*
Y-81129D01*
X206502D01*
X207502Y-80130D01*
X212500Y-85128D02*
Y-87127D01*
Y-86128D01*
X206502D01*
X207502Y-85128D01*
X664311Y-243632D02*
Y-239643D01*
X662317D01*
X661652Y-240308D01*
Y-241637D01*
X662317Y-242302D01*
X664311D01*
X662982D02*
X661652Y-243632D01*
X657664D02*
X660323D01*
X657664Y-240973D01*
Y-240308D01*
X658329Y-239643D01*
X659658D01*
X660323Y-240308D01*
X656335D02*
X655670Y-239643D01*
X654341D01*
X653676Y-240308D01*
Y-240973D01*
X654341Y-241637D01*
X655005D01*
X654341D01*
X653676Y-242302D01*
Y-242967D01*
X654341Y-243632D01*
X655670D01*
X656335Y-242967D01*
X627000Y-236777D02*
Y-232789D01*
X625006D01*
X624341Y-233454D01*
Y-234783D01*
X625006Y-235448D01*
X627000D01*
X625670D02*
X624341Y-236777D01*
X620353D02*
X623012D01*
X620353Y-234118D01*
Y-233454D01*
X621018Y-232789D01*
X622347D01*
X623012Y-233454D01*
X619024Y-236777D02*
X617694D01*
X618359D01*
Y-232789D01*
X619024Y-233454D01*
X402679Y-196067D02*
Y-199390D01*
X402014Y-200055D01*
X400685D01*
X400020Y-199390D01*
Y-196067D01*
X396032Y-200055D02*
X398691D01*
X396032Y-197396D01*
Y-196731D01*
X396696Y-196067D01*
X398026D01*
X398691Y-196731D01*
X26500Y-41789D02*
X25170D01*
X25835D01*
Y-45777D01*
X26500D01*
X25170D01*
X23177D02*
Y-41789D01*
X20518Y-45777D01*
Y-41789D01*
X19188Y-46442D02*
X16530D01*
X12541Y-45777D02*
X15200D01*
X12541Y-43118D01*
Y-42454D01*
X13206Y-41789D01*
X14536D01*
X15200Y-42454D01*
X706235Y-280413D02*
X704906D01*
X705570D01*
Y-277090D01*
X704906Y-276425D01*
X704241D01*
X703576Y-277090D01*
X710223Y-276425D02*
X707564D01*
X710223Y-279084D01*
Y-279748D01*
X709558Y-280413D01*
X708229D01*
X707564Y-279748D01*
X488093Y-12011D02*
X489422D01*
X488757D01*
Y-15335D01*
X489422Y-16000D01*
X490087D01*
X490751Y-15335D01*
X486763Y-16000D02*
X485434D01*
X486098D01*
Y-12011D01*
X486763Y-12676D01*
X127572Y-5626D02*
X124913D01*
X126242D01*
Y-9614D01*
X123584D02*
X122254D01*
X122919D01*
Y-5626D01*
X123584Y-6290D01*
X669000Y-252777D02*
X672988D01*
Y-250783D01*
X672323Y-250118D01*
X670994D01*
X670329Y-250783D01*
Y-252777D01*
Y-251448D02*
X669000Y-250118D01*
Y-246130D02*
Y-248789D01*
X671659Y-246130D01*
X672323D01*
X672988Y-246795D01*
Y-248124D01*
X672323Y-248789D01*
Y-244801D02*
X672988Y-244136D01*
Y-242807D01*
X672323Y-242142D01*
X669665D01*
X669000Y-242807D01*
Y-244136D01*
X669665Y-244801D01*
X672323D01*
X667217Y-282676D02*
X667882Y-283341D01*
Y-284670D01*
X667217Y-285335D01*
X664559D01*
X663894Y-284670D01*
Y-283341D01*
X664559Y-282676D01*
Y-281347D02*
X663894Y-280682D01*
Y-279352D01*
X664559Y-278688D01*
X667217D01*
X667882Y-279352D01*
Y-280682D01*
X667217Y-281347D01*
X666553D01*
X665888Y-280682D01*
Y-278688D01*
X599841Y-253789D02*
X602500D01*
Y-257777D01*
X599841D01*
X602500Y-255783D02*
X601170D01*
X598512Y-257777D02*
Y-253789D01*
X595853Y-257777D01*
Y-253789D01*
X591865Y-254454D02*
X592530Y-253789D01*
X593859D01*
X594524Y-254454D01*
Y-257113D01*
X593859Y-257777D01*
X592530D01*
X591865Y-257113D01*
X588542Y-253789D02*
X589871D01*
X590536Y-254454D01*
Y-257113D01*
X589871Y-257777D01*
X588542D01*
X587877Y-257113D01*
Y-254454D01*
X588542Y-253789D01*
X586548D02*
Y-257777D01*
X584553D01*
X583889Y-257113D01*
Y-254454D01*
X584553Y-253789D01*
X586548D01*
X579901D02*
X582559D01*
Y-257777D01*
X579901D01*
X582559Y-255783D02*
X581230D01*
X578571Y-257777D02*
Y-253789D01*
X576577D01*
X575913Y-254454D01*
Y-255783D01*
X576577Y-256448D01*
X578571D01*
X577242D02*
X575913Y-257777D01*
X574583Y-258442D02*
X571924D01*
X570595Y-257777D02*
Y-253789D01*
X569266Y-255118D01*
X567936Y-253789D01*
Y-257777D01*
X566607D02*
Y-255118D01*
X565277Y-253789D01*
X563948Y-255118D01*
Y-257777D01*
Y-255783D01*
X566607D01*
X562619Y-253789D02*
X561289D01*
X561954D01*
Y-257777D01*
X562619D01*
X561289D01*
X559295D02*
Y-253789D01*
X556637Y-257777D01*
Y-253789D01*
X631000Y-267777D02*
X634988D01*
Y-265783D01*
X634323Y-265118D01*
X632994D01*
X632329Y-265783D01*
Y-267777D01*
Y-266448D02*
X631000Y-265118D01*
Y-261130D02*
Y-263789D01*
X633659Y-261130D01*
X634323D01*
X634988Y-261795D01*
Y-263124D01*
X634323Y-263789D01*
X631000Y-257142D02*
Y-259801D01*
X633659Y-257142D01*
X634323D01*
X634988Y-257807D01*
Y-259136D01*
X634323Y-259801D01*
X247884Y-14067D02*
X248549Y-13402D01*
X249879D01*
X250543Y-14067D01*
Y-16725D01*
X249879Y-17390D01*
X248549D01*
X247884Y-16725D01*
X243896Y-13402D02*
X245226Y-14067D01*
X246555Y-15396D01*
Y-16725D01*
X245890Y-17390D01*
X244561D01*
X243896Y-16725D01*
Y-16061D01*
X244561Y-15396D01*
X246555D01*
X236855Y-156379D02*
Y-159703D01*
X236191Y-160367D01*
X234861D01*
X234196Y-159703D01*
Y-156379D01*
X232867Y-160367D02*
X231538D01*
X232202D01*
Y-156379D01*
X232867Y-157044D01*
X142000Y-70789D02*
Y-74777D01*
X140006D01*
X139341Y-74112D01*
Y-71454D01*
X140006Y-70789D01*
X142000D01*
X138012Y-74777D02*
X136682D01*
X137347D01*
Y-70789D01*
X138012Y-71454D01*
X628500Y-258277D02*
Y-254289D01*
X626506D01*
X625841Y-254954D01*
Y-256283D01*
X626506Y-256948D01*
X628500D01*
X627171D02*
X625841Y-258277D01*
X621853D02*
X624512D01*
X621853Y-255618D01*
Y-254954D01*
X622518Y-254289D01*
X623847D01*
X624512Y-254954D01*
X617865Y-254289D02*
X620524D01*
Y-256283D01*
X619194Y-255618D01*
X618530D01*
X617865Y-256283D01*
Y-257612D01*
X618530Y-258277D01*
X619859D01*
X620524Y-257612D01*
X621500Y-243777D02*
Y-239789D01*
X619506D01*
X618841Y-240454D01*
Y-241783D01*
X619506Y-242448D01*
X621500D01*
X620170D02*
X618841Y-243777D01*
X614853D02*
X617512D01*
X614853Y-241118D01*
Y-240454D01*
X615518Y-239789D01*
X616847D01*
X617512Y-240454D01*
X611530Y-243777D02*
Y-239789D01*
X613524Y-241783D01*
X610865D01*
X307823Y-29618D02*
X308488Y-30283D01*
Y-31613D01*
X307823Y-32277D01*
X305165D01*
X304500Y-31613D01*
Y-30283D01*
X305165Y-29618D01*
X307823Y-28289D02*
X308488Y-27624D01*
Y-26295D01*
X307823Y-25630D01*
X307159D01*
X306494Y-26295D01*
X305829Y-25630D01*
X305165D01*
X304500Y-26295D01*
Y-27624D01*
X305165Y-28289D01*
X305829D01*
X306494Y-27624D01*
X307159Y-28289D01*
X307823D01*
X306494Y-27624D02*
Y-26295D01*
X297823Y-29618D02*
X298488Y-30283D01*
Y-31613D01*
X297823Y-32277D01*
X295165D01*
X294500Y-31613D01*
Y-30283D01*
X295165Y-29618D01*
X298488Y-28289D02*
Y-25630D01*
X297823D01*
X295165Y-28289D01*
X294500D01*
X279823Y-29618D02*
X280488Y-30283D01*
Y-31613D01*
X279823Y-32277D01*
X277165D01*
X276500Y-31613D01*
Y-30283D01*
X277165Y-29618D01*
X276500Y-26295D02*
X280488D01*
X278494Y-28289D01*
Y-25630D01*
X270323Y-29618D02*
X270988Y-30283D01*
Y-31613D01*
X270323Y-32277D01*
X267665D01*
X267000Y-31613D01*
Y-30283D01*
X267665Y-29618D01*
X270323Y-28289D02*
X270988Y-27624D01*
Y-26295D01*
X270323Y-25630D01*
X269659D01*
X268994Y-26295D01*
Y-26960D01*
Y-26295D01*
X268329Y-25630D01*
X267665D01*
X267000Y-26295D01*
Y-27624D01*
X267665Y-28289D01*
X654341Y-283954D02*
X655006Y-283289D01*
X656335D01*
X657000Y-283954D01*
Y-286613D01*
X656335Y-287277D01*
X655006D01*
X654341Y-286613D01*
X653012Y-287277D02*
X651682D01*
X652347D01*
Y-283289D01*
X653012Y-283954D01*
X649688D02*
X649024Y-283289D01*
X647694D01*
X647030Y-283954D01*
Y-286613D01*
X647694Y-287277D01*
X649024D01*
X649688Y-286613D01*
Y-283954D01*
X289323Y-29618D02*
X289988Y-30283D01*
Y-31613D01*
X289323Y-32277D01*
X286665D01*
X286000Y-31613D01*
Y-30283D01*
X286665Y-29618D01*
X289988Y-25630D02*
Y-28289D01*
X287994D01*
X288659Y-26960D01*
Y-26295D01*
X287994Y-25630D01*
X286665D01*
X286000Y-26295D01*
Y-27624D01*
X286665Y-28289D01*
D12*
X295421Y-119876D02*
Y-115815D01*
X301982D01*
Y-119876D01*
X298545Y-115815D02*
Y-118314D01*
X296358Y-125343D02*
X295734Y-124718D01*
X295421Y-123781D01*
Y-122531D01*
X295734Y-121594D01*
X296358Y-120969D01*
X296983D01*
X297608Y-121282D01*
X297920Y-121594D01*
X298233Y-122219D01*
X298858Y-124093D01*
X299170Y-124718D01*
X299482Y-125031D01*
X300107Y-125343D01*
X301045D01*
X301669Y-124718D01*
X301982Y-123781D01*
Y-122531D01*
X301669Y-121594D01*
X301045Y-120969D01*
X298858Y-126811D02*
Y-129623D01*
X298545Y-130560D01*
X298233Y-130872D01*
X297608Y-131185D01*
X296671D01*
X296046Y-130872D01*
X295734Y-130560D01*
X295421Y-129623D01*
Y-126811D01*
X301982D01*
X295421Y-134215D02*
X295734Y-133278D01*
X296358Y-132966D01*
X296983D01*
X297608Y-133278D01*
X297920Y-133903D01*
X298233Y-135152D01*
X298545Y-136090D01*
X299170Y-136714D01*
X299795Y-137027D01*
X300732D01*
X301357Y-136714D01*
X301669Y-136402D01*
X301982Y-135465D01*
Y-134215D01*
X301669Y-133278D01*
X301357Y-132966D01*
X300732Y-132653D01*
X299795D01*
X299170Y-132966D01*
X298545Y-133590D01*
X298233Y-134528D01*
X297920Y-135777D01*
X297608Y-136402D01*
X296983Y-136714D01*
X296358D01*
X295734Y-136402D01*
X295421Y-135465D01*
Y-134215D01*
X296983Y-138807D02*
X296671D01*
X296046Y-139120D01*
X295734Y-139432D01*
X295421Y-140057D01*
Y-141307D01*
X295734Y-141931D01*
X296046Y-142244D01*
X296671Y-142556D01*
X297296D01*
X297920Y-142244D01*
X298858Y-141619D01*
X301982Y-138495D01*
Y-142869D01*
X296358Y-148086D02*
X295734Y-147773D01*
X295421Y-146836D01*
Y-146211D01*
X295734Y-145274D01*
X296671Y-144649D01*
X298233Y-144337D01*
X299795D01*
X301045Y-144649D01*
X301669Y-145274D01*
X301982Y-146211D01*
Y-146524D01*
X301669Y-147461D01*
X301045Y-148086D01*
X300107Y-148398D01*
X299795D01*
X298858Y-148086D01*
X298233Y-147461D01*
X297920Y-146524D01*
Y-146211D01*
X298233Y-145274D01*
X298858Y-144649D01*
X299795Y-144337D01*
X296358Y-153584D02*
X295734Y-153271D01*
X295421Y-152334D01*
Y-151709D01*
X295734Y-150772D01*
X296671Y-150147D01*
X298233Y-149835D01*
X299795D01*
X301045Y-150147D01*
X301669Y-150772D01*
X301982Y-151709D01*
Y-152022D01*
X301669Y-152959D01*
X301045Y-153584D01*
X300107Y-153896D01*
X299795D01*
X298858Y-153584D01*
X298233Y-152959D01*
X297920Y-152022D01*
Y-151709D01*
X298233Y-150772D01*
X298858Y-150147D01*
X299795Y-149835D01*
X314240Y-122918D02*
Y-118856D01*
X320801D01*
Y-122918D01*
X317364Y-118856D02*
Y-121356D01*
X315177Y-128384D02*
X314553Y-127760D01*
X314240Y-126822D01*
Y-125573D01*
X314553Y-124636D01*
X315177Y-124011D01*
X315802D01*
X316427Y-124323D01*
X316739Y-124636D01*
X317052Y-125260D01*
X317677Y-127135D01*
X317989Y-127760D01*
X318301Y-128072D01*
X318926Y-128384D01*
X319863D01*
X320488Y-127760D01*
X320801Y-126822D01*
Y-125573D01*
X320488Y-124636D01*
X319863Y-124011D01*
X317677Y-129853D02*
Y-132664D01*
X317364Y-133602D01*
X317052Y-133914D01*
X316427Y-134226D01*
X315490D01*
X314865Y-133914D01*
X314553Y-133602D01*
X314240Y-132664D01*
Y-129853D01*
X320801D01*
X317989Y-135695D02*
Y-141318D01*
X314240Y-145129D02*
X314553Y-144192D01*
X315490Y-143567D01*
X317052Y-143255D01*
X317989D01*
X319551Y-143567D01*
X320488Y-144192D01*
X320801Y-145129D01*
Y-145754D01*
X320488Y-146691D01*
X319551Y-147316D01*
X317989Y-147628D01*
X317052D01*
X315490Y-147316D01*
X314553Y-146691D01*
X314240Y-145754D01*
Y-145129D01*
X315490Y-149097D02*
X315177Y-149721D01*
X314240Y-150659D01*
X320801D01*
D105*
X682622Y-232777D02*
X681884Y-232351D01*
Y-233203D01*
X682622Y-232777D01*
X156669Y-63608D02*
X155931Y-63182D01*
Y-64034D01*
X156669Y-63608D01*
X161823Y-64903D02*
X161084Y-64477D01*
Y-65329D01*
X161823Y-64903D01*
D106*
X692760Y-268801D02*
X713626D01*
X727602D02*
X731342D01*
Y-226872D01*
X692760Y-221754D02*
X716382D01*
X686264Y-229824D02*
Y-227659D01*
X725043Y-221754D02*
X725634D01*
X181803Y-80521D02*
X187709D01*
X181803Y-86033D02*
X187709D01*
X134512Y-63521D02*
X140418D01*
X134512Y-69033D02*
X140418D01*
X167201Y-36403D02*
X171716D01*
X167201Y-62151D02*
Y-36403D01*
Y-62151D02*
X171716D01*
X154441Y-78525D02*
Y-76320D01*
Y-78525D02*
X157000D01*
X154441Y-67029D02*
X157000D01*
X154441Y-69234D02*
Y-67029D01*
D107*
X173929Y-86033D02*
Y-80521D01*
X126638Y-69033D02*
Y-63521D01*
M02*
