G04*
G04 #@! TF.GenerationSoftware,Altium Limited,Altium Designer,19.1.8 (144)*
G04*
G04 Layer_Physical_Order=2*
G04 Layer_Color=16711680*
%FSLAX25Y25*%
%MOIN*%
G70*
G01*
G75*
%ADD10C,0.01000*%
%ADD38R,0.05118X0.05906*%
%ADD39R,0.05906X0.05118*%
%ADD40C,0.00906*%
%ADD41C,0.01500*%
%ADD42C,0.01968*%
%ADD43C,0.07874*%
%ADD44C,0.06693*%
%ADD45R,0.06693X0.06693*%
%ADD46R,0.09843X0.09843*%
%ADD47C,0.07874*%
%ADD48R,0.09055X0.09055*%
%ADD49C,0.09055*%
%ADD50C,0.08661*%
%ADD51R,0.08661X0.08661*%
%ADD52R,0.06693X0.06693*%
%ADD53R,0.09843X0.13780*%
%ADD54C,0.11811*%
%ADD55O,0.17717X0.07874*%
%ADD56O,0.07874X0.17717*%
%ADD57O,0.07874X0.19685*%
%ADD58C,0.05906*%
%ADD59R,0.06299X0.06299*%
%ADD60C,0.06299*%
%ADD61C,0.12598*%
%ADD62C,0.04000*%
%ADD63C,0.15748*%
%ADD64C,0.05000*%
%ADD65C,0.86614*%
%ADD66R,0.06890X0.02756*%
%ADD67R,0.05906X0.05906*%
%ADD68R,0.05906X0.03150*%
%ADD69R,0.03937X0.05709*%
%ADD70R,0.05512X0.03150*%
%ADD71R,0.06102X0.03937*%
%ADD72R,0.02362X0.06496*%
%ADD73R,0.04331X0.02264*%
%ADD74R,0.24410X0.22835*%
%ADD75R,0.11811X0.06299*%
%ADD76R,0.05315X0.04528*%
%ADD77R,0.05709X0.04724*%
%ADD78R,0.05512X0.03937*%
%ADD79R,0.04724X0.05709*%
%ADD80R,0.02362X0.07874*%
%ADD81R,0.16693X0.05000*%
%ADD82R,0.07874X0.02362*%
%ADD83R,0.07087X0.06299*%
%ADD84R,0.08661X0.07874*%
%ADD85C,0.06299*%
G36*
X733622Y-220572D02*
X726421D01*
Y-226084D01*
X733622D01*
Y-300828D01*
X2598D01*
Y-2876D01*
X733622D01*
Y-220572D01*
D02*
G37*
%LPC*%
G36*
X133803Y-11158D02*
Y-14014D01*
X136658D01*
X136654Y-13982D01*
X136256Y-13020D01*
X135622Y-12194D01*
X134797Y-11561D01*
X133835Y-11163D01*
X133803Y-11158D01*
D02*
G37*
G36*
X131803Y-11158D02*
X131771Y-11163D01*
X130810Y-11561D01*
X129984Y-12194D01*
X129350Y-13020D01*
X128952Y-13982D01*
X128948Y-14014D01*
X131803D01*
Y-11158D01*
D02*
G37*
G36*
X59295Y-11757D02*
X57959Y-11932D01*
X56714Y-12448D01*
X55645Y-13269D01*
X54825Y-14338D01*
X54309Y-15583D01*
X54306Y-15606D01*
X38823D01*
Y-11801D01*
X28587D01*
Y-20181D01*
X6572Y-42195D01*
X6287Y-42621D01*
X6187Y-43124D01*
Y-77777D01*
X6287Y-78280D01*
X6572Y-78705D01*
X10359Y-82493D01*
X10785Y-82777D01*
X11287Y-82877D01*
X79212D01*
X79715Y-82777D01*
X80141Y-82493D01*
X95044Y-67590D01*
X121151D01*
X137767Y-84205D01*
X138193Y-84490D01*
X138695Y-84590D01*
X175110D01*
Y-87313D01*
X181016D01*
Y-83474D01*
X181016D01*
Y-83080D01*
X181016D01*
Y-79242D01*
X175354D01*
X175110Y-79242D01*
X174854Y-78848D01*
Y-77624D01*
X172000D01*
Y-79986D01*
X174610D01*
X174854Y-79986D01*
X175110Y-80380D01*
Y-81965D01*
X139239D01*
X128087Y-70813D01*
X128294Y-70313D01*
X133725D01*
Y-66474D01*
X133725D01*
Y-66080D01*
X133725D01*
Y-62242D01*
X127820D01*
Y-64965D01*
X122966D01*
Y-60419D01*
X124697D01*
X124803Y-60419D01*
X125197D01*
X125303Y-60419D01*
X131496D01*
Y-58090D01*
X134157D01*
Y-60419D01*
X140350D01*
X140457Y-60419D01*
X140850D01*
X140957Y-60419D01*
X142943D01*
Y-62242D01*
X141205D01*
Y-66080D01*
X141205D01*
Y-66474D01*
X141205D01*
Y-70313D01*
X146238D01*
X148162Y-72237D01*
X148588Y-72521D01*
X149090Y-72621D01*
X149126D01*
Y-75533D01*
X156212D01*
Y-70021D01*
X151328D01*
X151201Y-69996D01*
X149634D01*
X147111Y-67473D01*
Y-62242D01*
X145568D01*
Y-60419D01*
X147150D01*
Y-56755D01*
X149484D01*
Y-62230D01*
X162870D01*
Y-54356D01*
X153695D01*
X153506Y-54230D01*
X153004Y-54130D01*
X147150D01*
Y-53136D01*
X140957D01*
X140850Y-53135D01*
X140457D01*
X140350Y-53136D01*
X138620D01*
Y-39464D01*
X146768D01*
X148377Y-41073D01*
X149364Y-41830D01*
X149484Y-41880D01*
Y-44198D01*
X162870D01*
Y-36324D01*
X156289D01*
X155874Y-35321D01*
X155116Y-34334D01*
X153507Y-32725D01*
Y-29009D01*
X157683Y-24833D01*
X158680Y-24420D01*
X159791Y-23568D01*
X160643Y-22458D01*
X161178Y-21165D01*
X161361Y-19777D01*
X161178Y-18390D01*
X160643Y-17097D01*
X159791Y-15987D01*
X158680Y-15135D01*
X157387Y-14599D01*
X156000Y-14416D01*
X154612Y-14599D01*
X153320Y-15135D01*
X152209Y-15987D01*
X151357Y-17097D01*
X150944Y-18094D01*
X145372Y-23666D01*
X144615Y-24653D01*
X144139Y-25802D01*
X143976Y-27035D01*
Y-29933D01*
X138000D01*
X136767Y-30096D01*
X135617Y-30572D01*
X134630Y-31329D01*
X134585Y-31388D01*
X133779Y-31055D01*
X132803Y-30926D01*
X131827Y-31055D01*
X130917Y-31431D01*
X130136Y-32031D01*
X129536Y-32812D01*
X129159Y-33722D01*
X129031Y-34699D01*
X129159Y-35675D01*
X129536Y-36585D01*
X130136Y-37366D01*
X130917Y-37966D01*
X131827Y-38342D01*
X132803Y-38471D01*
X133779Y-38342D01*
X134585Y-38009D01*
X134630Y-38068D01*
X135617Y-38825D01*
X135994Y-38981D01*
Y-53136D01*
X134157D01*
Y-55465D01*
X131496D01*
Y-53136D01*
X125303D01*
X125197Y-53135D01*
X124803D01*
X124697Y-53136D01*
X118504D01*
Y-60419D01*
X120341D01*
Y-64965D01*
X94500D01*
X93998Y-65065D01*
X93572Y-65349D01*
X78669Y-80252D01*
X11831D01*
X8812Y-77233D01*
Y-43667D01*
X30443Y-22037D01*
X38823D01*
Y-18232D01*
X54306D01*
X54309Y-18255D01*
X54825Y-19500D01*
X55645Y-20569D01*
X56714Y-21390D01*
X57959Y-21905D01*
X59295Y-22081D01*
X60631Y-21905D01*
X61876Y-21390D01*
X62945Y-20569D01*
X63766Y-19500D01*
X64282Y-18255D01*
X64457Y-16919D01*
X64282Y-15583D01*
X63766Y-14338D01*
X62945Y-13269D01*
X61876Y-12448D01*
X60631Y-11932D01*
X59295Y-11757D01*
D02*
G37*
G36*
X390547Y-12860D02*
X386020D01*
Y-17388D01*
X390547D01*
Y-12860D01*
D02*
G37*
G36*
X384020D02*
X379492D01*
Y-17388D01*
X384020D01*
Y-12860D01*
D02*
G37*
G36*
X346866D02*
X342338D01*
Y-17388D01*
X346866D01*
Y-12860D01*
D02*
G37*
G36*
X340338D02*
X335811D01*
Y-17388D01*
X340338D01*
Y-12860D01*
D02*
G37*
G36*
X176528Y-14250D02*
X172000D01*
Y-18777D01*
X176528D01*
Y-14250D01*
D02*
G37*
G36*
X170000D02*
X165472D01*
Y-18777D01*
X170000D01*
Y-14250D01*
D02*
G37*
G36*
X131803Y-16014D02*
X128948D01*
X128952Y-16045D01*
X129350Y-17007D01*
X129984Y-17833D01*
X130810Y-18466D01*
X131771Y-18865D01*
X131803Y-18869D01*
Y-16014D01*
D02*
G37*
G36*
X136658D02*
X133803D01*
Y-18869D01*
X133835Y-18865D01*
X134797Y-18466D01*
X135622Y-17833D01*
X136256Y-17007D01*
X136654Y-16045D01*
X136658Y-16014D01*
D02*
G37*
G36*
X106382Y-3512D02*
X80500D01*
X79267Y-3674D01*
X78117Y-4150D01*
X77130Y-4908D01*
X73130Y-8908D01*
X72373Y-9895D01*
X71897Y-11044D01*
X71735Y-12277D01*
Y-14462D01*
X71185D01*
Y-25092D01*
X71735D01*
Y-36303D01*
X65424Y-42614D01*
X40390D01*
X39156Y-42777D01*
X38007Y-43253D01*
X37020Y-44010D01*
X36263Y-44997D01*
X35787Y-46146D01*
X35625Y-47380D01*
X35733Y-48206D01*
X35271Y-49322D01*
X35109Y-50555D01*
Y-50843D01*
X31446Y-54506D01*
X30688Y-55493D01*
X30212Y-56642D01*
X30050Y-57875D01*
Y-58091D01*
X29373Y-58973D01*
X28897Y-60123D01*
X28735Y-61356D01*
Y-71198D01*
X28897Y-72432D01*
X29373Y-73581D01*
X30130Y-74568D01*
X31117Y-75325D01*
X32267Y-75801D01*
X33500Y-75964D01*
X34733Y-75801D01*
X35882Y-75325D01*
X36869Y-74568D01*
X37627Y-73581D01*
X38103Y-72432D01*
X38265Y-71198D01*
Y-68227D01*
X38942Y-67344D01*
X39418Y-66195D01*
X39580Y-64962D01*
Y-59849D01*
X43243Y-56186D01*
X44001Y-55199D01*
X44477Y-54050D01*
X44639Y-52817D01*
Y-52529D01*
X45023Y-52145D01*
X67397D01*
X68631Y-51982D01*
X69780Y-51506D01*
X70767Y-50749D01*
X79869Y-41647D01*
X80627Y-40660D01*
X81103Y-39511D01*
X81265Y-38277D01*
Y-25092D01*
X81815D01*
Y-14462D01*
X81761D01*
X81554Y-13962D01*
X82474Y-13042D01*
X104408D01*
X109749Y-18383D01*
X110735Y-19140D01*
X111885Y-19616D01*
X113118Y-19779D01*
X114351Y-19616D01*
X115501Y-19140D01*
X116488Y-18383D01*
X117245Y-17396D01*
X117721Y-16247D01*
X117883Y-15013D01*
X117721Y-13780D01*
X117245Y-12631D01*
X116488Y-11644D01*
X109751Y-4908D01*
X108764Y-4150D01*
X107615Y-3674D01*
X106382Y-3512D01*
D02*
G37*
G36*
X246500Y-19582D02*
Y-22636D01*
X249554D01*
X249543Y-22553D01*
X249125Y-21543D01*
X248460Y-20676D01*
X247593Y-20011D01*
X246583Y-19593D01*
X246500Y-19582D01*
D02*
G37*
G36*
X244500D02*
X244417Y-19593D01*
X243407Y-20011D01*
X242541Y-20676D01*
X241875Y-21543D01*
X241457Y-22553D01*
X241446Y-22636D01*
X244500D01*
Y-19582D01*
D02*
G37*
G36*
X390547Y-19387D02*
X386020D01*
Y-23915D01*
X390547D01*
Y-19387D01*
D02*
G37*
G36*
X384020D02*
X379492D01*
Y-23915D01*
X384020D01*
Y-19387D01*
D02*
G37*
G36*
X346866D02*
X342338D01*
Y-23915D01*
X346866D01*
Y-19387D01*
D02*
G37*
G36*
X340338D02*
X335811D01*
Y-23915D01*
X340338D01*
Y-19387D01*
D02*
G37*
G36*
X176528Y-20777D02*
X172000D01*
Y-25305D01*
X176528D01*
Y-20777D01*
D02*
G37*
G36*
X170000D02*
X165472D01*
Y-25305D01*
X170000D01*
Y-20777D01*
D02*
G37*
G36*
X555988Y-13148D02*
X554599Y-13285D01*
X553263Y-13690D01*
X552032Y-14348D01*
X550953Y-15234D01*
X550067Y-16313D01*
X549409Y-17544D01*
X549004Y-18880D01*
X548867Y-20269D01*
X549004Y-21658D01*
X549409Y-22994D01*
X550067Y-24226D01*
X550953Y-25305D01*
X552032Y-26190D01*
X553263Y-26848D01*
X554599Y-27253D01*
X555988Y-27390D01*
X557377Y-27253D01*
X558713Y-26848D01*
X559944Y-26190D01*
X561023Y-25305D01*
X561909Y-24226D01*
X562567Y-22994D01*
X562972Y-21658D01*
X563109Y-20269D01*
X562972Y-18880D01*
X562567Y-17544D01*
X561909Y-16313D01*
X561023Y-15234D01*
X559944Y-14348D01*
X558713Y-13690D01*
X557377Y-13285D01*
X555988Y-13148D01*
D02*
G37*
G36*
X217799D02*
X216410Y-13285D01*
X215074Y-13690D01*
X213843Y-14348D01*
X212764Y-15234D01*
X211878Y-16313D01*
X211220Y-17544D01*
X210815Y-18880D01*
X210678Y-20269D01*
X210815Y-21658D01*
X211220Y-22994D01*
X211878Y-24226D01*
X212764Y-25305D01*
X213843Y-26190D01*
X215074Y-26848D01*
X216410Y-27253D01*
X217799Y-27390D01*
X219188Y-27253D01*
X220524Y-26848D01*
X221755Y-26190D01*
X222834Y-25305D01*
X223720Y-24226D01*
X224378Y-22994D01*
X224783Y-21658D01*
X224920Y-20269D01*
X224783Y-18880D01*
X224378Y-17544D01*
X223720Y-16313D01*
X222834Y-15234D01*
X221755Y-14348D01*
X220524Y-13690D01*
X219188Y-13285D01*
X217799Y-13148D01*
D02*
G37*
G36*
X249554Y-24636D02*
X246500D01*
Y-27690D01*
X246583Y-27679D01*
X247593Y-27261D01*
X248460Y-26595D01*
X249125Y-25729D01*
X249543Y-24719D01*
X249554Y-24636D01*
D02*
G37*
G36*
X244500D02*
X241446D01*
X241457Y-24719D01*
X241875Y-25729D01*
X242541Y-26595D01*
X243407Y-27261D01*
X244417Y-27679D01*
X244500Y-27690D01*
Y-24636D01*
D02*
G37*
G36*
X122960Y-21083D02*
X121984Y-21212D01*
X121074Y-21589D01*
X120293Y-22188D01*
X119693Y-22970D01*
X119317Y-23879D01*
X119188Y-24856D01*
X119317Y-25832D01*
X119693Y-26742D01*
X120293Y-27523D01*
X121074Y-28123D01*
X121984Y-28500D01*
X122960Y-28628D01*
X123937Y-28500D01*
X124847Y-28123D01*
X125628Y-27523D01*
X126227Y-26742D01*
X126604Y-25832D01*
X126733Y-24856D01*
X126604Y-23879D01*
X126227Y-22970D01*
X125628Y-22188D01*
X124847Y-21589D01*
X123937Y-21212D01*
X122960Y-21083D01*
D02*
G37*
G36*
X560500Y-30100D02*
X559421Y-30242D01*
X558415Y-30658D01*
X557552Y-31321D01*
X556889Y-32185D01*
X556774Y-32463D01*
X554634D01*
Y-30136D01*
X546366D01*
Y-38403D01*
X554634D01*
Y-36076D01*
X556774D01*
X556889Y-36354D01*
X557552Y-37218D01*
X558415Y-37880D01*
X559421Y-38297D01*
X560500Y-38439D01*
X561579Y-38297D01*
X562585Y-37880D01*
X563448Y-37218D01*
X564111Y-36354D01*
X564527Y-35348D01*
X564669Y-34269D01*
X564527Y-33190D01*
X564111Y-32185D01*
X563448Y-31321D01*
X562585Y-30658D01*
X561579Y-30242D01*
X560500Y-30100D01*
D02*
G37*
G36*
X301362Y-32742D02*
X301000D01*
X300862Y-32742D01*
X297457D01*
Y-36891D01*
Y-41041D01*
X300862D01*
X301000Y-41041D01*
X301362D01*
X301500Y-41041D01*
X304905D01*
Y-36891D01*
Y-32742D01*
X301500D01*
X301362Y-32742D01*
D02*
G37*
G36*
X481437Y-32935D02*
X463169D01*
Y-33294D01*
X462851Y-33507D01*
X462669Y-33554D01*
X462000Y-33466D01*
X461272Y-33562D01*
X460594Y-33842D01*
X460012Y-34289D01*
X459565Y-34871D01*
X459284Y-35550D01*
X459189Y-36277D01*
X459284Y-37005D01*
X459565Y-37683D01*
X460012Y-38265D01*
X460594Y-38712D01*
X461272Y-38993D01*
X462000Y-39089D01*
X462669Y-39000D01*
X462851Y-39048D01*
X463169Y-39260D01*
Y-39509D01*
X481437D01*
Y-32935D01*
D02*
G37*
G36*
X60296Y-29390D02*
Y-33635D01*
X64541D01*
X64489Y-33244D01*
X63952Y-31947D01*
X63098Y-30834D01*
X61984Y-29979D01*
X60687Y-29442D01*
X60296Y-29390D01*
D02*
G37*
G36*
X58296D02*
X57904Y-29442D01*
X56607Y-29979D01*
X55494Y-30834D01*
X54639Y-31947D01*
X54102Y-33244D01*
X54050Y-33635D01*
X58296D01*
Y-29390D01*
D02*
G37*
G36*
X34704D02*
Y-33635D01*
X38949D01*
X38898Y-33244D01*
X38361Y-31947D01*
X37506Y-30834D01*
X36393Y-29979D01*
X35096Y-29442D01*
X34704Y-29390D01*
D02*
G37*
G36*
X32704D02*
X32313Y-29442D01*
X31016Y-29979D01*
X29902Y-30834D01*
X29048Y-31947D01*
X28511Y-33244D01*
X28459Y-33635D01*
X32704D01*
Y-29390D01*
D02*
G37*
G36*
X306905Y-32742D02*
Y-35891D01*
X310449D01*
Y-32742D01*
X306905D01*
D02*
G37*
G36*
X267898D02*
X264354D01*
Y-35891D01*
X267898D01*
Y-32742D01*
D02*
G37*
G36*
X64541Y-35635D02*
X60296D01*
Y-39880D01*
X60687Y-39829D01*
X61984Y-39292D01*
X63098Y-38437D01*
X63952Y-37324D01*
X64489Y-36027D01*
X64541Y-35635D01*
D02*
G37*
G36*
X58296D02*
X54050D01*
X54102Y-36027D01*
X54639Y-37324D01*
X55494Y-38437D01*
X56607Y-39292D01*
X57904Y-39829D01*
X58296Y-39880D01*
Y-35635D01*
D02*
G37*
G36*
X38949D02*
X34704D01*
Y-39880D01*
X35096Y-39829D01*
X36393Y-39292D01*
X37506Y-38437D01*
X38361Y-37324D01*
X38898Y-36027D01*
X38949Y-35635D01*
D02*
G37*
G36*
X32704D02*
X28459D01*
X28511Y-36027D01*
X29048Y-37324D01*
X29902Y-38437D01*
X31016Y-39292D01*
X32313Y-39829D01*
X32704Y-39880D01*
Y-35635D01*
D02*
G37*
G36*
X310449Y-37891D02*
X306905D01*
Y-41041D01*
X310449D01*
Y-37891D01*
D02*
G37*
G36*
X282858Y-32742D02*
X282496D01*
X282358Y-32742D01*
X278953D01*
Y-36891D01*
Y-41041D01*
X282358D01*
X282496Y-41041D01*
X282858D01*
X282996Y-41041D01*
X286401D01*
Y-36891D01*
Y-32742D01*
X282996D01*
X282858Y-32742D01*
D02*
G37*
G36*
X267898Y-37891D02*
X264354D01*
Y-41041D01*
X267898D01*
Y-37891D01*
D02*
G37*
G36*
X288401Y-32742D02*
Y-36891D01*
Y-41041D01*
X295457D01*
Y-36891D01*
Y-32742D01*
X288401D01*
D02*
G37*
G36*
X276953D02*
X269898D01*
Y-36891D01*
Y-41041D01*
X276953D01*
Y-36891D01*
Y-32742D01*
D02*
G37*
G36*
X123960Y-40686D02*
Y-43541D01*
X126816D01*
X126812Y-43509D01*
X126413Y-42547D01*
X125780Y-41722D01*
X124954Y-41088D01*
X123992Y-40690D01*
X123960Y-40686D01*
D02*
G37*
G36*
X121960D02*
X121929Y-40690D01*
X120967Y-41088D01*
X120141Y-41722D01*
X119508Y-42547D01*
X119109Y-43509D01*
X119105Y-43541D01*
X121960D01*
Y-40686D01*
D02*
G37*
G36*
X481437Y-42935D02*
X463169D01*
Y-43795D01*
X462851Y-44007D01*
X462669Y-44054D01*
X462000Y-43966D01*
X461272Y-44061D01*
X460594Y-44342D01*
X460012Y-44789D01*
X459565Y-45371D01*
X459284Y-46049D01*
X459189Y-46777D01*
X459284Y-47505D01*
X459565Y-48183D01*
X460012Y-48765D01*
X460594Y-49212D01*
X461272Y-49493D01*
X462000Y-49589D01*
X462669Y-49501D01*
X463169Y-49510D01*
X463169Y-49510D01*
X463169Y-49510D01*
X481437D01*
Y-42935D01*
D02*
G37*
G36*
X400020Y-13027D02*
X398632Y-13209D01*
X397339Y-13745D01*
X396229Y-14597D01*
X395377Y-15707D01*
X394841Y-17000D01*
X394659Y-18387D01*
X394841Y-19775D01*
X395254Y-20772D01*
Y-38441D01*
X389168Y-44528D01*
X352118D01*
X351927Y-44066D01*
X360456Y-35536D01*
X361213Y-34549D01*
X361689Y-33400D01*
X361852Y-32167D01*
Y-19136D01*
X361852Y-19135D01*
X361852Y-19135D01*
X361768Y-18496D01*
X361689Y-17902D01*
X361689Y-17902D01*
X361689Y-17902D01*
X361610Y-17710D01*
X361517Y-17000D01*
X360981Y-15707D01*
X360129Y-14597D01*
X359019Y-13745D01*
X357726Y-13209D01*
X356338Y-13027D01*
X354951Y-13209D01*
X353658Y-13745D01*
X352548Y-14597D01*
X351696Y-15707D01*
X351160Y-17000D01*
X350978Y-18387D01*
X351160Y-19775D01*
X351696Y-21068D01*
X352321Y-21883D01*
Y-30193D01*
X337987Y-44528D01*
X310236D01*
Y-43978D01*
X306092D01*
X305762Y-43946D01*
X305576Y-43978D01*
X301575D01*
Y-44528D01*
X300787D01*
Y-43978D01*
X296715D01*
X296457Y-43944D01*
X296199Y-43978D01*
X292126D01*
Y-43978D01*
X291732D01*
Y-43978D01*
X287494D01*
X286680Y-43871D01*
X197516D01*
Y-37073D01*
X171531D01*
Y-61482D01*
X197516D01*
Y-53401D01*
X285713D01*
X285937Y-53518D01*
X286426Y-53697D01*
X286907Y-53896D01*
X287009Y-53909D01*
X287106Y-53944D01*
X287624Y-53990D01*
X288140Y-54058D01*
X391142D01*
X392375Y-53896D01*
X393524Y-53420D01*
X394511Y-52662D01*
X403389Y-43784D01*
X404146Y-42797D01*
X404622Y-41648D01*
X404785Y-40415D01*
Y-20772D01*
X405198Y-19775D01*
X405380Y-18387D01*
X405198Y-17000D01*
X404662Y-15707D01*
X403810Y-14597D01*
X402700Y-13745D01*
X401407Y-13209D01*
X400020Y-13027D01*
D02*
G37*
G36*
X126816Y-45541D02*
X123960D01*
Y-48396D01*
X123992Y-48392D01*
X124954Y-47994D01*
X125780Y-47360D01*
X126413Y-46534D01*
X126812Y-45573D01*
X126816Y-45541D01*
D02*
G37*
G36*
X121960D02*
X119105D01*
X119109Y-45573D01*
X119508Y-46534D01*
X120141Y-47360D01*
X120967Y-47994D01*
X121929Y-48392D01*
X121960Y-48396D01*
Y-45541D01*
D02*
G37*
G36*
X560500Y-40100D02*
X559421Y-40242D01*
X558415Y-40658D01*
X557552Y-41321D01*
X556889Y-42185D01*
X556472Y-43190D01*
X556330Y-44269D01*
X556472Y-45349D01*
X556889Y-46354D01*
X557552Y-47218D01*
X558415Y-47880D01*
X559421Y-48297D01*
X560500Y-48439D01*
X561579Y-48297D01*
X562585Y-47880D01*
X563448Y-47218D01*
X564111Y-46354D01*
X564527Y-45349D01*
X564669Y-44269D01*
X564527Y-43190D01*
X564111Y-42185D01*
X563448Y-41321D01*
X562585Y-40658D01*
X561579Y-40242D01*
X560500Y-40100D01*
D02*
G37*
G36*
X550500D02*
X549421Y-40242D01*
X548415Y-40658D01*
X547552Y-41321D01*
X546889Y-42185D01*
X546473Y-43190D01*
X546330Y-44269D01*
X546473Y-45349D01*
X546889Y-46354D01*
X547552Y-47218D01*
X548415Y-47880D01*
X549421Y-48297D01*
X550500Y-48439D01*
X551579Y-48297D01*
X552585Y-47880D01*
X553448Y-47218D01*
X554111Y-46354D01*
X554527Y-45349D01*
X554669Y-44269D01*
X554527Y-43190D01*
X554111Y-42185D01*
X553448Y-41321D01*
X552585Y-40658D01*
X551579Y-40242D01*
X550500Y-40100D01*
D02*
G37*
G36*
X481437Y-52935D02*
X463169D01*
Y-53294D01*
X462851Y-53507D01*
X462669Y-53554D01*
X462000Y-53466D01*
X461272Y-53562D01*
X460594Y-53842D01*
X460012Y-54289D01*
X459565Y-54871D01*
X459284Y-55550D01*
X459189Y-56277D01*
X459284Y-57005D01*
X459565Y-57683D01*
X460012Y-58265D01*
X460594Y-58712D01*
X461272Y-58993D01*
X462000Y-59089D01*
X462669Y-59000D01*
X462851Y-59048D01*
X463169Y-59260D01*
Y-59509D01*
X481437D01*
Y-52935D01*
D02*
G37*
G36*
X560500Y-50100D02*
X559421Y-50242D01*
X558415Y-50658D01*
X557552Y-51321D01*
X556889Y-52185D01*
X556472Y-53190D01*
X556330Y-54269D01*
X556472Y-55348D01*
X556889Y-56354D01*
X557552Y-57218D01*
X558415Y-57880D01*
X559421Y-58297D01*
X560500Y-58439D01*
X561579Y-58297D01*
X562585Y-57880D01*
X563448Y-57218D01*
X564111Y-56354D01*
X564527Y-55348D01*
X564669Y-54269D01*
X564527Y-53190D01*
X564111Y-52185D01*
X563448Y-51321D01*
X562585Y-50658D01*
X561579Y-50242D01*
X560500Y-50100D01*
D02*
G37*
G36*
X91500Y-14416D02*
X90112Y-14599D01*
X88819Y-15135D01*
X87709Y-15987D01*
X86857Y-17097D01*
X86322Y-18390D01*
X86139Y-19777D01*
X86322Y-21165D01*
X86735Y-22162D01*
Y-34907D01*
Y-45303D01*
X70526Y-61512D01*
X61887D01*
Y-60372D01*
X61725Y-59138D01*
X61249Y-57989D01*
X60492Y-57002D01*
X59505Y-56245D01*
X58355Y-55769D01*
X57122Y-55607D01*
X55889Y-55769D01*
X54739Y-56245D01*
X53753Y-57002D01*
X52995Y-57989D01*
X52519Y-59138D01*
X52357Y-60372D01*
Y-72183D01*
X52519Y-73416D01*
X52995Y-74565D01*
X53753Y-75552D01*
X54739Y-76310D01*
X55889Y-76785D01*
X57122Y-76948D01*
X58355Y-76785D01*
X59505Y-76310D01*
X60492Y-75552D01*
X61249Y-74565D01*
X61725Y-73416D01*
X61887Y-72183D01*
Y-71042D01*
X72500D01*
X73733Y-70880D01*
X74883Y-70404D01*
X75869Y-69647D01*
X94869Y-50647D01*
X95627Y-49660D01*
X96103Y-48511D01*
X96265Y-47277D01*
Y-39464D01*
X113118D01*
X114351Y-39301D01*
X115501Y-38825D01*
X116488Y-38068D01*
X117245Y-37081D01*
X117721Y-35932D01*
X117883Y-34699D01*
X117721Y-33465D01*
X117245Y-32316D01*
X116488Y-31329D01*
X115501Y-30572D01*
X114351Y-30096D01*
X113118Y-29933D01*
X96265D01*
Y-22162D01*
X96678Y-21165D01*
X96861Y-19777D01*
X96678Y-18390D01*
X96142Y-17097D01*
X95290Y-15987D01*
X94180Y-15135D01*
X92887Y-14599D01*
X91500Y-14416D01*
D02*
G37*
G36*
X481437Y-62935D02*
X463169D01*
Y-63294D01*
X462851Y-63507D01*
X462669Y-63554D01*
X462000Y-63466D01*
X461272Y-63561D01*
X460594Y-63842D01*
X460012Y-64289D01*
X459565Y-64872D01*
X459284Y-65549D01*
X459189Y-66277D01*
X459284Y-67005D01*
X459565Y-67683D01*
X460012Y-68265D01*
X460594Y-68712D01*
X461272Y-68993D01*
X462000Y-69089D01*
X462669Y-69001D01*
X462851Y-69048D01*
X463169Y-69260D01*
Y-69510D01*
X481437D01*
Y-62935D01*
D02*
G37*
G36*
X560500Y-60100D02*
X559421Y-60242D01*
X558415Y-60658D01*
X557552Y-61321D01*
X556889Y-62185D01*
X556472Y-63190D01*
X556330Y-64269D01*
X556472Y-65349D01*
X556889Y-66354D01*
X557552Y-67218D01*
X558415Y-67880D01*
X559421Y-68297D01*
X560500Y-68439D01*
X561579Y-68297D01*
X562585Y-67880D01*
X563448Y-67218D01*
X564111Y-66354D01*
X564527Y-65349D01*
X564669Y-64269D01*
X564527Y-63190D01*
X564111Y-62185D01*
X563448Y-61321D01*
X562585Y-60658D01*
X561579Y-60242D01*
X560500Y-60100D01*
D02*
G37*
G36*
X16964Y-59552D02*
X15653Y-59681D01*
X14391Y-60064D01*
X13228Y-60685D01*
X12209Y-61522D01*
X11373Y-62541D01*
X10751Y-63704D01*
X10368Y-64965D01*
X10239Y-66277D01*
X10368Y-67589D01*
X10751Y-68851D01*
X11373Y-70013D01*
X12209Y-71033D01*
X13228Y-71869D01*
X14391Y-72491D01*
X15653Y-72873D01*
X16964Y-73002D01*
X18277Y-72873D01*
X19538Y-72491D01*
X20701Y-71869D01*
X21720Y-71033D01*
X22556Y-70013D01*
X23178Y-68851D01*
X23561Y-67589D01*
X23690Y-66277D01*
X23561Y-64965D01*
X23178Y-63704D01*
X22556Y-62541D01*
X21720Y-61522D01*
X20701Y-60685D01*
X19538Y-60064D01*
X18277Y-59681D01*
X16964Y-59552D01*
D02*
G37*
G36*
X481437Y-72935D02*
X463169D01*
Y-73294D01*
X462851Y-73507D01*
X462669Y-73554D01*
X462000Y-73466D01*
X461272Y-73562D01*
X460594Y-73842D01*
X460012Y-74289D01*
X459565Y-74871D01*
X459284Y-75550D01*
X459189Y-76277D01*
X459284Y-77005D01*
X459565Y-77683D01*
X460012Y-78265D01*
X460594Y-78712D01*
X461272Y-78993D01*
X462000Y-79089D01*
X462669Y-79001D01*
X462851Y-79048D01*
X463169Y-79260D01*
Y-79510D01*
X481437D01*
Y-72935D01*
D02*
G37*
G36*
X165086Y-73549D02*
X162331D01*
Y-75517D01*
X165086D01*
Y-73549D01*
D02*
G37*
G36*
X160331D02*
X157575D01*
Y-75517D01*
X160331D01*
Y-73549D01*
D02*
G37*
G36*
X205157Y-74159D02*
X202500D01*
Y-76423D01*
X205157D01*
Y-74159D01*
D02*
G37*
G36*
X200500D02*
X197842D01*
Y-76423D01*
X200500D01*
Y-74159D01*
D02*
G37*
G36*
X560500Y-70100D02*
X559421Y-70242D01*
X558415Y-70658D01*
X557552Y-71321D01*
X556889Y-72185D01*
X556472Y-73190D01*
X556330Y-74269D01*
X556472Y-75349D01*
X556889Y-76354D01*
X557552Y-77218D01*
X558415Y-77880D01*
X559421Y-78297D01*
X560500Y-78439D01*
X561579Y-78297D01*
X562585Y-77880D01*
X563448Y-77218D01*
X564111Y-76354D01*
X564527Y-75349D01*
X564669Y-74269D01*
X564527Y-73190D01*
X564111Y-72185D01*
X563448Y-71321D01*
X562585Y-70658D01*
X561579Y-70242D01*
X560500Y-70100D01*
D02*
G37*
G36*
X165086Y-77517D02*
X162331D01*
Y-79486D01*
X165086D01*
Y-77517D01*
D02*
G37*
G36*
X160331D02*
X157575D01*
Y-79486D01*
X160331D01*
Y-77517D01*
D02*
G37*
G36*
X170000Y-77624D02*
X167146D01*
Y-79986D01*
X170000D01*
Y-77624D01*
D02*
G37*
G36*
X205157Y-78423D02*
X201500D01*
X197842D01*
Y-80687D01*
X198055D01*
Y-83228D01*
X195307D01*
X194402Y-82322D01*
Y-79242D01*
X188496D01*
Y-83080D01*
X188496D01*
Y-83474D01*
X188496D01*
Y-87313D01*
X194402D01*
Y-86151D01*
X194764Y-85854D01*
X198055D01*
Y-86183D01*
X204945D01*
Y-85854D01*
X378720D01*
X430572Y-137705D01*
X430998Y-137990D01*
X431500Y-138090D01*
X463169D01*
Y-139509D01*
X481437D01*
Y-132935D01*
X463169D01*
Y-135465D01*
X432044D01*
X380192Y-83613D01*
X379766Y-83328D01*
X379264Y-83228D01*
X204945D01*
Y-80687D01*
X205157D01*
Y-78423D01*
D02*
G37*
G36*
X481437Y-82935D02*
X463169D01*
Y-83794D01*
X462851Y-84007D01*
X462669Y-84054D01*
X462000Y-83966D01*
X461272Y-84061D01*
X460594Y-84342D01*
X460012Y-84789D01*
X459565Y-85372D01*
X459284Y-86049D01*
X459189Y-86777D01*
X459284Y-87505D01*
X459565Y-88183D01*
X460012Y-88765D01*
X460594Y-89212D01*
X461272Y-89493D01*
X462000Y-89589D01*
X462669Y-89500D01*
X463169Y-89509D01*
X463169Y-89509D01*
X463169Y-89509D01*
X481437D01*
Y-82935D01*
D02*
G37*
G36*
X501161D02*
X482894D01*
Y-89509D01*
X501161D01*
Y-89190D01*
X501577Y-88912D01*
X501772Y-88993D01*
X502500Y-89089D01*
X503228Y-88993D01*
X503906Y-88712D01*
X504488Y-88265D01*
X504935Y-87683D01*
X505216Y-87005D01*
X505311Y-86277D01*
X505216Y-85549D01*
X504935Y-84872D01*
X504488Y-84289D01*
X503906Y-83842D01*
X503228Y-83561D01*
X502500Y-83466D01*
X501772Y-83561D01*
X501577Y-83642D01*
X501161Y-83365D01*
Y-82935D01*
D02*
G37*
G36*
X170138Y-85835D02*
Y-89683D01*
X173986D01*
X173948Y-89394D01*
X173450Y-88193D01*
X172659Y-87162D01*
X171627Y-86370D01*
X170426Y-85873D01*
X170138Y-85835D01*
D02*
G37*
G36*
X168138Y-85835D02*
X167849Y-85873D01*
X166648Y-86370D01*
X165617Y-87162D01*
X164825Y-88193D01*
X164328Y-89394D01*
X164290Y-89683D01*
X168138D01*
Y-85835D01*
D02*
G37*
G36*
X87508Y-85772D02*
X87116Y-85824D01*
X85819Y-86361D01*
X84706Y-87215D01*
X83851Y-88329D01*
X83314Y-89626D01*
X83263Y-90017D01*
X87508D01*
Y-85772D01*
D02*
G37*
G36*
X27665D02*
X27274Y-85824D01*
X25977Y-86361D01*
X24863Y-87215D01*
X24009Y-88329D01*
X23472Y-89626D01*
X23420Y-90017D01*
X27665D01*
Y-85772D01*
D02*
G37*
G36*
X481437Y-92935D02*
X463169D01*
Y-93294D01*
X462851Y-93507D01*
X462669Y-93554D01*
X462000Y-93466D01*
X461272Y-93562D01*
X460594Y-93842D01*
X460012Y-94289D01*
X459565Y-94871D01*
X459284Y-95549D01*
X459189Y-96277D01*
X459284Y-97005D01*
X459565Y-97683D01*
X460012Y-98265D01*
X460594Y-98712D01*
X461272Y-98993D01*
X462000Y-99089D01*
X462669Y-99001D01*
X462851Y-99048D01*
X463169Y-99260D01*
Y-99510D01*
X481437D01*
Y-92935D01*
D02*
G37*
G36*
X168138Y-91683D02*
X164290D01*
X164328Y-91971D01*
X164825Y-93173D01*
X165617Y-94204D01*
X166648Y-94995D01*
X167849Y-95493D01*
X168138Y-95531D01*
Y-91683D01*
D02*
G37*
G36*
X173986D02*
X170138D01*
Y-95531D01*
X170426Y-95493D01*
X171627Y-94995D01*
X172659Y-94204D01*
X173450Y-93173D01*
X173948Y-91971D01*
X173986Y-91683D01*
D02*
G37*
G36*
X89508Y-85772D02*
Y-91017D01*
Y-96262D01*
X89899Y-96211D01*
X91196Y-95674D01*
X92310Y-94819D01*
X93164Y-93706D01*
X93294Y-93392D01*
X93794D01*
X93879Y-93598D01*
X94700Y-94668D01*
X95769Y-95488D01*
X97014Y-96004D01*
X98350Y-96180D01*
X99025Y-96091D01*
X103485Y-100551D01*
X103294Y-101013D01*
X47024D01*
X41589Y-95578D01*
X41622Y-95079D01*
X42158Y-94668D01*
X42979Y-93598D01*
X43179Y-93114D01*
X43679D01*
X43880Y-93598D01*
X44700Y-94668D01*
X45769Y-95488D01*
X47014Y-96004D01*
X48350Y-96180D01*
X49686Y-96004D01*
X50931Y-95488D01*
X52000Y-94668D01*
X52821Y-93598D01*
X53337Y-92353D01*
X53513Y-91017D01*
X53337Y-89681D01*
X52821Y-88436D01*
X52000Y-87367D01*
X50931Y-86547D01*
X49686Y-86031D01*
X48350Y-85855D01*
X47014Y-86031D01*
X45769Y-86547D01*
X44700Y-87367D01*
X43880Y-88436D01*
X43679Y-88920D01*
X43179D01*
X42979Y-88436D01*
X42158Y-87367D01*
X41089Y-86547D01*
X39844Y-86031D01*
X38508Y-85855D01*
X37172Y-86031D01*
X35927Y-86547D01*
X34857Y-87367D01*
X34037Y-88436D01*
X33952Y-88643D01*
X33452D01*
X33322Y-88329D01*
X32467Y-87215D01*
X31354Y-86361D01*
X30057Y-85824D01*
X29665Y-85772D01*
Y-91017D01*
Y-96262D01*
X30057Y-96211D01*
X31354Y-95674D01*
X32467Y-94819D01*
X33322Y-93706D01*
X33452Y-93392D01*
X33952D01*
X34037Y-93598D01*
X34857Y-94668D01*
X35927Y-95488D01*
X37172Y-96004D01*
X38508Y-96180D01*
X38602Y-96167D01*
X45606Y-103171D01*
X46016Y-103445D01*
X46500Y-103542D01*
X199901D01*
X227735Y-131376D01*
Y-217777D01*
X227832Y-218261D01*
X228106Y-218671D01*
X242102Y-232667D01*
X242512Y-232942D01*
X242996Y-233038D01*
X385138D01*
X385622Y-232942D01*
X386032Y-232667D01*
X386306Y-232257D01*
X386402Y-231773D01*
Y-231202D01*
X387106D01*
Y-221754D01*
X383169D01*
Y-230509D01*
X382106D01*
Y-221754D01*
X378169D01*
Y-228816D01*
X366957D01*
X366749Y-228316D01*
X376240Y-218825D01*
X401596D01*
X401670Y-218874D01*
X402154Y-218970D01*
X453913D01*
X457374Y-222431D01*
X457784Y-222705D01*
X457784Y-222705D01*
X458268Y-222801D01*
X462724D01*
X463169Y-222935D01*
Y-229509D01*
X478625D01*
X480287Y-231171D01*
X480697Y-231445D01*
X481181Y-231541D01*
X561796D01*
X561965Y-232042D01*
X561540Y-232368D01*
X560877Y-233232D01*
X560461Y-234237D01*
X560381Y-234839D01*
X501161D01*
Y-232935D01*
X482894D01*
Y-239416D01*
X481437D01*
Y-232935D01*
X463169D01*
Y-239510D01*
X475178D01*
X477890Y-242222D01*
X477683Y-242722D01*
X473303D01*
Y-245222D01*
X481649D01*
Y-243028D01*
X482681D01*
Y-245222D01*
X492027D01*
X501374D01*
Y-243028D01*
X581496D01*
X582187Y-242891D01*
X582773Y-242499D01*
X585923Y-239350D01*
X586064Y-239138D01*
X586573Y-238927D01*
X587436Y-238265D01*
X588099Y-237401D01*
X588515Y-236396D01*
X588658Y-235316D01*
X588515Y-234237D01*
X588099Y-233232D01*
X587436Y-232368D01*
X586573Y-231706D01*
X585567Y-231289D01*
X584488Y-231147D01*
X583409Y-231289D01*
X582403Y-231706D01*
X581540Y-232368D01*
X580877Y-233232D01*
X580461Y-234237D01*
X580318Y-235316D01*
X580461Y-236396D01*
X580877Y-237401D01*
X581540Y-238265D01*
X581562Y-238602D01*
X580748Y-239416D01*
X576700D01*
X576583Y-238966D01*
X576588Y-238916D01*
X577436Y-238265D01*
X578099Y-237401D01*
X578515Y-236396D01*
X578657Y-235316D01*
X578515Y-234237D01*
X578099Y-233232D01*
X577436Y-232368D01*
X576573Y-231706D01*
X575567Y-231289D01*
X574488Y-231147D01*
X573409Y-231289D01*
X572589Y-231629D01*
X571012Y-230052D01*
X571203Y-229590D01*
X654456D01*
X655903Y-231037D01*
X655696Y-231537D01*
X652413D01*
Y-239017D01*
X659106D01*
Y-231537D01*
X658702D01*
Y-230667D01*
X658602Y-230165D01*
X658318Y-229739D01*
X655928Y-227349D01*
X655502Y-227064D01*
X655000Y-226965D01*
X615965D01*
X615719Y-226465D01*
X615935Y-226183D01*
X616216Y-225505D01*
X616311Y-224777D01*
X616216Y-224049D01*
X615935Y-223372D01*
X615488Y-222789D01*
X614906Y-222342D01*
X614228Y-222061D01*
X613500Y-221966D01*
X612772Y-222061D01*
X612094Y-222342D01*
X611512Y-222789D01*
X611065Y-223372D01*
X611026Y-223465D01*
X609000D01*
X608498Y-223565D01*
X608072Y-223849D01*
X606956Y-224965D01*
X560398D01*
X560219Y-224465D01*
X561023Y-223805D01*
X561909Y-222726D01*
X562567Y-221494D01*
X562972Y-220159D01*
X563109Y-218769D01*
X562972Y-217380D01*
X562567Y-216044D01*
X561909Y-214813D01*
X561023Y-213734D01*
X559944Y-212848D01*
X558713Y-212191D01*
X557377Y-211785D01*
X555988Y-211648D01*
X554599Y-211785D01*
X553263Y-212191D01*
X552032Y-212848D01*
X550953Y-213734D01*
X550067Y-214813D01*
X549409Y-216044D01*
X549004Y-217380D01*
X548867Y-218769D01*
X549004Y-220159D01*
X549409Y-221494D01*
X550067Y-222726D01*
X550953Y-223805D01*
X551757Y-224465D01*
X551578Y-224965D01*
X527544D01*
X515312Y-212734D01*
Y-192348D01*
X515213Y-191846D01*
X514928Y-191420D01*
X501161Y-177653D01*
Y-173090D01*
X503456D01*
X505823Y-175456D01*
X505784Y-175549D01*
X505688Y-176277D01*
X505784Y-177005D01*
X506065Y-177683D01*
X506512Y-178265D01*
X507094Y-178712D01*
X507772Y-178993D01*
X508500Y-179089D01*
X509228Y-178993D01*
X509906Y-178712D01*
X510488Y-178265D01*
X510935Y-177683D01*
X511215Y-177005D01*
X511311Y-176277D01*
X511215Y-175549D01*
X510935Y-174872D01*
X510488Y-174289D01*
X509906Y-173842D01*
X509228Y-173562D01*
X508500Y-173466D01*
X507772Y-173562D01*
X507679Y-173600D01*
X504928Y-170849D01*
X504502Y-170564D01*
X504000Y-170465D01*
X482594D01*
X482092Y-170564D01*
X481666Y-170849D01*
X479580Y-172935D01*
X463169D01*
Y-174958D01*
X393346D01*
X392863Y-175054D01*
X392452Y-175328D01*
X389244Y-178537D01*
X388969Y-178947D01*
X388969Y-178947D01*
X388873Y-179431D01*
Y-187470D01*
X387803Y-188540D01*
X279566D01*
X263875Y-172849D01*
X263449Y-172564D01*
X262946Y-172465D01*
X247638D01*
Y-171809D01*
X239663D01*
X239259Y-171309D01*
X239281Y-171195D01*
Y-170746D01*
X247638D01*
Y-166809D01*
X238189D01*
Y-167683D01*
X237940Y-167849D01*
X237040Y-168749D01*
X236756Y-169175D01*
X236656Y-169677D01*
Y-170694D01*
X236456Y-170993D01*
X236356Y-171495D01*
Y-191295D01*
X236456Y-191798D01*
X236740Y-192224D01*
X237166Y-192508D01*
X237668Y-192608D01*
X238189D01*
Y-195746D01*
X241601D01*
Y-196809D01*
X238189D01*
Y-200746D01*
X247638D01*
Y-200090D01*
X261125D01*
X278758Y-217723D01*
X279184Y-218008D01*
X279687Y-218108D01*
X299989D01*
X300088Y-218608D01*
X299966Y-218658D01*
X299103Y-219321D01*
X298440Y-220184D01*
X298024Y-221190D01*
X297882Y-222269D01*
X298024Y-223348D01*
X298440Y-224354D01*
X299103Y-225218D01*
X299966Y-225880D01*
X300286Y-226013D01*
X300187Y-226513D01*
X244414D01*
X234764Y-216863D01*
Y-129053D01*
X234668Y-128569D01*
X234394Y-128159D01*
X203618Y-97383D01*
X203208Y-97109D01*
X202724Y-97013D01*
X157256D01*
X153277Y-93034D01*
X153741Y-91916D01*
X153903Y-90683D01*
X153741Y-89449D01*
X153264Y-88300D01*
X152507Y-87313D01*
X151520Y-86556D01*
X150371Y-86080D01*
X149138Y-85918D01*
X147904Y-86080D01*
X146755Y-86556D01*
X145768Y-87313D01*
X145011Y-88300D01*
X144535Y-89449D01*
X144372Y-90683D01*
X144535Y-91916D01*
X145011Y-93065D01*
X145768Y-94052D01*
X146755Y-94810D01*
X147904Y-95285D01*
X149138Y-95448D01*
X150371Y-95285D01*
X151489Y-94822D01*
X155218Y-98551D01*
X155026Y-99013D01*
X105524D01*
X101804Y-95293D01*
X101836Y-94794D01*
X102000Y-94668D01*
X102821Y-93598D01*
X103022Y-93114D01*
X103522D01*
X103722Y-93598D01*
X104543Y-94668D01*
X105612Y-95488D01*
X106857Y-96004D01*
X108193Y-96180D01*
X109529Y-96004D01*
X110774Y-95488D01*
X111843Y-94668D01*
X112663Y-93598D01*
X113179Y-92353D01*
X113355Y-91017D01*
X113179Y-89681D01*
X112663Y-88436D01*
X111843Y-87367D01*
X110774Y-86547D01*
X109529Y-86031D01*
X108193Y-85855D01*
X106857Y-86031D01*
X105612Y-86547D01*
X104543Y-87367D01*
X103722Y-88436D01*
X103522Y-88920D01*
X103022D01*
X102821Y-88436D01*
X102000Y-87367D01*
X100931Y-86547D01*
X99686Y-86031D01*
X98350Y-85855D01*
X97014Y-86031D01*
X95769Y-86547D01*
X94700Y-87367D01*
X93879Y-88436D01*
X93794Y-88643D01*
X93294D01*
X93164Y-88329D01*
X92310Y-87215D01*
X91196Y-86361D01*
X89899Y-85824D01*
X89508Y-85772D01*
D02*
G37*
G36*
X87508Y-92017D02*
X83263D01*
X83314Y-92409D01*
X83851Y-93706D01*
X84706Y-94819D01*
X85819Y-95674D01*
X87116Y-96211D01*
X87508Y-96262D01*
Y-92017D01*
D02*
G37*
G36*
X27665D02*
X23420D01*
X23472Y-92409D01*
X24009Y-93706D01*
X24863Y-94819D01*
X25977Y-95674D01*
X27274Y-96211D01*
X27665Y-96262D01*
Y-92017D01*
D02*
G37*
G36*
X501161Y-92935D02*
X482894D01*
Y-99510D01*
X501161D01*
Y-99462D01*
X501661Y-99044D01*
X502000Y-99089D01*
X502728Y-98993D01*
X503406Y-98712D01*
X503988Y-98265D01*
X504435Y-97683D01*
X504715Y-97005D01*
X504811Y-96277D01*
X504715Y-95549D01*
X504435Y-94871D01*
X503988Y-94289D01*
X503406Y-93842D01*
X502728Y-93562D01*
X502000Y-93466D01*
X501661Y-93510D01*
X501161Y-93092D01*
Y-92935D01*
D02*
G37*
G36*
X481437Y-102935D02*
X463169D01*
Y-103795D01*
X462851Y-104007D01*
X462669Y-104054D01*
X462000Y-103966D01*
X461272Y-104061D01*
X460594Y-104342D01*
X460012Y-104789D01*
X459565Y-105371D01*
X459284Y-106050D01*
X459189Y-106777D01*
X459284Y-107505D01*
X459565Y-108183D01*
X460012Y-108765D01*
X460594Y-109212D01*
X461272Y-109493D01*
X462000Y-109589D01*
X462669Y-109501D01*
X463169Y-109510D01*
X463169Y-109510D01*
X463169Y-109510D01*
X481437D01*
Y-102935D01*
D02*
G37*
G36*
X501161D02*
X482894D01*
Y-109510D01*
X501161D01*
Y-109462D01*
X501661Y-109044D01*
X502000Y-109089D01*
X502728Y-108993D01*
X503406Y-108712D01*
X503988Y-108265D01*
X504435Y-107683D01*
X504715Y-107005D01*
X504811Y-106277D01*
X504715Y-105550D01*
X504435Y-104871D01*
X503988Y-104289D01*
X503406Y-103842D01*
X502728Y-103561D01*
X502000Y-103466D01*
X501661Y-103510D01*
X501161Y-103092D01*
Y-102935D01*
D02*
G37*
G36*
X481437Y-112935D02*
X463169D01*
Y-113294D01*
X462851Y-113507D01*
X462669Y-113554D01*
X462000Y-113466D01*
X461272Y-113561D01*
X460594Y-113842D01*
X460012Y-114289D01*
X459565Y-114872D01*
X459284Y-115550D01*
X459189Y-116277D01*
X459284Y-117005D01*
X459565Y-117683D01*
X460012Y-118265D01*
X460594Y-118712D01*
X461272Y-118993D01*
X462000Y-119089D01*
X462669Y-119000D01*
X462851Y-119048D01*
X463169Y-119260D01*
Y-119509D01*
X481437D01*
Y-112935D01*
D02*
G37*
G36*
X501161Y-32935D02*
X482894D01*
Y-39509D01*
X501161D01*
Y-39462D01*
X501661Y-39044D01*
X502000Y-39089D01*
X502728Y-38993D01*
X502821Y-38954D01*
X528687Y-64821D01*
Y-115304D01*
X528594Y-115342D01*
X528012Y-115789D01*
X527565Y-116372D01*
X527284Y-117050D01*
X526813Y-116943D01*
Y-69777D01*
X526713Y-69275D01*
X526428Y-68849D01*
X504677Y-47098D01*
X504715Y-47005D01*
X504811Y-46277D01*
X504715Y-45549D01*
X504435Y-44871D01*
X503988Y-44289D01*
X503406Y-43842D01*
X502728Y-43562D01*
X502000Y-43466D01*
X501661Y-43510D01*
X501161Y-43092D01*
Y-42935D01*
X482894D01*
Y-49510D01*
X501161D01*
Y-49462D01*
X501661Y-49044D01*
X502000Y-49089D01*
X502728Y-48993D01*
X502821Y-48954D01*
X524187Y-70321D01*
Y-119304D01*
X524094Y-119342D01*
X523512Y-119789D01*
X523065Y-120371D01*
X522784Y-121049D01*
X522312Y-120943D01*
Y-74277D01*
X522213Y-73775D01*
X521928Y-73349D01*
X504805Y-56226D01*
X504715Y-55550D01*
X504435Y-54871D01*
X503988Y-54289D01*
X503406Y-53842D01*
X502728Y-53562D01*
X502000Y-53466D01*
X501661Y-53510D01*
X501161Y-53092D01*
Y-52935D01*
X482894D01*
Y-59509D01*
X501161D01*
Y-59462D01*
X501661Y-59044D01*
X502000Y-59089D01*
X502728Y-58993D01*
X503406Y-58712D01*
X503503Y-58637D01*
X519687Y-74821D01*
Y-123785D01*
X519609Y-123836D01*
X519594Y-123842D01*
X519562Y-123867D01*
X519288Y-124046D01*
X518813Y-123812D01*
Y-80777D01*
X518713Y-80275D01*
X518428Y-79849D01*
X504805Y-66225D01*
X504715Y-65549D01*
X504435Y-64872D01*
X503988Y-64289D01*
X503406Y-63842D01*
X502728Y-63561D01*
X502000Y-63466D01*
X501661Y-63510D01*
X501161Y-63092D01*
Y-62935D01*
X482894D01*
Y-69510D01*
X501161D01*
Y-69462D01*
X501661Y-69044D01*
X502000Y-69089D01*
X502728Y-68993D01*
X503406Y-68712D01*
X503503Y-68637D01*
X516187Y-81321D01*
Y-128785D01*
X516110Y-128836D01*
X516094Y-128842D01*
X516062Y-128867D01*
X515788Y-129046D01*
X515312Y-128812D01*
Y-86277D01*
X515213Y-85775D01*
X514928Y-85349D01*
X504928Y-75349D01*
X504519Y-75076D01*
X504435Y-74871D01*
X503988Y-74289D01*
X503406Y-73842D01*
X502728Y-73562D01*
X502000Y-73466D01*
X501661Y-73510D01*
X501161Y-73092D01*
Y-72935D01*
X482894D01*
Y-79510D01*
X501161D01*
Y-79462D01*
X501661Y-79044D01*
X502000Y-79089D01*
X502728Y-78993D01*
X503406Y-78712D01*
X503988Y-78265D01*
X504123Y-78256D01*
X512687Y-86821D01*
Y-133304D01*
X512594Y-133342D01*
X512012Y-133789D01*
X511565Y-134371D01*
X511284Y-135049D01*
X511189Y-135777D01*
X511284Y-136505D01*
X511565Y-137183D01*
X512012Y-137765D01*
X512594Y-138212D01*
X513272Y-138493D01*
X514000Y-138589D01*
X514728Y-138493D01*
X515406Y-138212D01*
X515988Y-137765D01*
X516435Y-137183D01*
X516715Y-136505D01*
X516811Y-135777D01*
X516715Y-135049D01*
X516446Y-134399D01*
X516489Y-134310D01*
X516766Y-134000D01*
X516775Y-133993D01*
X517500Y-134089D01*
X518228Y-133993D01*
X518906Y-133712D01*
X519488Y-133265D01*
X519935Y-132683D01*
X520216Y-132005D01*
X520311Y-131277D01*
X520216Y-130550D01*
X519935Y-129871D01*
X519488Y-129289D01*
X519232Y-129093D01*
X519235Y-129067D01*
X519331Y-128972D01*
X519765Y-128783D01*
X520272Y-128993D01*
X521000Y-129089D01*
X521728Y-128993D01*
X522406Y-128712D01*
X522988Y-128265D01*
X523435Y-127683D01*
X523715Y-127005D01*
X523811Y-126277D01*
X523715Y-125549D01*
X523435Y-124872D01*
X522988Y-124289D01*
X522406Y-123842D01*
X522312Y-123804D01*
Y-122612D01*
X522784Y-122505D01*
X523065Y-123183D01*
X523512Y-123765D01*
X524094Y-124212D01*
X524772Y-124493D01*
X525500Y-124589D01*
X526228Y-124493D01*
X526906Y-124212D01*
X527488Y-123765D01*
X527935Y-123183D01*
X528216Y-122505D01*
X528311Y-121777D01*
X528216Y-121049D01*
X527935Y-120371D01*
X527869Y-120286D01*
X528226Y-119929D01*
X528594Y-120212D01*
X529272Y-120493D01*
X530000Y-120589D01*
X530728Y-120493D01*
X531406Y-120212D01*
X531988Y-119765D01*
X532435Y-119183D01*
X532473Y-119090D01*
X533464D01*
X546792Y-132418D01*
X546473Y-133190D01*
X546330Y-134269D01*
X546473Y-135348D01*
X546889Y-136354D01*
X547552Y-137218D01*
X548415Y-137880D01*
X549421Y-138297D01*
X550500Y-138439D01*
X551579Y-138297D01*
X552585Y-137880D01*
X553448Y-137218D01*
X554111Y-136354D01*
X554527Y-135348D01*
X554669Y-134269D01*
X554527Y-133190D01*
X554111Y-132185D01*
X553448Y-131321D01*
X552585Y-130658D01*
X551579Y-130242D01*
X550500Y-130100D01*
X549421Y-130242D01*
X548649Y-130562D01*
X534936Y-116849D01*
X534510Y-116565D01*
X534008Y-116465D01*
X532473D01*
X532435Y-116372D01*
X531988Y-115789D01*
X531406Y-115342D01*
X531313Y-115304D01*
Y-112599D01*
X531775Y-112408D01*
X544564Y-125198D01*
X544990Y-125482D01*
X545492Y-125582D01*
X546569D01*
X546889Y-126354D01*
X547552Y-127218D01*
X548415Y-127880D01*
X549421Y-128297D01*
X550500Y-128439D01*
X551579Y-128297D01*
X552585Y-127880D01*
X553448Y-127218D01*
X554111Y-126354D01*
X554527Y-125348D01*
X554669Y-124269D01*
X554527Y-123190D01*
X554111Y-122185D01*
X553448Y-121321D01*
X552659Y-120716D01*
X552692Y-120432D01*
X552795Y-120216D01*
X558205D01*
X558307Y-120432D01*
X558340Y-120716D01*
X557552Y-121321D01*
X556889Y-122185D01*
X556472Y-123190D01*
X556330Y-124269D01*
X556472Y-125348D01*
X556889Y-126354D01*
X557552Y-127218D01*
X558415Y-127880D01*
X559421Y-128297D01*
X560500Y-128439D01*
X561579Y-128297D01*
X562585Y-127880D01*
X563448Y-127218D01*
X564111Y-126354D01*
X564527Y-125348D01*
X564669Y-124269D01*
X564527Y-123190D01*
X564111Y-122185D01*
X563448Y-121321D01*
X562659Y-120716D01*
X562692Y-120432D01*
X562795Y-120216D01*
X564582D01*
X566687Y-122321D01*
Y-146226D01*
X562351Y-150562D01*
X561579Y-150242D01*
X560500Y-150100D01*
X559421Y-150242D01*
X558415Y-150658D01*
X557552Y-151321D01*
X556889Y-152184D01*
X556472Y-153190D01*
X556330Y-154269D01*
X556472Y-155349D01*
X556889Y-156354D01*
X557552Y-157218D01*
X558415Y-157880D01*
X559421Y-158297D01*
X560500Y-158439D01*
X561579Y-158297D01*
X562585Y-157880D01*
X563448Y-157218D01*
X564111Y-156354D01*
X564527Y-155349D01*
X564669Y-154269D01*
X564527Y-153190D01*
X564208Y-152418D01*
X568928Y-147698D01*
X569213Y-147272D01*
X569312Y-146769D01*
Y-121777D01*
X569213Y-121275D01*
X568928Y-120849D01*
X566054Y-117975D01*
X565628Y-117691D01*
X565126Y-117590D01*
X563726D01*
X563546Y-117090D01*
X564111Y-116354D01*
X564527Y-115348D01*
X564669Y-114269D01*
X564527Y-113190D01*
X564111Y-112185D01*
X563448Y-111321D01*
X562585Y-110658D01*
X561579Y-110242D01*
X560500Y-110100D01*
X559421Y-110242D01*
X558649Y-110562D01*
X556345Y-108257D01*
X555919Y-107973D01*
X555416Y-107873D01*
X553372D01*
X553211Y-107400D01*
X553448Y-107218D01*
X554111Y-106354D01*
X554527Y-105349D01*
X554669Y-104269D01*
X554527Y-103190D01*
X554111Y-102185D01*
X553448Y-101321D01*
X553375Y-101265D01*
X553536Y-100791D01*
X555166D01*
X556792Y-102418D01*
X556472Y-103190D01*
X556330Y-104269D01*
X556472Y-105349D01*
X556889Y-106354D01*
X557552Y-107218D01*
X558415Y-107880D01*
X559421Y-108297D01*
X560500Y-108439D01*
X561579Y-108297D01*
X562585Y-107880D01*
X563448Y-107218D01*
X564111Y-106354D01*
X564527Y-105349D01*
X564669Y-104269D01*
X564527Y-103190D01*
X564111Y-102185D01*
X563448Y-101321D01*
X562585Y-100658D01*
X561579Y-100242D01*
X560500Y-100100D01*
X559421Y-100242D01*
X558649Y-100562D01*
X556637Y-98550D01*
X556212Y-98266D01*
X555709Y-98166D01*
X553034D01*
X552864Y-97666D01*
X553448Y-97218D01*
X554111Y-96354D01*
X554527Y-95349D01*
X554669Y-94269D01*
X554527Y-93190D01*
X554111Y-92185D01*
X553448Y-91321D01*
X552659Y-90716D01*
X552692Y-90432D01*
X552795Y-90216D01*
X554590D01*
X556792Y-92418D01*
X556472Y-93190D01*
X556330Y-94269D01*
X556472Y-95349D01*
X556889Y-96354D01*
X557552Y-97218D01*
X558415Y-97880D01*
X559421Y-98297D01*
X560500Y-98439D01*
X561579Y-98297D01*
X562585Y-97880D01*
X563448Y-97218D01*
X564111Y-96354D01*
X564527Y-95349D01*
X564669Y-94269D01*
X564527Y-93190D01*
X564111Y-92185D01*
X563448Y-91321D01*
X562585Y-90658D01*
X561579Y-90242D01*
X560500Y-90100D01*
X559421Y-90242D01*
X558649Y-90562D01*
X556062Y-87975D01*
X555636Y-87690D01*
X555134Y-87590D01*
X553726D01*
X553546Y-87090D01*
X554111Y-86354D01*
X554527Y-85348D01*
X554669Y-84269D01*
X554527Y-83190D01*
X554111Y-82185D01*
X553448Y-81321D01*
X553147Y-81090D01*
X553317Y-80590D01*
X554964D01*
X556792Y-82418D01*
X556472Y-83190D01*
X556330Y-84269D01*
X556472Y-85348D01*
X556889Y-86354D01*
X557552Y-87218D01*
X558415Y-87880D01*
X559421Y-88297D01*
X560500Y-88439D01*
X561579Y-88297D01*
X562585Y-87880D01*
X563448Y-87218D01*
X564111Y-86354D01*
X564527Y-85348D01*
X564669Y-84269D01*
X564527Y-83190D01*
X564111Y-82185D01*
X563448Y-81321D01*
X562585Y-80658D01*
X561579Y-80242D01*
X560500Y-80100D01*
X559421Y-80242D01*
X558649Y-80562D01*
X556436Y-78349D01*
X556010Y-78065D01*
X555508Y-77965D01*
X553296D01*
X553126Y-77465D01*
X553448Y-77218D01*
X554111Y-76354D01*
X554527Y-75349D01*
X554669Y-74269D01*
X554527Y-73190D01*
X554111Y-72185D01*
X553448Y-71321D01*
X552585Y-70658D01*
X551579Y-70242D01*
X550500Y-70100D01*
X549421Y-70242D01*
X548415Y-70658D01*
X547552Y-71321D01*
X546962Y-72089D01*
X546565Y-72013D01*
X546462Y-71958D01*
Y-66580D01*
X546565Y-66526D01*
X546962Y-66449D01*
X547552Y-67218D01*
X548415Y-67880D01*
X549421Y-68297D01*
X550500Y-68439D01*
X551579Y-68297D01*
X552585Y-67880D01*
X553448Y-67218D01*
X554111Y-66354D01*
X554527Y-65349D01*
X554669Y-64269D01*
X554527Y-63190D01*
X554111Y-62185D01*
X553448Y-61321D01*
X552585Y-60658D01*
X551579Y-60242D01*
X550500Y-60100D01*
X549421Y-60242D01*
X548415Y-60658D01*
X547552Y-61321D01*
X546962Y-62089D01*
X546565Y-62013D01*
X546462Y-61958D01*
Y-56581D01*
X546565Y-56526D01*
X546962Y-56449D01*
X547552Y-57218D01*
X548415Y-57880D01*
X549421Y-58297D01*
X550500Y-58439D01*
X551579Y-58297D01*
X552585Y-57880D01*
X553448Y-57218D01*
X554111Y-56354D01*
X554527Y-55348D01*
X554669Y-54269D01*
X554527Y-53190D01*
X554111Y-52185D01*
X553448Y-51321D01*
X552585Y-50658D01*
X551579Y-50242D01*
X550500Y-50100D01*
X549421Y-50242D01*
X548415Y-50658D01*
X547552Y-51321D01*
X546962Y-52089D01*
X546565Y-52013D01*
X546462Y-51958D01*
Y-47577D01*
X546362Y-47075D01*
X546078Y-46649D01*
X545486Y-46058D01*
X545716Y-45505D01*
X545811Y-44777D01*
X545716Y-44050D01*
X545435Y-43371D01*
X544988Y-42789D01*
X544406Y-42342D01*
X543728Y-42061D01*
X543000Y-41966D01*
X542272Y-42061D01*
X541594Y-42342D01*
X541012Y-42789D01*
X540565Y-43371D01*
X540284Y-44050D01*
X540189Y-44777D01*
X540225Y-45057D01*
X539780Y-45503D01*
X539500Y-45466D01*
X538772Y-45562D01*
X538122Y-45831D01*
X538033Y-45788D01*
X537723Y-45511D01*
X537716Y-45502D01*
X537811Y-44777D01*
X537715Y-44050D01*
X537435Y-43371D01*
X536988Y-42789D01*
X536406Y-42342D01*
X535728Y-42061D01*
X535000Y-41966D01*
X534272Y-42061D01*
X533594Y-42342D01*
X533012Y-42789D01*
X532565Y-43371D01*
X532284Y-44050D01*
X532189Y-44777D01*
X532284Y-45505D01*
X532565Y-46183D01*
X533012Y-46765D01*
X533482Y-47126D01*
X533229Y-47562D01*
X533228Y-47561D01*
X532500Y-47466D01*
X531772Y-47561D01*
X531094Y-47842D01*
X530813Y-48059D01*
X530312Y-47812D01*
Y-46251D01*
X530406Y-46212D01*
X530988Y-45765D01*
X531435Y-45183D01*
X531715Y-44505D01*
X531811Y-43777D01*
X531715Y-43049D01*
X531435Y-42371D01*
X530988Y-41789D01*
X530406Y-41342D01*
X529728Y-41061D01*
X529000Y-40966D01*
X528272Y-41061D01*
X527594Y-41342D01*
X527012Y-41789D01*
X526922Y-41906D01*
X526377Y-41796D01*
X525988Y-41289D01*
X525406Y-40842D01*
X524728Y-40562D01*
X524000Y-40466D01*
X523272Y-40562D01*
X522594Y-40842D01*
X522012Y-41289D01*
X521922Y-41406D01*
X521377Y-41296D01*
X520988Y-40789D01*
X520406Y-40342D01*
X519728Y-40062D01*
X519000Y-39966D01*
X518272Y-40062D01*
X517594Y-40342D01*
X517116Y-40709D01*
X516720Y-40674D01*
X516529Y-40598D01*
X516435Y-40371D01*
X515988Y-39789D01*
X515406Y-39342D01*
X514728Y-39061D01*
X514000Y-38966D01*
X513272Y-39061D01*
X512594Y-39342D01*
X512012Y-39789D01*
X511565Y-40371D01*
X511284Y-41050D01*
X511189Y-41777D01*
X511284Y-42505D01*
X511565Y-43183D01*
X511844Y-43547D01*
X511882Y-43596D01*
X511506Y-43926D01*
X511497Y-43918D01*
X504677Y-37098D01*
X504715Y-37005D01*
X504811Y-36277D01*
X504715Y-35550D01*
X504435Y-34871D01*
X503988Y-34289D01*
X503406Y-33842D01*
X502728Y-33562D01*
X502000Y-33466D01*
X501661Y-33510D01*
X501161Y-33092D01*
Y-32935D01*
D02*
G37*
G36*
Y-112935D02*
X482894D01*
Y-119509D01*
X501161D01*
Y-119462D01*
X501661Y-119044D01*
X502000Y-119089D01*
X502728Y-118993D01*
X503406Y-118712D01*
X503988Y-118265D01*
X504435Y-117683D01*
X504715Y-117005D01*
X504811Y-116277D01*
X504715Y-115550D01*
X504435Y-114872D01*
X503988Y-114289D01*
X503406Y-113842D01*
X502728Y-113561D01*
X502000Y-113466D01*
X501661Y-113510D01*
X501161Y-113092D01*
Y-112935D01*
D02*
G37*
G36*
X481437Y-122935D02*
X463169D01*
Y-123294D01*
X462851Y-123507D01*
X462669Y-123554D01*
X462000Y-123466D01*
X461272Y-123562D01*
X460594Y-123842D01*
X460012Y-124289D01*
X459565Y-124872D01*
X459284Y-125549D01*
X459189Y-126277D01*
X459284Y-127005D01*
X459565Y-127683D01*
X460012Y-128265D01*
X460594Y-128712D01*
X461272Y-128993D01*
X462000Y-129089D01*
X462669Y-129000D01*
X462851Y-129048D01*
X463169Y-129260D01*
Y-129509D01*
X481437D01*
Y-122935D01*
D02*
G37*
G36*
X189256Y-112474D02*
X177839D01*
Y-123891D01*
X189256D01*
Y-112474D01*
D02*
G37*
G36*
X141224D02*
X129807D01*
Y-123891D01*
X141224D01*
Y-112474D01*
D02*
G37*
G36*
X347571Y-121222D02*
Y-124474D01*
X350823D01*
X350805Y-124339D01*
X350367Y-123282D01*
X349671Y-122374D01*
X348763Y-121677D01*
X347705Y-121239D01*
X347571Y-121222D01*
D02*
G37*
G36*
X345571Y-121222D02*
X345436Y-121239D01*
X344379Y-121677D01*
X343471Y-122374D01*
X342774Y-123282D01*
X342336Y-124339D01*
X342319Y-124474D01*
X345571D01*
Y-121222D01*
D02*
G37*
G36*
X119807Y-110899D02*
X108390D01*
Y-126254D01*
X119807D01*
Y-110899D01*
D02*
G37*
G36*
X88311D02*
X76894D01*
Y-126254D01*
X88311D01*
Y-110899D01*
D02*
G37*
G36*
X59965D02*
X48547D01*
Y-126254D01*
X59965D01*
Y-110899D01*
D02*
G37*
G36*
X28468D02*
X17051D01*
Y-126254D01*
X28468D01*
Y-110899D01*
D02*
G37*
G36*
X501161Y-122935D02*
X482894D01*
Y-129509D01*
X501161D01*
Y-129462D01*
X501661Y-129044D01*
X502000Y-129089D01*
X502728Y-128993D01*
X503406Y-128712D01*
X503988Y-128265D01*
X504435Y-127683D01*
X504715Y-127005D01*
X504811Y-126277D01*
X504715Y-125549D01*
X504435Y-124872D01*
X503988Y-124289D01*
X503406Y-123842D01*
X502728Y-123562D01*
X502000Y-123466D01*
X501661Y-123510D01*
X501161Y-123092D01*
Y-122935D01*
D02*
G37*
G36*
X360705Y-121340D02*
X352437D01*
Y-129608D01*
X360705D01*
Y-121340D01*
D02*
G37*
G36*
X345571Y-126474D02*
X342319D01*
X342336Y-126609D01*
X342774Y-127666D01*
X343471Y-128574D01*
X344379Y-129271D01*
X345436Y-129709D01*
X345571Y-129726D01*
Y-126474D01*
D02*
G37*
G36*
X350823D02*
X347571D01*
Y-129726D01*
X347705Y-129709D01*
X348763Y-129271D01*
X349671Y-128574D01*
X350367Y-127666D01*
X350805Y-126609D01*
X350823Y-126474D01*
D02*
G37*
G36*
X164874Y-66281D02*
X157787D01*
Y-71793D01*
X164874D01*
Y-70350D01*
X167358D01*
X167358Y-72850D01*
X167146Y-73261D01*
X167146Y-73492D01*
Y-75624D01*
X174854D01*
X174854Y-73261D01*
X174642Y-72850D01*
X174642Y-71243D01*
X382110D01*
X440620Y-129754D01*
X440582Y-129847D01*
X440486Y-130575D01*
X440582Y-131302D01*
X440863Y-131980D01*
X441309Y-132563D01*
X441892Y-133010D01*
X442570Y-133290D01*
X443297Y-133386D01*
X444025Y-133290D01*
X444703Y-133010D01*
X445285Y-132563D01*
X445732Y-131980D01*
X446013Y-131302D01*
X446109Y-130575D01*
X446013Y-129847D01*
X445732Y-129169D01*
X445285Y-128587D01*
X444703Y-128140D01*
X444025Y-127859D01*
X443297Y-127763D01*
X442570Y-127859D01*
X442477Y-127898D01*
X383582Y-69003D01*
X383156Y-68718D01*
X382653Y-68618D01*
X174642D01*
Y-66781D01*
X167358D01*
Y-67724D01*
X164874D01*
Y-66281D01*
D02*
G37*
G36*
X560500Y-130100D02*
X559421Y-130242D01*
X558415Y-130658D01*
X557552Y-131321D01*
X556889Y-132185D01*
X556472Y-133190D01*
X556330Y-134269D01*
X556472Y-135348D01*
X556889Y-136354D01*
X557552Y-137218D01*
X558415Y-137880D01*
X559421Y-138297D01*
X560500Y-138439D01*
X561579Y-138297D01*
X562585Y-137880D01*
X563448Y-137218D01*
X564111Y-136354D01*
X564527Y-135348D01*
X564669Y-134269D01*
X564527Y-133190D01*
X564111Y-132185D01*
X563448Y-131321D01*
X562585Y-130658D01*
X561579Y-130242D01*
X560500Y-130100D01*
D02*
G37*
G36*
X501161Y-132935D02*
X482894D01*
Y-139509D01*
X501161D01*
Y-139462D01*
X501661Y-139044D01*
X502000Y-139089D01*
X502728Y-138993D01*
X503406Y-138712D01*
X503988Y-138265D01*
X504435Y-137683D01*
X504715Y-137005D01*
X504811Y-136277D01*
X504715Y-135549D01*
X504435Y-134871D01*
X503988Y-134289D01*
X503406Y-133842D01*
X502728Y-133562D01*
X502000Y-133466D01*
X501661Y-133510D01*
X501161Y-133092D01*
Y-132935D01*
D02*
G37*
G36*
X346571Y-131305D02*
X345492Y-131447D01*
X344486Y-131863D01*
X343622Y-132526D01*
X342960Y-133389D01*
X342543Y-134395D01*
X342401Y-135474D01*
X342543Y-136553D01*
X342960Y-137559D01*
X343622Y-138422D01*
X344486Y-139085D01*
X345492Y-139502D01*
X346571Y-139644D01*
X347650Y-139502D01*
X348656Y-139085D01*
X349519Y-138422D01*
X350182Y-137559D01*
X350598Y-136553D01*
X350740Y-135474D01*
X350598Y-134395D01*
X350182Y-133389D01*
X349519Y-132526D01*
X348656Y-131863D01*
X347650Y-131447D01*
X346571Y-131305D01*
D02*
G37*
G36*
X158138Y-143335D02*
X157849Y-143373D01*
X156648Y-143870D01*
X155617Y-144662D01*
X154825Y-145693D01*
X154328Y-146894D01*
X154283Y-147237D01*
X153778D01*
X153741Y-146949D01*
X153264Y-145800D01*
X152507Y-144813D01*
X151520Y-144056D01*
X150371Y-143580D01*
X149138Y-143418D01*
X147904Y-143580D01*
X146755Y-144056D01*
X145768Y-144813D01*
X145011Y-145800D01*
X144535Y-146949D01*
X144372Y-148183D01*
X144535Y-149416D01*
X145011Y-150565D01*
X145768Y-151552D01*
X146755Y-152310D01*
X147904Y-152786D01*
X149138Y-152948D01*
X150371Y-152786D01*
X151520Y-152310D01*
X152507Y-151552D01*
X153264Y-150565D01*
X153741Y-149416D01*
X153778Y-149129D01*
X154283D01*
X154328Y-149471D01*
X154825Y-150672D01*
X155617Y-151704D01*
X156648Y-152495D01*
X157849Y-152993D01*
X158138Y-153031D01*
Y-148183D01*
Y-143335D01*
D02*
G37*
G36*
X560500Y-140100D02*
X559421Y-140242D01*
X558415Y-140658D01*
X557552Y-141321D01*
X556889Y-142184D01*
X556472Y-143190D01*
X556330Y-144269D01*
X556472Y-145349D01*
X556889Y-146354D01*
X557552Y-147218D01*
X558415Y-147880D01*
X559421Y-148297D01*
X560500Y-148439D01*
X561579Y-148297D01*
X562585Y-147880D01*
X563448Y-147218D01*
X564111Y-146354D01*
X564527Y-145349D01*
X564669Y-144269D01*
X564527Y-143190D01*
X564111Y-142184D01*
X563448Y-141321D01*
X562585Y-140658D01*
X561579Y-140242D01*
X560500Y-140100D01*
D02*
G37*
G36*
X550500D02*
X549421Y-140242D01*
X548415Y-140658D01*
X547552Y-141321D01*
X546889Y-142184D01*
X546473Y-143190D01*
X546330Y-144269D01*
X546473Y-145349D01*
X546889Y-146354D01*
X547552Y-147218D01*
X548415Y-147880D01*
X549421Y-148297D01*
X550500Y-148439D01*
X551579Y-148297D01*
X552585Y-147880D01*
X553448Y-147218D01*
X554111Y-146354D01*
X554527Y-145349D01*
X554669Y-144269D01*
X554527Y-143190D01*
X554111Y-142184D01*
X553448Y-141321D01*
X552585Y-140658D01*
X551579Y-140242D01*
X550500Y-140100D01*
D02*
G37*
G36*
X501161Y-142935D02*
X482894D01*
X482894Y-149137D01*
Y-149165D01*
Y-149165D01*
X482894Y-149200D01*
X482818Y-149232D01*
X482394Y-149408D01*
X481437Y-148451D01*
Y-142935D01*
X463169D01*
Y-149510D01*
X477386D01*
X480137Y-152260D01*
X479946Y-152722D01*
X473303D01*
Y-155222D01*
X481649D01*
Y-154426D01*
X482111Y-154235D01*
X482894Y-155017D01*
Y-158136D01*
X482111Y-158918D01*
X481649Y-158727D01*
Y-157222D01*
X472303D01*
X462956D01*
Y-159494D01*
X453034D01*
X452343Y-159632D01*
X451757Y-160024D01*
X445791Y-165989D01*
X445564Y-165960D01*
X444836Y-166055D01*
X444158Y-166336D01*
X443576Y-166783D01*
X443129Y-167365D01*
X442848Y-168043D01*
X442753Y-168771D01*
X442848Y-169499D01*
X443129Y-170177D01*
X443576Y-170759D01*
X444158Y-171206D01*
X444836Y-171487D01*
X445564Y-171582D01*
X446292Y-171487D01*
X446970Y-171206D01*
X447552Y-170759D01*
X447999Y-170177D01*
X448280Y-169499D01*
X448376Y-168771D01*
X448346Y-168544D01*
X453782Y-163107D01*
X462956D01*
Y-165222D01*
X472303D01*
X481649D01*
Y-163107D01*
X482283D01*
X482283Y-163107D01*
X482681Y-163526D01*
Y-165222D01*
X491027D01*
Y-162722D01*
X484124D01*
X483917Y-162222D01*
X486629Y-159510D01*
X501161D01*
Y-152935D01*
X485921D01*
X482996Y-150010D01*
X483203Y-149510D01*
X483238Y-149510D01*
Y-149510D01*
X483265Y-149510D01*
X501161D01*
Y-149190D01*
X501577Y-148912D01*
X501772Y-148993D01*
X502500Y-149089D01*
X503228Y-148993D01*
X503906Y-148712D01*
X504488Y-148265D01*
X504935Y-147683D01*
X505216Y-147005D01*
X505311Y-146277D01*
X505216Y-145549D01*
X504935Y-144871D01*
X504488Y-144289D01*
X503906Y-143842D01*
X503228Y-143561D01*
X502500Y-143466D01*
X501772Y-143561D01*
X501577Y-143642D01*
X501161Y-143365D01*
Y-142935D01*
D02*
G37*
G36*
X356571Y-141305D02*
X355492Y-141447D01*
X354486Y-141863D01*
X353623Y-142526D01*
X352960Y-143389D01*
X352543Y-144395D01*
X352401Y-145474D01*
X352543Y-146553D01*
X352960Y-147559D01*
X353623Y-148422D01*
X354486Y-149085D01*
X355492Y-149502D01*
X356571Y-149644D01*
X357650Y-149502D01*
X358656Y-149085D01*
X359519Y-148422D01*
X360182Y-147559D01*
X360598Y-146553D01*
X360740Y-145474D01*
X360598Y-144395D01*
X360182Y-143389D01*
X359519Y-142526D01*
X358656Y-141863D01*
X357650Y-141447D01*
X356571Y-141305D01*
D02*
G37*
G36*
X346571D02*
X345492Y-141447D01*
X344486Y-141863D01*
X343622Y-142526D01*
X342960Y-143389D01*
X342543Y-144395D01*
X342401Y-145474D01*
X342543Y-146553D01*
X342960Y-147559D01*
X343622Y-148422D01*
X344486Y-149085D01*
X345492Y-149502D01*
X346571Y-149644D01*
X347650Y-149502D01*
X348656Y-149085D01*
X349519Y-148422D01*
X350182Y-147559D01*
X350598Y-146553D01*
X350740Y-145474D01*
X350598Y-144395D01*
X350182Y-143389D01*
X349519Y-142526D01*
X348656Y-141863D01*
X347650Y-141447D01*
X346571Y-141305D01*
D02*
G37*
G36*
X160138Y-143335D02*
Y-148183D01*
Y-153031D01*
X160426Y-152993D01*
X161627Y-152495D01*
X162659Y-151704D01*
X163450Y-150672D01*
X163948Y-149471D01*
X163993Y-149129D01*
X164497D01*
X164535Y-149416D01*
X165011Y-150565D01*
X165768Y-151552D01*
X166755Y-152310D01*
X167904Y-152786D01*
X169138Y-152948D01*
X170371Y-152786D01*
X171520Y-152310D01*
X172507Y-151552D01*
X173265Y-150565D01*
X173740Y-149416D01*
X173903Y-148183D01*
X173740Y-146949D01*
X173265Y-145800D01*
X172507Y-144813D01*
X171520Y-144056D01*
X170371Y-143580D01*
X169138Y-143418D01*
X167904Y-143580D01*
X166755Y-144056D01*
X165768Y-144813D01*
X165011Y-145800D01*
X164535Y-146949D01*
X164497Y-147237D01*
X163993D01*
X163948Y-146894D01*
X163450Y-145693D01*
X162659Y-144662D01*
X161627Y-143870D01*
X160426Y-143373D01*
X160138Y-143335D01*
D02*
G37*
G36*
X356571Y-131305D02*
X355492Y-131447D01*
X354486Y-131863D01*
X353623Y-132526D01*
X352960Y-133389D01*
X352543Y-134395D01*
X352401Y-135474D01*
X352543Y-136553D01*
X352960Y-137559D01*
X353623Y-138422D01*
X354486Y-139085D01*
X355492Y-139502D01*
X356571Y-139644D01*
X357650Y-139502D01*
X358656Y-139085D01*
X359519Y-138422D01*
X360182Y-137559D01*
X360297Y-137280D01*
X361639D01*
X364194Y-139835D01*
Y-151416D01*
X361639Y-153971D01*
X360423D01*
X360182Y-153389D01*
X359519Y-152526D01*
X358656Y-151863D01*
X357650Y-151447D01*
X356571Y-151304D01*
X355492Y-151447D01*
X354486Y-151863D01*
X353623Y-152526D01*
X352960Y-153389D01*
X352543Y-154395D01*
X352401Y-155474D01*
X352543Y-156553D01*
X352960Y-157559D01*
X353048Y-157674D01*
X351723Y-159000D01*
X351331Y-159586D01*
X351193Y-160277D01*
Y-180150D01*
X351012Y-180289D01*
X350565Y-180871D01*
X350284Y-181550D01*
X350188Y-182277D01*
X350284Y-183005D01*
X350565Y-183683D01*
X351012Y-184265D01*
X351594Y-184712D01*
X352272Y-184993D01*
X353000Y-185089D01*
X353728Y-184993D01*
X354406Y-184712D01*
X354988Y-184265D01*
X355435Y-183683D01*
X355715Y-183005D01*
X355811Y-182277D01*
X355715Y-181550D01*
X355435Y-180871D01*
X354988Y-180289D01*
X354806Y-180150D01*
Y-161025D01*
X356233Y-159599D01*
X356571Y-159644D01*
X357650Y-159502D01*
X358656Y-159085D01*
X359519Y-158422D01*
X360163Y-157583D01*
X362387D01*
X363078Y-157446D01*
X363665Y-157054D01*
X367277Y-153442D01*
X367669Y-152856D01*
X367806Y-152164D01*
Y-139087D01*
X367669Y-138396D01*
X367277Y-137810D01*
X363665Y-134197D01*
X363078Y-133805D01*
X362387Y-133668D01*
X360297D01*
X360182Y-133389D01*
X359519Y-132526D01*
X358656Y-131863D01*
X357650Y-131447D01*
X356571Y-131305D01*
D02*
G37*
G36*
X471303Y-152722D02*
X462956D01*
Y-155222D01*
X471303D01*
Y-152722D01*
D02*
G37*
G36*
X550500Y-150100D02*
X549421Y-150242D01*
X548415Y-150658D01*
X547552Y-151321D01*
X546889Y-152184D01*
X546473Y-153190D01*
X546330Y-154269D01*
X546473Y-155349D01*
X546889Y-156354D01*
X547552Y-157218D01*
X548415Y-157880D01*
X549421Y-158297D01*
X550500Y-158439D01*
X551579Y-158297D01*
X552585Y-157880D01*
X553448Y-157218D01*
X554111Y-156354D01*
X554527Y-155349D01*
X554669Y-154269D01*
X554527Y-153190D01*
X554111Y-152184D01*
X553448Y-151321D01*
X552585Y-150658D01*
X551579Y-150242D01*
X550500Y-150100D01*
D02*
G37*
G36*
X346571Y-151304D02*
X345492Y-151447D01*
X344486Y-151863D01*
X343622Y-152526D01*
X342960Y-153389D01*
X342543Y-154395D01*
X342401Y-155474D01*
X342543Y-156553D01*
X342960Y-157559D01*
X343622Y-158422D01*
X344486Y-159085D01*
X345492Y-159502D01*
X346571Y-159644D01*
X347650Y-159502D01*
X348656Y-159085D01*
X349519Y-158422D01*
X350182Y-157559D01*
X350598Y-156553D01*
X350740Y-155474D01*
X350598Y-154395D01*
X350182Y-153389D01*
X349519Y-152526D01*
X348656Y-151863D01*
X347650Y-151447D01*
X346571Y-151304D01*
D02*
G37*
G36*
X247850Y-161596D02*
X243913D01*
Y-162777D01*
X247850D01*
Y-161596D01*
D02*
G37*
G36*
X241913D02*
X237976D01*
Y-162777D01*
X241913D01*
Y-161596D01*
D02*
G37*
G36*
X501374Y-162722D02*
X493027D01*
Y-165222D01*
X501374D01*
Y-162722D01*
D02*
G37*
G36*
X247850Y-164777D02*
X243913D01*
Y-165958D01*
X247850D01*
Y-164777D01*
D02*
G37*
G36*
X241913D02*
X237976D01*
Y-165958D01*
X241913D01*
Y-164777D01*
D02*
G37*
G36*
X560500Y-160100D02*
X559421Y-160242D01*
X558415Y-160658D01*
X557552Y-161321D01*
X556889Y-162185D01*
X556472Y-163190D01*
X556330Y-164269D01*
X556472Y-165348D01*
X556889Y-166354D01*
X557552Y-167218D01*
X558415Y-167880D01*
X559421Y-168297D01*
X560500Y-168439D01*
X561579Y-168297D01*
X562585Y-167880D01*
X563448Y-167218D01*
X564111Y-166354D01*
X564527Y-165348D01*
X564669Y-164269D01*
X564527Y-163190D01*
X564111Y-162185D01*
X563448Y-161321D01*
X562585Y-160658D01*
X561579Y-160242D01*
X560500Y-160100D01*
D02*
G37*
G36*
X550500D02*
X549421Y-160242D01*
X548415Y-160658D01*
X547552Y-161321D01*
X546889Y-162185D01*
X546473Y-163190D01*
X546330Y-164269D01*
X546473Y-165348D01*
X546889Y-166354D01*
X547552Y-167218D01*
X548415Y-167880D01*
X549421Y-168297D01*
X550500Y-168439D01*
X551579Y-168297D01*
X552585Y-167880D01*
X553448Y-167218D01*
X554111Y-166354D01*
X554527Y-165348D01*
X554669Y-164269D01*
X554527Y-163190D01*
X554111Y-162185D01*
X553448Y-161321D01*
X552585Y-160658D01*
X551579Y-160242D01*
X550500Y-160100D01*
D02*
G37*
G36*
X501374Y-167222D02*
X493027D01*
Y-169722D01*
X501374D01*
Y-167222D01*
D02*
G37*
G36*
X491027D02*
X482681D01*
Y-169722D01*
X491027D01*
Y-167222D01*
D02*
G37*
G36*
X481649Y-167222D02*
X473303D01*
Y-169722D01*
X481649D01*
Y-167222D01*
D02*
G37*
G36*
X471303D02*
X462956D01*
Y-169722D01*
X471303D01*
Y-167222D01*
D02*
G37*
G36*
X226378Y-166809D02*
X216929D01*
Y-167464D01*
X216500D01*
X215998Y-167564D01*
X215572Y-167849D01*
X203964Y-179457D01*
X101594D01*
X101092Y-179557D01*
X100666Y-179841D01*
X96694Y-183813D01*
X96675Y-183799D01*
X95430Y-183283D01*
X94094Y-183107D01*
X92758Y-183283D01*
X91513Y-183799D01*
X90444Y-184619D01*
X89624Y-185688D01*
X89108Y-186933D01*
X89099Y-187005D01*
X73622D01*
Y-183151D01*
X63386D01*
Y-193387D01*
X73622D01*
Y-189534D01*
X89099D01*
X89108Y-189605D01*
X89624Y-190850D01*
X90444Y-191920D01*
X91513Y-192740D01*
X92758Y-193256D01*
X94094Y-193432D01*
X95430Y-193256D01*
X96675Y-192740D01*
X97745Y-191920D01*
X98565Y-190850D01*
X99081Y-189605D01*
X99257Y-188269D01*
X99081Y-186933D01*
X98565Y-185688D01*
X98551Y-185669D01*
X102138Y-182082D01*
X145016D01*
X145208Y-182544D01*
X143938Y-183813D01*
X143920Y-183799D01*
X142675Y-183283D01*
X141338Y-183107D01*
X140002Y-183283D01*
X138757Y-183799D01*
X137688Y-184619D01*
X136868Y-185688D01*
X136352Y-186933D01*
X136343Y-187005D01*
X120866D01*
Y-183151D01*
X110630D01*
Y-193387D01*
X120866D01*
Y-189534D01*
X136343D01*
X136352Y-189605D01*
X136868Y-190850D01*
X137688Y-191920D01*
X138757Y-192740D01*
X140002Y-193256D01*
X141338Y-193432D01*
X142675Y-193256D01*
X143920Y-192740D01*
X144989Y-191920D01*
X145809Y-190850D01*
X146325Y-189605D01*
X146501Y-188269D01*
X146325Y-186933D01*
X145809Y-185688D01*
X145795Y-185669D01*
X147556Y-183908D01*
X157874D01*
Y-193387D01*
X168110D01*
Y-189534D01*
X183587D01*
X183596Y-189605D01*
X184112Y-190850D01*
X184932Y-191920D01*
X186002Y-192740D01*
X187247Y-193256D01*
X188583Y-193432D01*
X189919Y-193256D01*
X191164Y-192740D01*
X192233Y-191920D01*
X193053Y-190850D01*
X193569Y-189605D01*
X193572Y-189582D01*
X205563D01*
X206032Y-189489D01*
X206062Y-189511D01*
X206219Y-190009D01*
X200763Y-195465D01*
X60000D01*
X59498Y-195564D01*
X59072Y-195849D01*
X56228Y-198693D01*
X56090Y-198898D01*
X54451Y-200538D01*
X54308Y-200753D01*
X54177Y-200948D01*
X54177Y-200949D01*
X54177Y-200949D01*
X54130Y-201183D01*
X54081Y-201432D01*
Y-248148D01*
X50180Y-252049D01*
X41732D01*
Y-255902D01*
X26256D01*
X26246Y-255831D01*
X25730Y-254586D01*
X24910Y-253517D01*
X23841Y-252696D01*
X22596Y-252181D01*
X21260Y-252005D01*
X19924Y-252181D01*
X18679Y-252696D01*
X17609Y-253517D01*
X16789Y-254586D01*
X16273Y-255831D01*
X16097Y-257167D01*
X16273Y-258503D01*
X16789Y-259748D01*
X17609Y-260817D01*
X18679Y-261638D01*
X19924Y-262153D01*
X21260Y-262329D01*
X22596Y-262153D01*
X23841Y-261638D01*
X24910Y-260817D01*
X25730Y-259748D01*
X26246Y-258503D01*
X26256Y-258431D01*
X41732D01*
Y-262285D01*
X51968D01*
Y-253837D01*
X56239Y-249566D01*
X56513Y-249156D01*
X56610Y-248672D01*
Y-201956D01*
X57879Y-200687D01*
X58084Y-200550D01*
X60544Y-198090D01*
X200289D01*
X200480Y-198552D01*
X195072Y-203960D01*
X194787Y-204386D01*
X194687Y-204888D01*
Y-245585D01*
X191918Y-248354D01*
X101594D01*
X101092Y-248454D01*
X100666Y-248739D01*
X97356Y-252049D01*
X88976D01*
Y-255902D01*
X73500D01*
X73490Y-255831D01*
X72974Y-254586D01*
X72154Y-253517D01*
X71085Y-252696D01*
X69840Y-252181D01*
X68504Y-252005D01*
X67168Y-252181D01*
X65923Y-252696D01*
X64854Y-253517D01*
X64033Y-254586D01*
X63517Y-255831D01*
X63341Y-257167D01*
X63517Y-258503D01*
X64033Y-259748D01*
X64854Y-260817D01*
X65923Y-261638D01*
X67168Y-262153D01*
X68504Y-262329D01*
X69840Y-262153D01*
X71085Y-261638D01*
X72154Y-260817D01*
X72974Y-259748D01*
X73490Y-258503D01*
X73500Y-258431D01*
X88976D01*
Y-262285D01*
X99212D01*
Y-253905D01*
X102138Y-250979D01*
X145016D01*
X145208Y-251441D01*
X144600Y-252049D01*
X136220D01*
Y-255902D01*
X120744D01*
X120734Y-255831D01*
X120219Y-254586D01*
X119398Y-253517D01*
X118329Y-252696D01*
X117084Y-252181D01*
X115748Y-252005D01*
X114412Y-252181D01*
X113167Y-252696D01*
X112098Y-253517D01*
X111277Y-254586D01*
X110762Y-255831D01*
X110586Y-257167D01*
X110762Y-258503D01*
X111277Y-259748D01*
X112098Y-260817D01*
X113167Y-261638D01*
X114412Y-262153D01*
X115748Y-262329D01*
X117084Y-262153D01*
X118329Y-261638D01*
X119398Y-260817D01*
X120219Y-259748D01*
X120734Y-258503D01*
X120744Y-258431D01*
X136220D01*
Y-262285D01*
X146457D01*
Y-253905D01*
X147554Y-252808D01*
X159488D01*
X159648Y-253281D01*
X159342Y-253517D01*
X158521Y-254586D01*
X158006Y-255831D01*
X157830Y-257167D01*
X158006Y-258503D01*
X158521Y-259748D01*
X159342Y-260817D01*
X160411Y-261638D01*
X161656Y-262153D01*
X162992Y-262329D01*
X164328Y-262153D01*
X165573Y-261638D01*
X166642Y-260817D01*
X167463Y-259748D01*
X167978Y-258503D01*
X167988Y-258431D01*
X183465D01*
Y-262285D01*
X193701D01*
Y-258479D01*
X200997D01*
X201499Y-258380D01*
X201925Y-258095D01*
X205397Y-254624D01*
X205681Y-254198D01*
X205781Y-253695D01*
Y-203221D01*
X208912Y-200090D01*
X216929D01*
Y-200746D01*
X226378D01*
Y-196809D01*
X216929D01*
Y-197465D01*
X208515D01*
X208311Y-197092D01*
X208294Y-196979D01*
X210182Y-195090D01*
X216929D01*
Y-195746D01*
X226378D01*
Y-191809D01*
X216929D01*
Y-192464D01*
X210933D01*
X210742Y-192002D01*
X212655Y-190090D01*
X216929D01*
Y-190746D01*
X226378D01*
Y-186809D01*
X216929D01*
Y-187464D01*
X213129D01*
X212938Y-187003D01*
X214851Y-185090D01*
X216929D01*
Y-185746D01*
X226378D01*
Y-181809D01*
X216929D01*
Y-182465D01*
X214307D01*
X213838Y-182558D01*
X213808Y-182536D01*
X213650Y-182039D01*
X215599Y-180090D01*
X216929D01*
Y-180746D01*
X226378D01*
Y-176809D01*
X217417D01*
X217228Y-176809D01*
X216857Y-176381D01*
X216863Y-176271D01*
X217389Y-175746D01*
X226378D01*
Y-171809D01*
X216929D01*
Y-172611D01*
X216573Y-172849D01*
X208139Y-181283D01*
X206504D01*
X206313Y-180821D01*
X216546Y-170587D01*
X216929Y-170746D01*
Y-170746D01*
X226378D01*
Y-166809D01*
D02*
G37*
G36*
X560500Y-170100D02*
X559421Y-170242D01*
X558415Y-170658D01*
X557552Y-171321D01*
X556889Y-172185D01*
X556472Y-173190D01*
X556330Y-174269D01*
X556472Y-175348D01*
X556889Y-176354D01*
X557552Y-177218D01*
X558415Y-177880D01*
X559421Y-178297D01*
X560500Y-178439D01*
X561579Y-178297D01*
X562585Y-177880D01*
X563448Y-177218D01*
X564111Y-176354D01*
X564527Y-175348D01*
X564669Y-174269D01*
X564527Y-173190D01*
X564111Y-172185D01*
X563448Y-171321D01*
X562585Y-170658D01*
X561579Y-170242D01*
X560500Y-170100D01*
D02*
G37*
G36*
X550500D02*
X549421Y-170242D01*
X548415Y-170658D01*
X547552Y-171321D01*
X546889Y-172185D01*
X546473Y-173190D01*
X546330Y-174269D01*
X546473Y-175348D01*
X546889Y-176354D01*
X547552Y-177218D01*
X548415Y-177880D01*
X549421Y-178297D01*
X550500Y-178439D01*
X551579Y-178297D01*
X552585Y-177880D01*
X553448Y-177218D01*
X554111Y-176354D01*
X554527Y-175348D01*
X554669Y-174269D01*
X554527Y-173190D01*
X554111Y-172185D01*
X553448Y-171321D01*
X552585Y-170658D01*
X551579Y-170242D01*
X550500Y-170100D01*
D02*
G37*
G36*
X226378Y-161809D02*
X216929D01*
Y-162479D01*
X216498Y-162564D01*
X216072Y-162849D01*
X210425Y-168496D01*
X208849D01*
X208347Y-168595D01*
X207921Y-168880D01*
X204880Y-171921D01*
X202815D01*
X202312Y-172020D01*
X201887Y-172305D01*
X198357Y-175835D01*
X57972D01*
X57470Y-175935D01*
X57044Y-176219D01*
X49450Y-183813D01*
X49431Y-183799D01*
X48186Y-183283D01*
X46850Y-183107D01*
X45514Y-183283D01*
X44269Y-183799D01*
X43200Y-184619D01*
X42380Y-185688D01*
X41864Y-186933D01*
X41854Y-187005D01*
X26378D01*
Y-183151D01*
X16142D01*
Y-193387D01*
X26378D01*
Y-189534D01*
X41854D01*
X41864Y-189605D01*
X42380Y-190850D01*
X43200Y-191920D01*
X44269Y-192740D01*
X45514Y-193256D01*
X46850Y-193432D01*
X48186Y-193256D01*
X49431Y-192740D01*
X50501Y-191920D01*
X51321Y-190850D01*
X51837Y-189605D01*
X52012Y-188269D01*
X51837Y-186933D01*
X51321Y-185688D01*
X51306Y-185669D01*
X58516Y-178460D01*
X198901D01*
X199403Y-178360D01*
X199829Y-178076D01*
X203359Y-174546D01*
X205424D01*
X205926Y-174446D01*
X206352Y-174161D01*
X209392Y-171121D01*
X210969D01*
X211471Y-171021D01*
X211897Y-170736D01*
X216580Y-166053D01*
X216929Y-165746D01*
Y-165746D01*
X216929Y-165746D01*
X226378D01*
Y-161809D01*
D02*
G37*
G36*
X560500Y-180100D02*
X559421Y-180242D01*
X558415Y-180658D01*
X557552Y-181321D01*
X556889Y-182185D01*
X556472Y-183190D01*
X556330Y-184269D01*
X556472Y-185348D01*
X556889Y-186354D01*
X557552Y-187218D01*
X558415Y-187880D01*
X559421Y-188297D01*
X560500Y-188439D01*
X561579Y-188297D01*
X562585Y-187880D01*
X563448Y-187218D01*
X564111Y-186354D01*
X564527Y-185348D01*
X564669Y-184269D01*
X564527Y-183190D01*
X564111Y-182185D01*
X563448Y-181321D01*
X562585Y-180658D01*
X561579Y-180242D01*
X560500Y-180100D01*
D02*
G37*
G36*
X550500D02*
X549421Y-180242D01*
X548415Y-180658D01*
X547552Y-181321D01*
X546889Y-182185D01*
X546473Y-183190D01*
X546330Y-184269D01*
X546473Y-185348D01*
X546889Y-186354D01*
X547552Y-187218D01*
X548415Y-187880D01*
X549421Y-188297D01*
X550500Y-188439D01*
X551579Y-188297D01*
X552585Y-187880D01*
X553448Y-187218D01*
X554111Y-186354D01*
X554527Y-185348D01*
X554669Y-184269D01*
X554527Y-183190D01*
X554111Y-182185D01*
X553448Y-181321D01*
X552585Y-180658D01*
X551579Y-180242D01*
X550500Y-180100D01*
D02*
G37*
G36*
X560500Y-190100D02*
X559421Y-190242D01*
X558415Y-190658D01*
X557552Y-191321D01*
X556889Y-192184D01*
X556472Y-193190D01*
X556330Y-194269D01*
X556472Y-195349D01*
X556889Y-196354D01*
X557552Y-197218D01*
X558415Y-197880D01*
X559421Y-198297D01*
X560500Y-198439D01*
X561579Y-198297D01*
X562585Y-197880D01*
X563448Y-197218D01*
X564111Y-196354D01*
X564527Y-195349D01*
X564669Y-194269D01*
X564527Y-193190D01*
X564111Y-192184D01*
X563448Y-191321D01*
X562585Y-190658D01*
X561579Y-190242D01*
X560500Y-190100D01*
D02*
G37*
G36*
X550500D02*
X549421Y-190242D01*
X548415Y-190658D01*
X547552Y-191321D01*
X546889Y-192184D01*
X546473Y-193190D01*
X546330Y-194269D01*
X546473Y-195349D01*
X546889Y-196354D01*
X547552Y-197218D01*
X548415Y-197880D01*
X549421Y-198297D01*
X550500Y-198439D01*
X551579Y-198297D01*
X552585Y-197880D01*
X553448Y-197218D01*
X554111Y-196354D01*
X554527Y-195349D01*
X554669Y-194269D01*
X554527Y-193190D01*
X554111Y-192184D01*
X553448Y-191321D01*
X552585Y-190658D01*
X551579Y-190242D01*
X550500Y-190100D01*
D02*
G37*
G36*
X561500Y-200017D02*
Y-203269D01*
X564752D01*
X564735Y-203135D01*
X564296Y-202077D01*
X563600Y-201169D01*
X562692Y-200473D01*
X561635Y-200035D01*
X561500Y-200017D01*
D02*
G37*
G36*
X559500D02*
X559365Y-200035D01*
X558308Y-200473D01*
X557400Y-201169D01*
X556703Y-202077D01*
X556265Y-203135D01*
X556248Y-203269D01*
X559500D01*
Y-200017D01*
D02*
G37*
G36*
X551500D02*
Y-203269D01*
X554752D01*
X554735Y-203135D01*
X554296Y-202077D01*
X553600Y-201169D01*
X552692Y-200473D01*
X551635Y-200035D01*
X551500Y-200017D01*
D02*
G37*
G36*
X549500D02*
X549365Y-200035D01*
X548308Y-200473D01*
X547400Y-201169D01*
X546703Y-202077D01*
X546265Y-203135D01*
X546248Y-203269D01*
X549500D01*
Y-200017D01*
D02*
G37*
G36*
X189583Y-200741D02*
Y-204986D01*
X193828D01*
X193777Y-204594D01*
X193239Y-203297D01*
X192385Y-202184D01*
X191271Y-201329D01*
X189975Y-200792D01*
X189583Y-200741D01*
D02*
G37*
G36*
X187583D02*
X187191Y-200792D01*
X185895Y-201329D01*
X184781Y-202184D01*
X183927Y-203297D01*
X183389Y-204594D01*
X183338Y-204986D01*
X187583D01*
Y-200741D01*
D02*
G37*
G36*
X163992D02*
Y-204986D01*
X168237D01*
X168185Y-204594D01*
X167648Y-203297D01*
X166794Y-202184D01*
X165680Y-201329D01*
X164383Y-200792D01*
X163992Y-200741D01*
D02*
G37*
G36*
X161992D02*
X161600Y-200792D01*
X160303Y-201329D01*
X159190Y-202184D01*
X158335Y-203297D01*
X157798Y-204594D01*
X157747Y-204986D01*
X161992D01*
Y-200741D01*
D02*
G37*
G36*
X142339D02*
Y-204986D01*
X146584D01*
X146532Y-204594D01*
X145995Y-203297D01*
X145141Y-202184D01*
X144027Y-201329D01*
X142730Y-200792D01*
X142339Y-200741D01*
D02*
G37*
G36*
X140339D02*
X139947Y-200792D01*
X138650Y-201329D01*
X137537Y-202184D01*
X136682Y-203297D01*
X136145Y-204594D01*
X136094Y-204986D01*
X140339D01*
Y-200741D01*
D02*
G37*
G36*
X116748D02*
Y-204986D01*
X120993D01*
X120941Y-204594D01*
X120404Y-203297D01*
X119550Y-202184D01*
X118436Y-201329D01*
X117139Y-200792D01*
X116748Y-200741D01*
D02*
G37*
G36*
X114748D02*
X114356Y-200792D01*
X113059Y-201329D01*
X111946Y-202184D01*
X111091Y-203297D01*
X110554Y-204594D01*
X110503Y-204986D01*
X114748D01*
Y-200741D01*
D02*
G37*
G36*
X95095D02*
Y-204986D01*
X99340D01*
X99288Y-204594D01*
X98751Y-203297D01*
X97897Y-202184D01*
X96783Y-201329D01*
X95486Y-200792D01*
X95095Y-200741D01*
D02*
G37*
G36*
X93095D02*
X92703Y-200792D01*
X91406Y-201329D01*
X90293Y-202184D01*
X89438Y-203297D01*
X88901Y-204594D01*
X88850Y-204986D01*
X93095D01*
Y-200741D01*
D02*
G37*
G36*
X69503D02*
Y-204986D01*
X73748D01*
X73697Y-204594D01*
X73160Y-203297D01*
X72305Y-202184D01*
X71192Y-201329D01*
X69895Y-200792D01*
X69503Y-200741D01*
D02*
G37*
G36*
X67503D02*
X67112Y-200792D01*
X65815Y-201329D01*
X64701Y-202184D01*
X63847Y-203297D01*
X63310Y-204594D01*
X63258Y-204986D01*
X67503D01*
Y-200741D01*
D02*
G37*
G36*
X47851D02*
Y-204986D01*
X52096D01*
X52044Y-204594D01*
X51507Y-203297D01*
X50652Y-202184D01*
X49539Y-201329D01*
X48242Y-200792D01*
X47851Y-200741D01*
D02*
G37*
G36*
X45851D02*
X45459Y-200792D01*
X44162Y-201329D01*
X43049Y-202184D01*
X42194Y-203297D01*
X41657Y-204594D01*
X41605Y-204986D01*
X45851D01*
Y-200741D01*
D02*
G37*
G36*
X22259D02*
Y-204986D01*
X26504D01*
X26453Y-204594D01*
X25916Y-203297D01*
X25061Y-202184D01*
X23948Y-201329D01*
X22651Y-200792D01*
X22259Y-200741D01*
D02*
G37*
G36*
X20259D02*
X19868Y-200792D01*
X18571Y-201329D01*
X17458Y-202184D01*
X16603Y-203297D01*
X16066Y-204594D01*
X16014Y-204986D01*
X20259D01*
Y-200741D01*
D02*
G37*
G36*
X564752Y-205269D02*
X561500D01*
Y-208522D01*
X561635Y-208504D01*
X562692Y-208066D01*
X563600Y-207369D01*
X564296Y-206461D01*
X564735Y-205404D01*
X564752Y-205269D01*
D02*
G37*
G36*
X559500D02*
X556248D01*
X556265Y-205404D01*
X556703Y-206461D01*
X557400Y-207369D01*
X558308Y-208066D01*
X559365Y-208504D01*
X559500Y-208522D01*
Y-205269D01*
D02*
G37*
G36*
X554752D02*
X551500D01*
Y-208522D01*
X551635Y-208504D01*
X552692Y-208066D01*
X553600Y-207369D01*
X554296Y-206461D01*
X554735Y-205404D01*
X554752Y-205269D01*
D02*
G37*
G36*
X549500D02*
X546248D01*
X546265Y-205404D01*
X546703Y-206461D01*
X547400Y-207369D01*
X548308Y-208066D01*
X549365Y-208504D01*
X549500Y-208522D01*
Y-205269D01*
D02*
G37*
G36*
X193828Y-206986D02*
X189583D01*
Y-211231D01*
X189975Y-211179D01*
X191271Y-210642D01*
X192385Y-209788D01*
X193239Y-208674D01*
X193777Y-207378D01*
X193828Y-206986D01*
D02*
G37*
G36*
X187583D02*
X183338D01*
X183389Y-207378D01*
X183927Y-208674D01*
X184781Y-209788D01*
X185895Y-210642D01*
X187191Y-211179D01*
X187583Y-211231D01*
Y-206986D01*
D02*
G37*
G36*
X168237D02*
X163992D01*
Y-211231D01*
X164383Y-211179D01*
X165680Y-210642D01*
X166794Y-209788D01*
X167648Y-208674D01*
X168185Y-207378D01*
X168237Y-206986D01*
D02*
G37*
G36*
X161992D02*
X157747D01*
X157798Y-207378D01*
X158335Y-208674D01*
X159190Y-209788D01*
X160303Y-210642D01*
X161600Y-211179D01*
X161992Y-211231D01*
Y-206986D01*
D02*
G37*
G36*
X146584D02*
X142339D01*
Y-211231D01*
X142730Y-211179D01*
X144027Y-210642D01*
X145141Y-209788D01*
X145995Y-208674D01*
X146532Y-207378D01*
X146584Y-206986D01*
D02*
G37*
G36*
X140339D02*
X136094D01*
X136145Y-207378D01*
X136682Y-208674D01*
X137537Y-209788D01*
X138650Y-210642D01*
X139947Y-211179D01*
X140339Y-211231D01*
Y-206986D01*
D02*
G37*
G36*
X120993D02*
X116748D01*
Y-211231D01*
X117139Y-211179D01*
X118436Y-210642D01*
X119550Y-209788D01*
X120404Y-208674D01*
X120941Y-207378D01*
X120993Y-206986D01*
D02*
G37*
G36*
X114748D02*
X110503D01*
X110554Y-207378D01*
X111091Y-208674D01*
X111946Y-209788D01*
X113059Y-210642D01*
X114356Y-211179D01*
X114748Y-211231D01*
Y-206986D01*
D02*
G37*
G36*
X99340D02*
X95095D01*
Y-211231D01*
X95486Y-211179D01*
X96783Y-210642D01*
X97897Y-209788D01*
X98751Y-208674D01*
X99288Y-207378D01*
X99340Y-206986D01*
D02*
G37*
G36*
X93095D02*
X88850D01*
X88901Y-207378D01*
X89438Y-208674D01*
X90293Y-209788D01*
X91406Y-210642D01*
X92703Y-211179D01*
X93095Y-211231D01*
Y-206986D01*
D02*
G37*
G36*
X73748D02*
X69503D01*
Y-211231D01*
X69895Y-211179D01*
X71192Y-210642D01*
X72305Y-209788D01*
X73160Y-208674D01*
X73697Y-207378D01*
X73748Y-206986D01*
D02*
G37*
G36*
X67503D02*
X63258D01*
X63310Y-207378D01*
X63847Y-208674D01*
X64701Y-209788D01*
X65815Y-210642D01*
X67112Y-211179D01*
X67503Y-211231D01*
Y-206986D01*
D02*
G37*
G36*
X52096D02*
X47851D01*
Y-211231D01*
X48242Y-211179D01*
X49539Y-210642D01*
X50652Y-209788D01*
X51507Y-208674D01*
X52044Y-207378D01*
X52096Y-206986D01*
D02*
G37*
G36*
X45851D02*
X41605D01*
X41657Y-207378D01*
X42194Y-208674D01*
X43049Y-209788D01*
X44162Y-210642D01*
X45459Y-211179D01*
X45851Y-211231D01*
Y-206986D01*
D02*
G37*
G36*
X26504D02*
X22259D01*
Y-211231D01*
X22651Y-211179D01*
X23948Y-210642D01*
X25061Y-209788D01*
X25916Y-208674D01*
X26453Y-207378D01*
X26504Y-206986D01*
D02*
G37*
G36*
X20259D02*
X16014D01*
X16066Y-207378D01*
X16603Y-208674D01*
X17458Y-209788D01*
X18571Y-210642D01*
X19868Y-211179D01*
X20259Y-211231D01*
Y-206986D01*
D02*
G37*
G36*
X724468Y-219179D02*
X721712D01*
Y-220754D01*
X724468D01*
Y-219179D01*
D02*
G37*
G36*
X719712D02*
X716957D01*
Y-220754D01*
X719712D01*
Y-219179D01*
D02*
G37*
G36*
X724468Y-222754D02*
X721712D01*
Y-224328D01*
X724468D01*
Y-222754D01*
D02*
G37*
G36*
X719712D02*
X716957D01*
Y-224328D01*
X719712D01*
Y-222754D01*
D02*
G37*
G36*
X217799Y-211648D02*
X216410Y-211785D01*
X215074Y-212191D01*
X213843Y-212848D01*
X212764Y-213734D01*
X211878Y-214813D01*
X211220Y-216044D01*
X210815Y-217380D01*
X210678Y-218769D01*
X210815Y-220159D01*
X211220Y-221494D01*
X211878Y-222726D01*
X212764Y-223805D01*
X213843Y-224690D01*
X215074Y-225348D01*
X216410Y-225753D01*
X217799Y-225890D01*
X219188Y-225753D01*
X220524Y-225348D01*
X221755Y-224690D01*
X222834Y-223805D01*
X223720Y-222726D01*
X224378Y-221494D01*
X224783Y-220159D01*
X224920Y-218769D01*
X224783Y-217380D01*
X224378Y-216044D01*
X223720Y-214813D01*
X222834Y-213734D01*
X221755Y-212848D01*
X220524Y-212191D01*
X219188Y-211785D01*
X217799Y-211648D01*
D02*
G37*
G36*
X691972Y-219391D02*
X684492D01*
Y-226872D01*
X691972D01*
Y-219391D01*
D02*
G37*
G36*
X674953Y-225478D02*
X672000D01*
Y-228037D01*
X674953D01*
Y-225478D01*
D02*
G37*
G36*
X670000D02*
X667047D01*
Y-228037D01*
X670000D01*
Y-225478D01*
D02*
G37*
G36*
X674953Y-230037D02*
X672000D01*
Y-232596D01*
X674953D01*
Y-230037D01*
D02*
G37*
G36*
X636457Y-230825D02*
X633898D01*
Y-233777D01*
X636457D01*
Y-230825D01*
D02*
G37*
G36*
X631898D02*
X629339D01*
Y-233777D01*
X631898D01*
Y-230825D01*
D02*
G37*
G36*
X598835Y-230970D02*
X595488D01*
Y-234316D01*
X598835D01*
Y-230970D01*
D02*
G37*
G36*
X593488D02*
X590142D01*
Y-234316D01*
X593488D01*
Y-230970D01*
D02*
G37*
G36*
X670000Y-230037D02*
X667047D01*
Y-231442D01*
X666586Y-231537D01*
X666547Y-231537D01*
X659894D01*
Y-239017D01*
X666586D01*
Y-236187D01*
X667260D01*
Y-239864D01*
X674740D01*
Y-236691D01*
X675240Y-236522D01*
X675539Y-236911D01*
X676121Y-237358D01*
X676799Y-237638D01*
X677527Y-237734D01*
X678255Y-237638D01*
X678933Y-237358D01*
X679515Y-236911D01*
X679962Y-236329D01*
X680242Y-235651D01*
X680338Y-234923D01*
X680242Y-234195D01*
X679962Y-233517D01*
X679515Y-232935D01*
X678933Y-232488D01*
X678255Y-232207D01*
X677527Y-232111D01*
X676799Y-232207D01*
X676121Y-232488D01*
X675539Y-232935D01*
X675240Y-233324D01*
X674740Y-233171D01*
Y-233171D01*
X667260D01*
Y-233658D01*
X666586D01*
Y-232691D01*
X667047Y-232596D01*
X667087Y-232596D01*
X670000D01*
Y-230037D01*
D02*
G37*
G36*
X69503Y-234205D02*
Y-238451D01*
X73748D01*
X73697Y-238059D01*
X73160Y-236762D01*
X72305Y-235649D01*
X71192Y-234794D01*
X69895Y-234257D01*
X69503Y-234205D01*
D02*
G37*
G36*
X22259D02*
Y-238451D01*
X26504D01*
X26453Y-238059D01*
X25916Y-236762D01*
X25061Y-235649D01*
X23948Y-234794D01*
X22651Y-234257D01*
X22259Y-234205D01*
D02*
G37*
G36*
X189583D02*
Y-238451D01*
X193828D01*
X193777Y-238059D01*
X193239Y-236762D01*
X192385Y-235649D01*
X191271Y-234794D01*
X189975Y-234257D01*
X189583Y-234205D01*
D02*
G37*
G36*
X163992D02*
Y-238451D01*
X168237D01*
X168185Y-238059D01*
X167648Y-236762D01*
X166794Y-235649D01*
X165680Y-234794D01*
X164383Y-234257D01*
X163992Y-234205D01*
D02*
G37*
G36*
X95095D02*
Y-238451D01*
X99340D01*
X99288Y-238059D01*
X98751Y-236762D01*
X97897Y-235649D01*
X96783Y-234794D01*
X95486Y-234257D01*
X95095Y-234205D01*
D02*
G37*
G36*
X47851D02*
Y-238451D01*
X52096D01*
X52044Y-238059D01*
X51507Y-236762D01*
X50652Y-235649D01*
X49539Y-234794D01*
X48242Y-234257D01*
X47851Y-234205D01*
D02*
G37*
G36*
X142339D02*
Y-238451D01*
X146584D01*
X146532Y-238059D01*
X145995Y-236762D01*
X145141Y-235649D01*
X144027Y-234794D01*
X142730Y-234257D01*
X142339Y-234205D01*
D02*
G37*
G36*
X116748D02*
Y-238451D01*
X120993D01*
X120941Y-238059D01*
X120404Y-236762D01*
X119550Y-235649D01*
X118436Y-234794D01*
X117139Y-234257D01*
X116748Y-234205D01*
D02*
G37*
G36*
X20259D02*
X19868Y-234257D01*
X18571Y-234794D01*
X17458Y-235649D01*
X16603Y-236762D01*
X16066Y-238059D01*
X16014Y-238451D01*
X20259D01*
Y-234205D01*
D02*
G37*
G36*
X161992D02*
X161600Y-234257D01*
X160303Y-234794D01*
X159190Y-235649D01*
X158335Y-236762D01*
X157798Y-238059D01*
X157747Y-238451D01*
X161992D01*
Y-234205D01*
D02*
G37*
G36*
X93095D02*
X92703Y-234257D01*
X91406Y-234794D01*
X90293Y-235649D01*
X89438Y-236762D01*
X88901Y-238059D01*
X88850Y-238451D01*
X93095D01*
Y-234205D01*
D02*
G37*
G36*
X67503D02*
X67112Y-234257D01*
X65815Y-234794D01*
X64701Y-235649D01*
X63847Y-236762D01*
X63310Y-238059D01*
X63258Y-238451D01*
X67503D01*
Y-234205D01*
D02*
G37*
G36*
X45851D02*
X45459Y-234257D01*
X44162Y-234794D01*
X43049Y-235649D01*
X42194Y-236762D01*
X41657Y-238059D01*
X41605Y-238451D01*
X45851D01*
Y-234205D01*
D02*
G37*
G36*
X187583D02*
X187191Y-234257D01*
X185895Y-234794D01*
X184781Y-235649D01*
X183927Y-236762D01*
X183389Y-238059D01*
X183338Y-238451D01*
X187583D01*
Y-234205D01*
D02*
G37*
G36*
X140339D02*
X139947Y-234257D01*
X138650Y-234794D01*
X137537Y-235649D01*
X136682Y-236762D01*
X136145Y-238059D01*
X136094Y-238451D01*
X140339D01*
Y-234205D01*
D02*
G37*
G36*
X114748D02*
X114356Y-234257D01*
X113059Y-234794D01*
X111946Y-235649D01*
X111091Y-236762D01*
X110554Y-238059D01*
X110503Y-238451D01*
X114748D01*
Y-234205D01*
D02*
G37*
G36*
X598835Y-236316D02*
X595488D01*
Y-239663D01*
X598835D01*
Y-236316D01*
D02*
G37*
G36*
X593488D02*
X590142D01*
Y-239663D01*
X593488D01*
Y-236316D01*
D02*
G37*
G36*
X636457Y-235777D02*
X629339D01*
Y-238730D01*
X629753D01*
X630118Y-239057D01*
X630118Y-239230D01*
Y-240745D01*
X627296D01*
X627238Y-240604D01*
X626791Y-240021D01*
X626209Y-239575D01*
X625531Y-239294D01*
X624803Y-239198D01*
X624075Y-239294D01*
X623397Y-239575D01*
X622815Y-240021D01*
X622368Y-240604D01*
X622087Y-241282D01*
X621992Y-242009D01*
X622087Y-242737D01*
X622368Y-243415D01*
X622815Y-243998D01*
X623397Y-244444D01*
X624075Y-244725D01*
X624803Y-244821D01*
X625531Y-244725D01*
X626209Y-244444D01*
X626791Y-243998D01*
X627238Y-243415D01*
X627296Y-243274D01*
X630118D01*
Y-246537D01*
X636811D01*
X636811Y-239057D01*
X636457Y-238704D01*
X636457Y-238557D01*
Y-235777D01*
D02*
G37*
G36*
X691972Y-230612D02*
X683508D01*
Y-234943D01*
Y-239273D01*
Y-241099D01*
X644291D01*
Y-239057D01*
X642603D01*
Y-238518D01*
X643724D01*
Y-231037D01*
X637032D01*
Y-238518D01*
X640074D01*
Y-239057D01*
X637598D01*
Y-246537D01*
X644291D01*
Y-243628D01*
X683508D01*
Y-248533D01*
X680677D01*
X680077Y-248652D01*
X679569Y-248992D01*
X676392Y-252169D01*
X676052Y-252677D01*
X675932Y-253277D01*
Y-255467D01*
X675512Y-255789D01*
X675065Y-256371D01*
X674784Y-257049D01*
X674688Y-257777D01*
X674784Y-258505D01*
X675065Y-259183D01*
X675512Y-259765D01*
X676094Y-260212D01*
X676772Y-260493D01*
X677500Y-260589D01*
X678228Y-260493D01*
X678906Y-260212D01*
X679488Y-259765D01*
X679935Y-259183D01*
X680216Y-258505D01*
X680311Y-257777D01*
X680216Y-257049D01*
X679935Y-256371D01*
X679488Y-255789D01*
X679067Y-255467D01*
Y-253926D01*
X681326Y-251667D01*
X683018D01*
X683295Y-252053D01*
Y-253431D01*
X687740D01*
X692185D01*
Y-252053D01*
X691972D01*
Y-247337D01*
X694432D01*
Y-273210D01*
X669276D01*
Y-269779D01*
X661796D01*
Y-273816D01*
X657480D01*
Y-270356D01*
X647244D01*
Y-274997D01*
X644226D01*
X644167Y-274856D01*
X643720Y-274273D01*
X643138Y-273827D01*
X642460Y-273546D01*
X641732Y-273450D01*
X641005Y-273546D01*
X640326Y-273827D01*
X639744Y-274273D01*
X639297Y-274856D01*
X639017Y-275534D01*
X638921Y-276261D01*
X639017Y-276989D01*
X639297Y-277667D01*
X639744Y-278250D01*
X640326Y-278696D01*
X641005Y-278977D01*
X641732Y-279073D01*
X642460Y-278977D01*
X643138Y-278696D01*
X643720Y-278250D01*
X644167Y-277667D01*
X644226Y-277526D01*
X647244D01*
Y-279805D01*
X657480D01*
Y-276345D01*
X661796D01*
Y-276472D01*
X669276D01*
Y-276345D01*
X695121D01*
X695721Y-276225D01*
X696230Y-275886D01*
X697108Y-275007D01*
X697448Y-274498D01*
X697567Y-273899D01*
Y-246656D01*
X697448Y-246056D01*
X697108Y-245547D01*
X696222Y-244661D01*
X695713Y-244321D01*
X695113Y-244202D01*
X691972D01*
Y-238845D01*
X692689D01*
X693012Y-239265D01*
X693594Y-239712D01*
X694272Y-239993D01*
X695000Y-240089D01*
X695728Y-239993D01*
X696406Y-239712D01*
X696988Y-239265D01*
X697435Y-238683D01*
X697716Y-238005D01*
X697811Y-237277D01*
X697716Y-236549D01*
X697435Y-235872D01*
X696988Y-235289D01*
X696406Y-234842D01*
X695728Y-234561D01*
X695000Y-234466D01*
X694272Y-234561D01*
X693594Y-234842D01*
X693012Y-235289D01*
X692689Y-235710D01*
X691972D01*
Y-234943D01*
Y-230612D01*
D02*
G37*
G36*
X193828Y-240451D02*
X189583D01*
Y-244695D01*
X189975Y-244644D01*
X191271Y-244107D01*
X192385Y-243252D01*
X193239Y-242139D01*
X193777Y-240842D01*
X193828Y-240451D01*
D02*
G37*
G36*
X168237D02*
X163992D01*
Y-244695D01*
X164383Y-244644D01*
X165680Y-244107D01*
X166794Y-243252D01*
X167648Y-242139D01*
X168185Y-240842D01*
X168237Y-240451D01*
D02*
G37*
G36*
X146584D02*
X142339D01*
Y-244695D01*
X142730Y-244644D01*
X144027Y-244107D01*
X145141Y-243252D01*
X145995Y-242139D01*
X146532Y-240842D01*
X146584Y-240451D01*
D02*
G37*
G36*
X120993D02*
X116748D01*
Y-244695D01*
X117139Y-244644D01*
X118436Y-244107D01*
X119550Y-243252D01*
X120404Y-242139D01*
X120941Y-240842D01*
X120993Y-240451D01*
D02*
G37*
G36*
X99340D02*
X95095D01*
Y-244695D01*
X95486Y-244644D01*
X96783Y-244107D01*
X97897Y-243252D01*
X98751Y-242139D01*
X99288Y-240842D01*
X99340Y-240451D01*
D02*
G37*
G36*
X73748D02*
X69503D01*
Y-244695D01*
X69895Y-244644D01*
X71192Y-244107D01*
X72305Y-243252D01*
X73160Y-242139D01*
X73697Y-240842D01*
X73748Y-240451D01*
D02*
G37*
G36*
X52096D02*
X47851D01*
Y-244695D01*
X48242Y-244644D01*
X49539Y-244107D01*
X50652Y-243252D01*
X51507Y-242139D01*
X52044Y-240842D01*
X52096Y-240451D01*
D02*
G37*
G36*
X26504D02*
X22259D01*
Y-244695D01*
X22651Y-244644D01*
X23948Y-244107D01*
X25061Y-243252D01*
X25916Y-242139D01*
X26453Y-240842D01*
X26504Y-240451D01*
D02*
G37*
G36*
X187583D02*
X183338D01*
X183389Y-240842D01*
X183927Y-242139D01*
X184781Y-243252D01*
X185895Y-244107D01*
X187191Y-244644D01*
X187583Y-244695D01*
Y-240451D01*
D02*
G37*
G36*
X161992D02*
X157747D01*
X157798Y-240842D01*
X158335Y-242139D01*
X159190Y-243252D01*
X160303Y-244107D01*
X161600Y-244644D01*
X161992Y-244695D01*
Y-240451D01*
D02*
G37*
G36*
X140339D02*
X136094D01*
X136145Y-240842D01*
X136682Y-242139D01*
X137537Y-243252D01*
X138650Y-244107D01*
X139947Y-244644D01*
X140339Y-244695D01*
Y-240451D01*
D02*
G37*
G36*
X114748D02*
X110503D01*
X110554Y-240842D01*
X111091Y-242139D01*
X111946Y-243252D01*
X113059Y-244107D01*
X114356Y-244644D01*
X114748Y-244695D01*
Y-240451D01*
D02*
G37*
G36*
X93095D02*
X88850D01*
X88901Y-240842D01*
X89438Y-242139D01*
X90293Y-243252D01*
X91406Y-244107D01*
X92703Y-244644D01*
X93095Y-244695D01*
Y-240451D01*
D02*
G37*
G36*
X67503D02*
X63258D01*
X63310Y-240842D01*
X63847Y-242139D01*
X64701Y-243252D01*
X65815Y-244107D01*
X67112Y-244644D01*
X67503Y-244695D01*
Y-240451D01*
D02*
G37*
G36*
X45851D02*
X41605D01*
X41657Y-240842D01*
X42194Y-242139D01*
X43049Y-243252D01*
X44162Y-244107D01*
X45459Y-244644D01*
X45851Y-244695D01*
Y-240451D01*
D02*
G37*
G36*
X20259D02*
X16014D01*
X16066Y-240842D01*
X16603Y-242139D01*
X17458Y-243252D01*
X18571Y-244107D01*
X19868Y-244644D01*
X20259Y-244695D01*
Y-240451D01*
D02*
G37*
G36*
X471303Y-242722D02*
X462956D01*
Y-245222D01*
X471303D01*
Y-242722D01*
D02*
G37*
G36*
X501374Y-247222D02*
X493027D01*
Y-249722D01*
X501374D01*
Y-247222D01*
D02*
G37*
G36*
X491027D02*
X482681D01*
Y-249722D01*
X491027D01*
Y-247222D01*
D02*
G37*
G36*
X481649Y-247222D02*
X473303D01*
Y-249722D01*
X481649D01*
Y-247222D01*
D02*
G37*
G36*
X471303D02*
X462956D01*
Y-249722D01*
X471303D01*
Y-247222D01*
D02*
G37*
G36*
X731342Y-242407D02*
X723468D01*
X723161Y-242469D01*
X722901Y-242643D01*
X722727Y-242903D01*
X722666Y-243210D01*
Y-253053D01*
X722727Y-253360D01*
X722901Y-253621D01*
X723161Y-253795D01*
X723468Y-253856D01*
X731342D01*
X731650Y-253795D01*
X731910Y-253621D01*
X732084Y-253360D01*
X732145Y-253053D01*
Y-243210D01*
X732084Y-242903D01*
X731910Y-242643D01*
X731650Y-242469D01*
X731342Y-242407D01*
D02*
G37*
G36*
X643897Y-247324D02*
X637205D01*
Y-254058D01*
X637035Y-254227D01*
X636862Y-254287D01*
X636417Y-253979D01*
Y-247324D01*
X629724D01*
Y-249800D01*
X626903D01*
X626844Y-249659D01*
X626397Y-249077D01*
X625815Y-248630D01*
X625137Y-248349D01*
X624409Y-248253D01*
X623682Y-248349D01*
X623004Y-248630D01*
X622421Y-249077D01*
X621975Y-249659D01*
X621694Y-250337D01*
X621598Y-251064D01*
X621694Y-251792D01*
X621975Y-252470D01*
X622421Y-253052D01*
X623004Y-253499D01*
X623682Y-253780D01*
X624409Y-253876D01*
X625137Y-253780D01*
X625815Y-253499D01*
X626397Y-253052D01*
X626844Y-252470D01*
X626903Y-252329D01*
X629724D01*
Y-254805D01*
X636311D01*
X636417Y-254805D01*
X636811Y-255062D01*
Y-261104D01*
X644291D01*
Y-254411D01*
X643897D01*
Y-252329D01*
X666892D01*
X666951Y-252470D01*
X667397Y-253052D01*
X667980Y-253499D01*
X668658Y-253780D01*
X669385Y-253876D01*
X670113Y-253780D01*
X670791Y-253499D01*
X671373Y-253052D01*
X671820Y-252470D01*
X672101Y-251792D01*
X672197Y-251064D01*
X672101Y-250337D01*
X671820Y-249659D01*
X671373Y-249077D01*
X670791Y-248630D01*
X670113Y-248349D01*
X669385Y-248253D01*
X668658Y-248349D01*
X667980Y-248630D01*
X667397Y-249077D01*
X666951Y-249659D01*
X666892Y-249800D01*
X643897D01*
Y-247324D01*
D02*
G37*
G36*
X402106Y-221754D02*
X398169D01*
Y-231202D01*
X398873D01*
Y-249582D01*
X397803Y-250652D01*
X358597D01*
X358113Y-250748D01*
X357703Y-251022D01*
X350079Y-258646D01*
X350022Y-258602D01*
X348777Y-258086D01*
X347441Y-257910D01*
X346105Y-258086D01*
X344860Y-258602D01*
X343791Y-259422D01*
X342970Y-260491D01*
X342454Y-261736D01*
X342445Y-261808D01*
X326968D01*
Y-257954D01*
X316732D01*
Y-268191D01*
X326968D01*
Y-264337D01*
X342445D01*
X342454Y-264409D01*
X342970Y-265654D01*
X343791Y-266723D01*
X344860Y-267543D01*
X346105Y-268059D01*
X347441Y-268235D01*
X348777Y-268059D01*
X350022Y-267543D01*
X351091Y-266723D01*
X351911Y-265654D01*
X352427Y-264409D01*
X352603Y-263072D01*
X352427Y-261736D01*
X351911Y-260491D01*
X351868Y-260434D01*
X359121Y-253181D01*
X398327D01*
X398811Y-253085D01*
X399221Y-252811D01*
X401032Y-251000D01*
X401306Y-250589D01*
X401402Y-250106D01*
Y-231202D01*
X402106D01*
Y-221754D01*
D02*
G37*
G36*
X397106D02*
X393169D01*
Y-231202D01*
X393873D01*
Y-239530D01*
X392803Y-240600D01*
X316287D01*
X315803Y-240696D01*
X315392Y-240970D01*
X297717Y-258646D01*
X297660Y-258602D01*
X296415Y-258086D01*
X295079Y-257910D01*
X293742Y-258086D01*
X292497Y-258602D01*
X291428Y-259422D01*
X290608Y-260491D01*
X290092Y-261736D01*
X290083Y-261808D01*
X274606D01*
Y-257954D01*
X264370D01*
Y-268191D01*
X274606D01*
Y-264337D01*
X290083D01*
X290092Y-264409D01*
X290608Y-265654D01*
X291428Y-266723D01*
X292497Y-267543D01*
X293742Y-268059D01*
X295079Y-268235D01*
X296415Y-268059D01*
X297660Y-267543D01*
X298729Y-266723D01*
X299549Y-265654D01*
X300065Y-264409D01*
X300241Y-263072D01*
X300065Y-261736D01*
X299549Y-260491D01*
X299505Y-260434D01*
X316810Y-243129D01*
X393327D01*
X393811Y-243033D01*
X394221Y-242759D01*
X396032Y-240948D01*
X396306Y-240537D01*
X396402Y-240054D01*
Y-231202D01*
X397106D01*
Y-221754D01*
D02*
G37*
G36*
X392106D02*
X388169D01*
Y-231202D01*
X388873D01*
Y-234304D01*
X387803Y-235374D01*
X269150D01*
X268666Y-235471D01*
X268256Y-235745D01*
X245355Y-258646D01*
X245298Y-258602D01*
X244053Y-258086D01*
X242716Y-257910D01*
X241380Y-258086D01*
X240135Y-258602D01*
X239066Y-259422D01*
X238246Y-260491D01*
X237730Y-261736D01*
X237721Y-261808D01*
X222244D01*
Y-257954D01*
X212008D01*
Y-268191D01*
X222244D01*
Y-264337D01*
X237721D01*
X237730Y-264409D01*
X238246Y-265654D01*
X239066Y-266723D01*
X240135Y-267543D01*
X241380Y-268059D01*
X242716Y-268235D01*
X244053Y-268059D01*
X245298Y-267543D01*
X246367Y-266723D01*
X247187Y-265654D01*
X247703Y-264409D01*
X247879Y-263072D01*
X247703Y-261736D01*
X247187Y-260491D01*
X247143Y-260434D01*
X269674Y-237903D01*
X388327D01*
X388810Y-237807D01*
X389221Y-237533D01*
X391032Y-235722D01*
X391306Y-235312D01*
X391402Y-234828D01*
Y-231202D01*
X392106D01*
Y-221754D01*
D02*
G37*
G36*
X407106D02*
X403169D01*
Y-231202D01*
X403873D01*
Y-250734D01*
X399303Y-255304D01*
X399029Y-255715D01*
X398932Y-256199D01*
Y-258077D01*
X398861Y-258086D01*
X397616Y-258602D01*
X396547Y-259422D01*
X395726Y-260491D01*
X395210Y-261736D01*
X395201Y-261808D01*
X379724D01*
Y-257954D01*
X369488D01*
Y-268191D01*
X379724D01*
Y-264337D01*
X395201D01*
X395210Y-264409D01*
X395726Y-265654D01*
X396547Y-266723D01*
X397616Y-267543D01*
X398861Y-268059D01*
X400197Y-268235D01*
X401533Y-268059D01*
X402778Y-267543D01*
X403847Y-266723D01*
X404668Y-265654D01*
X405183Y-264409D01*
X405359Y-263072D01*
X405183Y-261736D01*
X404668Y-260491D01*
X403847Y-259422D01*
X402778Y-258602D01*
X401533Y-258086D01*
X401461Y-258077D01*
Y-256722D01*
X406032Y-252152D01*
X406306Y-251741D01*
X406402Y-251257D01*
Y-231202D01*
X407106D01*
Y-221754D01*
D02*
G37*
G36*
X657693Y-258332D02*
X653362D01*
Y-262269D01*
X657693D01*
Y-258332D01*
D02*
G37*
G36*
X651362D02*
X647031D01*
Y-262269D01*
X651362D01*
Y-258332D01*
D02*
G37*
G36*
X644504Y-261679D02*
X641551D01*
Y-264238D01*
X644504D01*
Y-261679D01*
D02*
G37*
G36*
X639551D02*
X636598D01*
Y-264238D01*
X639551D01*
Y-261679D01*
D02*
G37*
G36*
X669488Y-262087D02*
X666536D01*
Y-264646D01*
X669488D01*
Y-262087D01*
D02*
G37*
G36*
X664536D02*
X661583D01*
Y-264646D01*
X664536D01*
Y-262087D01*
D02*
G37*
G36*
X714807Y-230399D02*
X706933D01*
X706626Y-230461D01*
X706365Y-230634D01*
X706191Y-230895D01*
X706130Y-231202D01*
Y-264667D01*
X706191Y-264974D01*
X706365Y-265234D01*
X706626Y-265408D01*
X706933Y-265470D01*
X714807D01*
X715114Y-265408D01*
X715375Y-265234D01*
X715549Y-264974D01*
X715610Y-264667D01*
Y-231202D01*
X715549Y-230895D01*
X715375Y-230634D01*
X715114Y-230461D01*
X714807Y-230399D01*
D02*
G37*
G36*
X717153Y-266226D02*
X714201D01*
Y-267801D01*
X717153D01*
Y-266226D01*
D02*
G37*
G36*
X657693Y-264269D02*
X653362D01*
Y-268206D01*
X657693D01*
Y-264269D01*
D02*
G37*
G36*
X651362D02*
X647031D01*
Y-268206D01*
X651362D01*
Y-264269D01*
D02*
G37*
G36*
X417106Y-221754D02*
X413169D01*
Y-231202D01*
X413873D01*
Y-253319D01*
X413873Y-253319D01*
X413873Y-253319D01*
X413918Y-253543D01*
X413969Y-253802D01*
X413969Y-253802D01*
X413969Y-253802D01*
X414107Y-254009D01*
X414244Y-254213D01*
X414244Y-254213D01*
X414244Y-254213D01*
X416055Y-256024D01*
X416310Y-256194D01*
X416465Y-256298D01*
X416465D01*
X416465Y-256298D01*
X416739Y-256352D01*
X416949Y-256394D01*
X470864D01*
X474213Y-259743D01*
Y-268191D01*
X484449D01*
Y-264337D01*
X499925D01*
X499935Y-264409D01*
X500451Y-265654D01*
X501271Y-266723D01*
X502340Y-267543D01*
X503585Y-268059D01*
X504921Y-268235D01*
X506257Y-268059D01*
X507502Y-267543D01*
X508571Y-266723D01*
X509392Y-265654D01*
X509908Y-264409D01*
X510083Y-263072D01*
X509908Y-261736D01*
X509392Y-260491D01*
X508571Y-259422D01*
X507502Y-258602D01*
X506257Y-258086D01*
X504921Y-257910D01*
X503585Y-258086D01*
X502340Y-258602D01*
X501271Y-259422D01*
X500451Y-260491D01*
X499935Y-261736D01*
X499925Y-261808D01*
X484449D01*
Y-257954D01*
X476001D01*
X472282Y-254236D01*
X471872Y-253962D01*
X471388Y-253865D01*
X417473D01*
X416402Y-252795D01*
Y-231202D01*
X417106D01*
Y-221754D01*
D02*
G37*
G36*
X412106D02*
X408169D01*
Y-231202D01*
X408873D01*
Y-261261D01*
X408873Y-261261D01*
X408873Y-261261D01*
X408918Y-261486D01*
X408969Y-261745D01*
X408969Y-261745D01*
X408969Y-261745D01*
X409107Y-261951D01*
X409243Y-262155D01*
X409243Y-262155D01*
X409244Y-262155D01*
X411055Y-263967D01*
X411310Y-264137D01*
X411465Y-264241D01*
X411465D01*
X411465Y-264241D01*
X411739Y-264295D01*
X411949Y-264337D01*
X421850D01*
Y-268191D01*
X432087D01*
Y-264337D01*
X447563D01*
X447573Y-264409D01*
X448088Y-265654D01*
X448909Y-266723D01*
X449978Y-267543D01*
X451223Y-268059D01*
X452559Y-268235D01*
X453895Y-268059D01*
X455140Y-267543D01*
X456209Y-266723D01*
X457030Y-265654D01*
X457545Y-264409D01*
X457721Y-263072D01*
X457545Y-261736D01*
X457030Y-260491D01*
X456209Y-259422D01*
X455140Y-258602D01*
X453895Y-258086D01*
X452559Y-257910D01*
X451223Y-258086D01*
X449978Y-258602D01*
X448909Y-259422D01*
X448088Y-260491D01*
X447573Y-261736D01*
X447563Y-261808D01*
X432087D01*
Y-257954D01*
X421850D01*
Y-261808D01*
X412473D01*
X411402Y-260737D01*
Y-231202D01*
X412106D01*
Y-221754D01*
D02*
G37*
G36*
X644504Y-266238D02*
X641551D01*
Y-268797D01*
X644504D01*
Y-266238D01*
D02*
G37*
G36*
X639551D02*
X636598D01*
Y-268797D01*
X639551D01*
Y-266238D01*
D02*
G37*
G36*
X669488Y-266646D02*
X666536D01*
Y-269205D01*
X669488D01*
Y-266646D01*
D02*
G37*
G36*
X664536D02*
X661583D01*
Y-269205D01*
X664536D01*
Y-266646D01*
D02*
G37*
G36*
X692185Y-255431D02*
X687740D01*
X683295D01*
Y-256809D01*
X683389D01*
X683439Y-257309D01*
X683416Y-257313D01*
X682907Y-257653D01*
X678025Y-262535D01*
X677500Y-262466D01*
X676772Y-262561D01*
X676094Y-262842D01*
X675512Y-263289D01*
X675065Y-263872D01*
X674784Y-264549D01*
X674688Y-265277D01*
X674784Y-266005D01*
X675065Y-266683D01*
X675512Y-267265D01*
X676094Y-267712D01*
X676772Y-267993D01*
X677500Y-268089D01*
X678228Y-267993D01*
X678906Y-267712D01*
X679488Y-267265D01*
X679935Y-266683D01*
X680216Y-266005D01*
X680311Y-265277D01*
X680242Y-264752D01*
X683046Y-261948D01*
X683508Y-262139D01*
Y-265258D01*
X684492D01*
Y-271163D01*
X691972D01*
Y-265258D01*
Y-260927D01*
Y-256809D01*
X692185D01*
Y-255431D01*
D02*
G37*
G36*
X726815Y-263879D02*
X721303D01*
Y-266226D01*
X719153D01*
Y-268801D01*
Y-271376D01*
X722106D01*
Y-271163D01*
X726815D01*
Y-263879D01*
D02*
G37*
G36*
X717153Y-269801D02*
X714201D01*
Y-271376D01*
X717153D01*
Y-269801D01*
D02*
G37*
G36*
X505922Y-275544D02*
Y-279789D01*
X510167D01*
X510115Y-279397D01*
X509578Y-278100D01*
X508723Y-276987D01*
X507610Y-276132D01*
X506313Y-275595D01*
X505922Y-275544D01*
D02*
G37*
G36*
X503922D02*
X503530Y-275595D01*
X502233Y-276132D01*
X501120Y-276987D01*
X500265Y-278100D01*
X499728Y-279397D01*
X499677Y-279789D01*
X503922D01*
Y-275544D01*
D02*
G37*
G36*
X480330D02*
Y-279789D01*
X484575D01*
X484524Y-279397D01*
X483987Y-278100D01*
X483132Y-276987D01*
X482019Y-276132D01*
X480722Y-275595D01*
X480330Y-275544D01*
D02*
G37*
G36*
X478330D02*
X477939Y-275595D01*
X476642Y-276132D01*
X475528Y-276987D01*
X474674Y-278100D01*
X474137Y-279397D01*
X474085Y-279789D01*
X478330D01*
Y-275544D01*
D02*
G37*
G36*
X453559D02*
Y-279789D01*
X457804D01*
X457753Y-279397D01*
X457216Y-278100D01*
X456361Y-276987D01*
X455248Y-276132D01*
X453951Y-275595D01*
X453559Y-275544D01*
D02*
G37*
G36*
X451559D02*
X451168Y-275595D01*
X449871Y-276132D01*
X448758Y-276987D01*
X447903Y-278100D01*
X447366Y-279397D01*
X447314Y-279789D01*
X451559D01*
Y-275544D01*
D02*
G37*
G36*
X427968D02*
Y-279789D01*
X432213D01*
X432162Y-279397D01*
X431624Y-278100D01*
X430770Y-276987D01*
X429656Y-276132D01*
X428360Y-275595D01*
X427968Y-275544D01*
D02*
G37*
G36*
X425968D02*
X425576Y-275595D01*
X424280Y-276132D01*
X423166Y-276987D01*
X422312Y-278100D01*
X421774Y-279397D01*
X421723Y-279789D01*
X425968D01*
Y-275544D01*
D02*
G37*
G36*
X401197D02*
Y-279789D01*
X405442D01*
X405391Y-279397D01*
X404854Y-278100D01*
X403999Y-276987D01*
X402886Y-276132D01*
X401589Y-275595D01*
X401197Y-275544D01*
D02*
G37*
G36*
X399197D02*
X398806Y-275595D01*
X397509Y-276132D01*
X396395Y-276987D01*
X395541Y-278100D01*
X395004Y-279397D01*
X394952Y-279789D01*
X399197D01*
Y-275544D01*
D02*
G37*
G36*
X375606D02*
Y-279789D01*
X379851D01*
X379799Y-279397D01*
X379262Y-278100D01*
X378408Y-276987D01*
X377294Y-276132D01*
X375997Y-275595D01*
X375606Y-275544D01*
D02*
G37*
G36*
X373606D02*
X373214Y-275595D01*
X371917Y-276132D01*
X370804Y-276987D01*
X369949Y-278100D01*
X369412Y-279397D01*
X369361Y-279789D01*
X373606D01*
Y-275544D01*
D02*
G37*
G36*
X348441D02*
Y-279789D01*
X352686D01*
X352635Y-279397D01*
X352098Y-278100D01*
X351243Y-276987D01*
X350130Y-276132D01*
X348833Y-275595D01*
X348441Y-275544D01*
D02*
G37*
G36*
X346441D02*
X346050Y-275595D01*
X344753Y-276132D01*
X343639Y-276987D01*
X342785Y-278100D01*
X342248Y-279397D01*
X342196Y-279789D01*
X346441D01*
Y-275544D01*
D02*
G37*
G36*
X322850D02*
Y-279789D01*
X327095D01*
X327044Y-279397D01*
X326506Y-278100D01*
X325652Y-276987D01*
X324538Y-276132D01*
X323242Y-275595D01*
X322850Y-275544D01*
D02*
G37*
G36*
X320850D02*
X320458Y-275595D01*
X319162Y-276132D01*
X318048Y-276987D01*
X317194Y-278100D01*
X316656Y-279397D01*
X316605Y-279789D01*
X320850D01*
Y-275544D01*
D02*
G37*
G36*
X296079D02*
Y-279789D01*
X300324D01*
X300272Y-279397D01*
X299735Y-278100D01*
X298881Y-276987D01*
X297767Y-276132D01*
X296471Y-275595D01*
X296079Y-275544D01*
D02*
G37*
G36*
X294079D02*
X293687Y-275595D01*
X292391Y-276132D01*
X291277Y-276987D01*
X290423Y-278100D01*
X289885Y-279397D01*
X289834Y-279789D01*
X294079D01*
Y-275544D01*
D02*
G37*
G36*
X270488D02*
Y-279789D01*
X274733D01*
X274681Y-279397D01*
X274144Y-278100D01*
X273289Y-276987D01*
X272176Y-276132D01*
X270879Y-275595D01*
X270488Y-275544D01*
D02*
G37*
G36*
X268488D02*
X268096Y-275595D01*
X266799Y-276132D01*
X265686Y-276987D01*
X264831Y-278100D01*
X264294Y-279397D01*
X264243Y-279789D01*
X268488D01*
Y-275544D01*
D02*
G37*
G36*
X243717D02*
Y-279789D01*
X247962D01*
X247910Y-279397D01*
X247373Y-278100D01*
X246519Y-276987D01*
X245405Y-276132D01*
X244108Y-275595D01*
X243717Y-275544D01*
D02*
G37*
G36*
X241717D02*
X241325Y-275595D01*
X240028Y-276132D01*
X238915Y-276987D01*
X238060Y-278100D01*
X237523Y-279397D01*
X237472Y-279789D01*
X241717D01*
Y-275544D01*
D02*
G37*
G36*
X218125D02*
Y-279789D01*
X222370D01*
X222319Y-279397D01*
X221782Y-278100D01*
X220927Y-276987D01*
X219814Y-276132D01*
X218517Y-275595D01*
X218125Y-275544D01*
D02*
G37*
G36*
X216125D02*
X215734Y-275595D01*
X214437Y-276132D01*
X213323Y-276987D01*
X212469Y-278100D01*
X211932Y-279397D01*
X211880Y-279789D01*
X216125D01*
Y-275544D01*
D02*
G37*
G36*
X510167Y-281789D02*
X505922D01*
Y-286034D01*
X506313Y-285982D01*
X507610Y-285445D01*
X508723Y-284591D01*
X509578Y-283477D01*
X510115Y-282181D01*
X510167Y-281789D01*
D02*
G37*
G36*
X503922D02*
X499677D01*
X499728Y-282181D01*
X500265Y-283477D01*
X501120Y-284591D01*
X502233Y-285445D01*
X503530Y-285982D01*
X503922Y-286034D01*
Y-281789D01*
D02*
G37*
G36*
X484575D02*
X480330D01*
Y-286034D01*
X480722Y-285982D01*
X482019Y-285445D01*
X483132Y-284591D01*
X483987Y-283477D01*
X484524Y-282181D01*
X484575Y-281789D01*
D02*
G37*
G36*
X478330D02*
X474085D01*
X474137Y-282181D01*
X474674Y-283477D01*
X475528Y-284591D01*
X476642Y-285445D01*
X477939Y-285982D01*
X478330Y-286034D01*
Y-281789D01*
D02*
G37*
G36*
X457804D02*
X453559D01*
Y-286034D01*
X453951Y-285982D01*
X455248Y-285445D01*
X456361Y-284591D01*
X457216Y-283477D01*
X457753Y-282181D01*
X457804Y-281789D01*
D02*
G37*
G36*
X451559D02*
X447314D01*
X447366Y-282181D01*
X447903Y-283477D01*
X448758Y-284591D01*
X449871Y-285445D01*
X451168Y-285982D01*
X451559Y-286034D01*
Y-281789D01*
D02*
G37*
G36*
X432213D02*
X427968D01*
Y-286034D01*
X428360Y-285982D01*
X429656Y-285445D01*
X430770Y-284591D01*
X431624Y-283477D01*
X432162Y-282181D01*
X432213Y-281789D01*
D02*
G37*
G36*
X425968D02*
X421723D01*
X421774Y-282181D01*
X422312Y-283477D01*
X423166Y-284591D01*
X424280Y-285445D01*
X425576Y-285982D01*
X425968Y-286034D01*
Y-281789D01*
D02*
G37*
G36*
X405442D02*
X401197D01*
Y-286034D01*
X401589Y-285982D01*
X402886Y-285445D01*
X403999Y-284591D01*
X404854Y-283477D01*
X405391Y-282181D01*
X405442Y-281789D01*
D02*
G37*
G36*
X399197D02*
X394952D01*
X395004Y-282181D01*
X395541Y-283477D01*
X396395Y-284591D01*
X397509Y-285445D01*
X398806Y-285982D01*
X399197Y-286034D01*
Y-281789D01*
D02*
G37*
G36*
X379851D02*
X375606D01*
Y-286034D01*
X375997Y-285982D01*
X377294Y-285445D01*
X378408Y-284591D01*
X379262Y-283477D01*
X379799Y-282181D01*
X379851Y-281789D01*
D02*
G37*
G36*
X373606D02*
X369361D01*
X369412Y-282181D01*
X369949Y-283477D01*
X370804Y-284591D01*
X371917Y-285445D01*
X373214Y-285982D01*
X373606Y-286034D01*
Y-281789D01*
D02*
G37*
G36*
X352686D02*
X348441D01*
Y-286034D01*
X348833Y-285982D01*
X350130Y-285445D01*
X351243Y-284591D01*
X352098Y-283477D01*
X352635Y-282181D01*
X352686Y-281789D01*
D02*
G37*
G36*
X346441D02*
X342196D01*
X342248Y-282181D01*
X342785Y-283477D01*
X343639Y-284591D01*
X344753Y-285445D01*
X346050Y-285982D01*
X346441Y-286034D01*
Y-281789D01*
D02*
G37*
G36*
X327095D02*
X322850D01*
Y-286034D01*
X323242Y-285982D01*
X324538Y-285445D01*
X325652Y-284591D01*
X326506Y-283477D01*
X327044Y-282181D01*
X327095Y-281789D01*
D02*
G37*
G36*
X320850D02*
X316605D01*
X316656Y-282181D01*
X317194Y-283477D01*
X318048Y-284591D01*
X319162Y-285445D01*
X320458Y-285982D01*
X320850Y-286034D01*
Y-281789D01*
D02*
G37*
G36*
X300324D02*
X296079D01*
Y-286034D01*
X296471Y-285982D01*
X297767Y-285445D01*
X298881Y-284591D01*
X299735Y-283477D01*
X300272Y-282181D01*
X300324Y-281789D01*
D02*
G37*
G36*
X294079D02*
X289834D01*
X289885Y-282181D01*
X290423Y-283477D01*
X291277Y-284591D01*
X292391Y-285445D01*
X293687Y-285982D01*
X294079Y-286034D01*
Y-281789D01*
D02*
G37*
G36*
X274733D02*
X270488D01*
Y-286034D01*
X270879Y-285982D01*
X272176Y-285445D01*
X273289Y-284591D01*
X274144Y-283477D01*
X274681Y-282181D01*
X274733Y-281789D01*
D02*
G37*
G36*
X268488D02*
X264243D01*
X264294Y-282181D01*
X264831Y-283477D01*
X265686Y-284591D01*
X266799Y-285445D01*
X268096Y-285982D01*
X268488Y-286034D01*
Y-281789D01*
D02*
G37*
G36*
X247962D02*
X243717D01*
Y-286034D01*
X244108Y-285982D01*
X245405Y-285445D01*
X246519Y-284591D01*
X247373Y-283477D01*
X247910Y-282181D01*
X247962Y-281789D01*
D02*
G37*
G36*
X241717D02*
X237472D01*
X237523Y-282181D01*
X238060Y-283477D01*
X238915Y-284591D01*
X240028Y-285445D01*
X241325Y-285982D01*
X241717Y-286034D01*
Y-281789D01*
D02*
G37*
G36*
X222370D02*
X218125D01*
Y-286034D01*
X218517Y-285982D01*
X219814Y-285445D01*
X220927Y-284591D01*
X221782Y-283477D01*
X222319Y-282181D01*
X222370Y-281789D01*
D02*
G37*
G36*
X216125D02*
X211880D01*
X211932Y-282181D01*
X212469Y-283477D01*
X213323Y-284591D01*
X214437Y-285445D01*
X215734Y-285982D01*
X216125Y-286034D01*
Y-281789D01*
D02*
G37*
%LPD*%
G36*
X482894Y-173988D02*
Y-179509D01*
X482894D01*
X483067Y-180009D01*
X482996Y-180115D01*
X397820D01*
X397762Y-179974D01*
X397315Y-179392D01*
X396733Y-178945D01*
X396055Y-178664D01*
X395327Y-178568D01*
X394599Y-178664D01*
X393921Y-178945D01*
X393339Y-179392D01*
X392892Y-179974D01*
X392611Y-180652D01*
X392515Y-181379D01*
X392611Y-182107D01*
X392892Y-182785D01*
X393339Y-183368D01*
X393873Y-183777D01*
Y-200494D01*
X393169D01*
Y-209943D01*
X397106D01*
Y-200494D01*
X396402D01*
Y-183951D01*
X396733Y-183814D01*
X397315Y-183368D01*
X397762Y-182785D01*
X397820Y-182644D01*
X410807D01*
X411014Y-183144D01*
X399243Y-194915D01*
X398969Y-195325D01*
X398873Y-195809D01*
Y-200494D01*
X398169D01*
Y-209943D01*
X398873D01*
Y-211000D01*
X289165D01*
X261013Y-182849D01*
X260588Y-182564D01*
X260085Y-182465D01*
X247638D01*
Y-181809D01*
X238981D01*
Y-180746D01*
X247638D01*
Y-180090D01*
X260597D01*
X276240Y-195733D01*
X276666Y-196017D01*
X277168Y-196117D01*
X277410Y-196069D01*
X366798D01*
X366856Y-196210D01*
X367303Y-196793D01*
X367885Y-197239D01*
X368564Y-197520D01*
X369291Y-197616D01*
X370019Y-197520D01*
X370697Y-197239D01*
X371279Y-196793D01*
X371726Y-196210D01*
X372007Y-195532D01*
X372103Y-194805D01*
X372007Y-194077D01*
X371726Y-193399D01*
X371279Y-192817D01*
X370697Y-192370D01*
X370019Y-192089D01*
X369291Y-191993D01*
X368564Y-192089D01*
X367885Y-192370D01*
X367303Y-192817D01*
X366856Y-193399D01*
X366798Y-193540D01*
X277760D01*
X262069Y-177849D01*
X261643Y-177564D01*
X261141Y-177464D01*
X247638D01*
Y-176809D01*
X238981D01*
Y-175746D01*
X247638D01*
Y-175090D01*
X262403D01*
X278046Y-190733D01*
X278472Y-191017D01*
X278974Y-191117D01*
X279216Y-191069D01*
X387803D01*
X388873Y-192139D01*
Y-200494D01*
X388169D01*
Y-209943D01*
X392106D01*
Y-200494D01*
X391402D01*
Y-191616D01*
X391306Y-191132D01*
X391032Y-190722D01*
X390115Y-189805D01*
X391032Y-188888D01*
X391306Y-188478D01*
X391402Y-187994D01*
Y-179955D01*
X393870Y-177487D01*
X463169D01*
Y-179509D01*
X481437D01*
Y-174791D01*
X482432Y-173796D01*
X482894Y-173988D01*
D02*
G37*
G36*
X459342Y-192116D02*
X459752Y-192390D01*
X460236Y-192487D01*
X463044D01*
X463169Y-192935D01*
X463169Y-192987D01*
Y-193175D01*
X462793Y-193504D01*
X462500Y-193466D01*
X461772Y-193561D01*
X461094Y-193842D01*
X460512Y-194289D01*
X460065Y-194871D01*
X459784Y-195549D01*
X459689Y-196277D01*
X459784Y-197005D01*
X460065Y-197683D01*
X460512Y-198265D01*
X461094Y-198712D01*
X461772Y-198993D01*
X462500Y-199089D01*
X462842Y-199548D01*
X462831Y-199748D01*
X462782Y-199783D01*
X451768D01*
X451266Y-199883D01*
X450840Y-200167D01*
X438025Y-212983D01*
X401705D01*
X401359Y-212483D01*
X401402Y-212265D01*
Y-209943D01*
X402106D01*
Y-200494D01*
X401402D01*
Y-196332D01*
X412728Y-185006D01*
X452232D01*
X459342Y-192116D01*
D02*
G37*
G36*
X286972Y-212521D02*
X286781Y-212983D01*
X280258D01*
X257643Y-190367D01*
X257217Y-190083D01*
X256714Y-189983D01*
X247850D01*
Y-189777D01*
X242913D01*
Y-188777D01*
X241913D01*
Y-186596D01*
X238981D01*
Y-185746D01*
X247638D01*
Y-185090D01*
X259542D01*
X286972Y-212521D01*
D02*
G37*
%LPC*%
G36*
X382319Y-200281D02*
X381138D01*
Y-204218D01*
X382319D01*
Y-200281D01*
D02*
G37*
G36*
X379138D02*
X377957D01*
Y-204218D01*
X379138D01*
Y-200281D01*
D02*
G37*
G36*
X385138Y-195564D02*
X384411Y-195660D01*
X383733Y-195940D01*
X383150Y-196387D01*
X382704Y-196970D01*
X382423Y-197648D01*
X382327Y-198375D01*
X382423Y-199103D01*
X382704Y-199781D01*
X382940Y-200089D01*
X383169Y-200494D01*
Y-209943D01*
X387106D01*
Y-200494D01*
X387337Y-200089D01*
X387573Y-199781D01*
X387854Y-199103D01*
X387950Y-198375D01*
X387854Y-197648D01*
X387573Y-196970D01*
X387126Y-196387D01*
X386544Y-195940D01*
X385866Y-195660D01*
X385138Y-195564D01*
D02*
G37*
G36*
X382319Y-206218D02*
X381138D01*
Y-210155D01*
X382319D01*
Y-206218D01*
D02*
G37*
G36*
X379138D02*
X377957D01*
Y-210155D01*
X379138D01*
Y-206218D01*
D02*
G37*
G36*
X415138Y-190658D02*
X414410Y-190754D01*
X413732Y-191035D01*
X413150Y-191482D01*
X412703Y-192064D01*
X412422Y-192742D01*
X412326Y-193470D01*
X412422Y-194197D01*
X412703Y-194875D01*
X413150Y-195458D01*
X413732Y-195905D01*
X413873Y-195963D01*
Y-200494D01*
X413169D01*
Y-203906D01*
X412106D01*
Y-200494D01*
X408169D01*
Y-209943D01*
X412106D01*
Y-206531D01*
X413169D01*
Y-209943D01*
X417106D01*
Y-200494D01*
X416402D01*
Y-195963D01*
X416543Y-195905D01*
X417126Y-195458D01*
X417572Y-194875D01*
X417853Y-194197D01*
X417949Y-193470D01*
X417853Y-192742D01*
X417572Y-192064D01*
X417126Y-191482D01*
X416543Y-191035D01*
X415865Y-190754D01*
X415138Y-190658D01*
D02*
G37*
G36*
X407319Y-200281D02*
X406138D01*
Y-204218D01*
X407319D01*
Y-200281D01*
D02*
G37*
G36*
X404138D02*
X402956D01*
Y-204218D01*
X404138D01*
Y-200281D01*
D02*
G37*
G36*
X407319Y-206218D02*
X406138D01*
Y-210155D01*
X407319D01*
Y-206218D01*
D02*
G37*
G36*
X404138D02*
X402956D01*
Y-210155D01*
X404138D01*
Y-206218D01*
D02*
G37*
G36*
X247850Y-186596D02*
X243913D01*
Y-187777D01*
X247850D01*
Y-186596D01*
D02*
G37*
%LPD*%
D10*
X306018Y-216795D02*
X311527Y-222305D01*
X313496Y-224273D01*
X279687Y-216795D02*
X306018D01*
X607500Y-226277D02*
X609000Y-224777D01*
X613500D01*
X527000Y-226277D02*
X607500D01*
X655000Y-228277D02*
X657390Y-230667D01*
X526000Y-228277D02*
X655000D01*
X137307Y-35391D02*
X138000Y-34699D01*
X171000Y-69931D02*
X382653D01*
X443297Y-130575D01*
X94500Y-66277D02*
X121695D01*
X79212Y-81565D02*
X94500Y-66277D01*
X11287Y-81565D02*
X79212D01*
X492027Y-146222D02*
X492083Y-146277D01*
X502500D01*
X470461Y-135537D02*
X471039Y-134958D01*
X470461Y-136777D02*
Y-135537D01*
X431500Y-136777D02*
X470461D01*
X379264Y-84541D02*
X431500Y-136777D01*
X194764Y-84541D02*
X379264D01*
X193000Y-82777D02*
X194764Y-84541D01*
X192500Y-83277D02*
X193000Y-82777D01*
X121695Y-66277D02*
X138695Y-83277D01*
X121653Y-66236D02*
X121695Y-66277D01*
X138695Y-83277D02*
X177079D01*
X170106Y-69037D02*
X171000Y-69931D01*
X161331Y-69037D02*
X170106D01*
X151201Y-71309D02*
X152669Y-72777D01*
X149090Y-71309D02*
X151201D01*
X144256Y-66474D02*
X149090Y-71309D01*
X144256Y-66474D02*
Y-66277D01*
X128346Y-56777D02*
X137307D01*
X121695Y-66277D02*
X129788D01*
X121653Y-66236D02*
Y-56777D01*
X144000D02*
X144256Y-57033D01*
Y-66277D02*
Y-57033D01*
X7500Y-77777D02*
X11287Y-81565D01*
X7500Y-77777D02*
Y-43124D01*
X33705Y-16919D01*
X59295D01*
X137307Y-56777D02*
Y-35391D01*
X144000Y-56777D02*
X145334Y-55443D01*
X153004D01*
X286680Y-48636D02*
X287401Y-47915D01*
X410138Y-205218D02*
X415138D01*
X492027Y-86222D02*
X492083Y-86277D01*
X502500D01*
X539500Y-48277D02*
X543362Y-52139D01*
Y-77131D02*
Y-52139D01*
Y-77131D02*
X550500Y-84269D01*
X545150Y-75472D02*
Y-47577D01*
X543000Y-45428D02*
X545150Y-47577D01*
X543000Y-45428D02*
Y-44777D01*
X545150Y-75472D02*
X548955Y-79277D01*
X541575Y-81897D02*
Y-60685D01*
X536212Y-55323D02*
X541575Y-60685D01*
X536212Y-55323D02*
Y-45990D01*
X535000Y-44777D02*
X536212Y-45990D01*
X532500Y-54138D02*
Y-50277D01*
X529000Y-53166D02*
Y-43777D01*
X539787Y-83557D02*
X550500Y-94269D01*
X539787Y-83557D02*
Y-61426D01*
X532500Y-54138D02*
X539787Y-61426D01*
X538000Y-95777D02*
Y-62166D01*
X529000Y-53166D02*
X538000Y-62166D01*
X535575Y-105191D02*
Y-62269D01*
X524000Y-50694D02*
X535575Y-62269D01*
X533787Y-107777D02*
Y-63009D01*
X519000Y-48222D02*
X533787Y-63009D01*
X532000Y-110777D02*
Y-63749D01*
X514000Y-45749D02*
X532000Y-63749D01*
X530000Y-117777D02*
Y-64277D01*
X502000Y-36277D02*
X530000Y-64277D01*
X532000Y-110777D02*
X545492Y-124269D01*
X538000Y-95777D02*
X541701Y-99479D01*
X533787Y-107777D02*
X544913Y-118903D01*
X535575Y-105191D02*
X539569Y-109186D01*
X541575Y-81897D02*
X548581Y-88903D01*
X548955Y-79277D02*
X555508D01*
X548581Y-88903D02*
X555134D01*
X560500Y-94269D01*
X492083Y-96277D02*
X502000D01*
X555508Y-79277D02*
X560500Y-84269D01*
X541701Y-99479D02*
X555709D01*
X560500Y-104269D01*
X539569Y-109186D02*
X555416D01*
X560500Y-114269D01*
X524000Y-50694D02*
Y-43277D01*
X560500Y-154269D02*
X568000Y-146769D01*
Y-121777D01*
X565126Y-118903D02*
X568000Y-121777D01*
X544913Y-118903D02*
X565126D01*
X519000Y-48222D02*
Y-42777D01*
X534008Y-117777D02*
X550500Y-134269D01*
X530000Y-117777D02*
X534008D01*
X545492Y-124269D02*
X550500D01*
X514000Y-45749D02*
Y-41777D01*
X521000Y-126277D02*
Y-74277D01*
X525500Y-121777D02*
Y-69777D01*
X517500Y-131277D02*
Y-80777D01*
X502000Y-46277D02*
X525500Y-69777D01*
X514000Y-135777D02*
Y-86277D01*
X504000Y-76277D02*
X514000Y-86277D01*
X502000Y-76277D02*
X504000D01*
X503000Y-66277D02*
X517500Y-80777D01*
X502000Y-66277D02*
X503000D01*
Y-56277D02*
X521000Y-74277D01*
X502000Y-56277D02*
X503000D01*
X471748Y-86777D02*
X472303Y-86222D01*
X462000Y-86777D02*
X471748D01*
X492027Y-96222D02*
X492083Y-96277D01*
Y-76277D02*
X502000D01*
X492027Y-76222D02*
X492083Y-76277D01*
Y-66277D02*
X502000D01*
X492027Y-66222D02*
X492083Y-66277D01*
Y-46277D02*
X502000D01*
X492027Y-46222D02*
X492083Y-46277D01*
X462000Y-46777D02*
X471748D01*
X472303Y-46222D01*
X462000Y-56277D02*
X472248D01*
X472303Y-56222D01*
X462000Y-66277D02*
X472248D01*
X472303Y-66222D01*
X462000Y-76277D02*
X472248D01*
X472303Y-76222D01*
X492083Y-136277D02*
X502000D01*
X492027Y-136222D02*
X492083Y-136277D01*
Y-126277D02*
X502000D01*
X492027Y-126222D02*
X492083Y-126277D01*
Y-116277D02*
X502000D01*
X492027Y-116222D02*
X492083Y-116277D01*
Y-106277D02*
X502000D01*
X492027Y-106222D02*
X492083Y-106277D01*
X462000Y-126277D02*
X472248D01*
X472303Y-126222D01*
X462000Y-116277D02*
X472248D01*
X472303Y-116222D01*
X462000Y-106777D02*
X471748D01*
X472303Y-106222D01*
X462000Y-96277D02*
X472248D01*
X472303Y-96222D01*
X514000Y-213277D02*
Y-192348D01*
X497874Y-176222D02*
X514000Y-192348D01*
X500445Y-196222D02*
X511500Y-207277D01*
X492027Y-196222D02*
X500445D01*
X511500Y-213777D02*
X526000Y-228277D01*
X511500Y-213777D02*
Y-207277D01*
X514000Y-213277D02*
X527000Y-226277D01*
X492027Y-176222D02*
X497874D01*
X504000Y-171777D02*
X508500Y-176277D01*
X482594Y-171777D02*
X504000D01*
X478150Y-176222D02*
X482594Y-171777D01*
X472303Y-176222D02*
X478150D01*
X657390Y-232470D02*
Y-230667D01*
X260085Y-183777D02*
X288573Y-212265D01*
X242913Y-183777D02*
X260085D01*
X262946Y-173777D02*
X278974Y-189805D01*
X242913Y-173777D02*
X262946D01*
X261141Y-178777D02*
X277168Y-194805D01*
X242913Y-178777D02*
X261141D01*
X214307Y-183777D02*
X221653D01*
X201307Y-196777D02*
X214307Y-183777D01*
X60000Y-196777D02*
X201307D01*
X57156Y-199621D02*
X60000Y-196777D01*
X215055Y-178777D02*
X221653D01*
X205563Y-188269D02*
X215055Y-178777D01*
X188583Y-188269D02*
X205563D01*
X242913Y-198777D02*
Y-193777D01*
X141338Y-188269D02*
X147012Y-182595D01*
X208683D01*
X217501Y-173777D01*
X221653D01*
X217000Y-163777D02*
X221653D01*
X210969Y-169808D02*
X217000Y-163777D01*
X208849Y-169808D02*
X210969D01*
X205424Y-173233D02*
X208849Y-169808D01*
X202815Y-173233D02*
X205424D01*
X198901Y-177147D02*
X202815Y-173233D01*
X57972Y-177147D02*
X198901D01*
X46850Y-188269D02*
X57972Y-177147D01*
X216500Y-168777D02*
X221653D01*
X204508Y-180769D02*
X216500Y-168777D01*
X101594Y-180769D02*
X204508D01*
X94094Y-188269D02*
X101594Y-180769D01*
X141338Y-257167D02*
X147010Y-251495D01*
X198568D01*
X200468Y-249595D01*
Y-202947D01*
X209639Y-193777D01*
X221653D01*
X212111Y-188777D02*
X221653D01*
X196000Y-204888D02*
X212111Y-188777D01*
X196000Y-246128D02*
Y-204888D01*
X192461Y-249667D02*
X196000Y-246128D01*
X101594Y-249667D02*
X192461D01*
X94094Y-257167D02*
X101594Y-249667D01*
X208368Y-198777D02*
X221653D01*
X204468Y-202677D02*
X208368Y-198777D01*
X204468Y-253695D02*
Y-202677D01*
X200997Y-257167D02*
X204468Y-253695D01*
X188583Y-257167D02*
X200997D01*
X486168Y-206222D02*
X492027D01*
X481042Y-201095D02*
X486168Y-206222D01*
X451768Y-201095D02*
X481042D01*
X438568Y-214295D02*
X451768Y-201095D01*
X279714Y-214295D02*
X438568D01*
X256714Y-191295D02*
X279714Y-214295D01*
X237668Y-191295D02*
X256714D01*
X237668D02*
Y-171495D01*
X237968Y-171195D01*
Y-169677D01*
X238868Y-168777D01*
X242913D01*
Y-198777D02*
X261668D01*
X279687Y-216795D01*
D38*
X655760Y-235277D02*
D03*
X663240D02*
D03*
X640378Y-234777D02*
D03*
X632898D02*
D03*
X633071Y-251064D02*
D03*
X640551D02*
D03*
X633464Y-242797D02*
D03*
X640945D02*
D03*
D39*
X688232Y-267816D02*
D03*
X671000Y-236517D02*
D03*
Y-229037D02*
D03*
X665536Y-265646D02*
D03*
Y-273126D02*
D03*
X640551Y-257757D02*
D03*
Y-265238D02*
D03*
D40*
X488583Y-176655D02*
X492027D01*
X664500Y-234923D02*
X677527D01*
X663581Y-275080D02*
X665536Y-273126D01*
X652362Y-275080D02*
X663581D01*
X641378Y-242364D02*
X686815D01*
X640945Y-242797D02*
X641378Y-242364D01*
X686815D02*
X687740Y-241439D01*
X477165Y-196734D02*
Y-196222D01*
X46500Y-102277D02*
X200425D01*
X38508Y-94285D02*
X46500Y-102277D01*
X38508Y-94285D02*
Y-91017D01*
X243799Y-230080D02*
X380138D01*
X105000Y-100277D02*
X201500D01*
X98350Y-93628D02*
X105000Y-100277D01*
X98350Y-93628D02*
Y-91017D01*
X200425Y-102277D02*
X229000Y-130852D01*
X201500Y-100277D02*
X209713Y-108490D01*
X202724Y-98277D02*
X233500Y-129053D01*
X156732Y-98277D02*
X202724D01*
X149138Y-90683D02*
X156732Y-98277D01*
X209713Y-108490D02*
X209787D01*
X472303Y-216222D02*
X475984D01*
Y-216025D01*
X365500Y-227777D02*
X375717Y-217560D01*
X243890Y-227777D02*
X365500D01*
X233500Y-217387D02*
X243890Y-227777D01*
X444500Y-213777D02*
X453823D01*
X444374D02*
X444500D01*
X453823D02*
X461378Y-206222D01*
X443307Y-214844D02*
X444374Y-213777D01*
X233500Y-217387D02*
Y-129053D01*
X209787Y-108490D02*
X231000Y-129702D01*
Y-217281D02*
Y-129702D01*
Y-217281D02*
X243799Y-230080D01*
X229000Y-217777D02*
Y-130852D01*
Y-217777D02*
X242996Y-231773D01*
X385138D01*
X472303Y-96340D02*
X476772D01*
X472303Y-56970D02*
X475590D01*
X472303Y-66813D02*
X475984D01*
X472303Y-105789D02*
X476772D01*
X472303Y-116419D02*
X475984D01*
X472303Y-127049D02*
X475984D01*
X624409Y-251064D02*
X633071D01*
X641338Y-242403D02*
Y-236104D01*
X640945Y-242797D02*
X641338Y-242403D01*
X640551Y-251064D02*
X669385D01*
X640551Y-257757D02*
Y-251064D01*
X395138Y-240054D02*
Y-226478D01*
X393327Y-241864D02*
X395138Y-240054D01*
X316287Y-241864D02*
X393327D01*
X295079Y-263072D02*
X316287Y-241864D01*
X269488Y-263072D02*
X295079D01*
X563701Y-236104D02*
X564488Y-235316D01*
X491909Y-236104D02*
X492027Y-236222D01*
X569449Y-230277D02*
X574488Y-235316D01*
X481181Y-230277D02*
X569449D01*
X477559Y-226655D02*
X481181Y-230277D01*
X472303Y-226655D02*
Y-226222D01*
X385138Y-205218D02*
X385138Y-198375D01*
X461378Y-206222D02*
X472303D01*
X487027Y-191222D02*
X492027Y-196222D01*
X460236Y-191222D02*
X487027D01*
X452756Y-183742D02*
X460236Y-191222D01*
X412205Y-183742D02*
X452756D01*
X400138Y-195809D02*
X412205Y-183742D01*
X400138Y-205218D02*
Y-195809D01*
Y-212265D02*
Y-205218D01*
X288573Y-212265D02*
X400138D01*
X624803Y-242009D02*
X632677D01*
X633464Y-242797D01*
X390138Y-187994D02*
Y-179431D01*
X388327Y-189805D02*
X390138Y-191616D01*
Y-205218D02*
Y-191616D01*
X393346Y-176222D02*
X472303D01*
X390138Y-179431D02*
X393346Y-176222D01*
X388327Y-189805D02*
X390138Y-187994D01*
X278974Y-189805D02*
X388327D01*
X277168Y-194805D02*
X369291D01*
X395138Y-205218D02*
Y-181411D01*
X395327Y-181379D02*
X483858D01*
X488583Y-176655D01*
X492027D02*
Y-176222D01*
X472303Y-127049D02*
Y-126222D01*
Y-116419D02*
Y-116222D01*
Y-106222D02*
Y-105789D01*
Y-96340D02*
Y-96222D01*
Y-76222D02*
X476417D01*
X472303Y-66813D02*
Y-66222D01*
Y-56970D02*
Y-56222D01*
Y-46222D02*
X473740D01*
X488150Y-226222D02*
X492027D01*
X483464Y-221537D02*
X488150Y-226222D01*
X458268Y-221537D02*
X483464D01*
X454437Y-217706D02*
X458268Y-221537D01*
X402154Y-217706D02*
X454437D01*
X402009Y-217560D02*
X402154Y-217706D01*
X375717Y-217560D02*
X402009D01*
X479331Y-263072D02*
X504921D01*
X471388Y-255130D02*
X479331Y-263072D01*
X416949Y-255130D02*
X471388D01*
X415138Y-253319D02*
X416949Y-255130D01*
X415138Y-253319D02*
Y-226478D01*
X380138Y-230080D02*
Y-226478D01*
X426968Y-263072D02*
X452559D01*
X411949D02*
X426968D01*
X410138Y-261261D02*
X411949Y-263072D01*
X410138Y-261261D02*
Y-226478D01*
X405138Y-251257D02*
Y-226478D01*
X400197Y-256199D02*
X405138Y-251257D01*
X400197Y-263072D02*
Y-256199D01*
X374606Y-263072D02*
X400197D01*
X400138Y-250106D02*
Y-226478D01*
X398327Y-251917D02*
X400138Y-250106D01*
X358597Y-251917D02*
X398327D01*
X347441Y-263072D02*
X358597Y-251917D01*
X321850Y-263072D02*
X347441D01*
X390138Y-234828D02*
Y-226478D01*
X388327Y-236639D02*
X390138Y-234828D01*
X269150Y-236639D02*
X388327D01*
X242716Y-263072D02*
X269150Y-236639D01*
X217126Y-263072D02*
X242716D01*
X162992Y-257167D02*
X188583D01*
X115748D02*
X141338D01*
X68504D02*
X94094D01*
X55345Y-201432D02*
X57156Y-199621D01*
X55345Y-248672D02*
Y-201432D01*
X46850Y-257167D02*
X55345Y-248672D01*
X21260Y-257167D02*
X46850D01*
X162992Y-188269D02*
X188583D01*
X115748D02*
X141338D01*
X68504D02*
X94094D01*
X21260D02*
X46850D01*
X385138Y-231773D02*
Y-226478D01*
X651181Y-276261D02*
X652362Y-275080D01*
X641732Y-276261D02*
X651181D01*
X415138Y-205218D02*
Y-193470D01*
X472303Y-166222D02*
X492027D01*
X472303Y-246222D02*
X492027D01*
X491909Y-236104D02*
X563701D01*
X472303Y-226655D02*
X477559D01*
X472303Y-186498D02*
X477559D01*
X472303D02*
Y-186222D01*
Y-196222D02*
X477165D01*
D41*
X687909Y-237277D02*
X695000D01*
X687740Y-237108D02*
X687909Y-237277D01*
X677500Y-265277D02*
X684016Y-258761D01*
X687740D01*
X680677Y-250100D02*
X687740D01*
X677500Y-253277D02*
X680677Y-250100D01*
X677500Y-257777D02*
Y-253277D01*
X695113Y-245769D02*
X696000Y-246656D01*
X687740Y-245769D02*
X695113D01*
X696000Y-273899D02*
Y-246656D01*
X695121Y-274777D02*
X696000Y-273899D01*
X667187Y-274777D02*
X695121D01*
X665536Y-273126D02*
X667187Y-274777D01*
X151747Y-37862D02*
Y-37704D01*
Y-37862D02*
X154147Y-40261D01*
X156177D01*
D42*
X488189Y-155395D02*
X492027D01*
X487401Y-156970D02*
X492027D01*
X353000Y-160277D02*
X357500Y-155777D01*
Y-135474D02*
X362387D01*
X366000Y-139087D01*
Y-152164D02*
Y-139087D01*
X362387Y-155777D02*
X366000Y-152164D01*
X357500Y-155777D02*
X362387D01*
X353000Y-182277D02*
Y-160277D01*
X445564Y-168771D02*
X453034Y-161301D01*
X584488Y-237761D02*
Y-235316D01*
X550500Y-34269D02*
X560500D01*
X453034Y-161301D02*
X482283D01*
X584488Y-237761D02*
X584646Y-237919D01*
Y-238072D02*
Y-237919D01*
X581496Y-241222D02*
X584646Y-238072D01*
X479445Y-241222D02*
X581496D01*
X474445Y-236222D02*
X479445Y-241222D01*
X472303Y-236222D02*
X474445D01*
X476653Y-146222D02*
X487008Y-156576D01*
X487401Y-156970D01*
X492027D02*
Y-156222D01*
X487008Y-156576D02*
X488189Y-155395D01*
X492027Y-156222D02*
Y-155395D01*
X482283Y-161301D02*
X487008Y-156576D01*
X472303Y-146222D02*
X476653D01*
D43*
X148742Y-34699D02*
X151747Y-37704D01*
X277953Y-48636D02*
X286680D01*
X268898D02*
X277953D01*
X76500Y-20777D02*
Y-12277D01*
X106382Y-8277D02*
X113118Y-15013D01*
X80500Y-8277D02*
X106382D01*
X76500Y-12277D02*
X80500Y-8277D01*
X76500Y-20777D02*
X76500Y-20777D01*
X148742Y-27035D02*
X156000Y-19777D01*
X148742Y-34699D02*
Y-27035D01*
X138000Y-34699D02*
X148742D01*
X91500Y-19777D02*
Y-19777D01*
X91500Y-19777D01*
Y-34907D02*
Y-19777D01*
Y-47277D02*
Y-34907D01*
X72500Y-66277D02*
X91500Y-47277D01*
X57122Y-66277D02*
X72500D01*
X91500Y-34907D02*
X91708Y-34699D01*
X113118D01*
X76500Y-38277D02*
Y-20777D01*
X67397Y-47380D02*
X76500Y-38277D01*
X45311Y-47380D02*
X67397D01*
X43049D02*
X45311D01*
X39874Y-50555D02*
X43049Y-47380D01*
X39874Y-52817D02*
Y-50555D01*
X34815Y-57875D02*
X39874Y-52817D01*
X34815Y-64962D02*
Y-57875D01*
X33500Y-66277D02*
X34815Y-64962D01*
X296457Y-49293D02*
X306329D01*
X288140D02*
X296457D01*
X245500Y-48636D02*
X268898D01*
X193522D02*
X245500D01*
X170980Y-14257D02*
X171000Y-14277D01*
X391142Y-49293D02*
X400020Y-40415D01*
Y-18387D01*
X339961Y-49293D02*
X357087Y-32167D01*
Y-19136D01*
X356338Y-18387D02*
X357087Y-19136D01*
X287008Y-48702D02*
X288140Y-49293D01*
X306329D02*
X339961D01*
X391142D01*
D44*
X302051Y-222269D02*
D03*
X311563D02*
D03*
X560500Y-34269D02*
D03*
X550500Y-44269D02*
D03*
X560500D02*
D03*
X550500Y-54269D02*
D03*
X560500D02*
D03*
X550500Y-64269D02*
D03*
X560500D02*
D03*
X550500Y-74269D02*
D03*
X560500D02*
D03*
X550500Y-84269D02*
D03*
X560500D02*
D03*
X550500Y-94269D02*
D03*
X560500D02*
D03*
X550500Y-104269D02*
D03*
X560500D02*
D03*
X550500Y-114269D02*
D03*
X560500D02*
D03*
X550500Y-124269D02*
D03*
X560500D02*
D03*
X550500Y-134269D02*
D03*
X560500D02*
D03*
X550500Y-144269D02*
D03*
X560500D02*
D03*
X550500Y-154269D02*
D03*
X560500D02*
D03*
X550500Y-164269D02*
D03*
X560500D02*
D03*
X550500Y-174269D02*
D03*
X560500D02*
D03*
X550500Y-184269D02*
D03*
X560500D02*
D03*
X550500Y-194269D02*
D03*
X560500D02*
D03*
Y-204269D02*
D03*
X550500D02*
D03*
X346571Y-125474D02*
D03*
X356571Y-135474D02*
D03*
X346571D02*
D03*
X356571Y-145474D02*
D03*
X346571D02*
D03*
X356571Y-155474D02*
D03*
X346571D02*
D03*
X564488Y-235316D02*
D03*
X574488D02*
D03*
X584488D02*
D03*
D45*
X550500Y-34269D02*
D03*
X594488Y-235316D02*
D03*
D46*
X135516Y-118183D02*
D03*
X183547D02*
D03*
D47*
X149138Y-90683D02*
D03*
X169138D02*
D03*
X149138Y-148183D02*
D03*
X159138D02*
D03*
X169138D02*
D03*
D48*
X76500Y-19777D02*
D03*
X171000D02*
D03*
X341338Y-18387D02*
D03*
X385020D02*
D03*
D49*
X91500Y-19777D02*
D03*
X156000D02*
D03*
X356338Y-18387D02*
D03*
X400020D02*
D03*
D50*
X59295Y-16919D02*
D03*
X59296Y-34635D02*
D03*
X33704D02*
D03*
X162992Y-205986D02*
D03*
X188583D02*
D03*
X188583Y-188269D02*
D03*
X28665Y-91017D02*
D03*
X48350D02*
D03*
X38508D02*
D03*
X162992Y-257167D02*
D03*
X162992Y-239451D02*
D03*
X188583D02*
D03*
X21260Y-257167D02*
D03*
X21259Y-239451D02*
D03*
X46851D02*
D03*
X46850Y-188269D02*
D03*
X46851Y-205986D02*
D03*
X21259D02*
D03*
X295079Y-263072D02*
D03*
X295079Y-280789D02*
D03*
X269488D02*
D03*
X88508Y-91017D02*
D03*
X108193D02*
D03*
X98350D02*
D03*
X115748Y-257167D02*
D03*
X115748Y-239451D02*
D03*
X141339D02*
D03*
X68504Y-257167D02*
D03*
X68503Y-239451D02*
D03*
X94095D02*
D03*
X504921Y-263072D02*
D03*
X504922Y-280789D02*
D03*
X479330D02*
D03*
X452559Y-263072D02*
D03*
X452559Y-280789D02*
D03*
X426968D02*
D03*
X400197Y-263072D02*
D03*
X400197Y-280789D02*
D03*
X374606D02*
D03*
X347441Y-263072D02*
D03*
X347441Y-280789D02*
D03*
X321850D02*
D03*
X242716Y-263072D02*
D03*
X242717Y-280789D02*
D03*
X217125D02*
D03*
X141338Y-188269D02*
D03*
X141339Y-205986D02*
D03*
X115748D02*
D03*
X94094Y-188269D02*
D03*
X94095Y-205986D02*
D03*
X68503D02*
D03*
D51*
X33705Y-16919D02*
D03*
X162992Y-188269D02*
D03*
X188583Y-257167D02*
D03*
X46850D02*
D03*
X21260Y-188269D02*
D03*
X269488Y-263072D02*
D03*
X141338Y-257167D02*
D03*
X94094D02*
D03*
X479331Y-263072D02*
D03*
X426968D02*
D03*
X374606D02*
D03*
X321850D02*
D03*
X217126D02*
D03*
X115748Y-188269D02*
D03*
X68504D02*
D03*
D52*
X356571Y-125474D02*
D03*
D53*
X22760Y-118577D02*
D03*
X54256D02*
D03*
X82602D02*
D03*
X114098D02*
D03*
D54*
X16964Y-66277D02*
D03*
D55*
X45311Y-47380D02*
D03*
D56*
X33500Y-66277D02*
D03*
D57*
X57122D02*
D03*
D58*
X132803Y-34699D02*
D03*
Y-15013D02*
D03*
X122960Y-44541D02*
D03*
Y-24856D02*
D03*
X113118Y-34699D02*
D03*
Y-15013D02*
D03*
D59*
X245500Y-48636D02*
D03*
D60*
Y-23636D02*
D03*
D61*
X555988Y-20269D02*
D03*
Y-218769D02*
D03*
X217799D02*
D03*
Y-20269D02*
D03*
D62*
X695000Y-237277D02*
D03*
X677500Y-265277D02*
D03*
X613500Y-224777D02*
D03*
X669385Y-251064D02*
D03*
X677500Y-257777D02*
D03*
X677527Y-234923D02*
D03*
X193522Y-48636D02*
D03*
X148742Y-34699D02*
D03*
X443297Y-130575D02*
D03*
X502500Y-146277D02*
D03*
X462500Y-196277D02*
D03*
X445564Y-168771D02*
D03*
X485000Y-186277D02*
D03*
X462500D02*
D03*
X353000Y-182277D02*
D03*
X409500Y-197277D02*
D03*
X253500Y-187777D02*
D03*
X444500Y-213777D02*
D03*
X34000Y-288277D02*
D03*
X215000Y-240777D02*
D03*
X200500Y-141777D02*
D03*
X181500Y-76277D02*
D03*
X67000Y-78277D02*
D03*
X67500Y-155277D02*
D03*
X159500Y-290777D02*
D03*
X608000Y-25277D02*
D03*
X696500Y-26277D02*
D03*
X710000Y-289777D02*
D03*
X578000Y-261277D02*
D03*
X540500Y-287777D02*
D03*
X406500Y-157277D02*
D03*
X404500Y-70277D02*
D03*
X256000Y-93777D02*
D03*
X298000Y-169777D02*
D03*
X349500Y-205277D02*
D03*
X303500Y-204277D02*
D03*
X251000Y-212777D02*
D03*
X535000Y-44777D02*
D03*
X539500Y-48277D02*
D03*
X532500Y-50277D02*
D03*
X502000Y-96277D02*
D03*
X543000Y-44777D02*
D03*
X514000Y-41777D02*
D03*
X519000Y-42777D02*
D03*
X524000Y-43277D02*
D03*
X529000Y-43777D02*
D03*
X502000Y-36277D02*
D03*
X521000Y-126277D02*
D03*
X525500Y-121777D02*
D03*
X530000Y-117777D02*
D03*
X517500Y-131277D02*
D03*
X514000Y-135777D02*
D03*
X502500Y-86277D02*
D03*
X462000Y-86777D02*
D03*
X502000Y-76277D02*
D03*
Y-66277D02*
D03*
Y-56277D02*
D03*
Y-46277D02*
D03*
X462000Y-76277D02*
D03*
Y-66277D02*
D03*
Y-56277D02*
D03*
Y-46777D02*
D03*
Y-36277D02*
D03*
X502000Y-136277D02*
D03*
Y-126277D02*
D03*
Y-116277D02*
D03*
Y-106277D02*
D03*
X462000Y-116277D02*
D03*
Y-126277D02*
D03*
Y-106777D02*
D03*
Y-96277D02*
D03*
X508500Y-176277D02*
D03*
X395327Y-181379D02*
D03*
X369291Y-194805D02*
D03*
X624409Y-251064D02*
D03*
X385138Y-198375D02*
D03*
X624803Y-242009D02*
D03*
X475984Y-216025D02*
D03*
X492027Y-216222D02*
D03*
X641732Y-276261D02*
D03*
X415138Y-193470D02*
D03*
D63*
X11811Y-287679D02*
D03*
Y-16025D02*
D03*
X724409Y-287679D02*
D03*
Y-16025D02*
D03*
X590157Y-151852D02*
D03*
X700394D02*
D03*
D64*
X287008Y-48702D02*
D03*
D65*
X645275Y-151852D02*
D03*
D66*
X687740Y-245769D02*
D03*
Y-250100D02*
D03*
Y-254431D02*
D03*
Y-258761D02*
D03*
Y-263092D02*
D03*
Y-241439D02*
D03*
Y-237108D02*
D03*
Y-232777D02*
D03*
D67*
X688232Y-223131D02*
D03*
D68*
X718153Y-268801D02*
D03*
D69*
X724059Y-267521D02*
D03*
D70*
X720713Y-221754D02*
D03*
D71*
X730260Y-223328D02*
D03*
D72*
X192433Y-83277D02*
D03*
X177079D02*
D03*
X145142Y-66277D02*
D03*
X129788D02*
D03*
D73*
X191449Y-85393D02*
D03*
Y-81161D02*
D03*
X178063D02*
D03*
Y-85393D02*
D03*
X144158Y-68393D02*
D03*
Y-64161D02*
D03*
X130772D02*
D03*
Y-68393D02*
D03*
D74*
X184523Y-49277D02*
D03*
D75*
X156177Y-40261D02*
D03*
Y-58293D02*
D03*
D76*
X201500Y-77423D02*
D03*
Y-83131D02*
D03*
D77*
X171000Y-69931D02*
D03*
Y-76624D02*
D03*
D78*
X161331Y-76517D02*
D03*
X152669Y-72777D02*
D03*
X161331Y-69037D02*
D03*
D79*
X128346Y-56777D02*
D03*
X121653D02*
D03*
X137307D02*
D03*
X144000D02*
D03*
D80*
X415138Y-205218D02*
D03*
X410138D02*
D03*
X405138D02*
D03*
X400138D02*
D03*
X395138D02*
D03*
X390138D02*
D03*
X385138D02*
D03*
X380138D02*
D03*
Y-226478D02*
D03*
X385138D02*
D03*
X390138D02*
D03*
X395138D02*
D03*
X400138D02*
D03*
X405138D02*
D03*
X410138D02*
D03*
X415138D02*
D03*
D81*
X472303Y-36222D02*
D03*
Y-46222D02*
D03*
Y-56222D02*
D03*
Y-66222D02*
D03*
Y-76222D02*
D03*
Y-86222D02*
D03*
Y-96222D02*
D03*
Y-106222D02*
D03*
Y-116222D02*
D03*
Y-126222D02*
D03*
Y-136222D02*
D03*
Y-146222D02*
D03*
Y-156222D02*
D03*
Y-166222D02*
D03*
Y-176222D02*
D03*
Y-186222D02*
D03*
Y-196222D02*
D03*
Y-206222D02*
D03*
Y-216222D02*
D03*
Y-226222D02*
D03*
Y-236222D02*
D03*
Y-246222D02*
D03*
X492027D02*
D03*
Y-236222D02*
D03*
Y-226222D02*
D03*
Y-216222D02*
D03*
Y-206222D02*
D03*
Y-196222D02*
D03*
Y-186222D02*
D03*
Y-176222D02*
D03*
Y-166222D02*
D03*
Y-156222D02*
D03*
Y-146222D02*
D03*
Y-136222D02*
D03*
Y-126222D02*
D03*
Y-116222D02*
D03*
Y-106222D02*
D03*
Y-96222D02*
D03*
Y-86222D02*
D03*
Y-76222D02*
D03*
Y-66222D02*
D03*
Y-56222D02*
D03*
Y-46222D02*
D03*
Y-36222D02*
D03*
D82*
X242913Y-198777D02*
D03*
Y-193777D02*
D03*
Y-188777D02*
D03*
Y-183777D02*
D03*
Y-178777D02*
D03*
Y-173777D02*
D03*
Y-168777D02*
D03*
Y-163777D02*
D03*
X221653D02*
D03*
Y-168777D02*
D03*
Y-173777D02*
D03*
Y-178777D02*
D03*
Y-183777D02*
D03*
Y-188777D02*
D03*
Y-193777D02*
D03*
Y-198777D02*
D03*
D83*
X305905Y-36891D02*
D03*
Y-47915D02*
D03*
X296457Y-36891D02*
D03*
Y-47915D02*
D03*
X277953Y-36891D02*
D03*
Y-47915D02*
D03*
X268898Y-36891D02*
D03*
Y-47915D02*
D03*
X287401Y-36891D02*
D03*
Y-47915D02*
D03*
D84*
X652362Y-263269D02*
D03*
Y-275080D02*
D03*
D85*
X305905Y-47915D02*
X306329Y-49293D01*
X296457D02*
Y-47915D01*
M02*
