G04*
G04 #@! TF.GenerationSoftware,Altium Limited,Altium Designer,19.1.8 (144)*
G04*
G04 Layer_Color=32896*
%FSLAX25Y25*%
%MOIN*%
G70*
G01*
G75*
%ADD10C,0.01000*%
%ADD12C,0.01235*%
%ADD93C,0.00984*%
%ADD94C,0.00787*%
%ADD95C,0.01575*%
G36*
X652362Y-279921D02*
X652533Y-279936D01*
X652699Y-279981D01*
X652854Y-280053D01*
X652994Y-280152D01*
X653116Y-280273D01*
X653214Y-280413D01*
X653287Y-280569D01*
X653331Y-280735D01*
X653346Y-280906D01*
X653331Y-281076D01*
X653287Y-281242D01*
X653214Y-281398D01*
X653116Y-281538D01*
X652994Y-281660D01*
X652854Y-281758D01*
X652699Y-281830D01*
X652533Y-281875D01*
X652362Y-281890D01*
X652191Y-281875D01*
X652026Y-281830D01*
X651870Y-281758D01*
X651730Y-281660D01*
X651609Y-281538D01*
X651510Y-281398D01*
X651438Y-281242D01*
X651393Y-281076D01*
X651378Y-280906D01*
X651393Y-280735D01*
X651438Y-280569D01*
X651510Y-280413D01*
X651609Y-280273D01*
X651730Y-280152D01*
X651870Y-280053D01*
X652026Y-279981D01*
X652191Y-279936D01*
X652362Y-279921D01*
D01*
D02*
G37*
G36*
X507952Y-37309D02*
X507712Y-37288D01*
X507480Y-37226D01*
X507262Y-37124D01*
X507065Y-36987D01*
X506895Y-36817D01*
X506757Y-36621D01*
X506656Y-36404D01*
X506594Y-36172D01*
X506572Y-35933D01*
X506594Y-35694D01*
X506656Y-35462D01*
X506757Y-35245D01*
X506895Y-35048D01*
X507065Y-34878D01*
X507262Y-34741D01*
X507480Y-34639D01*
X507712Y-34577D01*
X507952Y-34556D01*
X508191Y-34577D01*
X508423Y-34639D01*
X508641Y-34741D01*
X508838Y-34878D01*
X509008Y-35048D01*
X509146Y-35245D01*
X509248Y-35462D01*
X509310Y-35694D01*
X509331Y-35933D01*
X509310Y-36172D01*
X509248Y-36404D01*
X509146Y-36621D01*
X509008Y-36817D01*
X508838Y-36987D01*
X508641Y-37124D01*
X508423Y-37226D01*
X508191Y-37288D01*
X507952Y-37309D01*
D01*
D02*
G37*
D10*
X417322Y-213602D02*
X416338Y-213865D01*
X415617Y-214586D01*
X415353Y-215571D01*
X415617Y-216556D01*
X416338Y-217276D01*
X417322Y-217540D01*
X730193Y-223326D02*
X729973Y-224302D01*
X729763Y-225281D01*
X729563Y-226261D01*
X729374Y-227244D01*
X729194Y-228228D01*
X729025Y-229215D01*
X728866Y-230203D01*
X728718Y-231192D01*
X728580Y-232183D01*
X728452Y-233176D01*
X728334Y-234169D01*
X728227Y-235164D01*
X728130Y-236160D01*
X728043Y-237157D01*
X727967Y-238155D01*
X727901Y-239154D01*
X727846Y-240153D01*
X727801Y-241152D01*
X727766Y-242152D01*
X727742Y-243153D01*
X727728Y-244153D01*
X727724Y-245154D01*
X727731Y-246155D01*
X727748Y-247155D01*
X727776Y-248155D01*
X727814Y-249155D01*
X727862Y-250155D01*
X727921Y-251154D01*
X727990Y-252152D01*
X728070Y-253150D01*
X728160Y-254146D01*
X728260Y-255142D01*
X728371Y-256137D01*
X728492Y-257130D01*
X728623Y-258122D01*
X728764Y-259113D01*
X728916Y-260102D01*
X729078Y-261089D01*
X729251Y-262075D01*
X729433Y-263059D01*
X729626Y-264041D01*
X729829Y-265020D01*
X729736Y-264564D02*
X730140Y-265392D01*
X730733Y-266098D01*
X731478Y-266640D01*
X732333Y-266985D01*
X733245Y-267114D01*
X733235Y-221457D02*
X732279Y-221667D01*
X731407Y-222113D01*
X730678Y-222767D01*
X730140Y-223584D01*
X263020Y-35859D02*
X262991Y-34859D01*
X262906Y-33862D01*
X262763Y-32872D01*
X262564Y-31891D01*
X262310Y-30923D01*
X262001Y-29972D01*
X261638Y-29039D01*
X261222Y-28129D01*
X260755Y-27244D01*
X260239Y-26387D01*
X259674Y-25561D01*
X259063Y-24769D01*
X258407Y-24013D01*
X257710Y-23295D01*
X256973Y-22619D01*
X256198Y-21985D01*
X255389Y-21397D01*
X254547Y-20856D01*
X253676Y-20364D01*
X252778Y-19923D01*
X251856Y-19533D01*
X250914Y-19197D01*
X249954Y-18915D01*
X248979Y-18688D01*
X247993Y-18518D01*
X246999Y-18404D01*
X246000Y-18347D01*
X245000D01*
X244001Y-18404D01*
X243007Y-18518D01*
X242021Y-18688D01*
X241046Y-18915D01*
X240086Y-19197D01*
X239144Y-19533D01*
X238222Y-19923D01*
X237324Y-20364D01*
X236453Y-20856D01*
X235611Y-21397D01*
X234802Y-21985D01*
X234027Y-22619D01*
X233290Y-23295D01*
X232593Y-24013D01*
X231937Y-24769D01*
X231326Y-25561D01*
X230762Y-26387D01*
X230245Y-27244D01*
X229778Y-28129D01*
X229362Y-29039D01*
X228999Y-29972D01*
X228690Y-30923D01*
X228436Y-31891D01*
X228237Y-32871D01*
X228095Y-33862D01*
X228009Y-34859D01*
X227980Y-35859D01*
X228009Y-36859D01*
X228095Y-37856D01*
X228237Y-38846D01*
X228436Y-39827D01*
X228690Y-40795D01*
X228999Y-41747D01*
X229362Y-42679D01*
X229778Y-43589D01*
X230245Y-44474D01*
X230762Y-45331D01*
X231326Y-46157D01*
X231937Y-46949D01*
X232593Y-47705D01*
X233290Y-48423D01*
X234027Y-49099D01*
X234802Y-49733D01*
X235611Y-50321D01*
X236453Y-50862D01*
X237324Y-51354D01*
X238222Y-51796D01*
X239144Y-52185D01*
X240086Y-52521D01*
X241046Y-52803D01*
X242021Y-53030D01*
X243007Y-53200D01*
X244001Y-53315D01*
X245000Y-53372D01*
X246000Y-53372D01*
X246999Y-53315D01*
X247993Y-53200D01*
X248979Y-53030D01*
X249954Y-52803D01*
X250914Y-52521D01*
X251856Y-52185D01*
X252778Y-51796D01*
X253676Y-51354D01*
X254547Y-50862D01*
X255389Y-50321D01*
X256198Y-49733D01*
X256973Y-49100D01*
X257710Y-48423D01*
X258407Y-47706D01*
X259063Y-46949D01*
X259674Y-46157D01*
X260239Y-45331D01*
X260755Y-44474D01*
X261222Y-43589D01*
X261638Y-42679D01*
X262001Y-41747D01*
X262310Y-40795D01*
X262564Y-39827D01*
X262763Y-38847D01*
X262906Y-37856D01*
X262991Y-36859D01*
X263020Y-35859D01*
X234253Y-200685D02*
X233989Y-199700D01*
X233268Y-198979D01*
X232283Y-198715D01*
X231299Y-198979D01*
X230578Y-199700D01*
X230314Y-200685D01*
X381213Y-168543D02*
Y-111457D01*
X282787Y-168543D02*
X381213D01*
X282787D02*
Y-111457D01*
X381213D01*
X360071Y-160197D02*
Y-120196D01*
Y-160197D02*
X380071D01*
Y-120196D01*
X360071D02*
X380071D01*
X377520Y-23622D02*
Y-12598D01*
X407520D01*
Y-23622D02*
Y-12598D01*
X377520Y-23622D02*
X407520D01*
X417321Y-213601D02*
Y-210452D01*
Y-220690D02*
Y-217540D01*
X377954Y-220690D02*
Y-210452D01*
X417321D01*
X377954Y-220690D02*
X417321D01*
X3185Y-48283D02*
X34680D01*
X55943D02*
X59878D01*
Y-54978D02*
Y-48283D01*
Y-83717D02*
Y-77022D01*
X3185Y-83717D02*
X59878D01*
X3185D02*
Y-48283D01*
X733268Y-270824D02*
Y-267114D01*
X729329Y-270824D02*
X733268D01*
Y-221454D02*
Y-217325D01*
X729728D02*
X733268D01*
X696047Y-270824D02*
X717512D01*
X676181D02*
X684459D01*
X676181D02*
Y-217325D01*
X685030D01*
X696675D02*
X717740D01*
X462264Y-16949D02*
X504271D01*
Y-264941D02*
Y-16949D01*
X462264Y-264941D02*
X504271D01*
X462264D02*
Y-16949D01*
X333839Y-23622D02*
Y-12598D01*
X363839D01*
Y-23622D02*
Y-12598D01*
X333839Y-23622D02*
X363839D01*
X109063Y-10563D02*
X136937D01*
Y-48437D02*
Y-10563D01*
X109063Y-48437D02*
X136937D01*
X109063D02*
Y-10563D01*
X69000Y-25012D02*
Y-13988D01*
X99000D01*
Y-25012D02*
Y-13988D01*
X69000Y-25012D02*
X99000D01*
X178500D02*
Y-13988D01*
X148500Y-25012D02*
X178500D01*
X148500D02*
Y-13988D01*
X178500D01*
X663585Y-273428D02*
X668699D01*
X599490Y-240039D02*
Y-230039D01*
X559487Y-240039D02*
X599490D01*
X559487D02*
Y-230039D01*
X599490D01*
X245500Y-57661D02*
Y-55298D01*
X244319Y-56481D02*
X246681D01*
X234253Y-200683D02*
X237402D01*
X227165D02*
X230314D01*
X227165Y-161317D02*
X237402D01*
Y-200683D02*
Y-161317D01*
X227165Y-200683D02*
Y-161317D01*
X309052Y-43304D02*
Y-40948D01*
X302759Y-43304D02*
Y-40948D01*
Y-43304D02*
X309052D01*
X302759Y-42559D02*
X309052D01*
X299603Y-43304D02*
Y-40948D01*
X293310Y-43304D02*
Y-40948D01*
Y-43304D02*
X299603D01*
X293310Y-42559D02*
X299603D01*
X281099Y-43304D02*
Y-40948D01*
X274806Y-43304D02*
Y-40948D01*
Y-43304D02*
X281099D01*
X274806Y-42559D02*
X281099D01*
X272044Y-43304D02*
Y-40948D01*
X265751Y-43304D02*
Y-40948D01*
Y-43304D02*
X272044D01*
X265751Y-42559D02*
X272044D01*
X646457Y-275985D02*
Y-261811D01*
X658268Y-275985D02*
Y-261811D01*
X290548Y-43304D02*
Y-40948D01*
X284255Y-43304D02*
Y-40948D01*
Y-43304D02*
X290548D01*
X284255Y-42559D02*
X290548D01*
X183500Y-65000D02*
Y-59002D01*
X180501D01*
X179501Y-60002D01*
Y-62001D01*
X180501Y-63001D01*
X183500D01*
X181501D02*
X179501Y-65000D01*
X173503D02*
X177502D01*
X173503Y-61001D01*
Y-60002D01*
X174503Y-59002D01*
X176502D01*
X177502Y-60002D01*
X171504D02*
X170504Y-59002D01*
X168505D01*
X167505Y-60002D01*
Y-61001D01*
X168505Y-62001D01*
X167505Y-63001D01*
Y-64000D01*
X168505Y-65000D01*
X170504D01*
X171504Y-64000D01*
Y-63001D01*
X170504Y-62001D01*
X171504Y-61001D01*
Y-60002D01*
X170504Y-62001D02*
X168505D01*
X116500Y-59000D02*
Y-53002D01*
X113501D01*
X112501Y-54002D01*
Y-56001D01*
X113501Y-57001D01*
X116500D01*
X114501D02*
X112501Y-59000D01*
X106503D02*
X110502D01*
X106503Y-55001D01*
Y-54002D01*
X107503Y-53002D01*
X109502D01*
X110502Y-54002D01*
X104504Y-53002D02*
X100505D01*
Y-54002D01*
X104504Y-58000D01*
Y-59000D01*
X134000Y-68500D02*
Y-62502D01*
X131001D01*
X130001Y-63502D01*
Y-65501D01*
X131001Y-66501D01*
X134000D01*
X132001D02*
X130001Y-68500D01*
X124003D02*
X128002D01*
X124003Y-64501D01*
Y-63502D01*
X125003Y-62502D01*
X127002D01*
X128002Y-63502D01*
X118005Y-62502D02*
X120004Y-63502D01*
X122004Y-65501D01*
Y-67500D01*
X121004Y-68500D01*
X119005D01*
X118005Y-67500D01*
Y-66501D01*
X119005Y-65501D01*
X122004D01*
X144501Y-81000D02*
Y-77002D01*
X145501Y-76002D01*
X147500D01*
X148500Y-77002D01*
Y-81000D01*
X147500Y-82000D01*
X145501D01*
X146501Y-80001D02*
X144501Y-82000D01*
X145501D02*
X144501Y-81000D01*
X138503Y-82000D02*
X142502D01*
X138503Y-78001D01*
Y-77002D01*
X139503Y-76002D01*
X141502D01*
X142502Y-77002D01*
X204000Y-38499D02*
X200002D01*
X199002Y-37499D01*
Y-35500D01*
X200002Y-34500D01*
X204000D01*
X205000Y-35500D01*
Y-37499D01*
X203001Y-36499D02*
X205000Y-38499D01*
Y-37499D02*
X204000Y-38499D01*
X205000Y-40498D02*
Y-42497D01*
Y-41498D01*
X199002D01*
X200002Y-40498D01*
X186500Y-73502D02*
Y-79500D01*
X183501D01*
X182501Y-78500D01*
Y-74502D01*
X183501Y-73502D01*
X186500D01*
X176503Y-79500D02*
X180502D01*
X176503Y-75501D01*
Y-74502D01*
X177503Y-73502D01*
X179502D01*
X180502Y-74502D01*
X199002Y-77499D02*
X198002Y-76499D01*
Y-74500D01*
X199002Y-73500D01*
X203000D01*
X204000Y-74500D01*
Y-76499D01*
X203000Y-77499D01*
X204000Y-79498D02*
Y-81497D01*
Y-80498D01*
X198002D01*
X199002Y-79498D01*
X204000Y-84496D02*
Y-86496D01*
Y-85496D01*
X198002D01*
X199002Y-84496D01*
X408719Y-11372D02*
Y-7384D01*
X406725D01*
X406060Y-8049D01*
Y-9378D01*
X406725Y-10043D01*
X408719D01*
X407390D02*
X406060Y-11372D01*
X402072Y-7384D02*
X404731D01*
Y-9378D01*
X403402D01*
X404731D01*
Y-11372D01*
X400743Y-9378D02*
X398084D01*
X396755Y-7384D02*
Y-10707D01*
X396090Y-11372D01*
X394761D01*
X394096Y-10707D01*
Y-7384D01*
X392767Y-11372D02*
Y-7384D01*
X390108Y-11372D01*
Y-7384D01*
X388779D02*
X387449D01*
X388114D01*
Y-11372D01*
X388779D01*
X387449D01*
X385455Y-7384D02*
X382797D01*
X384126D01*
Y-11372D01*
X668000Y-243000D02*
Y-239012D01*
X666006D01*
X665341Y-239677D01*
Y-241006D01*
X666006Y-241671D01*
X668000D01*
X666671D02*
X665341Y-243000D01*
X661353D02*
X664012D01*
X661353Y-240341D01*
Y-239677D01*
X662018Y-239012D01*
X663347D01*
X664012Y-239677D01*
X660024D02*
X659359Y-239012D01*
X658030D01*
X657365Y-239677D01*
Y-240341D01*
X658030Y-241006D01*
X658694D01*
X658030D01*
X657365Y-241671D01*
Y-242335D01*
X658030Y-243000D01*
X659359D01*
X660024Y-242335D01*
X632500Y-236000D02*
X636488D01*
Y-234006D01*
X635823Y-233341D01*
X634494D01*
X633829Y-234006D01*
Y-236000D01*
Y-234671D02*
X632500Y-233341D01*
Y-229353D02*
Y-232012D01*
X635159Y-229353D01*
X635823D01*
X636488Y-230018D01*
Y-231347D01*
X635823Y-232012D01*
X632500Y-228024D02*
Y-226694D01*
Y-227359D01*
X636488D01*
X635823Y-228024D01*
X402679Y-195789D02*
Y-199113D01*
X402014Y-199777D01*
X400685D01*
X400020Y-199113D01*
Y-195789D01*
X396032Y-199777D02*
X398691D01*
X396032Y-197119D01*
Y-196454D01*
X396697Y-195789D01*
X398026D01*
X398691Y-196454D01*
X26500Y-41512D02*
X25171D01*
X25835D01*
Y-45500D01*
X26500D01*
X25171D01*
X23177D02*
Y-41512D01*
X20518Y-45500D01*
Y-41512D01*
X19188Y-46165D02*
X16530D01*
X12542Y-45500D02*
X15200D01*
X12542Y-42841D01*
Y-42177D01*
X13206Y-41512D01*
X14536D01*
X15200Y-42177D01*
X707489Y-208939D02*
X708819D01*
X708154D01*
Y-212262D01*
X708819Y-212927D01*
X709483D01*
X710148Y-212262D01*
X703501Y-212927D02*
X706160D01*
X703501Y-210268D01*
Y-209604D01*
X704166Y-208939D01*
X705495D01*
X706160Y-209604D01*
X488093Y-11734D02*
X489422D01*
X488757D01*
Y-15058D01*
X489422Y-15722D01*
X490087D01*
X490751Y-15058D01*
X486763Y-15722D02*
X485434D01*
X486098D01*
Y-11734D01*
X486763Y-12399D01*
X371491Y-11372D02*
Y-7384D01*
X370162Y-8713D01*
X368833Y-7384D01*
Y-11372D01*
X365509Y-7384D02*
X366839D01*
X367503Y-8049D01*
Y-10707D01*
X366839Y-11372D01*
X365509D01*
X364845Y-10707D01*
Y-8049D01*
X365509Y-7384D01*
X363515D02*
X360856D01*
X362186D01*
Y-11372D01*
X359527Y-7384D02*
Y-11372D01*
Y-9378D01*
X356868D01*
Y-7384D01*
Y-11372D01*
X352880Y-7384D02*
X355539D01*
Y-11372D01*
X352880D01*
X355539Y-9378D02*
X354210D01*
X351551Y-11372D02*
Y-7384D01*
X349557D01*
X348892Y-8049D01*
Y-9378D01*
X349557Y-10043D01*
X351551D01*
X350221D02*
X348892Y-11372D01*
X347563Y-7384D02*
Y-11372D01*
X345569D01*
X344904Y-10707D01*
Y-10043D01*
X345569Y-9378D01*
X347563D01*
X345569D01*
X344904Y-8713D01*
Y-8049D01*
X345569Y-7384D01*
X347563D01*
X341581D02*
X342910D01*
X343575Y-8049D01*
Y-10707D01*
X342910Y-11372D01*
X341581D01*
X340916Y-10707D01*
Y-8049D01*
X341581Y-7384D01*
X339586Y-11372D02*
Y-8713D01*
X338257Y-7384D01*
X336928Y-8713D01*
Y-11372D01*
Y-9378D01*
X339586D01*
X335598Y-11372D02*
Y-7384D01*
X333604D01*
X332940Y-8049D01*
Y-9378D01*
X333604Y-10043D01*
X335598D01*
X334269D02*
X332940Y-11372D01*
X331610Y-7384D02*
Y-11372D01*
X329616D01*
X328952Y-10707D01*
Y-8049D01*
X329616Y-7384D01*
X331610D01*
X127572Y-5348D02*
X124913D01*
X126242D01*
Y-9336D01*
X123584D02*
X122254D01*
X122919D01*
Y-5348D01*
X123584Y-6013D01*
X89716Y-8774D02*
X88387D01*
X89051D01*
Y-12762D01*
X89716D01*
X88387D01*
X86393D02*
Y-8774D01*
X83734Y-12762D01*
Y-8774D01*
X174061Y-12762D02*
Y-10103D01*
X172731Y-8774D01*
X171402Y-10103D01*
Y-12762D01*
Y-10768D01*
X174061D01*
X167414Y-9438D02*
X168079Y-8774D01*
X169408D01*
X170073Y-9438D01*
Y-12097D01*
X169408Y-12762D01*
X168079D01*
X167414Y-12097D01*
X163426Y-9438D02*
X164091Y-8774D01*
X165420D01*
X166085Y-9438D01*
Y-12097D01*
X165420Y-12762D01*
X164091D01*
X163426Y-12097D01*
X162097Y-8774D02*
Y-12097D01*
X161432Y-12762D01*
X160102D01*
X159438Y-12097D01*
Y-8774D01*
X158108Y-12762D02*
Y-8774D01*
X156779Y-10103D01*
X155450Y-8774D01*
Y-12762D01*
X666000Y-216000D02*
X669988D01*
Y-214006D01*
X669323Y-213341D01*
X667994D01*
X667329Y-214006D01*
Y-216000D01*
Y-214671D02*
X666000Y-213341D01*
Y-209353D02*
Y-212012D01*
X668659Y-209353D01*
X669323D01*
X669988Y-210018D01*
Y-211347D01*
X669323Y-212012D01*
Y-208024D02*
X669988Y-207359D01*
Y-206030D01*
X669323Y-205365D01*
X666665D01*
X666000Y-206030D01*
Y-207359D01*
X666665Y-208024D01*
X669323D01*
X667823Y-278841D02*
X668488Y-279506D01*
Y-280835D01*
X667823Y-281500D01*
X665165D01*
X664500Y-280835D01*
Y-279506D01*
X665165Y-278841D01*
Y-277512D02*
X664500Y-276847D01*
Y-275518D01*
X665165Y-274853D01*
X667823D01*
X668488Y-275518D01*
Y-276847D01*
X667823Y-277512D01*
X667159D01*
X666494Y-276847D01*
Y-274853D01*
X604659Y-211434D02*
X607318D01*
Y-215423D01*
X604659D01*
X607318Y-213428D02*
X605988D01*
X603330Y-215423D02*
Y-211434D01*
X600671Y-215423D01*
Y-211434D01*
X596683Y-212099D02*
X597347Y-211434D01*
X598677D01*
X599341Y-212099D01*
Y-214758D01*
X598677Y-215423D01*
X597347D01*
X596683Y-214758D01*
X593359Y-211434D02*
X594689D01*
X595353Y-212099D01*
Y-214758D01*
X594689Y-215423D01*
X593359D01*
X592695Y-214758D01*
Y-212099D01*
X593359Y-211434D01*
X591365D02*
Y-215423D01*
X589371D01*
X588706Y-214758D01*
Y-212099D01*
X589371Y-211434D01*
X591365D01*
X584718D02*
X587377D01*
Y-215423D01*
X584718D01*
X587377Y-213428D02*
X586048D01*
X583389Y-215423D02*
Y-211434D01*
X581395D01*
X580730Y-212099D01*
Y-213428D01*
X581395Y-214093D01*
X583389D01*
X582060D02*
X580730Y-215423D01*
X579401Y-216087D02*
X576742D01*
X575413Y-215423D02*
Y-211434D01*
X574083Y-212764D01*
X572754Y-211434D01*
Y-215423D01*
X571425D02*
Y-212764D01*
X570095Y-211434D01*
X568766Y-212764D01*
Y-215423D01*
Y-213428D01*
X571425D01*
X567437Y-211434D02*
X566107D01*
X566772D01*
Y-215423D01*
X567437D01*
X566107D01*
X564113D02*
Y-211434D01*
X561454Y-215423D01*
Y-211434D01*
X631000Y-267500D02*
X634988D01*
Y-265506D01*
X634323Y-264841D01*
X632994D01*
X632329Y-265506D01*
Y-267500D01*
Y-266171D02*
X631000Y-264841D01*
Y-260853D02*
Y-263512D01*
X633659Y-260853D01*
X634323D01*
X634988Y-261518D01*
Y-262847D01*
X634323Y-263512D01*
X631000Y-256865D02*
Y-259524D01*
X633659Y-256865D01*
X634323D01*
X634988Y-257530D01*
Y-258859D01*
X634323Y-259524D01*
X247885Y-13790D02*
X248549Y-13125D01*
X249879D01*
X250543Y-13790D01*
Y-16448D01*
X249879Y-17113D01*
X248549D01*
X247885Y-16448D01*
X243897Y-13125D02*
X245226Y-13790D01*
X246555Y-15119D01*
Y-16448D01*
X245890Y-17113D01*
X244561D01*
X243897Y-16448D01*
Y-15784D01*
X244561Y-15119D01*
X246555D01*
X236855Y-156102D02*
Y-159425D01*
X236191Y-160090D01*
X234861D01*
X234196Y-159425D01*
Y-156102D01*
X232867Y-160090D02*
X231538D01*
X232203D01*
Y-156102D01*
X232867Y-156767D01*
X139500Y-73988D02*
Y-70000D01*
X141494D01*
X142159Y-70665D01*
Y-73323D01*
X141494Y-73988D01*
X139500D01*
X143488Y-70000D02*
X144817D01*
X144153D01*
Y-73988D01*
X143488Y-73323D01*
X628500Y-258000D02*
Y-254012D01*
X626506D01*
X625841Y-254677D01*
Y-256006D01*
X626506Y-256671D01*
X628500D01*
X627171D02*
X625841Y-258000D01*
X621853D02*
X624512D01*
X621853Y-255341D01*
Y-254677D01*
X622518Y-254012D01*
X623847D01*
X624512Y-254677D01*
X617865Y-254012D02*
X620524D01*
Y-256006D01*
X619194Y-255341D01*
X618530D01*
X617865Y-256006D01*
Y-257335D01*
X618530Y-258000D01*
X619859D01*
X620524Y-257335D01*
X630000Y-237500D02*
Y-233512D01*
X628006D01*
X627341Y-234177D01*
Y-235506D01*
X628006Y-236171D01*
X630000D01*
X628671D02*
X627341Y-237500D01*
X623353D02*
X626012D01*
X623353Y-234841D01*
Y-234177D01*
X624018Y-233512D01*
X625347D01*
X626012Y-234177D01*
X620030Y-237500D02*
Y-233512D01*
X622024Y-235506D01*
X619365D01*
X307823Y-29341D02*
X308488Y-30006D01*
Y-31335D01*
X307823Y-32000D01*
X305165D01*
X304500Y-31335D01*
Y-30006D01*
X305165Y-29341D01*
X307823Y-28012D02*
X308488Y-27347D01*
Y-26018D01*
X307823Y-25353D01*
X307159D01*
X306494Y-26018D01*
X305829Y-25353D01*
X305165D01*
X304500Y-26018D01*
Y-27347D01*
X305165Y-28012D01*
X305829D01*
X306494Y-27347D01*
X307159Y-28012D01*
X307823D01*
X306494Y-27347D02*
Y-26018D01*
X297823Y-29341D02*
X298488Y-30006D01*
Y-31335D01*
X297823Y-32000D01*
X295165D01*
X294500Y-31335D01*
Y-30006D01*
X295165Y-29341D01*
X298488Y-28012D02*
Y-25353D01*
X297823D01*
X295165Y-28012D01*
X294500D01*
X279823Y-29341D02*
X280488Y-30006D01*
Y-31335D01*
X279823Y-32000D01*
X277165D01*
X276500Y-31335D01*
Y-30006D01*
X277165Y-29341D01*
X276500Y-26018D02*
X280488D01*
X278494Y-28012D01*
Y-25353D01*
X270323Y-29341D02*
X270988Y-30006D01*
Y-31335D01*
X270323Y-32000D01*
X267665D01*
X267000Y-31335D01*
Y-30006D01*
X267665Y-29341D01*
X270323Y-28012D02*
X270988Y-27347D01*
Y-26018D01*
X270323Y-25353D01*
X269659D01*
X268994Y-26018D01*
Y-26682D01*
Y-26018D01*
X268329Y-25353D01*
X267665D01*
X267000Y-26018D01*
Y-27347D01*
X267665Y-28012D01*
X654341Y-283677D02*
X655006Y-283012D01*
X656335D01*
X657000Y-283677D01*
Y-286335D01*
X656335Y-287000D01*
X655006D01*
X654341Y-286335D01*
X653012Y-287000D02*
X651683D01*
X652347D01*
Y-283012D01*
X653012Y-283677D01*
X649688D02*
X649024Y-283012D01*
X647694D01*
X647030Y-283677D01*
Y-286335D01*
X647694Y-287000D01*
X649024D01*
X649688Y-286335D01*
Y-283677D01*
X289323Y-29341D02*
X289988Y-30006D01*
Y-31335D01*
X289323Y-32000D01*
X286665D01*
X286000Y-31335D01*
Y-30006D01*
X286665Y-29341D01*
X289988Y-25353D02*
Y-28012D01*
X287994D01*
X288659Y-26682D01*
Y-26018D01*
X287994Y-25353D01*
X286665D01*
X286000Y-26018D01*
Y-27347D01*
X286665Y-28012D01*
D12*
X313921Y-119599D02*
Y-115538D01*
X320482D01*
Y-119599D01*
X317045Y-115538D02*
Y-118037D01*
X314859Y-125066D02*
X314234Y-124441D01*
X313921Y-123504D01*
Y-122254D01*
X314234Y-121317D01*
X314859Y-120692D01*
X315483D01*
X316108Y-121005D01*
X316421Y-121317D01*
X316733Y-121942D01*
X317358Y-123816D01*
X317670Y-124441D01*
X317983Y-124753D01*
X318607Y-125066D01*
X319545D01*
X320169Y-124441D01*
X320482Y-123504D01*
Y-122254D01*
X320169Y-121317D01*
X319545Y-120692D01*
X317358Y-126534D02*
Y-129346D01*
X317045Y-130283D01*
X316733Y-130595D01*
X316108Y-130908D01*
X315171D01*
X314546Y-130595D01*
X314234Y-130283D01*
X313921Y-129346D01*
Y-126534D01*
X320482D01*
X313921Y-133938D02*
X314234Y-133001D01*
X314859Y-132688D01*
X315483D01*
X316108Y-133001D01*
X316421Y-133625D01*
X316733Y-134875D01*
X317045Y-135812D01*
X317670Y-136437D01*
X318295Y-136749D01*
X319232D01*
X319857Y-136437D01*
X320169Y-136125D01*
X320482Y-135187D01*
Y-133938D01*
X320169Y-133001D01*
X319857Y-132688D01*
X319232Y-132376D01*
X318295D01*
X317670Y-132688D01*
X317045Y-133313D01*
X316733Y-134250D01*
X316421Y-135500D01*
X316108Y-136125D01*
X315483Y-136437D01*
X314859D01*
X314234Y-136125D01*
X313921Y-135187D01*
Y-133938D01*
X315483Y-138530D02*
X315171D01*
X314546Y-138843D01*
X314234Y-139155D01*
X313921Y-139780D01*
Y-141029D01*
X314234Y-141654D01*
X314546Y-141967D01*
X315171Y-142279D01*
X315796D01*
X316421Y-141967D01*
X317358Y-141342D01*
X320482Y-138218D01*
Y-142591D01*
X314859Y-147808D02*
X314234Y-147496D01*
X313921Y-146559D01*
Y-145934D01*
X314234Y-144997D01*
X315171Y-144372D01*
X316733Y-144060D01*
X318295D01*
X319545Y-144372D01*
X320169Y-144997D01*
X320482Y-145934D01*
Y-146246D01*
X320169Y-147184D01*
X319545Y-147808D01*
X318607Y-148121D01*
X318295D01*
X317358Y-147808D01*
X316733Y-147184D01*
X316421Y-146246D01*
Y-145934D01*
X316733Y-144997D01*
X317358Y-144372D01*
X318295Y-144060D01*
X314859Y-153307D02*
X314234Y-152994D01*
X313921Y-152057D01*
Y-151432D01*
X314234Y-150495D01*
X315171Y-149870D01*
X316733Y-149558D01*
X318295D01*
X319545Y-149870D01*
X320169Y-150495D01*
X320482Y-151432D01*
Y-151745D01*
X320169Y-152682D01*
X319545Y-153307D01*
X318607Y-153619D01*
X318295D01*
X317358Y-153307D01*
X316733Y-152682D01*
X316421Y-151745D01*
Y-151432D01*
X316733Y-150495D01*
X317358Y-149870D01*
X318295Y-149558D01*
X332740Y-122640D02*
Y-118579D01*
X339301D01*
Y-122640D01*
X335864Y-118579D02*
Y-121078D01*
X333678Y-128107D02*
X333053Y-127482D01*
X332740Y-126545D01*
Y-125296D01*
X333053Y-124359D01*
X333678Y-123734D01*
X334302D01*
X334927Y-124046D01*
X335240Y-124359D01*
X335552Y-124983D01*
X336177Y-126858D01*
X336489Y-127482D01*
X336802Y-127795D01*
X337426Y-128107D01*
X338364D01*
X338988Y-127482D01*
X339301Y-126545D01*
Y-125296D01*
X338988Y-124359D01*
X338364Y-123734D01*
X336177Y-129576D02*
Y-132387D01*
X335864Y-133324D01*
X335552Y-133637D01*
X334927Y-133949D01*
X333990D01*
X333365Y-133637D01*
X333053Y-133324D01*
X332740Y-132387D01*
Y-129576D01*
X339301D01*
X336489Y-135417D02*
Y-141041D01*
X332740Y-144852D02*
X333053Y-143915D01*
X333990Y-143290D01*
X335552Y-142977D01*
X336489D01*
X338051Y-143290D01*
X338988Y-143915D01*
X339301Y-144852D01*
Y-145477D01*
X338988Y-146414D01*
X338051Y-147039D01*
X336489Y-147351D01*
X335552D01*
X333990Y-147039D01*
X333053Y-146414D01*
X332740Y-145477D01*
Y-144852D01*
X333990Y-148819D02*
X333678Y-149444D01*
X332740Y-150381D01*
X339301D01*
D93*
X156146Y-57831D02*
X155408Y-57405D01*
Y-58257D01*
X156146Y-57831D01*
X161823Y-64626D02*
X161085Y-64200D01*
Y-65052D01*
X161823Y-64626D01*
D94*
X166677Y-30626D02*
X171193D01*
X166677Y-56374D02*
Y-30626D01*
Y-56374D02*
X171193D01*
X154441Y-78248D02*
Y-76043D01*
Y-78248D02*
X157000D01*
X154441Y-66752D02*
X157000D01*
X154441Y-68957D02*
Y-66752D01*
D95*
X187906Y-84575D02*
Y-81425D01*
X147406Y-67575D02*
Y-64425D01*
M02*
