G04*
G04 #@! TF.GenerationSoftware,Altium Limited,Altium Designer,19.1.8 (144)*
G04*
G04 Layer_Color=16711935*
%FSLAX25Y25*%
%MOIN*%
G70*
G01*
G75*
%ADD15R,0.05918X0.06706*%
%ADD16R,0.06706X0.05918*%
%ADD17C,0.07493*%
%ADD18R,0.07493X0.07493*%
%ADD19R,0.10642X0.10642*%
%ADD20C,0.08674*%
%ADD21R,0.09855X0.09855*%
%ADD22C,0.09855*%
%ADD23C,0.09461*%
%ADD24R,0.09461X0.09461*%
%ADD25R,0.07493X0.07493*%
%ADD26R,0.10642X0.14580*%
%ADD27C,0.12611*%
%ADD28O,0.18517X0.08674*%
%ADD29O,0.08674X0.18517*%
%ADD30O,0.08674X0.20485*%
%ADD31C,0.06706*%
%ADD32R,0.07099X0.07099*%
%ADD33C,0.07099*%
%ADD34C,0.13398*%
%ADD35C,0.04800*%
%ADD36C,0.16548*%
%ADD37C,0.87414*%
%ADD86R,0.07690X0.03556*%
%ADD87R,0.06706X0.06706*%
%ADD88R,0.06706X0.03950*%
%ADD89R,0.04737X0.06509*%
%ADD90R,0.06312X0.03950*%
%ADD91R,0.06902X0.04737*%
%ADD92R,0.03162X0.07296*%
%ADD93R,0.05131X0.03064*%
%ADD94R,0.25210X0.23635*%
%ADD95R,0.12611X0.07099*%
%ADD96R,0.06115X0.05328*%
%ADD97R,0.06509X0.05524*%
%ADD98R,0.06312X0.04737*%
%ADD99R,0.05524X0.06509*%
%ADD100R,0.03162X0.08674*%
%ADD101R,0.17493X0.05800*%
%ADD102R,0.08674X0.03162*%
%ADD103R,0.07887X0.07099*%
%ADD104R,0.09461X0.08674*%
D15*
X655760Y-235277D02*
D03*
X663240D02*
D03*
X640378Y-234777D02*
D03*
X632898D02*
D03*
X633071Y-251064D02*
D03*
X640551D02*
D03*
X633464Y-242797D02*
D03*
X640945D02*
D03*
D16*
X688232Y-267816D02*
D03*
X671000Y-236517D02*
D03*
Y-229037D02*
D03*
X665536Y-265646D02*
D03*
Y-273126D02*
D03*
X640551Y-257757D02*
D03*
Y-265238D02*
D03*
D17*
X302051Y-222269D02*
D03*
X311563D02*
D03*
X560500Y-34269D02*
D03*
X550500Y-44269D02*
D03*
X560500D02*
D03*
X550500Y-54269D02*
D03*
X560500D02*
D03*
X550500Y-64269D02*
D03*
X560500D02*
D03*
X550500Y-74269D02*
D03*
X560500D02*
D03*
X550500Y-84269D02*
D03*
X560500D02*
D03*
X550500Y-94269D02*
D03*
X560500D02*
D03*
X550500Y-104269D02*
D03*
X560500D02*
D03*
X550500Y-114269D02*
D03*
X560500D02*
D03*
X550500Y-124269D02*
D03*
X560500D02*
D03*
X550500Y-134269D02*
D03*
X560500D02*
D03*
X550500Y-144269D02*
D03*
X560500D02*
D03*
X550500Y-154269D02*
D03*
X560500D02*
D03*
X550500Y-164269D02*
D03*
X560500D02*
D03*
X550500Y-174269D02*
D03*
X560500D02*
D03*
X550500Y-184269D02*
D03*
X560500D02*
D03*
X550500Y-194269D02*
D03*
X560500D02*
D03*
Y-204269D02*
D03*
X550500D02*
D03*
X346571Y-125474D02*
D03*
X356571Y-135474D02*
D03*
X346571D02*
D03*
X356571Y-145474D02*
D03*
X346571D02*
D03*
X356571Y-155474D02*
D03*
X346571D02*
D03*
X564488Y-235316D02*
D03*
X574488D02*
D03*
X584488D02*
D03*
D18*
X550500Y-34269D02*
D03*
X594488Y-235316D02*
D03*
D19*
X135516Y-118183D02*
D03*
X183547D02*
D03*
D20*
X149138Y-90683D02*
D03*
X169138D02*
D03*
X149138Y-148183D02*
D03*
X159138D02*
D03*
X169138D02*
D03*
D21*
X76500Y-19777D02*
D03*
X171000D02*
D03*
X341338Y-18387D02*
D03*
X385020D02*
D03*
D22*
X91500Y-19777D02*
D03*
X156000D02*
D03*
X356338Y-18387D02*
D03*
X400020D02*
D03*
D23*
X59295Y-16919D02*
D03*
X59296Y-34635D02*
D03*
X33704D02*
D03*
X162992Y-205986D02*
D03*
X188583D02*
D03*
X188583Y-188269D02*
D03*
X28665Y-91017D02*
D03*
X48350D02*
D03*
X38508D02*
D03*
X162992Y-257167D02*
D03*
X162992Y-239451D02*
D03*
X188583D02*
D03*
X21260Y-257167D02*
D03*
X21259Y-239451D02*
D03*
X46851D02*
D03*
X46850Y-188269D02*
D03*
X46851Y-205986D02*
D03*
X21259D02*
D03*
X295079Y-263072D02*
D03*
X295079Y-280789D02*
D03*
X269488D02*
D03*
X88508Y-91017D02*
D03*
X108193D02*
D03*
X98350D02*
D03*
X115748Y-257167D02*
D03*
X115748Y-239451D02*
D03*
X141339D02*
D03*
X68504Y-257167D02*
D03*
X68503Y-239451D02*
D03*
X94095D02*
D03*
X504921Y-263072D02*
D03*
X504922Y-280789D02*
D03*
X479330D02*
D03*
X452559Y-263072D02*
D03*
X452559Y-280789D02*
D03*
X426968D02*
D03*
X400197Y-263072D02*
D03*
X400197Y-280789D02*
D03*
X374606D02*
D03*
X347441Y-263072D02*
D03*
X347441Y-280789D02*
D03*
X321850D02*
D03*
X242716Y-263072D02*
D03*
X242717Y-280789D02*
D03*
X217125D02*
D03*
X141338Y-188269D02*
D03*
X141339Y-205986D02*
D03*
X115748D02*
D03*
X94094Y-188269D02*
D03*
X94095Y-205986D02*
D03*
X68503D02*
D03*
D24*
X33705Y-16919D02*
D03*
X162992Y-188269D02*
D03*
X188583Y-257167D02*
D03*
X46850D02*
D03*
X21260Y-188269D02*
D03*
X269488Y-263072D02*
D03*
X141338Y-257167D02*
D03*
X94094D02*
D03*
X479331Y-263072D02*
D03*
X426968D02*
D03*
X374606D02*
D03*
X321850D02*
D03*
X217126D02*
D03*
X115748Y-188269D02*
D03*
X68504D02*
D03*
D25*
X356571Y-125474D02*
D03*
D26*
X22760Y-118577D02*
D03*
X54256D02*
D03*
X82602D02*
D03*
X114098D02*
D03*
D27*
X16964Y-66277D02*
D03*
D28*
X45311Y-47380D02*
D03*
D29*
X33500Y-66277D02*
D03*
D30*
X57122D02*
D03*
D31*
X132803Y-34699D02*
D03*
Y-15013D02*
D03*
X122960Y-44541D02*
D03*
Y-24856D02*
D03*
X113118Y-34699D02*
D03*
Y-15013D02*
D03*
D32*
X245500Y-48636D02*
D03*
D33*
Y-23636D02*
D03*
D34*
X555988Y-20269D02*
D03*
Y-218769D02*
D03*
X217799D02*
D03*
Y-20269D02*
D03*
D35*
X695000Y-237277D02*
D03*
X677500Y-265277D02*
D03*
X613500Y-224777D02*
D03*
X669385Y-251064D02*
D03*
X677500Y-257777D02*
D03*
X677527Y-234923D02*
D03*
D36*
X11811Y-287679D02*
D03*
Y-16025D02*
D03*
X724409Y-287679D02*
D03*
Y-16025D02*
D03*
X590157Y-151852D02*
D03*
X700394D02*
D03*
D37*
X645275D02*
D03*
D86*
X687740Y-245769D02*
D03*
Y-250100D02*
D03*
Y-254431D02*
D03*
Y-258761D02*
D03*
Y-263092D02*
D03*
Y-241439D02*
D03*
Y-237108D02*
D03*
Y-232777D02*
D03*
D87*
X688232Y-223131D02*
D03*
D88*
X718153Y-268801D02*
D03*
D89*
X724059Y-267521D02*
D03*
D90*
X720713Y-221754D02*
D03*
D91*
X730260Y-223328D02*
D03*
D92*
X192433Y-83277D02*
D03*
X177079D02*
D03*
X145142Y-66277D02*
D03*
X129788D02*
D03*
D93*
X191449Y-85393D02*
D03*
Y-81161D02*
D03*
X178063D02*
D03*
Y-85393D02*
D03*
X144158Y-68393D02*
D03*
Y-64161D02*
D03*
X130772D02*
D03*
Y-68393D02*
D03*
D94*
X184523Y-49277D02*
D03*
D95*
X156177Y-40261D02*
D03*
Y-58293D02*
D03*
D96*
X201500Y-77423D02*
D03*
Y-83131D02*
D03*
D97*
X171000Y-69931D02*
D03*
Y-76624D02*
D03*
D98*
X161331Y-76517D02*
D03*
X152669Y-72777D02*
D03*
X161331Y-69037D02*
D03*
D99*
X128346Y-56777D02*
D03*
X121653D02*
D03*
X137307D02*
D03*
X144000D02*
D03*
D100*
X415138Y-205218D02*
D03*
X410138D02*
D03*
X405138D02*
D03*
X400138D02*
D03*
X395138D02*
D03*
X390138D02*
D03*
X385138D02*
D03*
X380138D02*
D03*
Y-226478D02*
D03*
X385138D02*
D03*
X390138D02*
D03*
X395138D02*
D03*
X400138D02*
D03*
X405138D02*
D03*
X410138D02*
D03*
X415138D02*
D03*
D101*
X472303Y-36222D02*
D03*
Y-46222D02*
D03*
Y-56222D02*
D03*
Y-66222D02*
D03*
Y-76222D02*
D03*
Y-86222D02*
D03*
Y-96222D02*
D03*
Y-106222D02*
D03*
Y-116222D02*
D03*
Y-126222D02*
D03*
Y-136222D02*
D03*
Y-146222D02*
D03*
Y-156222D02*
D03*
Y-166222D02*
D03*
Y-176222D02*
D03*
Y-186222D02*
D03*
Y-196222D02*
D03*
Y-206222D02*
D03*
Y-216222D02*
D03*
Y-226222D02*
D03*
Y-236222D02*
D03*
Y-246222D02*
D03*
X492027D02*
D03*
Y-236222D02*
D03*
Y-226222D02*
D03*
Y-216222D02*
D03*
Y-206222D02*
D03*
Y-196222D02*
D03*
Y-186222D02*
D03*
Y-176222D02*
D03*
Y-166222D02*
D03*
Y-156222D02*
D03*
Y-146222D02*
D03*
Y-136222D02*
D03*
Y-126222D02*
D03*
Y-116222D02*
D03*
Y-106222D02*
D03*
Y-96222D02*
D03*
Y-86222D02*
D03*
Y-76222D02*
D03*
Y-66222D02*
D03*
Y-56222D02*
D03*
Y-46222D02*
D03*
Y-36222D02*
D03*
D102*
X242913Y-198777D02*
D03*
Y-193777D02*
D03*
Y-188777D02*
D03*
Y-183777D02*
D03*
Y-178777D02*
D03*
Y-173777D02*
D03*
Y-168777D02*
D03*
Y-163777D02*
D03*
X221653D02*
D03*
Y-168777D02*
D03*
Y-173777D02*
D03*
Y-178777D02*
D03*
Y-183777D02*
D03*
Y-188777D02*
D03*
Y-193777D02*
D03*
Y-198777D02*
D03*
D103*
X305905Y-36891D02*
D03*
Y-47915D02*
D03*
X296457Y-36891D02*
D03*
Y-47915D02*
D03*
X277953Y-36891D02*
D03*
Y-47915D02*
D03*
X268898Y-36891D02*
D03*
Y-47915D02*
D03*
X287401Y-36891D02*
D03*
Y-47915D02*
D03*
D104*
X652362Y-263269D02*
D03*
Y-275080D02*
D03*
M02*
