G04*
G04 #@! TF.GenerationSoftware,Altium Limited,Altium Designer,19.1.8 (144)*
G04*
G04 Layer_Color=16711935*
%FSLAX25Y25*%
%MOIN*%
G70*
G01*
G75*
%ADD15R,0.05918X0.06706*%
%ADD16R,0.06706X0.05918*%
%ADD17C,0.07493*%
%ADD18R,0.07493X0.07493*%
%ADD19R,0.10642X0.10642*%
%ADD20C,0.08674*%
%ADD21R,0.09855X0.09855*%
%ADD22C,0.09855*%
%ADD23C,0.09461*%
%ADD24R,0.09461X0.09461*%
%ADD25R,0.07493X0.07493*%
%ADD26R,0.10642X0.14580*%
%ADD27C,0.12611*%
%ADD28O,0.18517X0.08674*%
%ADD29O,0.08674X0.18517*%
%ADD30O,0.08674X0.20485*%
%ADD31C,0.06706*%
%ADD32R,0.07099X0.07099*%
%ADD33C,0.07099*%
%ADD34C,0.13398*%
%ADD35C,0.04800*%
%ADD36C,0.16548*%
%ADD37C,0.87414*%
%ADD86R,0.07690X0.03556*%
%ADD87R,0.06706X0.06706*%
%ADD88R,0.06706X0.03950*%
%ADD89R,0.04737X0.06509*%
%ADD90R,0.06312X0.03950*%
%ADD91R,0.06902X0.04737*%
%ADD92R,0.03162X0.07296*%
%ADD93R,0.05131X0.03064*%
%ADD94R,0.25210X0.23635*%
%ADD95R,0.12611X0.07099*%
%ADD96R,0.06115X0.05328*%
%ADD97R,0.06509X0.05524*%
%ADD98R,0.06312X0.04737*%
%ADD99R,0.05524X0.06509*%
%ADD100R,0.03162X0.08674*%
%ADD101R,0.17493X0.05800*%
%ADD102R,0.08674X0.03162*%
%ADD103R,0.07887X0.07099*%
%ADD104R,0.09461X0.08674*%
D15*
X655760Y-235000D02*
D03*
X663240D02*
D03*
X640378Y-234500D02*
D03*
X632898D02*
D03*
X633071Y-250787D02*
D03*
X640551D02*
D03*
X633464Y-242520D02*
D03*
X640945D02*
D03*
D16*
X688232Y-267539D02*
D03*
X671000Y-236240D02*
D03*
Y-228760D02*
D03*
X665536Y-265369D02*
D03*
Y-272849D02*
D03*
X640551Y-257480D02*
D03*
Y-264961D02*
D03*
D17*
X302051Y-221992D02*
D03*
X311563D02*
D03*
X560500Y-33992D02*
D03*
X550500Y-43992D02*
D03*
X560500D02*
D03*
X550500Y-53992D02*
D03*
X560500D02*
D03*
X550500Y-63992D02*
D03*
X560500D02*
D03*
X550500Y-73992D02*
D03*
X560500D02*
D03*
X550500Y-83992D02*
D03*
X560500D02*
D03*
X550500Y-93992D02*
D03*
X560500D02*
D03*
X550500Y-103992D02*
D03*
X560500D02*
D03*
X550500Y-113992D02*
D03*
X560500D02*
D03*
X550500Y-123992D02*
D03*
X560500D02*
D03*
X550500Y-133992D02*
D03*
X560500D02*
D03*
X550500Y-143992D02*
D03*
X560500D02*
D03*
X550500Y-153992D02*
D03*
X560500D02*
D03*
X550500Y-163992D02*
D03*
X560500D02*
D03*
X550500Y-173992D02*
D03*
X560500D02*
D03*
X550500Y-183992D02*
D03*
X560500D02*
D03*
X550500Y-193992D02*
D03*
X560500D02*
D03*
Y-203992D02*
D03*
X550500D02*
D03*
X346571Y-125197D02*
D03*
X356571Y-135197D02*
D03*
X346571D02*
D03*
X356571Y-145197D02*
D03*
X346571D02*
D03*
X356571Y-155197D02*
D03*
X346571D02*
D03*
X564488Y-235039D02*
D03*
X574488D02*
D03*
X584488D02*
D03*
D18*
X550500Y-33992D02*
D03*
X594488Y-235039D02*
D03*
D19*
X135516Y-117905D02*
D03*
X183547D02*
D03*
D20*
X149138Y-90405D02*
D03*
X169138D02*
D03*
X149138Y-147906D02*
D03*
X159138D02*
D03*
X169138D02*
D03*
D21*
X76500Y-19500D02*
D03*
X171000D02*
D03*
X341338Y-18110D02*
D03*
X385020D02*
D03*
D22*
X91500Y-19500D02*
D03*
X156000D02*
D03*
X356339Y-18110D02*
D03*
X400020D02*
D03*
D23*
X59295Y-16642D02*
D03*
X59296Y-34358D02*
D03*
X33704D02*
D03*
X162992Y-205709D02*
D03*
X188583D02*
D03*
X188583Y-187992D02*
D03*
X28665Y-90740D02*
D03*
X48350D02*
D03*
X38508D02*
D03*
X162992Y-256890D02*
D03*
X162992Y-239173D02*
D03*
X188583D02*
D03*
X21260Y-256890D02*
D03*
X21260Y-239173D02*
D03*
X46851D02*
D03*
X46850Y-187992D02*
D03*
X46851Y-205709D02*
D03*
X21260D02*
D03*
X295079Y-262795D02*
D03*
X295079Y-280512D02*
D03*
X269488D02*
D03*
X88508Y-90740D02*
D03*
X108193D02*
D03*
X98350D02*
D03*
X115748Y-256890D02*
D03*
X115748Y-239173D02*
D03*
X141339D02*
D03*
X68504Y-256890D02*
D03*
X68503Y-239173D02*
D03*
X94095D02*
D03*
X504921Y-262795D02*
D03*
X504922Y-280512D02*
D03*
X479330D02*
D03*
X452559Y-262795D02*
D03*
X452560Y-280512D02*
D03*
X426968D02*
D03*
X400197Y-262795D02*
D03*
X400197Y-280512D02*
D03*
X374606D02*
D03*
X347441Y-262795D02*
D03*
X347441Y-280512D02*
D03*
X321850D02*
D03*
X242717Y-262795D02*
D03*
X242717Y-280512D02*
D03*
X217126D02*
D03*
X141339Y-187992D02*
D03*
X141339Y-205709D02*
D03*
X115748D02*
D03*
X94095Y-187992D02*
D03*
X94095Y-205709D02*
D03*
X68503D02*
D03*
D24*
X33705Y-16642D02*
D03*
X162992Y-187992D02*
D03*
X188583Y-256890D02*
D03*
X46850D02*
D03*
X21260Y-187992D02*
D03*
X269488Y-262795D02*
D03*
X141339Y-256890D02*
D03*
X94095D02*
D03*
X479331Y-262795D02*
D03*
X426968D02*
D03*
X374606D02*
D03*
X321850D02*
D03*
X217126D02*
D03*
X115748Y-187992D02*
D03*
X68504D02*
D03*
D25*
X356571Y-125197D02*
D03*
D26*
X22760Y-118299D02*
D03*
X54256D02*
D03*
X82602D02*
D03*
X114099D02*
D03*
D27*
X16965Y-66000D02*
D03*
D28*
X45311Y-47102D02*
D03*
D29*
X33500Y-66000D02*
D03*
D30*
X57122D02*
D03*
D31*
X132803Y-34421D02*
D03*
Y-14736D02*
D03*
X122960Y-44264D02*
D03*
Y-24579D02*
D03*
X113118Y-34421D02*
D03*
Y-14736D02*
D03*
D32*
X245500Y-48359D02*
D03*
D33*
Y-23359D02*
D03*
D34*
X555988Y-19992D02*
D03*
Y-218492D02*
D03*
X217799D02*
D03*
Y-19992D02*
D03*
D35*
X695000Y-237000D02*
D03*
X677500Y-265000D02*
D03*
X613500Y-224500D02*
D03*
X669385Y-250787D02*
D03*
X677500Y-257500D02*
D03*
X677527Y-234646D02*
D03*
D36*
X11811Y-287402D02*
D03*
Y-15748D02*
D03*
X724409Y-287402D02*
D03*
Y-15748D02*
D03*
X590158Y-151575D02*
D03*
X700394D02*
D03*
D37*
X645275D02*
D03*
D86*
X687740Y-245492D02*
D03*
Y-249823D02*
D03*
Y-254153D02*
D03*
Y-258484D02*
D03*
Y-262815D02*
D03*
Y-241161D02*
D03*
Y-236831D02*
D03*
Y-232500D02*
D03*
D87*
X688232Y-222854D02*
D03*
D88*
X718153Y-268524D02*
D03*
D89*
X724059Y-267244D02*
D03*
D90*
X720713Y-221476D02*
D03*
D91*
X730260Y-223051D02*
D03*
D92*
X192433Y-83000D02*
D03*
X177079D02*
D03*
X145143Y-66000D02*
D03*
X129788D02*
D03*
D93*
X191449Y-85116D02*
D03*
Y-80884D02*
D03*
X178063D02*
D03*
Y-85116D02*
D03*
X144158Y-68116D02*
D03*
Y-63884D02*
D03*
X130772D02*
D03*
Y-68116D02*
D03*
D94*
X184524Y-49000D02*
D03*
D95*
X156177Y-39984D02*
D03*
Y-58016D02*
D03*
D96*
X201500Y-77146D02*
D03*
Y-82854D02*
D03*
D97*
X171000Y-69653D02*
D03*
Y-76346D02*
D03*
D98*
X161331Y-76240D02*
D03*
X152669Y-72500D02*
D03*
X161331Y-68760D02*
D03*
D99*
X128347Y-56500D02*
D03*
X121653D02*
D03*
X137307D02*
D03*
X144000D02*
D03*
D100*
X415138Y-204941D02*
D03*
X410138D02*
D03*
X405138D02*
D03*
X400138D02*
D03*
X395138D02*
D03*
X390138D02*
D03*
X385138D02*
D03*
X380138D02*
D03*
Y-226201D02*
D03*
X385138D02*
D03*
X390138D02*
D03*
X395138D02*
D03*
X400138D02*
D03*
X405138D02*
D03*
X410138D02*
D03*
X415138D02*
D03*
D101*
X472303Y-35945D02*
D03*
Y-45945D02*
D03*
Y-55945D02*
D03*
Y-65945D02*
D03*
Y-75945D02*
D03*
Y-85945D02*
D03*
Y-95945D02*
D03*
Y-105945D02*
D03*
Y-115945D02*
D03*
Y-125945D02*
D03*
Y-135945D02*
D03*
Y-145945D02*
D03*
Y-155945D02*
D03*
Y-165945D02*
D03*
Y-175945D02*
D03*
Y-185945D02*
D03*
Y-195945D02*
D03*
Y-205945D02*
D03*
Y-215945D02*
D03*
Y-225945D02*
D03*
Y-235945D02*
D03*
Y-245945D02*
D03*
X492028D02*
D03*
Y-235945D02*
D03*
Y-225945D02*
D03*
Y-215945D02*
D03*
Y-205945D02*
D03*
Y-195945D02*
D03*
Y-185945D02*
D03*
Y-175945D02*
D03*
Y-165945D02*
D03*
Y-155945D02*
D03*
Y-145945D02*
D03*
Y-135945D02*
D03*
Y-125945D02*
D03*
Y-115945D02*
D03*
Y-105945D02*
D03*
Y-95945D02*
D03*
Y-85945D02*
D03*
Y-75945D02*
D03*
Y-65945D02*
D03*
Y-55945D02*
D03*
Y-45945D02*
D03*
Y-35945D02*
D03*
D102*
X242913Y-198500D02*
D03*
Y-193500D02*
D03*
Y-188500D02*
D03*
Y-183500D02*
D03*
Y-178500D02*
D03*
Y-173500D02*
D03*
Y-168500D02*
D03*
Y-163500D02*
D03*
X221654D02*
D03*
Y-168500D02*
D03*
Y-173500D02*
D03*
Y-178500D02*
D03*
Y-183500D02*
D03*
Y-188500D02*
D03*
Y-193500D02*
D03*
Y-198500D02*
D03*
D103*
X305906Y-36614D02*
D03*
Y-47638D02*
D03*
X296457Y-36614D02*
D03*
Y-47638D02*
D03*
X277953Y-36614D02*
D03*
Y-47638D02*
D03*
X268898Y-36614D02*
D03*
Y-47638D02*
D03*
X287402Y-36614D02*
D03*
Y-47638D02*
D03*
D104*
X652362Y-262992D02*
D03*
Y-274803D02*
D03*
M02*
