G04*
G04 #@! TF.GenerationSoftware,Altium Limited,Altium Designer,19.1.8 (144)*
G04*
G04 Layer_Color=8388736*
%FSLAX25Y25*%
%MOIN*%
G70*
G01*
G75*
%ADD10C,0.01000*%
%ADD108C,0.00309*%
D10*
X555551Y-229332D02*
X603425D01*
D108*
X588175Y-227234D02*
Y-228874D01*
Y-227234D02*
X587472D01*
X587238Y-227312D01*
X587160Y-227390D01*
X587082Y-227547D01*
Y-227703D01*
X587160Y-227859D01*
X587238Y-227937D01*
X587472Y-228015D01*
X588175D02*
X587472D01*
X587238Y-228093D01*
X587160Y-228171D01*
X587082Y-228328D01*
Y-228562D01*
X587160Y-228718D01*
X587238Y-228796D01*
X587472Y-228874D01*
X588175D01*
X586246Y-227234D02*
X586402Y-227312D01*
X586558Y-227468D01*
X586637Y-227625D01*
X586715Y-227859D01*
Y-228250D01*
X586637Y-228484D01*
X586558Y-228640D01*
X586402Y-228796D01*
X586246Y-228874D01*
X585934D01*
X585778Y-228796D01*
X585621Y-228640D01*
X585543Y-228484D01*
X585465Y-228250D01*
Y-227859D01*
X585543Y-227625D01*
X585621Y-227468D01*
X585778Y-227312D01*
X585934Y-227234D01*
X586246D01*
X583833Y-228874D02*
X584457Y-227234D01*
X585082Y-228874D01*
X584848Y-228328D02*
X584067D01*
X583450Y-227234D02*
Y-228874D01*
Y-227234D02*
X582747D01*
X582513Y-227312D01*
X582435Y-227390D01*
X582357Y-227547D01*
Y-227703D01*
X582435Y-227859D01*
X582513Y-227937D01*
X582747Y-228015D01*
X583450D01*
X582903D02*
X582357Y-228874D01*
X581989Y-227234D02*
Y-228874D01*
Y-227234D02*
X581443D01*
X581209Y-227312D01*
X581052Y-227468D01*
X580974Y-227625D01*
X580896Y-227859D01*
Y-228250D01*
X580974Y-228484D01*
X581052Y-228640D01*
X581209Y-228796D01*
X581443Y-228874D01*
X581989D01*
X578225Y-227234D02*
X579240D01*
Y-228874D01*
X578225D01*
X579240Y-228015D02*
X578616D01*
X577952Y-227234D02*
Y-228874D01*
Y-227234D02*
X577405D01*
X577171Y-227312D01*
X577014Y-227468D01*
X576936Y-227625D01*
X576858Y-227859D01*
Y-228250D01*
X576936Y-228484D01*
X577014Y-228640D01*
X577171Y-228796D01*
X577405Y-228874D01*
X577952D01*
X575320Y-227625D02*
X575398Y-227468D01*
X575554Y-227312D01*
X575710Y-227234D01*
X576022D01*
X576179Y-227312D01*
X576335Y-227468D01*
X576413Y-227625D01*
X576491Y-227859D01*
Y-228250D01*
X576413Y-228484D01*
X576335Y-228640D01*
X576179Y-228796D01*
X576022Y-228874D01*
X575710D01*
X575554Y-228796D01*
X575398Y-228640D01*
X575320Y-228484D01*
Y-228250D01*
X575710D02*
X575320D01*
X573929Y-227234D02*
X574945D01*
Y-228874D01*
X573929D01*
X574945Y-228015D02*
X574320D01*
M02*
