G04*
G04 #@! TF.GenerationSoftware,Altium Limited,Altium Designer,19.1.8 (144)*
G04*
G04 Layer_Physical_Order=1*
G04 Layer_Color=255*
%FSLAX25Y25*%
%MOIN*%
G70*
G01*
G75*
%ADD10C,0.01000*%
%ADD38R,0.05118X0.05906*%
%ADD39R,0.05906X0.05118*%
%ADD40C,0.00906*%
%ADD41C,0.01500*%
%ADD42C,0.01968*%
%ADD43C,0.07874*%
%ADD44C,0.06693*%
%ADD45R,0.06693X0.06693*%
%ADD46R,0.09843X0.09843*%
%ADD47C,0.07874*%
%ADD48R,0.09055X0.09055*%
%ADD49C,0.09055*%
%ADD50C,0.08661*%
%ADD51R,0.08661X0.08661*%
%ADD52R,0.06693X0.06693*%
%ADD53R,0.09843X0.13780*%
%ADD54C,0.11811*%
%ADD55O,0.17717X0.07874*%
%ADD56O,0.07874X0.17717*%
%ADD57O,0.07874X0.19685*%
%ADD58C,0.05906*%
%ADD59R,0.06299X0.06299*%
%ADD60C,0.06299*%
%ADD61C,0.12598*%
%ADD62C,0.04000*%
%ADD63C,0.15748*%
%ADD64C,0.05000*%
%ADD65C,0.86614*%
G36*
X733622Y-300551D02*
X2598D01*
Y-2598D01*
X733622D01*
Y-300551D01*
D02*
G37*
%LPC*%
G36*
X133303Y-10815D02*
Y-14236D01*
X136724D01*
X136654Y-13704D01*
X136256Y-12743D01*
X135622Y-11917D01*
X134797Y-11284D01*
X133835Y-10885D01*
X133303Y-10815D01*
D02*
G37*
G36*
X132303Y-10815D02*
X131771Y-10885D01*
X130810Y-11284D01*
X129984Y-11917D01*
X129350Y-12743D01*
X128952Y-13704D01*
X128882Y-14236D01*
X132303D01*
Y-10815D01*
D02*
G37*
G36*
X390547Y-12583D02*
X386020D01*
Y-17110D01*
X390547D01*
Y-12583D01*
D02*
G37*
G36*
X384020D02*
X379492D01*
Y-17110D01*
X384020D01*
Y-12583D01*
D02*
G37*
G36*
X346866D02*
X342338D01*
Y-17110D01*
X346866D01*
Y-12583D01*
D02*
G37*
G36*
X340338D02*
X335811D01*
Y-17110D01*
X340338D01*
Y-12583D01*
D02*
G37*
G36*
X176528Y-13972D02*
X172000D01*
Y-18500D01*
X176528D01*
Y-13972D01*
D02*
G37*
G36*
X170000D02*
X165472D01*
Y-18500D01*
X170000D01*
Y-13972D01*
D02*
G37*
G36*
X132303Y-15236D02*
X128882D01*
X128952Y-15768D01*
X129350Y-16730D01*
X129984Y-17555D01*
X130810Y-18189D01*
X131771Y-18587D01*
X132303Y-18657D01*
Y-15236D01*
D02*
G37*
G36*
X136724D02*
X133303D01*
Y-18657D01*
X133835Y-18587D01*
X134797Y-18189D01*
X135622Y-17555D01*
X136256Y-16730D01*
X136654Y-15768D01*
X136724Y-15236D01*
D02*
G37*
G36*
X106382Y-3235D02*
X81500D01*
X80267Y-3397D01*
X79117Y-3873D01*
X78131Y-4631D01*
X73131Y-9630D01*
X72373Y-10617D01*
X71897Y-11767D01*
X71735Y-13000D01*
Y-14185D01*
X71185D01*
Y-24815D01*
X71235D01*
Y-36526D01*
X65424Y-42337D01*
X40390D01*
X39156Y-42500D01*
X38007Y-42976D01*
X37020Y-43733D01*
X36263Y-44720D01*
X35787Y-45869D01*
X35625Y-47102D01*
X35787Y-48336D01*
X36241Y-49433D01*
X31446Y-54229D01*
X30689Y-55216D01*
X30213Y-56365D01*
X30050Y-57598D01*
Y-57814D01*
X29373Y-58696D01*
X28897Y-59845D01*
X28735Y-61079D01*
Y-70921D01*
X28897Y-72155D01*
X29373Y-73304D01*
X30130Y-74291D01*
X31117Y-75048D01*
X32267Y-75524D01*
X33500Y-75686D01*
X34733Y-75524D01*
X35883Y-75048D01*
X36869Y-74291D01*
X37627Y-73304D01*
X38103Y-72155D01*
X38265Y-70921D01*
Y-69265D01*
X38942Y-68383D01*
X39418Y-67233D01*
X39581Y-66000D01*
Y-59572D01*
X42127Y-57026D01*
X42995Y-56666D01*
X43982Y-55909D01*
X48023Y-51868D01*
X67398D01*
X68631Y-51705D01*
X69780Y-51229D01*
X70767Y-50472D01*
X79369Y-41870D01*
X80127Y-40883D01*
X80603Y-39733D01*
X80765Y-38500D01*
Y-24815D01*
X81815D01*
Y-14424D01*
X83474Y-12765D01*
X104408D01*
X109749Y-18106D01*
X110736Y-18863D01*
X111885Y-19339D01*
X113118Y-19501D01*
X114351Y-19339D01*
X115501Y-18863D01*
X116488Y-18106D01*
X117245Y-17119D01*
X117721Y-15970D01*
X117883Y-14736D01*
X117721Y-13503D01*
X117245Y-12354D01*
X116488Y-11367D01*
X109751Y-4631D01*
X108765Y-3873D01*
X107615Y-3397D01*
X106382Y-3235D01*
D02*
G37*
G36*
X38823Y-11524D02*
X28587D01*
Y-21760D01*
X38823D01*
Y-11524D01*
D02*
G37*
G36*
X59295Y-11479D02*
X57959Y-11655D01*
X56714Y-12171D01*
X55645Y-12991D01*
X54825Y-14061D01*
X54309Y-15306D01*
X54133Y-16642D01*
X54309Y-17978D01*
X54825Y-19223D01*
X55645Y-20292D01*
X56714Y-21112D01*
X57959Y-21628D01*
X59295Y-21804D01*
X60631Y-21628D01*
X61876Y-21112D01*
X62946Y-20292D01*
X63766Y-19223D01*
X64282Y-17978D01*
X64458Y-16642D01*
X64282Y-15306D01*
X63766Y-14061D01*
X62946Y-12991D01*
X61876Y-12171D01*
X60631Y-11655D01*
X59295Y-11479D01*
D02*
G37*
G36*
X246500Y-19305D02*
Y-22359D01*
X249554D01*
X249543Y-22275D01*
X249125Y-21266D01*
X248460Y-20399D01*
X247593Y-19734D01*
X246583Y-19316D01*
X246500Y-19305D01*
D02*
G37*
G36*
X244500D02*
X244417Y-19316D01*
X243407Y-19734D01*
X242541Y-20399D01*
X241875Y-21266D01*
X241457Y-22275D01*
X241446Y-22359D01*
X244500D01*
Y-19305D01*
D02*
G37*
G36*
X390547Y-19110D02*
X386020D01*
Y-23638D01*
X390547D01*
Y-19110D01*
D02*
G37*
G36*
X384020D02*
X379492D01*
Y-23638D01*
X384020D01*
Y-19110D01*
D02*
G37*
G36*
X346866D02*
X342338D01*
Y-23638D01*
X346866D01*
Y-19110D01*
D02*
G37*
G36*
X340338D02*
X335811D01*
Y-23638D01*
X340338D01*
Y-19110D01*
D02*
G37*
G36*
X156000Y-14139D02*
X154613Y-14322D01*
X153320Y-14857D01*
X152209Y-15709D01*
X151357Y-16820D01*
X150822Y-18113D01*
X150639Y-19500D01*
X150822Y-20888D01*
X151357Y-22181D01*
X152209Y-23291D01*
X153320Y-24143D01*
X154613Y-24678D01*
X156000Y-24861D01*
X157387Y-24678D01*
X158680Y-24143D01*
X159791Y-23291D01*
X160643Y-22181D01*
X161178Y-20888D01*
X161361Y-19500D01*
X161178Y-18113D01*
X160643Y-16820D01*
X159791Y-15709D01*
X158680Y-14857D01*
X157387Y-14322D01*
X156000Y-14139D01*
D02*
G37*
G36*
X176528Y-20500D02*
X172000D01*
Y-25028D01*
X176528D01*
Y-20500D01*
D02*
G37*
G36*
X170000D02*
X165472D01*
Y-25028D01*
X170000D01*
Y-20500D01*
D02*
G37*
G36*
X555988Y-12871D02*
X554599Y-13008D01*
X553263Y-13413D01*
X552032Y-14071D01*
X550953Y-14957D01*
X550067Y-16036D01*
X549409Y-17267D01*
X549004Y-18603D01*
X548867Y-19992D01*
X549004Y-21381D01*
X549409Y-22717D01*
X550067Y-23948D01*
X550953Y-25027D01*
X552032Y-25913D01*
X553263Y-26571D01*
X554599Y-26976D01*
X555988Y-27113D01*
X557377Y-26976D01*
X558713Y-26571D01*
X559944Y-25913D01*
X561023Y-25027D01*
X561909Y-23948D01*
X562567Y-22717D01*
X562972Y-21381D01*
X563109Y-19992D01*
X562972Y-18603D01*
X562567Y-17267D01*
X561909Y-16036D01*
X561023Y-14957D01*
X559944Y-14071D01*
X558713Y-13413D01*
X557377Y-13008D01*
X555988Y-12871D01*
D02*
G37*
G36*
X217799D02*
X216410Y-13008D01*
X215074Y-13413D01*
X213843Y-14071D01*
X212764Y-14957D01*
X211878Y-16036D01*
X211220Y-17267D01*
X210815Y-18603D01*
X210678Y-19992D01*
X210815Y-21381D01*
X211220Y-22717D01*
X211878Y-23948D01*
X212764Y-25027D01*
X213843Y-25913D01*
X215074Y-26571D01*
X216410Y-26976D01*
X217799Y-27113D01*
X219188Y-26976D01*
X220524Y-26571D01*
X221755Y-25913D01*
X222834Y-25027D01*
X223720Y-23948D01*
X224378Y-22717D01*
X224783Y-21381D01*
X224920Y-19992D01*
X224783Y-18603D01*
X224378Y-17267D01*
X223720Y-16036D01*
X222834Y-14957D01*
X221755Y-14071D01*
X220524Y-13413D01*
X219188Y-13008D01*
X217799Y-12871D01*
D02*
G37*
G36*
X249554Y-24359D02*
X246500D01*
Y-27413D01*
X246583Y-27402D01*
X247593Y-26983D01*
X248460Y-26318D01*
X249125Y-25451D01*
X249543Y-24442D01*
X249554Y-24359D01*
D02*
G37*
G36*
X244500D02*
X241446D01*
X241457Y-24442D01*
X241875Y-25451D01*
X242541Y-26318D01*
X243407Y-26983D01*
X244417Y-27402D01*
X244500Y-27413D01*
Y-24359D01*
D02*
G37*
G36*
X122960Y-20806D02*
X121984Y-20935D01*
X121074Y-21312D01*
X120293Y-21911D01*
X119694Y-22693D01*
X119317Y-23602D01*
X119188Y-24579D01*
X119317Y-25555D01*
X119694Y-26465D01*
X120293Y-27246D01*
X121074Y-27846D01*
X121984Y-28223D01*
X122960Y-28351D01*
X123937Y-28223D01*
X124847Y-27846D01*
X125628Y-27246D01*
X126228Y-26465D01*
X126604Y-25555D01*
X126733Y-24579D01*
X126604Y-23602D01*
X126228Y-22693D01*
X125628Y-21911D01*
X124847Y-21312D01*
X123937Y-20935D01*
X122960Y-20806D01*
D02*
G37*
G36*
X560500Y-29823D02*
X559421Y-29965D01*
X558415Y-30381D01*
X557552Y-31044D01*
X556889Y-31907D01*
X556774Y-32186D01*
X554634D01*
Y-29858D01*
X546366D01*
Y-38126D01*
X554634D01*
Y-35798D01*
X556774D01*
X556889Y-36077D01*
X557552Y-36940D01*
X558415Y-37603D01*
X559421Y-38020D01*
X560500Y-38162D01*
X561579Y-38020D01*
X561858Y-37904D01*
X566194Y-42240D01*
Y-218551D01*
X566331Y-219243D01*
X566723Y-219829D01*
X580576Y-233682D01*
X580461Y-233960D01*
X580319Y-235039D01*
X580461Y-236119D01*
X580877Y-237124D01*
X581540Y-237988D01*
X582403Y-238650D01*
X583409Y-239067D01*
X584488Y-239209D01*
X585567Y-239067D01*
X586573Y-238650D01*
X587436Y-237988D01*
X588099Y-237124D01*
X588516Y-236119D01*
X588658Y-235039D01*
X588516Y-233960D01*
X588099Y-232955D01*
X587436Y-232091D01*
X586573Y-231428D01*
X585567Y-231012D01*
X584488Y-230870D01*
X583409Y-231012D01*
X583131Y-231127D01*
X569806Y-217803D01*
Y-41492D01*
X569669Y-40801D01*
X569277Y-40215D01*
X564412Y-35350D01*
X564528Y-35071D01*
X564670Y-33992D01*
X564528Y-32913D01*
X564111Y-31907D01*
X563448Y-31044D01*
X562585Y-30381D01*
X561579Y-29965D01*
X560500Y-29823D01*
D02*
G37*
G36*
X59796Y-29047D02*
Y-33858D01*
X64607D01*
X64489Y-32967D01*
X63952Y-31670D01*
X63098Y-30556D01*
X61984Y-29702D01*
X60687Y-29165D01*
X59796Y-29047D01*
D02*
G37*
G36*
X58796D02*
X57904Y-29165D01*
X56607Y-29702D01*
X55494Y-30556D01*
X54639Y-31670D01*
X54102Y-32967D01*
X53985Y-33858D01*
X58796D01*
Y-29047D01*
D02*
G37*
G36*
X34204D02*
Y-33858D01*
X39015D01*
X38898Y-32967D01*
X38361Y-31670D01*
X37506Y-30556D01*
X36393Y-29702D01*
X35096Y-29165D01*
X34204Y-29047D01*
D02*
G37*
G36*
X33204D02*
X32313Y-29165D01*
X31016Y-29702D01*
X29902Y-30556D01*
X29048Y-31670D01*
X28511Y-32967D01*
X28394Y-33858D01*
X33204D01*
Y-29047D01*
D02*
G37*
G36*
X505213Y-31400D02*
X484730D01*
X484228Y-31500D01*
X483802Y-31784D01*
X480899Y-34687D01*
X464473D01*
X464435Y-34594D01*
X463988Y-34012D01*
X463406Y-33565D01*
X462728Y-33284D01*
X462000Y-33189D01*
X461272Y-33284D01*
X460594Y-33565D01*
X460012Y-34012D01*
X459565Y-34594D01*
X459284Y-35272D01*
X459189Y-36000D01*
X459284Y-36728D01*
X459565Y-37406D01*
X460012Y-37988D01*
X460594Y-38435D01*
X461272Y-38716D01*
X462000Y-38811D01*
X462728Y-38716D01*
X463406Y-38435D01*
X463988Y-37988D01*
X464435Y-37406D01*
X464473Y-37313D01*
X481443D01*
X481945Y-37213D01*
X482371Y-36928D01*
X485274Y-34025D01*
X499437D01*
X499658Y-34474D01*
X499565Y-34594D01*
X499284Y-35272D01*
X499189Y-36000D01*
X499284Y-36728D01*
X499565Y-37406D01*
X500012Y-37988D01*
X500594Y-38435D01*
X501272Y-38716D01*
X502000Y-38811D01*
X502728Y-38716D01*
X503406Y-38435D01*
X503988Y-37988D01*
X504435Y-37406D01*
X504716Y-36728D01*
X504811Y-36000D01*
X504716Y-35272D01*
X504562Y-34902D01*
X504842Y-34352D01*
X504847Y-34348D01*
X504972Y-34328D01*
X511239Y-40596D01*
X511168Y-41115D01*
X510694Y-41426D01*
X510564Y-41400D01*
X489037D01*
X488535Y-41500D01*
X488109Y-41784D01*
X484706Y-45187D01*
X464473D01*
X464435Y-45094D01*
X463988Y-44512D01*
X463406Y-44065D01*
X462728Y-43784D01*
X462000Y-43688D01*
X461272Y-43784D01*
X460594Y-44065D01*
X460012Y-44512D01*
X459565Y-45094D01*
X459284Y-45772D01*
X459189Y-46500D01*
X459284Y-47228D01*
X459565Y-47906D01*
X460012Y-48488D01*
X460594Y-48935D01*
X461272Y-49216D01*
X462000Y-49312D01*
X462728Y-49216D01*
X463406Y-48935D01*
X463988Y-48488D01*
X464435Y-47906D01*
X464473Y-47813D01*
X485250D01*
X485752Y-47713D01*
X486178Y-47428D01*
X489581Y-44025D01*
X499437D01*
X499658Y-44474D01*
X499565Y-44594D01*
X499284Y-45272D01*
X499189Y-46000D01*
X499284Y-46728D01*
X499565Y-47406D01*
X500012Y-47988D01*
X500594Y-48435D01*
X501272Y-48716D01*
X501423Y-48735D01*
X501584Y-49209D01*
X496105Y-54687D01*
X464473D01*
X464435Y-54594D01*
X463988Y-54012D01*
X463406Y-53565D01*
X462728Y-53284D01*
X462000Y-53189D01*
X461272Y-53284D01*
X460594Y-53565D01*
X460012Y-54012D01*
X459565Y-54594D01*
X459284Y-55272D01*
X459189Y-56000D01*
X459284Y-56728D01*
X459565Y-57406D01*
X460012Y-57988D01*
X460594Y-58435D01*
X461272Y-58716D01*
X462000Y-58811D01*
X462728Y-58716D01*
X463406Y-58435D01*
X463988Y-57988D01*
X464435Y-57406D01*
X464473Y-57313D01*
X496649D01*
X497151Y-57213D01*
X497577Y-56928D01*
X498711Y-55794D01*
X499127Y-55973D01*
X499191Y-56021D01*
X499284Y-56728D01*
X499565Y-57406D01*
X500012Y-57988D01*
X500594Y-58435D01*
X501272Y-58716D01*
X501423Y-58736D01*
X501584Y-59209D01*
X496105Y-64687D01*
X464473D01*
X464435Y-64594D01*
X463988Y-64012D01*
X463406Y-63565D01*
X462728Y-63284D01*
X462000Y-63188D01*
X461272Y-63284D01*
X460594Y-63565D01*
X460012Y-64012D01*
X459565Y-64594D01*
X459284Y-65272D01*
X459189Y-66000D01*
X459284Y-66728D01*
X459565Y-67406D01*
X460012Y-67988D01*
X460594Y-68435D01*
X461272Y-68716D01*
X462000Y-68812D01*
X462728Y-68716D01*
X463406Y-68435D01*
X463988Y-67988D01*
X464435Y-67406D01*
X464473Y-67313D01*
X496649D01*
X497151Y-67213D01*
X497577Y-66928D01*
X498711Y-65794D01*
X499127Y-65973D01*
X499191Y-66021D01*
X499284Y-66728D01*
X499565Y-67406D01*
X500012Y-67988D01*
X500594Y-68435D01*
X501272Y-68716D01*
X501423Y-68735D01*
X501584Y-69209D01*
X496105Y-74687D01*
X464473D01*
X464435Y-74594D01*
X463988Y-74012D01*
X463406Y-73565D01*
X462728Y-73284D01*
X462000Y-73189D01*
X461272Y-73284D01*
X460594Y-73565D01*
X460012Y-74012D01*
X459565Y-74594D01*
X459284Y-75272D01*
X459189Y-76000D01*
X459284Y-76728D01*
X459565Y-77406D01*
X460012Y-77988D01*
X460594Y-78435D01*
X461272Y-78716D01*
X462000Y-78812D01*
X462728Y-78716D01*
X463406Y-78435D01*
X463988Y-77988D01*
X464435Y-77406D01*
X464473Y-77313D01*
X496649D01*
X497151Y-77213D01*
X497577Y-76928D01*
X498711Y-75794D01*
X499127Y-75973D01*
X499191Y-76021D01*
X499284Y-76728D01*
X499565Y-77406D01*
X500012Y-77988D01*
X500594Y-78435D01*
X501272Y-78716D01*
X501423Y-78736D01*
X501495Y-78948D01*
X501548Y-79256D01*
X501287Y-79647D01*
X501187Y-80149D01*
Y-83527D01*
X501094Y-83565D01*
X500512Y-84012D01*
X500065Y-84594D01*
X499784Y-85272D01*
X499689Y-86000D01*
X499784Y-86728D01*
X500065Y-87406D01*
X500512Y-87988D01*
X501094Y-88435D01*
X501772Y-88716D01*
X502500Y-88811D01*
X503228Y-88716D01*
X503906Y-88435D01*
X504488Y-87988D01*
X504935Y-87406D01*
X505216Y-86728D01*
X505311Y-86000D01*
X505216Y-85272D01*
X504935Y-84594D01*
X504488Y-84012D01*
X503906Y-83565D01*
X503813Y-83527D01*
Y-80693D01*
X531704Y-52802D01*
X532136Y-52884D01*
X532290Y-53354D01*
X511072Y-74572D01*
X510787Y-74998D01*
X510687Y-75500D01*
Y-88871D01*
X504935Y-94623D01*
X504737Y-94611D01*
X504418Y-94573D01*
X503988Y-94012D01*
X503406Y-93565D01*
X502728Y-93284D01*
X502000Y-93189D01*
X501272Y-93284D01*
X500594Y-93565D01*
X500012Y-94012D01*
X499565Y-94594D01*
X499284Y-95272D01*
X499189Y-96000D01*
X499284Y-96728D01*
X499565Y-97406D01*
X499658Y-97526D01*
X499437Y-97975D01*
X496831D01*
X484428Y-85572D01*
X484002Y-85287D01*
X483500Y-85187D01*
X464473D01*
X464435Y-85094D01*
X463988Y-84512D01*
X463406Y-84065D01*
X462728Y-83784D01*
X462000Y-83688D01*
X461272Y-83784D01*
X460594Y-84065D01*
X460012Y-84512D01*
X459565Y-85094D01*
X459284Y-85772D01*
X459189Y-86500D01*
X459284Y-87228D01*
X459565Y-87906D01*
X460012Y-88488D01*
X460594Y-88935D01*
X461272Y-89216D01*
X462000Y-89311D01*
X462728Y-89216D01*
X463406Y-88935D01*
X463988Y-88488D01*
X464435Y-87906D01*
X464473Y-87813D01*
X482956D01*
X495331Y-100187D01*
X495322Y-100307D01*
X495165Y-100687D01*
X494544D01*
X488928Y-95072D01*
X488502Y-94787D01*
X488000Y-94687D01*
X464473D01*
X464435Y-94594D01*
X463988Y-94012D01*
X463406Y-93565D01*
X462728Y-93284D01*
X462000Y-93189D01*
X461272Y-93284D01*
X460594Y-93565D01*
X460012Y-94012D01*
X459565Y-94594D01*
X459284Y-95272D01*
X459189Y-96000D01*
X459284Y-96728D01*
X459565Y-97406D01*
X460012Y-97988D01*
X460594Y-98435D01*
X461272Y-98716D01*
X462000Y-98812D01*
X462728Y-98716D01*
X463406Y-98435D01*
X463988Y-97988D01*
X464435Y-97406D01*
X464473Y-97313D01*
X487456D01*
X493072Y-102928D01*
X493498Y-103213D01*
X494000Y-103313D01*
X500102D01*
X500272Y-103813D01*
X500012Y-104012D01*
X499565Y-104594D01*
X499284Y-105272D01*
X499189Y-106000D01*
X499284Y-106728D01*
X499565Y-107406D01*
X500012Y-107988D01*
X500594Y-108435D01*
X501272Y-108716D01*
X501709Y-108773D01*
X501677Y-109273D01*
X498630D01*
X494928Y-105572D01*
X494502Y-105287D01*
X494000Y-105187D01*
X464473D01*
X464435Y-105094D01*
X463988Y-104512D01*
X463406Y-104065D01*
X462728Y-103784D01*
X462000Y-103689D01*
X461272Y-103784D01*
X460594Y-104065D01*
X460012Y-104512D01*
X459565Y-105094D01*
X459284Y-105772D01*
X459189Y-106500D01*
X459284Y-107228D01*
X459565Y-107906D01*
X460012Y-108488D01*
X460594Y-108935D01*
X461272Y-109216D01*
X462000Y-109311D01*
X462728Y-109216D01*
X463406Y-108935D01*
X463988Y-108488D01*
X464435Y-107906D01*
X464473Y-107813D01*
X493456D01*
X497158Y-111514D01*
X497583Y-111799D01*
X498086Y-111898D01*
X503592D01*
X503783Y-112360D01*
X502821Y-113323D01*
X502728Y-113284D01*
X502000Y-113189D01*
X501272Y-113284D01*
X500594Y-113565D01*
X500012Y-114012D01*
X499565Y-114594D01*
X499284Y-115272D01*
X499189Y-116000D01*
X499284Y-116728D01*
X499565Y-117406D01*
X500012Y-117988D01*
X500594Y-118435D01*
X501272Y-118716D01*
X502000Y-118811D01*
X502728Y-118716D01*
X503406Y-118435D01*
X503988Y-117988D01*
X504435Y-117406D01*
X504716Y-116728D01*
X504811Y-116000D01*
X504716Y-115272D01*
X504677Y-115179D01*
X521462Y-98395D01*
X521923Y-98586D01*
Y-101692D01*
X503929Y-119687D01*
X497044D01*
X492428Y-115072D01*
X492002Y-114787D01*
X491500Y-114687D01*
X464473D01*
X464435Y-114594D01*
X463988Y-114012D01*
X463406Y-113565D01*
X462728Y-113284D01*
X462000Y-113189D01*
X461272Y-113284D01*
X460594Y-113565D01*
X460012Y-114012D01*
X459565Y-114594D01*
X459284Y-115272D01*
X459189Y-116000D01*
X459284Y-116728D01*
X459565Y-117406D01*
X460012Y-117988D01*
X460594Y-118435D01*
X461272Y-118716D01*
X462000Y-118811D01*
X462728Y-118716D01*
X463406Y-118435D01*
X463988Y-117988D01*
X464435Y-117406D01*
X464473Y-117313D01*
X490956D01*
X495572Y-121928D01*
X495998Y-122213D01*
X496500Y-122313D01*
X503178D01*
X503369Y-122775D01*
X502821Y-123323D01*
X502728Y-123284D01*
X502000Y-123189D01*
X501272Y-123284D01*
X500594Y-123565D01*
X500012Y-124012D01*
X499565Y-124594D01*
X499284Y-125272D01*
X499189Y-126000D01*
X499284Y-126728D01*
X499565Y-127406D01*
X500012Y-127988D01*
X500594Y-128435D01*
X501272Y-128716D01*
X502000Y-128811D01*
X502728Y-128716D01*
X503406Y-128435D01*
X503988Y-127988D01*
X504435Y-127406D01*
X504716Y-126728D01*
X504811Y-126000D01*
X504716Y-125272D01*
X504677Y-125179D01*
X526872Y-102985D01*
X527156Y-102559D01*
X527256Y-102057D01*
Y-92539D01*
X545870Y-73925D01*
X546351Y-74151D01*
X546473Y-75071D01*
X546792Y-75844D01*
X541295Y-81341D01*
X541011Y-81766D01*
X540911Y-82269D01*
Y-92001D01*
X502638Y-130273D01*
X498630D01*
X493428Y-125072D01*
X493002Y-124787D01*
X492500Y-124687D01*
X464473D01*
X464435Y-124594D01*
X463988Y-124012D01*
X463406Y-123565D01*
X462728Y-123284D01*
X462000Y-123189D01*
X461272Y-123284D01*
X460594Y-123565D01*
X460012Y-124012D01*
X459565Y-124594D01*
X459284Y-125272D01*
X459189Y-126000D01*
X459284Y-126728D01*
X459565Y-127406D01*
X460012Y-127988D01*
X460594Y-128435D01*
X460715Y-128485D01*
X460616Y-128985D01*
X445771D01*
X445732Y-128892D01*
X445286Y-128310D01*
X444703Y-127863D01*
X444025Y-127582D01*
X443297Y-127486D01*
X442570Y-127582D01*
X441892Y-127863D01*
X441309Y-128310D01*
X440863Y-128892D01*
X440582Y-129570D01*
X440486Y-130298D01*
X440582Y-131025D01*
X440863Y-131703D01*
X441309Y-132285D01*
X441892Y-132732D01*
X442570Y-133013D01*
X443297Y-133109D01*
X444025Y-133013D01*
X444703Y-132732D01*
X445286Y-132285D01*
X445732Y-131703D01*
X445771Y-131610D01*
X486254D01*
X499823Y-145179D01*
X499784Y-145272D01*
X499689Y-146000D01*
X499784Y-146728D01*
X500065Y-147406D01*
X500512Y-147988D01*
X501094Y-148435D01*
X501772Y-148716D01*
X502500Y-148811D01*
X503228Y-148716D01*
X503906Y-148435D01*
X504488Y-147988D01*
X504935Y-147406D01*
X505216Y-146728D01*
X505311Y-146000D01*
X505216Y-145272D01*
X504935Y-144594D01*
X504488Y-144012D01*
X503906Y-143565D01*
X503228Y-143284D01*
X502500Y-143189D01*
X501772Y-143284D01*
X501679Y-143323D01*
X487726Y-129369D01*
X487300Y-129085D01*
X486798Y-128985D01*
X463384D01*
X463285Y-128485D01*
X463406Y-128435D01*
X463988Y-127988D01*
X464435Y-127406D01*
X464473Y-127313D01*
X491956D01*
X497158Y-132514D01*
X497583Y-132799D01*
X498086Y-132898D01*
X500898D01*
X500997Y-133398D01*
X500594Y-133565D01*
X500012Y-134012D01*
X499565Y-134594D01*
X499284Y-135272D01*
X499189Y-136000D01*
X499284Y-136728D01*
X499565Y-137406D01*
X500012Y-137988D01*
X500594Y-138435D01*
X501272Y-138716D01*
X502000Y-138811D01*
X502728Y-138716D01*
X503406Y-138435D01*
X503988Y-137988D01*
X504435Y-137406D01*
X504716Y-136728D01*
X504811Y-136000D01*
X504716Y-135272D01*
X504471Y-134681D01*
X512225Y-126926D01*
X512687Y-127118D01*
Y-133027D01*
X512594Y-133065D01*
X512012Y-133512D01*
X511565Y-134094D01*
X511284Y-134772D01*
X511189Y-135500D01*
X511284Y-136228D01*
X511565Y-136906D01*
X512012Y-137488D01*
X512594Y-137935D01*
X513272Y-138216D01*
X514000Y-138311D01*
X514728Y-138216D01*
X515406Y-137935D01*
X515988Y-137488D01*
X516435Y-136906D01*
X516716Y-136228D01*
X516811Y-135500D01*
X516716Y-134772D01*
X516446Y-134122D01*
X516489Y-134033D01*
X516766Y-133723D01*
X516775Y-133716D01*
X517500Y-133811D01*
X518228Y-133716D01*
X518906Y-133435D01*
X519488Y-132988D01*
X519935Y-132406D01*
X520216Y-131728D01*
X520311Y-131000D01*
X520216Y-130272D01*
X519935Y-129594D01*
X519488Y-129012D01*
X519232Y-128816D01*
X519235Y-128789D01*
X519331Y-128695D01*
X519765Y-128506D01*
X520272Y-128716D01*
X521000Y-128811D01*
X521728Y-128716D01*
X521821Y-128677D01*
X523430Y-130286D01*
X523856Y-130571D01*
X524358Y-130671D01*
X547274D01*
X547454Y-131171D01*
X546889Y-131907D01*
X546473Y-132913D01*
X546330Y-133992D01*
X546473Y-135071D01*
X546889Y-136077D01*
X547552Y-136940D01*
X548415Y-137603D01*
X549421Y-138020D01*
X550500Y-138162D01*
X551579Y-138020D01*
X552585Y-137603D01*
X553448Y-136940D01*
X554111Y-136077D01*
X554528Y-135071D01*
X554670Y-133992D01*
X554528Y-132913D01*
X554111Y-131907D01*
X553546Y-131171D01*
X553726Y-130671D01*
X555323D01*
X556792Y-132141D01*
X556472Y-132913D01*
X556330Y-133992D01*
X556472Y-135071D01*
X556889Y-136077D01*
X557552Y-136940D01*
X558415Y-137603D01*
X559421Y-138020D01*
X560500Y-138162D01*
X561579Y-138020D01*
X562585Y-137603D01*
X563448Y-136940D01*
X564111Y-136077D01*
X564528Y-135071D01*
X564670Y-133992D01*
X564528Y-132913D01*
X564111Y-131907D01*
X563448Y-131044D01*
X562585Y-130381D01*
X561579Y-129965D01*
X560500Y-129823D01*
X559421Y-129965D01*
X558649Y-130285D01*
X556794Y-128430D01*
X556369Y-128146D01*
X555866Y-128046D01*
X552796D01*
X552693Y-127830D01*
X552660Y-127546D01*
X553448Y-126940D01*
X554111Y-126077D01*
X554528Y-125071D01*
X554670Y-123992D01*
X554528Y-122913D01*
X554111Y-121907D01*
X553546Y-121171D01*
X553726Y-120671D01*
X555323D01*
X556792Y-122141D01*
X556472Y-122913D01*
X556330Y-123992D01*
X556472Y-125071D01*
X556889Y-126077D01*
X557552Y-126940D01*
X558415Y-127603D01*
X559421Y-128020D01*
X560500Y-128162D01*
X561579Y-128020D01*
X562585Y-127603D01*
X563448Y-126940D01*
X564111Y-126077D01*
X564528Y-125071D01*
X564670Y-123992D01*
X564528Y-122913D01*
X564111Y-121907D01*
X563448Y-121044D01*
X562585Y-120381D01*
X561579Y-119965D01*
X560500Y-119823D01*
X559421Y-119965D01*
X558649Y-120284D01*
X556794Y-118430D01*
X556369Y-118146D01*
X555866Y-118046D01*
X552796D01*
X552693Y-117830D01*
X552660Y-117546D01*
X553448Y-116940D01*
X554111Y-116077D01*
X554528Y-115071D01*
X554670Y-113992D01*
X554528Y-112913D01*
X554111Y-111907D01*
X553448Y-111044D01*
X552585Y-110381D01*
X551579Y-109965D01*
X550500Y-109823D01*
X549421Y-109965D01*
X548415Y-110381D01*
X547552Y-111044D01*
X546889Y-111907D01*
X546569Y-112680D01*
X529653D01*
X529462Y-112218D01*
X535367Y-106313D01*
X547070D01*
X547552Y-106940D01*
X548415Y-107603D01*
X549421Y-108020D01*
X550500Y-108162D01*
X551579Y-108020D01*
X552585Y-107603D01*
X553448Y-106940D01*
X554111Y-106077D01*
X554528Y-105071D01*
X554670Y-103992D01*
X554528Y-102913D01*
X554111Y-101907D01*
X553448Y-101044D01*
X552585Y-100381D01*
X551579Y-99965D01*
X550500Y-99823D01*
X549421Y-99965D01*
X548415Y-100381D01*
X547552Y-101044D01*
X546889Y-101907D01*
X546473Y-102913D01*
X546371Y-103687D01*
X536118D01*
X535926Y-103225D01*
X545927Y-93225D01*
X546401Y-93458D01*
X546330Y-93992D01*
X546473Y-95071D01*
X546889Y-96077D01*
X547552Y-96940D01*
X548415Y-97603D01*
X549421Y-98020D01*
X550500Y-98162D01*
X551579Y-98020D01*
X552585Y-97603D01*
X553448Y-96940D01*
X554111Y-96077D01*
X554528Y-95071D01*
X554670Y-93992D01*
X554528Y-92913D01*
X554111Y-91907D01*
X553546Y-91171D01*
X553726Y-90671D01*
X554142D01*
X554644Y-90571D01*
X555070Y-90286D01*
X556428Y-88928D01*
X556713Y-88502D01*
X556813Y-88000D01*
Y-86799D01*
X557313Y-86629D01*
X557552Y-86940D01*
X558415Y-87603D01*
X559421Y-88020D01*
X560500Y-88162D01*
X561579Y-88020D01*
X562585Y-87603D01*
X563448Y-86940D01*
X564111Y-86077D01*
X564528Y-85071D01*
X564670Y-83992D01*
X564528Y-82913D01*
X564111Y-81907D01*
X563448Y-81044D01*
X562585Y-80381D01*
X561579Y-79965D01*
X560500Y-79823D01*
X559421Y-79965D01*
X558415Y-80381D01*
X557552Y-81044D01*
X557313Y-81355D01*
X556813Y-81186D01*
Y-79536D01*
X558649Y-77700D01*
X559421Y-78020D01*
X560500Y-78162D01*
X561579Y-78020D01*
X562585Y-77603D01*
X563448Y-76940D01*
X564111Y-76077D01*
X564528Y-75071D01*
X564670Y-73992D01*
X564528Y-72913D01*
X564111Y-71907D01*
X563448Y-71044D01*
X562585Y-70381D01*
X561579Y-69965D01*
X560500Y-69823D01*
X559421Y-69965D01*
X558415Y-70381D01*
X557552Y-71044D01*
X556889Y-71907D01*
X556472Y-72913D01*
X556330Y-73992D01*
X556472Y-75071D01*
X556792Y-75844D01*
X554572Y-78064D01*
X554287Y-78490D01*
X554187Y-78992D01*
Y-81186D01*
X553687Y-81355D01*
X553448Y-81044D01*
X552585Y-80381D01*
X551579Y-79965D01*
X550500Y-79823D01*
X549421Y-79965D01*
X548415Y-80381D01*
X547552Y-81044D01*
X546889Y-81907D01*
X546473Y-82913D01*
X546330Y-83992D01*
X546473Y-85071D01*
X546889Y-86077D01*
X547552Y-86940D01*
X548340Y-87546D01*
X548307Y-87830D01*
X548205Y-88046D01*
X547937D01*
X547435Y-88146D01*
X547009Y-88430D01*
X543998Y-91441D01*
X543536Y-91250D01*
Y-82812D01*
X548649Y-77700D01*
X549421Y-78020D01*
X550500Y-78162D01*
X551579Y-78020D01*
X552585Y-77603D01*
X553448Y-76940D01*
X554111Y-76077D01*
X554528Y-75071D01*
X554670Y-73992D01*
X554528Y-72913D01*
X554111Y-71907D01*
X553448Y-71044D01*
X552660Y-70439D01*
X552693Y-70155D01*
X552795Y-69939D01*
X555866D01*
X556369Y-69839D01*
X556794Y-69554D01*
X558649Y-67700D01*
X559421Y-68020D01*
X560500Y-68162D01*
X561579Y-68020D01*
X562585Y-67603D01*
X563448Y-66940D01*
X564111Y-66077D01*
X564528Y-65071D01*
X564670Y-63992D01*
X564528Y-62913D01*
X564111Y-61907D01*
X563448Y-61044D01*
X562585Y-60381D01*
X561579Y-59965D01*
X560500Y-59823D01*
X559421Y-59965D01*
X558415Y-60381D01*
X557552Y-61044D01*
X556889Y-61907D01*
X556472Y-62913D01*
X556330Y-63992D01*
X556472Y-65071D01*
X556792Y-65843D01*
X555323Y-67313D01*
X553726D01*
X553546Y-66813D01*
X554111Y-66077D01*
X554528Y-65071D01*
X554670Y-63992D01*
X554528Y-62913D01*
X554111Y-61907D01*
X553448Y-61044D01*
X552660Y-60439D01*
X552693Y-60155D01*
X552795Y-59939D01*
X555866D01*
X556369Y-59839D01*
X556794Y-59554D01*
X558649Y-57700D01*
X559421Y-58020D01*
X560500Y-58162D01*
X561579Y-58020D01*
X562585Y-57603D01*
X563448Y-56940D01*
X564111Y-56077D01*
X564528Y-55071D01*
X564670Y-53992D01*
X564528Y-52913D01*
X564111Y-51907D01*
X563448Y-51044D01*
X562585Y-50381D01*
X561579Y-49965D01*
X560500Y-49823D01*
X559421Y-49965D01*
X558415Y-50381D01*
X557552Y-51044D01*
X556889Y-51907D01*
X556472Y-52913D01*
X556330Y-53992D01*
X556472Y-55071D01*
X556792Y-55844D01*
X555323Y-57313D01*
X553726D01*
X553546Y-56813D01*
X554111Y-56077D01*
X554528Y-55071D01*
X554670Y-53992D01*
X554528Y-52913D01*
X554111Y-51907D01*
X553448Y-51044D01*
X552660Y-50439D01*
X552693Y-50155D01*
X552795Y-49939D01*
X555866D01*
X556369Y-49839D01*
X556794Y-49554D01*
X558649Y-47700D01*
X559421Y-48020D01*
X560500Y-48162D01*
X561579Y-48020D01*
X562585Y-47603D01*
X563448Y-46940D01*
X564111Y-46077D01*
X564528Y-45071D01*
X564670Y-43992D01*
X564528Y-42913D01*
X564111Y-41907D01*
X563448Y-41044D01*
X562585Y-40381D01*
X561579Y-39965D01*
X560500Y-39823D01*
X559421Y-39965D01*
X558415Y-40381D01*
X557552Y-41044D01*
X556889Y-41907D01*
X556472Y-42913D01*
X556330Y-43992D01*
X556472Y-45071D01*
X556792Y-45843D01*
X555323Y-47313D01*
X553726D01*
X553546Y-46813D01*
X554111Y-46077D01*
X554528Y-45071D01*
X554670Y-43992D01*
X554528Y-42913D01*
X554111Y-41907D01*
X553448Y-41044D01*
X552585Y-40381D01*
X551579Y-39965D01*
X550500Y-39823D01*
X549421Y-39965D01*
X548415Y-40381D01*
X547552Y-41044D01*
X546889Y-41907D01*
X546473Y-42913D01*
X546330Y-43992D01*
X546473Y-45071D01*
X546853Y-45990D01*
X544775Y-48068D01*
X544313Y-47877D01*
Y-46973D01*
X544406Y-46935D01*
X544988Y-46488D01*
X545435Y-45906D01*
X545716Y-45228D01*
X545811Y-44500D01*
X545716Y-43772D01*
X545435Y-43094D01*
X544988Y-42512D01*
X544406Y-42065D01*
X543728Y-41784D01*
X543000Y-41688D01*
X542272Y-41784D01*
X541594Y-42065D01*
X541012Y-42512D01*
X540565Y-43094D01*
X540284Y-43772D01*
X540189Y-44500D01*
X540225Y-44780D01*
X539780Y-45225D01*
X539500Y-45189D01*
X538772Y-45284D01*
X538122Y-45554D01*
X538033Y-45511D01*
X537723Y-45234D01*
X537716Y-45225D01*
X537811Y-44500D01*
X537716Y-43772D01*
X537435Y-43094D01*
X536988Y-42512D01*
X536406Y-42065D01*
X535728Y-41784D01*
X535000Y-41688D01*
X534272Y-41784D01*
X533594Y-42065D01*
X533012Y-42512D01*
X532565Y-43094D01*
X532243Y-43213D01*
X531736Y-42928D01*
X531716Y-42772D01*
X531435Y-42094D01*
X530988Y-41512D01*
X530406Y-41065D01*
X529728Y-40784D01*
X529000Y-40688D01*
X528272Y-40784D01*
X527594Y-41065D01*
X527012Y-41512D01*
X526922Y-41629D01*
X526377Y-41519D01*
X525988Y-41012D01*
X525406Y-40565D01*
X524728Y-40284D01*
X524000Y-40189D01*
X523272Y-40284D01*
X522594Y-40565D01*
X522012Y-41012D01*
X521922Y-41129D01*
X521377Y-41019D01*
X520988Y-40512D01*
X520406Y-40065D01*
X519728Y-39784D01*
X519000Y-39689D01*
X518272Y-39784D01*
X517594Y-40065D01*
X517116Y-40432D01*
X516721Y-40397D01*
X516529Y-40321D01*
X516435Y-40094D01*
X515988Y-39512D01*
X515406Y-39065D01*
X514728Y-38784D01*
X514000Y-38688D01*
X513272Y-38784D01*
X513179Y-38823D01*
X506141Y-31784D01*
X505715Y-31500D01*
X505213Y-31400D01*
D02*
G37*
G36*
X148742Y-29656D02*
X132803D01*
X131570Y-29818D01*
X130421Y-30294D01*
X129434Y-31052D01*
X128676Y-32039D01*
X128200Y-33188D01*
X128038Y-34421D01*
X128200Y-35655D01*
X128676Y-36804D01*
X129434Y-37791D01*
X130421Y-38548D01*
X131570Y-39024D01*
X132803Y-39186D01*
X148742D01*
X149975Y-39024D01*
X151124Y-38548D01*
X152111Y-37791D01*
X152869Y-36804D01*
X153345Y-35655D01*
X153507Y-34421D01*
X153345Y-33188D01*
X152869Y-32039D01*
X152111Y-31052D01*
X151124Y-30294D01*
X149975Y-29818D01*
X148742Y-29656D01*
D02*
G37*
G36*
X64607Y-34858D02*
X59796D01*
Y-39669D01*
X60687Y-39552D01*
X61984Y-39015D01*
X63098Y-38160D01*
X63952Y-37047D01*
X64489Y-35750D01*
X64607Y-34858D01*
D02*
G37*
G36*
X58796D02*
X53985D01*
X54102Y-35750D01*
X54639Y-37047D01*
X55494Y-38160D01*
X56607Y-39015D01*
X57904Y-39552D01*
X58796Y-39669D01*
Y-34858D01*
D02*
G37*
G36*
X39015D02*
X34204D01*
Y-39669D01*
X35096Y-39552D01*
X36393Y-39015D01*
X37506Y-38160D01*
X38361Y-37047D01*
X38898Y-35750D01*
X39015Y-34858D01*
D02*
G37*
G36*
X33204D02*
X28394D01*
X28511Y-35750D01*
X29048Y-37047D01*
X29902Y-38160D01*
X31016Y-39015D01*
X32313Y-39552D01*
X33204Y-39669D01*
Y-34858D01*
D02*
G37*
G36*
X400020Y-12750D02*
X398632Y-12932D01*
X397339Y-13468D01*
X396229Y-14320D01*
X395377Y-15430D01*
X394842Y-16723D01*
X394659Y-18110D01*
X394842Y-19498D01*
X395254Y-20495D01*
Y-28007D01*
X379601Y-43660D01*
X350232D01*
X350041Y-43198D01*
X359708Y-33531D01*
X360465Y-32544D01*
X360941Y-31395D01*
X361104Y-30161D01*
Y-20495D01*
X361517Y-19498D01*
X361699Y-18110D01*
X361517Y-16723D01*
X360981Y-15430D01*
X360129Y-14320D01*
X359019Y-13468D01*
X357726Y-12932D01*
X356339Y-12750D01*
X354951Y-12932D01*
X353658Y-13468D01*
X352548Y-14320D01*
X351696Y-15430D01*
X351160Y-16723D01*
X350978Y-18110D01*
X351160Y-19498D01*
X351573Y-20495D01*
Y-28188D01*
X336101Y-43660D01*
X246005D01*
X245500Y-43593D01*
X193522D01*
X192288Y-43756D01*
X191139Y-44232D01*
X190152Y-44989D01*
X189395Y-45976D01*
X188919Y-47125D01*
X188757Y-48359D01*
X188919Y-49592D01*
X189395Y-50741D01*
X190152Y-51728D01*
X191139Y-52486D01*
X192288Y-52961D01*
X193522Y-53124D01*
X245062D01*
X245567Y-53190D01*
X381575D01*
X382808Y-53028D01*
X383958Y-52552D01*
X384944Y-51795D01*
X403389Y-33350D01*
X404146Y-32363D01*
X404623Y-31214D01*
X404785Y-29980D01*
Y-20495D01*
X405198Y-19498D01*
X405380Y-18110D01*
X405198Y-16723D01*
X404662Y-15430D01*
X403810Y-14320D01*
X402700Y-13468D01*
X401407Y-12932D01*
X400020Y-12750D01*
D02*
G37*
G36*
X123461Y-40343D02*
Y-43764D01*
X126882D01*
X126812Y-43232D01*
X126413Y-42270D01*
X125780Y-41445D01*
X124954Y-40811D01*
X123992Y-40413D01*
X123461Y-40343D01*
D02*
G37*
G36*
X122461D02*
X121929Y-40413D01*
X120967Y-40811D01*
X120141Y-41445D01*
X119508Y-42270D01*
X119109Y-43232D01*
X119039Y-43764D01*
X122461D01*
Y-40343D01*
D02*
G37*
G36*
X126882Y-44764D02*
X123461D01*
Y-48185D01*
X123992Y-48115D01*
X124954Y-47716D01*
X125780Y-47083D01*
X126413Y-46257D01*
X126812Y-45296D01*
X126882Y-44764D01*
D02*
G37*
G36*
X122461D02*
X119039D01*
X119109Y-45296D01*
X119508Y-46257D01*
X120141Y-47083D01*
X120967Y-47716D01*
X121929Y-48115D01*
X122461Y-48185D01*
Y-44764D01*
D02*
G37*
G36*
X91500Y-14139D02*
X90113Y-14322D01*
X88819Y-14857D01*
X87709Y-15709D01*
X86857Y-16820D01*
X86322Y-18113D01*
X86139Y-19500D01*
X86322Y-20888D01*
X86735Y-21885D01*
Y-34788D01*
Y-45026D01*
X70526Y-61235D01*
X61887D01*
Y-60094D01*
X61725Y-58861D01*
X61249Y-57712D01*
X60492Y-56725D01*
X59505Y-55968D01*
X58355Y-55492D01*
X57122Y-55329D01*
X55889Y-55492D01*
X54740Y-55968D01*
X53753Y-56725D01*
X52995Y-57712D01*
X52519Y-58861D01*
X52357Y-60094D01*
Y-71905D01*
X52519Y-73139D01*
X52995Y-74288D01*
X53753Y-75275D01*
X54740Y-76032D01*
X55889Y-76508D01*
X57122Y-76671D01*
X58355Y-76508D01*
X59505Y-76032D01*
X60492Y-75275D01*
X61249Y-74288D01*
X61725Y-73139D01*
X61887Y-71905D01*
Y-70765D01*
X72500D01*
X73733Y-70603D01*
X74883Y-70127D01*
X75870Y-69370D01*
X94870Y-50370D01*
X95627Y-49383D01*
X96103Y-48233D01*
X96265Y-47000D01*
Y-39186D01*
X113118D01*
X114351Y-39024D01*
X115501Y-38548D01*
X116488Y-37791D01*
X117245Y-36804D01*
X117721Y-35655D01*
X117883Y-34421D01*
X117721Y-33188D01*
X117245Y-32039D01*
X116488Y-31052D01*
X115501Y-30294D01*
X114351Y-29818D01*
X113118Y-29656D01*
X96265D01*
Y-21884D01*
X96678Y-20888D01*
X96861Y-19500D01*
X96678Y-18113D01*
X96143Y-16820D01*
X95291Y-15709D01*
X94180Y-14857D01*
X92887Y-14322D01*
X91500Y-14139D01*
D02*
G37*
G36*
X16965Y-59275D02*
X15653Y-59404D01*
X14391Y-59787D01*
X13228Y-60408D01*
X12209Y-61244D01*
X11373Y-62264D01*
X10751Y-63426D01*
X10368Y-64688D01*
X10239Y-66000D01*
X10368Y-67312D01*
X10751Y-68574D01*
X11373Y-69736D01*
X12209Y-70755D01*
X13228Y-71592D01*
X14391Y-72213D01*
X15653Y-72596D01*
X16965Y-72725D01*
X18277Y-72596D01*
X19538Y-72213D01*
X20701Y-71592D01*
X21720Y-70755D01*
X22557Y-69736D01*
X23178Y-68574D01*
X23561Y-67312D01*
X23690Y-66000D01*
X23561Y-64688D01*
X23178Y-63426D01*
X22557Y-62264D01*
X21720Y-61244D01*
X20701Y-60408D01*
X19538Y-59787D01*
X18277Y-59404D01*
X16965Y-59275D01*
D02*
G37*
G36*
X170138Y-85558D02*
Y-89406D01*
X173986D01*
X173948Y-89117D01*
X173450Y-87916D01*
X172659Y-86884D01*
X171628Y-86093D01*
X170427Y-85596D01*
X170138Y-85558D01*
D02*
G37*
G36*
X168138Y-85558D02*
X167849Y-85596D01*
X166648Y-86093D01*
X165617Y-86884D01*
X164825Y-87916D01*
X164328Y-89117D01*
X164290Y-89406D01*
X168138D01*
Y-85558D01*
D02*
G37*
G36*
X130106Y-79760D02*
X123413D01*
Y-87240D01*
X124720D01*
Y-89736D01*
X113223D01*
X113179Y-89404D01*
X112664Y-88159D01*
X111843Y-87090D01*
X110774Y-86269D01*
X109529Y-85754D01*
X108193Y-85578D01*
X106857Y-85754D01*
X105612Y-86269D01*
X104543Y-87090D01*
X103722Y-88159D01*
X103522Y-88643D01*
X103022D01*
X102821Y-88159D01*
X102001Y-87090D01*
X100931Y-86269D01*
X99686Y-85754D01*
X98350Y-85578D01*
X97014Y-85754D01*
X95769Y-86269D01*
X94700Y-87090D01*
X93880Y-88159D01*
X93794Y-88365D01*
X93294D01*
X93164Y-88052D01*
X92310Y-86938D01*
X91196Y-86084D01*
X89899Y-85547D01*
X89008Y-85429D01*
Y-90740D01*
Y-96051D01*
X89899Y-95934D01*
X91196Y-95397D01*
X92310Y-94542D01*
X93164Y-93428D01*
X93294Y-93115D01*
X93794D01*
X93880Y-93321D01*
X94700Y-94390D01*
X95769Y-95211D01*
X97014Y-95727D01*
X98350Y-95902D01*
X99686Y-95727D01*
X100931Y-95211D01*
X102001Y-94390D01*
X102821Y-93321D01*
X103022Y-92837D01*
X103522D01*
X103722Y-93321D01*
X104543Y-94390D01*
X105612Y-95211D01*
X106857Y-95727D01*
X108193Y-95902D01*
X109529Y-95727D01*
X110774Y-95211D01*
X111843Y-94390D01*
X112664Y-93321D01*
X113101Y-92264D01*
X124720D01*
Y-100077D01*
X59544D01*
X52807Y-93340D01*
X52821Y-93321D01*
X53337Y-92076D01*
X53513Y-90740D01*
X53337Y-89404D01*
X52821Y-88159D01*
X52001Y-87090D01*
X50931Y-86269D01*
X49686Y-85754D01*
X48350Y-85578D01*
X47014Y-85754D01*
X45769Y-86269D01*
X44700Y-87090D01*
X43880Y-88159D01*
X43679Y-88643D01*
X43179D01*
X42979Y-88159D01*
X42158Y-87090D01*
X41089Y-86269D01*
X39844Y-85754D01*
X38508Y-85578D01*
X37172Y-85754D01*
X35927Y-86269D01*
X34858Y-87090D01*
X34037Y-88159D01*
X33952Y-88366D01*
X33452D01*
X33322Y-88052D01*
X32467Y-86938D01*
X31354Y-86084D01*
X30057Y-85547D01*
X29165Y-85429D01*
Y-90740D01*
Y-96051D01*
X30057Y-95934D01*
X31354Y-95397D01*
X32467Y-94542D01*
X33322Y-93428D01*
X33452Y-93115D01*
X33952D01*
X34037Y-93321D01*
X34858Y-94390D01*
X35927Y-95211D01*
X37172Y-95727D01*
X38508Y-95902D01*
X39844Y-95727D01*
X41089Y-95211D01*
X42158Y-94390D01*
X42979Y-93321D01*
X43179Y-92837D01*
X43679D01*
X43880Y-93321D01*
X44700Y-94390D01*
X45769Y-95211D01*
X47014Y-95727D01*
X48350Y-95902D01*
X49686Y-95727D01*
X50931Y-95211D01*
X50950Y-95196D01*
X58072Y-102318D01*
X58498Y-102603D01*
X59000Y-102702D01*
X124720D01*
Y-125484D01*
X124816Y-125968D01*
X125090Y-126378D01*
X128235Y-129524D01*
Y-136402D01*
X128187Y-136644D01*
X128235Y-136886D01*
Y-158504D01*
X128283Y-158744D01*
Y-168449D01*
X128235Y-168691D01*
X128283Y-168933D01*
Y-192941D01*
X127213Y-194011D01*
X110827D01*
Y-193110D01*
X120866D01*
Y-182874D01*
X117013D01*
Y-182303D01*
X116916Y-181819D01*
X116642Y-181409D01*
X114831Y-179598D01*
X114421Y-179324D01*
X113937Y-179228D01*
X108898D01*
X108414Y-179324D01*
X108004Y-179598D01*
X106193Y-181409D01*
X105919Y-181819D01*
X105822Y-182303D01*
Y-184449D01*
X103347D01*
Y-191142D01*
X110630D01*
Y-191929D01*
X103347D01*
Y-194011D01*
X61614D01*
Y-191929D01*
X54134D01*
Y-194011D01*
X15327D01*
X14256Y-192940D01*
Y-179331D01*
X16339D01*
Y-171850D01*
X9646D01*
Y-179331D01*
X11728D01*
Y-193464D01*
X11824Y-193948D01*
X12098Y-194358D01*
X13909Y-196170D01*
X14320Y-196444D01*
X14804Y-196540D01*
X54134D01*
Y-198622D01*
X56610D01*
Y-275103D01*
X56653Y-275322D01*
X56706Y-275587D01*
X56706Y-275587D01*
X56980Y-275997D01*
X58502Y-277520D01*
X57956Y-278066D01*
X50984D01*
Y-275984D01*
X43504D01*
Y-282677D01*
X50984D01*
Y-280595D01*
X58479D01*
X58963Y-280499D01*
X59374Y-280225D01*
X60814Y-278784D01*
X74708D01*
X76149Y-280225D01*
X76559Y-280499D01*
X77043Y-280595D01*
X89961D01*
Y-282677D01*
X97441D01*
Y-280595D01*
X137598D01*
Y-282677D01*
X145079D01*
Y-280595D01*
X184843D01*
Y-282677D01*
X192323D01*
Y-280595D01*
X203307D01*
X203791Y-280499D01*
X204201Y-280225D01*
X206012Y-278414D01*
X206286Y-278004D01*
X206382Y-277520D01*
Y-275787D01*
X208858D01*
Y-273705D01*
X254134D01*
Y-275787D01*
X261614D01*
Y-273705D01*
X306102D01*
Y-275787D01*
X313583D01*
Y-273705D01*
X358858D01*
Y-275787D01*
X366339D01*
Y-273753D01*
X411614D01*
Y-275787D01*
X419094D01*
Y-273705D01*
X464370D01*
Y-275787D01*
X471850D01*
Y-273705D01*
X637665D01*
X639075Y-275115D01*
X639017Y-275257D01*
X638921Y-275984D01*
X639017Y-276712D01*
X639297Y-277390D01*
X639744Y-277972D01*
X640327Y-278419D01*
X641005Y-278700D01*
X641732Y-278796D01*
X642460Y-278700D01*
X643138Y-278419D01*
X643720Y-277972D01*
X644167Y-277390D01*
X644448Y-276712D01*
X644544Y-275984D01*
X644448Y-275257D01*
X644167Y-274579D01*
X643720Y-273996D01*
X643138Y-273550D01*
X642460Y-273269D01*
X641732Y-273173D01*
X641005Y-273269D01*
X640863Y-273327D01*
X639083Y-271547D01*
X638673Y-271273D01*
X638189Y-271177D01*
X471850D01*
Y-269094D01*
X464370D01*
Y-271177D01*
X419094D01*
Y-269094D01*
X411614D01*
Y-271128D01*
X366339D01*
Y-269094D01*
X358858D01*
Y-271177D01*
X313583D01*
Y-269094D01*
X306102D01*
Y-271177D01*
X261614D01*
Y-269094D01*
X254134D01*
Y-271177D01*
X208858D01*
Y-269094D01*
X201378D01*
Y-275787D01*
X203854D01*
Y-276996D01*
X202783Y-278066D01*
X192323D01*
Y-275984D01*
X184843D01*
Y-278066D01*
X145079D01*
Y-275984D01*
X137598D01*
Y-278066D01*
X97441D01*
Y-275984D01*
X89961D01*
Y-278066D01*
X77567D01*
X76126Y-276626D01*
X75716Y-276351D01*
X75232Y-276255D01*
X60814D01*
X59139Y-274579D01*
Y-198622D01*
X61614D01*
Y-196540D01*
X103347D01*
Y-198622D01*
X110827D01*
Y-196540D01*
X127737D01*
X128221Y-196444D01*
X128631Y-196170D01*
X129548Y-195253D01*
X130465Y-196170D01*
X130875Y-196444D01*
X131359Y-196540D01*
X150197D01*
Y-198622D01*
X157677D01*
Y-196588D01*
X284732D01*
X307995Y-219851D01*
X307952Y-219907D01*
X307536Y-220913D01*
X307394Y-221992D01*
X307536Y-223071D01*
X307952Y-224077D01*
X308615Y-224940D01*
X309478Y-225603D01*
X310484Y-226020D01*
X311563Y-226162D01*
X312642Y-226020D01*
X313648Y-225603D01*
X314511Y-224940D01*
X315174Y-224077D01*
X315289Y-223798D01*
X352008D01*
X352699Y-223661D01*
X353285Y-223269D01*
X366805Y-209750D01*
X381556Y-194999D01*
X384030D01*
X384130Y-195499D01*
X383733Y-195663D01*
X383151Y-196110D01*
X382704Y-196692D01*
X382423Y-197371D01*
X382327Y-198098D01*
X382423Y-198826D01*
X382704Y-199504D01*
X383151Y-200086D01*
X383733Y-200533D01*
X384411Y-200814D01*
X385139Y-200910D01*
X385866Y-200814D01*
X386544Y-200533D01*
X387126Y-200086D01*
X387573Y-199504D01*
X387632Y-199363D01*
X403480D01*
X419578Y-215461D01*
X419989Y-215735D01*
X420472Y-215831D01*
X442959D01*
X443094Y-215935D01*
X443772Y-216216D01*
X444500Y-216312D01*
X445228Y-216216D01*
X445906Y-215935D01*
X446488Y-215488D01*
X446935Y-214906D01*
X447216Y-214228D01*
X447311Y-213500D01*
X447216Y-212772D01*
X446935Y-212094D01*
X446488Y-211512D01*
X445906Y-211065D01*
X445228Y-210784D01*
X444500Y-210688D01*
X443772Y-210784D01*
X443094Y-211065D01*
X442512Y-211512D01*
X442065Y-212094D01*
X441784Y-212772D01*
X441715Y-213302D01*
X420996D01*
X404898Y-197204D01*
X404487Y-196930D01*
X404003Y-196834D01*
X387632D01*
X387573Y-196692D01*
X387126Y-196110D01*
X386544Y-195663D01*
X386147Y-195499D01*
X386247Y-194999D01*
X413010D01*
X413150Y-195180D01*
X413732Y-195627D01*
X414410Y-195908D01*
X415138Y-196004D01*
X415865Y-195908D01*
X416543Y-195627D01*
X417126Y-195180D01*
X417265Y-194999D01*
X443753D01*
X444444Y-194861D01*
X445030Y-194470D01*
X446841Y-192659D01*
X447233Y-192073D01*
X447370Y-191382D01*
Y-170621D01*
X447552Y-170482D01*
X447999Y-169899D01*
X448280Y-169221D01*
X448376Y-168494D01*
X448280Y-167766D01*
X447999Y-167088D01*
X447552Y-166506D01*
X446970Y-166059D01*
X446802Y-165990D01*
X446902Y-165490D01*
X447953D01*
X454641Y-172177D01*
Y-202362D01*
X454737Y-202846D01*
X455011Y-203256D01*
X473515Y-221760D01*
X473926Y-222034D01*
X474409Y-222131D01*
X482677D01*
X483161Y-222034D01*
X483571Y-221760D01*
X487925Y-217406D01*
X489635D01*
X490039Y-217933D01*
X490622Y-218380D01*
X491300Y-218661D01*
X492028Y-218756D01*
X492755Y-218661D01*
X493433Y-218380D01*
X494016Y-217933D01*
X494462Y-217351D01*
X494743Y-216673D01*
X494839Y-215945D01*
X494743Y-215217D01*
X494462Y-214539D01*
X494016Y-213957D01*
X493433Y-213510D01*
X492755Y-213229D01*
X492028Y-213134D01*
X491300Y-213229D01*
X490622Y-213510D01*
X490039Y-213957D01*
X489593Y-214539D01*
X489453Y-214877D01*
X487401D01*
X486918Y-214973D01*
X486507Y-215248D01*
X482153Y-219602D01*
X474933D01*
X457170Y-201838D01*
Y-199429D01*
X457670Y-199222D01*
X473327Y-214879D01*
X473269Y-215020D01*
X473173Y-215748D01*
X473269Y-216476D01*
X473550Y-217154D01*
X473996Y-217736D01*
X474579Y-218183D01*
X475257Y-218464D01*
X475984Y-218560D01*
X476712Y-218464D01*
X477390Y-218183D01*
X477972Y-217736D01*
X478419Y-217154D01*
X478700Y-216476D01*
X478796Y-215748D01*
X478700Y-215020D01*
X478419Y-214342D01*
X477972Y-213760D01*
X477390Y-213313D01*
X476712Y-213033D01*
X475984Y-212937D01*
X475257Y-213033D01*
X475115Y-213091D01*
X460934Y-198910D01*
X461217Y-198486D01*
X461772Y-198716D01*
X462500Y-198811D01*
X463228Y-198716D01*
X463906Y-198435D01*
X464488Y-197988D01*
X464623Y-197813D01*
X493456D01*
X496687Y-201044D01*
Y-234500D01*
X496787Y-235002D01*
X497072Y-235428D01*
X513359Y-251715D01*
X513785Y-252000D01*
X514287Y-252100D01*
X621936D01*
X621975Y-252193D01*
X622422Y-252775D01*
X623004Y-253222D01*
X623682Y-253503D01*
X624409Y-253599D01*
X625137Y-253503D01*
X625815Y-253222D01*
X626398Y-252775D01*
X626844Y-252193D01*
X627125Y-251515D01*
X627221Y-250787D01*
X627125Y-250060D01*
X626844Y-249382D01*
X626398Y-248799D01*
X625815Y-248353D01*
X625137Y-248072D01*
X624409Y-247976D01*
X623682Y-248072D01*
X623004Y-248353D01*
X622422Y-248799D01*
X621975Y-249382D01*
X621936Y-249475D01*
X514831D01*
X499313Y-233956D01*
Y-200500D01*
X499213Y-199998D01*
X498928Y-199572D01*
X494928Y-195572D01*
X494502Y-195287D01*
X494000Y-195187D01*
X465180D01*
X464935Y-194594D01*
X464488Y-194012D01*
X463906Y-193565D01*
X463228Y-193284D01*
X462500Y-193189D01*
X461772Y-193284D01*
X461094Y-193565D01*
X460512Y-194012D01*
X460065Y-194594D01*
X460032Y-194674D01*
X459532Y-194575D01*
Y-187425D01*
X460032Y-187326D01*
X460065Y-187406D01*
X460512Y-187988D01*
X461094Y-188435D01*
X461772Y-188716D01*
X462500Y-188811D01*
X463228Y-188716D01*
X463906Y-188435D01*
X464488Y-187988D01*
X464935Y-187406D01*
X465216Y-186728D01*
X465311Y-186000D01*
X465216Y-185272D01*
X464935Y-184594D01*
X464488Y-184012D01*
X463906Y-183565D01*
X463813Y-183527D01*
Y-171500D01*
X463713Y-170998D01*
X463428Y-170572D01*
X416928Y-124072D01*
X416502Y-123787D01*
X416000Y-123687D01*
X360705D01*
Y-121063D01*
X352437D01*
Y-129331D01*
X360705D01*
Y-126313D01*
X415456D01*
X449873Y-160730D01*
X449627Y-161190D01*
X449422Y-161150D01*
X198192D01*
X197708Y-161246D01*
X197298Y-161520D01*
X184582Y-174235D01*
X173024D01*
X172028Y-173240D01*
X172034Y-172740D01*
X174106D01*
Y-165260D01*
X172891D01*
Y-163378D01*
X174925D01*
Y-155898D01*
X170832D01*
Y-152317D01*
X171520Y-152032D01*
X172507Y-151275D01*
X173265Y-150288D01*
X173741Y-149139D01*
X173903Y-147906D01*
X173741Y-146672D01*
X173265Y-145523D01*
X172507Y-144536D01*
X171520Y-143779D01*
X170371Y-143303D01*
X169138Y-143140D01*
X167904Y-143303D01*
X166755Y-143779D01*
X165768Y-144536D01*
X165011Y-145523D01*
X164535Y-146672D01*
X164497Y-146959D01*
X163993D01*
X163948Y-146617D01*
X163450Y-145416D01*
X162659Y-144384D01*
X161628Y-143593D01*
X160427Y-143096D01*
X160138Y-143058D01*
Y-147906D01*
Y-152753D01*
X160427Y-152715D01*
X161628Y-152218D01*
X162659Y-151427D01*
X163450Y-150395D01*
X163948Y-149194D01*
X163993Y-148852D01*
X164497D01*
X164535Y-149139D01*
X165011Y-150288D01*
X165768Y-151275D01*
X166755Y-152032D01*
X167904Y-152508D01*
X168207Y-152548D01*
Y-157579D01*
X168232Y-157705D01*
Y-163378D01*
X170266D01*
Y-165260D01*
X167413D01*
Y-172740D01*
X169495D01*
Y-173760D01*
X169592Y-174244D01*
X169866Y-174654D01*
X171606Y-176394D01*
X172016Y-176668D01*
X172500Y-176765D01*
X183794D01*
X183985Y-177226D01*
X182976Y-178235D01*
X160075D01*
X152138Y-170299D01*
X152091Y-170267D01*
Y-164953D01*
X150057D01*
Y-163378D01*
X150516D01*
Y-155898D01*
X150450D01*
Y-152476D01*
X151520Y-152032D01*
X152507Y-151275D01*
X153265Y-150288D01*
X153741Y-149139D01*
X153778Y-148852D01*
X154283D01*
X154328Y-149194D01*
X154825Y-150395D01*
X155617Y-151427D01*
X156648Y-152218D01*
X157849Y-152715D01*
X158138Y-152753D01*
Y-147906D01*
Y-143058D01*
X157849Y-143096D01*
X156648Y-143593D01*
X155617Y-144384D01*
X154825Y-145416D01*
X154328Y-146617D01*
X154283Y-146959D01*
X153778D01*
X153741Y-146672D01*
X153265Y-145523D01*
X152507Y-144536D01*
X151520Y-143779D01*
X150371Y-143303D01*
X149138Y-143140D01*
X147905Y-143303D01*
X146755Y-143779D01*
X145768Y-144536D01*
X145011Y-145523D01*
X144535Y-146672D01*
X144414Y-147593D01*
X144405Y-147638D01*
X144407Y-147647D01*
X144373Y-147906D01*
X144535Y-149139D01*
X145011Y-150288D01*
X145768Y-151275D01*
X146755Y-152032D01*
X147825Y-152475D01*
Y-155898D01*
X143823D01*
Y-163378D01*
X147432D01*
Y-164953D01*
X145398D01*
Y-172433D01*
X150696D01*
X158657Y-180394D01*
X159067Y-180668D01*
X159551Y-180764D01*
X183500D01*
X183984Y-180668D01*
X184394Y-180394D01*
X199299Y-165490D01*
X444227D01*
X444326Y-165990D01*
X444158Y-166059D01*
X443576Y-166506D01*
X443129Y-167088D01*
X442848Y-167766D01*
X442753Y-168494D01*
X442848Y-169221D01*
X443129Y-169899D01*
X443576Y-170482D01*
X443758Y-170621D01*
Y-190633D01*
X443005Y-191386D01*
X417265D01*
X417126Y-191205D01*
X416543Y-190758D01*
X415865Y-190477D01*
X415138Y-190381D01*
X414410Y-190477D01*
X413732Y-190758D01*
X413150Y-191205D01*
X413010Y-191386D01*
X380807D01*
X380116Y-191524D01*
X379530Y-191915D01*
X365527Y-205918D01*
X354806Y-195197D01*
Y-184127D01*
X354988Y-183988D01*
X355435Y-183406D01*
X355716Y-182728D01*
X355812Y-182000D01*
X355716Y-181272D01*
X355435Y-180594D01*
X354988Y-180012D01*
X354406Y-179565D01*
X353728Y-179284D01*
X353000Y-179189D01*
X352272Y-179284D01*
X351594Y-179565D01*
X351012Y-180012D01*
X350565Y-180594D01*
X350284Y-181272D01*
X350188Y-182000D01*
X350284Y-182728D01*
X350565Y-183406D01*
X351012Y-183988D01*
X351194Y-184127D01*
Y-195945D01*
X351331Y-196636D01*
X351723Y-197222D01*
X362973Y-208473D01*
X351260Y-220186D01*
X315289D01*
X315174Y-219907D01*
X314511Y-219044D01*
X313648Y-218381D01*
X312642Y-217965D01*
X311563Y-217823D01*
X310484Y-217965D01*
X310015Y-218159D01*
X286204Y-194347D01*
X285778Y-194063D01*
X285276Y-193963D01*
X157887D01*
X157741Y-193555D01*
X158012Y-193110D01*
X158177D01*
X168110D01*
Y-182874D01*
X157874D01*
Y-184030D01*
X157677Y-184449D01*
X150197D01*
Y-191142D01*
X157577D01*
X157800Y-191535D01*
X157577Y-191929D01*
X157374Y-191929D01*
X150197D01*
Y-194011D01*
X131882D01*
X130812Y-192941D01*
Y-170006D01*
X137917D01*
Y-172433D01*
X144610D01*
Y-164953D01*
X137917D01*
Y-167380D01*
X130812D01*
Y-158504D01*
X130764Y-158264D01*
Y-137957D01*
X176927D01*
Y-165260D01*
X174894D01*
Y-172740D01*
X181587D01*
Y-165260D01*
X179553D01*
Y-137230D01*
X179453Y-136728D01*
X179168Y-136302D01*
X178583Y-135716D01*
X178157Y-135432D01*
X177654Y-135332D01*
X130764D01*
Y-129000D01*
X130668Y-128516D01*
X130394Y-128106D01*
X127249Y-124960D01*
Y-101525D01*
X127297Y-101283D01*
X127249Y-101040D01*
Y-91000D01*
Y-87240D01*
X130106D01*
Y-79760D01*
D02*
G37*
G36*
X88008Y-85429D02*
X87116Y-85547D01*
X85820Y-86084D01*
X84706Y-86938D01*
X83851Y-88052D01*
X83314Y-89349D01*
X83197Y-90240D01*
X88008D01*
Y-85429D01*
D02*
G37*
G36*
X28165D02*
X27274Y-85547D01*
X25977Y-86084D01*
X24863Y-86938D01*
X24009Y-88052D01*
X23472Y-89349D01*
X23354Y-90240D01*
X28165D01*
Y-85429D01*
D02*
G37*
G36*
X137587Y-79760D02*
X130894D01*
Y-87240D01*
X137587D01*
Y-84813D01*
X141689D01*
X144978Y-88102D01*
X144535Y-89172D01*
X144373Y-90405D01*
X144535Y-91639D01*
X145011Y-92788D01*
X145768Y-93775D01*
X146755Y-94532D01*
X147905Y-95008D01*
X149138Y-95171D01*
X150371Y-95008D01*
X151520Y-94532D01*
X152507Y-93775D01*
X153265Y-92788D01*
X153741Y-91639D01*
X153903Y-90405D01*
X153741Y-89172D01*
X153265Y-88023D01*
X152507Y-87036D01*
X151520Y-86279D01*
X150371Y-85803D01*
X149138Y-85640D01*
X147905Y-85803D01*
X146834Y-86246D01*
X143160Y-82572D01*
X142735Y-82287D01*
X142232Y-82187D01*
X137587D01*
Y-79760D01*
D02*
G37*
G36*
X168138Y-91405D02*
X164290D01*
X164328Y-91694D01*
X164825Y-92895D01*
X165617Y-93927D01*
X166648Y-94718D01*
X167849Y-95215D01*
X168138Y-95253D01*
Y-91405D01*
D02*
G37*
G36*
X173986D02*
X170138D01*
Y-95253D01*
X170427Y-95215D01*
X171628Y-94718D01*
X172659Y-93927D01*
X173450Y-92895D01*
X173948Y-91694D01*
X173986Y-91405D01*
D02*
G37*
G36*
X88008Y-91240D02*
X83197D01*
X83314Y-92132D01*
X83851Y-93428D01*
X84706Y-94542D01*
X85820Y-95397D01*
X87116Y-95934D01*
X88008Y-96051D01*
Y-91240D01*
D02*
G37*
G36*
X28165D02*
X23354D01*
X23472Y-92132D01*
X24009Y-93428D01*
X24863Y-94542D01*
X25977Y-95397D01*
X27274Y-95934D01*
X28165Y-96051D01*
Y-91240D01*
D02*
G37*
G36*
X560500Y-89823D02*
X559421Y-89965D01*
X558415Y-90381D01*
X557552Y-91044D01*
X556889Y-91907D01*
X556472Y-92913D01*
X556330Y-93992D01*
X556472Y-95071D01*
X556889Y-96077D01*
X557552Y-96940D01*
X558415Y-97603D01*
X559421Y-98020D01*
X560500Y-98162D01*
X561579Y-98020D01*
X562585Y-97603D01*
X563448Y-96940D01*
X564111Y-96077D01*
X564528Y-95071D01*
X564670Y-93992D01*
X564528Y-92913D01*
X564111Y-91907D01*
X563448Y-91044D01*
X562585Y-90381D01*
X561579Y-89965D01*
X560500Y-89823D01*
D02*
G37*
G36*
Y-99823D02*
X559421Y-99965D01*
X558415Y-100381D01*
X557552Y-101044D01*
X556889Y-101907D01*
X556472Y-102913D01*
X556330Y-103992D01*
X556472Y-105071D01*
X556889Y-106077D01*
X557552Y-106940D01*
X558415Y-107603D01*
X559421Y-108020D01*
X560500Y-108162D01*
X561579Y-108020D01*
X562585Y-107603D01*
X563448Y-106940D01*
X564111Y-106077D01*
X564528Y-105071D01*
X564670Y-103992D01*
X564528Y-102913D01*
X564111Y-101907D01*
X563448Y-101044D01*
X562585Y-100381D01*
X561579Y-99965D01*
X560500Y-99823D01*
D02*
G37*
G36*
X141437Y-111984D02*
X136516D01*
Y-116905D01*
X141437D01*
Y-111984D01*
D02*
G37*
G36*
X189469D02*
X184547D01*
Y-116905D01*
X189469D01*
Y-111984D01*
D02*
G37*
G36*
X182547D02*
X177626D01*
Y-116905D01*
X182547D01*
Y-111984D01*
D02*
G37*
G36*
X134516D02*
X129595D01*
Y-116905D01*
X134516D01*
Y-111984D01*
D02*
G37*
G36*
X120020Y-110409D02*
X115099D01*
Y-117299D01*
X120020D01*
Y-110409D01*
D02*
G37*
G36*
X88524D02*
X83602D01*
Y-117299D01*
X88524D01*
Y-110409D01*
D02*
G37*
G36*
X28681D02*
X23760D01*
Y-117299D01*
X28681D01*
Y-110409D01*
D02*
G37*
G36*
X60177D02*
X55256D01*
Y-117299D01*
X60177D01*
Y-110409D01*
D02*
G37*
G36*
X113099D02*
X108177D01*
Y-117299D01*
X113099D01*
Y-110409D01*
D02*
G37*
G36*
X81602D02*
X76681D01*
Y-117299D01*
X81602D01*
Y-110409D01*
D02*
G37*
G36*
X21760D02*
X16839D01*
Y-117299D01*
X21760D01*
Y-110409D01*
D02*
G37*
G36*
X53256D02*
X48335D01*
Y-117299D01*
X53256D01*
Y-110409D01*
D02*
G37*
G36*
X560500Y-109823D02*
X559421Y-109965D01*
X558415Y-110381D01*
X557552Y-111044D01*
X556889Y-111907D01*
X556472Y-112913D01*
X556330Y-113992D01*
X556472Y-115071D01*
X556889Y-116077D01*
X557552Y-116940D01*
X558415Y-117603D01*
X559421Y-118020D01*
X560500Y-118162D01*
X561579Y-118020D01*
X562585Y-117603D01*
X563448Y-116940D01*
X564111Y-116077D01*
X564528Y-115071D01*
X564670Y-113992D01*
X564528Y-112913D01*
X564111Y-111907D01*
X563448Y-111044D01*
X562585Y-110381D01*
X561579Y-109965D01*
X560500Y-109823D01*
D02*
G37*
G36*
X189469Y-118905D02*
X184547D01*
Y-123827D01*
X189469D01*
Y-118905D01*
D02*
G37*
G36*
X182547D02*
X177626D01*
Y-123827D01*
X182547D01*
Y-118905D01*
D02*
G37*
G36*
X141437D02*
X136516D01*
Y-123827D01*
X141437D01*
Y-118905D01*
D02*
G37*
G36*
X134516D02*
X129595D01*
Y-123827D01*
X134516D01*
Y-118905D01*
D02*
G37*
G36*
X347071Y-120879D02*
Y-124697D01*
X350889D01*
X350805Y-124062D01*
X350367Y-123005D01*
X349671Y-122097D01*
X348763Y-121400D01*
X347706Y-120962D01*
X347071Y-120879D01*
D02*
G37*
G36*
X346071Y-120879D02*
X345436Y-120962D01*
X344379Y-121400D01*
X343471Y-122097D01*
X342774Y-123005D01*
X342336Y-124062D01*
X342253Y-124697D01*
X346071D01*
Y-120879D01*
D02*
G37*
G36*
X120020Y-119299D02*
X115099D01*
Y-126189D01*
X120020D01*
Y-119299D01*
D02*
G37*
G36*
X113099D02*
X108177D01*
Y-126189D01*
X113099D01*
Y-119299D01*
D02*
G37*
G36*
X88524D02*
X83602D01*
Y-126189D01*
X88524D01*
Y-119299D01*
D02*
G37*
G36*
X81602D02*
X76681D01*
Y-126189D01*
X81602D01*
Y-119299D01*
D02*
G37*
G36*
X60177D02*
X55256D01*
Y-126189D01*
X60177D01*
Y-119299D01*
D02*
G37*
G36*
X53256D02*
X48335D01*
Y-126189D01*
X53256D01*
Y-119299D01*
D02*
G37*
G36*
X28681D02*
X23760D01*
Y-126189D01*
X28681D01*
Y-119299D01*
D02*
G37*
G36*
X21760D02*
X16839D01*
Y-126189D01*
X21760D01*
Y-119299D01*
D02*
G37*
G36*
X346071Y-125697D02*
X342253D01*
X342336Y-126331D01*
X342774Y-127389D01*
X343471Y-128297D01*
X344379Y-128993D01*
X345436Y-129431D01*
X346071Y-129515D01*
Y-125697D01*
D02*
G37*
G36*
X350889D02*
X347071D01*
Y-129515D01*
X347706Y-129431D01*
X348763Y-128993D01*
X349671Y-128297D01*
X350367Y-127389D01*
X350805Y-126331D01*
X350889Y-125697D01*
D02*
G37*
G36*
X356571Y-131027D02*
X355492Y-131169D01*
X354486Y-131586D01*
X353623Y-132249D01*
X352960Y-133112D01*
X352543Y-134118D01*
X352401Y-135197D01*
X352543Y-136276D01*
X352960Y-137282D01*
X353623Y-138145D01*
X354486Y-138808D01*
X355492Y-139224D01*
X356571Y-139366D01*
X357650Y-139224D01*
X358656Y-138808D01*
X359519Y-138145D01*
X360182Y-137282D01*
X360598Y-136276D01*
X360740Y-135197D01*
X360598Y-134118D01*
X360182Y-133112D01*
X359519Y-132249D01*
X358656Y-131586D01*
X357650Y-131169D01*
X356571Y-131027D01*
D02*
G37*
G36*
X346571D02*
X345492Y-131169D01*
X344486Y-131586D01*
X343623Y-132249D01*
X342960Y-133112D01*
X342543Y-134118D01*
X342401Y-135197D01*
X342543Y-136276D01*
X342960Y-137282D01*
X343623Y-138145D01*
X344486Y-138808D01*
X345492Y-139224D01*
X346571Y-139366D01*
X347650Y-139224D01*
X348656Y-138808D01*
X349519Y-138145D01*
X350182Y-137282D01*
X350598Y-136276D01*
X350740Y-135197D01*
X350598Y-134118D01*
X350182Y-133112D01*
X349519Y-132249D01*
X348656Y-131586D01*
X347650Y-131169D01*
X346571Y-131027D01*
D02*
G37*
G36*
X560500Y-139823D02*
X559421Y-139965D01*
X558415Y-140381D01*
X557552Y-141044D01*
X556889Y-141907D01*
X556472Y-142913D01*
X556330Y-143992D01*
X556472Y-145071D01*
X556889Y-146077D01*
X557552Y-146940D01*
X558415Y-147603D01*
X559421Y-148020D01*
X560500Y-148162D01*
X561579Y-148020D01*
X562585Y-147603D01*
X563448Y-146940D01*
X564111Y-146077D01*
X564528Y-145071D01*
X564670Y-143992D01*
X564528Y-142913D01*
X564111Y-141907D01*
X563448Y-141044D01*
X562585Y-140381D01*
X561579Y-139965D01*
X560500Y-139823D01*
D02*
G37*
G36*
X550500D02*
X549421Y-139965D01*
X548415Y-140381D01*
X547552Y-141044D01*
X546889Y-141907D01*
X546473Y-142913D01*
X546330Y-143992D01*
X546473Y-145071D01*
X546889Y-146077D01*
X547552Y-146940D01*
X548415Y-147603D01*
X549421Y-148020D01*
X550500Y-148162D01*
X551579Y-148020D01*
X552585Y-147603D01*
X553448Y-146940D01*
X554111Y-146077D01*
X554528Y-145071D01*
X554670Y-143992D01*
X554528Y-142913D01*
X554111Y-141907D01*
X553448Y-141044D01*
X552585Y-140381D01*
X551579Y-139965D01*
X550500Y-139823D01*
D02*
G37*
G36*
X356571Y-141027D02*
X355492Y-141169D01*
X354486Y-141586D01*
X353623Y-142249D01*
X352960Y-143112D01*
X352543Y-144118D01*
X352401Y-145197D01*
X352543Y-146276D01*
X352960Y-147282D01*
X353623Y-148145D01*
X354486Y-148808D01*
X355492Y-149224D01*
X356571Y-149366D01*
X357650Y-149224D01*
X358656Y-148808D01*
X359519Y-148145D01*
X360182Y-147282D01*
X360598Y-146276D01*
X360740Y-145197D01*
X360598Y-144118D01*
X360182Y-143112D01*
X359519Y-142249D01*
X358656Y-141586D01*
X357650Y-141169D01*
X356571Y-141027D01*
D02*
G37*
G36*
X346571D02*
X345492Y-141169D01*
X344486Y-141586D01*
X343623Y-142249D01*
X342960Y-143112D01*
X342543Y-144118D01*
X342401Y-145197D01*
X342543Y-146276D01*
X342960Y-147282D01*
X343623Y-148145D01*
X344486Y-148808D01*
X345492Y-149224D01*
X346571Y-149366D01*
X347650Y-149224D01*
X348656Y-148808D01*
X349519Y-148145D01*
X350182Y-147282D01*
X350598Y-146276D01*
X350740Y-145197D01*
X350598Y-144118D01*
X350182Y-143112D01*
X349519Y-142249D01*
X348656Y-141586D01*
X347650Y-141169D01*
X346571Y-141027D01*
D02*
G37*
G36*
X560500Y-149823D02*
X559421Y-149965D01*
X558415Y-150381D01*
X557552Y-151044D01*
X556889Y-151907D01*
X556472Y-152913D01*
X556330Y-153992D01*
X556472Y-155071D01*
X556889Y-156077D01*
X557552Y-156940D01*
X558415Y-157603D01*
X559421Y-158020D01*
X560500Y-158162D01*
X561579Y-158020D01*
X562585Y-157603D01*
X563448Y-156940D01*
X564111Y-156077D01*
X564528Y-155071D01*
X564670Y-153992D01*
X564528Y-152913D01*
X564111Y-151907D01*
X563448Y-151044D01*
X562585Y-150381D01*
X561579Y-149965D01*
X560500Y-149823D01*
D02*
G37*
G36*
X550500D02*
X549421Y-149965D01*
X548415Y-150381D01*
X547552Y-151044D01*
X546889Y-151907D01*
X546473Y-152913D01*
X546330Y-153992D01*
X546473Y-155071D01*
X546889Y-156077D01*
X547552Y-156940D01*
X548415Y-157603D01*
X549421Y-158020D01*
X550500Y-158162D01*
X551579Y-158020D01*
X552585Y-157603D01*
X553448Y-156940D01*
X554111Y-156077D01*
X554528Y-155071D01*
X554670Y-153992D01*
X554528Y-152913D01*
X554111Y-151907D01*
X553448Y-151044D01*
X552585Y-150381D01*
X551579Y-149965D01*
X550500Y-149823D01*
D02*
G37*
G36*
X158209Y-155685D02*
X155150D01*
Y-159138D01*
X158209D01*
Y-155685D01*
D02*
G37*
G36*
X167657D02*
X164599D01*
Y-159138D01*
X167657D01*
Y-155685D01*
D02*
G37*
G36*
X163599D02*
X160539D01*
Y-159138D01*
X163599D01*
Y-155685D01*
D02*
G37*
G36*
X154150D02*
X151091D01*
Y-159138D01*
X154150D01*
Y-155685D01*
D02*
G37*
G36*
X356571Y-151027D02*
X355492Y-151169D01*
X354486Y-151586D01*
X353623Y-152249D01*
X352960Y-153112D01*
X352543Y-154118D01*
X352401Y-155197D01*
X352543Y-156276D01*
X352960Y-157282D01*
X353623Y-158145D01*
X354486Y-158808D01*
X355492Y-159224D01*
X356571Y-159366D01*
X357650Y-159224D01*
X358656Y-158808D01*
X359519Y-158145D01*
X360182Y-157282D01*
X360598Y-156276D01*
X360740Y-155197D01*
X360598Y-154118D01*
X360182Y-153112D01*
X359519Y-152249D01*
X358656Y-151586D01*
X357650Y-151169D01*
X356571Y-151027D01*
D02*
G37*
G36*
X167657Y-160138D02*
X164599D01*
Y-163591D01*
X167657D01*
Y-160138D01*
D02*
G37*
G36*
X163599D02*
X160539D01*
Y-163591D01*
X163599D01*
Y-160138D01*
D02*
G37*
G36*
X158209D02*
X155150D01*
Y-163591D01*
X158209D01*
Y-160138D01*
D02*
G37*
G36*
X154150D02*
X151091D01*
Y-163591D01*
X154150D01*
Y-160138D01*
D02*
G37*
G36*
X560500Y-159823D02*
X559421Y-159965D01*
X558415Y-160381D01*
X557552Y-161044D01*
X556889Y-161907D01*
X556472Y-162913D01*
X556330Y-163992D01*
X556472Y-165071D01*
X556889Y-166077D01*
X557552Y-166940D01*
X558415Y-167603D01*
X559421Y-168020D01*
X560500Y-168162D01*
X561579Y-168020D01*
X562585Y-167603D01*
X563448Y-166940D01*
X564111Y-166077D01*
X564528Y-165071D01*
X564670Y-163992D01*
X564528Y-162913D01*
X564111Y-161907D01*
X563448Y-161044D01*
X562585Y-160381D01*
X561579Y-159965D01*
X560500Y-159823D01*
D02*
G37*
G36*
X550500D02*
X549421Y-159965D01*
X548415Y-160381D01*
X547552Y-161044D01*
X546889Y-161907D01*
X546473Y-162913D01*
X546330Y-163992D01*
X546473Y-165071D01*
X546889Y-166077D01*
X547552Y-166940D01*
X548415Y-167603D01*
X549421Y-168020D01*
X550500Y-168162D01*
X551579Y-168020D01*
X552585Y-167603D01*
X553448Y-166940D01*
X554111Y-166077D01*
X554528Y-165071D01*
X554670Y-163992D01*
X554528Y-162913D01*
X554111Y-161907D01*
X553448Y-161044D01*
X552585Y-160381D01*
X551579Y-159965D01*
X550500Y-159823D01*
D02*
G37*
G36*
X560500Y-169823D02*
X559421Y-169965D01*
X558415Y-170381D01*
X557552Y-171044D01*
X556889Y-171907D01*
X556472Y-172913D01*
X556330Y-173992D01*
X556472Y-175071D01*
X556889Y-176077D01*
X557552Y-176940D01*
X558415Y-177603D01*
X559421Y-178020D01*
X560500Y-178162D01*
X561579Y-178020D01*
X562585Y-177603D01*
X563448Y-176940D01*
X564111Y-176077D01*
X564528Y-175071D01*
X564670Y-173992D01*
X564528Y-172913D01*
X564111Y-171907D01*
X563448Y-171044D01*
X562585Y-170381D01*
X561579Y-169965D01*
X560500Y-169823D01*
D02*
G37*
G36*
X550500D02*
X549421Y-169965D01*
X548415Y-170381D01*
X547552Y-171044D01*
X546889Y-171907D01*
X546473Y-172913D01*
X546330Y-173992D01*
X546473Y-175071D01*
X546889Y-176077D01*
X547552Y-176940D01*
X548415Y-177603D01*
X549421Y-178020D01*
X550500Y-178162D01*
X551579Y-178020D01*
X552585Y-177603D01*
X553448Y-176940D01*
X554111Y-176077D01*
X554528Y-175071D01*
X554670Y-173992D01*
X554528Y-172913D01*
X554111Y-171907D01*
X553448Y-171044D01*
X552585Y-170381D01*
X551579Y-169965D01*
X550500Y-169823D01*
D02*
G37*
G36*
X395327Y-178291D02*
X394599Y-178387D01*
X393921Y-178667D01*
X393339Y-179114D01*
X392905Y-179680D01*
X382044D01*
X381560Y-179776D01*
X381150Y-180050D01*
X369462Y-191738D01*
X369291Y-191716D01*
X368564Y-191812D01*
X367886Y-192093D01*
X367303Y-192540D01*
X366857Y-193122D01*
X366576Y-193800D01*
X366480Y-194527D01*
X366576Y-195255D01*
X366857Y-195933D01*
X367303Y-196516D01*
X367886Y-196962D01*
X368564Y-197243D01*
X369291Y-197339D01*
X370019Y-197243D01*
X370697Y-196962D01*
X371279Y-196516D01*
X371726Y-195933D01*
X372007Y-195255D01*
X372103Y-194527D01*
X372007Y-193800D01*
X371726Y-193122D01*
X371695Y-193082D01*
X382568Y-182209D01*
X392768D01*
X392892Y-182508D01*
X393339Y-183090D01*
X393921Y-183537D01*
X394599Y-183818D01*
X395327Y-183914D01*
X396055Y-183818D01*
X396733Y-183537D01*
X397315Y-183090D01*
X397762Y-182508D01*
X398043Y-181830D01*
X398138Y-181102D01*
X398043Y-180375D01*
X397762Y-179697D01*
X397315Y-179114D01*
X396733Y-178667D01*
X396055Y-178387D01*
X395327Y-178291D01*
D02*
G37*
G36*
X73622Y-182874D02*
X63386D01*
Y-186728D01*
X62819D01*
X62669Y-186627D01*
X62185Y-186531D01*
X61614D01*
Y-184449D01*
X54134D01*
Y-191142D01*
X61614D01*
Y-189572D01*
X61671Y-189490D01*
X62114Y-189203D01*
X62382Y-189257D01*
X63386D01*
Y-193110D01*
X73622D01*
Y-182874D01*
D02*
G37*
G36*
X560500Y-179823D02*
X559421Y-179965D01*
X558415Y-180381D01*
X557552Y-181044D01*
X556889Y-181907D01*
X556472Y-182913D01*
X556330Y-183992D01*
X556472Y-185071D01*
X556889Y-186077D01*
X557552Y-186940D01*
X558415Y-187603D01*
X559421Y-188020D01*
X560500Y-188162D01*
X561579Y-188020D01*
X562585Y-187603D01*
X563448Y-186940D01*
X564111Y-186077D01*
X564528Y-185071D01*
X564670Y-183992D01*
X564528Y-182913D01*
X564111Y-181907D01*
X563448Y-181044D01*
X562585Y-180381D01*
X561579Y-179965D01*
X560500Y-179823D01*
D02*
G37*
G36*
X550500D02*
X549421Y-179965D01*
X548415Y-180381D01*
X547552Y-181044D01*
X546889Y-181907D01*
X546473Y-182913D01*
X546330Y-183992D01*
X546473Y-185071D01*
X546889Y-186077D01*
X547552Y-186940D01*
X548415Y-187603D01*
X549421Y-188020D01*
X550500Y-188162D01*
X551579Y-188020D01*
X552585Y-187603D01*
X553448Y-186940D01*
X554111Y-186077D01*
X554528Y-185071D01*
X554670Y-183992D01*
X554528Y-182913D01*
X554111Y-181907D01*
X553448Y-181044D01*
X552585Y-180381D01*
X551579Y-179965D01*
X550500Y-179823D01*
D02*
G37*
G36*
X416000Y-115687D02*
X340500D01*
X339998Y-115787D01*
X339572Y-116072D01*
X333572Y-122072D01*
X333287Y-122498D01*
X333187Y-123000D01*
Y-149500D01*
X333287Y-150002D01*
X333572Y-150428D01*
X339072Y-155928D01*
X339498Y-156213D01*
X340000Y-156313D01*
X342559D01*
X342960Y-157282D01*
X343623Y-158145D01*
X344486Y-158808D01*
X345492Y-159224D01*
X346571Y-159366D01*
X347650Y-159224D01*
X348656Y-158808D01*
X349519Y-158145D01*
X350182Y-157282D01*
X350598Y-156276D01*
X350740Y-155197D01*
X350598Y-154118D01*
X350182Y-153112D01*
X349519Y-152249D01*
X348656Y-151586D01*
X347650Y-151169D01*
X346571Y-151027D01*
X345492Y-151169D01*
X344486Y-151586D01*
X343623Y-152249D01*
X342960Y-153112D01*
X342722Y-153687D01*
X340544D01*
X335813Y-148956D01*
Y-123544D01*
X341044Y-118313D01*
X415456D01*
X482323Y-185179D01*
X482284Y-185272D01*
X482189Y-186000D01*
X482284Y-186728D01*
X482565Y-187406D01*
X483012Y-187988D01*
X483594Y-188435D01*
X484272Y-188716D01*
X485000Y-188811D01*
X485728Y-188716D01*
X486406Y-188435D01*
X486988Y-187988D01*
X487435Y-187406D01*
X487716Y-186728D01*
X487811Y-186000D01*
X487716Y-185272D01*
X487435Y-184594D01*
X486988Y-184012D01*
X486406Y-183565D01*
X485728Y-183284D01*
X485000Y-183189D01*
X484272Y-183284D01*
X484179Y-183323D01*
X416928Y-116072D01*
X416502Y-115787D01*
X416000Y-115687D01*
D02*
G37*
G36*
X23819Y-171850D02*
X17126D01*
Y-179331D01*
X19208D01*
Y-182874D01*
X16142D01*
Y-193110D01*
X26378D01*
Y-182874D01*
X21737D01*
Y-179331D01*
X23819D01*
Y-171850D01*
D02*
G37*
G36*
X188583Y-182830D02*
X187247Y-183006D01*
X186002Y-183521D01*
X184932Y-184342D01*
X184112Y-185411D01*
X183596Y-186656D01*
X183420Y-187992D01*
X183596Y-189328D01*
X184112Y-190573D01*
X184932Y-191642D01*
X186002Y-192463D01*
X187247Y-192979D01*
X188583Y-193154D01*
X189919Y-192979D01*
X191164Y-192463D01*
X192233Y-191642D01*
X193053Y-190573D01*
X193569Y-189328D01*
X193745Y-187992D01*
X193569Y-186656D01*
X193053Y-185411D01*
X192233Y-184342D01*
X191164Y-183521D01*
X189919Y-183006D01*
X188583Y-182830D01*
D02*
G37*
G36*
X141339D02*
X140002Y-183006D01*
X138757Y-183521D01*
X137688Y-184342D01*
X136868Y-185411D01*
X136352Y-186656D01*
X136176Y-187992D01*
X136352Y-189328D01*
X136868Y-190573D01*
X137688Y-191642D01*
X138757Y-192463D01*
X140002Y-192979D01*
X141339Y-193154D01*
X142675Y-192979D01*
X143920Y-192463D01*
X144989Y-191642D01*
X145809Y-190573D01*
X146325Y-189328D01*
X146501Y-187992D01*
X146325Y-186656D01*
X145809Y-185411D01*
X144989Y-184342D01*
X143920Y-183521D01*
X142675Y-183006D01*
X141339Y-182830D01*
D02*
G37*
G36*
X94095D02*
X92758Y-183006D01*
X91513Y-183521D01*
X90444Y-184342D01*
X89624Y-185411D01*
X89108Y-186656D01*
X88932Y-187992D01*
X89108Y-189328D01*
X89624Y-190573D01*
X90444Y-191642D01*
X91513Y-192463D01*
X92758Y-192979D01*
X94095Y-193154D01*
X95431Y-192979D01*
X96676Y-192463D01*
X97745Y-191642D01*
X98565Y-190573D01*
X99081Y-189328D01*
X99257Y-187992D01*
X99081Y-186656D01*
X98565Y-185411D01*
X97745Y-184342D01*
X96676Y-183521D01*
X95431Y-183006D01*
X94095Y-182830D01*
D02*
G37*
G36*
X46850D02*
X45514Y-183006D01*
X44269Y-183521D01*
X43200Y-184342D01*
X42380Y-185411D01*
X41864Y-186656D01*
X41688Y-187992D01*
X41864Y-189328D01*
X42380Y-190573D01*
X43200Y-191642D01*
X44269Y-192463D01*
X45514Y-192979D01*
X46850Y-193154D01*
X48186Y-192979D01*
X49431Y-192463D01*
X50501Y-191642D01*
X51321Y-190573D01*
X51837Y-189328D01*
X52013Y-187992D01*
X51837Y-186656D01*
X51321Y-185411D01*
X50501Y-184342D01*
X49431Y-183521D01*
X48186Y-183006D01*
X46850Y-182830D01*
D02*
G37*
G36*
X560500Y-189823D02*
X559421Y-189965D01*
X558415Y-190381D01*
X557552Y-191044D01*
X556889Y-191907D01*
X556472Y-192913D01*
X556330Y-193992D01*
X556472Y-195071D01*
X556889Y-196077D01*
X557552Y-196940D01*
X558415Y-197603D01*
X559421Y-198020D01*
X560500Y-198162D01*
X561579Y-198020D01*
X562585Y-197603D01*
X563448Y-196940D01*
X564111Y-196077D01*
X564528Y-195071D01*
X564670Y-193992D01*
X564528Y-192913D01*
X564111Y-191907D01*
X563448Y-191044D01*
X562585Y-190381D01*
X561579Y-189965D01*
X560500Y-189823D01*
D02*
G37*
G36*
X550500D02*
X549421Y-189965D01*
X548415Y-190381D01*
X547552Y-191044D01*
X546889Y-191907D01*
X546473Y-192913D01*
X546330Y-193992D01*
X546473Y-195071D01*
X546889Y-196077D01*
X547552Y-196940D01*
X548415Y-197603D01*
X549421Y-198020D01*
X550500Y-198162D01*
X551579Y-198020D01*
X552585Y-197603D01*
X553448Y-196940D01*
X554111Y-196077D01*
X554528Y-195071D01*
X554670Y-193992D01*
X554528Y-192913D01*
X554111Y-191907D01*
X553448Y-191044D01*
X552585Y-190381D01*
X551579Y-189965D01*
X550500Y-189823D01*
D02*
G37*
G36*
X561500Y-199740D02*
Y-202992D01*
X564752D01*
X564735Y-202857D01*
X564297Y-201800D01*
X563600Y-200892D01*
X562692Y-200196D01*
X561635Y-199758D01*
X561500Y-199740D01*
D02*
G37*
G36*
X559500D02*
X559365Y-199758D01*
X558308Y-200196D01*
X557400Y-200892D01*
X556703Y-201800D01*
X556265Y-202857D01*
X556248Y-202992D01*
X559500D01*
Y-199740D01*
D02*
G37*
G36*
X551500D02*
Y-202992D01*
X554752D01*
X554735Y-202857D01*
X554297Y-201800D01*
X553600Y-200892D01*
X552692Y-200196D01*
X551635Y-199758D01*
X551500Y-199740D01*
D02*
G37*
G36*
X549500D02*
X549365Y-199758D01*
X548308Y-200196D01*
X547400Y-200892D01*
X546703Y-201800D01*
X546265Y-202857D01*
X546248Y-202992D01*
X549500D01*
Y-199740D01*
D02*
G37*
G36*
X189083Y-200398D02*
Y-205209D01*
X193894D01*
X193777Y-204317D01*
X193239Y-203020D01*
X192385Y-201907D01*
X191271Y-201052D01*
X189975Y-200515D01*
X189083Y-200398D01*
D02*
G37*
G36*
X188083D02*
X187191Y-200515D01*
X185895Y-201052D01*
X184781Y-201907D01*
X183927Y-203020D01*
X183390Y-204317D01*
X183272Y-205209D01*
X188083D01*
Y-200398D01*
D02*
G37*
G36*
X163492D02*
Y-205209D01*
X168303D01*
X168185Y-204317D01*
X167648Y-203020D01*
X166794Y-201907D01*
X165680Y-201052D01*
X164383Y-200515D01*
X163492Y-200398D01*
D02*
G37*
G36*
X162492D02*
X161600Y-200515D01*
X160303Y-201052D01*
X159190Y-201907D01*
X158335Y-203020D01*
X157798Y-204317D01*
X157681Y-205209D01*
X162492D01*
Y-200398D01*
D02*
G37*
G36*
X141839D02*
Y-205209D01*
X146650D01*
X146532Y-204317D01*
X145995Y-203020D01*
X145141Y-201907D01*
X144027Y-201052D01*
X142730Y-200515D01*
X141839Y-200398D01*
D02*
G37*
G36*
X140839D02*
X139947Y-200515D01*
X138651Y-201052D01*
X137537Y-201907D01*
X136682Y-203020D01*
X136145Y-204317D01*
X136028Y-205209D01*
X140839D01*
Y-200398D01*
D02*
G37*
G36*
X116248D02*
Y-205209D01*
X121059D01*
X120941Y-204317D01*
X120404Y-203020D01*
X119550Y-201907D01*
X118436Y-201052D01*
X117139Y-200515D01*
X116248Y-200398D01*
D02*
G37*
G36*
X115248D02*
X114356Y-200515D01*
X113059Y-201052D01*
X111946Y-201907D01*
X111091Y-203020D01*
X110554Y-204317D01*
X110437Y-205209D01*
X115248D01*
Y-200398D01*
D02*
G37*
G36*
X94595D02*
Y-205209D01*
X99406D01*
X99288Y-204317D01*
X98751Y-203020D01*
X97897Y-201907D01*
X96783Y-201052D01*
X95486Y-200515D01*
X94595Y-200398D01*
D02*
G37*
G36*
X93595D02*
X92703Y-200515D01*
X91407Y-201052D01*
X90293Y-201907D01*
X89438Y-203020D01*
X88901Y-204317D01*
X88784Y-205209D01*
X93595D01*
Y-200398D01*
D02*
G37*
G36*
X69003D02*
Y-205209D01*
X73814D01*
X73697Y-204317D01*
X73160Y-203020D01*
X72305Y-201907D01*
X71192Y-201052D01*
X69895Y-200515D01*
X69003Y-200398D01*
D02*
G37*
G36*
X68003D02*
X67112Y-200515D01*
X65815Y-201052D01*
X64702Y-201907D01*
X63847Y-203020D01*
X63310Y-204317D01*
X63193Y-205209D01*
X68003D01*
Y-200398D01*
D02*
G37*
G36*
X47351D02*
Y-205209D01*
X52162D01*
X52044Y-204317D01*
X51507Y-203020D01*
X50653Y-201907D01*
X49539Y-201052D01*
X48242Y-200515D01*
X47351Y-200398D01*
D02*
G37*
G36*
X46351D02*
X45459Y-200515D01*
X44162Y-201052D01*
X43049Y-201907D01*
X42194Y-203020D01*
X41657Y-204317D01*
X41540Y-205209D01*
X46351D01*
Y-200398D01*
D02*
G37*
G36*
X21759D02*
Y-205209D01*
X26570D01*
X26453Y-204317D01*
X25916Y-203020D01*
X25061Y-201907D01*
X23948Y-201052D01*
X22651Y-200515D01*
X21759Y-200398D01*
D02*
G37*
G36*
X20760D02*
X19868Y-200515D01*
X18571Y-201052D01*
X17458Y-201907D01*
X16603Y-203020D01*
X16066Y-204317D01*
X15949Y-205209D01*
X20760D01*
Y-200398D01*
D02*
G37*
G36*
X564752Y-204992D02*
X561500D01*
Y-208244D01*
X561635Y-208227D01*
X562692Y-207789D01*
X563600Y-207092D01*
X564297Y-206184D01*
X564735Y-205127D01*
X564752Y-204992D01*
D02*
G37*
G36*
X559500D02*
X556248D01*
X556265Y-205127D01*
X556703Y-206184D01*
X557400Y-207092D01*
X558308Y-207789D01*
X559365Y-208227D01*
X559500Y-208244D01*
Y-204992D01*
D02*
G37*
G36*
X554752D02*
X551500D01*
Y-208244D01*
X551635Y-208227D01*
X552692Y-207789D01*
X553600Y-207092D01*
X554297Y-206184D01*
X554735Y-205127D01*
X554752Y-204992D01*
D02*
G37*
G36*
X549500D02*
X546248D01*
X546265Y-205127D01*
X546703Y-206184D01*
X547400Y-207092D01*
X548308Y-207789D01*
X549365Y-208227D01*
X549500Y-208244D01*
Y-204992D01*
D02*
G37*
G36*
X193894Y-206209D02*
X189083D01*
Y-211020D01*
X189975Y-210902D01*
X191271Y-210365D01*
X192385Y-209511D01*
X193239Y-208397D01*
X193777Y-207100D01*
X193894Y-206209D01*
D02*
G37*
G36*
X188083D02*
X183272D01*
X183390Y-207100D01*
X183927Y-208397D01*
X184781Y-209511D01*
X185895Y-210365D01*
X187191Y-210902D01*
X188083Y-211020D01*
Y-206209D01*
D02*
G37*
G36*
X168303D02*
X163492D01*
Y-211020D01*
X164383Y-210902D01*
X165680Y-210365D01*
X166794Y-209511D01*
X167648Y-208397D01*
X168185Y-207100D01*
X168303Y-206209D01*
D02*
G37*
G36*
X162492D02*
X157681D01*
X157798Y-207100D01*
X158335Y-208397D01*
X159190Y-209511D01*
X160303Y-210365D01*
X161600Y-210902D01*
X162492Y-211020D01*
Y-206209D01*
D02*
G37*
G36*
X146650D02*
X141839D01*
Y-211020D01*
X142730Y-210902D01*
X144027Y-210365D01*
X145141Y-209511D01*
X145995Y-208397D01*
X146532Y-207100D01*
X146650Y-206209D01*
D02*
G37*
G36*
X140839D02*
X136028D01*
X136145Y-207100D01*
X136682Y-208397D01*
X137537Y-209511D01*
X138651Y-210365D01*
X139947Y-210902D01*
X140839Y-211020D01*
Y-206209D01*
D02*
G37*
G36*
X121059D02*
X116248D01*
Y-211020D01*
X117139Y-210902D01*
X118436Y-210365D01*
X119550Y-209511D01*
X120404Y-208397D01*
X120941Y-207100D01*
X121059Y-206209D01*
D02*
G37*
G36*
X115248D02*
X110437D01*
X110554Y-207100D01*
X111091Y-208397D01*
X111946Y-209511D01*
X113059Y-210365D01*
X114356Y-210902D01*
X115248Y-211020D01*
Y-206209D01*
D02*
G37*
G36*
X99406D02*
X94595D01*
Y-211020D01*
X95486Y-210902D01*
X96783Y-210365D01*
X97897Y-209511D01*
X98751Y-208397D01*
X99288Y-207100D01*
X99406Y-206209D01*
D02*
G37*
G36*
X93595D02*
X88784D01*
X88901Y-207100D01*
X89438Y-208397D01*
X90293Y-209511D01*
X91407Y-210365D01*
X92703Y-210902D01*
X93595Y-211020D01*
Y-206209D01*
D02*
G37*
G36*
X73814D02*
X69003D01*
Y-211020D01*
X69895Y-210902D01*
X71192Y-210365D01*
X72305Y-209511D01*
X73160Y-208397D01*
X73697Y-207100D01*
X73814Y-206209D01*
D02*
G37*
G36*
X68003D02*
X63193D01*
X63310Y-207100D01*
X63847Y-208397D01*
X64702Y-209511D01*
X65815Y-210365D01*
X67112Y-210902D01*
X68003Y-211020D01*
Y-206209D01*
D02*
G37*
G36*
X52162D02*
X47351D01*
Y-211020D01*
X48242Y-210902D01*
X49539Y-210365D01*
X50653Y-209511D01*
X51507Y-208397D01*
X52044Y-207100D01*
X52162Y-206209D01*
D02*
G37*
G36*
X46351D02*
X41540D01*
X41657Y-207100D01*
X42194Y-208397D01*
X43049Y-209511D01*
X44162Y-210365D01*
X45459Y-210902D01*
X46351Y-211020D01*
Y-206209D01*
D02*
G37*
G36*
X26570D02*
X21759D01*
Y-211020D01*
X22651Y-210902D01*
X23948Y-210365D01*
X25061Y-209511D01*
X25916Y-208397D01*
X26453Y-207100D01*
X26570Y-206209D01*
D02*
G37*
G36*
X20760D02*
X15949D01*
X16066Y-207100D01*
X16603Y-208397D01*
X17458Y-209511D01*
X18571Y-210365D01*
X19868Y-210902D01*
X20760Y-211020D01*
Y-206209D01*
D02*
G37*
G36*
X555988Y-211371D02*
X554599Y-211508D01*
X553263Y-211913D01*
X552032Y-212571D01*
X550953Y-213457D01*
X550067Y-214536D01*
X549409Y-215767D01*
X549004Y-217103D01*
X548867Y-218492D01*
X549004Y-219881D01*
X549409Y-221217D01*
X550067Y-222448D01*
X550953Y-223527D01*
X552032Y-224413D01*
X553263Y-225071D01*
X554599Y-225476D01*
X555988Y-225613D01*
X557377Y-225476D01*
X558713Y-225071D01*
X559944Y-224413D01*
X561023Y-223527D01*
X561909Y-222448D01*
X562567Y-221217D01*
X562972Y-219881D01*
X563109Y-218492D01*
X562972Y-217103D01*
X562567Y-215767D01*
X561909Y-214536D01*
X561023Y-213457D01*
X559944Y-212571D01*
X558713Y-211913D01*
X557377Y-211508D01*
X555988Y-211371D01*
D02*
G37*
G36*
X217799D02*
X216410Y-211508D01*
X215074Y-211913D01*
X213843Y-212571D01*
X212764Y-213457D01*
X211878Y-214536D01*
X211220Y-215767D01*
X210815Y-217103D01*
X210678Y-218492D01*
X210815Y-219881D01*
X211220Y-221217D01*
X211878Y-222448D01*
X212764Y-223527D01*
X213843Y-224413D01*
X215074Y-225071D01*
X216410Y-225476D01*
X217799Y-225613D01*
X219188Y-225476D01*
X220524Y-225071D01*
X221755Y-224413D01*
X222834Y-223527D01*
X223720Y-222448D01*
X224378Y-221217D01*
X224783Y-219881D01*
X224920Y-218492D01*
X224783Y-217103D01*
X224378Y-215767D01*
X223720Y-214536D01*
X222834Y-213457D01*
X221755Y-212571D01*
X220524Y-211913D01*
X219188Y-211508D01*
X217799Y-211371D01*
D02*
G37*
G36*
X302051Y-217823D02*
X300972Y-217965D01*
X299966Y-218381D01*
X299103Y-219044D01*
X298440Y-219907D01*
X298024Y-220913D01*
X297882Y-221992D01*
X298024Y-223071D01*
X298440Y-224077D01*
X299103Y-224940D01*
X299966Y-225603D01*
X300972Y-226020D01*
X302051Y-226162D01*
X303130Y-226020D01*
X304136Y-225603D01*
X304999Y-224940D01*
X305662Y-224077D01*
X306079Y-223071D01*
X306221Y-221992D01*
X306079Y-220913D01*
X305662Y-219907D01*
X304999Y-219044D01*
X304136Y-218381D01*
X303130Y-217965D01*
X302051Y-217823D01*
D02*
G37*
G36*
X598835Y-230693D02*
X594988D01*
Y-234539D01*
X598835D01*
Y-230693D01*
D02*
G37*
G36*
X593988D02*
X590142D01*
Y-234539D01*
X593988D01*
Y-230693D01*
D02*
G37*
G36*
X677527Y-231834D02*
X676799Y-231930D01*
X676121Y-232211D01*
X675539Y-232658D01*
X675092Y-233240D01*
X674811Y-233918D01*
X674716Y-234646D01*
X674785Y-235171D01*
X673023Y-236932D01*
X668500D01*
X667900Y-237052D01*
X667392Y-237392D01*
X663392Y-241392D01*
X663052Y-241900D01*
X662932Y-242500D01*
Y-253500D01*
X663052Y-254100D01*
X663392Y-254608D01*
X667392Y-258608D01*
X667900Y-258948D01*
X668500Y-259068D01*
X675189D01*
X675512Y-259488D01*
X676094Y-259935D01*
X676772Y-260216D01*
X677500Y-260312D01*
X678228Y-260216D01*
X678906Y-259935D01*
X679488Y-259488D01*
X679935Y-258906D01*
X680216Y-258228D01*
X680311Y-257500D01*
X680216Y-256772D01*
X679935Y-256094D01*
X679488Y-255512D01*
X678906Y-255065D01*
X678228Y-254784D01*
X677500Y-254689D01*
X676772Y-254784D01*
X676094Y-255065D01*
X675512Y-255512D01*
X675189Y-255932D01*
X669149D01*
X666068Y-252851D01*
Y-243149D01*
X669149Y-240068D01*
X673673D01*
X674273Y-239948D01*
X674781Y-239608D01*
X677001Y-237388D01*
X677527Y-237457D01*
X678255Y-237361D01*
X678933Y-237081D01*
X679515Y-236634D01*
X679962Y-236051D01*
X680243Y-235373D01*
X680338Y-234646D01*
X680243Y-233918D01*
X679962Y-233240D01*
X679515Y-232658D01*
X678933Y-232211D01*
X678255Y-231930D01*
X677527Y-231834D01*
D02*
G37*
G36*
X69003Y-233862D02*
Y-238673D01*
X73814D01*
X73697Y-237782D01*
X73160Y-236485D01*
X72305Y-235371D01*
X71192Y-234517D01*
X69895Y-233980D01*
X69003Y-233862D01*
D02*
G37*
G36*
X21759D02*
Y-238673D01*
X26570D01*
X26453Y-237782D01*
X25916Y-236485D01*
X25061Y-235371D01*
X23948Y-234517D01*
X22651Y-233980D01*
X21759Y-233862D01*
D02*
G37*
G36*
X189083D02*
Y-238673D01*
X193894D01*
X193777Y-237782D01*
X193239Y-236485D01*
X192385Y-235371D01*
X191271Y-234517D01*
X189975Y-233980D01*
X189083Y-233862D01*
D02*
G37*
G36*
X163492D02*
Y-238673D01*
X168303D01*
X168185Y-237782D01*
X167648Y-236485D01*
X166794Y-235371D01*
X165680Y-234517D01*
X164383Y-233980D01*
X163492Y-233862D01*
D02*
G37*
G36*
X94595D02*
Y-238673D01*
X99406D01*
X99288Y-237782D01*
X98751Y-236485D01*
X97897Y-235371D01*
X96783Y-234517D01*
X95486Y-233980D01*
X94595Y-233862D01*
D02*
G37*
G36*
X47351D02*
Y-238673D01*
X52162D01*
X52044Y-237782D01*
X51507Y-236485D01*
X50653Y-235371D01*
X49539Y-234517D01*
X48242Y-233980D01*
X47351Y-233862D01*
D02*
G37*
G36*
X141839D02*
Y-238673D01*
X146650D01*
X146532Y-237782D01*
X145995Y-236485D01*
X145141Y-235371D01*
X144027Y-234517D01*
X142730Y-233980D01*
X141839Y-233862D01*
D02*
G37*
G36*
X116248D02*
Y-238673D01*
X121059D01*
X120941Y-237782D01*
X120404Y-236485D01*
X119550Y-235371D01*
X118436Y-234517D01*
X117139Y-233980D01*
X116248Y-233862D01*
D02*
G37*
G36*
X68003D02*
X67112Y-233980D01*
X65815Y-234517D01*
X64702Y-235371D01*
X63847Y-236485D01*
X63310Y-237782D01*
X63193Y-238673D01*
X68003D01*
Y-233862D01*
D02*
G37*
G36*
X20760D02*
X19868Y-233980D01*
X18571Y-234517D01*
X17458Y-235371D01*
X16603Y-236485D01*
X16066Y-237782D01*
X15949Y-238673D01*
X20760D01*
Y-233862D01*
D02*
G37*
G36*
X93595D02*
X92703Y-233980D01*
X91407Y-234517D01*
X90293Y-235371D01*
X89438Y-236485D01*
X88901Y-237782D01*
X88784Y-238673D01*
X93595D01*
Y-233862D01*
D02*
G37*
G36*
X46351D02*
X45459Y-233980D01*
X44162Y-234517D01*
X43049Y-235371D01*
X42194Y-236485D01*
X41657Y-237782D01*
X41540Y-238673D01*
X46351D01*
Y-233862D01*
D02*
G37*
G36*
X188083D02*
X187191Y-233980D01*
X185895Y-234517D01*
X184781Y-235371D01*
X183927Y-236485D01*
X183390Y-237782D01*
X183272Y-238673D01*
X188083D01*
Y-233862D01*
D02*
G37*
G36*
X162492D02*
X161600Y-233980D01*
X160303Y-234517D01*
X159190Y-235371D01*
X158335Y-236485D01*
X157798Y-237782D01*
X157681Y-238673D01*
X162492D01*
Y-233862D01*
D02*
G37*
G36*
X140839D02*
X139947Y-233980D01*
X138651Y-234517D01*
X137537Y-235371D01*
X136682Y-236485D01*
X136145Y-237782D01*
X136028Y-238673D01*
X140839D01*
Y-233862D01*
D02*
G37*
G36*
X115248D02*
X114356Y-233980D01*
X113059Y-234517D01*
X111946Y-235371D01*
X111091Y-236485D01*
X110554Y-237782D01*
X110437Y-238673D01*
X115248D01*
Y-233862D01*
D02*
G37*
G36*
X574488Y-230870D02*
X573409Y-231012D01*
X572403Y-231428D01*
X571540Y-232091D01*
X570877Y-232955D01*
X570461Y-233960D01*
X570319Y-235039D01*
X570461Y-236119D01*
X570877Y-237124D01*
X571540Y-237988D01*
X572403Y-238650D01*
X573409Y-239067D01*
X574488Y-239209D01*
X575567Y-239067D01*
X576573Y-238650D01*
X577436Y-237988D01*
X578099Y-237124D01*
X578515Y-236119D01*
X578658Y-235039D01*
X578515Y-233960D01*
X578099Y-232955D01*
X577436Y-232091D01*
X576573Y-231428D01*
X575567Y-231012D01*
X574488Y-230870D01*
D02*
G37*
G36*
X564488D02*
X563409Y-231012D01*
X562403Y-231428D01*
X561540Y-232091D01*
X560877Y-232955D01*
X560461Y-233960D01*
X560319Y-235039D01*
X560461Y-236119D01*
X560877Y-237124D01*
X561540Y-237988D01*
X562403Y-238650D01*
X563409Y-239067D01*
X564488Y-239209D01*
X565567Y-239067D01*
X566573Y-238650D01*
X567436Y-237988D01*
X568099Y-237124D01*
X568515Y-236119D01*
X568658Y-235039D01*
X568515Y-233960D01*
X568099Y-232955D01*
X567436Y-232091D01*
X566573Y-231428D01*
X565567Y-231012D01*
X564488Y-230870D01*
D02*
G37*
G36*
X598835Y-235539D02*
X594988D01*
Y-239386D01*
X598835D01*
Y-235539D01*
D02*
G37*
G36*
X593988D02*
X590142D01*
Y-239386D01*
X593988D01*
Y-235539D01*
D02*
G37*
G36*
X695000Y-234189D02*
X694272Y-234284D01*
X693594Y-234565D01*
X693012Y-235012D01*
X692565Y-235594D01*
X692284Y-236272D01*
X692189Y-237000D01*
X692258Y-237526D01*
X680563Y-249220D01*
X671696D01*
X671374Y-248799D01*
X670791Y-248353D01*
X670113Y-248072D01*
X669385Y-247976D01*
X668658Y-248072D01*
X667980Y-248353D01*
X667397Y-248799D01*
X666951Y-249382D01*
X666670Y-250060D01*
X666574Y-250787D01*
X666670Y-251515D01*
X666951Y-252193D01*
X667397Y-252775D01*
X667980Y-253222D01*
X668658Y-253503D01*
X669385Y-253599D01*
X670113Y-253503D01*
X670791Y-253222D01*
X671374Y-252775D01*
X671696Y-252355D01*
X681213D01*
X681813Y-252236D01*
X682321Y-251896D01*
X694475Y-239742D01*
X695000Y-239811D01*
X695728Y-239716D01*
X696406Y-239435D01*
X696988Y-238988D01*
X697435Y-238406D01*
X697716Y-237728D01*
X697811Y-237000D01*
X697716Y-236272D01*
X697435Y-235594D01*
X696988Y-235012D01*
X696406Y-234565D01*
X695728Y-234284D01*
X695000Y-234189D01*
D02*
G37*
G36*
X193894Y-239673D02*
X189083D01*
Y-244484D01*
X189975Y-244367D01*
X191271Y-243830D01*
X192385Y-242975D01*
X193239Y-241862D01*
X193777Y-240565D01*
X193894Y-239673D01*
D02*
G37*
G36*
X168303D02*
X163492D01*
Y-244484D01*
X164383Y-244367D01*
X165680Y-243830D01*
X166794Y-242975D01*
X167648Y-241862D01*
X168185Y-240565D01*
X168303Y-239673D01*
D02*
G37*
G36*
X146650D02*
X141839D01*
Y-244484D01*
X142730Y-244367D01*
X144027Y-243830D01*
X145141Y-242975D01*
X145995Y-241862D01*
X146532Y-240565D01*
X146650Y-239673D01*
D02*
G37*
G36*
X121059D02*
X116248D01*
Y-244484D01*
X117139Y-244367D01*
X118436Y-243830D01*
X119550Y-242975D01*
X120404Y-241862D01*
X120941Y-240565D01*
X121059Y-239673D01*
D02*
G37*
G36*
X99406D02*
X94595D01*
Y-244484D01*
X95486Y-244367D01*
X96783Y-243830D01*
X97897Y-242975D01*
X98751Y-241862D01*
X99288Y-240565D01*
X99406Y-239673D01*
D02*
G37*
G36*
X73814D02*
X69003D01*
Y-244484D01*
X69895Y-244367D01*
X71192Y-243830D01*
X72305Y-242975D01*
X73160Y-241862D01*
X73697Y-240565D01*
X73814Y-239673D01*
D02*
G37*
G36*
X52162D02*
X47351D01*
Y-244484D01*
X48242Y-244367D01*
X49539Y-243830D01*
X50653Y-242975D01*
X51507Y-241862D01*
X52044Y-240565D01*
X52162Y-239673D01*
D02*
G37*
G36*
X26570D02*
X21759D01*
Y-244484D01*
X22651Y-244367D01*
X23948Y-243830D01*
X25061Y-242975D01*
X25916Y-241862D01*
X26453Y-240565D01*
X26570Y-239673D01*
D02*
G37*
G36*
X188083D02*
X183272D01*
X183390Y-240565D01*
X183927Y-241862D01*
X184781Y-242975D01*
X185895Y-243830D01*
X187191Y-244367D01*
X188083Y-244484D01*
Y-239673D01*
D02*
G37*
G36*
X162492D02*
X157681D01*
X157798Y-240565D01*
X158335Y-241862D01*
X159190Y-242975D01*
X160303Y-243830D01*
X161600Y-244367D01*
X162492Y-244484D01*
Y-239673D01*
D02*
G37*
G36*
X140839D02*
X136028D01*
X136145Y-240565D01*
X136682Y-241862D01*
X137537Y-242975D01*
X138651Y-243830D01*
X139947Y-244367D01*
X140839Y-244484D01*
Y-239673D01*
D02*
G37*
G36*
X115248D02*
X110437D01*
X110554Y-240565D01*
X111091Y-241862D01*
X111946Y-242975D01*
X113059Y-243830D01*
X114356Y-244367D01*
X115248Y-244484D01*
Y-239673D01*
D02*
G37*
G36*
X93595D02*
X88784D01*
X88901Y-240565D01*
X89438Y-241862D01*
X90293Y-242975D01*
X91407Y-243830D01*
X92703Y-244367D01*
X93595Y-244484D01*
Y-239673D01*
D02*
G37*
G36*
X68003D02*
X63193D01*
X63310Y-240565D01*
X63847Y-241862D01*
X64702Y-242975D01*
X65815Y-243830D01*
X67112Y-244367D01*
X68003Y-244484D01*
Y-239673D01*
D02*
G37*
G36*
X46351D02*
X41540D01*
X41657Y-240565D01*
X42194Y-241862D01*
X43049Y-242975D01*
X44162Y-243830D01*
X45459Y-244367D01*
X46351Y-244484D01*
Y-239673D01*
D02*
G37*
G36*
X20760D02*
X15949D01*
X16066Y-240565D01*
X16603Y-241862D01*
X17458Y-242975D01*
X18571Y-243830D01*
X19868Y-244367D01*
X20760Y-244484D01*
Y-239673D01*
D02*
G37*
G36*
X508500Y-173189D02*
X507772Y-173284D01*
X507094Y-173565D01*
X506512Y-174012D01*
X506065Y-174594D01*
X505784Y-175272D01*
X505689Y-176000D01*
X505784Y-176728D01*
X506065Y-177406D01*
X506512Y-177988D01*
X507094Y-178435D01*
X507187Y-178473D01*
Y-230000D01*
X507287Y-230502D01*
X507572Y-230928D01*
X521572Y-244928D01*
X521998Y-245213D01*
X522500Y-245313D01*
X621453D01*
X621955Y-245213D01*
X622381Y-244928D01*
X623253Y-244056D01*
X623397Y-244167D01*
X624075Y-244448D01*
X624803Y-244544D01*
X625531Y-244448D01*
X626209Y-244167D01*
X626791Y-243720D01*
X627238Y-243138D01*
X627519Y-242460D01*
X627614Y-241732D01*
X627519Y-241005D01*
X627238Y-240327D01*
X626791Y-239744D01*
X626209Y-239298D01*
X625531Y-239017D01*
X624803Y-238921D01*
X624075Y-239017D01*
X623397Y-239298D01*
X622815Y-239744D01*
X622368Y-240327D01*
X622087Y-241005D01*
X622011Y-241586D01*
X620909Y-242687D01*
X523044D01*
X509813Y-229456D01*
Y-178473D01*
X509906Y-178435D01*
X510488Y-177988D01*
X510935Y-177406D01*
X511216Y-176728D01*
X511311Y-176000D01*
X511216Y-175272D01*
X510935Y-174594D01*
X510488Y-174012D01*
X509906Y-173565D01*
X509228Y-173284D01*
X508500Y-173189D01*
D02*
G37*
G36*
X484449Y-257677D02*
X474213D01*
Y-261531D01*
X472461D01*
X472327Y-261558D01*
X471850Y-261614D01*
X471850Y-261614D01*
X471850Y-261614D01*
X464370D01*
Y-268307D01*
X471850D01*
Y-266225D01*
X472461D01*
X472945Y-266129D01*
X473355Y-265855D01*
X473629Y-265445D01*
X473713Y-265024D01*
X474213Y-265073D01*
Y-267913D01*
X484449D01*
Y-257677D01*
D02*
G37*
G36*
X432087D02*
X421850D01*
Y-261531D01*
X419665D01*
X419568Y-261550D01*
X419094Y-261614D01*
X419094Y-261614D01*
X419094Y-261614D01*
X411614D01*
Y-268307D01*
X419094D01*
Y-266225D01*
X419665D01*
X420149Y-266129D01*
X420559Y-265855D01*
X420833Y-265445D01*
X420930Y-264961D01*
Y-264060D01*
X421850D01*
Y-267913D01*
X432087D01*
Y-257677D01*
D02*
G37*
G36*
X274606D02*
X264370D01*
Y-261531D01*
X262185D01*
X262088Y-261550D01*
X261614Y-261614D01*
X261614Y-261614D01*
X261614Y-261614D01*
X254134D01*
Y-268307D01*
X261614D01*
Y-266225D01*
X262185D01*
X262669Y-266129D01*
X263079Y-265855D01*
X263353Y-265445D01*
X263450Y-264961D01*
Y-264060D01*
X264370D01*
Y-267913D01*
X274606D01*
Y-257677D01*
D02*
G37*
G36*
X162992Y-251727D02*
X161656Y-251903D01*
X160411Y-252419D01*
X159342Y-253239D01*
X158521Y-254309D01*
X158006Y-255554D01*
X157830Y-256890D01*
X158006Y-258226D01*
X158521Y-259471D01*
X159342Y-260540D01*
X160411Y-261360D01*
X161656Y-261876D01*
X162992Y-262052D01*
X164328Y-261876D01*
X165573Y-261360D01*
X166642Y-260540D01*
X167463Y-259471D01*
X167979Y-258226D01*
X168154Y-256890D01*
X167979Y-255554D01*
X167463Y-254309D01*
X166642Y-253239D01*
X165573Y-252419D01*
X164328Y-251903D01*
X162992Y-251727D01*
D02*
G37*
G36*
X115748D02*
X114412Y-251903D01*
X113167Y-252419D01*
X112098Y-253239D01*
X111277Y-254309D01*
X110762Y-255554D01*
X110586Y-256890D01*
X110762Y-258226D01*
X111277Y-259471D01*
X112098Y-260540D01*
X113167Y-261360D01*
X114412Y-261876D01*
X115748Y-262052D01*
X117084Y-261876D01*
X118329Y-261360D01*
X119398Y-260540D01*
X120219Y-259471D01*
X120735Y-258226D01*
X120910Y-256890D01*
X120735Y-255554D01*
X120219Y-254309D01*
X119398Y-253239D01*
X118329Y-252419D01*
X117084Y-251903D01*
X115748Y-251727D01*
D02*
G37*
G36*
X68504D02*
X67168Y-251903D01*
X65923Y-252419D01*
X64854Y-253239D01*
X64033Y-254309D01*
X63517Y-255554D01*
X63342Y-256890D01*
X63517Y-258226D01*
X64033Y-259471D01*
X64854Y-260540D01*
X65923Y-261360D01*
X67168Y-261876D01*
X68504Y-262052D01*
X69840Y-261876D01*
X71085Y-261360D01*
X72154Y-260540D01*
X72975Y-259471D01*
X73490Y-258226D01*
X73666Y-256890D01*
X73490Y-255554D01*
X72975Y-254309D01*
X72154Y-253239D01*
X71085Y-252419D01*
X69840Y-251903D01*
X68504Y-251727D01*
D02*
G37*
G36*
X21260D02*
X19924Y-251903D01*
X18679Y-252419D01*
X17610Y-253239D01*
X16789Y-254309D01*
X16274Y-255554D01*
X16098Y-256890D01*
X16274Y-258226D01*
X16789Y-259471D01*
X17610Y-260540D01*
X18679Y-261360D01*
X19924Y-261876D01*
X21260Y-262052D01*
X22596Y-261876D01*
X23841Y-261360D01*
X24910Y-260540D01*
X25731Y-259471D01*
X26246Y-258226D01*
X26422Y-256890D01*
X26246Y-255554D01*
X25731Y-254309D01*
X24910Y-253239D01*
X23841Y-252419D01*
X22596Y-251903D01*
X21260Y-251727D01*
D02*
G37*
G36*
X379724Y-257677D02*
X369488D01*
Y-261531D01*
X368721D01*
X368237Y-261627D01*
X367826Y-261901D01*
X366801Y-262927D01*
X366339Y-262736D01*
Y-261614D01*
X358858D01*
Y-268307D01*
X366339D01*
Y-266225D01*
X366910D01*
X367393Y-266129D01*
X367804Y-265855D01*
X368078Y-265445D01*
X368132Y-265172D01*
X368988Y-264316D01*
X369488Y-264523D01*
Y-267913D01*
X379724D01*
Y-257677D01*
D02*
G37*
G36*
X326968D02*
X316732D01*
Y-261531D01*
X315965D01*
X315481Y-261627D01*
X315070Y-261901D01*
X314045Y-262927D01*
X313583Y-262736D01*
Y-261614D01*
X306102D01*
Y-268307D01*
X313583D01*
Y-266225D01*
X314154D01*
X314637Y-266129D01*
X315048Y-265855D01*
X315322Y-265445D01*
X315376Y-265172D01*
X316232Y-264316D01*
X316732Y-264523D01*
Y-267913D01*
X326968D01*
Y-257677D01*
D02*
G37*
G36*
X222244D02*
X212008D01*
Y-263696D01*
X208858D01*
Y-261614D01*
X201378D01*
Y-268307D01*
X208858D01*
Y-266225D01*
X212008D01*
Y-267913D01*
X222244D01*
Y-257677D01*
D02*
G37*
G36*
X613500Y-221689D02*
X612772Y-221784D01*
X612094Y-222065D01*
X611512Y-222512D01*
X611065Y-223094D01*
X610784Y-223772D01*
X610689Y-224500D01*
X610784Y-225228D01*
X611065Y-225906D01*
X611512Y-226488D01*
X612094Y-226935D01*
X612772Y-227216D01*
X613500Y-227311D01*
X614228Y-227216D01*
X614906Y-226935D01*
X615488Y-226488D01*
X615811Y-226067D01*
X624351D01*
X664392Y-266108D01*
X664900Y-266448D01*
X665500Y-266567D01*
X675189D01*
X675512Y-266988D01*
X676094Y-267435D01*
X676772Y-267716D01*
X677500Y-267811D01*
X678228Y-267716D01*
X678906Y-267435D01*
X679488Y-266988D01*
X679935Y-266406D01*
X680216Y-265728D01*
X680311Y-265000D01*
X680216Y-264272D01*
X679935Y-263594D01*
X679488Y-263012D01*
X678906Y-262565D01*
X678228Y-262284D01*
X677500Y-262189D01*
X676772Y-262284D01*
X676094Y-262565D01*
X675512Y-263012D01*
X675189Y-263433D01*
X666149D01*
X626108Y-223392D01*
X625600Y-223052D01*
X625000Y-222933D01*
X615811D01*
X615488Y-222512D01*
X614906Y-222065D01*
X614228Y-221784D01*
X613500Y-221689D01*
D02*
G37*
G36*
X504921Y-257633D02*
X503585Y-257809D01*
X502340Y-258325D01*
X501271Y-259145D01*
X500451Y-260214D01*
X499935Y-261459D01*
X499759Y-262795D01*
X499935Y-264131D01*
X500451Y-265376D01*
X501271Y-266446D01*
X502340Y-267266D01*
X503585Y-267782D01*
X504921Y-267958D01*
X506257Y-267782D01*
X507502Y-267266D01*
X508572Y-266446D01*
X509392Y-265376D01*
X509908Y-264131D01*
X510084Y-262795D01*
X509908Y-261459D01*
X509392Y-260214D01*
X508572Y-259145D01*
X507502Y-258325D01*
X506257Y-257809D01*
X504921Y-257633D01*
D02*
G37*
G36*
X452559D02*
X451223Y-257809D01*
X449978Y-258325D01*
X448909Y-259145D01*
X448088Y-260214D01*
X447573Y-261459D01*
X447397Y-262795D01*
X447573Y-264131D01*
X448088Y-265376D01*
X448909Y-266446D01*
X449978Y-267266D01*
X451223Y-267782D01*
X452559Y-267958D01*
X453895Y-267782D01*
X455140Y-267266D01*
X456209Y-266446D01*
X457030Y-265376D01*
X457546Y-264131D01*
X457721Y-262795D01*
X457546Y-261459D01*
X457030Y-260214D01*
X456209Y-259145D01*
X455140Y-258325D01*
X453895Y-257809D01*
X452559Y-257633D01*
D02*
G37*
G36*
X400197D02*
X398861Y-257809D01*
X397616Y-258325D01*
X396547Y-259145D01*
X395726Y-260214D01*
X395211Y-261459D01*
X395035Y-262795D01*
X395211Y-264131D01*
X395726Y-265376D01*
X396547Y-266446D01*
X397616Y-267266D01*
X398861Y-267782D01*
X400197Y-267958D01*
X401533Y-267782D01*
X402778Y-267266D01*
X403847Y-266446D01*
X404668Y-265376D01*
X405183Y-264131D01*
X405359Y-262795D01*
X405183Y-261459D01*
X404668Y-260214D01*
X403847Y-259145D01*
X402778Y-258325D01*
X401533Y-257809D01*
X400197Y-257633D01*
D02*
G37*
G36*
X347441D02*
X346105Y-257809D01*
X344860Y-258325D01*
X343791Y-259145D01*
X342970Y-260214D01*
X342455Y-261459D01*
X342279Y-262795D01*
X342455Y-264131D01*
X342970Y-265376D01*
X343791Y-266446D01*
X344860Y-267266D01*
X346105Y-267782D01*
X347441Y-267958D01*
X348777Y-267782D01*
X350022Y-267266D01*
X351091Y-266446D01*
X351912Y-265376D01*
X352427Y-264131D01*
X352603Y-262795D01*
X352427Y-261459D01*
X351912Y-260214D01*
X351091Y-259145D01*
X350022Y-258325D01*
X348777Y-257809D01*
X347441Y-257633D01*
D02*
G37*
G36*
X295079D02*
X293743Y-257809D01*
X292498Y-258325D01*
X291428Y-259145D01*
X290608Y-260214D01*
X290092Y-261459D01*
X289916Y-262795D01*
X290092Y-264131D01*
X290608Y-265376D01*
X291428Y-266446D01*
X292498Y-267266D01*
X293743Y-267782D01*
X295079Y-267958D01*
X296415Y-267782D01*
X297660Y-267266D01*
X298729Y-266446D01*
X299549Y-265376D01*
X300065Y-264131D01*
X300241Y-262795D01*
X300065Y-261459D01*
X299549Y-260214D01*
X298729Y-259145D01*
X297660Y-258325D01*
X296415Y-257809D01*
X295079Y-257633D01*
D02*
G37*
G36*
X242717D02*
X241380Y-257809D01*
X240135Y-258325D01*
X239066Y-259145D01*
X238246Y-260214D01*
X237730Y-261459D01*
X237554Y-262795D01*
X237730Y-264131D01*
X238246Y-265376D01*
X239066Y-266446D01*
X240135Y-267266D01*
X241380Y-267782D01*
X242717Y-267958D01*
X244053Y-267782D01*
X245298Y-267266D01*
X246367Y-266446D01*
X247187Y-265376D01*
X247703Y-264131D01*
X247879Y-262795D01*
X247703Y-261459D01*
X247187Y-260214D01*
X246367Y-259145D01*
X245298Y-258325D01*
X244053Y-257809D01*
X242717Y-257633D01*
D02*
G37*
G36*
X193701Y-251772D02*
X183465D01*
Y-262008D01*
X187318D01*
Y-268504D01*
X184843D01*
Y-275197D01*
X192323D01*
Y-268504D01*
X189847D01*
Y-262008D01*
X193701D01*
Y-251772D01*
D02*
G37*
G36*
X146457D02*
X136220D01*
Y-262008D01*
X140074D01*
Y-268504D01*
X137598D01*
Y-275197D01*
X145079D01*
Y-268504D01*
X142603D01*
Y-262008D01*
X146457D01*
Y-251772D01*
D02*
G37*
G36*
X99213D02*
X88976D01*
Y-262008D01*
X92830D01*
Y-265481D01*
X92807Y-265504D01*
X92532Y-265914D01*
X92436Y-266398D01*
Y-268504D01*
X89961D01*
Y-275197D01*
X97441D01*
Y-268504D01*
X94965D01*
Y-266922D01*
X94989Y-266898D01*
X95263Y-266488D01*
X95359Y-266004D01*
Y-262008D01*
X99213D01*
Y-251772D01*
D02*
G37*
G36*
X51968D02*
X41732D01*
Y-262008D01*
X45586D01*
Y-266004D01*
X45682Y-266488D01*
X45956Y-266898D01*
X45980Y-266922D01*
Y-268504D01*
X43504D01*
Y-275197D01*
X50984D01*
Y-268504D01*
X48509D01*
Y-266398D01*
X48412Y-265914D01*
X48138Y-265504D01*
X48115Y-265481D01*
Y-262008D01*
X51968D01*
Y-251772D01*
D02*
G37*
G36*
X505422Y-275201D02*
Y-280012D01*
X510233D01*
X510115Y-279120D01*
X509578Y-277823D01*
X508724Y-276710D01*
X507610Y-275855D01*
X506313Y-275318D01*
X505422Y-275201D01*
D02*
G37*
G36*
X504422D02*
X503530Y-275318D01*
X502233Y-275855D01*
X501120Y-276710D01*
X500265Y-277823D01*
X499728Y-279120D01*
X499611Y-280012D01*
X504422D01*
Y-275201D01*
D02*
G37*
G36*
X479830D02*
Y-280012D01*
X484641D01*
X484524Y-279120D01*
X483987Y-277823D01*
X483132Y-276710D01*
X482019Y-275855D01*
X480722Y-275318D01*
X479830Y-275201D01*
D02*
G37*
G36*
X478830D02*
X477939Y-275318D01*
X476642Y-275855D01*
X475528Y-276710D01*
X474674Y-277823D01*
X474137Y-279120D01*
X474019Y-280012D01*
X478830D01*
Y-275201D01*
D02*
G37*
G36*
X453059D02*
Y-280012D01*
X457870D01*
X457753Y-279120D01*
X457216Y-277823D01*
X456361Y-276710D01*
X455248Y-275855D01*
X453951Y-275318D01*
X453059Y-275201D01*
D02*
G37*
G36*
X452060D02*
X451168Y-275318D01*
X449871Y-275855D01*
X448758Y-276710D01*
X447903Y-277823D01*
X447366Y-279120D01*
X447249Y-280012D01*
X452060D01*
Y-275201D01*
D02*
G37*
G36*
X427468D02*
Y-280012D01*
X432279D01*
X432162Y-279120D01*
X431625Y-277823D01*
X430770Y-276710D01*
X429657Y-275855D01*
X428360Y-275318D01*
X427468Y-275201D01*
D02*
G37*
G36*
X426468D02*
X425576Y-275318D01*
X424280Y-275855D01*
X423166Y-276710D01*
X422312Y-277823D01*
X421775Y-279120D01*
X421657Y-280012D01*
X426468D01*
Y-275201D01*
D02*
G37*
G36*
X400697D02*
Y-280012D01*
X405508D01*
X405391Y-279120D01*
X404854Y-277823D01*
X403999Y-276710D01*
X402886Y-275855D01*
X401589Y-275318D01*
X400697Y-275201D01*
D02*
G37*
G36*
X399697D02*
X398806Y-275318D01*
X397509Y-275855D01*
X396395Y-276710D01*
X395541Y-277823D01*
X395004Y-279120D01*
X394886Y-280012D01*
X399697D01*
Y-275201D01*
D02*
G37*
G36*
X375106D02*
Y-280012D01*
X379917D01*
X379799Y-279120D01*
X379262Y-277823D01*
X378408Y-276710D01*
X377294Y-275855D01*
X375997Y-275318D01*
X375106Y-275201D01*
D02*
G37*
G36*
X374106D02*
X373214Y-275318D01*
X371918Y-275855D01*
X370804Y-276710D01*
X369950Y-277823D01*
X369412Y-279120D01*
X369295Y-280012D01*
X374106D01*
Y-275201D01*
D02*
G37*
G36*
X347941D02*
Y-280012D01*
X352752D01*
X352635Y-279120D01*
X352098Y-277823D01*
X351243Y-276710D01*
X350130Y-275855D01*
X348833Y-275318D01*
X347941Y-275201D01*
D02*
G37*
G36*
X346941D02*
X346050Y-275318D01*
X344753Y-275855D01*
X343639Y-276710D01*
X342785Y-277823D01*
X342248Y-279120D01*
X342130Y-280012D01*
X346941D01*
Y-275201D01*
D02*
G37*
G36*
X322350D02*
Y-280012D01*
X327161D01*
X327044Y-279120D01*
X326506Y-277823D01*
X325652Y-276710D01*
X324538Y-275855D01*
X323242Y-275318D01*
X322350Y-275201D01*
D02*
G37*
G36*
X321350D02*
X320459Y-275318D01*
X319162Y-275855D01*
X318048Y-276710D01*
X317194Y-277823D01*
X316657Y-279120D01*
X316539Y-280012D01*
X321350D01*
Y-275201D01*
D02*
G37*
G36*
X295579D02*
Y-280012D01*
X300390D01*
X300273Y-279120D01*
X299735Y-277823D01*
X298881Y-276710D01*
X297767Y-275855D01*
X296471Y-275318D01*
X295579Y-275201D01*
D02*
G37*
G36*
X294579D02*
X293688Y-275318D01*
X292391Y-275855D01*
X291277Y-276710D01*
X290423Y-277823D01*
X289886Y-279120D01*
X289768Y-280012D01*
X294579D01*
Y-275201D01*
D02*
G37*
G36*
X269988D02*
Y-280012D01*
X274799D01*
X274681Y-279120D01*
X274144Y-277823D01*
X273290Y-276710D01*
X272176Y-275855D01*
X270879Y-275318D01*
X269988Y-275201D01*
D02*
G37*
G36*
X268988D02*
X268096Y-275318D01*
X266799Y-275855D01*
X265686Y-276710D01*
X264831Y-277823D01*
X264294Y-279120D01*
X264177Y-280012D01*
X268988D01*
Y-275201D01*
D02*
G37*
G36*
X243217D02*
Y-280012D01*
X248028D01*
X247910Y-279120D01*
X247373Y-277823D01*
X246519Y-276710D01*
X245405Y-275855D01*
X244109Y-275318D01*
X243217Y-275201D01*
D02*
G37*
G36*
X242217D02*
X241325Y-275318D01*
X240029Y-275855D01*
X238915Y-276710D01*
X238060Y-277823D01*
X237523Y-279120D01*
X237406Y-280012D01*
X242217D01*
Y-275201D01*
D02*
G37*
G36*
X217625D02*
Y-280012D01*
X222436D01*
X222319Y-279120D01*
X221782Y-277823D01*
X220927Y-276710D01*
X219814Y-275855D01*
X218517Y-275318D01*
X217625Y-275201D01*
D02*
G37*
G36*
X216625D02*
X215734Y-275318D01*
X214437Y-275855D01*
X213324Y-276710D01*
X212469Y-277823D01*
X211932Y-279120D01*
X211815Y-280012D01*
X216625D01*
Y-275201D01*
D02*
G37*
G36*
X510233Y-281012D02*
X505422D01*
Y-285823D01*
X506313Y-285705D01*
X507610Y-285168D01*
X508724Y-284314D01*
X509578Y-283200D01*
X510115Y-281903D01*
X510233Y-281012D01*
D02*
G37*
G36*
X504422D02*
X499611D01*
X499728Y-281903D01*
X500265Y-283200D01*
X501120Y-284314D01*
X502233Y-285168D01*
X503530Y-285705D01*
X504422Y-285823D01*
Y-281012D01*
D02*
G37*
G36*
X484641D02*
X479830D01*
Y-285823D01*
X480722Y-285705D01*
X482019Y-285168D01*
X483132Y-284314D01*
X483987Y-283200D01*
X484524Y-281903D01*
X484641Y-281012D01*
D02*
G37*
G36*
X478830D02*
X474019D01*
X474137Y-281903D01*
X474674Y-283200D01*
X475528Y-284314D01*
X476642Y-285168D01*
X477939Y-285705D01*
X478830Y-285823D01*
Y-281012D01*
D02*
G37*
G36*
X457870D02*
X453059D01*
Y-285823D01*
X453951Y-285705D01*
X455248Y-285168D01*
X456361Y-284314D01*
X457216Y-283200D01*
X457753Y-281903D01*
X457870Y-281012D01*
D02*
G37*
G36*
X452060D02*
X447249D01*
X447366Y-281903D01*
X447903Y-283200D01*
X448758Y-284314D01*
X449871Y-285168D01*
X451168Y-285705D01*
X452060Y-285823D01*
Y-281012D01*
D02*
G37*
G36*
X432279D02*
X427468D01*
Y-285823D01*
X428360Y-285705D01*
X429657Y-285168D01*
X430770Y-284314D01*
X431625Y-283200D01*
X432162Y-281903D01*
X432279Y-281012D01*
D02*
G37*
G36*
X426468D02*
X421657D01*
X421775Y-281903D01*
X422312Y-283200D01*
X423166Y-284314D01*
X424280Y-285168D01*
X425576Y-285705D01*
X426468Y-285823D01*
Y-281012D01*
D02*
G37*
G36*
X405508D02*
X400697D01*
Y-285823D01*
X401589Y-285705D01*
X402886Y-285168D01*
X403999Y-284314D01*
X404854Y-283200D01*
X405391Y-281903D01*
X405508Y-281012D01*
D02*
G37*
G36*
X399697D02*
X394886D01*
X395004Y-281903D01*
X395541Y-283200D01*
X396395Y-284314D01*
X397509Y-285168D01*
X398806Y-285705D01*
X399697Y-285823D01*
Y-281012D01*
D02*
G37*
G36*
X379917D02*
X375106D01*
Y-285823D01*
X375997Y-285705D01*
X377294Y-285168D01*
X378408Y-284314D01*
X379262Y-283200D01*
X379799Y-281903D01*
X379917Y-281012D01*
D02*
G37*
G36*
X374106D02*
X369295D01*
X369412Y-281903D01*
X369950Y-283200D01*
X370804Y-284314D01*
X371918Y-285168D01*
X373214Y-285705D01*
X374106Y-285823D01*
Y-281012D01*
D02*
G37*
G36*
X352752D02*
X347941D01*
Y-285823D01*
X348833Y-285705D01*
X350130Y-285168D01*
X351243Y-284314D01*
X352098Y-283200D01*
X352635Y-281903D01*
X352752Y-281012D01*
D02*
G37*
G36*
X346941D02*
X342130D01*
X342248Y-281903D01*
X342785Y-283200D01*
X343639Y-284314D01*
X344753Y-285168D01*
X346050Y-285705D01*
X346941Y-285823D01*
Y-281012D01*
D02*
G37*
G36*
X327161D02*
X322350D01*
Y-285823D01*
X323242Y-285705D01*
X324538Y-285168D01*
X325652Y-284314D01*
X326506Y-283200D01*
X327044Y-281903D01*
X327161Y-281012D01*
D02*
G37*
G36*
X321350D02*
X316539D01*
X316657Y-281903D01*
X317194Y-283200D01*
X318048Y-284314D01*
X319162Y-285168D01*
X320459Y-285705D01*
X321350Y-285823D01*
Y-281012D01*
D02*
G37*
G36*
X300390D02*
X295579D01*
Y-285823D01*
X296471Y-285705D01*
X297767Y-285168D01*
X298881Y-284314D01*
X299735Y-283200D01*
X300273Y-281903D01*
X300390Y-281012D01*
D02*
G37*
G36*
X294579D02*
X289768D01*
X289886Y-281903D01*
X290423Y-283200D01*
X291277Y-284314D01*
X292391Y-285168D01*
X293688Y-285705D01*
X294579Y-285823D01*
Y-281012D01*
D02*
G37*
G36*
X274799D02*
X269988D01*
Y-285823D01*
X270879Y-285705D01*
X272176Y-285168D01*
X273290Y-284314D01*
X274144Y-283200D01*
X274681Y-281903D01*
X274799Y-281012D01*
D02*
G37*
G36*
X268988D02*
X264177D01*
X264294Y-281903D01*
X264831Y-283200D01*
X265686Y-284314D01*
X266799Y-285168D01*
X268096Y-285705D01*
X268988Y-285823D01*
Y-281012D01*
D02*
G37*
G36*
X248028D02*
X243217D01*
Y-285823D01*
X244109Y-285705D01*
X245405Y-285168D01*
X246519Y-284314D01*
X247373Y-283200D01*
X247910Y-281903D01*
X248028Y-281012D01*
D02*
G37*
G36*
X242217D02*
X237406D01*
X237523Y-281903D01*
X238060Y-283200D01*
X238915Y-284314D01*
X240029Y-285168D01*
X241325Y-285705D01*
X242217Y-285823D01*
Y-281012D01*
D02*
G37*
G36*
X222436D02*
X217625D01*
Y-285823D01*
X218517Y-285705D01*
X219814Y-285168D01*
X220927Y-284314D01*
X221782Y-283200D01*
X222319Y-281903D01*
X222436Y-281012D01*
D02*
G37*
G36*
X216625D02*
X211815D01*
X211932Y-281903D01*
X212469Y-283200D01*
X213324Y-284314D01*
X214437Y-285168D01*
X215734Y-285705D01*
X216625Y-285823D01*
Y-281012D01*
D02*
G37*
%LPD*%
D10*
X285276Y-195275D02*
X311992Y-221992D01*
X356571Y-125197D02*
X356768Y-125000D01*
X340000Y-155000D02*
X346374D01*
X346571Y-155197D01*
X334500Y-149500D02*
X340000Y-155000D01*
X334500Y-149500D02*
Y-123000D01*
X340500Y-117000D01*
X416000D01*
X153937Y-195275D02*
X285276D01*
X125877Y-101390D02*
X125984Y-101283D01*
X59000Y-101390D02*
X125877D01*
X48350Y-90740D02*
X59000Y-101390D01*
X486798Y-130298D02*
X502500Y-146000D01*
X443297Y-130298D02*
X486798D01*
X463000Y-196500D02*
X494000D01*
X462500Y-196000D02*
X463000Y-196500D01*
X494000D02*
X498000Y-200500D01*
Y-234500D02*
Y-200500D01*
X129500Y-136644D02*
X177654D01*
X178240Y-137230D01*
Y-169000D02*
Y-137230D01*
X129548Y-168691D02*
X129549Y-168693D01*
X141264D01*
X142232Y-83500D02*
X149138Y-90405D01*
X134240Y-83500D02*
X142232D01*
X169610Y-169087D02*
X171579Y-167118D01*
X149138Y-157669D02*
Y-147906D01*
X147169Y-159638D02*
X149138Y-157669D01*
X169138Y-147906D02*
X169520Y-148287D01*
Y-157579D02*
Y-148287D01*
Y-157579D02*
X171579Y-159638D01*
Y-167118D02*
Y-159638D01*
X147169D02*
X148744Y-161213D01*
Y-168693D02*
Y-161213D01*
X416000Y-117000D02*
X485000Y-186000D01*
X356768Y-125000D02*
X416000D01*
X462500Y-171500D01*
Y-186000D02*
Y-171500D01*
X539478Y-48022D02*
X539500D01*
X512000Y-89414D02*
Y-75500D01*
X539478Y-48022D01*
X533000Y-44500D02*
X535000D01*
X527213Y-50287D02*
X533000Y-44500D01*
X539500Y-48022D02*
Y-48000D01*
X543000Y-49171D02*
Y-44500D01*
X549313Y-48626D02*
X555866D01*
X517874Y-80065D02*
X549313Y-48626D01*
X514199Y-77972D02*
X543000Y-49171D01*
X532500Y-50149D02*
Y-50000D01*
X517649Y-42500D02*
X517833Y-42684D01*
X517649Y-42500D02*
X519000D01*
X502500Y-80149D02*
X532500Y-50149D01*
X502500Y-86000D02*
Y-80149D01*
X522362Y-50287D02*
X527213D01*
X514199Y-91773D02*
Y-77972D01*
X515986Y-78713D02*
X550500Y-44199D01*
Y-43992D01*
X515986Y-92514D02*
Y-78713D01*
X517874Y-94126D02*
Y-80065D01*
X505414Y-96000D02*
X512000Y-89414D01*
X502000Y-96000D02*
X505414D01*
X496287Y-99287D02*
X506685D01*
X483500Y-86500D02*
X496287Y-99287D01*
X462000Y-86500D02*
X483500D01*
X506685Y-99287D02*
X514199Y-91773D01*
X506500Y-102000D02*
X515986Y-92514D01*
X494000Y-102000D02*
X506500D01*
X506000Y-106000D02*
X517874Y-94126D01*
X502000Y-106000D02*
X506000D01*
X528149Y-44351D02*
Y-43500D01*
X514287Y-48362D02*
X524138D01*
X528149Y-44351D01*
X523149Y-43851D02*
Y-43000D01*
X506074Y-46575D02*
X520425D01*
X523149Y-43851D01*
X512638Y-44787D02*
X516338D01*
X517833Y-43292D01*
Y-42684D01*
X505213Y-32713D02*
X514000Y-41500D01*
X484730Y-32713D02*
X505213D01*
X510564Y-42713D02*
X512638Y-44787D01*
X489037Y-42713D02*
X510564D01*
X485250Y-46500D02*
X489037Y-42713D01*
X496649Y-56000D02*
X506074Y-46575D01*
X496649Y-66000D02*
X514287Y-48362D01*
X523149Y-43000D02*
X524000D01*
X528149Y-43500D02*
X529000D01*
X496649Y-76000D02*
X522362Y-50287D01*
X481443Y-36000D02*
X484730Y-32713D01*
X462000Y-36000D02*
X481443D01*
X462000Y-46500D02*
X485250D01*
X462000Y-56000D02*
X496649D01*
X462000Y-66000D02*
X496649D01*
X462000Y-76000D02*
X496649D01*
X549492Y-105000D02*
X550500Y-103992D01*
X534823Y-105000D02*
X549492D01*
X547937Y-89358D02*
X554142D01*
X514000Y-125823D02*
X534823Y-105000D01*
X514000Y-135500D02*
Y-125823D01*
X502000Y-135295D02*
X547937Y-89358D01*
X502000Y-136000D02*
Y-135295D01*
X503182Y-131586D02*
X542224Y-92544D01*
X498086Y-131586D02*
X503182D01*
X542224Y-92544D02*
Y-82269D01*
X521000Y-126000D02*
X524358Y-129358D01*
X525500Y-121500D02*
X543000D01*
X528359Y-113992D02*
X550500D01*
X517500Y-124851D02*
X528359Y-113992D01*
X543000Y-121500D02*
X545142Y-119358D01*
X517500Y-131000D02*
Y-124851D01*
X545142Y-119358D02*
X555866D01*
X524358Y-129358D02*
X555866D01*
X560500Y-133992D01*
X555866Y-119358D02*
X560500Y-123992D01*
X488000Y-96000D02*
X494000Y-102000D01*
X462000Y-96000D02*
X488000D01*
X555866Y-48626D02*
X560500Y-43992D01*
X549313Y-58626D02*
X555866D01*
X521449Y-86490D02*
X549313Y-58626D01*
X521449Y-96551D02*
Y-86490D01*
X502000Y-116000D02*
X521449Y-96551D01*
X523236Y-91256D02*
X550500Y-63992D01*
X523236Y-102236D02*
Y-91256D01*
X525944Y-91996D02*
X549313Y-68626D01*
X525944Y-102057D02*
Y-91996D01*
X519661Y-84831D02*
X550500Y-53992D01*
X519661Y-95811D02*
Y-84831D01*
X504886Y-110586D02*
X519661Y-95811D01*
X498086Y-110586D02*
X504886D01*
X494000Y-106500D02*
X498086Y-110586D01*
X462000Y-106500D02*
X494000D01*
X555866Y-58626D02*
X560500Y-53992D01*
X504472Y-121000D02*
X523236Y-102236D01*
X496500Y-121000D02*
X504472D01*
X491500Y-116000D02*
X496500Y-121000D01*
X462000Y-116000D02*
X491500D01*
X502000Y-126000D02*
X525944Y-102057D01*
X549313Y-68626D02*
X555866D01*
X560500Y-63992D01*
X542224Y-82269D02*
X550500Y-73992D01*
X492500Y-126000D02*
X498086Y-131586D01*
X462000Y-126000D02*
X492500D01*
X555500Y-88000D02*
Y-78992D01*
X560500Y-73992D01*
X554142Y-89358D02*
X555500Y-88000D01*
X522500Y-244000D02*
X621453D01*
X623721Y-241732D01*
X624803D01*
X508500Y-230000D02*
X522500Y-244000D01*
X508500Y-230000D02*
Y-176000D01*
X498000Y-234500D02*
X514287Y-250787D01*
X624409D01*
X362598Y-272441D02*
X415354D01*
D38*
X171579Y-159638D02*
D03*
X164099D02*
D03*
X178240Y-169000D02*
D03*
X170760D02*
D03*
X147169Y-159638D02*
D03*
X154650D02*
D03*
X141264Y-168693D02*
D03*
X148744D02*
D03*
X126760Y-83500D02*
D03*
X134240D02*
D03*
X12992Y-175591D02*
D03*
X20472D02*
D03*
D39*
X362598Y-272441D02*
D03*
Y-264961D02*
D03*
X309842Y-272441D02*
D03*
Y-264961D02*
D03*
X188583Y-279331D02*
D03*
Y-271850D02*
D03*
X153937Y-195275D02*
D03*
Y-187795D02*
D03*
X57874Y-195275D02*
D03*
Y-187795D02*
D03*
X93701Y-279331D02*
D03*
Y-271850D02*
D03*
X468110Y-272441D02*
D03*
Y-264961D02*
D03*
X415354Y-272441D02*
D03*
Y-264961D02*
D03*
X257874Y-272441D02*
D03*
Y-264961D02*
D03*
X205118Y-272441D02*
D03*
Y-264961D02*
D03*
X141339Y-279331D02*
D03*
Y-271850D02*
D03*
X107087Y-195275D02*
D03*
Y-187795D02*
D03*
X47244Y-279331D02*
D03*
Y-271850D02*
D03*
D40*
X125484Y-83516D02*
X127256Y-81744D01*
X106693Y-91000D02*
X125984D01*
X382044Y-180945D02*
X395327D01*
X395138Y-181134D02*
X395327Y-180945D01*
X125984Y-101283D02*
Y-91000D01*
Y-125484D02*
Y-101283D01*
X129500Y-136644D02*
Y-129000D01*
Y-158504D02*
Y-136644D01*
X129548Y-168691D02*
Y-158504D01*
Y-193465D02*
Y-168691D01*
X125984Y-84276D02*
X126760Y-83500D01*
X125984Y-91000D02*
Y-84276D01*
X169742Y-147301D02*
X170079Y-147638D01*
X167638Y-145197D02*
X169742Y-147301D01*
X198192Y-162414D02*
X449422D01*
X185106Y-175500D02*
X198192Y-162414D01*
X172500Y-175500D02*
X185106D01*
X487401Y-216142D02*
X492028D01*
X149138Y-147637D02*
X149862Y-147637D01*
X145669Y-147638D02*
X149138Y-147637D01*
X183500Y-179500D02*
X198775Y-164225D01*
X448477D01*
X170760Y-173760D02*
Y-169000D01*
Y-173760D02*
X172500Y-175500D01*
X159551Y-179500D02*
X183500D01*
X151244Y-171193D02*
X159551Y-179500D01*
X150850Y-171193D02*
X151244D01*
X148744Y-169087D02*
X150850Y-171193D01*
X148744Y-169087D02*
Y-168693D01*
X129500Y-158504D02*
X129548D01*
X125984Y-125484D02*
X129500Y-129000D01*
X448477Y-164225D02*
X455905Y-171653D01*
Y-202362D02*
Y-171653D01*
X458268Y-198031D02*
Y-171260D01*
X420472Y-214567D02*
X443307D01*
X404003Y-198098D02*
X420472Y-214567D01*
X385139Y-198098D02*
X404003D01*
X262185Y-262795D02*
X269488D01*
X262185Y-264961D02*
Y-262795D01*
X257874Y-264961D02*
X262185D01*
X369291Y-194527D02*
Y-193697D01*
X382044Y-180945D01*
X395327Y-181102D02*
Y-180945D01*
X458268Y-198031D02*
X475984Y-215748D01*
X449422Y-162414D02*
X458268Y-171260D01*
X492028Y-216142D02*
Y-215945D01*
X482677Y-220866D02*
X487401Y-216142D01*
X474409Y-220866D02*
X482677D01*
X455905Y-202362D02*
X474409Y-220866D01*
X468110Y-264961D02*
X472461D01*
Y-262795D01*
X479331D01*
X415354Y-264961D02*
X419665D01*
Y-262795D01*
X426968D01*
X368721D02*
X374606D01*
X366910Y-264606D02*
X368721Y-262795D01*
X366910Y-264961D02*
Y-264606D01*
X362598Y-264961D02*
X366910D01*
X315965Y-262795D02*
X321850D01*
X314154Y-264606D02*
X315965Y-262795D01*
X314154Y-264961D02*
Y-264606D01*
X309842Y-264961D02*
X314154D01*
X214961D02*
X217126Y-262795D01*
X205118Y-264961D02*
X214961D01*
X188583Y-271850D02*
Y-256890D01*
X141339Y-271850D02*
Y-256890D01*
X94095Y-266004D02*
Y-256890D01*
X93701Y-266398D02*
X94095Y-266004D01*
X93701Y-271850D02*
Y-266398D01*
X47244Y-271850D02*
Y-266398D01*
X46850Y-266004D02*
X47244Y-266398D01*
X46850Y-266004D02*
Y-256890D01*
X162795Y-187795D02*
X162992Y-187992D01*
X153937Y-187795D02*
X162795D01*
X115748Y-187992D02*
Y-182303D01*
X113937Y-180492D02*
X115748Y-182303D01*
X108898Y-180492D02*
X113937D01*
X107087Y-182303D02*
X108898Y-180492D01*
X107087Y-187795D02*
Y-182303D01*
X62382Y-187992D02*
X68504D01*
X62185Y-187795D02*
X62382Y-187992D01*
X57874Y-187795D02*
X62185D01*
X20472Y-187205D02*
Y-175591D01*
Y-187205D02*
X21260Y-187992D01*
X127737Y-195275D02*
X129548Y-193465D01*
X107087Y-195275D02*
X127737D01*
X129548Y-193465D02*
X131359Y-195275D01*
X153937D01*
X309842Y-272441D02*
X362598D01*
X257874D02*
X309842D01*
X205118D02*
X257874D01*
X205118Y-277520D02*
Y-272441D01*
X203307Y-279331D02*
X205118Y-277520D01*
X188583Y-279331D02*
X203307D01*
X12992Y-193464D02*
Y-175591D01*
Y-193464D02*
X14804Y-195275D01*
X57874D01*
X141339Y-279331D02*
X188583D01*
X93701D02*
X141339D01*
X57874Y-195275D02*
X107087D01*
X75232Y-277520D02*
X77043Y-279331D01*
X58479D02*
X60290Y-277520D01*
X47244Y-279331D02*
X58479D01*
X77043D02*
X93701D01*
X60290Y-277520D02*
X75232D01*
X57874Y-275103D02*
X60290Y-277520D01*
X57874Y-275103D02*
Y-195275D01*
X638189Y-272441D02*
X641732Y-275984D01*
X468110Y-272441D02*
X638189D01*
X415354D02*
X468110D01*
D41*
X681213Y-250787D02*
X695000Y-237000D01*
X669385Y-250787D02*
X681213D01*
X625000Y-224500D02*
X665500Y-265000D01*
X677500D01*
X613500Y-224500D02*
X625000D01*
X668500Y-257500D02*
X677500D01*
X664500Y-253500D02*
X668500Y-257500D01*
X664500Y-253500D02*
Y-242500D01*
X668500Y-238500D01*
X673673D02*
X677527Y-234646D01*
X668500Y-238500D02*
X673673D01*
D42*
X311992Y-221992D02*
X352008D01*
X445564Y-191382D02*
Y-168494D01*
X365527Y-208473D02*
X380807Y-193193D01*
X352008Y-221992D02*
X365527Y-208473D01*
X353000Y-195945D02*
X365527Y-208473D01*
X353000Y-195945D02*
Y-182000D01*
X380807Y-193193D02*
X415138D01*
X568000Y-218551D02*
X584488Y-235039D01*
X568000Y-218551D02*
Y-41492D01*
X560500Y-33992D02*
X568000Y-41492D01*
X550500Y-33992D02*
X560500D01*
X443753Y-193193D02*
X445564Y-191382D01*
X415138Y-193193D02*
X443753D01*
D43*
X76000Y-20500D02*
X76500Y-20000D01*
Y-13000D01*
X81500Y-8000D01*
X106382D01*
X113118Y-14736D01*
X34815Y-66000D02*
Y-57598D01*
X76000Y-38500D02*
Y-20500D01*
X132803Y-34421D02*
X148742D01*
X91500Y-34788D02*
Y-19500D01*
Y-47000D02*
Y-34788D01*
X72500Y-66000D02*
X91500Y-47000D01*
X57122Y-66000D02*
X72500D01*
X91500Y-34788D02*
X91867Y-34421D01*
X113118D01*
X33500Y-66000D02*
X34815D01*
X67398Y-47102D02*
X76000Y-38500D01*
X45311Y-47102D02*
X67398D01*
X45311Y-47841D02*
Y-47102D01*
X40612Y-52539D02*
X45311Y-47841D01*
X39874Y-52539D02*
X40612D01*
X34815Y-57598D02*
X39874Y-52539D01*
X400020Y-29980D02*
Y-18110D01*
X381575Y-48425D02*
X400020Y-29980D01*
X338075Y-48425D02*
X381575D01*
X287008D02*
X338075D01*
X356339Y-30161D02*
Y-18110D01*
X338075Y-48425D02*
X356339Y-30161D01*
X193522Y-48359D02*
X245500D01*
X245567Y-48425D01*
X287008D01*
D44*
X302051Y-221992D02*
D03*
X311563D02*
D03*
X560500Y-33992D02*
D03*
X550500Y-43992D02*
D03*
X560500D02*
D03*
X550500Y-53992D02*
D03*
X560500D02*
D03*
X550500Y-63992D02*
D03*
X560500D02*
D03*
X550500Y-73992D02*
D03*
X560500D02*
D03*
X550500Y-83992D02*
D03*
X560500D02*
D03*
X550500Y-93992D02*
D03*
X560500D02*
D03*
X550500Y-103992D02*
D03*
X560500D02*
D03*
X550500Y-113992D02*
D03*
X560500D02*
D03*
X550500Y-123992D02*
D03*
X560500D02*
D03*
X550500Y-133992D02*
D03*
X560500D02*
D03*
X550500Y-143992D02*
D03*
X560500D02*
D03*
X550500Y-153992D02*
D03*
X560500D02*
D03*
X550500Y-163992D02*
D03*
X560500D02*
D03*
X550500Y-173992D02*
D03*
X560500D02*
D03*
X550500Y-183992D02*
D03*
X560500D02*
D03*
X550500Y-193992D02*
D03*
X560500D02*
D03*
Y-203992D02*
D03*
X550500D02*
D03*
X346571Y-125197D02*
D03*
X356571Y-135197D02*
D03*
X346571D02*
D03*
X356571Y-145197D02*
D03*
X346571D02*
D03*
X356571Y-155197D02*
D03*
X346571D02*
D03*
X564488Y-235039D02*
D03*
X574488D02*
D03*
X584488D02*
D03*
D45*
X550500Y-33992D02*
D03*
X594488Y-235039D02*
D03*
D46*
X135516Y-117905D02*
D03*
X183547D02*
D03*
D47*
X149138Y-90405D02*
D03*
X169138D02*
D03*
X149138Y-147906D02*
D03*
X159138D02*
D03*
X169138D02*
D03*
D48*
X76500Y-19500D02*
D03*
X171000D02*
D03*
X341338Y-18110D02*
D03*
X385020D02*
D03*
D49*
X91500Y-19500D02*
D03*
X156000D02*
D03*
X356339Y-18110D02*
D03*
X400020D02*
D03*
D50*
X59295Y-16642D02*
D03*
X59296Y-34358D02*
D03*
X33704D02*
D03*
X162992Y-205709D02*
D03*
X188583D02*
D03*
X188583Y-187992D02*
D03*
X28665Y-90740D02*
D03*
X48350D02*
D03*
X38508D02*
D03*
X162992Y-256890D02*
D03*
X162992Y-239173D02*
D03*
X188583D02*
D03*
X21260Y-256890D02*
D03*
X21260Y-239173D02*
D03*
X46851D02*
D03*
X46850Y-187992D02*
D03*
X46851Y-205709D02*
D03*
X21260D02*
D03*
X295079Y-262795D02*
D03*
X295079Y-280512D02*
D03*
X269488D02*
D03*
X88508Y-90740D02*
D03*
X108193D02*
D03*
X98350D02*
D03*
X115748Y-256890D02*
D03*
X115748Y-239173D02*
D03*
X141339D02*
D03*
X68504Y-256890D02*
D03*
X68503Y-239173D02*
D03*
X94095D02*
D03*
X504921Y-262795D02*
D03*
X504922Y-280512D02*
D03*
X479330D02*
D03*
X452559Y-262795D02*
D03*
X452560Y-280512D02*
D03*
X426968D02*
D03*
X400197Y-262795D02*
D03*
X400197Y-280512D02*
D03*
X374606D02*
D03*
X347441Y-262795D02*
D03*
X347441Y-280512D02*
D03*
X321850D02*
D03*
X242717Y-262795D02*
D03*
X242717Y-280512D02*
D03*
X217126D02*
D03*
X141339Y-187992D02*
D03*
X141339Y-205709D02*
D03*
X115748D02*
D03*
X94095Y-187992D02*
D03*
X94095Y-205709D02*
D03*
X68503D02*
D03*
D51*
X33705Y-16642D02*
D03*
X162992Y-187992D02*
D03*
X188583Y-256890D02*
D03*
X46850D02*
D03*
X21260Y-187992D02*
D03*
X269488Y-262795D02*
D03*
X141339Y-256890D02*
D03*
X94095D02*
D03*
X479331Y-262795D02*
D03*
X426968D02*
D03*
X374606D02*
D03*
X321850D02*
D03*
X217126D02*
D03*
X115748Y-187992D02*
D03*
X68504D02*
D03*
D52*
X356571Y-125197D02*
D03*
D53*
X22760Y-118299D02*
D03*
X54256D02*
D03*
X82602D02*
D03*
X114099D02*
D03*
D54*
X16965Y-66000D02*
D03*
D55*
X45311Y-47102D02*
D03*
D56*
X33500Y-66000D02*
D03*
D57*
X57122D02*
D03*
D58*
X132803Y-34421D02*
D03*
Y-14736D02*
D03*
X122960Y-44264D02*
D03*
Y-24579D02*
D03*
X113118Y-34421D02*
D03*
Y-14736D02*
D03*
D59*
X245500Y-48359D02*
D03*
D60*
Y-23359D02*
D03*
D61*
X555988Y-19992D02*
D03*
Y-218492D02*
D03*
X217799D02*
D03*
Y-19992D02*
D03*
D62*
X695000Y-237000D02*
D03*
X677500Y-265000D02*
D03*
X613500Y-224500D02*
D03*
X669385Y-250787D02*
D03*
X677500Y-257500D02*
D03*
X677527Y-234646D02*
D03*
X193522Y-48359D02*
D03*
X148742Y-34421D02*
D03*
X443297Y-130298D02*
D03*
X502500Y-146000D02*
D03*
X462500Y-196000D02*
D03*
X445564Y-168494D02*
D03*
X485000Y-186000D02*
D03*
X462500D02*
D03*
X353000Y-182000D02*
D03*
X409500Y-197000D02*
D03*
X253500Y-187500D02*
D03*
X444500Y-213500D02*
D03*
X34000Y-288000D02*
D03*
X215000Y-240500D02*
D03*
X200500Y-141500D02*
D03*
X181500Y-76000D02*
D03*
X67000Y-78000D02*
D03*
X67500Y-155000D02*
D03*
X159500Y-290500D02*
D03*
X608000Y-25000D02*
D03*
X696500Y-26000D02*
D03*
X710000Y-289500D02*
D03*
X578000Y-261000D02*
D03*
X540500Y-287500D02*
D03*
X406500Y-157000D02*
D03*
X404500Y-70000D02*
D03*
X256000Y-93500D02*
D03*
X298000Y-169500D02*
D03*
X349500Y-205000D02*
D03*
X303500Y-204000D02*
D03*
X251000Y-212500D02*
D03*
X535000Y-44500D02*
D03*
X539500Y-48000D02*
D03*
X532500Y-50000D02*
D03*
X502000Y-96000D02*
D03*
X543000Y-44500D02*
D03*
X514000Y-41500D02*
D03*
X519000Y-42500D02*
D03*
X524000Y-43000D02*
D03*
X529000Y-43500D02*
D03*
X502000Y-36000D02*
D03*
X521000Y-126000D02*
D03*
X525500Y-121500D02*
D03*
X530000Y-117500D02*
D03*
X517500Y-131000D02*
D03*
X514000Y-135500D02*
D03*
X502500Y-86000D02*
D03*
X462000Y-86500D02*
D03*
X502000Y-76000D02*
D03*
Y-66000D02*
D03*
Y-56000D02*
D03*
Y-46000D02*
D03*
X462000Y-76000D02*
D03*
Y-66000D02*
D03*
Y-56000D02*
D03*
Y-46500D02*
D03*
Y-36000D02*
D03*
X502000Y-136000D02*
D03*
Y-126000D02*
D03*
Y-116000D02*
D03*
Y-106000D02*
D03*
X462000Y-116000D02*
D03*
Y-126000D02*
D03*
Y-106500D02*
D03*
Y-96000D02*
D03*
X508500Y-176000D02*
D03*
X395327Y-181102D02*
D03*
X369291Y-194527D02*
D03*
X624409Y-250787D02*
D03*
X385139Y-198098D02*
D03*
X624803Y-241732D02*
D03*
X475984Y-215748D02*
D03*
X492028Y-215945D02*
D03*
X641732Y-275984D02*
D03*
X415138Y-193193D02*
D03*
D63*
X11811Y-287402D02*
D03*
Y-15748D02*
D03*
X724409Y-287402D02*
D03*
Y-15748D02*
D03*
X590158Y-151575D02*
D03*
X700394D02*
D03*
D64*
X287008Y-48425D02*
D03*
D65*
X645275Y-151575D02*
D03*
M02*
