G04*
G04 #@! TF.GenerationSoftware,Altium Limited,Altium Designer,19.1.8 (144)*
G04*
G04 Layer_Color=255*
%FSLAX25Y25*%
%MOIN*%
G70*
G01*
G75*
%ADD38R,0.05118X0.05906*%
%ADD39R,0.05906X0.05118*%
%ADD44C,0.06693*%
%ADD45R,0.06693X0.06693*%
%ADD46R,0.09843X0.09843*%
%ADD47C,0.07874*%
%ADD48R,0.09055X0.09055*%
%ADD49C,0.09055*%
%ADD50C,0.08661*%
%ADD51R,0.08661X0.08661*%
%ADD52R,0.06693X0.06693*%
%ADD53R,0.09843X0.13780*%
%ADD54C,0.11811*%
%ADD55O,0.17717X0.07874*%
%ADD56O,0.07874X0.17717*%
%ADD57O,0.07874X0.19685*%
%ADD58C,0.05906*%
%ADD59R,0.06299X0.06299*%
%ADD60C,0.06299*%
D38*
X171579Y-159638D02*
D03*
X164099D02*
D03*
X178240Y-169000D02*
D03*
X170760D02*
D03*
X147169Y-159638D02*
D03*
X154650D02*
D03*
X141264Y-168693D02*
D03*
X148744D02*
D03*
X126760Y-83500D02*
D03*
X134240D02*
D03*
X12992Y-175591D02*
D03*
X20472D02*
D03*
D39*
X362598Y-272441D02*
D03*
Y-264961D02*
D03*
X309842Y-272441D02*
D03*
Y-264961D02*
D03*
X188583Y-279331D02*
D03*
Y-271850D02*
D03*
X153937Y-195275D02*
D03*
Y-187795D02*
D03*
X57874Y-195275D02*
D03*
Y-187795D02*
D03*
X93701Y-279331D02*
D03*
Y-271850D02*
D03*
X468110Y-272441D02*
D03*
Y-264961D02*
D03*
X415354Y-272441D02*
D03*
Y-264961D02*
D03*
X257874Y-272441D02*
D03*
Y-264961D02*
D03*
X205118Y-272441D02*
D03*
Y-264961D02*
D03*
X141339Y-279331D02*
D03*
Y-271850D02*
D03*
X107087Y-195275D02*
D03*
Y-187795D02*
D03*
X47244Y-279331D02*
D03*
Y-271850D02*
D03*
D44*
X302051Y-221992D02*
D03*
X311563D02*
D03*
X560500Y-33992D02*
D03*
X550500Y-43992D02*
D03*
X560500D02*
D03*
X550500Y-53992D02*
D03*
X560500D02*
D03*
X550500Y-63992D02*
D03*
X560500D02*
D03*
X550500Y-73992D02*
D03*
X560500D02*
D03*
X550500Y-83992D02*
D03*
X560500D02*
D03*
X550500Y-93992D02*
D03*
X560500D02*
D03*
X550500Y-103992D02*
D03*
X560500D02*
D03*
X550500Y-113992D02*
D03*
X560500D02*
D03*
X550500Y-123992D02*
D03*
X560500D02*
D03*
X550500Y-133992D02*
D03*
X560500D02*
D03*
X550500Y-143992D02*
D03*
X560500D02*
D03*
X550500Y-153992D02*
D03*
X560500D02*
D03*
X550500Y-163992D02*
D03*
X560500D02*
D03*
X550500Y-173992D02*
D03*
X560500D02*
D03*
X550500Y-183992D02*
D03*
X560500D02*
D03*
X550500Y-193992D02*
D03*
X560500D02*
D03*
Y-203992D02*
D03*
X550500D02*
D03*
X346571Y-125197D02*
D03*
X356571Y-135197D02*
D03*
X346571D02*
D03*
X356571Y-145197D02*
D03*
X346571D02*
D03*
X356571Y-155197D02*
D03*
X346571D02*
D03*
X564488Y-235039D02*
D03*
X574488D02*
D03*
X584488D02*
D03*
D45*
X550500Y-33992D02*
D03*
X594488Y-235039D02*
D03*
D46*
X135516Y-117905D02*
D03*
X183547D02*
D03*
D47*
X149138Y-90405D02*
D03*
X169138D02*
D03*
X149138Y-147906D02*
D03*
X159138D02*
D03*
X169138D02*
D03*
D48*
X76500Y-19500D02*
D03*
X171000D02*
D03*
X341338Y-18110D02*
D03*
X385020D02*
D03*
D49*
X91500Y-19500D02*
D03*
X156000D02*
D03*
X356339Y-18110D02*
D03*
X400020D02*
D03*
D50*
X59295Y-16642D02*
D03*
X59296Y-34358D02*
D03*
X33704D02*
D03*
X162992Y-205709D02*
D03*
X188583D02*
D03*
X188583Y-187992D02*
D03*
X28665Y-90740D02*
D03*
X48350D02*
D03*
X38508D02*
D03*
X162992Y-256890D02*
D03*
X162992Y-239173D02*
D03*
X188583D02*
D03*
X21260Y-256890D02*
D03*
X21260Y-239173D02*
D03*
X46851D02*
D03*
X46850Y-187992D02*
D03*
X46851Y-205709D02*
D03*
X21260D02*
D03*
X295079Y-262795D02*
D03*
X295079Y-280512D02*
D03*
X269488D02*
D03*
X88508Y-90740D02*
D03*
X108193D02*
D03*
X98350D02*
D03*
X115748Y-256890D02*
D03*
X115748Y-239173D02*
D03*
X141339D02*
D03*
X68504Y-256890D02*
D03*
X68503Y-239173D02*
D03*
X94095D02*
D03*
X504921Y-262795D02*
D03*
X504922Y-280512D02*
D03*
X479330D02*
D03*
X452559Y-262795D02*
D03*
X452560Y-280512D02*
D03*
X426968D02*
D03*
X400197Y-262795D02*
D03*
X400197Y-280512D02*
D03*
X374606D02*
D03*
X347441Y-262795D02*
D03*
X347441Y-280512D02*
D03*
X321850D02*
D03*
X242717Y-262795D02*
D03*
X242717Y-280512D02*
D03*
X217126D02*
D03*
X141339Y-187992D02*
D03*
X141339Y-205709D02*
D03*
X115748D02*
D03*
X94095Y-187992D02*
D03*
X94095Y-205709D02*
D03*
X68503D02*
D03*
D51*
X33705Y-16642D02*
D03*
X162992Y-187992D02*
D03*
X188583Y-256890D02*
D03*
X46850D02*
D03*
X21260Y-187992D02*
D03*
X269488Y-262795D02*
D03*
X141339Y-256890D02*
D03*
X94095D02*
D03*
X479331Y-262795D02*
D03*
X426968D02*
D03*
X374606D02*
D03*
X321850D02*
D03*
X217126D02*
D03*
X115748Y-187992D02*
D03*
X68504D02*
D03*
D52*
X356571Y-125197D02*
D03*
D53*
X22760Y-118299D02*
D03*
X54256D02*
D03*
X82602D02*
D03*
X114099D02*
D03*
D54*
X16965Y-66000D02*
D03*
D55*
X45311Y-47102D02*
D03*
D56*
X33500Y-66000D02*
D03*
D57*
X57122D02*
D03*
D58*
X132803Y-34421D02*
D03*
Y-14736D02*
D03*
X122960Y-44264D02*
D03*
Y-24579D02*
D03*
X113118Y-34421D02*
D03*
Y-14736D02*
D03*
D59*
X245500Y-48359D02*
D03*
D60*
Y-23359D02*
D03*
M02*
