G04*
G04 #@! TF.GenerationSoftware,Altium Limited,Altium Designer,19.1.8 (144)*
G04*
G04 Layer_Color=8388736*
%FSLAX25Y25*%
%MOIN*%
G70*
G01*
G75*
%ADD15R,0.05918X0.06706*%
%ADD16R,0.06706X0.05918*%
%ADD17C,0.07493*%
%ADD18R,0.07493X0.07493*%
%ADD19R,0.10642X0.10642*%
%ADD20C,0.08674*%
%ADD21R,0.09855X0.09855*%
%ADD22C,0.09855*%
%ADD23C,0.09461*%
%ADD24R,0.09461X0.09461*%
%ADD25R,0.07493X0.07493*%
%ADD26R,0.10642X0.14580*%
%ADD27C,0.12611*%
%ADD28O,0.18517X0.08674*%
%ADD29O,0.08674X0.18517*%
%ADD30O,0.08674X0.20485*%
%ADD31C,0.06706*%
%ADD32R,0.07099X0.07099*%
%ADD33C,0.07099*%
%ADD34C,0.13398*%
%ADD35C,0.04800*%
%ADD36C,0.16548*%
%ADD37C,0.87414*%
D15*
X171579Y-159915D02*
D03*
X164098D02*
D03*
X178240Y-169277D02*
D03*
X170760D02*
D03*
X147169Y-159915D02*
D03*
X154650D02*
D03*
X141264Y-168970D02*
D03*
X148744D02*
D03*
X126760Y-83777D02*
D03*
X134240D02*
D03*
X12992Y-175868D02*
D03*
X20472D02*
D03*
D16*
X362598Y-272718D02*
D03*
Y-265238D02*
D03*
X309842Y-272718D02*
D03*
Y-265238D02*
D03*
X188583Y-279608D02*
D03*
Y-272128D02*
D03*
X153937Y-195553D02*
D03*
Y-188073D02*
D03*
X57874Y-195553D02*
D03*
Y-188073D02*
D03*
X93701Y-279608D02*
D03*
Y-272128D02*
D03*
X468110Y-272718D02*
D03*
Y-265238D02*
D03*
X415354Y-272718D02*
D03*
Y-265238D02*
D03*
X257874Y-272718D02*
D03*
Y-265238D02*
D03*
X205118Y-272718D02*
D03*
Y-265238D02*
D03*
X141338Y-279608D02*
D03*
Y-272128D02*
D03*
X107087Y-195553D02*
D03*
Y-188073D02*
D03*
X47244Y-279608D02*
D03*
Y-272128D02*
D03*
D17*
X302051Y-222269D02*
D03*
X311563D02*
D03*
X560500Y-34269D02*
D03*
X550500Y-44269D02*
D03*
X560500D02*
D03*
X550500Y-54269D02*
D03*
X560500D02*
D03*
X550500Y-64269D02*
D03*
X560500D02*
D03*
X550500Y-74269D02*
D03*
X560500D02*
D03*
X550500Y-84269D02*
D03*
X560500D02*
D03*
X550500Y-94269D02*
D03*
X560500D02*
D03*
X550500Y-104269D02*
D03*
X560500D02*
D03*
X550500Y-114269D02*
D03*
X560500D02*
D03*
X550500Y-124269D02*
D03*
X560500D02*
D03*
X550500Y-134269D02*
D03*
X560500D02*
D03*
X550500Y-144269D02*
D03*
X560500D02*
D03*
X550500Y-154269D02*
D03*
X560500D02*
D03*
X550500Y-164269D02*
D03*
X560500D02*
D03*
X550500Y-174269D02*
D03*
X560500D02*
D03*
X550500Y-184269D02*
D03*
X560500D02*
D03*
X550500Y-194269D02*
D03*
X560500D02*
D03*
Y-204269D02*
D03*
X550500D02*
D03*
X346571Y-125474D02*
D03*
X356571Y-135474D02*
D03*
X346571D02*
D03*
X356571Y-145474D02*
D03*
X346571D02*
D03*
X356571Y-155474D02*
D03*
X346571D02*
D03*
X564488Y-235316D02*
D03*
X574488D02*
D03*
X584488D02*
D03*
D18*
X550500Y-34269D02*
D03*
X594488Y-235316D02*
D03*
D19*
X135516Y-118183D02*
D03*
X183547D02*
D03*
D20*
X149138Y-90683D02*
D03*
X169138D02*
D03*
X149138Y-148183D02*
D03*
X159138D02*
D03*
X169138D02*
D03*
D21*
X76500Y-19777D02*
D03*
X171000D02*
D03*
X341338Y-18387D02*
D03*
X385020D02*
D03*
D22*
X91500Y-19777D02*
D03*
X156000D02*
D03*
X356338Y-18387D02*
D03*
X400020D02*
D03*
D23*
X59295Y-16919D02*
D03*
X59296Y-34635D02*
D03*
X33704D02*
D03*
X162992Y-205986D02*
D03*
X188583D02*
D03*
X188583Y-188269D02*
D03*
X28665Y-91017D02*
D03*
X48350D02*
D03*
X38508D02*
D03*
X162992Y-257167D02*
D03*
X162992Y-239451D02*
D03*
X188583D02*
D03*
X21260Y-257167D02*
D03*
X21259Y-239451D02*
D03*
X46851D02*
D03*
X46850Y-188269D02*
D03*
X46851Y-205986D02*
D03*
X21259D02*
D03*
X295079Y-263072D02*
D03*
X295079Y-280789D02*
D03*
X269488D02*
D03*
X88508Y-91017D02*
D03*
X108193D02*
D03*
X98350D02*
D03*
X115748Y-257167D02*
D03*
X115748Y-239451D02*
D03*
X141339D02*
D03*
X68504Y-257167D02*
D03*
X68503Y-239451D02*
D03*
X94095D02*
D03*
X504921Y-263072D02*
D03*
X504922Y-280789D02*
D03*
X479330D02*
D03*
X452559Y-263072D02*
D03*
X452559Y-280789D02*
D03*
X426968D02*
D03*
X400197Y-263072D02*
D03*
X400197Y-280789D02*
D03*
X374606D02*
D03*
X347441Y-263072D02*
D03*
X347441Y-280789D02*
D03*
X321850D02*
D03*
X242716Y-263072D02*
D03*
X242717Y-280789D02*
D03*
X217125D02*
D03*
X141338Y-188269D02*
D03*
X141339Y-205986D02*
D03*
X115748D02*
D03*
X94094Y-188269D02*
D03*
X94095Y-205986D02*
D03*
X68503D02*
D03*
D24*
X33705Y-16919D02*
D03*
X162992Y-188269D02*
D03*
X188583Y-257167D02*
D03*
X46850D02*
D03*
X21260Y-188269D02*
D03*
X269488Y-263072D02*
D03*
X141338Y-257167D02*
D03*
X94094D02*
D03*
X479331Y-263072D02*
D03*
X426968D02*
D03*
X374606D02*
D03*
X321850D02*
D03*
X217126D02*
D03*
X115748Y-188269D02*
D03*
X68504D02*
D03*
D25*
X356571Y-125474D02*
D03*
D26*
X22760Y-118577D02*
D03*
X54256D02*
D03*
X82602D02*
D03*
X114098D02*
D03*
D27*
X16964Y-66277D02*
D03*
D28*
X45311Y-47380D02*
D03*
D29*
X33500Y-66277D02*
D03*
D30*
X57122D02*
D03*
D31*
X132803Y-34699D02*
D03*
Y-15013D02*
D03*
X122960Y-44541D02*
D03*
Y-24856D02*
D03*
X113118Y-34699D02*
D03*
Y-15013D02*
D03*
D32*
X245500Y-48636D02*
D03*
D33*
Y-23636D02*
D03*
D34*
X555988Y-20269D02*
D03*
Y-218769D02*
D03*
X217799D02*
D03*
Y-20269D02*
D03*
D35*
X695000Y-237277D02*
D03*
X677500Y-265277D02*
D03*
X613500Y-224777D02*
D03*
X669385Y-251064D02*
D03*
X677500Y-257777D02*
D03*
X677527Y-234923D02*
D03*
D36*
X11811Y-287679D02*
D03*
Y-16025D02*
D03*
X724409Y-287679D02*
D03*
Y-16025D02*
D03*
X590157Y-151852D02*
D03*
X700394D02*
D03*
D37*
X645275D02*
D03*
M02*
