G04*
G04 #@! TF.GenerationSoftware,Altium Limited,Altium Designer,19.1.8 (144)*
G04*
G04 Layer_Color=255*
%FSLAX25Y25*%
%MOIN*%
G70*
G01*
G75*
%ADD38R,0.05118X0.05906*%
%ADD39R,0.05906X0.05118*%
%ADD44C,0.06693*%
%ADD45R,0.06693X0.06693*%
%ADD46R,0.09843X0.09843*%
%ADD47C,0.07874*%
%ADD48R,0.09055X0.09055*%
%ADD49C,0.09055*%
%ADD50C,0.08661*%
%ADD51R,0.08661X0.08661*%
%ADD52R,0.06693X0.06693*%
%ADD53R,0.09843X0.13780*%
%ADD54C,0.11811*%
%ADD55O,0.17717X0.07874*%
%ADD56O,0.07874X0.17717*%
%ADD57O,0.07874X0.19685*%
%ADD58C,0.05906*%
%ADD59R,0.06299X0.06299*%
%ADD60C,0.06299*%
%ADD66R,0.06890X0.02756*%
%ADD67R,0.05906X0.05906*%
%ADD68R,0.05906X0.03150*%
%ADD69R,0.03937X0.05709*%
%ADD70R,0.05512X0.03150*%
%ADD71R,0.06102X0.03937*%
%ADD72R,0.02362X0.06496*%
%ADD73R,0.04331X0.02264*%
%ADD74R,0.24410X0.22835*%
%ADD75R,0.11811X0.06299*%
%ADD76R,0.05315X0.04528*%
%ADD77R,0.05709X0.04724*%
%ADD78R,0.05512X0.03937*%
%ADD79R,0.04724X0.05709*%
%ADD80R,0.02362X0.07874*%
%ADD81R,0.16693X0.05000*%
%ADD82R,0.07874X0.02362*%
%ADD83R,0.07087X0.06299*%
%ADD84R,0.08661X0.07874*%
D38*
X655760Y-235277D02*
D03*
X663240D02*
D03*
X640378Y-234777D02*
D03*
X632898D02*
D03*
X633071Y-251064D02*
D03*
X640551D02*
D03*
X633464Y-242797D02*
D03*
X640945D02*
D03*
D39*
X688232Y-267816D02*
D03*
X671000Y-236517D02*
D03*
Y-229037D02*
D03*
X665536Y-265646D02*
D03*
Y-273126D02*
D03*
X640551Y-257757D02*
D03*
Y-265238D02*
D03*
D44*
X302051Y-222269D02*
D03*
X311563D02*
D03*
X560500Y-34269D02*
D03*
X550500Y-44269D02*
D03*
X560500D02*
D03*
X550500Y-54269D02*
D03*
X560500D02*
D03*
X550500Y-64269D02*
D03*
X560500D02*
D03*
X550500Y-74269D02*
D03*
X560500D02*
D03*
X550500Y-84269D02*
D03*
X560500D02*
D03*
X550500Y-94269D02*
D03*
X560500D02*
D03*
X550500Y-104269D02*
D03*
X560500D02*
D03*
X550500Y-114269D02*
D03*
X560500D02*
D03*
X550500Y-124269D02*
D03*
X560500D02*
D03*
X550500Y-134269D02*
D03*
X560500D02*
D03*
X550500Y-144269D02*
D03*
X560500D02*
D03*
X550500Y-154269D02*
D03*
X560500D02*
D03*
X550500Y-164269D02*
D03*
X560500D02*
D03*
X550500Y-174269D02*
D03*
X560500D02*
D03*
X550500Y-184269D02*
D03*
X560500D02*
D03*
X550500Y-194269D02*
D03*
X560500D02*
D03*
Y-204269D02*
D03*
X550500D02*
D03*
X346571Y-125474D02*
D03*
X356571Y-135474D02*
D03*
X346571D02*
D03*
X356571Y-145474D02*
D03*
X346571D02*
D03*
X356571Y-155474D02*
D03*
X346571D02*
D03*
X564488Y-235316D02*
D03*
X574488D02*
D03*
X584488D02*
D03*
D45*
X550500Y-34269D02*
D03*
X594488Y-235316D02*
D03*
D46*
X135516Y-118183D02*
D03*
X183547D02*
D03*
D47*
X149138Y-90683D02*
D03*
X169138D02*
D03*
X149138Y-148183D02*
D03*
X159138D02*
D03*
X169138D02*
D03*
D48*
X76500Y-19777D02*
D03*
X171000D02*
D03*
X341338Y-18387D02*
D03*
X385020D02*
D03*
D49*
X91500Y-19777D02*
D03*
X156000D02*
D03*
X356338Y-18387D02*
D03*
X400020D02*
D03*
D50*
X59295Y-16919D02*
D03*
X59296Y-34635D02*
D03*
X33704D02*
D03*
X162992Y-205986D02*
D03*
X188583D02*
D03*
X188583Y-188269D02*
D03*
X28665Y-91017D02*
D03*
X48350D02*
D03*
X38508D02*
D03*
X162992Y-257167D02*
D03*
X162992Y-239451D02*
D03*
X188583D02*
D03*
X21260Y-257167D02*
D03*
X21259Y-239451D02*
D03*
X46851D02*
D03*
X46850Y-188269D02*
D03*
X46851Y-205986D02*
D03*
X21259D02*
D03*
X295079Y-263072D02*
D03*
X295079Y-280789D02*
D03*
X269488D02*
D03*
X88508Y-91017D02*
D03*
X108193D02*
D03*
X98350D02*
D03*
X115748Y-257167D02*
D03*
X115748Y-239451D02*
D03*
X141339D02*
D03*
X68504Y-257167D02*
D03*
X68503Y-239451D02*
D03*
X94095D02*
D03*
X504921Y-263072D02*
D03*
X504922Y-280789D02*
D03*
X479330D02*
D03*
X452559Y-263072D02*
D03*
X452559Y-280789D02*
D03*
X426968D02*
D03*
X400197Y-263072D02*
D03*
X400197Y-280789D02*
D03*
X374606D02*
D03*
X347441Y-263072D02*
D03*
X347441Y-280789D02*
D03*
X321850D02*
D03*
X242716Y-263072D02*
D03*
X242717Y-280789D02*
D03*
X217125D02*
D03*
X141338Y-188269D02*
D03*
X141339Y-205986D02*
D03*
X115748D02*
D03*
X94094Y-188269D02*
D03*
X94095Y-205986D02*
D03*
X68503D02*
D03*
D51*
X33705Y-16919D02*
D03*
X162992Y-188269D02*
D03*
X188583Y-257167D02*
D03*
X46850D02*
D03*
X21260Y-188269D02*
D03*
X269488Y-263072D02*
D03*
X141338Y-257167D02*
D03*
X94094D02*
D03*
X479331Y-263072D02*
D03*
X426968D02*
D03*
X374606D02*
D03*
X321850D02*
D03*
X217126D02*
D03*
X115748Y-188269D02*
D03*
X68504D02*
D03*
D52*
X356571Y-125474D02*
D03*
D53*
X22760Y-118577D02*
D03*
X54256D02*
D03*
X82602D02*
D03*
X114098D02*
D03*
D54*
X16964Y-66277D02*
D03*
D55*
X45311Y-47380D02*
D03*
D56*
X33500Y-66277D02*
D03*
D57*
X57122D02*
D03*
D58*
X132803Y-34699D02*
D03*
Y-15013D02*
D03*
X122960Y-44541D02*
D03*
Y-24856D02*
D03*
X113118Y-34699D02*
D03*
Y-15013D02*
D03*
D59*
X245500Y-48636D02*
D03*
D60*
Y-23636D02*
D03*
D66*
X687740Y-245769D02*
D03*
Y-250100D02*
D03*
Y-254431D02*
D03*
Y-258761D02*
D03*
Y-263092D02*
D03*
Y-241439D02*
D03*
Y-237108D02*
D03*
Y-232777D02*
D03*
D67*
X688232Y-223131D02*
D03*
D68*
X718153Y-268801D02*
D03*
D69*
X724059Y-267521D02*
D03*
D70*
X720713Y-221754D02*
D03*
D71*
X730260Y-223328D02*
D03*
D72*
X192433Y-83277D02*
D03*
X177079D02*
D03*
X145142Y-66277D02*
D03*
X129788D02*
D03*
D73*
X191449Y-85393D02*
D03*
Y-81161D02*
D03*
X178063D02*
D03*
Y-85393D02*
D03*
X144158Y-68393D02*
D03*
Y-64161D02*
D03*
X130772D02*
D03*
Y-68393D02*
D03*
D74*
X184523Y-49277D02*
D03*
D75*
X156177Y-40261D02*
D03*
Y-58293D02*
D03*
D76*
X201500Y-77423D02*
D03*
Y-83131D02*
D03*
D77*
X171000Y-69931D02*
D03*
Y-76624D02*
D03*
D78*
X161331Y-76517D02*
D03*
X152669Y-72777D02*
D03*
X161331Y-69037D02*
D03*
D79*
X128346Y-56777D02*
D03*
X121653D02*
D03*
X137307D02*
D03*
X144000D02*
D03*
D80*
X415138Y-205218D02*
D03*
X410138D02*
D03*
X405138D02*
D03*
X400138D02*
D03*
X395138D02*
D03*
X390138D02*
D03*
X385138D02*
D03*
X380138D02*
D03*
Y-226478D02*
D03*
X385138D02*
D03*
X390138D02*
D03*
X395138D02*
D03*
X400138D02*
D03*
X405138D02*
D03*
X410138D02*
D03*
X415138D02*
D03*
D81*
X472303Y-36222D02*
D03*
Y-46222D02*
D03*
Y-56222D02*
D03*
Y-66222D02*
D03*
Y-76222D02*
D03*
Y-86222D02*
D03*
Y-96222D02*
D03*
Y-106222D02*
D03*
Y-116222D02*
D03*
Y-126222D02*
D03*
Y-136222D02*
D03*
Y-146222D02*
D03*
Y-156222D02*
D03*
Y-166222D02*
D03*
Y-176222D02*
D03*
Y-186222D02*
D03*
Y-196222D02*
D03*
Y-206222D02*
D03*
Y-216222D02*
D03*
Y-226222D02*
D03*
Y-236222D02*
D03*
Y-246222D02*
D03*
X492027D02*
D03*
Y-236222D02*
D03*
Y-226222D02*
D03*
Y-216222D02*
D03*
Y-206222D02*
D03*
Y-196222D02*
D03*
Y-186222D02*
D03*
Y-176222D02*
D03*
Y-166222D02*
D03*
Y-156222D02*
D03*
Y-146222D02*
D03*
Y-136222D02*
D03*
Y-126222D02*
D03*
Y-116222D02*
D03*
Y-106222D02*
D03*
Y-96222D02*
D03*
Y-86222D02*
D03*
Y-76222D02*
D03*
Y-66222D02*
D03*
Y-56222D02*
D03*
Y-46222D02*
D03*
Y-36222D02*
D03*
D82*
X242913Y-198777D02*
D03*
Y-193777D02*
D03*
Y-188777D02*
D03*
Y-183777D02*
D03*
Y-178777D02*
D03*
Y-173777D02*
D03*
Y-168777D02*
D03*
Y-163777D02*
D03*
X221653D02*
D03*
Y-168777D02*
D03*
Y-173777D02*
D03*
Y-178777D02*
D03*
Y-183777D02*
D03*
Y-188777D02*
D03*
Y-193777D02*
D03*
Y-198777D02*
D03*
D83*
X305905Y-36891D02*
D03*
Y-47915D02*
D03*
X296457Y-36891D02*
D03*
Y-47915D02*
D03*
X277953Y-36891D02*
D03*
Y-47915D02*
D03*
X268898Y-36891D02*
D03*
Y-47915D02*
D03*
X287401Y-36891D02*
D03*
Y-47915D02*
D03*
D84*
X652362Y-263269D02*
D03*
Y-275080D02*
D03*
M02*
