G04*
G04 #@! TF.GenerationSoftware,Altium Limited,Altium Designer,19.1.8 (144)*
G04*
G04 Layer_Color=255*
%FSLAX25Y25*%
%MOIN*%
G70*
G01*
G75*
%ADD38R,0.05118X0.05906*%
%ADD39R,0.05906X0.05118*%
%ADD44C,0.06693*%
%ADD45R,0.06693X0.06693*%
%ADD46R,0.09843X0.09843*%
%ADD47C,0.07874*%
%ADD48R,0.09055X0.09055*%
%ADD49C,0.09055*%
%ADD50C,0.08661*%
%ADD51R,0.08661X0.08661*%
%ADD52R,0.06693X0.06693*%
%ADD53R,0.09843X0.13780*%
%ADD54C,0.11811*%
%ADD55O,0.17717X0.07874*%
%ADD56O,0.07874X0.17717*%
%ADD57O,0.07874X0.19685*%
%ADD58C,0.05906*%
%ADD59R,0.06299X0.06299*%
%ADD60C,0.06299*%
D38*
X171579Y-159915D02*
D03*
X164098D02*
D03*
X178240Y-169277D02*
D03*
X170760D02*
D03*
X147169Y-159915D02*
D03*
X154650D02*
D03*
X141264Y-168970D02*
D03*
X148744D02*
D03*
X126760Y-83777D02*
D03*
X134240D02*
D03*
X12992Y-175868D02*
D03*
X20472D02*
D03*
D39*
X362598Y-272718D02*
D03*
Y-265238D02*
D03*
X309842Y-272718D02*
D03*
Y-265238D02*
D03*
X188583Y-279608D02*
D03*
Y-272128D02*
D03*
X153937Y-195553D02*
D03*
Y-188073D02*
D03*
X57874Y-195553D02*
D03*
Y-188073D02*
D03*
X93701Y-279608D02*
D03*
Y-272128D02*
D03*
X468110Y-272718D02*
D03*
Y-265238D02*
D03*
X415354Y-272718D02*
D03*
Y-265238D02*
D03*
X257874Y-272718D02*
D03*
Y-265238D02*
D03*
X205118Y-272718D02*
D03*
Y-265238D02*
D03*
X141338Y-279608D02*
D03*
Y-272128D02*
D03*
X107087Y-195553D02*
D03*
Y-188073D02*
D03*
X47244Y-279608D02*
D03*
Y-272128D02*
D03*
D44*
X302051Y-222269D02*
D03*
X311563D02*
D03*
X560500Y-34269D02*
D03*
X550500Y-44269D02*
D03*
X560500D02*
D03*
X550500Y-54269D02*
D03*
X560500D02*
D03*
X550500Y-64269D02*
D03*
X560500D02*
D03*
X550500Y-74269D02*
D03*
X560500D02*
D03*
X550500Y-84269D02*
D03*
X560500D02*
D03*
X550500Y-94269D02*
D03*
X560500D02*
D03*
X550500Y-104269D02*
D03*
X560500D02*
D03*
X550500Y-114269D02*
D03*
X560500D02*
D03*
X550500Y-124269D02*
D03*
X560500D02*
D03*
X550500Y-134269D02*
D03*
X560500D02*
D03*
X550500Y-144269D02*
D03*
X560500D02*
D03*
X550500Y-154269D02*
D03*
X560500D02*
D03*
X550500Y-164269D02*
D03*
X560500D02*
D03*
X550500Y-174269D02*
D03*
X560500D02*
D03*
X550500Y-184269D02*
D03*
X560500D02*
D03*
X550500Y-194269D02*
D03*
X560500D02*
D03*
Y-204269D02*
D03*
X550500D02*
D03*
X346571Y-125474D02*
D03*
X356571Y-135474D02*
D03*
X346571D02*
D03*
X356571Y-145474D02*
D03*
X346571D02*
D03*
X356571Y-155474D02*
D03*
X346571D02*
D03*
X564488Y-235316D02*
D03*
X574488D02*
D03*
X584488D02*
D03*
D45*
X550500Y-34269D02*
D03*
X594488Y-235316D02*
D03*
D46*
X135516Y-118183D02*
D03*
X183547D02*
D03*
D47*
X149138Y-90683D02*
D03*
X169138D02*
D03*
X149138Y-148183D02*
D03*
X159138D02*
D03*
X169138D02*
D03*
D48*
X76500Y-19777D02*
D03*
X171000D02*
D03*
X341338Y-18387D02*
D03*
X385020D02*
D03*
D49*
X91500Y-19777D02*
D03*
X156000D02*
D03*
X356338Y-18387D02*
D03*
X400020D02*
D03*
D50*
X59295Y-16919D02*
D03*
X59296Y-34635D02*
D03*
X33704D02*
D03*
X162992Y-205986D02*
D03*
X188583D02*
D03*
X188583Y-188269D02*
D03*
X28665Y-91017D02*
D03*
X48350D02*
D03*
X38508D02*
D03*
X162992Y-257167D02*
D03*
X162992Y-239451D02*
D03*
X188583D02*
D03*
X21260Y-257167D02*
D03*
X21259Y-239451D02*
D03*
X46851D02*
D03*
X46850Y-188269D02*
D03*
X46851Y-205986D02*
D03*
X21259D02*
D03*
X295079Y-263072D02*
D03*
X295079Y-280789D02*
D03*
X269488D02*
D03*
X88508Y-91017D02*
D03*
X108193D02*
D03*
X98350D02*
D03*
X115748Y-257167D02*
D03*
X115748Y-239451D02*
D03*
X141339D02*
D03*
X68504Y-257167D02*
D03*
X68503Y-239451D02*
D03*
X94095D02*
D03*
X504921Y-263072D02*
D03*
X504922Y-280789D02*
D03*
X479330D02*
D03*
X452559Y-263072D02*
D03*
X452559Y-280789D02*
D03*
X426968D02*
D03*
X400197Y-263072D02*
D03*
X400197Y-280789D02*
D03*
X374606D02*
D03*
X347441Y-263072D02*
D03*
X347441Y-280789D02*
D03*
X321850D02*
D03*
X242716Y-263072D02*
D03*
X242717Y-280789D02*
D03*
X217125D02*
D03*
X141338Y-188269D02*
D03*
X141339Y-205986D02*
D03*
X115748D02*
D03*
X94094Y-188269D02*
D03*
X94095Y-205986D02*
D03*
X68503D02*
D03*
D51*
X33705Y-16919D02*
D03*
X162992Y-188269D02*
D03*
X188583Y-257167D02*
D03*
X46850D02*
D03*
X21260Y-188269D02*
D03*
X269488Y-263072D02*
D03*
X141338Y-257167D02*
D03*
X94094D02*
D03*
X479331Y-263072D02*
D03*
X426968D02*
D03*
X374606D02*
D03*
X321850D02*
D03*
X217126D02*
D03*
X115748Y-188269D02*
D03*
X68504D02*
D03*
D52*
X356571Y-125474D02*
D03*
D53*
X22760Y-118577D02*
D03*
X54256D02*
D03*
X82602D02*
D03*
X114098D02*
D03*
D54*
X16964Y-66277D02*
D03*
D55*
X45311Y-47380D02*
D03*
D56*
X33500Y-66277D02*
D03*
D57*
X57122D02*
D03*
D58*
X132803Y-34699D02*
D03*
Y-15013D02*
D03*
X122960Y-44541D02*
D03*
Y-24856D02*
D03*
X113118Y-34699D02*
D03*
Y-15013D02*
D03*
D59*
X245500Y-48636D02*
D03*
D60*
Y-23636D02*
D03*
M02*
