G04*
G04 #@! TF.GenerationSoftware,Altium Limited,Altium Designer,19.1.8 (144)*
G04*
G04 Layer_Color=32896*
%FSLAX25Y25*%
%MOIN*%
G70*
G01*
G75*
%ADD10C,0.01000*%
%ADD12C,0.01235*%
%ADD105C,0.00984*%
%ADD106C,0.00787*%
%ADD107C,0.01575*%
G36*
X652362Y-279921D02*
X652533Y-279936D01*
X652699Y-279981D01*
X652854Y-280053D01*
X652994Y-280152D01*
X653116Y-280273D01*
X653214Y-280413D01*
X653287Y-280569D01*
X653331Y-280735D01*
X653346Y-280906D01*
X653331Y-281076D01*
X653287Y-281242D01*
X653214Y-281398D01*
X653116Y-281538D01*
X652994Y-281660D01*
X652854Y-281758D01*
X652699Y-281830D01*
X652533Y-281875D01*
X652362Y-281890D01*
X652191Y-281875D01*
X652026Y-281830D01*
X651870Y-281758D01*
X651730Y-281660D01*
X651609Y-281538D01*
X651510Y-281398D01*
X651438Y-281242D01*
X651393Y-281076D01*
X651378Y-280906D01*
X651393Y-280735D01*
X651438Y-280569D01*
X651510Y-280413D01*
X651609Y-280273D01*
X651730Y-280152D01*
X651870Y-280053D01*
X652026Y-279981D01*
X652191Y-279936D01*
X652362Y-279921D01*
D01*
D02*
G37*
G36*
X507952Y-37309D02*
X507712Y-37288D01*
X507480Y-37226D01*
X507262Y-37124D01*
X507065Y-36987D01*
X506895Y-36817D01*
X506757Y-36621D01*
X506656Y-36404D01*
X506594Y-36172D01*
X506572Y-35933D01*
X506594Y-35694D01*
X506656Y-35462D01*
X506757Y-35245D01*
X506895Y-35048D01*
X507065Y-34878D01*
X507262Y-34741D01*
X507480Y-34639D01*
X507712Y-34577D01*
X507952Y-34556D01*
X508191Y-34577D01*
X508423Y-34639D01*
X508641Y-34741D01*
X508838Y-34878D01*
X509008Y-35048D01*
X509146Y-35245D01*
X509248Y-35462D01*
X509310Y-35694D01*
X509331Y-35933D01*
X509310Y-36172D01*
X509248Y-36404D01*
X509146Y-36621D01*
X509008Y-36817D01*
X508838Y-36987D01*
X508641Y-37124D01*
X508423Y-37226D01*
X508191Y-37288D01*
X507952Y-37309D01*
D01*
D02*
G37*
D10*
X417322Y-213602D02*
X416338Y-213865D01*
X415617Y-214586D01*
X415353Y-215571D01*
X415617Y-216556D01*
X416338Y-217276D01*
X417322Y-217540D01*
X263020Y-35859D02*
X262991Y-34859D01*
X262906Y-33862D01*
X262763Y-32872D01*
X262564Y-31891D01*
X262310Y-30923D01*
X262001Y-29972D01*
X261638Y-29039D01*
X261222Y-28129D01*
X260755Y-27244D01*
X260239Y-26387D01*
X259674Y-25561D01*
X259063Y-24769D01*
X258407Y-24013D01*
X257710Y-23295D01*
X256973Y-22619D01*
X256198Y-21985D01*
X255389Y-21397D01*
X254547Y-20856D01*
X253676Y-20364D01*
X252778Y-19923D01*
X251856Y-19533D01*
X250914Y-19197D01*
X249954Y-18915D01*
X248979Y-18688D01*
X247993Y-18518D01*
X246999Y-18404D01*
X246000Y-18347D01*
X245000D01*
X244001Y-18404D01*
X243007Y-18518D01*
X242021Y-18688D01*
X241046Y-18915D01*
X240086Y-19197D01*
X239144Y-19533D01*
X238222Y-19923D01*
X237324Y-20364D01*
X236453Y-20856D01*
X235611Y-21397D01*
X234802Y-21985D01*
X234027Y-22619D01*
X233290Y-23295D01*
X232593Y-24013D01*
X231937Y-24769D01*
X231326Y-25561D01*
X230762Y-26387D01*
X230245Y-27244D01*
X229778Y-28129D01*
X229362Y-29039D01*
X228999Y-29972D01*
X228690Y-30923D01*
X228436Y-31891D01*
X228237Y-32871D01*
X228095Y-33862D01*
X228009Y-34859D01*
X227980Y-35859D01*
X228009Y-36859D01*
X228095Y-37856D01*
X228237Y-38846D01*
X228436Y-39827D01*
X228690Y-40795D01*
X228999Y-41747D01*
X229362Y-42679D01*
X229778Y-43589D01*
X230245Y-44474D01*
X230762Y-45331D01*
X231326Y-46157D01*
X231937Y-46949D01*
X232593Y-47705D01*
X233290Y-48423D01*
X234027Y-49099D01*
X234802Y-49733D01*
X235611Y-50321D01*
X236453Y-50862D01*
X237324Y-51354D01*
X238222Y-51796D01*
X239144Y-52185D01*
X240086Y-52521D01*
X241046Y-52803D01*
X242021Y-53030D01*
X243007Y-53200D01*
X244001Y-53315D01*
X245000Y-53372D01*
X246000Y-53372D01*
X246999Y-53315D01*
X247993Y-53200D01*
X248979Y-53030D01*
X249954Y-52803D01*
X250914Y-52521D01*
X251856Y-52185D01*
X252778Y-51796D01*
X253676Y-51354D01*
X254547Y-50862D01*
X255389Y-50321D01*
X256198Y-49733D01*
X256973Y-49100D01*
X257710Y-48423D01*
X258407Y-47706D01*
X259063Y-46949D01*
X259674Y-46157D01*
X260239Y-45331D01*
X260755Y-44474D01*
X261222Y-43589D01*
X261638Y-42679D01*
X262001Y-41747D01*
X262310Y-40795D01*
X262564Y-39827D01*
X262763Y-38847D01*
X262906Y-37856D01*
X262991Y-36859D01*
X263020Y-35859D01*
X234253Y-200685D02*
X233989Y-199700D01*
X233268Y-198979D01*
X232283Y-198715D01*
X231299Y-198979D01*
X230578Y-199700D01*
X230314Y-200685D01*
X69000Y-25012D02*
X99000D01*
Y-13988D01*
X69000D02*
X99000D01*
X69000Y-25012D02*
Y-13988D01*
X148500D02*
X178500D01*
X148500Y-25012D02*
Y-13988D01*
Y-25012D02*
X178500D01*
Y-13988D01*
X333839Y-23622D02*
X363839D01*
Y-12598D01*
X333839D02*
X363839D01*
X333839Y-23622D02*
Y-12598D01*
X377520Y-23622D02*
X407520D01*
Y-12598D01*
X377520D02*
X407520D01*
X377520Y-23622D02*
Y-12598D01*
X362713Y-168543D02*
Y-111457D01*
X264287Y-168543D02*
X362713D01*
X264287D02*
Y-111457D01*
X362713D01*
X341571Y-160197D02*
Y-120196D01*
Y-160197D02*
X361571D01*
Y-120196D01*
X341571D02*
X361571D01*
X417321Y-213601D02*
Y-210452D01*
Y-220690D02*
Y-217540D01*
X377954Y-220690D02*
Y-210452D01*
X417321D01*
X377954Y-220690D02*
X417321D01*
X3185Y-48283D02*
X34680D01*
X55943D02*
X59878D01*
Y-54978D02*
Y-48283D01*
Y-83717D02*
Y-77022D01*
X3185Y-83717D02*
X59878D01*
X3185D02*
Y-48283D01*
X462264Y-16949D02*
X504271D01*
Y-264941D02*
Y-16949D01*
X462264Y-264941D02*
X504271D01*
X462264D02*
Y-16949D01*
X109063Y-10563D02*
X136937D01*
Y-48437D02*
Y-10563D01*
X109063Y-48437D02*
X136937D01*
X109063D02*
Y-10563D01*
X662979Y-276985D02*
X668093D01*
X599490Y-240039D02*
Y-230039D01*
X559487Y-240039D02*
X599490D01*
X559487D02*
Y-230039D01*
X599490D01*
X245500Y-57661D02*
Y-55298D01*
X244319Y-56481D02*
X246681D01*
X234253Y-200683D02*
X237402D01*
X227165D02*
X230314D01*
X227165Y-161317D02*
X237402D01*
Y-200683D02*
Y-161317D01*
X227165Y-200683D02*
Y-161317D01*
X309052Y-43304D02*
Y-40948D01*
X302759Y-43304D02*
Y-40948D01*
Y-43304D02*
X309052D01*
X302759Y-42559D02*
X309052D01*
X299603Y-43304D02*
Y-40948D01*
X293310Y-43304D02*
Y-40948D01*
Y-43304D02*
X299603D01*
X293310Y-42559D02*
X299603D01*
X281099Y-43304D02*
Y-40948D01*
X274806Y-43304D02*
Y-40948D01*
Y-43304D02*
X281099D01*
X274806Y-42559D02*
X281099D01*
X272044Y-43304D02*
Y-40948D01*
X265751Y-43304D02*
Y-40948D01*
Y-43304D02*
X272044D01*
X265751Y-42559D02*
X272044D01*
X646457Y-275985D02*
Y-261811D01*
X658268Y-275985D02*
Y-261811D01*
X290548Y-43304D02*
Y-40948D01*
X284255Y-43304D02*
Y-40948D01*
Y-43304D02*
X290548D01*
X284255Y-42559D02*
X290548D01*
X192000Y-72000D02*
Y-66002D01*
X189001D01*
X188001Y-67002D01*
Y-69001D01*
X189001Y-70001D01*
X192000D01*
X190001D02*
X188001Y-72000D01*
X182003D02*
X186002D01*
X182003Y-68001D01*
Y-67002D01*
X183003Y-66002D01*
X185002D01*
X186002Y-67002D01*
X180004D02*
X179004Y-66002D01*
X177005D01*
X176005Y-67002D01*
Y-68001D01*
X177005Y-69001D01*
X176005Y-70001D01*
Y-71000D01*
X177005Y-72000D01*
X179004D01*
X180004Y-71000D01*
Y-70001D01*
X179004Y-69001D01*
X180004Y-68001D01*
Y-67002D01*
X179004Y-69001D02*
X177005D01*
X116500Y-59000D02*
Y-53002D01*
X113501D01*
X112501Y-54002D01*
Y-56001D01*
X113501Y-57001D01*
X116500D01*
X114501D02*
X112501Y-59000D01*
X106503D02*
X110502D01*
X106503Y-55001D01*
Y-54002D01*
X107503Y-53002D01*
X109502D01*
X110502Y-54002D01*
X104504Y-53002D02*
X100505D01*
Y-54002D01*
X104504Y-58000D01*
Y-59000D01*
X145490Y-34421D02*
X139492D01*
Y-37420D01*
X140492Y-38420D01*
X142491D01*
X143491Y-37420D01*
Y-34421D01*
Y-36421D02*
X145490Y-38420D01*
Y-44418D02*
Y-40419D01*
X141491Y-44418D01*
X140492D01*
X139492Y-43418D01*
Y-41419D01*
X140492Y-40419D01*
X139492Y-50416D02*
X140492Y-48417D01*
X142491Y-46417D01*
X144490D01*
X145490Y-47417D01*
Y-49416D01*
X144490Y-50416D01*
X143491D01*
X142491Y-49416D01*
Y-46417D01*
X144501Y-81000D02*
Y-77002D01*
X145501Y-76002D01*
X147500D01*
X148500Y-77002D01*
Y-81000D01*
X147500Y-82000D01*
X145501D01*
X146501Y-80001D02*
X144501Y-82000D01*
X145501D02*
X144501Y-81000D01*
X138503Y-82000D02*
X142502D01*
X138503Y-78001D01*
Y-77002D01*
X139503Y-76002D01*
X141502D01*
X142502Y-77002D01*
X204524Y-43999D02*
X200525D01*
X199526Y-42999D01*
Y-41000D01*
X200525Y-40000D01*
X204524D01*
X205524Y-41000D01*
Y-42999D01*
X203524Y-41999D02*
X205524Y-43999D01*
Y-42999D02*
X204524Y-43999D01*
X205524Y-45998D02*
Y-47997D01*
Y-46998D01*
X199526D01*
X200525Y-45998D01*
X180500Y-94498D02*
Y-88500D01*
X183499D01*
X184499Y-89500D01*
Y-93498D01*
X183499Y-94498D01*
X180500D01*
X190497Y-88500D02*
X186498D01*
X190497Y-92499D01*
Y-93498D01*
X189497Y-94498D01*
X187498D01*
X186498Y-93498D01*
X207502Y-77853D02*
X206502Y-76853D01*
Y-74854D01*
X207502Y-73854D01*
X211500D01*
X212500Y-74854D01*
Y-76853D01*
X211500Y-77853D01*
X212500Y-79852D02*
Y-81852D01*
Y-80852D01*
X206502D01*
X207502Y-79852D01*
X212500Y-84851D02*
Y-86850D01*
Y-85851D01*
X206502D01*
X207502Y-84851D01*
X664311Y-243354D02*
Y-239366D01*
X662317D01*
X661652Y-240031D01*
Y-241360D01*
X662317Y-242025D01*
X664311D01*
X662982D02*
X661652Y-243354D01*
X657664D02*
X660323D01*
X657664Y-240696D01*
Y-240031D01*
X658329Y-239366D01*
X659658D01*
X660323Y-240031D01*
X656335D02*
X655670Y-239366D01*
X654341D01*
X653676Y-240031D01*
Y-240696D01*
X654341Y-241360D01*
X655005D01*
X654341D01*
X653676Y-242025D01*
Y-242690D01*
X654341Y-243354D01*
X655670D01*
X656335Y-242690D01*
X627000Y-236500D02*
Y-232512D01*
X625006D01*
X624341Y-233177D01*
Y-234506D01*
X625006Y-235171D01*
X627000D01*
X625671D02*
X624341Y-236500D01*
X620353D02*
X623012D01*
X620353Y-233841D01*
Y-233177D01*
X621018Y-232512D01*
X622347D01*
X623012Y-233177D01*
X619024Y-236500D02*
X617694D01*
X618359D01*
Y-232512D01*
X619024Y-233177D01*
X402679Y-195789D02*
Y-199113D01*
X402014Y-199777D01*
X400685D01*
X400020Y-199113D01*
Y-195789D01*
X396032Y-199777D02*
X398691D01*
X396032Y-197119D01*
Y-196454D01*
X396697Y-195789D01*
X398026D01*
X398691Y-196454D01*
X26500Y-41512D02*
X25171D01*
X25835D01*
Y-45500D01*
X26500D01*
X25171D01*
X23177D02*
Y-41512D01*
X20518Y-45500D01*
Y-41512D01*
X19188Y-46165D02*
X16530D01*
X12542Y-45500D02*
X15200D01*
X12542Y-42841D01*
Y-42177D01*
X13206Y-41512D01*
X14536D01*
X15200Y-42177D01*
X706235Y-280136D02*
X704906D01*
X705570D01*
Y-276812D01*
X704906Y-276148D01*
X704241D01*
X703576Y-276812D01*
X710223Y-276148D02*
X707564D01*
X710223Y-278806D01*
Y-279471D01*
X709559Y-280136D01*
X708229D01*
X707564Y-279471D01*
X488093Y-11734D02*
X489422D01*
X488757D01*
Y-15058D01*
X489422Y-15722D01*
X490087D01*
X490751Y-15058D01*
X486763Y-15722D02*
X485434D01*
X486098D01*
Y-11734D01*
X486763Y-12399D01*
X127572Y-5348D02*
X124913D01*
X126242D01*
Y-9336D01*
X123584D02*
X122254D01*
X122919D01*
Y-5348D01*
X123584Y-6013D01*
X669000Y-252500D02*
X672988D01*
Y-250506D01*
X672323Y-249841D01*
X670994D01*
X670329Y-250506D01*
Y-252500D01*
Y-251171D02*
X669000Y-249841D01*
Y-245853D02*
Y-248512D01*
X671659Y-245853D01*
X672323D01*
X672988Y-246518D01*
Y-247847D01*
X672323Y-248512D01*
Y-244524D02*
X672988Y-243859D01*
Y-242530D01*
X672323Y-241865D01*
X669665D01*
X669000Y-242530D01*
Y-243859D01*
X669665Y-244524D01*
X672323D01*
X667217Y-282399D02*
X667882Y-283063D01*
Y-284393D01*
X667217Y-285057D01*
X664559D01*
X663894Y-284393D01*
Y-283063D01*
X664559Y-282399D01*
Y-281069D02*
X663894Y-280405D01*
Y-279075D01*
X664559Y-278411D01*
X667217D01*
X667882Y-279075D01*
Y-280405D01*
X667217Y-281069D01*
X666553D01*
X665888Y-280405D01*
Y-278411D01*
X599841Y-253512D02*
X602500D01*
Y-257500D01*
X599841D01*
X602500Y-255506D02*
X601171D01*
X598512Y-257500D02*
Y-253512D01*
X595853Y-257500D01*
Y-253512D01*
X591865Y-254177D02*
X592530Y-253512D01*
X593859D01*
X594524Y-254177D01*
Y-256835D01*
X593859Y-257500D01*
X592530D01*
X591865Y-256835D01*
X588542Y-253512D02*
X589871D01*
X590536Y-254177D01*
Y-256835D01*
X589871Y-257500D01*
X588542D01*
X587877Y-256835D01*
Y-254177D01*
X588542Y-253512D01*
X586548D02*
Y-257500D01*
X584553D01*
X583889Y-256835D01*
Y-254177D01*
X584553Y-253512D01*
X586548D01*
X579901D02*
X582559D01*
Y-257500D01*
X579901D01*
X582559Y-255506D02*
X581230D01*
X578571Y-257500D02*
Y-253512D01*
X576577D01*
X575913Y-254177D01*
Y-255506D01*
X576577Y-256171D01*
X578571D01*
X577242D02*
X575913Y-257500D01*
X574583Y-258165D02*
X571924D01*
X570595Y-257500D02*
Y-253512D01*
X569266Y-254841D01*
X567936Y-253512D01*
Y-257500D01*
X566607D02*
Y-254841D01*
X565278Y-253512D01*
X563948Y-254841D01*
Y-257500D01*
Y-255506D01*
X566607D01*
X562619Y-253512D02*
X561290D01*
X561954D01*
Y-257500D01*
X562619D01*
X561290D01*
X559296D02*
Y-253512D01*
X556637Y-257500D01*
Y-253512D01*
X631000Y-267500D02*
X634988D01*
Y-265506D01*
X634323Y-264841D01*
X632994D01*
X632329Y-265506D01*
Y-267500D01*
Y-266171D02*
X631000Y-264841D01*
Y-260853D02*
Y-263512D01*
X633659Y-260853D01*
X634323D01*
X634988Y-261518D01*
Y-262847D01*
X634323Y-263512D01*
X631000Y-256865D02*
Y-259524D01*
X633659Y-256865D01*
X634323D01*
X634988Y-257530D01*
Y-258859D01*
X634323Y-259524D01*
X247885Y-13790D02*
X248549Y-13125D01*
X249879D01*
X250543Y-13790D01*
Y-16448D01*
X249879Y-17113D01*
X248549D01*
X247885Y-16448D01*
X243897Y-13125D02*
X245226Y-13790D01*
X246555Y-15119D01*
Y-16448D01*
X245890Y-17113D01*
X244561D01*
X243897Y-16448D01*
Y-15784D01*
X244561Y-15119D01*
X246555D01*
X236855Y-156102D02*
Y-159425D01*
X236191Y-160090D01*
X234861D01*
X234196Y-159425D01*
Y-156102D01*
X232867Y-160090D02*
X231538D01*
X232203D01*
Y-156102D01*
X232867Y-156767D01*
X142000Y-70512D02*
Y-74500D01*
X140006D01*
X139341Y-73835D01*
Y-71177D01*
X140006Y-70512D01*
X142000D01*
X138012Y-74500D02*
X136682D01*
X137347D01*
Y-70512D01*
X138012Y-71177D01*
X628500Y-258000D02*
Y-254012D01*
X626506D01*
X625841Y-254677D01*
Y-256006D01*
X626506Y-256671D01*
X628500D01*
X627171D02*
X625841Y-258000D01*
X621853D02*
X624512D01*
X621853Y-255341D01*
Y-254677D01*
X622518Y-254012D01*
X623847D01*
X624512Y-254677D01*
X617865Y-254012D02*
X620524D01*
Y-256006D01*
X619194Y-255341D01*
X618530D01*
X617865Y-256006D01*
Y-257335D01*
X618530Y-258000D01*
X619859D01*
X620524Y-257335D01*
X621500Y-243500D02*
Y-239512D01*
X619506D01*
X618841Y-240177D01*
Y-241506D01*
X619506Y-242171D01*
X621500D01*
X620171D02*
X618841Y-243500D01*
X614853D02*
X617512D01*
X614853Y-240841D01*
Y-240177D01*
X615518Y-239512D01*
X616847D01*
X617512Y-240177D01*
X611530Y-243500D02*
Y-239512D01*
X613524Y-241506D01*
X610865D01*
X307823Y-29341D02*
X308488Y-30006D01*
Y-31335D01*
X307823Y-32000D01*
X305165D01*
X304500Y-31335D01*
Y-30006D01*
X305165Y-29341D01*
X307823Y-28012D02*
X308488Y-27347D01*
Y-26018D01*
X307823Y-25353D01*
X307159D01*
X306494Y-26018D01*
X305829Y-25353D01*
X305165D01*
X304500Y-26018D01*
Y-27347D01*
X305165Y-28012D01*
X305829D01*
X306494Y-27347D01*
X307159Y-28012D01*
X307823D01*
X306494Y-27347D02*
Y-26018D01*
X297823Y-29341D02*
X298488Y-30006D01*
Y-31335D01*
X297823Y-32000D01*
X295165D01*
X294500Y-31335D01*
Y-30006D01*
X295165Y-29341D01*
X298488Y-28012D02*
Y-25353D01*
X297823D01*
X295165Y-28012D01*
X294500D01*
X279823Y-29341D02*
X280488Y-30006D01*
Y-31335D01*
X279823Y-32000D01*
X277165D01*
X276500Y-31335D01*
Y-30006D01*
X277165Y-29341D01*
X276500Y-26018D02*
X280488D01*
X278494Y-28012D01*
Y-25353D01*
X270323Y-29341D02*
X270988Y-30006D01*
Y-31335D01*
X270323Y-32000D01*
X267665D01*
X267000Y-31335D01*
Y-30006D01*
X267665Y-29341D01*
X270323Y-28012D02*
X270988Y-27347D01*
Y-26018D01*
X270323Y-25353D01*
X269659D01*
X268994Y-26018D01*
Y-26682D01*
Y-26018D01*
X268329Y-25353D01*
X267665D01*
X267000Y-26018D01*
Y-27347D01*
X267665Y-28012D01*
X654341Y-283677D02*
X655006Y-283012D01*
X656335D01*
X657000Y-283677D01*
Y-286335D01*
X656335Y-287000D01*
X655006D01*
X654341Y-286335D01*
X653012Y-287000D02*
X651683D01*
X652347D01*
Y-283012D01*
X653012Y-283677D01*
X649688D02*
X649024Y-283012D01*
X647694D01*
X647030Y-283677D01*
Y-286335D01*
X647694Y-287000D01*
X649024D01*
X649688Y-286335D01*
Y-283677D01*
X289323Y-29341D02*
X289988Y-30006D01*
Y-31335D01*
X289323Y-32000D01*
X286665D01*
X286000Y-31335D01*
Y-30006D01*
X286665Y-29341D01*
X289988Y-25353D02*
Y-28012D01*
X287994D01*
X288659Y-26682D01*
Y-26018D01*
X287994Y-25353D01*
X286665D01*
X286000Y-26018D01*
Y-27347D01*
X286665Y-28012D01*
D12*
X295421Y-119599D02*
Y-115538D01*
X301982D01*
Y-119599D01*
X298545Y-115538D02*
Y-118037D01*
X296359Y-125066D02*
X295734Y-124441D01*
X295421Y-123504D01*
Y-122254D01*
X295734Y-121317D01*
X296359Y-120692D01*
X296983D01*
X297608Y-121005D01*
X297921Y-121317D01*
X298233Y-121942D01*
X298858Y-123816D01*
X299170Y-124441D01*
X299483Y-124753D01*
X300107Y-125066D01*
X301045D01*
X301669Y-124441D01*
X301982Y-123504D01*
Y-122254D01*
X301669Y-121317D01*
X301045Y-120692D01*
X298858Y-126534D02*
Y-129346D01*
X298545Y-130283D01*
X298233Y-130595D01*
X297608Y-130908D01*
X296671D01*
X296046Y-130595D01*
X295734Y-130283D01*
X295421Y-129346D01*
Y-126534D01*
X301982D01*
X295421Y-133938D02*
X295734Y-133001D01*
X296359Y-132688D01*
X296983D01*
X297608Y-133001D01*
X297921Y-133625D01*
X298233Y-134875D01*
X298545Y-135812D01*
X299170Y-136437D01*
X299795Y-136749D01*
X300732D01*
X301357Y-136437D01*
X301669Y-136125D01*
X301982Y-135187D01*
Y-133938D01*
X301669Y-133001D01*
X301357Y-132688D01*
X300732Y-132376D01*
X299795D01*
X299170Y-132688D01*
X298545Y-133313D01*
X298233Y-134250D01*
X297921Y-135500D01*
X297608Y-136125D01*
X296983Y-136437D01*
X296359D01*
X295734Y-136125D01*
X295421Y-135187D01*
Y-133938D01*
X296983Y-138530D02*
X296671D01*
X296046Y-138843D01*
X295734Y-139155D01*
X295421Y-139780D01*
Y-141029D01*
X295734Y-141654D01*
X296046Y-141967D01*
X296671Y-142279D01*
X297296D01*
X297921Y-141967D01*
X298858Y-141342D01*
X301982Y-138218D01*
Y-142591D01*
X296359Y-147808D02*
X295734Y-147496D01*
X295421Y-146559D01*
Y-145934D01*
X295734Y-144997D01*
X296671Y-144372D01*
X298233Y-144060D01*
X299795D01*
X301045Y-144372D01*
X301669Y-144997D01*
X301982Y-145934D01*
Y-146246D01*
X301669Y-147184D01*
X301045Y-147808D01*
X300107Y-148121D01*
X299795D01*
X298858Y-147808D01*
X298233Y-147184D01*
X297921Y-146246D01*
Y-145934D01*
X298233Y-144997D01*
X298858Y-144372D01*
X299795Y-144060D01*
X296359Y-153307D02*
X295734Y-152994D01*
X295421Y-152057D01*
Y-151432D01*
X295734Y-150495D01*
X296671Y-149870D01*
X298233Y-149558D01*
X299795D01*
X301045Y-149870D01*
X301669Y-150495D01*
X301982Y-151432D01*
Y-151745D01*
X301669Y-152682D01*
X301045Y-153307D01*
X300107Y-153619D01*
X299795D01*
X298858Y-153307D01*
X298233Y-152682D01*
X297921Y-151745D01*
Y-151432D01*
X298233Y-150495D01*
X298858Y-149870D01*
X299795Y-149558D01*
X314240Y-122640D02*
Y-118579D01*
X320801D01*
Y-122640D01*
X317364Y-118579D02*
Y-121078D01*
X315177Y-128107D02*
X314553Y-127482D01*
X314240Y-126545D01*
Y-125296D01*
X314553Y-124359D01*
X315177Y-123734D01*
X315802D01*
X316427Y-124046D01*
X316740Y-124359D01*
X317052Y-124983D01*
X317677Y-126858D01*
X317989Y-127482D01*
X318302Y-127795D01*
X318926Y-128107D01*
X319864D01*
X320488Y-127482D01*
X320801Y-126545D01*
Y-125296D01*
X320488Y-124359D01*
X319864Y-123734D01*
X317677Y-129576D02*
Y-132387D01*
X317364Y-133324D01*
X317052Y-133637D01*
X316427Y-133949D01*
X315490D01*
X314865Y-133637D01*
X314553Y-133324D01*
X314240Y-132387D01*
Y-129576D01*
X320801D01*
X317989Y-135417D02*
Y-141041D01*
X314240Y-144852D02*
X314553Y-143915D01*
X315490Y-143290D01*
X317052Y-142977D01*
X317989D01*
X319551Y-143290D01*
X320488Y-143915D01*
X320801Y-144852D01*
Y-145477D01*
X320488Y-146414D01*
X319551Y-147039D01*
X317989Y-147351D01*
X317052D01*
X315490Y-147039D01*
X314553Y-146414D01*
X314240Y-145477D01*
Y-144852D01*
X315490Y-148819D02*
X315177Y-149444D01*
X314240Y-150381D01*
X320801D01*
D105*
X682622Y-232500D02*
X681884Y-232074D01*
Y-232926D01*
X682622Y-232500D01*
X156669Y-63331D02*
X155931Y-62905D01*
Y-63757D01*
X156669Y-63331D01*
X161823Y-64626D02*
X161085Y-64200D01*
Y-65052D01*
X161823Y-64626D01*
D106*
X692760Y-268524D02*
X713626D01*
X727602D02*
X731343D01*
Y-226594D01*
X692760Y-221476D02*
X716382D01*
X686264Y-229547D02*
Y-227382D01*
X725043Y-221476D02*
X725634D01*
X181803Y-80244D02*
X187709D01*
X181803Y-85756D02*
X187709D01*
X134513Y-63244D02*
X140418D01*
X134513Y-68756D02*
X140418D01*
X167201Y-36126D02*
X171716D01*
X167201Y-61874D02*
Y-36126D01*
Y-61874D02*
X171716D01*
X154441Y-78248D02*
Y-76043D01*
Y-78248D02*
X157000D01*
X154441Y-66752D02*
X157000D01*
X154441Y-68957D02*
Y-66752D01*
D107*
X173929Y-85756D02*
Y-80244D01*
X126639Y-68756D02*
Y-63244D01*
M02*
