M48
;Layer_Color=9474304
;FILE_FORMAT=2:5
INCH,TZ
;TYPE=PLATED
T1F00S00C0.01912
T2F00S00C0.03150
T3F00S00C0.03543
T4F00S00C0.04331
T5F00S00C0.05118
T6F00S00C0.06693
T7F00S00C0.11811
%
T01
X29000Y-291000
X40500Y-287000
X57947Y-295267
X71807Y-294610
X77618Y-295081
X84000Y-286000
X76500Y-279500
X72500Y-275000
X69922Y-281572
X62539Y-281887
X63831Y-266974
X67500Y-270500
X56976Y-259191
X45000Y-246500
X31500Y-248500
X32000Y-241500
X16000Y-243500
X14905Y-258311
X14500Y-269000
X21002Y-229914
X20687Y-223631
X19431Y-217504
X19588Y-212635
X20706Y-206735
X22322Y-199237
X30404Y-198523
X30403Y-192404
X30313Y-187172
X30577Y-182028
X30664Y-177150
X30663Y-171385
X30507Y-165683
X30493Y-158817
X46852Y-158414
X46866Y-165280
X46270Y-171077
X46511Y-176818
X46365Y-182434
X46464Y-187094
X50807Y-180761
X56089Y-172117
X63573Y-170159
X68056Y-166410
X73249Y-160828
X78181Y-180820
X64995Y-190458
X61769Y-195703
X71015Y-214896
X71329Y-225891
X57949Y-223584
X52852Y-220974
X45128Y-220223
X39978Y-220330
X66936Y-242952
X72754Y-248853
X79648Y-255355
X85771Y-262188
X93406Y-269411
X90970Y-295395
X85786
X131666Y-295259
X136984Y-295804
X142322Y-295632
X148139Y-295558
X154585Y-295395
X161339Y-295238
X167622
X173434Y-294453
X178774Y-295238
X187728
X195739Y-295709
X202650
X211446
X220870Y-295395
X228567
X237521Y-295081
X234817Y-280709
X227724
X220188
X211854
X207421
X200949
X195008
X189689
X184103
X178517
X173375
X167080
X161583
X155111
X148372
X141545
X135428
X131882
X127330Y-281603
X132072Y-264403
X138294Y-265205
X145161
X154621Y-265058
X160500Y-265500
X163000Y-261500
X162800Y-256592
X164256Y-251902
X161897Y-245465
X160716Y-237204
X160931Y-229587
X161840Y-222334
X156862Y-221567
X155609Y-215692
X161789Y-212208
X162111Y-205771
X162004Y-199334
X161897Y-188928
X161789Y-184529
X161574Y-177878
X163720Y-172514
X160230Y-168982
X159674Y-166054
X153871Y-165974
X146996Y-165722
X139129Y-169333
X131160Y-169250
X113343Y-170124
X113090Y-177207
X113849Y-185302
X108870Y-193650
X112584Y-200479
X111000Y-211500
X113090Y-219452
Y-227546
X113343Y-234376
X112500Y-243500
X113596Y-250566
X113849Y-259419
X136958Y-231235
X139206Y-221446
X132537Y-222136
X175476Y-218350
X191215Y-219235
X189707Y-215334
X195559Y-213738
X200912Y-216639
X203105Y-209451
X202676Y-202800
X202890Y-185635
X201985Y-179627
X201878Y-175765
X197091Y-182245
X192190Y-183948
X192633Y-188558
X196236Y-188015
X190410Y-175093
X182765Y-169044
X175949Y-169810
X175304Y-176097
X154829Y-173781
X215647Y-172447
X215163Y-176235
X220161Y-167127
X225561Y-166724
X231765Y-170165
X238953Y-175821
X221116Y-230356
X201281Y-232194
X201388Y-226616
X194406Y-223048
X202032Y-237988
X202890Y-244746
X201663Y-249789
X201878Y-254938
X203685Y-258111
X198472Y-264283
X192091Y-264407
X185842Y-264089
X178243Y-264293
X177472Y-256916
X185744Y-256345
X184387Y-247341
X178624
X174723Y-248848
X190948Y-247075
X216779Y-257775
X217735Y-264709
X222036Y-264641
X227507Y-264963
X235016Y-264641
X241454Y-263997
X85328Y-174063
X88565Y-169416
X96183Y-161048
X243213Y-168175
X251644Y-168219
X248818Y-172616
X249139Y-177122
X252165Y-175747
X249354Y-183666
X249247Y-189137
X248925Y-199436
Y-205551
X249461Y-212095
X249354Y-222287
X249247Y-231084
X248818Y-238701
X249890Y-245781
X252251Y-252111
X250833Y-256249
X248389Y-258869
X247589Y-263754
X245972Y-280955
X249979Y-280709
X255032
X260707
X266824
X272410
X278439
X282784
X287394
X293334
X296892Y-280913
X300516Y-280709
X306013
X310002
X314435
X321174
X329331
X338374
X345467
X351408
X357880
X365239
X372952
X378981
X383946
X388823
X394320
X394215Y-295537
X387056Y-294924
X380459
X368521
X361610
X352971Y-295081
X347833Y-295721
X341190Y-294767
X335850Y-294610
X329724
X322498Y-295395
X315429
X308204Y-295238
X301764
X295167Y-295395
X289198Y-295709
X280873
X271292Y-294767
X262652Y-295081
X256527Y-295395
X248987Y-295081
X241645Y-280709
X268368Y-264593
X272874Y-264700
X277487Y-264915
X281778Y-264700
X287893Y-264486
X293257Y-263950
X297567Y-257706
X298085Y-249795
X298299Y-243144
X298407Y-236492
X298192Y-228124
X297656Y-220293
X298053Y-214723
X298621Y-210316
X298299Y-203343
X298192Y-198753
X298299Y-185856
X297978Y-178454
X302078Y-174401
X298728Y-170515
X296360Y-168535
X291295Y-167979
X290792Y-175279
X283179Y-168696
X274676Y-166838
X268308Y-166919
X315136Y-167389
X322470Y-167792
X330857Y-168453
X336576Y-167630
X342414Y-168175
X338548Y-175852
X348476Y-175974
X352112Y-174623
X348476Y-183483
X348690Y-189383
X342269Y-219574
X319796Y-234206
X316326Y-264178
X322978Y-264714
X330058Y-264607
X336280Y-264821
X341215Y-264071
X347842Y-262627
X351694Y-250748
X365855Y-265124
X371863Y-265338
X378992Y-265280
X385380Y-265338
X391174Y-265446
X395670Y-264246
X395680Y-258528
X394778Y-242899
X390615Y-238428
X390498Y-231464
X393315Y-217254
X395660Y-210197
X395808Y-203855
X395461Y-198214
X395918Y-188713
Y-184851
X395811Y-180607
X396991Y-173158
X396954Y-168982
X393701Y-168594
X388705Y-167611
X388876Y-175833
X380572Y-168748
X372746Y-167530
X366137Y-167369
X369450Y-233236
X273371Y-233788
X398035Y-229046
Y-222716
X397928Y-217030
X399386Y-187113
X401739Y-182220
X400019Y-177866
X403760Y-174079
X401598Y-168630
X418590Y-166099
X425797Y-165739
X432970Y-166411
X440353Y-165938
X440944Y-172743
X448312Y-170151
X443647Y-182115
X443420Y-211825
X443741Y-219549
X443919Y-224863
X444171Y-229419
X443527Y-234676
X443312Y-241649
X448249Y-248228
X448344Y-254110
X441110Y-265124
X435652Y-265160
X430420Y-265027
X425411Y-265266
X421585Y-265281
X422426Y-280709
X417726
X413028
X408683
X403807
X398664
X401350Y-294767
X409675Y-295081
X417842Y-295238
X425068Y-295552
X429623Y-295866
X433192Y-295571
X439362Y-294767
X444702Y-295081
X450828Y-294767
X457426
X465122Y-295081
X471719
X478002Y-295238
X487000Y-295500
X494000Y-295000
X503000Y-296000
X516000Y-294500
X524099Y-291979
X530000Y-285500
X536000Y-283000
X543500Y-286500
X541659Y-292387
X550504Y-295226
X517000Y-284000
X516500Y-266500
X514500Y-257000
X508789Y-255341
X503500Y-255000
X498000
X492500Y-253500
X485500Y-255500
X480000Y-256000
X481500Y-251000
X486500Y-249500
X483528Y-245887
X492937Y-244747
X498497Y-243225
X497788Y-247747
X498409Y-237906
X493030Y-237026
X492124Y-230763
X499207Y-232231
X498941Y-227976
X500349Y-220264
X491248Y-220852
X490959Y-214806
X486358Y-209365
X495058Y-204177
X495165Y-198491
X500093Y-201111
X498941Y-207761
X505930Y-213467
X515229Y-213159
X511393Y-224128
X511988Y-231477
X512459Y-238574
X505317Y-241234
X508466Y-244706
X514178Y-247705
X522318Y-248561
X532028Y-250561
X542310Y-249989
X550449Y-249847
X551163Y-243706
X541533Y-240914
X534325Y-232296
X526737Y-237663
X523802Y-224442
X552074Y-223656
X553743Y-212342
X540947Y-209615
X547335Y-199270
X551890Y-187019
X551576Y-173982
X552979Y-159942
X533213Y-172082
X529557Y-192253
X514089Y-194527
X499561Y-193752
X498969Y-186919
X493800Y-188387
X487698Y-180967
X486273Y-169713
X485976Y-163242
X489236Y-160205
X480473Y-159652
X473080Y-162456
X466571Y-162494
X494167Y-167891
X499295Y-168306
X495279Y-174450
X467624Y-232353
X469856Y-265481
X475500Y-264500
X477500Y-260000
X476420Y-272041
X471278Y-272040
X468352Y-275587
X464806Y-278690
X469150Y-281439
X477337Y-281409
X475083Y-276705
X475000Y-288000
X459398Y-280709
X452393
X446453
X440246
X433685
X427213
X454701Y-276556
X460188Y-271200
X464349Y-266918
X401448Y-263693
X404262Y-259985
X400337Y-255786
X399537Y-249905
X404155Y-251197
X421431Y-233636
X562570Y-234453
X561785Y-222987
X572152
X570895Y-230526
X578984Y-231170
X581443Y-223112
X590773Y-220866
X600856Y-221287
X605854Y-222144
X605426Y-230140
X608424Y-232711
X612565Y-233139
X615992Y-237709
X616278Y-240993
X613000Y-245000
X607000
X601285Y-245420
X596144Y-247848
X587576Y-246134
X585417Y-240045
X579579Y-247276
X573439Y-242421
X570012Y-241565
X572500Y-267500
X576245Y-295180
X585060Y-294325
X591644Y-295333
X602834Y-297721
X564170Y-295596
X618000Y-272000
Y-267000
X622704Y-266411
X622990Y-261556
X618500Y-262000
Y-257500
X624000Y-257000
X628987Y-258129
X633000Y-257000
X638000
X642500
X648000
X645822Y-259902
X645500Y-264000
X649693Y-263698
X653977Y-263413
X658261Y-262841
X662500Y-264000
X665500Y-261000
X670500Y-260500
X668000Y-257500
X664000Y-257000
X659831Y-257986
X656000Y-259000
X655690Y-254844
X655833Y-250418
X650693Y-249989
Y-253845
X652000Y-259500
X651978Y-267696
X656404Y-266982
X656500Y-271000
X656833Y-274979
X658403Y-278263
X653834Y-278835
X649000Y-278500
X646500Y-275000
X642000Y-275500
X638500Y-278500
X637127Y-263127
X641268Y-263270
X632557Y-263555
X628559Y-263127
X622990Y-272409
X649500Y-271000
X651835Y-274408
X661831Y-275122
X677500Y-275000
X675253Y-278549
X680000Y-280000
X686000Y-279500
X688500Y-276000
X683000
X685500Y-272500
X685678Y-267982
X685249Y-262413
X681394Y-264269
X677500Y-263500
X673000Y-264000
X668000Y-264500
X674682Y-258272
X678824Y-258700
X683250Y-258129
X687677
X689000Y-265000
X689500Y-270500
X682000
X682108Y-292400
X688105Y-292257
X688799Y-297456
X696282Y-297262
X693532Y-290544
X697958Y-286260
X702099Y-284403
X704098Y-280548
X705098Y-275122
X705241Y-268982
X703000Y-264000
Y-258500
X703500Y-252000
X705526Y-247562
X701957Y-243135
X696102Y-243706
X690390Y-243564
X685535Y-244135
X686535Y-239280
X689533Y-235424
X694103Y-232997
X698937Y-237626
X699815Y-228427
X702528Y-223287
X702813Y-216718
Y-211434
X703242Y-207008
X702670Y-200439
X700386Y-195584
X700814Y-189586
X703385Y-185017
X703813Y-179591
X705590Y-172765
X702670Y-172022
X702528Y-167738
X701671Y-164597
X696530Y-163454
X691675Y-162598
X705603Y-161661
X709984Y-186917
X706051Y-219346
X705311Y-232445
X672398Y-245848
X667400Y-245134
X663972Y-245706
X660831Y-244135
X657404Y-246134
X656500Y-242500
X652000Y-243000
X653548Y-246848
X649407Y-246277
X646980Y-243849
X643552Y-245991
X640411Y-245848
X637127
X633843Y-245563
X620134Y-245420
X595784Y-233652
X600661Y-227065
X599571Y-214005
X600142Y-204009
X601856Y-200296
X596048Y-200565
X586132Y-202098
X570424Y-199270
X556908Y-201860
X564411Y-211507
X575108Y-212634
X576788Y-187513
X579055Y-177807
X587102Y-184322
X597372Y-184637
X601998Y-185445
X601142Y-192871
X598000Y-178734
X597280Y-171579
X600142Y-169309
X600999Y-161598
X593716Y-159599
X586885Y-168224
X566929Y-168512
X569537Y-161322
X563128Y-184754
X629701Y-170452
X634128Y-170880
X641696Y-170166
X644500Y-158500
X660117Y-163597
X659974Y-170880
X669684Y-171451
X666257Y-166596
X672826Y-165168
X676000Y-161500
X677824Y-170737
X664398Y-160217
X652965Y-181617
X626560Y-163883
X653682Y-296309
X672803Y-297394
X676253Y-292115
X704146Y-295424
X709759Y-287779
X713553Y-275258
X714000Y-271000
X721052Y-266652
X726582Y-260952
X721838Y-254244
X714487Y-247820
X720738Y-240893
X726237Y-232270
X721838Y-224244
X723602Y-215385
X713105Y-219656
X712241Y-231233
X717597Y-203933
X728310Y-202205
X726237Y-191492
X721062Y-181215
X713105Y-177324
X713450Y-162465
X721773Y-169831
X711338Y-197673
X723268Y-157525
X724814Y-146250
X724817Y-135627
X724169Y-124908
X727242Y-114170
X726882Y-99266
X727550Y-85695
X726606Y-74471
X714809Y-29604
X697860Y-15080
X678046Y-17119
X675898Y-30711
X645063Y-33986
X628000Y-34000
X625000Y-29500
X622133Y-23370
X631424Y-23139
X640566Y-18749
X626577Y-11628
X620848Y-12946
X615422Y-11376
X613761Y-7989
X608282Y-10947
X601570Y-10376
X603565Y-6233
X593431Y-10376
X584720Y-10090
X590214Y-4505
X578748
X574153Y-10661
X568727Y-14517
X564728Y-11233
X558160Y-10804
X559586Y-4819
X567911
X565300Y-19658
X569012Y-21514
X569155Y-28083
X564871Y-29225
X559160Y-32795
X558303Y-21942
X576581Y-29939
X580579Y-27940
X587281Y-31665
X589432Y-35794
X588655Y-42400
X589432Y-47218
X588433Y-53215
X586576Y-60498
X581864Y-64353
X577723Y-64639
X572931Y-71185
X568155Y-73778
X565300Y-66352
X563815Y-80849
X572725Y-81346
X577580Y-83609
X586576Y-84059
X590432Y-82917
X596572Y-79490
X598571Y-74349
X604613Y-72027
X606853Y-66638
X610709Y-59070
X615188Y-58850
X621134Y-58356
X627126Y-57437
X617596Y-67329
X613637Y-50417
X608139Y-47789
X607853Y-55928
X607282Y-38650
X607996Y-32081
X616456Y-31451
X618416Y-42029
X632623Y-39217
X633414Y-44076
X637806Y-48327
X651757Y-47074
X651978Y-60783
X655530Y-67193
X658261Y-65924
X664829Y-81917
X663972Y-86772
X663740Y-92419
X662687Y-95197
X662830Y-99910
X661973Y-106335
X661831Y-110334
Y-115760
X665258Y-122615
X653691Y-120044
X647837Y-127470
X648693Y-136751
X654500Y-138000
X660545Y-152459
X659500Y-158000
X667000Y-154500
X681537Y-142321
X678538Y-138750
X685108Y-136487
X687391Y-147033
X691104Y-150603
X696915Y-152470
X692389Y-157314
X709649Y-142938
X707023Y-93371
X701848Y-62104
X634351Y-79112
X640849Y-95134
X652947Y-107132
X630252Y-108970
X633218Y-128175
X633500Y-150000
X631542Y-157091
X619991Y-157171
X625000Y-151500
X644215Y-148872
X606568Y-143035
X600713Y-137608
X595715Y-133324
X590718Y-128469
X586993Y-122265
X586576Y-117331
X586636Y-110730
X586719Y-103622
X586862Y-98196
X581883Y-99873
X577171Y-105841
X572844Y-96803
X556945Y-100306
X562768Y-108207
X571154Y-117045
X579715Y-116766
X575280Y-122368
X569506Y-126504
X568727Y-135038
X572439Y-137180
X570247Y-143954
X579011Y-142100
X582150Y-146890
X586148Y-148747
X590666Y-148889
X595430Y-156029
X581586Y-156701
X574252Y-153056
X556881Y-136287
X609425Y-131453
X604125Y-111536
X613832Y-99189
X554590Y-75348
X554304Y-45219
X567013Y-44361
X577437Y-43933
X656638Y-12378
X548973Y-9370
X541167Y-9091
X536507Y-8764
X530885Y-8091
X525964Y-7268
X517177Y-5521
X512526Y-5702
X504973Y-5348
X496004Y-5111
X486349Y-8291
X482815Y-14961
X489556Y-22238
X502451Y-22254
X511875Y-24138
X520604Y-28939
X529315Y-29368
X538168
X541738Y-37079
X537883Y-44076
X545737
X553019Y-39506
X528886Y-43362
X522461
X512607Y-44076
X505611Y-43505
X484802Y-65658
X469035Y-91863
X454621Y-81626
X442242Y-76220
X423268Y-70902
X401056Y-73528
X401546Y-57447
X402053Y-22546
X412701Y-22343
X421398Y-22556
X430070Y-22644
X448182Y-21987
X448789Y-13351
X453757Y-4876
X464850Y-4994
X472285Y-4876
X440187Y-5702
X425554Y-5584
X413517Y-5348
X404430Y-4994
X449978Y-31255
X452456Y-122582
X455094Y-149695
X457433Y-154592
X461903Y-158036
X468716Y-153322
X483911Y-153543
X492572Y-153393
X500355Y-145978
X502191Y-122410
X497221Y-117856
X536276Y-115195
X535004Y-157887
X533884Y-64496
X540739Y-65353
X544166Y-71921
X446566Y-150227
X398622Y-150812
X416475Y-122057
X391526Y-93045
X385821Y-89012
X380772Y-85346
X367244Y-58290
X368830Y-45801
X354058Y-37710
X343201Y-26618
X321292Y-28706
X314941Y-32835
X308907Y-37762
X308411Y-62067
X301234Y-62153
X294079Y-62283
X287573Y-58943
X282846Y-53386
X282084Y-64414
X278016Y-72053
X273301Y-67841
X268797Y-65350
X265318Y-68777
X262475Y-71983
X258570Y-75137
X252881Y-76820
X247226Y-77762
X248169Y-59699
X241682Y-59956
X253666Y-54673
X249782Y-49922
X260420Y-30798
X270159Y-30955
X271224Y-26505
X265604Y-21373
X257279Y-23258
X252018Y-20691
X249264Y-5518
X242698Y-7591
X271730Y-9279
X279741Y-23101
X280212Y-29855
X286779Y-27012
X286500Y-22000
X293470Y-22622
X291678Y-29855
X307424Y-10657
X310024Y-5702
X319465Y-5229
X330557Y-4639
X339526Y-5348
X348967Y-4522
X358879Y-5111
X370090Y-4522
X379767Y-5229
X391450Y-4876
X394862Y-22174
X387673Y-22100
X381829Y-22121
X377052Y-22223
X371034Y-23167
X364202Y-22872
X342415Y-50678
X323698Y-49979
X319959Y-55954
X315908Y-59099
X315317Y-79071
X302931Y-73219
X297897Y-92753
X292587Y-89429
X287757Y-85882
X287620Y-109290
X282535Y-109193
X277477Y-108998
X272113Y-108510
X292788Y-108901
X298144Y-108644
X307745Y-110589
X302240Y-151007
X294732Y-149722
X287330Y-149673
X280368Y-149600
X274433
X269158
X264102Y-149526
X259925Y-149966
X252533Y-150973
X327503Y-150238
X351284Y-150812
X368189Y-150225
X347002Y-137052
X355501Y-108034
X344419Y-93240
X339128Y-89514
X334426Y-85453
X329416Y-74060
X269586Y-79074
X235227Y-77326
X234174Y-59678
X232933Y-53620
X239000Y-46500
X237000Y-40000
X239830Y-31311
X240210Y-20098
X231654Y-18822
X230950Y-13638
X226561Y-13698
X235269Y-9319
X228552Y-33571
X224047Y-29869
X218451Y-25328
X211252Y-25681
X210524Y-20554
X206152Y-19034
X201591
X198740Y-23025
X198979Y-28632
X205258Y-26114
X193078Y-32526
X190010Y-36893
X189656Y-43501
X189109Y-49804
X189895Y-56243
X181604Y-52204
X177520Y-47491
X173750Y-42779
X168252Y-38067
X164011Y-33512
X160242Y-29428
X155058Y-24716
X154271Y-18229
X149247Y-19061
X147679Y-5498
X141328Y-5795
X135581Y-5239
X128670Y-4724
X120817
X112178
X105109
X97098
X90816
X97570Y-22046
X111235Y-21417
X117047Y-20946
X116152Y-31607
X125372Y-31470
X125686Y-39952
X126458Y-49376
X126734Y-57173
X133896Y-57283
X139867Y-57024
X148307Y-57070
X155372Y-53460
X159771Y-59115
X164954Y-64455
X171708Y-69796
X177585Y-71604
X181639Y-75942
X187691Y-76370
X188245Y-102464
X184303Y-106233
X194526Y-96877
X206972Y-108329
X216911Y-108705
X218565Y-102473
X227435Y-102109
X225550Y-107361
X224841Y-112672
X223686Y-151405
X233623Y-151502
X214739Y-150225
X206026Y-150545
X178990Y-137366
X171977Y-132523
X186854Y-129214
X139767Y-132667
X141930Y-140469
X140019Y-149296
X146996Y-149259
X132119Y-149491
X125299Y-149837
X127187Y-143937
X132380Y-138626
X127933Y-113914
X128210Y-107001
Y-100039
X133473Y-100286
X141438Y-100658
X118415Y-114318
X109210Y-114082
X103313Y-113303
X97645Y-114672
X87596Y-105297
X87871Y-98990
X87910Y-92381
X87085Y-86133
X85509Y-79499
X91915Y-61785
X95999Y-58487
X103696Y-58801
X111863Y-58644
X117011Y-57153
X116773Y-51575
X110764
X97255Y-50319
X106523Y-38538
X139665Y-37439
X145163Y-41994
X150503Y-48277
X134639Y-31941
X130419Y-26567
X95797Y-135676
X92256Y-140161
X88007Y-145471
X83868Y-149219
X77589Y-154693
X46918Y-152113
X46984Y-146617
X46889Y-141202
X47035Y-135224
X47021Y-128841
X46845Y-123346
X46991Y-117931
X53132Y-119626
X60766Y-120584
X67434Y-119393
X78645Y-120572
X75360Y-105653
X70620Y-97678
X70029Y-87411
X59778Y-92259
X53213
X47511Y-92604
X39909
X20252Y-91790
X20620Y-86059
X18892Y-80718
X21633Y-74977
X22504Y-69094
X29296Y-69357
X30060Y-62368
X36453Y-56493
X40082Y-52692
X48281Y-52504
X44896Y-46328
X35046Y-46231
X30364Y-42232
X30462Y-33650
X31535Y-24677
X36021Y-20776
X43493Y-18089
X48272Y-12042
X55684Y-12237
X64462
X72852Y-13566
X72809Y-6528
X77307Y-5239
X82962Y-4724
X79192Y-32727
X73537Y-32884
X70444Y-38048
X64632Y-37734
X64475Y-32079
X76413Y-38362
X82539Y-39304
X65936Y-52613
X58883Y-52661
X79732Y-78417
X60889Y-137653
X30676Y-135626
X30529Y-141605
X30625Y-147020
X30559Y-152516
X17119Y-147753
X30662Y-129244
X30486Y-123749
X30632Y-118334
X30706Y-113594
X23253Y-110643
X21405Y-104594
X20148Y-98154
X27756Y-14455
T02
X86250Y-238457
Y-212866
X640346Y-293307
X665936
T03
X614000Y-161000
X684000
Y-151000
X660950Y-131111
Y-75993
X582209
X577378Y-53800
Y-18800
X582209Y-131111
X614000Y-151000
X537089Y-128325
X527247Y-138167
X517404Y-128325
X523573Y-53774
Y-18774
X505772Y-28161
X493961Y-41940
Y-14381
X438843
Y-22255
Y-34066
Y-41940
T04
X487571Y-140296
Y-130296
X423196Y-39358
Y-29358
X413196
Y-39358
X403196
Y-29358
X393196
Y-39358
T05
X723025Y-60011
Y-45011
T06
X28500Y-276500
X48500
Y-256500
X28500
X38500Y-266500
X486000Y-265500
Y-285500
X506000
Y-265500
X496000Y-275500
X352857Y-47634
X342857Y-37634
X332857Y-47634
Y-27634
X352857
T07
X11811Y-287402
X598425Y-260630
X712000
X724409Y-287402
Y-15748
X421260Y-90551
X11811Y-15748
M30
