G04*
G04 #@! TF.GenerationSoftware,Altium Limited,Altium Designer,21.5.1 (32)*
G04*
G04 Layer_Color=8388736*
%FSLAX25Y25*%
%MOIN*%
G70*
G04*
G04 #@! TF.SameCoordinates,D9A27908-B339-4E15-AEEB-BE0A6D91D8F4*
G04*
G04*
G04 #@! TF.FilePolarity,Positive*
G04*
G01*
G75*
%ADD11C,0.01000*%
%ADD14C,0.00394*%
%ADD142C,0.00309*%
%ADD143C,0.01968*%
D11*
X47205Y-424882D02*
X84642D01*
D14*
X117480Y-305315D02*
Y-297444D01*
X112756Y-305315D02*
Y-297444D01*
Y-305315D02*
X117480D01*
X112756Y-297444D02*
X117480D01*
X87559Y-305315D02*
Y-297444D01*
X82835Y-305315D02*
Y-297444D01*
Y-305315D02*
X87559D01*
X82835Y-297444D02*
X87559D01*
X47244Y-364767D02*
X51968D01*
X47244Y-372638D02*
X51968D01*
X47244D02*
Y-364767D01*
X51968Y-372638D02*
Y-364767D01*
X61024Y-372638D02*
Y-364767D01*
X56299Y-372638D02*
Y-364767D01*
Y-372638D02*
X61024D01*
X56299Y-364767D02*
X61024D01*
X122009Y-296062D02*
X133820D01*
Y-307873D02*
Y-296062D01*
X122009Y-307873D02*
X133820D01*
X122009D02*
Y-296062D01*
X91891Y-307873D02*
Y-296062D01*
Y-307873D02*
X103702D01*
Y-296062D01*
X91891D02*
X103702D01*
D142*
X52551Y-426980D02*
Y-425340D01*
Y-426980D02*
X53254D01*
X53488Y-426902D01*
X53566Y-426824D01*
X53644Y-426668D01*
Y-426511D01*
X53566Y-426355D01*
X53488Y-426277D01*
X53254Y-426199D01*
X52551D02*
X53254D01*
X53488Y-426121D01*
X53566Y-426043D01*
X53644Y-425887D01*
Y-425652D01*
X53566Y-425496D01*
X53488Y-425418D01*
X53254Y-425340D01*
X52551D01*
X54480Y-426980D02*
X54324Y-426902D01*
X54167Y-426746D01*
X54089Y-426589D01*
X54011Y-426355D01*
Y-425965D01*
X54089Y-425730D01*
X54167Y-425574D01*
X54324Y-425418D01*
X54480Y-425340D01*
X54792D01*
X54948Y-425418D01*
X55105Y-425574D01*
X55183Y-425730D01*
X55261Y-425965D01*
Y-426355D01*
X55183Y-426589D01*
X55105Y-426746D01*
X54948Y-426902D01*
X54792Y-426980D01*
X54480D01*
X56893Y-425340D02*
X56268Y-426980D01*
X55643Y-425340D01*
X55878Y-425887D02*
X56659D01*
X57276Y-426980D02*
Y-425340D01*
Y-426980D02*
X57979D01*
X58213Y-426902D01*
X58291Y-426824D01*
X58369Y-426668D01*
Y-426511D01*
X58291Y-426355D01*
X58213Y-426277D01*
X57979Y-426199D01*
X57276D01*
X57823D02*
X58369Y-425340D01*
X58736Y-426980D02*
Y-425340D01*
Y-426980D02*
X59283D01*
X59517Y-426902D01*
X59674Y-426746D01*
X59752Y-426589D01*
X59830Y-426355D01*
Y-425965D01*
X59752Y-425730D01*
X59674Y-425574D01*
X59517Y-425418D01*
X59283Y-425340D01*
X58736D01*
X62501Y-426980D02*
X61486D01*
Y-425340D01*
X62501D01*
X61486Y-426199D02*
X62110D01*
X62774Y-426980D02*
Y-425340D01*
Y-426980D02*
X63321D01*
X63555Y-426902D01*
X63712Y-426746D01*
X63790Y-426589D01*
X63868Y-426355D01*
Y-425965D01*
X63790Y-425730D01*
X63712Y-425574D01*
X63555Y-425418D01*
X63321Y-425340D01*
X62774D01*
X65406Y-426589D02*
X65328Y-426746D01*
X65172Y-426902D01*
X65016Y-426980D01*
X64703D01*
X64547Y-426902D01*
X64391Y-426746D01*
X64313Y-426589D01*
X64235Y-426355D01*
Y-425965D01*
X64313Y-425730D01*
X64391Y-425574D01*
X64547Y-425418D01*
X64703Y-425340D01*
X65016D01*
X65172Y-425418D01*
X65328Y-425574D01*
X65406Y-425730D01*
Y-425965D01*
X65016D02*
X65406D01*
X66796Y-426980D02*
X65781D01*
Y-425340D01*
X66796D01*
X65781Y-426199D02*
X66406D01*
D143*
X123583Y-297638D02*
D03*
X93465D02*
D03*
M02*
