G04*
G04 #@! TF.GenerationSoftware,Altium Limited,Altium Designer,21.5.1 (32)*
G04*
G04 Layer_Color=16711935*
%FSLAX25Y25*%
%MOIN*%
G70*
G04*
G04 #@! TF.SameCoordinates,D9A27908-B339-4E15-AEEB-BE0A6D91D8F4*
G04*
G04*
G04 #@! TF.FilePolarity,Positive*
G04*
G01*
G75*
%ADD11C,0.01000*%
%ADD14C,0.00394*%
%ADD142C,0.00309*%
D11*
X813858Y-229863D02*
X861732D01*
D14*
X162358Y-31741D02*
X163933D01*
X163146Y-32528D02*
Y-30953D01*
D142*
X838976Y-233557D02*
Y-235197D01*
Y-233557D02*
X839679D01*
X839914Y-233635D01*
X839992Y-233713D01*
X840070Y-233869D01*
Y-234025D01*
X839992Y-234181D01*
X839914Y-234260D01*
X839679Y-234338D01*
X838976D02*
X839679D01*
X839914Y-234416D01*
X839992Y-234494D01*
X840070Y-234650D01*
Y-234884D01*
X839992Y-235041D01*
X839914Y-235119D01*
X839679Y-235197D01*
X838976D01*
X840906Y-233557D02*
X840749Y-233635D01*
X840593Y-233791D01*
X840515Y-233947D01*
X840437Y-234181D01*
Y-234572D01*
X840515Y-234806D01*
X840593Y-234963D01*
X840749Y-235119D01*
X840906Y-235197D01*
X841218D01*
X841374Y-235119D01*
X841530Y-234963D01*
X841609Y-234806D01*
X841687Y-234572D01*
Y-234181D01*
X841609Y-233947D01*
X841530Y-233791D01*
X841374Y-233635D01*
X841218Y-233557D01*
X840906D01*
X843319Y-235197D02*
X842694Y-233557D01*
X842069Y-235197D01*
X842304Y-234650D02*
X843085D01*
X843702Y-233557D02*
Y-235197D01*
Y-233557D02*
X844405D01*
X844639Y-233635D01*
X844717Y-233713D01*
X844795Y-233869D01*
Y-234025D01*
X844717Y-234181D01*
X844639Y-234260D01*
X844405Y-234338D01*
X843702D01*
X844248D02*
X844795Y-235197D01*
X845162Y-233557D02*
Y-235197D01*
Y-233557D02*
X845709D01*
X845943Y-233635D01*
X846099Y-233791D01*
X846177Y-233947D01*
X846256Y-234181D01*
Y-234572D01*
X846177Y-234806D01*
X846099Y-234963D01*
X845943Y-235119D01*
X845709Y-235197D01*
X845162D01*
X848927Y-233557D02*
X847911D01*
Y-235197D01*
X848927D01*
X847911Y-234338D02*
X848536D01*
X849200Y-233557D02*
Y-235197D01*
Y-233557D02*
X849747D01*
X849981Y-233635D01*
X850137Y-233791D01*
X850215Y-233947D01*
X850294Y-234181D01*
Y-234572D01*
X850215Y-234806D01*
X850137Y-234963D01*
X849981Y-235119D01*
X849747Y-235197D01*
X849200D01*
X851832Y-233947D02*
X851754Y-233791D01*
X851598Y-233635D01*
X851442Y-233557D01*
X851129D01*
X850973Y-233635D01*
X850817Y-233791D01*
X850739Y-233947D01*
X850661Y-234181D01*
Y-234572D01*
X850739Y-234806D01*
X850817Y-234963D01*
X850973Y-235119D01*
X851129Y-235197D01*
X851442D01*
X851598Y-235119D01*
X851754Y-234963D01*
X851832Y-234806D01*
Y-234572D01*
X851442D02*
X851832D01*
X853222Y-233557D02*
X852207D01*
Y-235197D01*
X853222D01*
X852207Y-234338D02*
X852832D01*
M02*
