G04*
G04 #@! TF.GenerationSoftware,Altium Limited,Altium Designer,21.5.1 (32)*
G04*
G04 Layer_Color=16711935*
%FSLAX25Y25*%
%MOIN*%
G70*
G04*
G04 #@! TF.SameCoordinates,D9A27908-B339-4E15-AEEB-BE0A6D91D8F4*
G04*
G04*
G04 #@! TF.FilePolarity,Negative*
G04*
G01*
G75*
%ADD17C,0.07874*%
%ADD18R,0.06496X0.05709*%
%ADD22R,0.05709X0.06496*%
%ADD30R,0.08465X0.09252*%
%ADD44R,0.09055X0.09252*%
%ADD46R,0.07284X0.07284*%
%ADD47C,0.07284*%
%ADD48C,0.13780*%
%ADD49C,0.07991*%
%ADD50C,0.06496*%
%ADD51C,0.08465*%
%ADD52R,0.09252X0.09252*%
%ADD53C,0.09252*%
%ADD54C,0.06394*%
%ADD55C,0.08394*%
%ADD56P,0.13084X4X180.0*%
%ADD57R,0.11221X0.11221*%
%ADD58C,0.11221*%
%ADD59R,0.10433X0.14370*%
%ADD60C,0.06555*%
%ADD61R,0.07284X0.07284*%
%ADD62R,0.10433X0.12402*%
%ADD63C,0.20276*%
G04:AMPARAMS|DCode=64|XSize=124.02mil|YSize=64.96mil|CornerRadius=17.72mil|HoleSize=0mil|Usage=FLASHONLY|Rotation=0.000|XOffset=0mil|YOffset=0mil|HoleType=Round|Shape=RoundedRectangle|*
%AMROUNDEDRECTD64*
21,1,0.12402,0.02953,0,0,0.0*
21,1,0.08858,0.06496,0,0,0.0*
1,1,0.03543,0.04429,-0.01476*
1,1,0.03543,-0.04429,-0.01476*
1,1,0.03543,-0.04429,0.01476*
1,1,0.03543,0.04429,0.01476*
%
%ADD64ROUNDEDRECTD64*%
G04:AMPARAMS|DCode=65|XSize=124.02mil|YSize=64.96mil|CornerRadius=17.72mil|HoleSize=0mil|Usage=FLASHONLY|Rotation=90.000|XOffset=0mil|YOffset=0mil|HoleType=Round|Shape=RoundedRectangle|*
%AMROUNDEDRECTD65*
21,1,0.12402,0.02953,0,0,90.0*
21,1,0.08858,0.06496,0,0,90.0*
1,1,0.03543,0.01476,0.04429*
1,1,0.03543,0.01476,-0.04429*
1,1,0.03543,-0.01476,-0.04429*
1,1,0.03543,-0.01476,0.04429*
%
%ADD65ROUNDEDRECTD65*%
%ADD66C,0.12402*%
%ADD68C,0.04528*%
%ADD97C,0.01181*%
%ADD135C,0.01575*%
%ADD137R,0.12402X0.09252*%
%ADD138R,0.05709X0.01772*%
%ADD139R,0.05512X0.04528*%
%ADD140R,0.02953X0.04528*%
%ADD141R,0.02953X0.08465*%
D17*
X30866Y-401968D02*
X30801Y-400962D01*
X30609Y-399971D01*
X30291Y-399014D01*
X29853Y-398105D01*
X29302Y-397259D01*
X28648Y-396491D01*
X27902Y-395812D01*
X27074Y-395235D01*
X26179Y-394768D01*
X25232Y-394420D01*
X24249Y-394195D01*
X23245Y-394098D01*
X22236Y-394131D01*
X21240Y-394292D01*
X20273Y-394579D01*
X19350Y-394987D01*
X18487Y-395510D01*
X17698Y-396140D01*
X16996Y-396864D01*
X16393Y-397673D01*
X15898Y-398552D01*
X15519Y-399487D01*
X15263Y-400463D01*
X15134Y-401464D01*
Y-402473D01*
X15263Y-403474D01*
X15519Y-404450D01*
X15898Y-405385D01*
X16393Y-406264D01*
X16996Y-407073D01*
X17698Y-407797D01*
X18487Y-408427D01*
X19350Y-408950D01*
X20273Y-409358D01*
X21240Y-409645D01*
X22236Y-409806D01*
X23245Y-409838D01*
X24249Y-409742D01*
X25232Y-409517D01*
X26179Y-409169D01*
X27074Y-408702D01*
X27902Y-408125D01*
X28648Y-407446D01*
X29302Y-406678D01*
X29853Y-405832D01*
X30291Y-404923D01*
X30609Y-403966D01*
X30801Y-402975D01*
X30866Y-401968D01*
X28858Y-31496D02*
X28794Y-30489D01*
X28601Y-29499D01*
X28283Y-28541D01*
X27845Y-27632D01*
X27295Y-26787D01*
X26641Y-26018D01*
X25894Y-25340D01*
X25066Y-24763D01*
X24171Y-24296D01*
X23225Y-23947D01*
X22241Y-23723D01*
X21237Y-23626D01*
X20228Y-23658D01*
X19232Y-23820D01*
X18265Y-24106D01*
X17342Y-24515D01*
X16479Y-25038D01*
X15690Y-25667D01*
X14989Y-26392D01*
X14385Y-27200D01*
X13890Y-28080D01*
X13511Y-29015D01*
X13255Y-29991D01*
X13126Y-30992D01*
Y-32000D01*
X13255Y-33001D01*
X13511Y-33977D01*
X13890Y-34912D01*
X14385Y-35792D01*
X14989Y-36600D01*
X15690Y-37325D01*
X16479Y-37954D01*
X17342Y-38477D01*
X18265Y-38886D01*
X19232Y-39173D01*
X20228Y-39334D01*
X21237Y-39366D01*
X22241Y-39269D01*
X23225Y-39045D01*
X24171Y-38696D01*
X25066Y-38230D01*
X25894Y-37652D01*
X26640Y-36974D01*
X27295Y-36206D01*
X27845Y-35360D01*
X28283Y-34451D01*
X28601Y-33493D01*
X28794Y-32503D01*
X28858Y-31496D01*
D18*
X717323Y-162403D02*
D03*
Y-154922D02*
D03*
X800000Y-148230D02*
D03*
Y-140749D02*
D03*
X580469Y-403189D02*
D03*
Y-410669D02*
D03*
X839764Y-199016D02*
D03*
Y-191535D02*
D03*
X347398Y-410669D02*
D03*
Y-403189D02*
D03*
X570232D02*
D03*
Y-410669D02*
D03*
X150547Y-403189D02*
D03*
Y-410669D02*
D03*
X360390Y-403189D02*
D03*
Y-410669D02*
D03*
X559247Y-403195D02*
D03*
Y-395715D02*
D03*
X769291Y-208071D02*
D03*
Y-215551D02*
D03*
X139130Y-410669D02*
D03*
Y-403189D02*
D03*
X372988Y-410669D02*
D03*
Y-403189D02*
D03*
X743307Y-211615D02*
D03*
Y-219096D02*
D03*
X857087Y-243503D02*
D03*
Y-250983D02*
D03*
D22*
X736177Y-162449D02*
D03*
X728697D02*
D03*
X832480Y-154331D02*
D03*
X839961D02*
D03*
X773972Y-18355D02*
D03*
X766492D02*
D03*
X738933D02*
D03*
X746413D02*
D03*
X225941Y-406142D02*
D03*
X218461D02*
D03*
X802165Y-208661D02*
D03*
X794685D02*
D03*
X777362Y-215354D02*
D03*
X784842D02*
D03*
X365311Y-386221D02*
D03*
X372791D02*
D03*
X559646D02*
D03*
X567126D02*
D03*
X156650D02*
D03*
X164130D02*
D03*
X776334Y-6544D02*
D03*
X783814D02*
D03*
X76576Y-89764D02*
D03*
X69096D02*
D03*
X736966Y-6937D02*
D03*
X729485D02*
D03*
D30*
X70472Y-77165D02*
D03*
X82284D02*
D03*
D44*
X76772Y-59842D02*
D03*
Y-42520D02*
D03*
D46*
X14500Y-137000D02*
D03*
X56142Y-418898D02*
D03*
X852795Y-223878D02*
D03*
D47*
X24500Y-137000D02*
D03*
X14500Y-147000D02*
D03*
X24500D02*
D03*
X14500Y-157000D02*
D03*
X24500D02*
D03*
X14500Y-167000D02*
D03*
X24500D02*
D03*
X14500Y-177000D02*
D03*
X24500D02*
D03*
X14500Y-187000D02*
D03*
X24500D02*
D03*
X14500Y-197000D02*
D03*
X24500D02*
D03*
X14500Y-207000D02*
D03*
X24500D02*
D03*
X14500Y-217000D02*
D03*
X24500D02*
D03*
X14500Y-227000D02*
D03*
X24500D02*
D03*
X14500Y-237000D02*
D03*
X24500D02*
D03*
X14500Y-247000D02*
D03*
X24500D02*
D03*
X14500Y-257000D02*
D03*
X24500D02*
D03*
X14500Y-267000D02*
D03*
X24500D02*
D03*
X14500Y-277000D02*
D03*
X24500D02*
D03*
X14500Y-287000D02*
D03*
X24500D02*
D03*
X14500Y-297000D02*
D03*
X24500D02*
D03*
X76142Y-418898D02*
D03*
X66142Y-418898D02*
D03*
X596577Y-15276D02*
D03*
X586577D02*
D03*
X596577Y-25276D02*
D03*
X586577D02*
D03*
X596577Y-35276D02*
D03*
X586577D02*
D03*
X596577Y-45276D02*
D03*
X822795Y-223878D02*
D03*
X832795D02*
D03*
X842795D02*
D03*
D48*
X24563Y-361898D02*
D03*
Y-321898D02*
D03*
D49*
X49563Y-354398D02*
D03*
X59563Y-349398D02*
D03*
X49563Y-344398D02*
D03*
X59563Y-339398D02*
D03*
X49563Y-334398D02*
D03*
X59563Y-329398D02*
D03*
D50*
X287441Y-46654D02*
D03*
Y-26969D02*
D03*
X307126Y-46654D02*
D03*
Y-26969D02*
D03*
D51*
X297284Y-56496D02*
D03*
Y-36811D02*
D03*
X766453Y-64428D02*
D03*
X746453D02*
D03*
X766453Y-6928D02*
D03*
X756453D02*
D03*
X746453D02*
D03*
D52*
X852559Y-199016D02*
D03*
X810827D02*
D03*
X769095D02*
D03*
D53*
X852559Y-181299D02*
D03*
X826968D02*
D03*
X826968Y-199016D02*
D03*
X785236D02*
D03*
X785236Y-181299D02*
D03*
X810827D02*
D03*
X743504Y-199016D02*
D03*
X743504Y-181299D02*
D03*
X769095D02*
D03*
X824452Y-34224D02*
D03*
X836980Y-21696D02*
D03*
X855075Y-39792D02*
D03*
X756240Y-165217D02*
D03*
X746398D02*
D03*
X766083D02*
D03*
X849547D02*
D03*
X829862D02*
D03*
X839705D02*
D03*
D54*
X316635Y-406142D02*
D03*
X334351D02*
D03*
X246936D02*
D03*
X264653D02*
D03*
X595429D02*
D03*
X613146D02*
D03*
X456032D02*
D03*
X473748D02*
D03*
X177238D02*
D03*
X194954D02*
D03*
X525731D02*
D03*
X543447D02*
D03*
X386333D02*
D03*
X404050D02*
D03*
X107240D02*
D03*
X124957D02*
D03*
D55*
X311714Y-396299D02*
D03*
X339273D02*
D03*
X242015D02*
D03*
X269574D02*
D03*
X590508D02*
D03*
X618067D02*
D03*
X451111D02*
D03*
X478670D02*
D03*
X172317D02*
D03*
X199876D02*
D03*
X520809D02*
D03*
X548368D02*
D03*
X381412D02*
D03*
X408971D02*
D03*
X102319D02*
D03*
X129878D02*
D03*
D56*
X842548Y-52319D02*
D03*
D57*
X398799Y-25591D02*
D03*
X542500D02*
D03*
X323976D02*
D03*
D58*
X413799D02*
D03*
X557500D02*
D03*
X338976D02*
D03*
D59*
X739262Y-137657D02*
D03*
X773216D02*
D03*
X856681D02*
D03*
X822726D02*
D03*
D60*
X339075Y-79528D02*
D03*
X319193D02*
D03*
D61*
X586577Y-45276D02*
D03*
D62*
X780075Y-36928D02*
D03*
X732043D02*
D03*
D63*
X11811Y-381890D02*
D03*
Y-110236D02*
D03*
X854331Y-423228D02*
D03*
X724409Y-381890D02*
D03*
X743071Y-354429D02*
D03*
X824961Y-307185D02*
D03*
X742972Y-260039D02*
D03*
X724409Y-110236D02*
D03*
X854331Y-11811D02*
D03*
X706563Y-31640D02*
D03*
X706461Y-401879D02*
D03*
X23010Y-402027D02*
D03*
X20899Y-31634D02*
D03*
X11811Y-423228D02*
D03*
Y-11811D02*
D03*
D64*
X118110Y-94882D02*
D03*
X118307Y-6299D02*
D03*
X223622Y-94882D02*
D03*
X223819Y-6299D02*
D03*
D65*
X103937Y-80118D02*
D03*
Y-22638D02*
D03*
X237795Y-80118D02*
D03*
Y-22638D02*
D03*
D66*
X199409Y-69685D02*
D03*
D68*
X368898Y-43701D02*
D03*
X494095D02*
D03*
X368898Y-23228D02*
D03*
X494095D02*
D03*
D97*
X839705Y-154587D02*
X839961Y-154331D01*
D135*
X839705Y-165217D02*
Y-154587D01*
D137*
X225394Y-180945D02*
D03*
X225157Y-282520D02*
D03*
D138*
X218504Y-188425D02*
D03*
Y-190394D02*
D03*
Y-192362D02*
D03*
Y-194331D02*
D03*
Y-196299D02*
D03*
Y-198268D02*
D03*
Y-200236D02*
D03*
Y-202205D02*
D03*
Y-204173D02*
D03*
Y-206142D02*
D03*
Y-208110D02*
D03*
Y-210079D02*
D03*
Y-212047D02*
D03*
Y-214016D02*
D03*
Y-215984D02*
D03*
Y-217953D02*
D03*
Y-219921D02*
D03*
Y-221890D02*
D03*
Y-223858D02*
D03*
Y-225827D02*
D03*
Y-227795D02*
D03*
Y-229764D02*
D03*
Y-231732D02*
D03*
Y-233701D02*
D03*
Y-235669D02*
D03*
Y-237638D02*
D03*
Y-239606D02*
D03*
Y-241575D02*
D03*
Y-243543D02*
D03*
Y-245512D02*
D03*
Y-247480D02*
D03*
Y-249449D02*
D03*
Y-251417D02*
D03*
Y-253386D02*
D03*
Y-255354D02*
D03*
Y-257323D02*
D03*
Y-259291D02*
D03*
Y-261260D02*
D03*
Y-263228D02*
D03*
Y-265197D02*
D03*
Y-267165D02*
D03*
Y-269134D02*
D03*
Y-271102D02*
D03*
Y-273071D02*
D03*
Y-275039D02*
D03*
D139*
X115118Y-305118D02*
D03*
Y-297244D02*
D03*
X85197Y-305118D02*
D03*
Y-297244D02*
D03*
X49606Y-364567D02*
D03*
Y-372441D02*
D03*
X58661D02*
D03*
Y-364567D02*
D03*
D140*
X124173Y-297244D02*
D03*
X127913D02*
D03*
X131653D02*
D03*
Y-306693D02*
D03*
X124173D02*
D03*
X94055D02*
D03*
X101535D02*
D03*
Y-297244D02*
D03*
X97795D02*
D03*
X94055D02*
D03*
D141*
X175925Y-304331D02*
D03*
X170925D02*
D03*
X165925D02*
D03*
X160925D02*
D03*
X155925D02*
D03*
X150925D02*
D03*
X145925D02*
D03*
X140925D02*
D03*
Y-283071D02*
D03*
X145925D02*
D03*
X150925D02*
D03*
X155925D02*
D03*
X160925D02*
D03*
X165925D02*
D03*
X170925D02*
D03*
X175925D02*
D03*
M02*
