G04*
G04 #@! TF.GenerationSoftware,Altium Limited,Altium Designer,21.5.1 (32)*
G04*
G04 Layer_Color=16711935*
%FSLAX25Y25*%
%MOIN*%
G70*
G04*
G04 #@! TF.SameCoordinates,D9A27908-B339-4E15-AEEB-BE0A6D91D8F4*
G04*
G04*
G04 #@! TF.FilePolarity,Positive*
G04*
G01*
G75*
%ADD11C,0.01000*%
%ADD145C,0.00591*%
D11*
X773805Y-342680D02*
X774795Y-342562D01*
X775782Y-342416D01*
X776765Y-342243D01*
X777742Y-342042D01*
X778714Y-341814D01*
X779678Y-341560D01*
X780635Y-341278D01*
X781584Y-340969D01*
X782524Y-340635D01*
X783454Y-340274D01*
X784374Y-339887D01*
X785282Y-339475D01*
X786179Y-339037D01*
X787063Y-338575D01*
X787934Y-338088D01*
X788791Y-337576D01*
X789633Y-337041D01*
X790460Y-336483D01*
X791271Y-335902D01*
X792065Y-335298D01*
X792842Y-334673D01*
X793602Y-334026D01*
X794343Y-333358D01*
X795065Y-332669D01*
X795767Y-331961D01*
X796450Y-331233D01*
X797112Y-330487D01*
X797753Y-329722D01*
X798372Y-328940D01*
X798969Y-328140D01*
X799543Y-327325D01*
X800095Y-326493D01*
X800623Y-325647D01*
X801127Y-324786D01*
X801607Y-323911D01*
X802062Y-323023D01*
X802492Y-322123D01*
X802897Y-321211D01*
X803276Y-320288D01*
X803629Y-319355D01*
X803957Y-318413D01*
X804257Y-317461D01*
X804531Y-316502D01*
X804778Y-315535D01*
X804998Y-314562D01*
X805190Y-313583D01*
X805355Y-312599D01*
X805493Y-311611D01*
X805603Y-310620D01*
X734511Y-310605D02*
X734621Y-311606D01*
X734760Y-312604D01*
X734927Y-313597D01*
X735121Y-314585D01*
X735344Y-315568D01*
X735594Y-316544D01*
X735871Y-317512D01*
X736176Y-318472D01*
X736508Y-319423D01*
X736866Y-320364D01*
X737251Y-321295D01*
X737661Y-322215D01*
X738098Y-323123D01*
X738560Y-324018D01*
X739047Y-324899D01*
X739558Y-325767D01*
X740094Y-326620D01*
X740654Y-327457D01*
X741237Y-328279D01*
X741843Y-329083D01*
X742471Y-329870D01*
X743122Y-330639D01*
X743794Y-331390D01*
X744486Y-332121D01*
X745199Y-332833D01*
X745932Y-333524D01*
X746684Y-334194D01*
X747455Y-334842D01*
X748243Y-335469D01*
X749049Y-336073D01*
X749872Y-336655D01*
X750710Y-337212D01*
X751564Y-337747D01*
X752433Y-338256D01*
X753316Y-338741D01*
X754212Y-339201D01*
X755121Y-339636D01*
X756041Y-340044D01*
X756973Y-340427D01*
X757915Y-340783D01*
X758867Y-341113D01*
X759828Y-341415D01*
X760796Y-341690D01*
X761773Y-341938D01*
X762756Y-342159D01*
X763744Y-342351D01*
X764738Y-342516D01*
X765736Y-342652D01*
X766737Y-342761D01*
X766642Y-271643D02*
X765647Y-271754D01*
X764654Y-271892D01*
X763666Y-272058D01*
X762683Y-272252D01*
X761706Y-272473D01*
X760735Y-272722D01*
X759772Y-272997D01*
X758816Y-273300D01*
X757870Y-273629D01*
X756933Y-273985D01*
X756007Y-274367D01*
X755092Y-274775D01*
X754188Y-275208D01*
X753298Y-275666D01*
X752420Y-276150D01*
X751556Y-276657D01*
X750707Y-277189D01*
X749873Y-277744D01*
X749054Y-278323D01*
X748253Y-278924D01*
X747469Y-279548D01*
X746702Y-280193D01*
X745954Y-280859D01*
X745225Y-281547D01*
X744515Y-282254D01*
X743826Y-282981D01*
X743157Y-283727D01*
X742510Y-284492D01*
X741884Y-285274D01*
X741280Y-286074D01*
X740699Y-286891D01*
X740141Y-287723D01*
X739607Y-288570D01*
X739096Y-289433D01*
X738611Y-290309D01*
X738149Y-291199D01*
X737714Y-292101D01*
X737303Y-293015D01*
X736918Y-293940D01*
X736560Y-294876D01*
X736228Y-295821D01*
X735922Y-296775D01*
X735643Y-297738D01*
X735392Y-298708D01*
X735168Y-299684D01*
X734971Y-300667D01*
X734802Y-301654D01*
X734661Y-302646D01*
X734547Y-303642D01*
X805571Y-303597D02*
X805457Y-302606D01*
X805315Y-301619D01*
X805145Y-300635D01*
X804948Y-299657D01*
X804724Y-298685D01*
X804473Y-297720D01*
X804195Y-296762D01*
X803890Y-295812D01*
X803559Y-294871D01*
X803201Y-293939D01*
X802818Y-293018D01*
X802409Y-292108D01*
X801975Y-291210D01*
X801516Y-290324D01*
X801032Y-289452D01*
X800524Y-288593D01*
X799992Y-287749D01*
X799437Y-286920D01*
X798859Y-286107D01*
X798258Y-285311D01*
X797635Y-284531D01*
X796991Y-283770D01*
X796326Y-283026D01*
X795640Y-282302D01*
X794934Y-281597D01*
X794209Y-280912D01*
X793465Y-280247D01*
X792702Y-279604D01*
X791922Y-278982D01*
X791125Y-278382D01*
X790311Y-277805D01*
X789482Y-277251D01*
X788637Y-276720D01*
X787778Y-276213D01*
X786905Y-275730D01*
X786019Y-275272D01*
X785120Y-274838D01*
X784210Y-274430D01*
X783289Y-274048D01*
X782357Y-273692D01*
X781415Y-273361D01*
X780465Y-273058D01*
X779507Y-272781D01*
X778541Y-272530D01*
X777569Y-272307D01*
X776590Y-272112D01*
X775607Y-271943D01*
X774619Y-271802D01*
X773628Y-271689D01*
X730706Y-310523D02*
X730804Y-311525D01*
X730927Y-312524D01*
X731076Y-313520D01*
X731250Y-314511D01*
X731449Y-315497D01*
X731673Y-316479D01*
X731922Y-317454D01*
X732196Y-318422D01*
X732495Y-319384D01*
X732818Y-320337D01*
X733165Y-321282D01*
X733536Y-322217D01*
X733930Y-323143D01*
X734349Y-324059D01*
X734790Y-324963D01*
X735254Y-325856D01*
X735741Y-326737D01*
X736250Y-327605D01*
X736781Y-328460D01*
X737334Y-329302D01*
X737908Y-330128D01*
X738503Y-330940D01*
X739118Y-331737D01*
X739753Y-332517D01*
X740408Y-333282D01*
X741083Y-334029D01*
X741776Y-334759D01*
X742487Y-335471D01*
X743217Y-336164D01*
X743963Y-336839D01*
X744727Y-337494D01*
X745507Y-338130D01*
X746304Y-338746D01*
X747115Y-339341D01*
X747942Y-339916D01*
X748782Y-340469D01*
X749637Y-341001D01*
X750505Y-341510D01*
X751386Y-341998D01*
X752278Y-342463D01*
X753183Y-342904D01*
X754098Y-343323D01*
X755023Y-343719D01*
X755959Y-344090D01*
X756903Y-344438D01*
X757857Y-344761D01*
X758818Y-345060D01*
X759786Y-345335D01*
X760761Y-345585D01*
X761742Y-345810D01*
X762728Y-346009D01*
X763720Y-346184D01*
X764715Y-346333D01*
X765714Y-346457D01*
X766715Y-346556D01*
X773804Y-346509D02*
X774796Y-346402D01*
X775784Y-346271D01*
X776770Y-346114D01*
X777750Y-345933D01*
X778726Y-345727D01*
X779697Y-345496D01*
X780661Y-345241D01*
X781618Y-344962D01*
X782569Y-344658D01*
X783511Y-344331D01*
X784444Y-343980D01*
X785369Y-343606D01*
X786283Y-343208D01*
X787188Y-342787D01*
X788081Y-342344D01*
X788963Y-341878D01*
X789833Y-341390D01*
X790691Y-340881D01*
X791535Y-340350D01*
X792365Y-339797D01*
X793182Y-339224D01*
X793983Y-338631D01*
X794769Y-338017D01*
X795540Y-337384D01*
X796294Y-336731D01*
X797032Y-336060D01*
X797753Y-335370D01*
X798455Y-334662D01*
X799140Y-333937D01*
X799806Y-333195D01*
X800454Y-332436D01*
X801081Y-331661D01*
X801690Y-330870D01*
X802277Y-330065D01*
X802845Y-329244D01*
X803391Y-328410D01*
X803917Y-327562D01*
X804420Y-326701D01*
X804902Y-325828D01*
X805362Y-324943D01*
X805799Y-324046D01*
X806213Y-323139D01*
X806605Y-322222D01*
X806973Y-321295D01*
X807317Y-320358D01*
X807638Y-319414D01*
X807935Y-318462D01*
X808207Y-317502D01*
X808456Y-316536D01*
X808680Y-315564D01*
X808879Y-314587D01*
X809053Y-313605D01*
X809203Y-312619D01*
X809328Y-311630D01*
X809428Y-310637D01*
X766678Y-267831D02*
X765681Y-267930D01*
X764687Y-268054D01*
X763696Y-268203D01*
X762710Y-268377D01*
X761728Y-268577D01*
X760752Y-268801D01*
X759782Y-269050D01*
X758818Y-269323D01*
X757861Y-269621D01*
X756913Y-269943D01*
X755972Y-270289D01*
X755041Y-270658D01*
X754120Y-271051D01*
X753209Y-271468D01*
X752309Y-271907D01*
X751420Y-272369D01*
X750543Y-272853D01*
X749679Y-273360D01*
X748827Y-273888D01*
X747990Y-274437D01*
X747167Y-275008D01*
X746358Y-275599D01*
X745565Y-276211D01*
X744787Y-276843D01*
X744026Y-277494D01*
X743281Y-278164D01*
X742554Y-278853D01*
X741844Y-279560D01*
X741153Y-280285D01*
X740480Y-281027D01*
X739826Y-281786D01*
X739192Y-282561D01*
X738578Y-283352D01*
X737983Y-284159D01*
X737410Y-284980D01*
X736857Y-285816D01*
X736326Y-286665D01*
X735816Y-287527D01*
X735329Y-288402D01*
X734864Y-289290D01*
X734421Y-290188D01*
X734002Y-291098D01*
X733606Y-292018D01*
X733233Y-292948D01*
X732884Y-293887D01*
X732558Y-294834D01*
X732257Y-295790D01*
X731980Y-296752D01*
X731728Y-297722D01*
X731500Y-298697D01*
X731298Y-299678D01*
X731120Y-300664D01*
X730967Y-301654D01*
X730839Y-302648D01*
X730737Y-303644D01*
X809433Y-303634D02*
X809331Y-302641D01*
X809203Y-301650D01*
X809051Y-300663D01*
X808873Y-299680D01*
X808671Y-298702D01*
X808445Y-297729D01*
X808193Y-296762D01*
X807918Y-295802D01*
X807618Y-294849D01*
X807294Y-293904D01*
X806946Y-292968D01*
X806575Y-292040D01*
X806181Y-291123D01*
X805763Y-290215D01*
X805323Y-289319D01*
X804860Y-288434D01*
X804375Y-287560D01*
X803868Y-286700D01*
X803339Y-285852D01*
X802790Y-285018D01*
X802219Y-284198D01*
X801628Y-283394D01*
X801016Y-282604D01*
X800385Y-281830D01*
X799734Y-281071D01*
X799065Y-280330D01*
X798377Y-279606D01*
X797671Y-278900D01*
X796947Y-278211D01*
X796206Y-277541D01*
X795448Y-276890D01*
X794674Y-276259D01*
X793885Y-275647D01*
X793080Y-275055D01*
X792261Y-274484D01*
X791427Y-273934D01*
X790580Y-273405D01*
X789719Y-272898D01*
X788846Y-272412D01*
X787961Y-271949D01*
X787065Y-271508D01*
X786158Y-271090D01*
X785240Y-270695D01*
X784313Y-270324D01*
X783377Y-269976D01*
X782432Y-269652D01*
X781479Y-269351D01*
X780519Y-269075D01*
X779553Y-268823D01*
X778580Y-268596D01*
X777602Y-268394D01*
X776619Y-268216D01*
X775632Y-268063D01*
X774641Y-267935D01*
X773647Y-267832D01*
X773721Y-346457D02*
Y-342815D01*
X730807Y-303642D02*
X734547D01*
X773622Y-271654D02*
Y-267913D01*
X766732Y-346457D02*
Y-342815D01*
X730709Y-310531D02*
X734449D01*
X805610Y-303642D02*
X809350Y-303642D01*
X805610Y-310531D02*
X809252D01*
X766732Y-271654D02*
Y-267913D01*
D145*
X791339Y-307185D02*
X791315Y-306189D01*
X791245Y-305194D01*
X791129Y-304204D01*
X790966Y-303221D01*
X790757Y-302246D01*
X790503Y-301283D01*
X790204Y-300332D01*
X789860Y-299396D01*
X789473Y-298477D01*
X789044Y-297578D01*
X788573Y-296699D01*
X788061Y-295844D01*
X787510Y-295014D01*
X786920Y-294210D01*
X786293Y-293435D01*
X785631Y-292690D01*
X784935Y-291977D01*
X784205Y-291297D01*
X783445Y-290653D01*
X782655Y-290044D01*
X781838Y-289474D01*
X780995Y-288942D01*
X780128Y-288450D01*
X779239Y-288000D01*
X778330Y-287592D01*
X777402Y-287226D01*
X776459Y-286905D01*
X775501Y-286628D01*
X774531Y-286397D01*
X773552Y-286211D01*
X772565Y-286071D01*
X771573Y-285978D01*
X770577Y-285931D01*
X769580D01*
X768585Y-285978D01*
X767592Y-286071D01*
X766605Y-286211D01*
X765626Y-286397D01*
X764657Y-286628D01*
X763699Y-286905D01*
X762755Y-287226D01*
X761828Y-287592D01*
X760919Y-288000D01*
X760029Y-288450D01*
X759162Y-288942D01*
X758319Y-289474D01*
X757502Y-290044D01*
X756712Y-290653D01*
X755952Y-291297D01*
X755223Y-291977D01*
X754527Y-292690D01*
X753864Y-293435D01*
X753237Y-294210D01*
X752648Y-295014D01*
X752097Y-295844D01*
X751585Y-296699D01*
X751114Y-297578D01*
X750684Y-298477D01*
X750297Y-299396D01*
X749954Y-300332D01*
X749655Y-301283D01*
X749401Y-302246D01*
X749192Y-303221D01*
X749029Y-304204D01*
X748912Y-305194D01*
X748842Y-306189D01*
X748819Y-307185D01*
X748842Y-308182D01*
X748912Y-309176D01*
X749029Y-310166D01*
X749192Y-311149D01*
X749401Y-312124D01*
X749655Y-313088D01*
X749954Y-314038D01*
X750297Y-314974D01*
X750684Y-315893D01*
X751114Y-316792D01*
X751585Y-317671D01*
X752097Y-318526D01*
X752648Y-319356D01*
X753237Y-320160D01*
X753864Y-320935D01*
X754527Y-321680D01*
X755223Y-322393D01*
X755952Y-323073D01*
X756712Y-323717D01*
X757502Y-324326D01*
X758319Y-324897D01*
X759162Y-325428D01*
X760030Y-325920D01*
X760919Y-326370D01*
X761828Y-326779D01*
X762755Y-327144D01*
X763699Y-327465D01*
X764657Y-327742D01*
X765626Y-327973D01*
X766605Y-328159D01*
X767592Y-328299D01*
X768585Y-328392D01*
X769580Y-328439D01*
X770577D01*
X771573Y-328392D01*
X772565Y-328299D01*
X773552Y-328159D01*
X774531Y-327973D01*
X775501Y-327742D01*
X776459Y-327465D01*
X777402Y-327144D01*
X778330Y-326779D01*
X779239Y-326370D01*
X780128Y-325920D01*
X780995Y-325428D01*
X781838Y-324897D01*
X782655Y-324326D01*
X783445Y-323717D01*
X784205Y-323073D01*
X784934Y-322393D01*
X785631Y-321680D01*
X786293Y-320935D01*
X786920Y-320160D01*
X787510Y-319357D01*
X788061Y-318526D01*
X788573Y-317671D01*
X789044Y-316792D01*
X789473Y-315893D01*
X789860Y-314974D01*
X790204Y-314039D01*
X790503Y-313088D01*
X790757Y-312124D01*
X790966Y-311149D01*
X791129Y-310166D01*
X791245Y-309176D01*
X791315Y-308182D01*
X791339Y-307185D01*
X205Y-434835D02*
X865937D01*
X205Y-205D02*
X865937D01*
Y-434835D02*
Y-205D01*
X205Y-434835D02*
Y-205D01*
M02*
