G04*
G04 #@! TF.GenerationSoftware,Altium Limited,Altium Designer,21.5.1 (32)*
G04*
G04 Layer_Color=16711935*
%FSLAX25Y25*%
%MOIN*%
G70*
G04*
G04 #@! TF.SameCoordinates,D9A27908-B339-4E15-AEEB-BE0A6D91D8F4*
G04*
G04*
G04 #@! TF.FilePolarity,Positive*
G04*
G01*
G75*
%ADD10C,0.00787*%
%ADD11C,0.01000*%
%ADD14C,0.00394*%
D10*
X221063Y-181339D02*
X243110D01*
Y-282126D02*
Y-181339D01*
X221063Y-282126D02*
X243110D01*
X221063D02*
Y-181339D01*
X64772Y-98917D02*
Y-44390D01*
X1193Y-98917D02*
X64772D01*
X1193D02*
Y-44390D01*
X64772D01*
X301575Y-85433D02*
X356693D01*
X301575D02*
Y-73622D01*
X356693D01*
Y-85433D02*
Y-73622D01*
D11*
X668504Y-22047D02*
X668380Y-21068D01*
X668017Y-20151D01*
X667437Y-19352D01*
X666677Y-18723D01*
X665784Y-18303D01*
X664814Y-18118D01*
X663829Y-18180D01*
X662891Y-18485D01*
X662057Y-19014D01*
X661382Y-19733D01*
X660906Y-20598D01*
X660661Y-21554D01*
Y-22541D01*
X660906Y-23496D01*
X661382Y-24361D01*
X662057Y-25081D01*
X662891Y-25610D01*
X663829Y-25914D01*
X664814Y-25976D01*
X665784Y-25792D01*
X666677Y-25371D01*
X667437Y-24742D01*
X668017Y-23944D01*
X668380Y-23026D01*
X668504Y-22047D01*
D14*
X606693Y-14173D02*
X672441D01*
Y-77165D02*
Y-14173D01*
X606693Y-77165D02*
X672441D01*
X606693D02*
Y-14173D01*
X83906Y-61713D02*
Y-40650D01*
X69638D02*
X83906D01*
X69638Y-61713D02*
Y-40650D01*
Y-61713D02*
X83906D01*
X247638Y-99114D02*
X256299D01*
X247638Y-104823D02*
X256299D01*
X247638D02*
Y-99114D01*
X256299Y-104823D02*
Y-99114D01*
X279134Y-75098D02*
X287795D01*
X279134Y-80807D02*
X287795D01*
X279134D02*
Y-75098D01*
X287795Y-80807D02*
Y-75098D01*
X261417Y-80807D02*
X270079D01*
X261417Y-75098D02*
X270079D01*
Y-80807D02*
Y-75098D01*
X261417Y-80807D02*
Y-75098D01*
X246220Y-93110D02*
Y-87992D01*
X257716Y-93110D02*
Y-87992D01*
X246220Y-93110D02*
X257716D01*
X246220Y-87992D02*
X257716D01*
X273504Y-53543D02*
Y-29547D01*
X247756Y-53543D02*
Y-29547D01*
X273504D01*
X247756Y-53543D02*
X273504D01*
X530394Y-31791D02*
Y-13878D01*
X517638Y-31791D02*
X530394D01*
X517638D02*
Y-13878D01*
X530394D01*
X297539Y-89173D02*
Y-78543D01*
X291437Y-89173D02*
X297539D01*
X291437D02*
Y-78543D01*
X297539D01*
X295079D02*
X297539Y-81004D01*
X271752Y-89272D02*
X274213Y-86811D01*
Y-89272D02*
Y-83169D01*
X263583D02*
X274213D01*
X263583Y-89272D02*
Y-83169D01*
Y-89272D02*
X274213D01*
X318457Y-58169D02*
Y-37106D01*
X332724D01*
Y-58169D02*
Y-37106D01*
X318457Y-58169D02*
X332724D01*
X297342Y-105532D02*
Y-96831D01*
X291634Y-105532D02*
Y-96831D01*
X297342D01*
X291634Y-105532D02*
X297342D01*
M02*
