G04*
G04 #@! TF.GenerationSoftware,Altium Limited,Altium Designer,21.5.1 (32)*
G04*
G04 Layer_Physical_Order=1*
G04 Layer_Color=255*
%FSLAX25Y25*%
%MOIN*%
G70*
G04*
G04 #@! TF.SameCoordinates,D9A27908-B339-4E15-AEEB-BE0A6D91D8F4*
G04*
G04*
G04 #@! TF.FilePolarity,Positive*
G04*
G01*
G75*
%ADD11C,0.01000*%
%ADD17C,0.07874*%
%ADD69R,0.05906X0.05118*%
%ADD70R,0.06299X0.07087*%
%ADD71R,0.08661X0.07874*%
%ADD72R,0.07087X0.06299*%
%ADD73R,0.05118X0.05906*%
%ADD74R,0.10630X0.14173*%
G04:AMPARAMS|DCode=75|XSize=118.11mil|YSize=55.12mil|CornerRadius=13.78mil|HoleSize=0mil|Usage=FLASHONLY|Rotation=270.000|XOffset=0mil|YOffset=0mil|HoleType=Round|Shape=RoundedRectangle|*
%AMROUNDEDRECTD75*
21,1,0.11811,0.02756,0,0,270.0*
21,1,0.09055,0.05512,0,0,270.0*
1,1,0.02756,-0.01378,-0.04528*
1,1,0.02756,-0.01378,0.04528*
1,1,0.02756,0.01378,0.04528*
1,1,0.02756,0.01378,-0.04528*
%
%ADD75ROUNDEDRECTD75*%
%ADD76R,0.07874X0.16142*%
%ADD77R,0.09488X0.12992*%
%ADD78R,0.07874X0.02362*%
%ADD79R,0.13386X0.05512*%
%ADD80R,0.14173X0.10630*%
%ADD81R,0.07874X0.08661*%
%ADD82R,0.09449X0.12992*%
%ADD83R,0.04724X0.05709*%
%ADD84R,0.03937X0.05512*%
%ADD85R,0.22835X0.24410*%
%ADD86R,0.06299X0.11811*%
%ADD87R,0.04724X0.02756*%
%ADD88R,0.04724X0.03937*%
%ADD89R,0.03150X0.03937*%
%ADD90R,0.11024X0.03937*%
%ADD91R,0.07480X0.05118*%
%ADD92R,0.13504X0.03347*%
%ADD93R,0.02953X0.04921*%
%ADD94R,0.04921X0.02953*%
%ADD95R,0.08465X0.08661*%
%ADD96R,0.05315X0.04528*%
%ADD97C,0.01181*%
%ADD98C,0.02362*%
%ADD99C,0.01968*%
%ADD100C,0.03150*%
%ADD101C,0.00906*%
%ADD102C,0.03937*%
%ADD103C,0.06299*%
%ADD104R,0.06693X0.06693*%
%ADD105C,0.06693*%
%ADD106C,0.13189*%
%ADD107C,0.07400*%
%ADD108C,0.05906*%
%ADD109C,0.07874*%
%ADD110R,0.08661X0.08661*%
%ADD111C,0.08661*%
%ADD112C,0.06000*%
%ADD113C,0.08000*%
%ADD114P,0.12249X4X180.0*%
%ADD115R,0.10630X0.10630*%
%ADD116C,0.10630*%
%ADD117R,0.09843X0.13780*%
%ADD118C,0.05965*%
%ADD119R,0.06693X0.06693*%
%ADD120R,0.09843X0.11811*%
%ADD121C,0.19685*%
G04:AMPARAMS|DCode=122|XSize=118.11mil|YSize=59.06mil|CornerRadius=14.76mil|HoleSize=0mil|Usage=FLASHONLY|Rotation=0.000|XOffset=0mil|YOffset=0mil|HoleType=Round|Shape=RoundedRectangle|*
%AMROUNDEDRECTD122*
21,1,0.11811,0.02953,0,0,0.0*
21,1,0.08858,0.05906,0,0,0.0*
1,1,0.02953,0.04429,-0.01476*
1,1,0.02953,-0.04429,-0.01476*
1,1,0.02953,-0.04429,0.01476*
1,1,0.02953,0.04429,0.01476*
%
%ADD122ROUNDEDRECTD122*%
G04:AMPARAMS|DCode=123|XSize=118.11mil|YSize=59.06mil|CornerRadius=14.76mil|HoleSize=0mil|Usage=FLASHONLY|Rotation=90.000|XOffset=0mil|YOffset=0mil|HoleType=Round|Shape=RoundedRectangle|*
%AMROUNDEDRECTD123*
21,1,0.11811,0.02953,0,0,90.0*
21,1,0.08858,0.05906,0,0,90.0*
1,1,0.02953,0.01476,0.04429*
1,1,0.02953,0.01476,-0.04429*
1,1,0.02953,-0.01476,-0.04429*
1,1,0.02953,-0.01476,0.04429*
%
%ADD123ROUNDEDRECTD123*%
%ADD124C,0.03937*%
%ADD125C,0.03150*%
%ADD126C,0.05512*%
%ADD127C,0.02756*%
%ADD128C,0.11811*%
G36*
X864937Y-433835D02*
X1204D01*
X1204Y-101279D01*
X3945D01*
Y-97933D01*
Y-94587D01*
X1204D01*
X1204Y-47539D01*
X5720D01*
Y-44783D01*
Y-42028D01*
X1204D01*
Y-1204D01*
X864936D01*
X864937Y-433835D01*
D02*
G37*
%LPC*%
G36*
X228248Y-2515D02*
X224803D01*
Y-5315D01*
X230556D01*
Y-4823D01*
X230381Y-3940D01*
X229880Y-3191D01*
X229131Y-2690D01*
X228248Y-2515D01*
D02*
G37*
G36*
X222835D02*
X219390D01*
X218507Y-2690D01*
X217758Y-3191D01*
X217257Y-3940D01*
X217082Y-4823D01*
Y-5315D01*
X222835D01*
Y-2515D01*
D02*
G37*
G36*
X122736D02*
X119291D01*
Y-5315D01*
X125044D01*
Y-4823D01*
X124869Y-3940D01*
X124368Y-3191D01*
X123619Y-2690D01*
X122736Y-2515D01*
D02*
G37*
G36*
X117323D02*
X113878D01*
X112995Y-2690D01*
X112246Y-3191D01*
X111746Y-3940D01*
X111570Y-4823D01*
Y-5315D01*
X117323D01*
Y-2515D01*
D02*
G37*
G36*
X766453Y-1964D02*
X765168Y-2133D01*
X763971Y-2629D01*
X762943Y-3418D01*
X762154Y-4446D01*
X761658Y-5643D01*
X761606Y-6042D01*
X761101D01*
X761056Y-5694D01*
X760579Y-4545D01*
X759822Y-3558D01*
X758835Y-2801D01*
X757686Y-2325D01*
X757437Y-2292D01*
Y-6928D01*
Y-11563D01*
X757686Y-11530D01*
X758835Y-11054D01*
X759822Y-10297D01*
X760579Y-9310D01*
X761056Y-8161D01*
X761101Y-7813D01*
X761606D01*
X761658Y-8212D01*
X762154Y-9409D01*
X762943Y-10437D01*
X763971Y-11226D01*
X765168Y-11722D01*
X766453Y-11891D01*
X767737Y-11722D01*
X768935Y-11226D01*
X769963Y-10437D01*
X770751Y-9409D01*
X771247Y-8212D01*
X771417Y-6928D01*
X771247Y-5643D01*
X770751Y-4446D01*
X769963Y-3418D01*
X768935Y-2629D01*
X767737Y-2133D01*
X766453Y-1964D01*
D02*
G37*
G36*
X230556Y-7283D02*
X224803D01*
Y-10084D01*
X228248D01*
X229131Y-9908D01*
X229880Y-9408D01*
X230381Y-8659D01*
X230556Y-7776D01*
Y-7283D01*
D02*
G37*
G36*
X222835D02*
X217082D01*
Y-7776D01*
X217257Y-8659D01*
X217758Y-9408D01*
X218507Y-9908D01*
X219390Y-10084D01*
X222835D01*
Y-7283D01*
D02*
G37*
G36*
X125044D02*
X119291D01*
Y-10084D01*
X122736D01*
X123619Y-9908D01*
X124368Y-9408D01*
X124869Y-8659D01*
X125044Y-7776D01*
Y-7283D01*
D02*
G37*
G36*
X117323D02*
X111570D01*
Y-7776D01*
X111746Y-8659D01*
X112246Y-9408D01*
X112995Y-9908D01*
X113878Y-10084D01*
X117323D01*
Y-7283D01*
D02*
G37*
G36*
X746453Y-1964D02*
X745168Y-2133D01*
X743971Y-2629D01*
X742943Y-3418D01*
X742154Y-4446D01*
X741658Y-5643D01*
X741489Y-6928D01*
X741658Y-8212D01*
X742154Y-9409D01*
X742943Y-10437D01*
X743971Y-11226D01*
X745168Y-11722D01*
X746453Y-11891D01*
X747738Y-11722D01*
X748935Y-11226D01*
X749963Y-10437D01*
X750751Y-9409D01*
X751247Y-8212D01*
X751300Y-7813D01*
X751804D01*
X751850Y-8161D01*
X752326Y-9310D01*
X753083Y-10297D01*
X754070Y-11054D01*
X755219Y-11530D01*
X755469Y-11563D01*
Y-6928D01*
Y-2292D01*
X755219Y-2325D01*
X754070Y-2801D01*
X753083Y-3558D01*
X752326Y-4545D01*
X751850Y-5694D01*
X751804Y-6042D01*
X751300D01*
X751247Y-5643D01*
X750751Y-4446D01*
X749963Y-3418D01*
X748935Y-2629D01*
X747738Y-2133D01*
X746453Y-1964D01*
D02*
G37*
G36*
X779681Y-15178D02*
X778859Y-15286D01*
X778161Y-15575D01*
X734744D01*
X734047Y-15286D01*
X733224Y-15178D01*
X732402Y-15286D01*
X731636Y-15604D01*
X730978Y-16108D01*
X730473Y-16766D01*
X730156Y-17533D01*
X730048Y-18355D01*
X730156Y-19177D01*
X730473Y-19943D01*
X730978Y-20601D01*
X731636Y-21106D01*
X732402Y-21423D01*
X733224Y-21531D01*
X734047Y-21423D01*
X734744Y-21134D01*
X778161D01*
X778859Y-21423D01*
X779681Y-21531D01*
X780503Y-21423D01*
X781270Y-21106D01*
X781927Y-20601D01*
X782432Y-19943D01*
X782750Y-19177D01*
X782858Y-18355D01*
X782750Y-17533D01*
X782432Y-16766D01*
X781927Y-16108D01*
X781270Y-15604D01*
X780503Y-15286D01*
X779681Y-15178D01*
D02*
G37*
G36*
X230315Y-12205D02*
X226181D01*
Y-15945D01*
X230315D01*
Y-12205D01*
D02*
G37*
G36*
X224213D02*
X220079D01*
Y-15945D01*
X224213D01*
Y-12205D01*
D02*
G37*
G36*
X526772Y-5858D02*
X279412D01*
X277973Y-6047D01*
X276632Y-6603D01*
X275481Y-7486D01*
X261044Y-21923D01*
X260647Y-22441D01*
X247638D01*
Y-50000D01*
X273622D01*
Y-25069D01*
X281714Y-16977D01*
X363338D01*
Y-23228D01*
X363386Y-23590D01*
Y-25984D01*
X364073D01*
X364083Y-26008D01*
X364967Y-27159D01*
X366118Y-28043D01*
X367459Y-28598D01*
X368898Y-28788D01*
X370337Y-28598D01*
X371677Y-28043D01*
X372829Y-27159D01*
X373712Y-26008D01*
X373722Y-25984D01*
X374410D01*
Y-23590D01*
X374457Y-23228D01*
Y-16977D01*
X408240D01*
Y-22628D01*
X407951Y-23168D01*
X407591Y-24356D01*
X407470Y-25591D01*
X407591Y-26825D01*
X407951Y-28013D01*
X408536Y-29107D01*
X409323Y-30066D01*
X410283Y-30854D01*
X411377Y-31438D01*
X412564Y-31799D01*
X413799Y-31920D01*
X415034Y-31799D01*
X416222Y-31438D01*
X417316Y-30854D01*
X418275Y-30066D01*
X419062Y-29107D01*
X419647Y-28013D01*
X420007Y-26825D01*
X420129Y-25591D01*
X420007Y-24356D01*
X419647Y-23168D01*
X419359Y-22628D01*
Y-16977D01*
X422891D01*
Y-17972D01*
X471836D01*
Y-16977D01*
X488535D01*
Y-23228D01*
X488583Y-23590D01*
Y-25984D01*
X489270D01*
X489280Y-26008D01*
X490163Y-27159D01*
X491315Y-28043D01*
X492656Y-28598D01*
X494095Y-28788D01*
X495533Y-28598D01*
X496874Y-28043D01*
X498026Y-27159D01*
X498909Y-26008D01*
X498919Y-25984D01*
X499606D01*
Y-23590D01*
X499654Y-23228D01*
Y-16977D01*
X515689D01*
Y-17028D01*
X532342D01*
Y-10531D01*
X532214D01*
X532142Y-9978D01*
X531586Y-8638D01*
X530703Y-7486D01*
X529551Y-6603D01*
X528210Y-6047D01*
X526772Y-5858D01*
D02*
G37*
G36*
X836980Y-16534D02*
X835643Y-16710D01*
X834398Y-17226D01*
X834117Y-17442D01*
X836980Y-20304D01*
X839842Y-17442D01*
X839561Y-17226D01*
X838316Y-16710D01*
X836980Y-16534D01*
D02*
G37*
G36*
X105413Y-15901D02*
X104921D01*
Y-21654D01*
X107721D01*
Y-18209D01*
X107546Y-17325D01*
X107045Y-16577D01*
X106297Y-16076D01*
X105413Y-15901D01*
D02*
G37*
G36*
X102953D02*
X102461D01*
X101577Y-16076D01*
X100829Y-16577D01*
X100328Y-17325D01*
X100153Y-18209D01*
Y-21654D01*
X102953D01*
Y-15901D01*
D02*
G37*
G36*
X230315Y-17913D02*
X226181D01*
Y-21654D01*
X230315D01*
Y-17913D01*
D02*
G37*
G36*
X224213D02*
X220079D01*
Y-21654D01*
X224213D01*
Y-17913D01*
D02*
G37*
G36*
X239272Y-15901D02*
X238779D01*
Y-21654D01*
X241580D01*
Y-18209D01*
X241404Y-17325D01*
X240904Y-16577D01*
X240155Y-16076D01*
X239272Y-15901D01*
D02*
G37*
G36*
X236811D02*
X236319D01*
X235436Y-16076D01*
X234687Y-16577D01*
X234187Y-17325D01*
X234011Y-18209D01*
Y-21654D01*
X236811D01*
Y-15901D01*
D02*
G37*
G36*
X650509Y-2732D02*
X589764D01*
X589044Y-2827D01*
X588374Y-3104D01*
X587798Y-3546D01*
X584611Y-6733D01*
X584169Y-7309D01*
X583892Y-7979D01*
X583797Y-8699D01*
Y-11950D01*
X583488Y-12187D01*
X582794Y-13092D01*
X582358Y-14145D01*
X582209Y-15276D01*
X582260Y-15662D01*
X578349Y-19572D01*
X577908Y-20148D01*
X577630Y-20818D01*
X577535Y-21537D01*
Y-29528D01*
X569685D01*
Y-35045D01*
X543447Y-61283D01*
X512628Y-92102D01*
X355512D01*
X354792Y-92197D01*
X354122Y-92475D01*
X353546Y-92916D01*
X334479Y-111984D01*
X226224D01*
X225527Y-111695D01*
X224705Y-111587D01*
X223883Y-111695D01*
X223116Y-112013D01*
X222458Y-112517D01*
X206612Y-128364D01*
X206107Y-129022D01*
X205790Y-129788D01*
X205681Y-130610D01*
Y-234080D01*
X205406Y-234744D01*
X205284Y-235669D01*
X205406Y-236594D01*
X205763Y-237456D01*
X206331Y-238196D01*
X207071Y-238764D01*
X207736Y-239040D01*
X221528Y-252832D01*
Y-270200D01*
X211834Y-279894D01*
X184818D01*
X184153Y-279619D01*
X183228Y-279497D01*
X182303Y-279619D01*
X181996Y-279746D01*
X181496Y-279412D01*
Y-277953D01*
X172047D01*
Y-288189D01*
X180222D01*
Y-307063D01*
X116665D01*
X115968Y-306774D01*
X115145Y-306666D01*
X114323Y-306774D01*
X113626Y-307063D01*
X86716D01*
X86019Y-306774D01*
X85197Y-306666D01*
X84375Y-306774D01*
X83609Y-307091D01*
X82951Y-307596D01*
X82446Y-308254D01*
X82128Y-309020D01*
X82020Y-309842D01*
X82128Y-310665D01*
X82446Y-311431D01*
X82951Y-312089D01*
X83609Y-312594D01*
X84375Y-312911D01*
X85197Y-313019D01*
X86019Y-312911D01*
X86716Y-312622D01*
X113626D01*
X114323Y-312911D01*
X115145Y-313019D01*
X115968Y-312911D01*
X116665Y-312622D01*
X180222D01*
Y-371674D01*
X179348Y-372344D01*
X178654Y-373249D01*
X178218Y-374303D01*
X178069Y-375433D01*
X178218Y-376564D01*
X178654Y-377617D01*
X179348Y-378522D01*
X180253Y-379216D01*
X181307Y-379652D01*
X182437Y-379801D01*
X183568Y-379652D01*
X184621Y-379216D01*
X185526Y-378522D01*
X186220Y-377617D01*
X186656Y-376564D01*
X186805Y-375433D01*
X186656Y-374303D01*
X186220Y-373249D01*
X185782Y-372678D01*
Y-309842D01*
Y-286248D01*
X213150D01*
X213972Y-286139D01*
X214738Y-285822D01*
X215396Y-285317D01*
X226951Y-273762D01*
X227456Y-273104D01*
X227773Y-272338D01*
X227882Y-271516D01*
Y-251516D01*
X227773Y-250693D01*
X227456Y-249927D01*
X226951Y-249269D01*
X212229Y-234547D01*
X212035Y-234080D01*
Y-131926D01*
X226418Y-117543D01*
X335630D01*
X336349Y-117449D01*
X337020Y-117171D01*
X337596Y-116729D01*
X356663Y-97662D01*
X513779D01*
X514499Y-97567D01*
X515169Y-97289D01*
X515745Y-96847D01*
X545079Y-67514D01*
X596066Y-118501D01*
X596642Y-118943D01*
X597312Y-119220D01*
X598032Y-119315D01*
X618504D01*
X619223Y-119220D01*
X619894Y-118943D01*
X620470Y-118501D01*
X623225Y-115745D01*
X623667Y-115169D01*
X623945Y-114499D01*
X624040Y-113779D01*
Y-110630D01*
X641929D01*
Y-103150D01*
Y-94882D01*
X639589D01*
Y-93504D01*
X641339D01*
Y-93217D01*
X641339Y-92716D01*
X641839Y-92716D01*
X643701D01*
Y-88976D01*
Y-85236D01*
X641339Y-85236D01*
X641339Y-84736D01*
Y-84449D01*
X640466D01*
X640296Y-83949D01*
X640492Y-83799D01*
X640695Y-83534D01*
X641195D01*
X641398Y-83799D01*
X642015Y-84272D01*
X642733Y-84570D01*
X643504Y-84671D01*
X646260D01*
X647031Y-84570D01*
X647749Y-84272D01*
X648366Y-83799D01*
X648569Y-83534D01*
X649069D01*
X649272Y-83799D01*
X649889Y-84272D01*
X650607Y-84570D01*
X651378Y-84671D01*
X654134D01*
X654905Y-84570D01*
X655623Y-84272D01*
X656240Y-83799D01*
X656443Y-83534D01*
X656943D01*
X657146Y-83799D01*
X657763Y-84272D01*
X658481Y-84570D01*
X659252Y-84671D01*
X661994D01*
X664252Y-86929D01*
X664938Y-87388D01*
X665748Y-87549D01*
X671654D01*
X672463Y-87388D01*
X673149Y-86929D01*
X675118Y-84960D01*
X675576Y-84274D01*
X675737Y-83465D01*
Y-68110D01*
X675576Y-67301D01*
X675118Y-66614D01*
X649650Y-41146D01*
X648964Y-40688D01*
X648154Y-40527D01*
X624820D01*
X600768Y-16475D01*
X600796Y-16406D01*
X600945Y-15276D01*
X600796Y-14145D01*
X600360Y-13092D01*
X599665Y-12187D01*
X598761Y-11493D01*
X597707Y-11056D01*
X596577Y-10908D01*
X595446Y-11056D01*
X594393Y-11493D01*
X593488Y-12187D01*
X592794Y-13092D01*
X592358Y-14145D01*
X592209Y-15276D01*
X592358Y-16406D01*
X592794Y-17460D01*
X593488Y-18364D01*
X594393Y-19058D01*
X595446Y-19495D01*
X596577Y-19644D01*
X597707Y-19495D01*
X597776Y-19466D01*
X622448Y-44138D01*
X623134Y-44597D01*
X623944Y-44758D01*
X647278D01*
X653880Y-51360D01*
X653688Y-51822D01*
X596114D01*
X590907Y-46615D01*
Y-40945D01*
X582246D01*
Y-49606D01*
X587916D01*
X593742Y-55433D01*
X594429Y-55891D01*
X595238Y-56053D01*
X654242D01*
X666389Y-68199D01*
Y-69757D01*
X666355Y-69761D01*
X665637Y-70059D01*
X665020Y-70532D01*
X664817Y-70797D01*
X664317D01*
X664114Y-70532D01*
X663497Y-70059D01*
X662779Y-69761D01*
X662008Y-69660D01*
X659252D01*
X658481Y-69761D01*
X657763Y-70059D01*
X657146Y-70532D01*
X656943Y-70797D01*
X656443D01*
X656240Y-70532D01*
X655623Y-70059D01*
X654905Y-69761D01*
X654134Y-69660D01*
X651378D01*
X650607Y-69761D01*
X649889Y-70059D01*
X649272Y-70532D01*
X649069Y-70797D01*
X648569D01*
X648366Y-70532D01*
X647749Y-70059D01*
X647031Y-69761D01*
X646260Y-69660D01*
X643504D01*
X642733Y-69761D01*
X642015Y-70059D01*
X641398Y-70532D01*
X641195Y-70797D01*
X640695D01*
X640492Y-70532D01*
X639875Y-70059D01*
X639157Y-69761D01*
X638386Y-69660D01*
X635630D01*
X634859Y-69761D01*
X634141Y-70059D01*
X633524Y-70532D01*
X633321Y-70797D01*
X632821D01*
X632618Y-70532D01*
X632001Y-70059D01*
X631283Y-69761D01*
X630512Y-69660D01*
X627756D01*
X626985Y-69761D01*
X626267Y-70059D01*
X625650Y-70532D01*
X625447Y-70797D01*
X624947D01*
X624744Y-70532D01*
X624127Y-70059D01*
X623409Y-69761D01*
X622638Y-69660D01*
X619882D01*
X619111Y-69761D01*
X618393Y-70059D01*
X617776Y-70532D01*
X617303Y-71149D01*
X617177Y-71452D01*
X616613Y-71508D01*
X616325Y-71077D01*
X615609Y-70598D01*
X614764Y-70430D01*
X614370D01*
Y-77165D01*
Y-83901D01*
X614764D01*
X615609Y-83733D01*
X616325Y-83254D01*
X616613Y-82823D01*
X617177Y-82879D01*
X617303Y-83182D01*
X617776Y-83799D01*
X617971Y-83949D01*
X617802Y-84449D01*
X616929D01*
Y-84736D01*
X616929Y-85236D01*
X616429Y-85236D01*
X614567D01*
Y-88976D01*
Y-92716D01*
X616929Y-92716D01*
X616929Y-93217D01*
Y-93504D01*
X618679D01*
Y-94882D01*
X616732D01*
Y-95669D01*
X614370D01*
Y-99016D01*
X613386D01*
Y-100000D01*
X609646D01*
Y-102362D01*
X609146Y-102362D01*
X608858D01*
Y-110630D01*
X618480D01*
Y-112628D01*
X617353Y-113756D01*
X599183D01*
X549010Y-63583D01*
X570011Y-42582D01*
X570472Y-42773D01*
Y-44291D01*
X573819D01*
Y-41339D01*
X571907D01*
X571716Y-40877D01*
X573616Y-38976D01*
X579921D01*
Y-37543D01*
X582858D01*
X583488Y-38364D01*
X584393Y-39058D01*
X585446Y-39495D01*
X586577Y-39644D01*
X587707Y-39495D01*
X588761Y-39058D01*
X589666Y-38364D01*
X590360Y-37460D01*
X590796Y-36406D01*
X590945Y-35276D01*
X590796Y-34145D01*
X590360Y-33092D01*
X589666Y-32187D01*
X588761Y-31493D01*
X587707Y-31056D01*
X586577Y-30907D01*
X585446Y-31056D01*
X584393Y-31493D01*
X583752Y-31984D01*
X583095D01*
Y-28607D01*
X583595Y-28446D01*
X584393Y-29058D01*
X585446Y-29495D01*
X586577Y-29644D01*
X587707Y-29495D01*
X588761Y-29058D01*
X589666Y-28364D01*
X590360Y-27460D01*
X590796Y-26406D01*
X590945Y-25276D01*
X590796Y-24145D01*
X590360Y-23092D01*
X589666Y-22187D01*
X588761Y-21493D01*
X587707Y-21056D01*
X586577Y-20908D01*
X585446Y-21056D01*
X585426Y-21065D01*
X585143Y-20641D01*
X586191Y-19593D01*
X586577Y-19644D01*
X587707Y-19495D01*
X588761Y-19058D01*
X589666Y-18364D01*
X590360Y-17460D01*
X590796Y-16406D01*
X590945Y-15276D01*
X590796Y-14145D01*
X590360Y-13092D01*
X589666Y-12187D01*
X589357Y-11950D01*
Y-9850D01*
X590915Y-8292D01*
X608923D01*
X609201Y-8707D01*
X609131Y-8875D01*
X609030Y-9646D01*
Y-18701D01*
X609131Y-19472D01*
X609429Y-20190D01*
X609902Y-20807D01*
X610519Y-21280D01*
X611237Y-21577D01*
X612008Y-21679D01*
X614764D01*
X615535Y-21577D01*
X616253Y-21280D01*
X616870Y-20807D01*
X617073Y-20542D01*
X617573D01*
X617776Y-20807D01*
X618393Y-21280D01*
X619111Y-21577D01*
X619882Y-21679D01*
X622638D01*
X623409Y-21577D01*
X624127Y-21280D01*
X624744Y-20807D01*
X624947Y-20542D01*
X625447D01*
X625650Y-20807D01*
X626267Y-21280D01*
X626985Y-21577D01*
X627756Y-21679D01*
X630512D01*
X631283Y-21577D01*
X632001Y-21280D01*
X632618Y-20807D01*
X632821Y-20542D01*
X633321D01*
X633524Y-20807D01*
X634141Y-21280D01*
X634859Y-21577D01*
X635630Y-21679D01*
X638386D01*
X639157Y-21577D01*
X639875Y-21280D01*
X640492Y-20807D01*
X640695Y-20542D01*
X641195D01*
X641398Y-20807D01*
X642015Y-21280D01*
X642733Y-21577D01*
X643504Y-21679D01*
X646260D01*
X647031Y-21577D01*
X647749Y-21280D01*
X648366Y-20807D01*
X648569Y-20542D01*
X649069D01*
X649272Y-20807D01*
X649889Y-21280D01*
X650607Y-21577D01*
X651378Y-21679D01*
X654134D01*
X654905Y-21577D01*
X655623Y-21280D01*
X656240Y-20807D01*
X656443Y-20542D01*
X656943D01*
X657146Y-20807D01*
X657763Y-21280D01*
X658481Y-21577D01*
X659252Y-21679D01*
X662008D01*
X662779Y-21577D01*
X663497Y-21280D01*
X664114Y-20807D01*
X664317Y-20542D01*
X664817D01*
X665020Y-20807D01*
X665637Y-21280D01*
X666355Y-21577D01*
X667126Y-21679D01*
X669882D01*
X670653Y-21577D01*
X671371Y-21280D01*
X671988Y-20807D01*
X672461Y-20190D01*
X672759Y-19472D01*
X672860Y-18701D01*
Y-9646D01*
X672759Y-8875D01*
X672461Y-8157D01*
X671988Y-7540D01*
X671371Y-7067D01*
X670653Y-6769D01*
X669882Y-6667D01*
X667126D01*
X666355Y-6769D01*
X665637Y-7067D01*
X665020Y-7540D01*
X664817Y-7805D01*
X664317D01*
X664114Y-7540D01*
X663497Y-7067D01*
X662779Y-6769D01*
X662008Y-6667D01*
X659252D01*
X658481Y-6769D01*
X657763Y-7067D01*
X657146Y-7540D01*
X656943Y-7805D01*
X656443D01*
X656240Y-7540D01*
X655623Y-7067D01*
X654905Y-6769D01*
X654651Y-6736D01*
X654578Y-6176D01*
X654300Y-5506D01*
X653858Y-4930D01*
X652474Y-3546D01*
X651899Y-3104D01*
X651228Y-2827D01*
X650509Y-2732D01*
D02*
G37*
G36*
X461372Y-20335D02*
X458025D01*
Y-23287D01*
X461372D01*
Y-20335D01*
D02*
G37*
G36*
X442017D02*
X438671D01*
Y-23287D01*
X442017D01*
Y-20335D01*
D02*
G37*
G36*
X456057D02*
X452710D01*
Y-23287D01*
X456057D01*
Y-20335D01*
D02*
G37*
G36*
X436702D02*
X433356D01*
Y-23287D01*
X436702D01*
Y-20335D01*
D02*
G37*
G36*
X471049D02*
X467702D01*
Y-23287D01*
X471049D01*
Y-20335D01*
D02*
G37*
G36*
X451694D02*
X448348D01*
Y-23287D01*
X451694D01*
Y-20335D01*
D02*
G37*
G36*
X432340D02*
X428994D01*
Y-23287D01*
X432340D01*
Y-20335D01*
D02*
G37*
G36*
X427025D02*
X423679D01*
Y-23287D01*
X427025D01*
Y-20335D01*
D02*
G37*
G36*
X446380D02*
X443033D01*
Y-23287D01*
X446380D01*
Y-20335D01*
D02*
G37*
G36*
X465734D02*
X462387D01*
Y-23287D01*
X465734D01*
Y-20335D01*
D02*
G37*
G36*
X832725Y-18834D02*
X832509Y-19115D01*
X831993Y-20360D01*
X831817Y-21696D01*
X831993Y-23032D01*
X832509Y-24277D01*
X832725Y-24559D01*
X835588Y-21696D01*
X832725Y-18834D01*
D02*
G37*
G36*
X841234Y-18834D02*
X838371Y-21696D01*
X841234Y-24559D01*
X841450Y-24277D01*
X841966Y-23032D01*
X842142Y-21696D01*
X841966Y-20360D01*
X841450Y-19115D01*
X841234Y-18834D01*
D02*
G37*
G36*
X548602Y-19488D02*
X543484D01*
Y-24606D01*
X548602D01*
Y-19488D01*
D02*
G37*
G36*
X541516D02*
X536398D01*
Y-24606D01*
X541516D01*
Y-19488D01*
D02*
G37*
G36*
X404902D02*
X399783D01*
Y-24606D01*
X404902D01*
Y-19488D01*
D02*
G37*
G36*
X397815D02*
X392697D01*
Y-24606D01*
X397815D01*
Y-19488D01*
D02*
G37*
G36*
X288425Y-23328D02*
Y-25984D01*
X291082D01*
X290708Y-25082D01*
X290108Y-24301D01*
X289327Y-23701D01*
X288425Y-23328D01*
D02*
G37*
G36*
X286457Y-23328D02*
X285555Y-23701D01*
X284773Y-24301D01*
X284174Y-25082D01*
X283800Y-25984D01*
X286457D01*
Y-23328D01*
D02*
G37*
G36*
X836980Y-23088D02*
X834117Y-25951D01*
X834398Y-26167D01*
X835643Y-26683D01*
X836980Y-26858D01*
X838316Y-26683D01*
X839561Y-26167D01*
X839842Y-25951D01*
X836980Y-23088D01*
D02*
G37*
G36*
X471049Y-25256D02*
X467702D01*
Y-28209D01*
X471049D01*
Y-25256D01*
D02*
G37*
G36*
X465734D02*
X462387D01*
Y-28209D01*
X465734D01*
Y-25256D01*
D02*
G37*
G36*
X461372Y-25256D02*
X458025D01*
Y-28209D01*
X461372D01*
Y-25256D01*
D02*
G37*
G36*
X456057D02*
X452710D01*
Y-28209D01*
X456057D01*
Y-25256D01*
D02*
G37*
G36*
X451694Y-25256D02*
X448348D01*
Y-28209D01*
X451694D01*
Y-25256D01*
D02*
G37*
G36*
X446380D02*
X443033D01*
Y-28209D01*
X446380D01*
Y-25256D01*
D02*
G37*
G36*
X442017Y-25256D02*
X438671D01*
Y-28209D01*
X442017D01*
Y-25256D01*
D02*
G37*
G36*
X436702D02*
X433356D01*
Y-28209D01*
X436702D01*
Y-25256D01*
D02*
G37*
G36*
X432340Y-25256D02*
X428994D01*
Y-28209D01*
X432340D01*
Y-25256D01*
D02*
G37*
G36*
X427025D02*
X423679D01*
Y-28209D01*
X427025D01*
Y-25256D01*
D02*
G37*
G36*
X241580Y-23622D02*
X238779D01*
Y-29375D01*
X239272D01*
X240155Y-29199D01*
X240904Y-28699D01*
X241404Y-27950D01*
X241580Y-27067D01*
Y-23622D01*
D02*
G37*
G36*
X236811D02*
X234011D01*
Y-27067D01*
X234187Y-27950D01*
X234687Y-28699D01*
X235436Y-29199D01*
X236319Y-29375D01*
X236811D01*
Y-23622D01*
D02*
G37*
G36*
X107721Y-23622D02*
X104921D01*
Y-29375D01*
X105413D01*
X106297Y-29199D01*
X107045Y-28699D01*
X107546Y-27950D01*
X107721Y-27067D01*
Y-23622D01*
D02*
G37*
G36*
X102953D02*
X100153D01*
Y-27067D01*
X100328Y-27950D01*
X100829Y-28699D01*
X101577Y-29199D01*
X102461Y-29375D01*
X102953D01*
Y-23622D01*
D02*
G37*
G36*
X596577Y-20908D02*
X595446Y-21056D01*
X594393Y-21493D01*
X593488Y-22187D01*
X592794Y-23092D01*
X592358Y-24145D01*
X592209Y-25276D01*
X592358Y-26406D01*
X592794Y-27460D01*
X593488Y-28364D01*
X594393Y-29058D01*
X595446Y-29495D01*
X596577Y-29644D01*
X597707Y-29495D01*
X598761Y-29058D01*
X599665Y-28364D01*
X600360Y-27460D01*
X600796Y-26406D01*
X600945Y-25276D01*
X600796Y-24145D01*
X600360Y-23092D01*
X599665Y-22187D01*
X598761Y-21493D01*
X597707Y-21056D01*
X596577Y-20908D01*
D02*
G37*
G36*
X126532Y-26229D02*
X122791D01*
Y-30363D01*
X126532D01*
Y-26229D01*
D02*
G37*
G36*
X120823D02*
X117083D01*
Y-30363D01*
X120823D01*
Y-26229D01*
D02*
G37*
G36*
X291082Y-27953D02*
X288425D01*
Y-30609D01*
X289327Y-30235D01*
X290108Y-29636D01*
X290708Y-28855D01*
X291082Y-27953D01*
D02*
G37*
G36*
X286457D02*
X283800D01*
X284174Y-28855D01*
X284773Y-29636D01*
X285555Y-30235D01*
X286457Y-30609D01*
Y-27953D01*
D02*
G37*
G36*
X154976Y-24457D02*
X150449D01*
Y-30756D01*
X154976D01*
Y-24457D01*
D02*
G37*
G36*
X148480D02*
X143953D01*
Y-30756D01*
X148480D01*
Y-24457D01*
D02*
G37*
G36*
X548602Y-26575D02*
X543484D01*
Y-31693D01*
X548602D01*
Y-26575D01*
D02*
G37*
G36*
X541516D02*
X536398D01*
Y-31693D01*
X541516D01*
Y-26575D01*
D02*
G37*
G36*
X404902D02*
X399783D01*
Y-31693D01*
X404902D01*
Y-26575D01*
D02*
G37*
G36*
X397815D02*
X392697D01*
Y-31693D01*
X397815D01*
Y-26575D01*
D02*
G37*
G36*
X557500Y-19261D02*
X556265Y-19383D01*
X555078Y-19743D01*
X553983Y-20328D01*
X553024Y-21115D01*
X552237Y-22074D01*
X551652Y-23168D01*
X551292Y-24356D01*
X551170Y-25591D01*
X551292Y-26825D01*
X551652Y-28013D01*
X552237Y-29107D01*
X553024Y-30066D01*
X553856Y-30749D01*
Y-32034D01*
X552063Y-33828D01*
X537307D01*
X532842Y-29363D01*
X532342Y-28979D01*
Y-28642D01*
X531733D01*
X531240Y-28438D01*
X530315Y-28316D01*
X524016D01*
X523091Y-28438D01*
X522598Y-28642D01*
X515689D01*
Y-35138D01*
X522598D01*
X523091Y-35342D01*
X524016Y-35464D01*
X528835D01*
X533300Y-39929D01*
X534040Y-40497D01*
X534902Y-40854D01*
X535827Y-40975D01*
X553543D01*
X554468Y-40854D01*
X555330Y-40497D01*
X556070Y-39929D01*
X559957Y-36042D01*
X559957Y-36042D01*
X560525Y-35302D01*
X560882Y-34440D01*
X561004Y-33515D01*
X561004Y-33515D01*
Y-30860D01*
X561017Y-30854D01*
X561976Y-30066D01*
X562763Y-29107D01*
X563348Y-28013D01*
X563708Y-26825D01*
X563830Y-25591D01*
X563708Y-24356D01*
X563348Y-23168D01*
X562763Y-22074D01*
X561976Y-21115D01*
X561017Y-20328D01*
X559922Y-19743D01*
X558735Y-19383D01*
X557500Y-19261D01*
D02*
G37*
G36*
X72835Y-32480D02*
Y-35236D01*
X75197D01*
Y-32480D01*
X72835D01*
D02*
G37*
G36*
X298268Y-32175D02*
Y-35827D01*
X301919D01*
X301886Y-35578D01*
X301410Y-34428D01*
X300653Y-33441D01*
X299666Y-32684D01*
X298517Y-32208D01*
X298268Y-32175D01*
D02*
G37*
G36*
X296299D02*
X296050Y-32208D01*
X294901Y-32684D01*
X293914Y-33441D01*
X293157Y-34428D01*
X292681Y-35578D01*
X292648Y-35827D01*
X296299D01*
Y-32175D01*
D02*
G37*
G36*
X785783Y-30235D02*
X781059D01*
Y-35943D01*
X785783D01*
Y-30235D01*
D02*
G37*
G36*
X779090D02*
X774366D01*
Y-35943D01*
X779090D01*
Y-30235D01*
D02*
G37*
G36*
X737752D02*
X733028D01*
Y-35943D01*
X737752D01*
Y-30235D01*
D02*
G37*
G36*
X731059D02*
X726335D01*
Y-35943D01*
X731059D01*
Y-30235D01*
D02*
G37*
G36*
X126532Y-32331D02*
X122791D01*
Y-36465D01*
X126532D01*
Y-32331D01*
D02*
G37*
G36*
X120823D02*
X117083D01*
Y-36465D01*
X120823D01*
Y-32331D01*
D02*
G37*
G36*
X855075Y-34630D02*
X853739Y-34806D01*
X852494Y-35321D01*
X852213Y-35537D01*
X855075Y-38400D01*
X857938Y-35537D01*
X857657Y-35321D01*
X856411Y-34806D01*
X855075Y-34630D01*
D02*
G37*
G36*
X154976Y-32725D02*
X150449D01*
Y-39024D01*
X154976D01*
Y-32725D01*
D02*
G37*
G36*
X148480D02*
X143953D01*
Y-39024D01*
X148480D01*
Y-32725D01*
D02*
G37*
G36*
X596577Y-30907D02*
X595446Y-31056D01*
X594393Y-31493D01*
X593488Y-32187D01*
X592794Y-33092D01*
X592358Y-34145D01*
X592209Y-35276D01*
X592358Y-36406D01*
X592794Y-37460D01*
X593488Y-38364D01*
X594393Y-39058D01*
X595446Y-39495D01*
X596577Y-39644D01*
X597707Y-39495D01*
X598761Y-39058D01*
X599665Y-38364D01*
X600360Y-37460D01*
X600796Y-36406D01*
X600945Y-35276D01*
X600796Y-34145D01*
X600360Y-33092D01*
X599665Y-32187D01*
X598761Y-31493D01*
X597707Y-31056D01*
X596577Y-30907D01*
D02*
G37*
G36*
X75197Y-37205D02*
X72835D01*
Y-39961D01*
X75197D01*
Y-37205D01*
D02*
G37*
G36*
X68504Y-31693D02*
X60236D01*
Y-34013D01*
X57677D01*
X56832Y-34181D01*
X56116Y-34659D01*
X53163Y-37612D01*
X52685Y-38328D01*
X52517Y-39173D01*
Y-68504D01*
X52685Y-69349D01*
X53163Y-70065D01*
X58577Y-75479D01*
X59293Y-75957D01*
X60138Y-76125D01*
X60441D01*
Y-81201D01*
Y-85532D01*
X60972D01*
X61228Y-85925D01*
X61228Y-86032D01*
Y-87697D01*
X67528D01*
Y-86032D01*
X67528Y-85925D01*
X67784Y-85532D01*
X68315D01*
Y-85122D01*
X68777Y-84931D01*
X70827Y-86980D01*
Y-92126D01*
X71114D01*
X71614Y-92126D01*
Y-94488D01*
X75354D01*
Y-95472D01*
X76339D01*
Y-98819D01*
X78501D01*
Y-125984D01*
X78669Y-126829D01*
X79147Y-127545D01*
X103951Y-152348D01*
X104667Y-152827D01*
X105512Y-152995D01*
X166408D01*
X171572Y-158159D01*
Y-213259D01*
X154896Y-229935D01*
X154417Y-230651D01*
X154249Y-231496D01*
Y-240945D01*
X154417Y-241790D01*
X154896Y-242506D01*
X160114Y-247724D01*
X159922Y-248186D01*
X129605D01*
X129414Y-247724D01*
X159632Y-217506D01*
X160111Y-216790D01*
X160279Y-215945D01*
Y-187096D01*
X164676Y-182698D01*
X164724Y-182704D01*
X165547Y-182596D01*
X166313Y-182279D01*
X166971Y-181774D01*
X167476Y-181116D01*
X167793Y-180350D01*
X167901Y-179528D01*
X167793Y-178705D01*
X167476Y-177939D01*
X166971Y-177281D01*
X166313Y-176776D01*
X165945Y-176624D01*
X165828Y-176034D01*
X166251Y-175611D01*
X166299Y-175618D01*
X167121Y-175510D01*
X167888Y-175192D01*
X168545Y-174687D01*
X169050Y-174029D01*
X169368Y-173263D01*
X169476Y-172441D01*
X169368Y-171619D01*
X169050Y-170853D01*
X168545Y-170195D01*
X167888Y-169690D01*
X167121Y-169372D01*
X166299Y-169264D01*
X165477Y-169372D01*
X164711Y-169690D01*
X164413Y-169919D01*
X163943Y-170062D01*
X163754Y-169834D01*
X163427Y-169407D01*
X162769Y-168902D01*
X162291Y-168704D01*
X162164Y-168123D01*
X165327Y-164960D01*
X165940Y-164880D01*
X166707Y-164562D01*
X167364Y-164057D01*
X167869Y-163399D01*
X168187Y-162633D01*
X168295Y-161811D01*
X168187Y-160989D01*
X167869Y-160223D01*
X167364Y-159565D01*
X166707Y-159060D01*
X165940Y-158742D01*
X165118Y-158634D01*
X164296Y-158742D01*
X163530Y-159060D01*
X162872Y-159565D01*
X162367Y-160223D01*
X162050Y-160989D01*
X161941Y-161811D01*
X161975Y-162068D01*
X158070Y-165973D01*
X157448Y-165887D01*
X157128Y-165470D01*
X156470Y-164965D01*
X155704Y-164648D01*
X154882Y-164540D01*
X154060Y-164648D01*
X153294Y-164965D01*
X152636Y-165470D01*
X152131Y-166128D01*
X151813Y-166894D01*
X151705Y-167717D01*
X151711Y-167765D01*
X144994Y-174482D01*
X144515Y-175198D01*
X144347Y-176043D01*
Y-206369D01*
X125924Y-224792D01*
X28265D01*
X27589Y-223911D01*
X26684Y-223217D01*
X25631Y-222781D01*
X24500Y-222632D01*
X23370Y-222781D01*
X22316Y-223217D01*
X21411Y-223911D01*
X20717Y-224816D01*
X20281Y-225869D01*
X20132Y-227000D01*
X20281Y-228131D01*
X20640Y-228997D01*
X20449Y-229457D01*
X20364Y-229544D01*
X20193Y-229570D01*
X18723Y-228101D01*
X18868Y-227000D01*
X18719Y-225869D01*
X18283Y-224816D01*
X17589Y-223911D01*
X16684Y-223217D01*
X15631Y-222781D01*
X14500Y-222632D01*
X13370Y-222781D01*
X12316Y-223217D01*
X11411Y-223911D01*
X10717Y-224816D01*
X10281Y-225869D01*
X10132Y-227000D01*
X10281Y-228131D01*
X10717Y-229184D01*
X11411Y-230089D01*
X12316Y-230783D01*
X13370Y-231219D01*
X14500Y-231368D01*
X15601Y-231223D01*
X17600Y-233223D01*
X17672Y-233761D01*
X17649Y-233787D01*
X17235Y-233640D01*
X16684Y-233217D01*
X15631Y-232781D01*
X14500Y-232632D01*
X13370Y-232781D01*
X12316Y-233217D01*
X11411Y-233911D01*
X10717Y-234816D01*
X10281Y-235870D01*
X10132Y-237000D01*
X10281Y-238130D01*
X10717Y-239184D01*
X11411Y-240089D01*
X12316Y-240783D01*
X13370Y-241219D01*
X14500Y-241368D01*
X15601Y-241223D01*
X17913Y-243535D01*
X18629Y-244014D01*
X19474Y-244182D01*
X20639D01*
X20860Y-244630D01*
X20717Y-244816D01*
X20281Y-245869D01*
X20132Y-247000D01*
X20253Y-247920D01*
X19779Y-248153D01*
X18840Y-247214D01*
X18868Y-247000D01*
X18719Y-245869D01*
X18283Y-244816D01*
X17589Y-243911D01*
X16684Y-243217D01*
X15631Y-242781D01*
X14500Y-242632D01*
X13370Y-242781D01*
X12316Y-243217D01*
X11411Y-243911D01*
X10717Y-244816D01*
X10281Y-245869D01*
X10132Y-247000D01*
X10281Y-248130D01*
X10717Y-249184D01*
X11411Y-250089D01*
X12316Y-250783D01*
X13370Y-251219D01*
X14500Y-251368D01*
X15631Y-251219D01*
X16317Y-250935D01*
X19012Y-253630D01*
X19728Y-254108D01*
X20573Y-254276D01*
X20814D01*
X21035Y-254725D01*
X20889Y-254915D01*
X20473Y-255921D01*
X20460Y-256016D01*
X28540D01*
X28527Y-255921D01*
X28111Y-254915D01*
X27944Y-254697D01*
X28165Y-254249D01*
X51326D01*
X51517Y-254711D01*
X31436Y-274792D01*
X28265D01*
X27589Y-273911D01*
X26684Y-273217D01*
X25631Y-272781D01*
X24500Y-272632D01*
X23370Y-272781D01*
X22316Y-273217D01*
X21411Y-273911D01*
X20717Y-274816D01*
X20281Y-275869D01*
X20132Y-277000D01*
X20281Y-278131D01*
X20717Y-279184D01*
X20838Y-279341D01*
X20617Y-279790D01*
X19502D01*
X18658Y-279958D01*
X17941Y-280436D01*
X17917Y-280416D01*
X17696Y-280227D01*
X17589Y-280089D01*
X17855Y-279742D01*
X18283Y-279184D01*
X18719Y-278131D01*
X18868Y-277000D01*
X18719Y-275869D01*
X18283Y-274816D01*
X17589Y-273911D01*
X16684Y-273217D01*
X15631Y-272781D01*
X14500Y-272632D01*
X13370Y-272781D01*
X12316Y-273217D01*
X11411Y-273911D01*
X10717Y-274816D01*
X10281Y-275869D01*
X10132Y-277000D01*
X10281Y-278131D01*
X10717Y-279184D01*
X11411Y-280089D01*
X12316Y-280783D01*
X13370Y-281219D01*
X14500Y-281368D01*
X15631Y-281219D01*
X16684Y-280783D01*
X17244Y-280353D01*
X17679Y-280247D01*
X17702Y-280273D01*
X17642Y-280736D01*
X15601Y-282777D01*
X14500Y-282632D01*
X13370Y-282781D01*
X12316Y-283217D01*
X11411Y-283911D01*
X10717Y-284816D01*
X10281Y-285870D01*
X10132Y-287000D01*
X10281Y-288130D01*
X10717Y-289184D01*
X11411Y-290089D01*
X12316Y-290783D01*
X13370Y-291219D01*
X14500Y-291368D01*
X15631Y-291219D01*
X16684Y-290783D01*
X17589Y-290089D01*
X18283Y-289184D01*
X18719Y-288130D01*
X18868Y-287000D01*
X18723Y-285899D01*
X20180Y-284442D01*
X20354Y-284468D01*
X20433Y-284544D01*
X20634Y-285016D01*
X20281Y-285870D01*
X20132Y-287000D01*
X20281Y-288130D01*
X20717Y-289184D01*
X21411Y-290089D01*
X22316Y-290783D01*
X23370Y-291219D01*
X24500Y-291368D01*
X25631Y-291219D01*
X26684Y-290783D01*
X27589Y-290089D01*
X28265Y-289208D01*
X31405D01*
X32250Y-289040D01*
X32967Y-288561D01*
X56525Y-265003D01*
X166031D01*
X166061Y-265042D01*
X166719Y-265546D01*
X167485Y-265864D01*
X168307Y-265972D01*
X169129Y-265864D01*
X169896Y-265546D01*
X170553Y-265042D01*
X171058Y-264384D01*
X171376Y-263617D01*
X171484Y-262795D01*
X171376Y-261973D01*
X171058Y-261207D01*
X170553Y-260549D01*
X169896Y-260044D01*
X169129Y-259727D01*
X168307Y-259618D01*
X167485Y-259727D01*
X166719Y-260044D01*
X166061Y-260549D01*
X166031Y-260588D01*
X125667D01*
X125476Y-260087D01*
X130599Y-254964D01*
X142593D01*
X142927Y-255464D01*
X142758Y-255871D01*
X142650Y-256693D01*
X142758Y-257515D01*
X143076Y-258281D01*
X143580Y-258939D01*
X144238Y-259444D01*
X145005Y-259761D01*
X145827Y-259870D01*
X146649Y-259761D01*
X147415Y-259444D01*
X148073Y-258939D01*
X148103Y-258901D01*
X172685D01*
X172714Y-258939D01*
X173372Y-259444D01*
X174138Y-259761D01*
X174961Y-259870D01*
X175783Y-259761D01*
X176549Y-259444D01*
X177207Y-258939D01*
X177712Y-258281D01*
X178029Y-257515D01*
X178137Y-256693D01*
X178029Y-255871D01*
X177861Y-255464D01*
X178195Y-254964D01*
X179164D01*
X183084Y-258884D01*
X183801Y-259363D01*
X184646Y-259531D01*
X199299D01*
X199328Y-259569D01*
X199986Y-260074D01*
X200753Y-260391D01*
X201575Y-260500D01*
X202397Y-260391D01*
X203163Y-260074D01*
X203821Y-259569D01*
X204326Y-258911D01*
X204643Y-258145D01*
X204752Y-257323D01*
X204643Y-256501D01*
X204364Y-255826D01*
X204466Y-255506D01*
X204606Y-255278D01*
X204666Y-255268D01*
X207477Y-258080D01*
Y-261031D01*
X207439Y-261061D01*
X206934Y-261719D01*
X206616Y-262485D01*
X206508Y-263307D01*
X206616Y-264129D01*
X206934Y-264896D01*
X207439Y-265553D01*
X208097Y-266058D01*
X208863Y-266376D01*
X209685Y-266484D01*
X210507Y-266376D01*
X211273Y-266058D01*
X211931Y-265553D01*
X212436Y-264896D01*
X212754Y-264129D01*
X212862Y-263307D01*
X212754Y-262485D01*
X212436Y-261719D01*
X211931Y-261061D01*
X211893Y-261031D01*
Y-257165D01*
X211725Y-256321D01*
X211246Y-255604D01*
X206837Y-251195D01*
X206120Y-250716D01*
X205276Y-250548D01*
X184930D01*
X183215Y-248833D01*
X182498Y-248354D01*
X181653Y-248186D01*
X179281D01*
X178867Y-247686D01*
X178925Y-247244D01*
X178817Y-246422D01*
X178499Y-245656D01*
X177994Y-244998D01*
X177336Y-244493D01*
X176570Y-244176D01*
X175748Y-244067D01*
X174926Y-244176D01*
X174160Y-244493D01*
X173502Y-244998D01*
X173472Y-245036D01*
X163670D01*
X158665Y-240030D01*
Y-232411D01*
X174653Y-216422D01*
X175115Y-216613D01*
Y-234732D01*
X175090Y-234751D01*
X165995D01*
X165927Y-234663D01*
X165269Y-234158D01*
X164503Y-233841D01*
X163681Y-233733D01*
X162859Y-233841D01*
X162093Y-234158D01*
X161435Y-234663D01*
X160930Y-235321D01*
X160613Y-236087D01*
X160504Y-236910D01*
X160613Y-237732D01*
X160930Y-238498D01*
X161435Y-239156D01*
X162093Y-239661D01*
X162859Y-239978D01*
X163681Y-240086D01*
X164503Y-239978D01*
X165269Y-239661D01*
X165913Y-239166D01*
X170669D01*
X171061Y-239666D01*
X170996Y-240158D01*
X171105Y-240980D01*
X171422Y-241746D01*
X171927Y-242404D01*
X172585Y-242909D01*
X173351Y-243226D01*
X174173Y-243334D01*
X174995Y-243226D01*
X175762Y-242909D01*
X176420Y-242404D01*
X176449Y-242365D01*
X179291D01*
X180136Y-242197D01*
X180852Y-241719D01*
X183215Y-239356D01*
X183693Y-238640D01*
X183861Y-237795D01*
Y-157638D01*
X183693Y-156793D01*
X183215Y-156077D01*
X171640Y-144502D01*
X170924Y-144023D01*
X170079Y-143855D01*
X109576D01*
X88034Y-122314D01*
Y-87008D01*
X87866Y-86163D01*
X87388Y-85447D01*
X78192Y-76251D01*
Y-73425D01*
X80709D01*
Y-73138D01*
X80709Y-72638D01*
X83071D01*
Y-68898D01*
Y-65158D01*
X80709D01*
X80709Y-64657D01*
Y-64370D01*
X75563D01*
X74888Y-63695D01*
X74172Y-63216D01*
X73327Y-63048D01*
X68315D01*
Y-62303D01*
X67528D01*
Y-61909D01*
X61228D01*
Y-62303D01*
X60441D01*
Y-68209D01*
Y-70391D01*
X59941Y-70598D01*
X56932Y-67589D01*
Y-40088D01*
X58592Y-38428D01*
X60236D01*
Y-40748D01*
X68504D01*
Y-40461D01*
X68504Y-39961D01*
X69004Y-39961D01*
X70866D01*
Y-36220D01*
Y-32480D01*
X68504Y-32480D01*
X68504Y-31980D01*
Y-31693D01*
D02*
G37*
G36*
X296299Y-37795D02*
X292648D01*
X292681Y-38044D01*
X293157Y-39194D01*
X293914Y-40181D01*
X294901Y-40938D01*
X296050Y-41414D01*
X296299Y-41447D01*
Y-37795D01*
D02*
G37*
G36*
X301919D02*
X298268D01*
Y-41447D01*
X298517Y-41414D01*
X299666Y-40938D01*
X300653Y-40181D01*
X301410Y-39194D01*
X301886Y-38044D01*
X301919Y-37795D01*
D02*
G37*
G36*
X859330Y-36929D02*
X856467Y-39792D01*
X859330Y-42655D01*
X859546Y-42373D01*
X860062Y-41128D01*
X860238Y-39792D01*
X860062Y-38456D01*
X859546Y-37211D01*
X859330Y-36929D01*
D02*
G37*
G36*
X850821Y-36929D02*
X850605Y-37211D01*
X850089Y-38456D01*
X849913Y-39792D01*
X850089Y-41128D01*
X850605Y-42373D01*
X850821Y-42655D01*
X853683Y-39792D01*
X850821Y-36929D01*
D02*
G37*
G36*
X785783Y-37912D02*
X781059D01*
Y-43620D01*
X785783D01*
Y-37912D01*
D02*
G37*
G36*
X779090D02*
X774366D01*
Y-43620D01*
X779090D01*
Y-37912D01*
D02*
G37*
G36*
X737752D02*
X733028D01*
Y-43620D01*
X737752D01*
Y-37912D01*
D02*
G37*
G36*
X731059D02*
X726335D01*
Y-43620D01*
X731059D01*
Y-37912D01*
D02*
G37*
G36*
X25405Y-42028D02*
X24028D01*
Y-43799D01*
X25405D01*
Y-42028D01*
D02*
G37*
G36*
X50598D02*
X48433D01*
Y-43799D01*
X50598D01*
Y-42028D01*
D02*
G37*
G36*
X46465D02*
X44299D01*
Y-43799D01*
X46465D01*
Y-42028D01*
D02*
G37*
G36*
X13004D02*
X7689D01*
Y-43799D01*
X13004D01*
Y-42028D01*
D02*
G37*
G36*
X22059D02*
X20681D01*
Y-43799D01*
X22059D01*
Y-42028D01*
D02*
G37*
G36*
X597561Y-41236D02*
Y-44291D01*
X600617D01*
X600604Y-44196D01*
X600188Y-43191D01*
X599525Y-42327D01*
X598662Y-41665D01*
X597656Y-41248D01*
X597561Y-41236D01*
D02*
G37*
G36*
X595593D02*
X595498Y-41248D01*
X594492Y-41665D01*
X593629Y-42327D01*
X592966Y-43191D01*
X592549Y-44196D01*
X592537Y-44291D01*
X595593D01*
Y-41236D01*
D02*
G37*
G36*
X579134Y-41339D02*
X575787D01*
Y-44291D01*
X579134D01*
Y-41339D01*
D02*
G37*
G36*
X330276Y-19291D02*
X317677D01*
Y-21409D01*
X307126D01*
X305687Y-21599D01*
X304346Y-22154D01*
X303195Y-23037D01*
X302311Y-24189D01*
X301756Y-25530D01*
X301567Y-26969D01*
X301756Y-28407D01*
X302311Y-29748D01*
X303195Y-30900D01*
X304346Y-31783D01*
X305687Y-32338D01*
X307126Y-32528D01*
X319736D01*
Y-38681D01*
X319783Y-39042D01*
Y-44882D01*
X331398D01*
Y-33071D01*
X330855D01*
Y-26909D01*
X330665Y-25471D01*
X330276Y-24530D01*
Y-19291D01*
D02*
G37*
G36*
X855075Y-41184D02*
X852213Y-44047D01*
X852494Y-44263D01*
X853739Y-44778D01*
X855075Y-44954D01*
X856411Y-44778D01*
X857657Y-44263D01*
X857938Y-44047D01*
X855075Y-41184D01*
D02*
G37*
G36*
X225197Y-23181D02*
X224803D01*
X224442Y-23228D01*
X219291D01*
Y-26390D01*
X216989Y-28693D01*
X213028D01*
X212666Y-28740D01*
X204760D01*
Y-46063D01*
X218539D01*
Y-39811D01*
X219291D01*
X220730Y-39622D01*
X222071Y-39066D01*
X223222Y-38183D01*
X227153Y-34252D01*
X231102D01*
Y-23228D01*
X225558D01*
X225197Y-23181D01*
D02*
G37*
G36*
X183126Y-23670D02*
X170528D01*
Y-39811D01*
X171945D01*
X172202Y-40205D01*
Y-42961D01*
X175548D01*
Y-44930D01*
X172202D01*
Y-46898D01*
X171555D01*
Y-46752D01*
X155020D01*
Y-47509D01*
X150745D01*
X148646Y-45410D01*
X147906Y-44842D01*
X147044Y-44485D01*
X146119Y-44363D01*
X140311D01*
Y-41048D01*
X137192D01*
Y-37252D01*
X139130D01*
Y-25441D01*
X128106D01*
Y-37252D01*
X130044D01*
Y-41048D01*
X122988D01*
Y-54827D01*
X140311D01*
Y-51511D01*
X144639D01*
X144851Y-51724D01*
Y-69291D01*
X144973Y-70216D01*
X145330Y-71078D01*
X145898Y-71819D01*
X151860Y-77780D01*
X151860Y-77780D01*
X152600Y-78348D01*
X153462Y-78706D01*
X154387Y-78827D01*
X154387Y-78827D01*
X155807D01*
Y-80216D01*
X163031D01*
X163287Y-80610D01*
Y-80898D01*
X163287Y-81398D01*
X162787Y-81398D01*
X160925D01*
Y-85138D01*
Y-88878D01*
X163287Y-88878D01*
X163287Y-89378D01*
Y-89665D01*
X171555D01*
Y-87918D01*
X213681D01*
X214401Y-87823D01*
X215071Y-87545D01*
X215647Y-87103D01*
X219288Y-83462D01*
X219730Y-82886D01*
X220008Y-82215D01*
X220103Y-81496D01*
Y-68963D01*
X220008Y-68243D01*
X219730Y-67573D01*
X219288Y-66997D01*
X217905Y-65613D01*
X217329Y-65171D01*
X216658Y-64894D01*
X215939Y-64799D01*
X215160D01*
X214764Y-64547D01*
X214764Y-64299D01*
Y-63563D01*
X210039D01*
X205315D01*
Y-64323D01*
X205315Y-64547D01*
X204929Y-64823D01*
X204527D01*
Y-70335D01*
Y-75335D01*
Y-80335D01*
X213846D01*
X214053Y-80835D01*
X212530Y-82358D01*
X171555D01*
Y-80610D01*
X171555D01*
X171555Y-80216D01*
X171555D01*
Y-72203D01*
X172017Y-72011D01*
X174550Y-74544D01*
X175126Y-74986D01*
X175796Y-75264D01*
X176516Y-75358D01*
X183659D01*
X184055Y-75610D01*
X184055Y-75858D01*
Y-76594D01*
X188779D01*
X193504D01*
Y-75835D01*
X193504Y-75610D01*
X193890Y-75335D01*
X194291D01*
Y-70335D01*
Y-65335D01*
Y-59823D01*
X191989D01*
X191852Y-59323D01*
X192490Y-58685D01*
X202362D01*
Y-60433D01*
X204888D01*
X205315Y-60610D01*
X205315Y-60933D01*
Y-61594D01*
X210039D01*
X214764D01*
Y-60610D01*
X215190Y-60433D01*
X218110D01*
Y-59082D01*
X218110Y-59082D01*
X218933Y-58974D01*
X219699Y-58657D01*
X220357Y-58152D01*
X220861Y-57494D01*
X221179Y-56728D01*
X221287Y-55905D01*
X221179Y-55083D01*
X220861Y-54317D01*
X220357Y-53659D01*
X219699Y-53154D01*
X218933Y-52837D01*
X218110Y-52729D01*
X218110Y-52729D01*
Y-51378D01*
X202362D01*
Y-53126D01*
X191339D01*
X190619Y-53221D01*
X189949Y-53498D01*
X189373Y-53940D01*
X187011Y-56302D01*
X186569Y-56878D01*
X186291Y-57548D01*
X186197Y-58268D01*
Y-59823D01*
X183268D01*
Y-64462D01*
X182898Y-64510D01*
X182132Y-64828D01*
X181474Y-65332D01*
X180969Y-65990D01*
X180652Y-66756D01*
X180544Y-67579D01*
X180652Y-68401D01*
X180969Y-69167D01*
X181110Y-69351D01*
X180889Y-69799D01*
X177667D01*
X173225Y-65357D01*
X172650Y-64916D01*
X171979Y-64638D01*
X171555Y-64582D01*
Y-62894D01*
X155020D01*
Y-70178D01*
X154558Y-70370D01*
X151999Y-67811D01*
Y-54656D01*
X155020D01*
Y-55413D01*
X171412D01*
Y-55953D01*
X179680D01*
Y-55666D01*
X179680Y-55166D01*
X182042D01*
Y-51426D01*
X183026D01*
Y-50441D01*
X186373D01*
Y-48473D01*
X187163D01*
Y-46523D01*
X187260Y-46063D01*
X201039D01*
Y-28740D01*
X187260D01*
Y-28954D01*
X183126D01*
Y-23670D01*
D02*
G37*
G36*
X50598Y-45768D02*
X48433D01*
Y-47539D01*
X50598D01*
Y-45768D01*
D02*
G37*
G36*
X46465D02*
X44299D01*
Y-47539D01*
X46465D01*
Y-45768D01*
D02*
G37*
G36*
X25405D02*
X24028D01*
Y-47539D01*
X25405D01*
Y-45768D01*
D02*
G37*
G36*
X22059D02*
X20681D01*
Y-47539D01*
X22059D01*
Y-45768D01*
D02*
G37*
G36*
X13004D02*
X7689D01*
Y-47539D01*
X13004D01*
Y-45768D01*
D02*
G37*
G36*
X67528Y-46358D02*
X65362D01*
Y-47539D01*
X67528D01*
Y-46358D01*
D02*
G37*
G36*
X63394D02*
X61228D01*
Y-47539D01*
X63394D01*
Y-46358D01*
D02*
G37*
G36*
X579134Y-46260D02*
X575787D01*
Y-49213D01*
X579134D01*
Y-46260D01*
D02*
G37*
G36*
X573819D02*
X570472D01*
Y-49213D01*
X573819D01*
Y-46260D01*
D02*
G37*
G36*
X595593Y-46260D02*
X592537D01*
X592549Y-46355D01*
X592966Y-47360D01*
X593629Y-48224D01*
X594492Y-48886D01*
X595498Y-49303D01*
X595593Y-49316D01*
Y-46260D01*
D02*
G37*
G36*
X600617D02*
X597561D01*
Y-49316D01*
X597656Y-49303D01*
X598662Y-48886D01*
X599525Y-48224D01*
X600188Y-47360D01*
X600604Y-46355D01*
X600617Y-46260D01*
D02*
G37*
G36*
X373622Y-41732D02*
X369882D01*
Y-49606D01*
X373622D01*
Y-41732D01*
D02*
G37*
G36*
X367913D02*
X364173D01*
Y-49606D01*
X367913D01*
Y-41732D01*
D02*
G37*
G36*
X498819D02*
X495079D01*
Y-49606D01*
X498819D01*
Y-41732D01*
D02*
G37*
G36*
X493110D02*
X489370D01*
Y-49606D01*
X493110D01*
Y-41732D01*
D02*
G37*
G36*
X186373Y-52410D02*
X184011D01*
Y-55166D01*
X186373D01*
Y-52410D01*
D02*
G37*
G36*
X298268Y-51860D02*
Y-55512D01*
X301919D01*
X301886Y-55263D01*
X301410Y-54114D01*
X300653Y-53127D01*
X299666Y-52369D01*
X298517Y-51893D01*
X298268Y-51860D01*
D02*
G37*
G36*
X296299D02*
X296050Y-51893D01*
X294901Y-52369D01*
X293914Y-53127D01*
X293157Y-54114D01*
X292681Y-55263D01*
X292648Y-55512D01*
X296299D01*
Y-51860D01*
D02*
G37*
G36*
X498819Y-51575D02*
X495079D01*
Y-59449D01*
X498819D01*
Y-51575D01*
D02*
G37*
G36*
X493110D02*
X489370D01*
Y-59449D01*
X493110D01*
Y-51575D01*
D02*
G37*
G36*
X373622Y-51575D02*
X369882D01*
Y-59449D01*
X373622D01*
Y-51575D01*
D02*
G37*
G36*
X367913D02*
X364173D01*
Y-59449D01*
X367913D01*
Y-51575D01*
D02*
G37*
G36*
X842548Y-44803D02*
X835031Y-52319D01*
X842548Y-59836D01*
X850064Y-52319D01*
X842548Y-44803D01*
D02*
G37*
G36*
X296299Y-57480D02*
X292648D01*
X292681Y-57729D01*
X293157Y-58879D01*
X293914Y-59865D01*
X294901Y-60623D01*
X296050Y-61099D01*
X296299Y-61132D01*
Y-57480D01*
D02*
G37*
G36*
X301919D02*
X298268D01*
Y-61132D01*
X298517Y-61099D01*
X299666Y-60623D01*
X300653Y-59865D01*
X301410Y-58879D01*
X301886Y-57729D01*
X301919Y-57480D01*
D02*
G37*
G36*
X747437Y-59792D02*
Y-63443D01*
X751088D01*
X751056Y-63194D01*
X750580Y-62045D01*
X749822Y-61058D01*
X748835Y-60301D01*
X747686Y-59825D01*
X747437Y-59792D01*
D02*
G37*
G36*
X745469D02*
X745219Y-59825D01*
X744070Y-60301D01*
X743083Y-61058D01*
X742326Y-62045D01*
X741850Y-63194D01*
X741817Y-63443D01*
X745469D01*
Y-59792D01*
D02*
G37*
G36*
X67528Y-49311D02*
X61228D01*
Y-49311D01*
X60441D01*
Y-55216D01*
Y-59547D01*
X61228D01*
Y-59941D01*
X67528D01*
Y-59547D01*
X68315D01*
Y-58802D01*
X80483D01*
X86376Y-64696D01*
X86185Y-65158D01*
X85039D01*
Y-67913D01*
X87402D01*
Y-66374D01*
X87863Y-66183D01*
X90706Y-69025D01*
Y-120472D01*
X90874Y-121317D01*
X91352Y-122034D01*
X110250Y-140931D01*
X110966Y-141410D01*
X111811Y-141578D01*
X171920D01*
X185666Y-155324D01*
Y-230401D01*
X185628Y-230431D01*
X185123Y-231089D01*
X184806Y-231855D01*
X184697Y-232677D01*
X184806Y-233499D01*
X185123Y-234265D01*
X185628Y-234924D01*
X186286Y-235428D01*
X187052Y-235746D01*
X187874Y-235854D01*
X188696Y-235746D01*
X189462Y-235428D01*
X190120Y-234924D01*
X190625Y-234265D01*
X190943Y-233499D01*
X191051Y-232677D01*
X190943Y-231855D01*
X190625Y-231089D01*
X190120Y-230431D01*
X190082Y-230401D01*
Y-154409D01*
X189914Y-153565D01*
X189435Y-152848D01*
X174396Y-137809D01*
X173679Y-137330D01*
X172835Y-137162D01*
X112725D01*
X95121Y-119558D01*
Y-68110D01*
X94953Y-67265D01*
X94475Y-66549D01*
X82959Y-55033D01*
X82243Y-54555D01*
X81398Y-54387D01*
X68315D01*
Y-49311D01*
X67528D01*
Y-49311D01*
D02*
G37*
G36*
X751088Y-65412D02*
X747437D01*
Y-69063D01*
X747686Y-69030D01*
X748835Y-68554D01*
X749822Y-67797D01*
X750580Y-66810D01*
X751056Y-65661D01*
X751088Y-65412D01*
D02*
G37*
G36*
X745469D02*
X741817D01*
X741850Y-65661D01*
X742326Y-66810D01*
X743083Y-67797D01*
X744070Y-68554D01*
X745219Y-69030D01*
X745469Y-69063D01*
Y-65412D01*
D02*
G37*
G36*
X766453Y-59464D02*
X765168Y-59633D01*
X763971Y-60129D01*
X762943Y-60918D01*
X762154Y-61946D01*
X761658Y-63143D01*
X761489Y-64428D01*
X761658Y-65712D01*
X761772Y-65986D01*
X740351Y-87407D01*
X724559D01*
X723714Y-87575D01*
X722998Y-88053D01*
X703317Y-107734D01*
X702838Y-108450D01*
X702670Y-109295D01*
Y-213991D01*
X606544Y-310117D01*
X606496Y-310111D01*
X605674Y-310219D01*
X604908Y-310536D01*
X604250Y-311041D01*
X603745Y-311699D01*
X603428Y-312465D01*
X603319Y-313287D01*
X603428Y-314110D01*
X603745Y-314876D01*
X604250Y-315534D01*
X604908Y-316039D01*
X605674Y-316356D01*
X606496Y-316464D01*
X607318Y-316356D01*
X608084Y-316039D01*
X608742Y-315534D01*
X609247Y-314876D01*
X609565Y-314110D01*
X609673Y-313287D01*
X609666Y-313239D01*
X706439Y-216467D01*
X706918Y-215750D01*
X707086Y-214906D01*
Y-110210D01*
X725473Y-91822D01*
X741266D01*
X742111Y-91654D01*
X742827Y-91176D01*
X764894Y-69109D01*
X765168Y-69222D01*
X766453Y-69391D01*
X767737Y-69222D01*
X768935Y-68726D01*
X769963Y-67937D01*
X770751Y-66909D01*
X771247Y-65712D01*
X771417Y-64428D01*
X771247Y-63143D01*
X770751Y-61946D01*
X769963Y-60918D01*
X768935Y-60129D01*
X767737Y-59633D01*
X766453Y-59464D01*
D02*
G37*
G36*
X87402Y-69882D02*
X85039D01*
Y-72638D01*
X87402D01*
Y-69882D01*
D02*
G37*
G36*
X612402Y-70430D02*
X612008D01*
X611163Y-70598D01*
X610447Y-71077D01*
X609968Y-71793D01*
X609800Y-72638D01*
Y-76181D01*
X612402D01*
Y-70430D01*
D02*
G37*
G36*
X105413Y-73381D02*
X104921D01*
Y-79134D01*
X107721D01*
Y-75689D01*
X107546Y-74806D01*
X107045Y-74057D01*
X106297Y-73557D01*
X105413Y-73381D01*
D02*
G37*
G36*
X102953D02*
X102461D01*
X101577Y-73557D01*
X100829Y-74057D01*
X100328Y-74806D01*
X100153Y-75689D01*
Y-79134D01*
X102953D01*
Y-73381D01*
D02*
G37*
G36*
X239272D02*
X238779D01*
Y-79134D01*
X241580D01*
Y-75689D01*
X241404Y-74806D01*
X240904Y-74057D01*
X240155Y-73557D01*
X239272Y-73381D01*
D02*
G37*
G36*
X236811D02*
X236319D01*
X235436Y-73557D01*
X234687Y-74057D01*
X234187Y-74806D01*
X234011Y-75689D01*
Y-79134D01*
X236811D01*
Y-73381D01*
D02*
G37*
G36*
X140311Y-58548D02*
X122988D01*
Y-72327D01*
X127376D01*
X127709Y-72827D01*
X127380Y-73621D01*
X127225Y-74803D01*
X127380Y-75985D01*
X127837Y-77087D01*
X128562Y-78032D01*
X129508Y-78758D01*
X130609Y-79214D01*
X131791Y-79370D01*
X132973Y-79214D01*
X134075Y-78758D01*
X135020Y-78032D01*
X135746Y-77087D01*
X136202Y-75985D01*
X136358Y-74803D01*
X136202Y-73621D01*
X135873Y-72827D01*
X136207Y-72327D01*
X140311D01*
Y-58548D01*
D02*
G37*
G36*
X193504Y-78563D02*
X189764D01*
Y-79547D01*
X193504D01*
Y-78563D01*
D02*
G37*
G36*
X187795D02*
X184055D01*
Y-79547D01*
X187795D01*
Y-78563D01*
D02*
G37*
G36*
X287441Y-41888D02*
X284803D01*
X283570Y-42051D01*
X282421Y-42527D01*
X281434Y-43284D01*
X267631Y-57087D01*
X264921D01*
Y-61501D01*
X264880Y-61811D01*
Y-64567D01*
X264921Y-64877D01*
Y-72047D01*
X266590D01*
Y-73524D01*
X258465D01*
Y-82382D01*
X259622D01*
Y-83169D01*
X258366D01*
Y-83441D01*
X255512D01*
Y-81890D01*
X254571D01*
Y-72047D01*
X256339D01*
Y-57087D01*
X246890D01*
Y-72047D01*
X249012D01*
Y-81890D01*
X248425D01*
X248425Y-90551D01*
X247925Y-90551D01*
X244685D01*
Y-99213D01*
X244685D01*
Y-106398D01*
X244849D01*
X245178Y-106774D01*
X245150Y-106988D01*
X245258Y-107810D01*
X245576Y-108577D01*
X246080Y-109234D01*
X246738Y-109739D01*
X247505Y-110057D01*
X248327Y-110165D01*
X249149Y-110057D01*
X249915Y-109739D01*
X250573Y-109234D01*
X251078Y-108577D01*
X251395Y-107810D01*
X251504Y-106988D01*
X251475Y-106774D01*
X251805Y-106398D01*
X252559D01*
Y-105610D01*
X254331D01*
Y-101969D01*
X255315D01*
Y-100984D01*
X258465D01*
Y-98425D01*
Y-95866D01*
X255709D01*
X252953D01*
Y-97283D01*
X252559Y-97539D01*
X251772D01*
X251772Y-90551D01*
X252272Y-90551D01*
X255512D01*
Y-89000D01*
X258366D01*
Y-89272D01*
X266437D01*
Y-83169D01*
X265181D01*
Y-82382D01*
X273031D01*
Y-80732D01*
X276181D01*
Y-82382D01*
X280750D01*
X280942Y-82844D01*
X280345Y-83441D01*
X279429D01*
Y-83169D01*
X271358D01*
Y-89272D01*
X279429D01*
Y-89000D01*
X281496D01*
X282215Y-88905D01*
X282886Y-88628D01*
X283462Y-88186D01*
X288580Y-83068D01*
X289021Y-82492D01*
X289067Y-82382D01*
X290748D01*
Y-81166D01*
X290856Y-81125D01*
X291313Y-81488D01*
X291311Y-81496D01*
X291420Y-82318D01*
X291737Y-83084D01*
X292242Y-83742D01*
X292900Y-84247D01*
X293666Y-84565D01*
X294488Y-84673D01*
X295310Y-84565D01*
X296077Y-84247D01*
X296734Y-83742D01*
X297239Y-83084D01*
X297557Y-82318D01*
X297665Y-81496D01*
X297557Y-80674D01*
X297539Y-80632D01*
Y-73327D01*
X291437D01*
Y-75173D01*
X290748D01*
Y-73524D01*
X276181D01*
Y-75173D01*
X273031D01*
Y-73524D01*
X272150D01*
Y-72047D01*
X274370D01*
Y-64877D01*
X274411Y-64567D01*
Y-63785D01*
X286777Y-51419D01*
X287441D01*
X288674Y-51256D01*
X289824Y-50780D01*
X290810Y-50023D01*
X291568Y-49036D01*
X292044Y-47887D01*
X292206Y-46654D01*
X292044Y-45420D01*
X291568Y-44271D01*
X290810Y-43284D01*
X289824Y-42527D01*
X288674Y-42051D01*
X287441Y-41888D01*
D02*
G37*
G36*
X612402Y-78150D02*
X609800D01*
Y-81693D01*
X609968Y-82538D01*
X610447Y-83254D01*
X611163Y-83733D01*
X612008Y-83901D01*
X612402D01*
Y-78150D01*
D02*
G37*
G36*
X158957Y-81398D02*
X156595D01*
Y-84153D01*
X158957D01*
Y-81398D01*
D02*
G37*
G36*
X338976Y-19261D02*
X337741Y-19383D01*
X336554Y-19743D01*
X335460Y-20328D01*
X334501Y-21115D01*
X333713Y-22074D01*
X333128Y-23168D01*
X332768Y-24356D01*
X332647Y-25591D01*
X332768Y-26825D01*
X333128Y-28013D01*
X333417Y-28553D01*
Y-79528D01*
X333606Y-80966D01*
X334162Y-82307D01*
X335045Y-83459D01*
X336197Y-84342D01*
X337538Y-84898D01*
X338976Y-85087D01*
X340415Y-84898D01*
X341756Y-84342D01*
X342908Y-83459D01*
X343791Y-82307D01*
X344346Y-80966D01*
X344536Y-79528D01*
Y-28553D01*
X344824Y-28013D01*
X345184Y-26825D01*
X345306Y-25591D01*
X345184Y-24356D01*
X344824Y-23168D01*
X344239Y-22074D01*
X343452Y-21115D01*
X342493Y-20328D01*
X341399Y-19743D01*
X340211Y-19383D01*
X338976Y-19261D01*
D02*
G37*
G36*
X307126Y-41094D02*
X305687Y-41284D01*
X304346Y-41839D01*
X303195Y-42722D01*
X302311Y-43874D01*
X301756Y-45215D01*
X301567Y-46654D01*
X301756Y-48092D01*
X302311Y-49433D01*
X303195Y-50585D01*
X312447Y-59837D01*
X313634Y-61023D01*
Y-79528D01*
X313823Y-80966D01*
X314378Y-82307D01*
X315262Y-83459D01*
X316413Y-84342D01*
X317754Y-84898D01*
X319193Y-85087D01*
X320632Y-84898D01*
X321973Y-84342D01*
X323124Y-83459D01*
X324008Y-82307D01*
X324563Y-80966D01*
X324752Y-79528D01*
Y-62205D01*
X331398D01*
Y-50394D01*
X325657D01*
X325295Y-50346D01*
X318681D01*
X311057Y-42722D01*
X309906Y-41839D01*
X308565Y-41284D01*
X307126Y-41094D01*
D02*
G37*
G36*
X241580Y-81102D02*
X238779D01*
Y-86855D01*
X239272D01*
X240155Y-86680D01*
X240904Y-86179D01*
X241404Y-85431D01*
X241580Y-84547D01*
Y-81102D01*
D02*
G37*
G36*
X236811D02*
X234011D01*
Y-84547D01*
X234187Y-85431D01*
X234687Y-86179D01*
X235436Y-86680D01*
X236319Y-86855D01*
X236811D01*
Y-81102D01*
D02*
G37*
G36*
X107721Y-81102D02*
X104921D01*
Y-86855D01*
X105413D01*
X106297Y-86680D01*
X107045Y-86179D01*
X107546Y-85431D01*
X107721Y-84547D01*
Y-81102D01*
D02*
G37*
G36*
X102953D02*
X100153D01*
Y-84547D01*
X100328Y-85431D01*
X100829Y-86179D01*
X101577Y-86680D01*
X102461Y-86855D01*
X102953D01*
Y-81102D01*
D02*
G37*
G36*
X645669Y-85236D02*
Y-87992D01*
X648032D01*
Y-85236D01*
X645669D01*
D02*
G37*
G36*
X612598D02*
X610236D01*
Y-87992D01*
X612598D01*
Y-85236D01*
D02*
G37*
G36*
X297539Y-86319D02*
X291437D01*
Y-87800D01*
X290937Y-88221D01*
X290509Y-88164D01*
X289687Y-88272D01*
X288920Y-88590D01*
X288263Y-89095D01*
X287758Y-89753D01*
X287440Y-90519D01*
X287332Y-91341D01*
X287440Y-92163D01*
X287758Y-92929D01*
X288263Y-93587D01*
X288920Y-94092D01*
X289687Y-94409D01*
X289798Y-94424D01*
X290256Y-94488D01*
X290256Y-94488D01*
Y-102165D01*
X291043D01*
Y-103051D01*
X294488D01*
X297933D01*
Y-102165D01*
X298721D01*
Y-94488D01*
X297999D01*
X297539Y-94390D01*
Y-86319D01*
D02*
G37*
G36*
X158957Y-86122D02*
X156595D01*
Y-88878D01*
X158957D01*
Y-86122D01*
D02*
G37*
G36*
X67528Y-89665D02*
X65362D01*
Y-91437D01*
X67528D01*
Y-89665D01*
D02*
G37*
G36*
X63394D02*
X61228D01*
Y-91437D01*
X63394D01*
Y-89665D01*
D02*
G37*
G36*
X648032Y-89961D02*
X645669D01*
Y-92716D01*
X648032D01*
Y-89961D01*
D02*
G37*
G36*
X612598Y-89961D02*
X610236D01*
Y-92716D01*
X612598D01*
Y-89961D01*
D02*
G37*
G36*
X228051Y-91097D02*
X224606D01*
Y-93898D01*
X230359D01*
Y-93405D01*
X230184Y-92522D01*
X229683Y-91773D01*
X228935Y-91273D01*
X228051Y-91097D01*
D02*
G37*
G36*
X222638D02*
X219193D01*
X218310Y-91273D01*
X217561Y-91773D01*
X217060Y-92522D01*
X216885Y-93405D01*
Y-93898D01*
X222638D01*
Y-91097D01*
D02*
G37*
G36*
X122539D02*
X119095D01*
Y-93898D01*
X124847D01*
Y-93405D01*
X124672Y-92522D01*
X124171Y-91773D01*
X123423Y-91273D01*
X122539Y-91097D01*
D02*
G37*
G36*
X117126D02*
X113681D01*
X112798Y-91273D01*
X112049Y-91773D01*
X111549Y-92522D01*
X111373Y-93405D01*
Y-93898D01*
X117126D01*
Y-91097D01*
D02*
G37*
G36*
X258465Y-91339D02*
X256693D01*
Y-93898D01*
X258465D01*
Y-91339D01*
D02*
G37*
G36*
X254724D02*
X252953D01*
Y-93898D01*
X254724D01*
Y-91339D01*
D02*
G37*
G36*
X9457Y-94587D02*
X5913D01*
Y-96949D01*
X9457D01*
Y-94587D01*
D02*
G37*
G36*
X612402Y-95669D02*
X609646D01*
Y-98032D01*
X612402D01*
Y-95669D01*
D02*
G37*
G36*
X230359Y-95866D02*
X224606D01*
Y-98666D01*
X228051D01*
X228935Y-98491D01*
X229683Y-97990D01*
X230184Y-97242D01*
X230359Y-96358D01*
Y-95866D01*
D02*
G37*
G36*
X222638D02*
X216885D01*
Y-96358D01*
X217060Y-97242D01*
X217561Y-97990D01*
X218310Y-98491D01*
X219193Y-98666D01*
X222638D01*
Y-95866D01*
D02*
G37*
G36*
X124847D02*
X119095D01*
Y-98666D01*
X122539D01*
X123423Y-98491D01*
X124171Y-97990D01*
X124672Y-97242D01*
X124847Y-96358D01*
Y-95866D01*
D02*
G37*
G36*
X117126D02*
X111373D01*
Y-96358D01*
X111549Y-97242D01*
X112049Y-97990D01*
X112798Y-98491D01*
X113681Y-98666D01*
X117126D01*
Y-95866D01*
D02*
G37*
G36*
X74370Y-96457D02*
X71614D01*
Y-98819D01*
X74370D01*
Y-96457D01*
D02*
G37*
G36*
X9457Y-98917D02*
X5913D01*
Y-101279D01*
X9457D01*
Y-98917D01*
D02*
G37*
G36*
X258465Y-102953D02*
X256299D01*
Y-105610D01*
X258465D01*
Y-102953D01*
D02*
G37*
G36*
X297933Y-105020D02*
X295473D01*
Y-107087D01*
X297933D01*
Y-105020D01*
D02*
G37*
G36*
X293504D02*
X291043D01*
Y-107087D01*
X293504D01*
Y-105020D01*
D02*
G37*
G36*
X213779Y-102335D02*
X212957Y-102443D01*
X212191Y-102761D01*
X211533Y-103266D01*
X211028Y-103923D01*
X210711Y-104690D01*
X210603Y-105512D01*
X210609Y-105560D01*
X206425Y-109744D01*
X205738Y-109881D01*
X205022Y-110360D01*
X198990Y-116392D01*
X198512Y-117108D01*
X198343Y-117953D01*
Y-237953D01*
X198512Y-238798D01*
X198990Y-239514D01*
X214721Y-255245D01*
Y-266960D01*
X209834Y-271847D01*
X209229Y-271926D01*
X208511Y-272224D01*
X207894Y-272697D01*
X207421Y-273314D01*
X207123Y-274032D01*
X207022Y-274803D01*
X207123Y-275574D01*
X207421Y-276292D01*
X207894Y-276909D01*
X208511Y-277382D01*
X209229Y-277680D01*
X210000Y-277781D01*
X210771Y-277680D01*
X211489Y-277382D01*
X212106Y-276909D01*
X212579Y-276292D01*
X212877Y-275574D01*
X212956Y-274969D01*
X218490Y-269435D01*
X218969Y-268719D01*
X219137Y-267874D01*
Y-254331D01*
X218969Y-253486D01*
X218490Y-252770D01*
X202759Y-237038D01*
Y-118867D01*
X207529Y-114097D01*
X208216Y-113960D01*
X208932Y-113482D01*
X213731Y-108682D01*
X213779Y-108689D01*
X214602Y-108580D01*
X215368Y-108263D01*
X216026Y-107758D01*
X216531Y-107100D01*
X216848Y-106334D01*
X216956Y-105512D01*
X216848Y-104690D01*
X216531Y-103923D01*
X216026Y-103266D01*
X215368Y-102761D01*
X214602Y-102443D01*
X213779Y-102335D01*
D02*
G37*
G36*
X824452Y-28863D02*
X823065Y-29046D01*
X821772Y-29581D01*
X820662Y-30433D01*
X819810Y-31544D01*
X819274Y-32836D01*
X819092Y-34224D01*
X819274Y-35612D01*
X819703Y-36647D01*
X809501Y-46849D01*
X742891D01*
X742172Y-46944D01*
X741501Y-47221D01*
X740926Y-47663D01*
X666172Y-122417D01*
X307031D01*
X306334Y-122128D01*
X305512Y-122020D01*
X304690Y-122128D01*
X303923Y-122446D01*
X303266Y-122950D01*
X302761Y-123609D01*
X302443Y-124375D01*
X302335Y-125197D01*
X302443Y-126019D01*
X302761Y-126785D01*
X303266Y-127443D01*
X303923Y-127948D01*
X304690Y-128265D01*
X305512Y-128374D01*
X306334Y-128265D01*
X307031Y-127977D01*
X667323D01*
X668042Y-127882D01*
X668713Y-127604D01*
X669288Y-127162D01*
X744043Y-52408D01*
X810652D01*
X811372Y-52314D01*
X812042Y-52036D01*
X812618Y-51594D01*
X824653Y-39558D01*
X825840Y-39402D01*
X827133Y-38867D01*
X828243Y-38015D01*
X829095Y-36904D01*
X829631Y-35612D01*
X829813Y-34224D01*
X829631Y-32836D01*
X829095Y-31544D01*
X828243Y-30433D01*
X827133Y-29581D01*
X825840Y-29046D01*
X824452Y-28863D01*
D02*
G37*
G36*
X25484Y-132960D02*
Y-136016D01*
X28540D01*
X28527Y-135921D01*
X28111Y-134915D01*
X27448Y-134052D01*
X26585Y-133389D01*
X25579Y-132973D01*
X25484Y-132960D01*
D02*
G37*
G36*
X23516D02*
X23421Y-132973D01*
X22415Y-133389D01*
X21552Y-134052D01*
X20889Y-134915D01*
X20473Y-135921D01*
X20460Y-136016D01*
X23516D01*
Y-132960D01*
D02*
G37*
G36*
X862390Y-129980D02*
X857665D01*
Y-136673D01*
X862390D01*
Y-129980D01*
D02*
G37*
G36*
X855697D02*
X850972D01*
Y-136673D01*
X855697D01*
Y-129980D01*
D02*
G37*
G36*
X828435D02*
X823711D01*
Y-136673D01*
X828435D01*
Y-129980D01*
D02*
G37*
G36*
X821742D02*
X817018D01*
Y-136673D01*
X821742D01*
Y-129980D01*
D02*
G37*
G36*
X778925D02*
X774201D01*
Y-136673D01*
X778925D01*
Y-129980D01*
D02*
G37*
G36*
X772232D02*
X767508D01*
Y-136673D01*
X772232D01*
Y-129980D01*
D02*
G37*
G36*
X744971D02*
X740246D01*
Y-136673D01*
X744971D01*
Y-129980D01*
D02*
G37*
G36*
X738278D02*
X733553D01*
Y-136673D01*
X738278D01*
Y-129980D01*
D02*
G37*
G36*
X28540Y-137984D02*
X25484D01*
Y-141040D01*
X25579Y-141027D01*
X26585Y-140611D01*
X27448Y-139948D01*
X28111Y-139085D01*
X28527Y-138079D01*
X28540Y-137984D01*
D02*
G37*
G36*
X23516D02*
X20460D01*
X20473Y-138079D01*
X20889Y-139085D01*
X21552Y-139948D01*
X22415Y-140611D01*
X23421Y-141027D01*
X23516Y-141040D01*
Y-137984D01*
D02*
G37*
G36*
X18831Y-132669D02*
X10169D01*
Y-141331D01*
X18831D01*
Y-132669D01*
D02*
G37*
G36*
X862390Y-138642D02*
X857665D01*
Y-145335D01*
X862390D01*
Y-138642D01*
D02*
G37*
G36*
X855697D02*
X850972D01*
Y-145335D01*
X855697D01*
Y-138642D01*
D02*
G37*
G36*
X828435D02*
X823711D01*
Y-145335D01*
X828435D01*
Y-138642D01*
D02*
G37*
G36*
X821742D02*
X817018D01*
Y-145335D01*
X821742D01*
Y-138642D01*
D02*
G37*
G36*
X778925D02*
X774201D01*
Y-145335D01*
X778925D01*
Y-138642D01*
D02*
G37*
G36*
X772232D02*
X767508D01*
Y-145335D01*
X772232D01*
Y-138642D01*
D02*
G37*
G36*
X744971D02*
X740246D01*
Y-145335D01*
X744971D01*
Y-138642D01*
D02*
G37*
G36*
X738278D02*
X733553D01*
Y-145335D01*
X738278D01*
Y-138642D01*
D02*
G37*
G36*
X24500Y-142632D02*
X23370Y-142781D01*
X22316Y-143217D01*
X21411Y-143911D01*
X20717Y-144816D01*
X20281Y-145870D01*
X20132Y-147000D01*
X20281Y-148131D01*
X20717Y-149184D01*
X21411Y-150089D01*
X22316Y-150783D01*
X23370Y-151219D01*
X24500Y-151368D01*
X25631Y-151219D01*
X26684Y-150783D01*
X27589Y-150089D01*
X28283Y-149184D01*
X28719Y-148131D01*
X28868Y-147000D01*
X28719Y-145870D01*
X28283Y-144816D01*
X27589Y-143911D01*
X26684Y-143217D01*
X25631Y-142781D01*
X24500Y-142632D01*
D02*
G37*
G36*
X14500D02*
X13370Y-142781D01*
X12316Y-143217D01*
X11411Y-143911D01*
X10717Y-144816D01*
X10281Y-145870D01*
X10132Y-147000D01*
X10281Y-148131D01*
X10717Y-149184D01*
X11411Y-150089D01*
X12316Y-150783D01*
X13370Y-151219D01*
X14500Y-151368D01*
X15631Y-151219D01*
X16684Y-150783D01*
X17589Y-150089D01*
X18283Y-149184D01*
X18719Y-148131D01*
X18868Y-147000D01*
X18719Y-145870D01*
X18283Y-144816D01*
X17589Y-143911D01*
X16684Y-143217D01*
X15631Y-142781D01*
X14500Y-142632D01*
D02*
G37*
G36*
X772441Y-147809D02*
X771670Y-147911D01*
X770952Y-148208D01*
X770468Y-148580D01*
X738981D01*
X738136Y-148748D01*
X737420Y-149226D01*
X727179Y-159467D01*
X726739Y-160126D01*
X726575Y-160203D01*
X726174Y-160266D01*
X725658Y-159870D01*
X724940Y-159573D01*
X724169Y-159471D01*
X723398Y-159573D01*
X722680Y-159870D01*
X722063Y-160343D01*
X721590Y-160960D01*
X721292Y-161678D01*
X721191Y-162449D01*
X721292Y-163220D01*
X721590Y-163938D01*
X721961Y-164422D01*
Y-206960D01*
X655520Y-273401D01*
X655512Y-273400D01*
X654741Y-273501D01*
X654023Y-273799D01*
X653406Y-274272D01*
X652933Y-274889D01*
X652635Y-275607D01*
X652534Y-276378D01*
X652635Y-277149D01*
X652933Y-277867D01*
X653406Y-278484D01*
X654023Y-278957D01*
X654741Y-279255D01*
X655512Y-279356D01*
X656283Y-279255D01*
X657001Y-278957D01*
X657618Y-278484D01*
X658091Y-277867D01*
X658389Y-277149D01*
X658445Y-276721D01*
X662409Y-272756D01*
X662925Y-272948D01*
X663169Y-273536D01*
X663642Y-274153D01*
X664259Y-274626D01*
X664977Y-274924D01*
X665748Y-275026D01*
X666519Y-274924D01*
X667237Y-274626D01*
X667854Y-274153D01*
X668327Y-273536D01*
X668625Y-272818D01*
X668704Y-272213D01*
X730301Y-210616D01*
X730780Y-209900D01*
X730948Y-209055D01*
Y-161942D01*
X739895Y-152995D01*
X770468D01*
X770952Y-153367D01*
X771670Y-153664D01*
X772441Y-153766D01*
X773212Y-153664D01*
X773930Y-153367D01*
X774547Y-152893D01*
X775020Y-152277D01*
X775318Y-151558D01*
X775419Y-150787D01*
X775318Y-150017D01*
X775020Y-149298D01*
X774547Y-148681D01*
X773930Y-148208D01*
X773212Y-147911D01*
X772441Y-147809D01*
D02*
G37*
G36*
X822126Y-154701D02*
X754134D01*
X753414Y-154795D01*
X752744Y-155073D01*
X752168Y-155515D01*
X747661Y-160022D01*
X746398Y-159856D01*
X745010Y-160038D01*
X743717Y-160574D01*
X742607Y-161426D01*
X741755Y-162536D01*
X741220Y-163829D01*
X741037Y-165217D01*
X741220Y-166604D01*
X741755Y-167897D01*
X742607Y-169007D01*
X743717Y-169859D01*
X745010Y-170395D01*
X746398Y-170577D01*
X747785Y-170395D01*
X749078Y-169859D01*
X750188Y-169007D01*
X751040Y-167897D01*
X751069Y-167828D01*
X751569D01*
X751597Y-167897D01*
X752450Y-169007D01*
X753560Y-169859D01*
X754853Y-170395D01*
X756240Y-170577D01*
X757628Y-170395D01*
X758921Y-169859D01*
X760031Y-169007D01*
X760883Y-167897D01*
X761018Y-167571D01*
X761518D01*
X761612Y-167798D01*
X762432Y-168867D01*
X763502Y-169687D01*
X764747Y-170203D01*
X765098Y-170249D01*
Y-165217D01*
X766083D01*
Y-164232D01*
X771115D01*
X771069Y-163880D01*
X770553Y-162635D01*
X769733Y-161566D01*
X768682Y-160760D01*
X768679Y-160726D01*
X768856Y-160260D01*
X798795D01*
Y-214937D01*
X747638D01*
X746918Y-215032D01*
X746248Y-215309D01*
X745672Y-215751D01*
X589164Y-372260D01*
X569281D01*
X568870Y-371944D01*
X568008Y-371587D01*
X567083Y-371465D01*
X566158Y-371587D01*
X565296Y-371944D01*
X564885Y-372260D01*
X367312D01*
X366901Y-371944D01*
X366039Y-371587D01*
X365114Y-371465D01*
X364189Y-371587D01*
X363327Y-371944D01*
X362587Y-372512D01*
X362019Y-373252D01*
X361662Y-374114D01*
X361540Y-375039D01*
X361662Y-375964D01*
X362019Y-376826D01*
X362587Y-377567D01*
X363327Y-378134D01*
X364189Y-378491D01*
X365114Y-378613D01*
X366039Y-378491D01*
X366901Y-378134D01*
X367312Y-377819D01*
X564885D01*
X565296Y-378134D01*
X566158Y-378491D01*
X567083Y-378613D01*
X568008Y-378491D01*
X568870Y-378134D01*
X569281Y-377819D01*
X590315D01*
X591034Y-377724D01*
X591705Y-377447D01*
X592280Y-377005D01*
X748789Y-220496D01*
X799377D01*
X799788Y-220812D01*
X800650Y-221169D01*
X801163Y-221236D01*
X825987Y-246060D01*
X826563Y-246502D01*
X827233Y-246779D01*
X827953Y-246874D01*
X831299D01*
Y-248622D01*
X840134D01*
Y-253148D01*
X838386D01*
Y-261416D01*
X838673D01*
X839173Y-261416D01*
X839173Y-261916D01*
Y-263778D01*
X842913D01*
X846653D01*
X846653Y-261416D01*
X847153Y-261416D01*
X847441D01*
Y-253380D01*
X847890Y-253024D01*
X847997Y-253068D01*
X848819Y-253177D01*
X849641Y-253068D01*
X850407Y-252751D01*
X851065Y-252246D01*
X851570Y-251588D01*
X851887Y-250822D01*
X851996Y-250000D01*
X851887Y-249178D01*
X851829Y-249038D01*
X852107Y-248622D01*
X854724D01*
Y-239567D01*
X845634D01*
Y-227158D01*
X845884Y-226967D01*
X846578Y-226062D01*
X847015Y-225009D01*
X847163Y-223878D01*
X847015Y-222747D01*
X846578Y-221694D01*
X845884Y-220789D01*
X844979Y-220095D01*
X843926Y-219659D01*
X842795Y-219510D01*
X841665Y-219659D01*
X840611Y-220095D01*
X839707Y-220789D01*
X839012Y-221694D01*
X838576Y-222747D01*
X838427Y-223878D01*
X838576Y-225009D01*
X839012Y-226062D01*
X839707Y-226967D01*
X840075Y-227249D01*
Y-239567D01*
X831299D01*
Y-241315D01*
X829104D01*
X805095Y-217305D01*
X805027Y-216792D01*
X804670Y-215930D01*
X804354Y-215519D01*
Y-160260D01*
X820975D01*
X824668Y-163953D01*
X824501Y-165217D01*
X824684Y-166604D01*
X825220Y-167897D01*
X826071Y-169007D01*
X827182Y-169859D01*
X828475Y-170395D01*
X829862Y-170577D01*
X831250Y-170395D01*
X832543Y-169859D01*
X833653Y-169007D01*
X834505Y-167897D01*
X834534Y-167828D01*
X835034D01*
X835062Y-167897D01*
X835914Y-169007D01*
X837024Y-169859D01*
X838317Y-170395D01*
X839705Y-170577D01*
X841092Y-170395D01*
X842385Y-169859D01*
X843495Y-169007D01*
X844347Y-167897D01*
X844483Y-167571D01*
X844983D01*
X845077Y-167798D01*
X845897Y-168867D01*
X846966Y-169687D01*
X848211Y-170203D01*
X848563Y-170249D01*
Y-165217D01*
Y-160184D01*
X848211Y-160230D01*
X846966Y-160746D01*
X845897Y-161566D01*
X845077Y-162635D01*
X844983Y-162863D01*
X844483D01*
X844347Y-162536D01*
X843495Y-161426D01*
X842385Y-160574D01*
X841092Y-160038D01*
X839705Y-159856D01*
X838317Y-160038D01*
X837024Y-160574D01*
X835914Y-161426D01*
X835062Y-162536D01*
X835034Y-162605D01*
X834534D01*
X834505Y-162536D01*
X833653Y-161426D01*
X832543Y-160574D01*
X831250Y-160038D01*
X829862Y-159856D01*
X828599Y-160022D01*
X824092Y-155515D01*
X823516Y-155073D01*
X822845Y-154795D01*
X822126Y-154701D01*
D02*
G37*
G36*
X24500Y-152632D02*
X23370Y-152781D01*
X22316Y-153217D01*
X21411Y-153911D01*
X20717Y-154816D01*
X20281Y-155869D01*
X20132Y-157000D01*
X20281Y-158131D01*
X20717Y-159184D01*
X21411Y-160089D01*
X22316Y-160783D01*
X23370Y-161219D01*
X24500Y-161368D01*
X25631Y-161219D01*
X26684Y-160783D01*
X27589Y-160089D01*
X28283Y-159184D01*
X28719Y-158131D01*
X28868Y-157000D01*
X28719Y-155869D01*
X28283Y-154816D01*
X27589Y-153911D01*
X26684Y-153217D01*
X25631Y-152781D01*
X24500Y-152632D01*
D02*
G37*
G36*
X14500D02*
X13370Y-152781D01*
X12316Y-153217D01*
X11411Y-153911D01*
X10717Y-154816D01*
X10281Y-155869D01*
X10132Y-157000D01*
X10281Y-158131D01*
X10717Y-159184D01*
X11411Y-160089D01*
X12316Y-160783D01*
X13370Y-161219D01*
X14500Y-161368D01*
X15631Y-161219D01*
X16684Y-160783D01*
X17589Y-160089D01*
X18283Y-159184D01*
X18719Y-158131D01*
X18868Y-157000D01*
X18719Y-155869D01*
X18283Y-154816D01*
X17589Y-153911D01*
X16684Y-153217D01*
X15631Y-152781D01*
X14500Y-152632D01*
D02*
G37*
G36*
X850531Y-160184D02*
Y-164232D01*
X854580D01*
X854534Y-163880D01*
X854018Y-162635D01*
X853197Y-161566D01*
X852128Y-160746D01*
X850883Y-160230D01*
X850531Y-160184D01*
D02*
G37*
G36*
X854580Y-166201D02*
X850531D01*
Y-170249D01*
X850883Y-170203D01*
X852128Y-169687D01*
X853197Y-168867D01*
X854018Y-167798D01*
X854534Y-166553D01*
X854580Y-166201D01*
D02*
G37*
G36*
X771115D02*
X767067D01*
Y-170249D01*
X767419Y-170203D01*
X768664Y-169687D01*
X769733Y-168867D01*
X770553Y-167798D01*
X771069Y-166553D01*
X771115Y-166201D01*
D02*
G37*
G36*
X24500Y-162632D02*
X23370Y-162781D01*
X22316Y-163217D01*
X21411Y-163911D01*
X20717Y-164816D01*
X20281Y-165869D01*
X20132Y-167000D01*
X20281Y-168131D01*
X20717Y-169184D01*
X21411Y-170089D01*
X22316Y-170783D01*
X23370Y-171219D01*
X24500Y-171368D01*
X25631Y-171219D01*
X26684Y-170783D01*
X27589Y-170089D01*
X28283Y-169184D01*
X28719Y-168131D01*
X28868Y-167000D01*
X28719Y-165869D01*
X28283Y-164816D01*
X27589Y-163911D01*
X26684Y-163217D01*
X25631Y-162781D01*
X24500Y-162632D01*
D02*
G37*
G36*
X14500D02*
X13370Y-162781D01*
X12316Y-163217D01*
X11411Y-163911D01*
X10717Y-164816D01*
X10281Y-165869D01*
X10132Y-167000D01*
X10281Y-168131D01*
X10717Y-169184D01*
X11411Y-170089D01*
X12316Y-170783D01*
X13370Y-171219D01*
X14500Y-171368D01*
X15631Y-171219D01*
X16684Y-170783D01*
X17589Y-170089D01*
X18283Y-169184D01*
X18719Y-168131D01*
X18868Y-167000D01*
X18719Y-165869D01*
X18283Y-164816D01*
X17589Y-163911D01*
X16684Y-163217D01*
X15631Y-162781D01*
X14500Y-162632D01*
D02*
G37*
G36*
X811812Y-176267D02*
Y-180315D01*
X815860D01*
X815814Y-179963D01*
X815298Y-178718D01*
X814477Y-177649D01*
X813408Y-176829D01*
X812163Y-176313D01*
X811812Y-176267D01*
D02*
G37*
G36*
X786220Y-176267D02*
Y-180315D01*
X790269D01*
X790222Y-179963D01*
X789707Y-178718D01*
X788886Y-177649D01*
X787817Y-176829D01*
X786572Y-176313D01*
X786220Y-176267D01*
D02*
G37*
G36*
X853544D02*
Y-180315D01*
X857592D01*
X857546Y-179963D01*
X857030Y-178718D01*
X856210Y-177649D01*
X855141Y-176829D01*
X853895Y-176313D01*
X853544Y-176267D01*
D02*
G37*
G36*
X770079D02*
Y-180315D01*
X774128D01*
X774081Y-179963D01*
X773565Y-178718D01*
X772745Y-177649D01*
X771676Y-176829D01*
X770431Y-176313D01*
X770079Y-176267D01*
D02*
G37*
G36*
X827952Y-176267D02*
Y-180315D01*
X832001D01*
X831954Y-179963D01*
X831439Y-178718D01*
X830618Y-177649D01*
X829549Y-176829D01*
X828304Y-176313D01*
X827952Y-176267D01*
D02*
G37*
G36*
X744488D02*
Y-180315D01*
X748536D01*
X748490Y-179963D01*
X747974Y-178718D01*
X747154Y-177649D01*
X746085Y-176829D01*
X744840Y-176313D01*
X744488Y-176267D01*
D02*
G37*
G36*
X825984Y-176267D02*
X825632Y-176313D01*
X824387Y-176829D01*
X823318Y-177649D01*
X822497Y-178718D01*
X821982Y-179963D01*
X821935Y-180315D01*
X825984D01*
Y-176267D01*
D02*
G37*
G36*
X742519D02*
X742168Y-176313D01*
X740922Y-176829D01*
X739853Y-177649D01*
X739033Y-178718D01*
X738517Y-179963D01*
X738471Y-180315D01*
X742519D01*
Y-176267D01*
D02*
G37*
G36*
X851575D02*
X851223Y-176313D01*
X849978Y-176829D01*
X848909Y-177649D01*
X848089Y-178718D01*
X847573Y-179963D01*
X847527Y-180315D01*
X851575D01*
Y-176267D01*
D02*
G37*
G36*
X768111D02*
X767759Y-176313D01*
X766514Y-176829D01*
X765445Y-177649D01*
X764624Y-178718D01*
X764109Y-179963D01*
X764062Y-180315D01*
X768111D01*
Y-176267D01*
D02*
G37*
G36*
X784252Y-176267D02*
X783900Y-176313D01*
X782655Y-176829D01*
X781586Y-177649D01*
X780765Y-178718D01*
X780249Y-179963D01*
X780203Y-180315D01*
X784252D01*
Y-176267D01*
D02*
G37*
G36*
X809843D02*
X809491Y-176313D01*
X808246Y-176829D01*
X807177Y-177649D01*
X806357Y-178718D01*
X805841Y-179963D01*
X805795Y-180315D01*
X809843D01*
Y-176267D01*
D02*
G37*
G36*
X24500Y-172632D02*
X23370Y-172781D01*
X22316Y-173217D01*
X21411Y-173911D01*
X20717Y-174816D01*
X20281Y-175870D01*
X20132Y-177000D01*
X20281Y-178130D01*
X20717Y-179184D01*
X21411Y-180089D01*
X22316Y-180783D01*
X23370Y-181219D01*
X24500Y-181368D01*
X25631Y-181219D01*
X26684Y-180783D01*
X27589Y-180089D01*
X28283Y-179184D01*
X28719Y-178130D01*
X28868Y-177000D01*
X28719Y-175870D01*
X28283Y-174816D01*
X27589Y-173911D01*
X26684Y-173217D01*
X25631Y-172781D01*
X24500Y-172632D01*
D02*
G37*
G36*
X14500D02*
X13370Y-172781D01*
X12316Y-173217D01*
X11411Y-173911D01*
X10717Y-174816D01*
X10281Y-175870D01*
X10132Y-177000D01*
X10281Y-178130D01*
X10717Y-179184D01*
X11411Y-180089D01*
X12316Y-180783D01*
X13370Y-181219D01*
X14500Y-181368D01*
X15631Y-181219D01*
X16684Y-180783D01*
X17589Y-180089D01*
X18283Y-179184D01*
X18719Y-178130D01*
X18868Y-177000D01*
X18719Y-175870D01*
X18283Y-174816D01*
X17589Y-173911D01*
X16684Y-173217D01*
X15631Y-172781D01*
X14500Y-172632D01*
D02*
G37*
G36*
X815860Y-182283D02*
X811812D01*
Y-186332D01*
X812163Y-186286D01*
X813408Y-185770D01*
X814477Y-184950D01*
X815298Y-183880D01*
X815814Y-182635D01*
X815860Y-182283D01*
D02*
G37*
G36*
X790269D02*
X786220D01*
Y-186332D01*
X786572Y-186286D01*
X787817Y-185770D01*
X788886Y-184950D01*
X789707Y-183880D01*
X790222Y-182635D01*
X790269Y-182283D01*
D02*
G37*
G36*
X825984D02*
X821935D01*
X821982Y-182635D01*
X822497Y-183880D01*
X823318Y-184950D01*
X824387Y-185770D01*
X825632Y-186286D01*
X825984Y-186332D01*
Y-182283D01*
D02*
G37*
G36*
X742519D02*
X738471D01*
X738517Y-182635D01*
X739033Y-183880D01*
X739853Y-184950D01*
X740922Y-185770D01*
X742168Y-186286D01*
X742519Y-186332D01*
Y-182283D01*
D02*
G37*
G36*
X857592D02*
X853544D01*
Y-186332D01*
X853895Y-186286D01*
X855141Y-185770D01*
X856210Y-184950D01*
X857030Y-183880D01*
X857546Y-182635D01*
X857592Y-182283D01*
D02*
G37*
G36*
X774128D02*
X770079D01*
Y-186332D01*
X770431Y-186286D01*
X771676Y-185770D01*
X772745Y-184950D01*
X773565Y-183880D01*
X774081Y-182635D01*
X774128Y-182283D01*
D02*
G37*
G36*
X851575D02*
X847527D01*
X847573Y-182635D01*
X848089Y-183880D01*
X848909Y-184950D01*
X849978Y-185770D01*
X851223Y-186286D01*
X851575Y-186332D01*
Y-182283D01*
D02*
G37*
G36*
X768111D02*
X764062D01*
X764109Y-182635D01*
X764624Y-183880D01*
X765445Y-184950D01*
X766514Y-185770D01*
X767759Y-186286D01*
X768111Y-186332D01*
Y-182283D01*
D02*
G37*
G36*
X832001D02*
X827952D01*
Y-186332D01*
X828304Y-186286D01*
X829549Y-185770D01*
X830618Y-184950D01*
X831439Y-183880D01*
X831954Y-182635D01*
X832001Y-182283D01*
D02*
G37*
G36*
X748536D02*
X744488D01*
Y-186332D01*
X744840Y-186286D01*
X746085Y-185770D01*
X747154Y-184950D01*
X747974Y-183880D01*
X748490Y-182635D01*
X748536Y-182283D01*
D02*
G37*
G36*
X784252D02*
X780203D01*
X780249Y-182635D01*
X780765Y-183880D01*
X781586Y-184950D01*
X782655Y-185770D01*
X783900Y-186286D01*
X784252Y-186332D01*
Y-182283D01*
D02*
G37*
G36*
X809843D02*
X805795D01*
X805841Y-182635D01*
X806357Y-183880D01*
X807177Y-184950D01*
X808246Y-185770D01*
X809491Y-186286D01*
X809843Y-186332D01*
Y-182283D01*
D02*
G37*
G36*
X24500Y-182632D02*
X23370Y-182781D01*
X22316Y-183217D01*
X21411Y-183911D01*
X20717Y-184816D01*
X20281Y-185870D01*
X20132Y-187000D01*
X20281Y-188130D01*
X20717Y-189184D01*
X21411Y-190089D01*
X22316Y-190783D01*
X23370Y-191219D01*
X24500Y-191368D01*
X25631Y-191219D01*
X26684Y-190783D01*
X27589Y-190089D01*
X28283Y-189184D01*
X28719Y-188130D01*
X28868Y-187000D01*
X28719Y-185870D01*
X28283Y-184816D01*
X27589Y-183911D01*
X26684Y-183217D01*
X25631Y-182781D01*
X24500Y-182632D01*
D02*
G37*
G36*
X14500D02*
X13370Y-182781D01*
X12316Y-183217D01*
X11411Y-183911D01*
X10717Y-184816D01*
X10281Y-185870D01*
X10132Y-187000D01*
X10281Y-188130D01*
X10717Y-189184D01*
X11411Y-190089D01*
X12316Y-190783D01*
X13370Y-191219D01*
X14500Y-191368D01*
X15631Y-191219D01*
X16684Y-190783D01*
X17589Y-190089D01*
X18283Y-189184D01*
X18719Y-188130D01*
X18868Y-187000D01*
X18719Y-185870D01*
X18283Y-184816D01*
X17589Y-183911D01*
X16684Y-183217D01*
X15631Y-182781D01*
X14500Y-182632D01*
D02*
G37*
G36*
X24500Y-192632D02*
X23370Y-192781D01*
X22316Y-193217D01*
X21411Y-193911D01*
X20717Y-194816D01*
X20281Y-195870D01*
X20132Y-197000D01*
X20281Y-198131D01*
X20717Y-199184D01*
X21411Y-200089D01*
X22316Y-200783D01*
X23370Y-201219D01*
X24500Y-201368D01*
X25631Y-201219D01*
X26684Y-200783D01*
X27589Y-200089D01*
X28283Y-199184D01*
X28719Y-198131D01*
X28868Y-197000D01*
X28719Y-195870D01*
X28283Y-194816D01*
X27589Y-193911D01*
X26684Y-193217D01*
X25631Y-192781D01*
X24500Y-192632D01*
D02*
G37*
G36*
X14500D02*
X13370Y-192781D01*
X12316Y-193217D01*
X11411Y-193911D01*
X10717Y-194816D01*
X10281Y-195870D01*
X10132Y-197000D01*
X10281Y-198131D01*
X10717Y-199184D01*
X11411Y-200089D01*
X12316Y-200783D01*
X13370Y-201219D01*
X14500Y-201368D01*
X15631Y-201219D01*
X16684Y-200783D01*
X17589Y-200089D01*
X18283Y-199184D01*
X18719Y-198131D01*
X18868Y-197000D01*
X18719Y-195870D01*
X18283Y-194816D01*
X17589Y-193911D01*
X16684Y-193217D01*
X15631Y-192781D01*
X14500Y-192632D01*
D02*
G37*
G36*
X857874Y-193701D02*
X847244D01*
Y-204331D01*
X857874D01*
Y-193701D01*
D02*
G37*
G36*
X816142D02*
X805512D01*
Y-204331D01*
X816142D01*
Y-193701D01*
D02*
G37*
G36*
X774409D02*
X763779D01*
Y-204331D01*
X774409D01*
Y-193701D01*
D02*
G37*
G36*
X826968Y-193655D02*
X825581Y-193838D01*
X824288Y-194373D01*
X823178Y-195225D01*
X822326Y-196335D01*
X821790Y-197628D01*
X821608Y-199016D01*
X821790Y-200403D01*
X822326Y-201696D01*
X823178Y-202806D01*
X824288Y-203658D01*
X825581Y-204194D01*
X826968Y-204377D01*
X828356Y-204194D01*
X829649Y-203658D01*
X830759Y-202806D01*
X831611Y-201696D01*
X832147Y-200403D01*
X832329Y-199016D01*
X832147Y-197628D01*
X831611Y-196335D01*
X830759Y-195225D01*
X829649Y-194373D01*
X828356Y-193838D01*
X826968Y-193655D01*
D02*
G37*
G36*
X785236D02*
X783849Y-193838D01*
X782556Y-194373D01*
X781446Y-195225D01*
X780594Y-196335D01*
X780058Y-197628D01*
X779875Y-199016D01*
X780058Y-200403D01*
X780594Y-201696D01*
X781446Y-202806D01*
X782556Y-203658D01*
X783849Y-204194D01*
X785236Y-204377D01*
X786624Y-204194D01*
X787917Y-203658D01*
X789027Y-202806D01*
X789879Y-201696D01*
X790414Y-200403D01*
X790597Y-199016D01*
X790414Y-197628D01*
X789879Y-196335D01*
X789027Y-195225D01*
X787917Y-194373D01*
X786624Y-193838D01*
X785236Y-193655D01*
D02*
G37*
G36*
X743504D02*
X742116Y-193838D01*
X740824Y-194373D01*
X739713Y-195225D01*
X738861Y-196335D01*
X738326Y-197628D01*
X738143Y-199016D01*
X738326Y-200403D01*
X738861Y-201696D01*
X739713Y-202806D01*
X740824Y-203658D01*
X742116Y-204194D01*
X743504Y-204377D01*
X744891Y-204194D01*
X746184Y-203658D01*
X747295Y-202806D01*
X748146Y-201696D01*
X748682Y-200403D01*
X748865Y-199016D01*
X748682Y-197628D01*
X748146Y-196335D01*
X747295Y-195225D01*
X746184Y-194373D01*
X744891Y-193838D01*
X743504Y-193655D01*
D02*
G37*
G36*
X24500Y-202632D02*
X23370Y-202781D01*
X22316Y-203217D01*
X21411Y-203911D01*
X20717Y-204816D01*
X20281Y-205870D01*
X20132Y-207000D01*
X20281Y-208131D01*
X20717Y-209184D01*
X21411Y-210089D01*
X22316Y-210783D01*
X23370Y-211219D01*
X24500Y-211368D01*
X25631Y-211219D01*
X26684Y-210783D01*
X27589Y-210089D01*
X28283Y-209184D01*
X28719Y-208131D01*
X28868Y-207000D01*
X28719Y-205870D01*
X28283Y-204816D01*
X27589Y-203911D01*
X26684Y-203217D01*
X25631Y-202781D01*
X24500Y-202632D01*
D02*
G37*
G36*
X14500D02*
X13370Y-202781D01*
X12316Y-203217D01*
X11411Y-203911D01*
X10717Y-204816D01*
X10281Y-205870D01*
X10132Y-207000D01*
X10281Y-208131D01*
X10717Y-209184D01*
X11411Y-210089D01*
X12316Y-210783D01*
X13370Y-211219D01*
X14500Y-211368D01*
X15631Y-211219D01*
X16684Y-210783D01*
X17589Y-210089D01*
X18283Y-209184D01*
X18719Y-208131D01*
X18868Y-207000D01*
X18719Y-205870D01*
X18283Y-204816D01*
X17589Y-203911D01*
X16684Y-203217D01*
X15631Y-202781D01*
X14500Y-202632D01*
D02*
G37*
G36*
X756355Y-207700D02*
X755533Y-207808D01*
X754767Y-208126D01*
X754545Y-208296D01*
X737457D01*
X736789Y-208384D01*
X736167Y-208641D01*
X735632Y-209052D01*
X582068Y-362616D01*
X543696D01*
X543474Y-362446D01*
X542708Y-362128D01*
X541886Y-362020D01*
X541064Y-362128D01*
X540297Y-362446D01*
X539640Y-362950D01*
X539135Y-363609D01*
X538817Y-364375D01*
X538709Y-365197D01*
X538817Y-366019D01*
X539135Y-366785D01*
X539640Y-367443D01*
X540297Y-367948D01*
X541064Y-368265D01*
X541886Y-368374D01*
X542708Y-368265D01*
X543474Y-367948D01*
X543696Y-367778D01*
X583137D01*
X583805Y-367690D01*
X584428Y-367432D01*
X584963Y-367022D01*
X738527Y-213458D01*
X754545D01*
X754767Y-213628D01*
X755533Y-213945D01*
X756355Y-214054D01*
X757177Y-213945D01*
X757943Y-213628D01*
X758601Y-213123D01*
X759106Y-212465D01*
X759424Y-211699D01*
X759532Y-210877D01*
X759424Y-210055D01*
X759106Y-209288D01*
X758601Y-208630D01*
X757943Y-208126D01*
X757177Y-207808D01*
X756355Y-207700D01*
D02*
G37*
G36*
X24500Y-212632D02*
X23370Y-212781D01*
X22316Y-213217D01*
X21411Y-213911D01*
X20717Y-214816D01*
X20281Y-215869D01*
X20132Y-217000D01*
X20281Y-218130D01*
X20717Y-219184D01*
X21411Y-220089D01*
X22316Y-220783D01*
X23370Y-221219D01*
X24500Y-221368D01*
X25631Y-221219D01*
X26684Y-220783D01*
X27589Y-220089D01*
X28283Y-219184D01*
X28719Y-218130D01*
X28868Y-217000D01*
X28719Y-215869D01*
X28283Y-214816D01*
X27589Y-213911D01*
X26684Y-213217D01*
X25631Y-212781D01*
X24500Y-212632D01*
D02*
G37*
G36*
X14500D02*
X13370Y-212781D01*
X12316Y-213217D01*
X11411Y-213911D01*
X10717Y-214816D01*
X10281Y-215869D01*
X10132Y-217000D01*
X10281Y-218130D01*
X10717Y-219184D01*
X11411Y-220089D01*
X12316Y-220783D01*
X13370Y-221219D01*
X14500Y-221368D01*
X15631Y-221219D01*
X16684Y-220783D01*
X17589Y-220089D01*
X18283Y-219184D01*
X18719Y-218130D01*
X18868Y-217000D01*
X18719Y-215869D01*
X18283Y-214816D01*
X17589Y-213911D01*
X16684Y-213217D01*
X15631Y-212781D01*
X14500Y-212632D01*
D02*
G37*
G36*
X856929Y-219744D02*
X853780D01*
Y-222894D01*
X856929D01*
Y-219744D01*
D02*
G37*
G36*
X851811D02*
X848661D01*
Y-222894D01*
X851811D01*
Y-219744D01*
D02*
G37*
G36*
X856929Y-224862D02*
X853780D01*
Y-228012D01*
X856929D01*
Y-224862D01*
D02*
G37*
G36*
X851811D02*
X848661D01*
Y-228012D01*
X851811D01*
Y-224862D01*
D02*
G37*
G36*
X832795Y-219510D02*
X831665Y-219659D01*
X830611Y-220095D01*
X829707Y-220789D01*
X829012Y-221694D01*
X828576Y-222747D01*
X828427Y-223878D01*
X828576Y-225009D01*
X829012Y-226062D01*
X829707Y-226967D01*
X830611Y-227661D01*
X831665Y-228097D01*
X832795Y-228246D01*
X833926Y-228097D01*
X834979Y-227661D01*
X835884Y-226967D01*
X836578Y-226062D01*
X837014Y-225009D01*
X837163Y-223878D01*
X837014Y-222747D01*
X836578Y-221694D01*
X835884Y-220789D01*
X834979Y-220095D01*
X833926Y-219659D01*
X832795Y-219510D01*
D02*
G37*
G36*
X822795D02*
X821665Y-219659D01*
X820611Y-220095D01*
X819707Y-220789D01*
X819012Y-221694D01*
X818576Y-222747D01*
X818427Y-223878D01*
X818576Y-225009D01*
X819012Y-226062D01*
X819707Y-226967D01*
X820611Y-227661D01*
X821665Y-228097D01*
X822795Y-228246D01*
X823926Y-228097D01*
X824979Y-227661D01*
X825884Y-226967D01*
X826578Y-226062D01*
X827015Y-225009D01*
X827163Y-223878D01*
X827015Y-222747D01*
X826578Y-221694D01*
X825884Y-220789D01*
X824979Y-220095D01*
X823926Y-219659D01*
X822795Y-219510D01*
D02*
G37*
G36*
X28540Y-257984D02*
X25484D01*
Y-261040D01*
X25579Y-261027D01*
X26585Y-260611D01*
X27448Y-259948D01*
X28111Y-259085D01*
X28527Y-258079D01*
X28540Y-257984D01*
D02*
G37*
G36*
X23516D02*
X20460D01*
X20473Y-258079D01*
X20889Y-259085D01*
X21552Y-259948D01*
X22415Y-260611D01*
X23421Y-261027D01*
X23516Y-261040D01*
Y-257984D01*
D02*
G37*
G36*
X14500Y-252632D02*
X13370Y-252781D01*
X12316Y-253217D01*
X11411Y-253911D01*
X10717Y-254816D01*
X10281Y-255870D01*
X10132Y-257000D01*
X10281Y-258131D01*
X10717Y-259184D01*
X11411Y-260089D01*
X12316Y-260783D01*
X13370Y-261219D01*
X14500Y-261368D01*
X15631Y-261219D01*
X16684Y-260783D01*
X17589Y-260089D01*
X18283Y-259184D01*
X18719Y-258131D01*
X18868Y-257000D01*
X18719Y-255870D01*
X18283Y-254816D01*
X17589Y-253911D01*
X16684Y-253217D01*
X15631Y-252781D01*
X14500Y-252632D01*
D02*
G37*
G36*
X846653Y-265747D02*
X843898D01*
Y-268109D01*
X846653D01*
Y-265747D01*
D02*
G37*
G36*
X841929D02*
X839173D01*
Y-268109D01*
X841929D01*
Y-265747D01*
D02*
G37*
G36*
X24500Y-262632D02*
X23370Y-262781D01*
X22316Y-263217D01*
X21411Y-263911D01*
X20717Y-264816D01*
X20281Y-265869D01*
X20132Y-267000D01*
X20281Y-268130D01*
X20717Y-269184D01*
X21411Y-270089D01*
X22316Y-270783D01*
X23370Y-271219D01*
X24500Y-271368D01*
X25631Y-271219D01*
X26684Y-270783D01*
X27589Y-270089D01*
X28283Y-269184D01*
X28719Y-268130D01*
X28868Y-267000D01*
X28719Y-265869D01*
X28283Y-264816D01*
X27589Y-263911D01*
X26684Y-263217D01*
X25631Y-262781D01*
X24500Y-262632D01*
D02*
G37*
G36*
X14500D02*
X13370Y-262781D01*
X12316Y-263217D01*
X11411Y-263911D01*
X10717Y-264816D01*
X10281Y-265869D01*
X10132Y-267000D01*
X10281Y-268130D01*
X10717Y-269184D01*
X11411Y-270089D01*
X12316Y-270783D01*
X13370Y-271219D01*
X14500Y-271368D01*
X15631Y-271219D01*
X16684Y-270783D01*
X17589Y-270089D01*
X18283Y-269184D01*
X18719Y-268130D01*
X18868Y-267000D01*
X18719Y-265869D01*
X18283Y-264816D01*
X17589Y-263911D01*
X16684Y-263217D01*
X15631Y-262781D01*
X14500Y-262632D01*
D02*
G37*
G36*
X766678Y-265715D02*
X766496Y-265726D01*
X766452Y-265728D01*
X766007Y-265787D01*
X762852Y-266202D01*
X759308Y-266988D01*
X755845Y-268079D01*
X752491Y-269469D01*
X749271Y-271145D01*
X746209Y-273096D01*
X743329Y-275306D01*
X740652Y-277759D01*
X738200Y-280435D01*
X735989Y-283315D01*
X734039Y-286377D01*
X732362Y-289598D01*
X730973Y-292952D01*
X729881Y-296414D01*
X729096Y-299959D01*
X728635Y-303455D01*
X728635Y-303455D01*
X728621Y-303644D01*
X728677Y-303926D01*
X728677Y-303926D01*
X728680Y-303938D01*
X728782Y-304454D01*
X729241Y-305140D01*
X729927Y-305599D01*
X730737Y-305760D01*
X730778Y-305751D01*
X730807Y-305757D01*
X734547D01*
X735357Y-305596D01*
X736043Y-305138D01*
X736502Y-304451D01*
X736622Y-303849D01*
X736623Y-303849D01*
X736663Y-303642D01*
X736658Y-303617D01*
X737101Y-300625D01*
X737903Y-297425D01*
X739015Y-294318D01*
X740425Y-291335D01*
X742122Y-288505D01*
X744088Y-285855D01*
X746303Y-283410D01*
X748748Y-281194D01*
X751399Y-279228D01*
X754229Y-277532D01*
X757212Y-276121D01*
X760318Y-275009D01*
X763519Y-274208D01*
X766623Y-273747D01*
X766732Y-273769D01*
X767542Y-273608D01*
X768228Y-273149D01*
X768687Y-272463D01*
X768848Y-271654D01*
Y-267913D01*
X768687Y-267104D01*
X768633Y-267023D01*
X768632Y-267021D01*
X768174Y-266335D01*
X767487Y-265876D01*
X766678Y-265715D01*
D02*
G37*
G36*
X168268Y-267689D02*
X167446Y-267798D01*
X166679Y-268115D01*
X166021Y-268620D01*
X165992Y-268658D01*
X93701D01*
X92856Y-268826D01*
X92140Y-269305D01*
X68281Y-293163D01*
X67803Y-293880D01*
X67635Y-294724D01*
Y-333278D01*
X64120Y-336793D01*
X63468D01*
X62904Y-336057D01*
X61925Y-335306D01*
X60786Y-334834D01*
X59563Y-334673D01*
X58340Y-334834D01*
X57201Y-335306D01*
X56222Y-336057D01*
X55471Y-337036D01*
X54999Y-338175D01*
X54838Y-339398D01*
X54999Y-340621D01*
X55471Y-341760D01*
X56222Y-342739D01*
X57201Y-343490D01*
X58340Y-343962D01*
X59563Y-344123D01*
X60786Y-343962D01*
X61925Y-343490D01*
X62904Y-342739D01*
X63655Y-341760D01*
X63883Y-341209D01*
X65035D01*
X65879Y-341040D01*
X66596Y-340562D01*
X71404Y-335754D01*
X71882Y-335038D01*
X72050Y-334193D01*
Y-295639D01*
X94615Y-273074D01*
X165992D01*
X166021Y-273113D01*
X166679Y-273617D01*
X167446Y-273935D01*
X168268Y-274043D01*
X169090Y-273935D01*
X169856Y-273617D01*
X170514Y-273113D01*
X171019Y-272455D01*
X171336Y-271688D01*
X171444Y-270866D01*
X171336Y-270044D01*
X171019Y-269278D01*
X170514Y-268620D01*
X169856Y-268115D01*
X169090Y-267798D01*
X168268Y-267689D01*
D02*
G37*
G36*
X169685Y-278740D02*
X166732D01*
Y-282087D01*
X169685D01*
Y-278740D01*
D02*
G37*
G36*
X164764D02*
X161811D01*
Y-282087D01*
X164764D01*
Y-278740D01*
D02*
G37*
G36*
X169685Y-284055D02*
X166732D01*
Y-287402D01*
X169685D01*
Y-284055D01*
D02*
G37*
G36*
X164764D02*
X161811D01*
Y-287402D01*
X164764D01*
Y-284055D01*
D02*
G37*
G36*
X25484Y-292960D02*
Y-296016D01*
X28540D01*
X28527Y-295921D01*
X28111Y-294915D01*
X27448Y-294052D01*
X26585Y-293389D01*
X25579Y-292973D01*
X25484Y-292960D01*
D02*
G37*
G36*
X23516D02*
X23421Y-292973D01*
X22415Y-293389D01*
X21552Y-294052D01*
X20889Y-294915D01*
X20473Y-295921D01*
X20460Y-296016D01*
X23516D01*
Y-292960D01*
D02*
G37*
G36*
X28540Y-297984D02*
X25484D01*
Y-301040D01*
X25579Y-301027D01*
X26585Y-300611D01*
X27448Y-299948D01*
X28111Y-299085D01*
X28527Y-298079D01*
X28540Y-297984D01*
D02*
G37*
G36*
X23516D02*
X20460D01*
X20473Y-298079D01*
X20889Y-299085D01*
X21552Y-299948D01*
X22415Y-300611D01*
X23421Y-301027D01*
X23516Y-301040D01*
Y-297984D01*
D02*
G37*
G36*
X14500Y-292632D02*
X13370Y-292781D01*
X12316Y-293217D01*
X11411Y-293911D01*
X10717Y-294816D01*
X10281Y-295869D01*
X10132Y-297000D01*
X10281Y-298130D01*
X10717Y-299184D01*
X11411Y-300089D01*
X12316Y-300783D01*
X13370Y-301219D01*
X14500Y-301368D01*
X15631Y-301219D01*
X16684Y-300783D01*
X17589Y-300089D01*
X18283Y-299184D01*
X18719Y-298130D01*
X18868Y-297000D01*
X18719Y-295869D01*
X18283Y-294816D01*
X17589Y-293911D01*
X16684Y-293217D01*
X15631Y-292781D01*
X14500Y-292632D01*
D02*
G37*
G36*
X773647Y-265717D02*
X773370Y-265772D01*
X772838Y-265878D01*
X772152Y-266336D01*
X771693Y-267023D01*
X771681Y-267084D01*
X771668Y-267104D01*
X771507Y-267913D01*
Y-271654D01*
X771513Y-271687D01*
X771513Y-271689D01*
X771674Y-272499D01*
X772132Y-273185D01*
X772819Y-273644D01*
X773421Y-273763D01*
X773421Y-273766D01*
X776631Y-274242D01*
X779829Y-275043D01*
X782933Y-276153D01*
X785912Y-277563D01*
X788739Y-279257D01*
X791387Y-281221D01*
X793829Y-283434D01*
X796043Y-285877D01*
X798007Y-288524D01*
X799701Y-291352D01*
X801110Y-294331D01*
X802221Y-297435D01*
X803022Y-300632D01*
X803493Y-303807D01*
X803497Y-303807D01*
X803616Y-304407D01*
X804075Y-305093D01*
X804092Y-305105D01*
X804114Y-305138D01*
X804801Y-305596D01*
X805610Y-305757D01*
X809350Y-305757D01*
X809410Y-305745D01*
X809433Y-305750D01*
X810243Y-305589D01*
X810929Y-305130D01*
X811387Y-304444D01*
X811490Y-303928D01*
X811493Y-303916D01*
X811493Y-303916D01*
X811549Y-303634D01*
X811534Y-303445D01*
X811534D01*
X811075Y-299956D01*
X810289Y-296411D01*
X809197Y-292947D01*
X807807Y-289592D01*
X806130Y-286371D01*
X804179Y-283308D01*
X801968Y-280427D01*
X799515Y-277749D01*
X796837Y-275296D01*
X793956Y-273085D01*
X790893Y-271134D01*
X787672Y-269457D01*
X784316Y-268067D01*
X780853Y-266975D01*
X777308Y-266189D01*
X773838Y-265732D01*
Y-265732D01*
X773647Y-265717D01*
D02*
G37*
G36*
X24563Y-314283D02*
X23077Y-314429D01*
X21649Y-314862D01*
X20332Y-315566D01*
X19178Y-316513D01*
X18231Y-317667D01*
X17527Y-318984D01*
X17094Y-320412D01*
X16948Y-321898D01*
X17094Y-323384D01*
X17527Y-324812D01*
X18231Y-326129D01*
X19178Y-327283D01*
X20332Y-328230D01*
X21649Y-328934D01*
X23077Y-329367D01*
X24563Y-329514D01*
X26049Y-329367D01*
X27477Y-328934D01*
X28794Y-328230D01*
X29948Y-327283D01*
X30895Y-326129D01*
X31599Y-324812D01*
X32032Y-323384D01*
X32178Y-321898D01*
X32032Y-320412D01*
X31599Y-318984D01*
X30895Y-317667D01*
X29948Y-316513D01*
X28794Y-315566D01*
X27477Y-314862D01*
X26049Y-314429D01*
X24563Y-314283D01*
D02*
G37*
G36*
X770079Y-284005D02*
X767053Y-284204D01*
X764079Y-284795D01*
X761208Y-285770D01*
X758489Y-287111D01*
X755968Y-288795D01*
X753688Y-290795D01*
X751689Y-293074D01*
X750005Y-295595D01*
X748664Y-298315D01*
X747689Y-301186D01*
X747097Y-304159D01*
X746899Y-307185D01*
X747097Y-310211D01*
X747689Y-313184D01*
X748664Y-316055D01*
X750005Y-318775D01*
X751689Y-321296D01*
X753688Y-323575D01*
X755968Y-325575D01*
X758489Y-327259D01*
X761208Y-328600D01*
X764079Y-329575D01*
X767053Y-330166D01*
X770079Y-330365D01*
X773104Y-330166D01*
X776078Y-329575D01*
X778949Y-328600D01*
X781669Y-327259D01*
X784190Y-325575D01*
X786469Y-323575D01*
X788468Y-321296D01*
X790153Y-318775D01*
X791494Y-316055D01*
X792469Y-313184D01*
X793060Y-310211D01*
X793258Y-307185D01*
X793060Y-304159D01*
X792469Y-301186D01*
X791494Y-298315D01*
X790153Y-295595D01*
X788468Y-293074D01*
X786469Y-290795D01*
X784190Y-288795D01*
X781669Y-287111D01*
X778949Y-285770D01*
X776078Y-284795D01*
X773104Y-284204D01*
X770079Y-284005D01*
D02*
G37*
G36*
X59563Y-324673D02*
X58340Y-324834D01*
X57201Y-325306D01*
X56222Y-326057D01*
X55471Y-327036D01*
X54999Y-328175D01*
X54838Y-329398D01*
X54999Y-330621D01*
X55471Y-331760D01*
X56222Y-332739D01*
X57201Y-333490D01*
X58340Y-333962D01*
X59563Y-334123D01*
X60786Y-333962D01*
X61925Y-333490D01*
X62904Y-332739D01*
X63655Y-331760D01*
X64127Y-330621D01*
X64288Y-329398D01*
X64127Y-328175D01*
X63655Y-327036D01*
X62904Y-326057D01*
X61925Y-325306D01*
X60786Y-324834D01*
X59563Y-324673D01*
D02*
G37*
G36*
X49563Y-329673D02*
X48340Y-329834D01*
X47201Y-330306D01*
X46222Y-331057D01*
X45471Y-332036D01*
X44999Y-333175D01*
X44838Y-334398D01*
X44999Y-335621D01*
X45471Y-336760D01*
X46222Y-337739D01*
X47201Y-338490D01*
X48340Y-338962D01*
X49563Y-339123D01*
X50786Y-338962D01*
X51925Y-338490D01*
X52904Y-337739D01*
X53655Y-336760D01*
X54127Y-335621D01*
X54288Y-334398D01*
X54127Y-333175D01*
X53655Y-332036D01*
X52904Y-331057D01*
X51925Y-330306D01*
X50786Y-329834D01*
X49563Y-329673D01*
D02*
G37*
G36*
X50547Y-340002D02*
Y-343414D01*
X53960D01*
X53935Y-343227D01*
X53483Y-342135D01*
X52763Y-341198D01*
X51826Y-340478D01*
X50734Y-340026D01*
X50547Y-340002D01*
D02*
G37*
G36*
X48579Y-340002D02*
X48392Y-340026D01*
X47300Y-340478D01*
X46363Y-341198D01*
X45643Y-342135D01*
X45191Y-343227D01*
X45166Y-343414D01*
X48579D01*
Y-340002D01*
D02*
G37*
G36*
X809252Y-308415D02*
X805610D01*
X804801Y-308576D01*
X804114Y-309035D01*
X803656Y-309721D01*
X803495Y-310531D01*
X803506Y-310588D01*
X803039Y-313741D01*
X802237Y-316940D01*
X801126Y-320045D01*
X799716Y-323027D01*
X798021Y-325855D01*
X796056Y-328504D01*
X793841Y-330948D01*
X791398Y-333162D01*
X788749Y-335127D01*
X785920Y-336822D01*
X782939Y-338232D01*
X779834Y-339344D01*
X776635Y-340145D01*
X773586Y-340597D01*
X773587Y-340608D01*
X772995Y-340725D01*
X772309Y-341184D01*
X771850Y-341870D01*
X771848Y-341883D01*
X771766Y-342005D01*
X771605Y-342815D01*
Y-346457D01*
X771766Y-347266D01*
X772225Y-347953D01*
X772911Y-348411D01*
X772919Y-348413D01*
X772995Y-348463D01*
X773517Y-348567D01*
X773529Y-348570D01*
X773529Y-348570D01*
X773804Y-348624D01*
X774003Y-348602D01*
Y-348602D01*
X777305Y-348167D01*
X780849Y-347381D01*
X784312Y-346290D01*
X787666Y-344900D01*
X790886Y-343224D01*
X793948Y-341273D01*
X796828Y-339064D01*
X799505Y-336611D01*
X801957Y-333934D01*
X804167Y-331054D01*
X806118Y-327992D01*
X807794Y-324772D01*
X809183Y-321418D01*
X810275Y-317956D01*
X811061Y-314411D01*
X811534Y-310821D01*
X811534Y-310821D01*
X811543Y-310637D01*
X811486Y-310352D01*
X811486Y-310352D01*
X811484Y-310339D01*
X811382Y-309827D01*
X810923Y-309141D01*
X810237Y-308682D01*
X810213Y-308677D01*
X810061Y-308576D01*
X809252Y-308415D01*
D02*
G37*
G36*
X730706Y-308408D02*
X729896Y-308569D01*
X729210Y-309028D01*
X728752Y-309714D01*
X728590Y-310523D01*
X728604Y-310702D01*
X728609Y-310813D01*
X728659Y-311193D01*
X729083Y-314414D01*
X729869Y-317959D01*
X730961Y-321423D01*
X732351Y-324778D01*
X734027Y-327999D01*
X735979Y-331062D01*
X738190Y-333943D01*
X740643Y-336621D01*
X743321Y-339074D01*
X746202Y-341285D01*
X749264Y-343236D01*
X752486Y-344913D01*
X755841Y-346303D01*
X759305Y-347395D01*
X762850Y-348181D01*
X766039Y-348601D01*
X766451Y-348655D01*
X766536Y-348659D01*
X766715Y-348671D01*
X767525Y-348510D01*
X768211Y-348052D01*
X768670Y-347365D01*
X768831Y-346556D01*
X768829Y-346549D01*
X768848Y-346457D01*
Y-342815D01*
X768845Y-342801D01*
X768853Y-342761D01*
X768692Y-341951D01*
X768233Y-341265D01*
X767547Y-340806D01*
X766932Y-340684D01*
X766933Y-340678D01*
X766781Y-340671D01*
X763514Y-340186D01*
X760311Y-339384D01*
X757202Y-338272D01*
X754217Y-336860D01*
X751385Y-335162D01*
X748733Y-333195D01*
X746286Y-330978D01*
X744069Y-328531D01*
X742102Y-325879D01*
X740404Y-323046D01*
X738992Y-320061D01*
X737880Y-316952D01*
X737077Y-313749D01*
X736593Y-310483D01*
X736589Y-310405D01*
X736586Y-310405D01*
X736465Y-309795D01*
X736006Y-309109D01*
X735984Y-309094D01*
X735945Y-309036D01*
X735258Y-308577D01*
X734449Y-308416D01*
X730747D01*
X730706Y-308408D01*
D02*
G37*
G36*
X53960Y-345382D02*
X50547D01*
Y-348795D01*
X50734Y-348770D01*
X51826Y-348318D01*
X52763Y-347599D01*
X53483Y-346661D01*
X53935Y-345569D01*
X53960Y-345382D01*
D02*
G37*
G36*
X48579D02*
X45166D01*
X45191Y-345569D01*
X45643Y-346661D01*
X46363Y-347599D01*
X47300Y-348318D01*
X48392Y-348770D01*
X48579Y-348795D01*
Y-345382D01*
D02*
G37*
G36*
X49563Y-349673D02*
X48340Y-349834D01*
X47201Y-350306D01*
X46222Y-351057D01*
X45471Y-352036D01*
X44999Y-353175D01*
X44838Y-354398D01*
X44999Y-355621D01*
X45471Y-356760D01*
X46222Y-357739D01*
X47201Y-358490D01*
X48340Y-358962D01*
X49563Y-359123D01*
X50786Y-358962D01*
X51925Y-358490D01*
X52904Y-357739D01*
X53655Y-356760D01*
X54127Y-355621D01*
X54288Y-354398D01*
X54127Y-353175D01*
X53655Y-352036D01*
X52904Y-351057D01*
X51925Y-350306D01*
X50786Y-349834D01*
X49563Y-349673D01*
D02*
G37*
G36*
X24563Y-354283D02*
X23077Y-354429D01*
X21649Y-354862D01*
X20332Y-355566D01*
X19178Y-356513D01*
X18231Y-357667D01*
X17527Y-358984D01*
X17094Y-360412D01*
X16948Y-361898D01*
X17094Y-363384D01*
X17527Y-364812D01*
X18231Y-366129D01*
X19178Y-367283D01*
X20332Y-368230D01*
X21649Y-368934D01*
X23077Y-369367D01*
X24563Y-369514D01*
X26049Y-369367D01*
X27477Y-368934D01*
X28794Y-368230D01*
X29948Y-367283D01*
X30895Y-366129D01*
X31599Y-364812D01*
X32032Y-363384D01*
X32178Y-361898D01*
X32032Y-360412D01*
X31599Y-358984D01*
X30895Y-357667D01*
X29948Y-356513D01*
X28794Y-355566D01*
X27477Y-354862D01*
X26049Y-354429D01*
X24563Y-354283D01*
D02*
G37*
G36*
X591492Y-391600D02*
Y-395315D01*
X595207D01*
X595172Y-395049D01*
X594690Y-393885D01*
X593922Y-392885D01*
X592922Y-392117D01*
X591758Y-391635D01*
X591492Y-391600D01*
D02*
G37*
G36*
X521794D02*
Y-395315D01*
X525508D01*
X525473Y-395049D01*
X524991Y-393885D01*
X524224Y-392885D01*
X523224Y-392117D01*
X522059Y-391635D01*
X521794Y-391600D01*
D02*
G37*
G36*
X452095D02*
Y-395315D01*
X455810D01*
X455775Y-395049D01*
X455293Y-393885D01*
X454525Y-392885D01*
X453525Y-392117D01*
X452360Y-391635D01*
X452095Y-391600D01*
D02*
G37*
G36*
X619051D02*
Y-395315D01*
X622766D01*
X622731Y-395049D01*
X622249Y-393885D01*
X621481Y-392885D01*
X620481Y-392117D01*
X619317Y-391635D01*
X619051Y-391600D01*
D02*
G37*
G36*
X130862D02*
Y-395315D01*
X134577D01*
X134542Y-395049D01*
X134060Y-393885D01*
X133292Y-392885D01*
X132292Y-392117D01*
X131128Y-391635D01*
X130862Y-391600D01*
D02*
G37*
G36*
X340257D02*
Y-395315D01*
X343972D01*
X343937Y-395049D01*
X343455Y-393885D01*
X342687Y-392885D01*
X341687Y-392117D01*
X340522Y-391635D01*
X340257Y-391600D01*
D02*
G37*
G36*
X173301D02*
Y-395315D01*
X177016D01*
X176981Y-395049D01*
X176498Y-393885D01*
X175731Y-392885D01*
X174731Y-392117D01*
X173566Y-391635D01*
X173301Y-391600D01*
D02*
G37*
G36*
X382396D02*
Y-395315D01*
X386111D01*
X386076Y-395049D01*
X385594Y-393885D01*
X384827Y-392885D01*
X383826Y-392117D01*
X382662Y-391635D01*
X382396Y-391600D01*
D02*
G37*
G36*
X549353D02*
Y-395315D01*
X553067D01*
X553032Y-395049D01*
X552550Y-393885D01*
X551783Y-392885D01*
X550783Y-392117D01*
X549618Y-391635D01*
X549353Y-391600D01*
D02*
G37*
G36*
X270558D02*
Y-395315D01*
X274273D01*
X274238Y-395049D01*
X273756Y-393885D01*
X272989Y-392885D01*
X271989Y-392117D01*
X270824Y-391635D01*
X270558Y-391600D01*
D02*
G37*
G36*
X312698Y-391600D02*
Y-395315D01*
X316413D01*
X316378Y-395049D01*
X315895Y-393885D01*
X315128Y-392885D01*
X314128Y-392117D01*
X312963Y-391635D01*
X312698Y-391600D01*
D02*
G37*
G36*
X200860D02*
Y-395315D01*
X204575D01*
X204540Y-395049D01*
X204057Y-393885D01*
X203290Y-392885D01*
X202290Y-392117D01*
X201125Y-391635D01*
X200860Y-391600D01*
D02*
G37*
G36*
X479654D02*
Y-395315D01*
X483369D01*
X483334Y-395049D01*
X482852Y-393885D01*
X482084Y-392885D01*
X481084Y-392117D01*
X479919Y-391635D01*
X479654Y-391600D01*
D02*
G37*
G36*
X103303D02*
Y-395315D01*
X107018D01*
X106983Y-395049D01*
X106501Y-393885D01*
X105733Y-392885D01*
X104733Y-392117D01*
X103569Y-391635D01*
X103303Y-391600D01*
D02*
G37*
G36*
X242999D02*
Y-395315D01*
X246714D01*
X246679Y-395049D01*
X246197Y-393885D01*
X245429Y-392885D01*
X244429Y-392117D01*
X243265Y-391635D01*
X242999Y-391600D01*
D02*
G37*
G36*
X409955D02*
Y-395315D01*
X413670D01*
X413635Y-395049D01*
X413153Y-393885D01*
X412386Y-392885D01*
X411386Y-392117D01*
X410221Y-391635D01*
X409955Y-391600D01*
D02*
G37*
G36*
X241031Y-391600D02*
X240765Y-391635D01*
X239601Y-392117D01*
X238601Y-392885D01*
X237833Y-393885D01*
X237351Y-395049D01*
X237316Y-395315D01*
X241031D01*
Y-391600D01*
D02*
G37*
G36*
X407987D02*
X407722Y-391635D01*
X406557Y-392117D01*
X405557Y-392885D01*
X404789Y-393885D01*
X404307Y-395049D01*
X404272Y-395315D01*
X407987D01*
Y-391600D01*
D02*
G37*
G36*
X310729D02*
X310464Y-391635D01*
X309299Y-392117D01*
X308299Y-392885D01*
X307532Y-393885D01*
X307049Y-395049D01*
X307014Y-395315D01*
X310729D01*
Y-391600D01*
D02*
G37*
G36*
X198891D02*
X198626Y-391635D01*
X197461Y-392117D01*
X196461Y-392885D01*
X195694Y-393885D01*
X195211Y-395049D01*
X195176Y-395315D01*
X198891D01*
Y-391600D01*
D02*
G37*
G36*
X477685D02*
X477420Y-391635D01*
X476255Y-392117D01*
X475255Y-392885D01*
X474488Y-393885D01*
X474006Y-395049D01*
X473971Y-395315D01*
X477685D01*
Y-391600D01*
D02*
G37*
G36*
X101335D02*
X101069Y-391635D01*
X99905Y-392117D01*
X98905Y-392885D01*
X98137Y-393885D01*
X97655Y-395049D01*
X97620Y-395315D01*
X101335D01*
Y-391600D01*
D02*
G37*
G36*
X380428D02*
X380162Y-391635D01*
X378998Y-392117D01*
X377998Y-392885D01*
X377230Y-393885D01*
X376748Y-395049D01*
X376713Y-395315D01*
X380428D01*
Y-391600D01*
D02*
G37*
G36*
X268590D02*
X268324Y-391635D01*
X267160Y-392117D01*
X266160Y-392885D01*
X265392Y-393885D01*
X264910Y-395049D01*
X264875Y-395315D01*
X268590D01*
Y-391600D01*
D02*
G37*
G36*
X547384D02*
X547119Y-391635D01*
X545954Y-392117D01*
X544954Y-392885D01*
X544186Y-393885D01*
X543704Y-395049D01*
X543669Y-395315D01*
X547384D01*
Y-391600D01*
D02*
G37*
G36*
X450127Y-391600D02*
X449861Y-391635D01*
X448696Y-392117D01*
X447696Y-392885D01*
X446929Y-393885D01*
X446447Y-395049D01*
X446412Y-395315D01*
X450127D01*
Y-391600D01*
D02*
G37*
G36*
X617083D02*
X616817Y-391635D01*
X615653Y-392117D01*
X614652Y-392885D01*
X613885Y-393885D01*
X613403Y-395049D01*
X613368Y-395315D01*
X617083D01*
Y-391600D01*
D02*
G37*
G36*
X128894D02*
X128628Y-391635D01*
X127464Y-392117D01*
X126463Y-392885D01*
X125696Y-393885D01*
X125214Y-395049D01*
X125179Y-395315D01*
X128894D01*
Y-391600D01*
D02*
G37*
G36*
X171332D02*
X171067Y-391635D01*
X169902Y-392117D01*
X168902Y-392885D01*
X168135Y-393885D01*
X167652Y-395049D01*
X167617Y-395315D01*
X171332D01*
Y-391600D01*
D02*
G37*
G36*
X338288D02*
X338023Y-391635D01*
X336858Y-392117D01*
X335858Y-392885D01*
X335091Y-393885D01*
X334609Y-395049D01*
X334574Y-395315D01*
X338288D01*
Y-391600D01*
D02*
G37*
G36*
X519825D02*
X519559Y-391635D01*
X518395Y-392117D01*
X517395Y-392885D01*
X516628Y-393885D01*
X516145Y-395049D01*
X516110Y-395315D01*
X519825D01*
Y-391600D01*
D02*
G37*
G36*
X589524D02*
X589258Y-391635D01*
X588094Y-392117D01*
X587093Y-392885D01*
X586326Y-393885D01*
X585844Y-395049D01*
X585809Y-395315D01*
X589524D01*
Y-391600D01*
D02*
G37*
G36*
X595207Y-397284D02*
X591492D01*
Y-400998D01*
X591758Y-400963D01*
X592922Y-400481D01*
X593922Y-399714D01*
X594690Y-398714D01*
X595172Y-397549D01*
X595207Y-397284D01*
D02*
G37*
G36*
X525508D02*
X521794D01*
Y-400998D01*
X522059Y-400963D01*
X523224Y-400481D01*
X524224Y-399714D01*
X524991Y-398714D01*
X525473Y-397549D01*
X525508Y-397284D01*
D02*
G37*
G36*
X407987D02*
X404272D01*
X404307Y-397549D01*
X404789Y-398714D01*
X405557Y-399714D01*
X406557Y-400481D01*
X407722Y-400963D01*
X407987Y-400998D01*
Y-397284D01*
D02*
G37*
G36*
X241031D02*
X237316D01*
X237351Y-397549D01*
X237833Y-398714D01*
X238601Y-399714D01*
X239601Y-400481D01*
X240765Y-400963D01*
X241031Y-400998D01*
Y-397284D01*
D02*
G37*
G36*
X343972D02*
X340257D01*
Y-400998D01*
X340522Y-400963D01*
X341687Y-400481D01*
X342687Y-399714D01*
X343455Y-398714D01*
X343937Y-397549D01*
X343972Y-397284D01*
D02*
G37*
G36*
X177016D02*
X173301D01*
Y-400998D01*
X173566Y-400963D01*
X174731Y-400481D01*
X175731Y-399714D01*
X176498Y-398714D01*
X176981Y-397549D01*
X177016Y-397284D01*
D02*
G37*
G36*
X134577D02*
X130862D01*
Y-400998D01*
X131128Y-400963D01*
X132292Y-400481D01*
X133292Y-399714D01*
X134060Y-398714D01*
X134542Y-397549D01*
X134577Y-397284D01*
D02*
G37*
G36*
X622766D02*
X619051D01*
Y-400998D01*
X619317Y-400963D01*
X620481Y-400481D01*
X621481Y-399714D01*
X622249Y-398714D01*
X622731Y-397549D01*
X622766Y-397284D01*
D02*
G37*
G36*
X455810D02*
X452095D01*
Y-400998D01*
X452360Y-400963D01*
X453525Y-400481D01*
X454525Y-399714D01*
X455293Y-398714D01*
X455775Y-397549D01*
X455810Y-397284D01*
D02*
G37*
G36*
X477685D02*
X473971D01*
X474006Y-397549D01*
X474488Y-398714D01*
X475255Y-399714D01*
X476255Y-400481D01*
X477420Y-400963D01*
X477685Y-400998D01*
Y-397284D01*
D02*
G37*
G36*
X310729D02*
X307014D01*
X307049Y-397549D01*
X307532Y-398714D01*
X308299Y-399714D01*
X309299Y-400481D01*
X310464Y-400963D01*
X310729Y-400998D01*
Y-397284D01*
D02*
G37*
G36*
X198891D02*
X195176D01*
X195211Y-397549D01*
X195694Y-398714D01*
X196461Y-399714D01*
X197461Y-400481D01*
X198626Y-400963D01*
X198891Y-400998D01*
Y-397284D01*
D02*
G37*
G36*
X101335D02*
X97620D01*
X97655Y-397549D01*
X98137Y-398714D01*
X98905Y-399714D01*
X99905Y-400481D01*
X101069Y-400963D01*
X101335Y-400998D01*
Y-397284D01*
D02*
G37*
G36*
X274273D02*
X270558D01*
Y-400998D01*
X270824Y-400963D01*
X271989Y-400481D01*
X272989Y-399714D01*
X273756Y-398714D01*
X274238Y-397549D01*
X274273Y-397284D01*
D02*
G37*
G36*
X553067D02*
X549353D01*
Y-400998D01*
X549618Y-400963D01*
X550783Y-400481D01*
X551783Y-399714D01*
X552550Y-398714D01*
X553032Y-397549D01*
X553067Y-397284D01*
D02*
G37*
G36*
X386111D02*
X382396D01*
Y-400998D01*
X382662Y-400963D01*
X383826Y-400481D01*
X384827Y-399714D01*
X385594Y-398714D01*
X386076Y-397549D01*
X386111Y-397284D01*
D02*
G37*
G36*
X547384D02*
X543669D01*
X543704Y-397549D01*
X544186Y-398714D01*
X544954Y-399714D01*
X545954Y-400481D01*
X547119Y-400963D01*
X547384Y-400998D01*
Y-397284D01*
D02*
G37*
G36*
X380428D02*
X376713D01*
X376748Y-397549D01*
X377230Y-398714D01*
X377998Y-399714D01*
X378998Y-400481D01*
X380162Y-400963D01*
X380428Y-400998D01*
Y-397284D01*
D02*
G37*
G36*
X268590D02*
X264875D01*
X264910Y-397549D01*
X265392Y-398714D01*
X266160Y-399714D01*
X267160Y-400481D01*
X268324Y-400963D01*
X268590Y-400998D01*
Y-397284D01*
D02*
G37*
G36*
X316413D02*
X312698D01*
Y-400998D01*
X312963Y-400963D01*
X314128Y-400481D01*
X315128Y-399714D01*
X315895Y-398714D01*
X316378Y-397549D01*
X316413Y-397284D01*
D02*
G37*
G36*
X204575D02*
X200860D01*
Y-400998D01*
X201125Y-400963D01*
X202290Y-400481D01*
X203290Y-399714D01*
X204057Y-398714D01*
X204540Y-397549D01*
X204575Y-397284D01*
D02*
G37*
G36*
X107018D02*
X103303D01*
Y-400998D01*
X103569Y-400963D01*
X104733Y-400481D01*
X105733Y-399714D01*
X106501Y-398714D01*
X106983Y-397549D01*
X107018Y-397284D01*
D02*
G37*
G36*
X483369D02*
X479654D01*
Y-400998D01*
X479919Y-400963D01*
X481084Y-400481D01*
X482084Y-399714D01*
X482852Y-398714D01*
X483334Y-397549D01*
X483369Y-397284D01*
D02*
G37*
G36*
X617083D02*
X613368D01*
X613403Y-397549D01*
X613885Y-398714D01*
X614652Y-399714D01*
X615653Y-400481D01*
X616817Y-400963D01*
X617083Y-400998D01*
Y-397284D01*
D02*
G37*
G36*
X450127D02*
X446412D01*
X446447Y-397549D01*
X446929Y-398714D01*
X447696Y-399714D01*
X448696Y-400481D01*
X449861Y-400963D01*
X450127Y-400998D01*
Y-397284D01*
D02*
G37*
G36*
X338288D02*
X334574D01*
X334609Y-397549D01*
X335091Y-398714D01*
X335858Y-399714D01*
X336858Y-400481D01*
X338023Y-400963D01*
X338288Y-400998D01*
Y-397284D01*
D02*
G37*
G36*
X171332D02*
X167617D01*
X167652Y-397549D01*
X168135Y-398714D01*
X168902Y-399714D01*
X169902Y-400481D01*
X171067Y-400963D01*
X171332Y-400998D01*
Y-397284D01*
D02*
G37*
G36*
X128894D02*
X125179D01*
X125214Y-397549D01*
X125696Y-398714D01*
X126463Y-399714D01*
X127464Y-400481D01*
X128628Y-400963D01*
X128894Y-400998D01*
Y-397284D01*
D02*
G37*
G36*
X246714D02*
X242999D01*
Y-400998D01*
X243265Y-400963D01*
X244429Y-400481D01*
X245429Y-399714D01*
X246197Y-398714D01*
X246679Y-397549D01*
X246714Y-397284D01*
D02*
G37*
G36*
X413670D02*
X409955D01*
Y-400998D01*
X410221Y-400963D01*
X411386Y-400481D01*
X412386Y-399714D01*
X413153Y-398714D01*
X413635Y-397549D01*
X413670Y-397284D01*
D02*
G37*
G36*
X519825D02*
X516110D01*
X516145Y-397549D01*
X516628Y-398714D01*
X517395Y-399714D01*
X518395Y-400481D01*
X519559Y-400963D01*
X519825Y-400998D01*
Y-397284D01*
D02*
G37*
G36*
X589524D02*
X585809D01*
X585844Y-397549D01*
X586326Y-398714D01*
X587093Y-399714D01*
X588094Y-400481D01*
X589258Y-400963D01*
X589524Y-400998D01*
Y-397284D01*
D02*
G37*
G36*
X526715Y-402451D02*
Y-405158D01*
X529421D01*
X529420Y-405153D01*
X529039Y-404232D01*
X528432Y-403441D01*
X527641Y-402833D01*
X526719Y-402452D01*
X526715Y-402451D01*
D02*
G37*
G36*
X457016D02*
Y-405158D01*
X459723D01*
X459722Y-405153D01*
X459340Y-404232D01*
X458733Y-403441D01*
X457942Y-402833D01*
X457021Y-402452D01*
X457016Y-402451D01*
D02*
G37*
G36*
X387318D02*
Y-405158D01*
X390024D01*
X390023Y-405153D01*
X389642Y-404232D01*
X389035Y-403441D01*
X388244Y-402833D01*
X387322Y-402452D01*
X387318Y-402451D01*
D02*
G37*
G36*
X108224D02*
Y-405158D01*
X110931D01*
X110930Y-405153D01*
X110548Y-404232D01*
X109941Y-403441D01*
X109150Y-402833D01*
X108229Y-402452D01*
X108224Y-402451D01*
D02*
G37*
G36*
X317619D02*
Y-405158D01*
X320325D01*
X320325Y-405153D01*
X319943Y-404232D01*
X319336Y-403441D01*
X318545Y-402833D01*
X317624Y-402452D01*
X317619Y-402451D01*
D02*
G37*
G36*
X247921Y-402451D02*
Y-405158D01*
X250627D01*
X250626Y-405153D01*
X250245Y-404232D01*
X249638Y-403441D01*
X248846Y-402833D01*
X247925Y-402452D01*
X247921Y-402451D01*
D02*
G37*
G36*
X178222D02*
Y-405158D01*
X180928D01*
X180928Y-405153D01*
X180546Y-404232D01*
X179939Y-403441D01*
X179148Y-402833D01*
X178226Y-402452D01*
X178222Y-402451D01*
D02*
G37*
G36*
X596413Y-402451D02*
Y-405158D01*
X599120D01*
X599119Y-405153D01*
X598737Y-404232D01*
X598130Y-403441D01*
X597339Y-402833D01*
X596418Y-402452D01*
X596413Y-402451D01*
D02*
G37*
G36*
X594445Y-402451D02*
X594440Y-402452D01*
X593519Y-402833D01*
X592728Y-403441D01*
X592121Y-404232D01*
X591739Y-405153D01*
X591739Y-405158D01*
X594445D01*
Y-402451D01*
D02*
G37*
G36*
X176253D02*
X176249Y-402452D01*
X175328Y-402833D01*
X174537Y-403441D01*
X173930Y-404232D01*
X173548Y-405153D01*
X173547Y-405158D01*
X176253D01*
Y-402451D01*
D02*
G37*
G36*
X245952Y-402451D02*
X245948Y-402452D01*
X245026Y-402833D01*
X244235Y-403441D01*
X243628Y-404232D01*
X243246Y-405153D01*
X243246Y-405158D01*
X245952D01*
Y-402451D01*
D02*
G37*
G36*
X106256D02*
X106251Y-402452D01*
X105330Y-402833D01*
X104539Y-403441D01*
X103932Y-404232D01*
X103550Y-405153D01*
X103550Y-405158D01*
X106256D01*
Y-402451D01*
D02*
G37*
G36*
X315651D02*
X315646Y-402452D01*
X314725Y-402833D01*
X313934Y-403441D01*
X313327Y-404232D01*
X312945Y-405153D01*
X312944Y-405158D01*
X315651D01*
Y-402451D01*
D02*
G37*
G36*
X385349D02*
X385345Y-402452D01*
X384423Y-402833D01*
X383632Y-403441D01*
X383025Y-404232D01*
X382644Y-405153D01*
X382643Y-405158D01*
X385349D01*
Y-402451D01*
D02*
G37*
G36*
X455048Y-402451D02*
X455043Y-402452D01*
X454122Y-402833D01*
X453331Y-403441D01*
X452724Y-404232D01*
X452342Y-405153D01*
X452342Y-405158D01*
X455048D01*
Y-402451D01*
D02*
G37*
G36*
X524746D02*
X524742Y-402452D01*
X523820Y-402833D01*
X523029Y-403441D01*
X522422Y-404232D01*
X522041Y-405153D01*
X522040Y-405158D01*
X524746D01*
Y-402451D01*
D02*
G37*
G36*
X529421Y-407126D02*
X526715D01*
Y-409832D01*
X526719Y-409832D01*
X527641Y-409450D01*
X528432Y-408843D01*
X529039Y-408052D01*
X529420Y-407130D01*
X529421Y-407126D01*
D02*
G37*
G36*
X459723D02*
X457016D01*
Y-409832D01*
X457021Y-409832D01*
X457942Y-409450D01*
X458733Y-408843D01*
X459340Y-408052D01*
X459722Y-407130D01*
X459723Y-407126D01*
D02*
G37*
G36*
X594445D02*
X591739D01*
X591739Y-407130D01*
X592121Y-408052D01*
X592728Y-408843D01*
X593519Y-409450D01*
X594440Y-409832D01*
X594445Y-409832D01*
Y-407126D01*
D02*
G37*
G36*
X390024D02*
X387318D01*
Y-409832D01*
X387322Y-409832D01*
X388244Y-409450D01*
X389035Y-408843D01*
X389642Y-408052D01*
X390023Y-407130D01*
X390024Y-407126D01*
D02*
G37*
G36*
X320325D02*
X317619D01*
Y-409832D01*
X317624Y-409832D01*
X318545Y-409450D01*
X319336Y-408843D01*
X319943Y-408052D01*
X320325Y-407130D01*
X320325Y-407126D01*
D02*
G37*
G36*
X110931D02*
X108224D01*
Y-409832D01*
X108229Y-409832D01*
X109150Y-409450D01*
X109941Y-408843D01*
X110548Y-408052D01*
X110930Y-407130D01*
X110931Y-407126D01*
D02*
G37*
G36*
X176253D02*
X173547D01*
X173548Y-407130D01*
X173930Y-408052D01*
X174537Y-408843D01*
X175328Y-409450D01*
X176249Y-409832D01*
X176253Y-409832D01*
Y-407126D01*
D02*
G37*
G36*
X250627D02*
X247921D01*
Y-409832D01*
X247925Y-409832D01*
X248846Y-409450D01*
X249638Y-408843D01*
X250245Y-408052D01*
X250626Y-407130D01*
X250627Y-407126D01*
D02*
G37*
G36*
X245952D02*
X243246D01*
X243246Y-407130D01*
X243628Y-408052D01*
X244235Y-408843D01*
X245026Y-409450D01*
X245948Y-409832D01*
X245952Y-409832D01*
Y-407126D01*
D02*
G37*
G36*
X180928D02*
X178222D01*
Y-409832D01*
X178226Y-409832D01*
X179148Y-409450D01*
X179939Y-408843D01*
X180546Y-408052D01*
X180928Y-407130D01*
X180928Y-407126D01*
D02*
G37*
G36*
X315651D02*
X312944D01*
X312945Y-407130D01*
X313327Y-408052D01*
X313934Y-408843D01*
X314725Y-409450D01*
X315646Y-409832D01*
X315651Y-409832D01*
Y-407126D01*
D02*
G37*
G36*
X106256D02*
X103550D01*
X103550Y-407130D01*
X103932Y-408052D01*
X104539Y-408843D01*
X105330Y-409450D01*
X106251Y-409832D01*
X106256Y-409832D01*
Y-407126D01*
D02*
G37*
G36*
X385349D02*
X382643D01*
X382644Y-407130D01*
X383025Y-408052D01*
X383632Y-408843D01*
X384423Y-409450D01*
X385345Y-409832D01*
X385349Y-409832D01*
Y-407126D01*
D02*
G37*
G36*
X599120D02*
X596413D01*
Y-409832D01*
X596418Y-409832D01*
X597339Y-409450D01*
X598130Y-408843D01*
X598737Y-408052D01*
X599119Y-407130D01*
X599120Y-407126D01*
D02*
G37*
G36*
X455048D02*
X452342D01*
X452342Y-407130D01*
X452724Y-408052D01*
X453331Y-408843D01*
X454122Y-409450D01*
X455043Y-409832D01*
X455048Y-409832D01*
Y-407126D01*
D02*
G37*
G36*
X524746D02*
X522040D01*
X522041Y-407130D01*
X522422Y-408052D01*
X523029Y-408843D01*
X523820Y-409450D01*
X524742Y-409832D01*
X524746Y-409832D01*
Y-407126D01*
D02*
G37*
G36*
X613146Y-402123D02*
X612106Y-402260D01*
X611136Y-402662D01*
X610304Y-403300D01*
X609665Y-404132D01*
X609264Y-405102D01*
X609127Y-406142D01*
X609264Y-407182D01*
X609665Y-408151D01*
X610304Y-408983D01*
X611136Y-409622D01*
X612106Y-410023D01*
X613146Y-410160D01*
X614186Y-410023D01*
X615155Y-409622D01*
X615987Y-408983D01*
X616626Y-408151D01*
X617027Y-407182D01*
X617164Y-406142D01*
X617027Y-405102D01*
X616626Y-404132D01*
X615987Y-403300D01*
X615155Y-402662D01*
X614186Y-402260D01*
X613146Y-402123D01*
D02*
G37*
G36*
X543447D02*
X542407Y-402260D01*
X541438Y-402662D01*
X540605Y-403300D01*
X539967Y-404132D01*
X539565Y-405102D01*
X539428Y-406142D01*
X539565Y-407182D01*
X539967Y-408151D01*
X540605Y-408983D01*
X541438Y-409622D01*
X542407Y-410023D01*
X543447Y-410160D01*
X544487Y-410023D01*
X545456Y-409622D01*
X546289Y-408983D01*
X546927Y-408151D01*
X547329Y-407182D01*
X547466Y-406142D01*
X547329Y-405102D01*
X546927Y-404132D01*
X546289Y-403300D01*
X545456Y-402662D01*
X544487Y-402260D01*
X543447Y-402123D01*
D02*
G37*
G36*
X473748D02*
X472708Y-402260D01*
X471739Y-402662D01*
X470907Y-403300D01*
X470268Y-404132D01*
X469867Y-405102D01*
X469730Y-406142D01*
X469867Y-407182D01*
X470268Y-408151D01*
X470907Y-408983D01*
X471739Y-409622D01*
X472708Y-410023D01*
X473748Y-410160D01*
X474789Y-410023D01*
X475758Y-409622D01*
X476590Y-408983D01*
X477229Y-408151D01*
X477630Y-407182D01*
X477767Y-406142D01*
X477630Y-405102D01*
X477229Y-404132D01*
X476590Y-403300D01*
X475758Y-402662D01*
X474789Y-402260D01*
X473748Y-402123D01*
D02*
G37*
G36*
X404050D02*
X403010Y-402260D01*
X402041Y-402662D01*
X401208Y-403300D01*
X400570Y-404132D01*
X400168Y-405102D01*
X400031Y-406142D01*
X400168Y-407182D01*
X400570Y-408151D01*
X401208Y-408983D01*
X402041Y-409622D01*
X403010Y-410023D01*
X404050Y-410160D01*
X405090Y-410023D01*
X406059Y-409622D01*
X406892Y-408983D01*
X407530Y-408151D01*
X407932Y-407182D01*
X408069Y-406142D01*
X407932Y-405102D01*
X407530Y-404132D01*
X406892Y-403300D01*
X406059Y-402662D01*
X405090Y-402260D01*
X404050Y-402123D01*
D02*
G37*
G36*
X334351D02*
X333311Y-402260D01*
X332342Y-402662D01*
X331510Y-403300D01*
X330871Y-404132D01*
X330470Y-405102D01*
X330333Y-406142D01*
X330470Y-407182D01*
X330871Y-408151D01*
X331510Y-408983D01*
X332342Y-409622D01*
X333311Y-410023D01*
X334351Y-410160D01*
X335391Y-410023D01*
X336361Y-409622D01*
X337193Y-408983D01*
X337832Y-408151D01*
X338233Y-407182D01*
X338370Y-406142D01*
X338233Y-405102D01*
X337832Y-404132D01*
X337193Y-403300D01*
X336361Y-402662D01*
X335391Y-402260D01*
X334351Y-402123D01*
D02*
G37*
G36*
X264653D02*
X263613Y-402260D01*
X262644Y-402662D01*
X261811Y-403300D01*
X261173Y-404132D01*
X260771Y-405102D01*
X260634Y-406142D01*
X260771Y-407182D01*
X261173Y-408151D01*
X261811Y-408983D01*
X262644Y-409622D01*
X263613Y-410023D01*
X264653Y-410160D01*
X265693Y-410023D01*
X266662Y-409622D01*
X267495Y-408983D01*
X268133Y-408151D01*
X268535Y-407182D01*
X268671Y-406142D01*
X268535Y-405102D01*
X268133Y-404132D01*
X267495Y-403300D01*
X266662Y-402662D01*
X265693Y-402260D01*
X264653Y-402123D01*
D02*
G37*
G36*
X194954D02*
X193914Y-402260D01*
X192945Y-402662D01*
X192113Y-403300D01*
X191474Y-404132D01*
X191073Y-405102D01*
X190936Y-406142D01*
X191073Y-407182D01*
X191474Y-408151D01*
X192113Y-408983D01*
X192945Y-409622D01*
X193914Y-410023D01*
X194954Y-410160D01*
X195994Y-410023D01*
X196964Y-409622D01*
X197796Y-408983D01*
X198434Y-408151D01*
X198836Y-407182D01*
X198973Y-406142D01*
X198836Y-405102D01*
X198434Y-404132D01*
X197796Y-403300D01*
X196964Y-402662D01*
X195994Y-402260D01*
X194954Y-402123D01*
D02*
G37*
G36*
X124957D02*
X123917Y-402260D01*
X122947Y-402662D01*
X122115Y-403300D01*
X121476Y-404132D01*
X121075Y-405102D01*
X120938Y-406142D01*
X121075Y-407182D01*
X121476Y-408151D01*
X122115Y-408983D01*
X122947Y-409622D01*
X123917Y-410023D01*
X124957Y-410160D01*
X125997Y-410023D01*
X126966Y-409622D01*
X127798Y-408983D01*
X128437Y-408151D01*
X128838Y-407182D01*
X128975Y-406142D01*
X128838Y-405102D01*
X128437Y-404132D01*
X127798Y-403300D01*
X126966Y-402662D01*
X125997Y-402260D01*
X124957Y-402123D01*
D02*
G37*
G36*
X60276Y-414764D02*
X57126D01*
Y-417913D01*
X60276D01*
Y-414764D01*
D02*
G37*
G36*
X55158D02*
X52008D01*
Y-417913D01*
X55158D01*
Y-414764D01*
D02*
G37*
G36*
X60276Y-419882D02*
X57126D01*
Y-423032D01*
X60276D01*
Y-419882D01*
D02*
G37*
G36*
X55158D02*
X52008D01*
Y-423032D01*
X55158D01*
Y-419882D01*
D02*
G37*
G36*
X59563Y-344673D02*
X58340Y-344834D01*
X57201Y-345306D01*
X56222Y-346057D01*
X55471Y-347036D01*
X54999Y-348175D01*
X54838Y-349398D01*
X54999Y-350621D01*
X55471Y-351760D01*
X56222Y-352739D01*
X57201Y-353490D01*
X58340Y-353962D01*
X59563Y-354123D01*
X60512Y-353998D01*
X63561Y-357046D01*
Y-415419D01*
X63053Y-415809D01*
X62359Y-416714D01*
X61923Y-417767D01*
X61774Y-418898D01*
X61923Y-420028D01*
X62359Y-421082D01*
X63053Y-421986D01*
X63958Y-422681D01*
X65011Y-423117D01*
X66142Y-423266D01*
X67272Y-423117D01*
X68326Y-422681D01*
X69230Y-421986D01*
X69925Y-421082D01*
X70361Y-420028D01*
X70510Y-418898D01*
X70361Y-417767D01*
X69925Y-416714D01*
X69230Y-415809D01*
X68723Y-415419D01*
Y-355977D01*
X68635Y-355309D01*
X68377Y-354686D01*
X67967Y-354152D01*
X64163Y-350347D01*
X64288Y-349398D01*
X64127Y-348175D01*
X63655Y-347036D01*
X62904Y-346057D01*
X61925Y-345306D01*
X60786Y-344834D01*
X59563Y-344673D01*
D02*
G37*
G36*
X76142Y-414530D02*
X75011Y-414679D01*
X73958Y-415115D01*
X73053Y-415809D01*
X72359Y-416714D01*
X71922Y-417767D01*
X71774Y-418898D01*
X71922Y-420028D01*
X72359Y-421082D01*
X73053Y-421986D01*
X73958Y-422681D01*
X75011Y-423117D01*
X76142Y-423266D01*
X77272Y-423117D01*
X78326Y-422681D01*
X79230Y-421986D01*
X79925Y-421082D01*
X80361Y-420028D01*
X80510Y-418898D01*
X80361Y-417767D01*
X79925Y-416714D01*
X79230Y-415809D01*
X78326Y-415115D01*
X77272Y-414679D01*
X76142Y-414530D01*
D02*
G37*
%LPD*%
D11*
X595238Y-53937D02*
X655118D01*
X623944Y-42642D02*
X648154D01*
X673622Y-68110D01*
X655118Y-53937D02*
X668504Y-67323D01*
Y-77165D02*
Y-67323D01*
X673622Y-83465D02*
Y-68110D01*
X596577Y-15276D02*
X623944Y-42642D01*
X660630Y-80315D02*
Y-77165D01*
Y-80315D02*
X665748Y-85433D01*
X671654D01*
X673622Y-83465D01*
X586577Y-45276D02*
X595238Y-53937D01*
D17*
X319193Y-79528D02*
Y-58720D01*
X316378Y-55905D02*
X319193Y-58720D01*
X338976Y-79528D02*
Y-25591D01*
X211640Y-37402D02*
Y-35640D01*
X213028Y-34252D01*
X219291D01*
X224803Y-28740D01*
X225197D01*
X267323Y-37402D02*
Y-35433D01*
X264975Y-25854D02*
X279412Y-11417D01*
X307126Y-46654D02*
X316378Y-55905D01*
X307126Y-26969D02*
X322598D01*
X316378Y-55905D02*
X325295D01*
X322598Y-26969D02*
X323976Y-25591D01*
X325295Y-26909D01*
Y-38681D02*
Y-26909D01*
Y-55905D02*
X325590Y-56201D01*
X325295Y-38681D02*
X325590Y-38976D01*
Y-56299D02*
Y-56201D01*
X279412Y-11417D02*
X368898D01*
Y-16339D02*
Y-11417D01*
Y-23228D02*
Y-16339D01*
Y-11417D02*
X413386D01*
X413799Y-11831D01*
Y-25591D02*
Y-11831D01*
X413386Y-11417D02*
X494095D01*
Y-23228D02*
Y-16339D01*
Y-11417D01*
X526772D01*
D69*
X637402Y-99016D02*
D03*
Y-106496D02*
D03*
X842913Y-257282D02*
D03*
Y-264763D02*
D03*
X613386Y-106496D02*
D03*
Y-99016D02*
D03*
X629134Y-106496D02*
D03*
Y-99016D02*
D03*
X621260Y-106496D02*
D03*
Y-99016D02*
D03*
X75354Y-87992D02*
D03*
Y-95472D02*
D03*
D70*
X176772Y-283071D02*
D03*
X165748D02*
D03*
D71*
X225197Y-16929D02*
D03*
Y-28740D02*
D03*
D72*
X574803Y-45276D02*
D03*
Y-34252D02*
D03*
X447364Y-13248D02*
D03*
Y-24272D02*
D03*
X437687Y-13248D02*
D03*
Y-24272D02*
D03*
X428010Y-13248D02*
D03*
Y-24272D02*
D03*
X466718Y-13248D02*
D03*
Y-24272D02*
D03*
X457041Y-13248D02*
D03*
Y-24272D02*
D03*
D73*
X213976Y-55905D02*
D03*
X206496D02*
D03*
X843110Y-244094D02*
D03*
X850591D02*
D03*
X842913D02*
D03*
X835433D02*
D03*
X637205Y-88976D02*
D03*
X644685D02*
D03*
X621063D02*
D03*
X613583D02*
D03*
X64370Y-36220D02*
D03*
X71850D02*
D03*
X76575Y-68898D02*
D03*
X84055D02*
D03*
X167421Y-75689D02*
D03*
X159941D02*
D03*
X159941Y-85138D02*
D03*
X167421D02*
D03*
X183026Y-51426D02*
D03*
X175546D02*
D03*
X183029Y-43945D02*
D03*
X175548D02*
D03*
D74*
X211650Y-37402D02*
D03*
X194150D02*
D03*
D75*
X668504Y-77165D02*
D03*
X660630D02*
D03*
X652756D02*
D03*
X644882D02*
D03*
X637008D02*
D03*
X629134D02*
D03*
X621260D02*
D03*
X613386D02*
D03*
Y-14173D02*
D03*
X621260D02*
D03*
X629134D02*
D03*
X637008D02*
D03*
X644882D02*
D03*
X652756D02*
D03*
X660630D02*
D03*
X668504D02*
D03*
D76*
X368898Y-50591D02*
D03*
Y-16339D02*
D03*
X494095Y-50591D02*
D03*
Y-16339D02*
D03*
D77*
X199409Y-69685D02*
D03*
D78*
X188779Y-77579D02*
D03*
Y-72579D02*
D03*
Y-67579D02*
D03*
Y-62579D02*
D03*
X210039D02*
D03*
Y-67579D02*
D03*
Y-72579D02*
D03*
Y-77579D02*
D03*
D79*
X163287Y-67224D02*
D03*
Y-51083D02*
D03*
D80*
X131650Y-65437D02*
D03*
Y-47937D02*
D03*
D81*
X121807Y-31347D02*
D03*
X133618D02*
D03*
D82*
X149465Y-31741D02*
D03*
X176827D02*
D03*
D83*
X248622Y-101969D02*
D03*
X255315D02*
D03*
X280118Y-77953D02*
D03*
X286811D02*
D03*
X269094D02*
D03*
X262402D02*
D03*
D84*
X255709Y-94882D02*
D03*
X251969Y-86221D02*
D03*
X248228Y-94882D02*
D03*
D85*
X260630Y-36220D02*
D03*
D86*
X269646Y-64567D02*
D03*
X251614D02*
D03*
D87*
X64378Y-82579D02*
D03*
Y-78248D02*
D03*
Y-73917D02*
D03*
Y-69587D02*
D03*
Y-65256D02*
D03*
Y-60925D02*
D03*
Y-56595D02*
D03*
Y-52264D02*
D03*
Y-48524D02*
D03*
D88*
Y-88681D02*
D03*
X47449Y-44783D02*
D03*
D89*
X23043D02*
D03*
D90*
X6705D02*
D03*
D91*
X4929Y-97933D02*
D03*
D92*
X524016Y-13780D02*
D03*
Y-31890D02*
D03*
D93*
X294488Y-77362D02*
D03*
Y-90354D02*
D03*
D94*
X262402Y-86221D02*
D03*
X275394D02*
D03*
D95*
X325590Y-56299D02*
D03*
Y-38976D02*
D03*
D96*
X294488Y-98327D02*
D03*
Y-104035D02*
D03*
D97*
X207371Y-111921D02*
X213779Y-105512D01*
X200551Y-117953D02*
X206583Y-111921D01*
X207371D01*
X200551Y-237953D02*
Y-117953D01*
X665748Y-272047D02*
X728740Y-209055D01*
Y-161028D02*
X738981Y-150787D01*
X728740Y-209055D02*
Y-161028D01*
X69842Y-334193D02*
Y-294724D01*
X93701Y-270866D01*
X168268D01*
X127953Y-250394D02*
X181653D01*
X123031Y-255315D02*
X127953Y-250394D01*
X54035Y-255315D02*
X123031D01*
X54823Y-258661D02*
X123779D01*
X31483Y-282002D02*
X54823Y-258661D01*
X123779D02*
X129685Y-252756D01*
X724559Y-89615D02*
X741266D01*
X766453Y-64428D01*
X14500Y-247000D02*
X15504D01*
X20573Y-252069D02*
X22618D01*
X15504Y-247000D02*
X20573Y-252069D01*
X14500Y-287000D02*
X19502Y-281998D01*
X22185D01*
X24500Y-287000D02*
X31405D01*
X24500Y-277000D02*
X32350D01*
X26378Y-282002D02*
X31483D01*
X59563Y-339398D02*
X59960Y-339001D01*
X65035D01*
X69842Y-334193D01*
X14500Y-237000D02*
X19474Y-241974D01*
X14500Y-227000D02*
X19518Y-232017D01*
X19474Y-241974D02*
X22480D01*
X19518Y-232017D02*
X22441D01*
X32350Y-277000D02*
X54035Y-255315D01*
X31405Y-287000D02*
X55610Y-262795D01*
X54724Y-68504D02*
Y-39173D01*
X57677Y-36220D01*
X54724Y-68504D02*
X60138Y-73917D01*
X57677Y-36220D02*
X64370D01*
X60138Y-73917D02*
X65650D01*
X63591Y-77461D02*
X64378Y-78248D01*
X69225Y-82256D02*
Y-82015D01*
Y-82256D02*
X74961Y-87992D01*
X26378Y-252041D02*
X121975Y-252041D01*
X74961Y-87992D02*
X75354D01*
X75748D01*
X24500Y-227000D02*
X126839D01*
X24500Y-237000D02*
X127075D01*
X25984Y-232037D02*
X126822Y-232037D01*
X25984Y-242028D02*
X127264Y-242028D01*
X75610Y-83878D02*
X79508D01*
X75748Y-87992D02*
X80709Y-92953D01*
Y-125984D02*
Y-92953D01*
X79508Y-83878D02*
X83071Y-87441D01*
Y-124409D02*
Y-87441D01*
X85827Y-123228D02*
Y-87008D01*
X92913Y-120472D02*
Y-68110D01*
X80709Y-125984D02*
X105512Y-150787D01*
X83071Y-124409D02*
X107480Y-148819D01*
X85827Y-123228D02*
X108661Y-146063D01*
X92913Y-120472D02*
X111811Y-139370D01*
X55610Y-262795D02*
X168307D01*
X64378Y-78248D02*
X65458D01*
X69225Y-82015D01*
X63591Y-65256D02*
X73327D01*
X65650Y-73917D02*
X75610Y-83878D01*
X63591Y-56595D02*
X81398D01*
X73327Y-65256D02*
X75984Y-67913D01*
Y-77165D02*
Y-67913D01*
Y-77165D02*
X85827Y-87008D01*
X81398Y-56595D02*
X92913Y-68110D01*
X126839Y-227000D02*
X146555Y-207283D01*
X126822Y-232037D02*
X149705Y-209154D01*
X127075Y-237000D02*
X152264Y-211811D01*
X121975Y-252041D02*
X158071Y-215945D01*
X127264Y-242028D02*
X155413Y-213878D01*
X129685Y-252756D02*
X180079D01*
X156457Y-240945D02*
Y-231496D01*
Y-240945D02*
X162756Y-247244D01*
X145827Y-256693D02*
X174961D01*
X163681Y-236910D02*
X163730Y-236959D01*
X156457Y-231496D02*
X173779Y-214173D01*
X162756Y-247244D02*
X175748D01*
X163730Y-236959D02*
X177274D01*
X174173Y-240158D02*
X179291D01*
X177274Y-236959D02*
X177323Y-237008D01*
X179291Y-240158D02*
X181653Y-237795D01*
X180079Y-252756D02*
X184646Y-257323D01*
X105512Y-150787D02*
X167323D01*
X107480Y-148819D02*
X168898D01*
X108661Y-146063D02*
X170079D01*
X111811Y-139370D02*
X172835D01*
X146555Y-207283D02*
Y-176043D01*
X149705Y-209154D02*
Y-177461D01*
X146555Y-176043D02*
X154882Y-167717D01*
X152264Y-211811D02*
Y-180315D01*
X155413Y-213878D02*
Y-183327D01*
X152264Y-180315D02*
X160925Y-171653D01*
X149705Y-177461D02*
X165118Y-162047D01*
X158071Y-215945D02*
Y-186181D01*
X155413Y-183327D02*
X166299Y-172441D01*
X160925Y-171653D02*
X161181D01*
X158071Y-186181D02*
X164724Y-179528D01*
X165118Y-162047D02*
Y-161811D01*
X167323Y-150787D02*
X173779Y-157244D01*
X168898Y-148819D02*
X177323Y-157244D01*
X173779Y-214173D02*
Y-157244D01*
X170079Y-146063D02*
X181653Y-157638D01*
X177323Y-237008D02*
Y-157244D01*
X172835Y-139370D02*
X187874Y-154409D01*
X181653Y-237795D02*
Y-157638D01*
Y-250394D02*
X184016Y-252756D01*
X184646Y-257323D02*
X201575D01*
X184016Y-252756D02*
X205276D01*
X209685Y-257165D01*
X200551Y-237953D02*
X216929Y-254331D01*
X209685Y-263307D02*
Y-257165D01*
X210000Y-274803D02*
X216929Y-267874D01*
Y-254331D01*
X187874Y-232677D02*
Y-154409D01*
X848819Y-250000D02*
Y-245866D01*
X850591Y-244094D01*
X613386Y-106496D02*
X613779D01*
X655512Y-276378D02*
X655665D01*
X606496Y-313287D02*
X704878Y-214906D01*
X655665Y-276378D02*
X724169Y-207874D01*
X704878Y-214906D02*
Y-109295D01*
X724169Y-207874D02*
Y-162449D01*
X738981Y-150787D02*
X772441D01*
X613779Y-106496D02*
X617520Y-102756D01*
X625000D01*
X628740Y-99016D01*
X629134D01*
X704878Y-109295D02*
X724559Y-89615D01*
D98*
X513779Y-94882D02*
X545412Y-63249D01*
X355512Y-94882D02*
X513779D01*
X580690Y-34764D02*
X586065D01*
X575315D02*
X580690D01*
X580315Y-34389D02*
X580690Y-34764D01*
X574803Y-34252D02*
X575315Y-34764D01*
X586065D02*
X586577Y-35276D01*
X545412Y-63249D02*
X574409Y-34252D01*
X574803D01*
X545412Y-63916D02*
Y-63249D01*
X580315Y-21537D02*
X586577Y-15276D01*
X580315Y-34389D02*
Y-21537D01*
X842913Y-257282D02*
Y-244094D01*
X63640Y-69636D02*
X67667D01*
X85197Y-309842D02*
X115145D01*
X63591Y-69587D02*
X63640Y-69636D01*
X67667D02*
X67716Y-69685D01*
X115145Y-309842D02*
X183002D01*
X182437Y-375433D02*
X183002Y-374868D01*
Y-309842D01*
Y-283297D01*
X183228Y-283071D01*
X167421Y-85138D02*
X213681D01*
X251969Y-86221D02*
X262402D01*
X275394D02*
X281496D01*
X224705Y-114764D02*
X335630D01*
X163287Y-67224D02*
X163386Y-67323D01*
X171260D01*
X167421Y-85138D02*
X167421Y-85138D01*
Y-75689D01*
X167421Y-75689D01*
X171260Y-67323D02*
X176516Y-72579D01*
X188779D01*
Y-62579D02*
X188976D01*
Y-58268D01*
X191339Y-55905D01*
X206496D01*
X210039Y-67579D02*
X215939D01*
X213681Y-85138D02*
X217323Y-81496D01*
X215939Y-67579D02*
X217323Y-68963D01*
Y-81496D02*
Y-68963D01*
X251791Y-86043D02*
Y-64744D01*
X262402Y-77953D02*
X262402Y-77953D01*
Y-86221D02*
Y-77953D01*
X269094Y-77953D02*
X269370Y-77677D01*
Y-64842D01*
X269646Y-64567D01*
X269094Y-77953D02*
X280118D01*
X281496Y-86221D02*
X286614Y-81102D01*
Y-78150D01*
X286811Y-77953D01*
X294193D01*
X294488Y-77658D01*
X213976Y-55905D02*
X218110D01*
X613386Y-5512D02*
X613386Y-5512D01*
X650509D01*
X651893Y-6896D01*
Y-13310D02*
Y-6896D01*
Y-13310D02*
X652756Y-14173D01*
X733224Y-18355D02*
X779681D01*
X586577Y-15276D02*
Y-8699D01*
X589764Y-5512D01*
X613386D01*
X613386Y-14173D02*
Y-5512D01*
X747638Y-217717D02*
X801575D01*
X810827Y-199016D02*
X811220Y-199409D01*
X801575Y-217717D02*
X827953Y-244094D01*
X826968Y-200000D02*
Y-199016D01*
X827953Y-244094D02*
X835433D01*
X842795Y-223878D02*
X842854Y-223937D01*
Y-244035D02*
Y-223937D01*
Y-244035D02*
X842913Y-244094D01*
X742891Y-49628D02*
X810652D01*
X754134Y-157480D02*
X801575D01*
Y-217717D02*
Y-157480D01*
X822126D02*
X829862Y-165217D01*
X801575Y-157480D02*
X822126D01*
X810652Y-49628D02*
X824452Y-35828D01*
Y-34224D01*
X567083Y-375039D02*
X590315D01*
X365114D02*
X567083D01*
X294488Y-81496D02*
Y-77658D01*
Y-77362D01*
X335630Y-114764D02*
X355512Y-94882D01*
X305512Y-125197D02*
X667323D01*
X545412Y-63916D02*
X598032Y-116535D01*
X618504D01*
X621260Y-113779D01*
X590315Y-375039D02*
X747638Y-217717D01*
X746398Y-165217D02*
X754134Y-157480D01*
X621260Y-113779D02*
Y-106496D01*
X629134D01*
X637402D01*
X667323Y-125197D02*
X742891Y-49628D01*
D99*
X637008Y-98622D02*
Y-77165D01*
X59563Y-349398D02*
X66142Y-355977D01*
Y-418898D02*
Y-355977D01*
X248327Y-106988D02*
Y-94980D01*
X290509Y-91341D02*
X290735Y-91115D01*
X293996D01*
X294488Y-90623D01*
Y-98327D02*
Y-90551D01*
X541886Y-365197D02*
X583137D01*
X294488Y-90623D02*
Y-90551D01*
Y-90354D01*
X583137Y-365197D02*
X737457Y-210877D01*
X756355D01*
X621260Y-99016D02*
Y-77165D01*
X629134Y-99016D02*
Y-77165D01*
Y-99016D02*
X629134Y-99016D01*
X637008Y-98622D02*
X637402Y-99016D01*
D100*
X176772Y-283071D02*
X183228D01*
X176772Y-283071D02*
X176772Y-283071D01*
X13822Y-296322D02*
X14500Y-297000D01*
X183228Y-283071D02*
X213150D01*
X208858Y-235669D02*
X224705Y-251516D01*
X213150Y-283071D02*
X224705Y-271516D01*
Y-251516D01*
X208858Y-235669D02*
Y-130610D01*
X224705Y-114764D01*
X131791Y-74803D02*
Y-65059D01*
D101*
X22185Y-281998D02*
X26374D01*
X26378Y-282002D01*
X22618Y-252069D02*
X22646Y-252041D01*
X22441Y-232017D02*
X25965D01*
X22480Y-241974D02*
X25931D01*
X22646Y-252041D02*
X26378D01*
X25931Y-241974D02*
X25984Y-242028D01*
X25965Y-232017D02*
X25984Y-232037D01*
D102*
X148425Y-69291D02*
Y-50638D01*
Y-69291D02*
X154387Y-75253D01*
X159505D01*
X159941Y-75689D01*
X131650Y-47937D02*
X133618Y-45969D01*
Y-31347D01*
X131650Y-47937D02*
X146119D01*
X148425Y-50244D01*
Y-50638D02*
Y-50244D01*
Y-50638D02*
X148870Y-51083D01*
X163287D01*
X163459Y-51254D01*
X175375D01*
X175546Y-51426D01*
X176827Y-33512D02*
Y-31741D01*
X177614Y-32528D01*
X176827Y-33512D02*
X182438Y-39124D01*
Y-43355D02*
Y-39124D01*
Y-43355D02*
X183029Y-43945D01*
X177614Y-32528D02*
X193658D01*
X557430Y-33515D02*
Y-25660D01*
X557500Y-25591D01*
X524016Y-31890D02*
X530315D01*
X535827Y-37402D01*
X553543D01*
X557430Y-33515D01*
D103*
X269646Y-64567D02*
Y-61811D01*
X284803Y-46654D01*
X287441D01*
D104*
X14500Y-137000D02*
D03*
X56142Y-418898D02*
D03*
X852795Y-223878D02*
D03*
D105*
X24500Y-137000D02*
D03*
X14500Y-147000D02*
D03*
X24500D02*
D03*
X14500Y-157000D02*
D03*
X24500D02*
D03*
X14500Y-167000D02*
D03*
X24500D02*
D03*
X14500Y-177000D02*
D03*
X24500D02*
D03*
X14500Y-187000D02*
D03*
X24500D02*
D03*
X14500Y-197000D02*
D03*
X24500D02*
D03*
X14500Y-207000D02*
D03*
X24500D02*
D03*
X14500Y-217000D02*
D03*
X24500D02*
D03*
X14500Y-227000D02*
D03*
X24500D02*
D03*
X14500Y-237000D02*
D03*
X24500D02*
D03*
X14500Y-247000D02*
D03*
X24500D02*
D03*
X14500Y-257000D02*
D03*
X24500D02*
D03*
X14500Y-267000D02*
D03*
X24500D02*
D03*
X14500Y-277000D02*
D03*
X24500D02*
D03*
X14500Y-287000D02*
D03*
X24500D02*
D03*
X14500Y-297000D02*
D03*
X24500D02*
D03*
X76142Y-418898D02*
D03*
X66142Y-418898D02*
D03*
X596577Y-15276D02*
D03*
X586577D02*
D03*
X596577Y-25276D02*
D03*
X586577D02*
D03*
X596577Y-35276D02*
D03*
X586577D02*
D03*
X596577Y-45276D02*
D03*
X822795Y-223878D02*
D03*
X832795D02*
D03*
X842795D02*
D03*
D106*
X24563Y-361898D02*
D03*
Y-321898D02*
D03*
D107*
X49563Y-354398D02*
D03*
X59563Y-349398D02*
D03*
X49563Y-344398D02*
D03*
X59563Y-339398D02*
D03*
X49563Y-334398D02*
D03*
X59563Y-329398D02*
D03*
D108*
X287441Y-46654D02*
D03*
Y-26969D02*
D03*
X307126Y-46654D02*
D03*
Y-26969D02*
D03*
X131791Y-74803D02*
D03*
X211640Y-37402D02*
D03*
X268504Y-37402D02*
D03*
X252756D02*
D03*
X260630D02*
D03*
D109*
X297284Y-56496D02*
D03*
Y-36811D02*
D03*
X766453Y-64428D02*
D03*
X746453D02*
D03*
X766453Y-6928D02*
D03*
X756453D02*
D03*
X746453D02*
D03*
D110*
X852559Y-199016D02*
D03*
X810827D02*
D03*
X769095D02*
D03*
D111*
X852559Y-181299D02*
D03*
X826968D02*
D03*
X826968Y-199016D02*
D03*
X785236D02*
D03*
X785236Y-181299D02*
D03*
X810827D02*
D03*
X743504Y-199016D02*
D03*
X743504Y-181299D02*
D03*
X769095D02*
D03*
X824452Y-34224D02*
D03*
X836980Y-21696D02*
D03*
X855075Y-39792D02*
D03*
X756240Y-165217D02*
D03*
X746398D02*
D03*
X766083D02*
D03*
X849547D02*
D03*
X829862D02*
D03*
X839705D02*
D03*
D112*
X316635Y-406142D02*
D03*
X334351D02*
D03*
X246936D02*
D03*
X264653D02*
D03*
X595429D02*
D03*
X613146D02*
D03*
X456032D02*
D03*
X473748D02*
D03*
X177238D02*
D03*
X194954D02*
D03*
X525731D02*
D03*
X543447D02*
D03*
X386333D02*
D03*
X404050D02*
D03*
X107240D02*
D03*
X124957D02*
D03*
D113*
X311714Y-396299D02*
D03*
X339273D02*
D03*
X242015D02*
D03*
X269574D02*
D03*
X590508D02*
D03*
X618067D02*
D03*
X451111D02*
D03*
X478670D02*
D03*
X172317D02*
D03*
X199876D02*
D03*
X520809D02*
D03*
X548368D02*
D03*
X381412D02*
D03*
X408971D02*
D03*
X102319D02*
D03*
X129878D02*
D03*
D114*
X842548Y-52319D02*
D03*
D115*
X398799Y-25591D02*
D03*
X542500D02*
D03*
X323976D02*
D03*
D116*
X413799D02*
D03*
X557500D02*
D03*
X338976D02*
D03*
D117*
X739262Y-137657D02*
D03*
X773216D02*
D03*
X856681D02*
D03*
X822726D02*
D03*
D118*
X339075Y-79528D02*
D03*
X319193D02*
D03*
D119*
X586577Y-45276D02*
D03*
D120*
X780075Y-36928D02*
D03*
X732043D02*
D03*
D121*
X11811Y-381890D02*
D03*
Y-110236D02*
D03*
X854331Y-423228D02*
D03*
X724409Y-381890D02*
D03*
X743071Y-354429D02*
D03*
X824961Y-307185D02*
D03*
X742972Y-260039D02*
D03*
X724409Y-110236D02*
D03*
X854331Y-11811D02*
D03*
X706563Y-31640D02*
D03*
X706461Y-401879D02*
D03*
X23010Y-402027D02*
D03*
X20899Y-31634D02*
D03*
X11811Y-423228D02*
D03*
Y-11811D02*
D03*
D122*
X118110Y-94882D02*
D03*
X118307Y-6299D02*
D03*
X223622Y-94882D02*
D03*
X223819Y-6299D02*
D03*
D123*
X103937Y-80118D02*
D03*
Y-22638D02*
D03*
X237795Y-80118D02*
D03*
Y-22638D02*
D03*
D124*
X208959Y-95473D02*
D03*
X183228Y-283071D02*
D03*
X129232Y-6299D02*
D03*
X208858Y-235669D02*
D03*
X130020Y-95473D02*
D03*
X143291D02*
D03*
X156562D02*
D03*
X169833D02*
D03*
X196375D02*
D03*
X183104D02*
D03*
X142503Y-6299D02*
D03*
X155774D02*
D03*
X169045D02*
D03*
X195587D02*
D03*
X182316D02*
D03*
X208858D02*
D03*
X365114Y-375039D02*
D03*
X567083D02*
D03*
X801575Y-217717D02*
D03*
X368898Y-43701D02*
D03*
X494095D02*
D03*
X368898Y-23228D02*
D03*
X494095D02*
D03*
D125*
X213779Y-105512D02*
D03*
X145827Y-256693D02*
D03*
X550394Y-248819D02*
D03*
X201575Y-274803D02*
D03*
X131496Y-257874D02*
D03*
X137008Y-244882D02*
D03*
X155118Y-160630D02*
D03*
X225984Y-240551D02*
D03*
X215354Y-180709D02*
D03*
X201575Y-263779D02*
D03*
X198031Y-245669D02*
D03*
X231102Y-254331D02*
D03*
X137795Y-283071D02*
D03*
X85197Y-309842D02*
D03*
X115145D02*
D03*
X193701Y-302756D02*
D03*
X187795Y-288189D02*
D03*
X168268Y-270866D02*
D03*
X209685Y-263307D02*
D03*
X168307Y-262795D02*
D03*
X201575Y-257323D02*
D03*
X174961Y-256693D02*
D03*
X175748Y-247244D02*
D03*
X88583Y-77165D02*
D03*
X67716Y-69685D02*
D03*
X174173Y-240158D02*
D03*
X177323Y-237008D02*
D03*
X163681Y-236910D02*
D03*
X170472Y-232677D02*
D03*
X187874Y-232677D02*
D03*
X164724Y-179528D02*
D03*
X166299Y-172441D02*
D03*
X161181Y-171653D02*
D03*
X154882Y-167717D02*
D03*
X165118Y-161811D02*
D03*
X209996Y-75048D02*
D03*
X183721Y-67579D02*
D03*
X218110Y-55905D02*
D03*
X193658Y-32528D02*
D03*
X541886Y-365197D02*
D03*
X606496Y-313287D02*
D03*
X848819Y-250000D02*
D03*
X756355Y-210877D02*
D03*
X305512Y-125197D02*
D03*
X224705Y-114764D02*
D03*
X248327Y-106988D02*
D03*
X290509Y-91341D02*
D03*
X294488Y-81496D02*
D03*
X605118Y-98819D02*
D03*
X604724Y-77165D02*
D03*
X779681Y-18355D02*
D03*
X733224D02*
D03*
D126*
X182437Y-375433D02*
D03*
D127*
X210000Y-274803D02*
D03*
X655512Y-276378D02*
D03*
X665748Y-272047D02*
D03*
X724169Y-162449D02*
D03*
X772441Y-150787D02*
D03*
D128*
X199409Y-69685D02*
D03*
M02*
