M48
;Layer_Color=9474304
;FILE_FORMAT=2:5
INCH,TZ
;TYPE=PLATED
T1F00S00C0.01181
T2F00S00C0.01575
T3F00S00C0.01968
T4F00S00C0.02362
T5F00S00C0.02559
T6F00S00C0.02756
T7F00S00C0.03150
T9F00S00C0.03543
T10F00S00C0.03800
T11F00S00C0.03937
T13F00S00C0.03976
T14F00S00C0.04331
T15F00S00C0.04724
T16F00S00C0.05000
T17F00S00C0.06496
T18F00S00C0.09843
T19F00S00C0.11811
T20F00S00C0.12205
T21F00S00C0.12598
T22F00S00C0.12800
%
T01
X210000Y-274803
X305512Y-125197
T02
X541886Y-365197
X801575Y-217717
X848819Y-250000
X756355Y-210877
X665748Y-272047
X655512Y-276378
X606496Y-313287
X550394Y-248819
X231102Y-254331
X225984Y-240551
X198031Y-245669
X201575Y-257323
Y-263779
X209685Y-263307
X201575Y-274803
X187795Y-288189
X193701Y-302756
X168268Y-270866
X168307Y-262795
X174961Y-256693
X175748Y-247244
X174173Y-240158
X177323Y-237008
X170472Y-232677
X163681Y-236910
X187874Y-232677
X137008Y-244882
X131496Y-257874
X145827Y-256693
X137795Y-283071
X115145Y-309842
X85197
X154882Y-167717
X155118Y-160630
X161181Y-171653
X88583Y-77165
X67716Y-69685
X183721Y-67579
X209996Y-75048
X218110Y-55905
X193658Y-32528
X213779Y-105512
X224705Y-114764
X248327Y-106988
X290509Y-91341
X294488Y-81496
X215354Y-180709
X164724Y-179528
X166299Y-172441
X165118Y-161811
X605118Y-98819
X604724Y-77165
X724169Y-162449
X772441Y-150787
X779681Y-18355
X733224
T03
X365114Y-375039
X567083
X183228Y-283071
X208858Y-235669
T04
X182437Y-375433
X156562Y-95473
X143291
X130020
X169833
X183104
X196375
X208959
X211640Y-37402
X252756Y-37402
X260630
X268504
X208858Y-6299
X195587
X182316
X169045
X155774
X142503
X129232
T05
X368898Y-43701
X494095
Y-23228
X368898
T06
X131791Y-74803
T07
X49563Y-354398
Y-344398
X59563Y-349398
Y-339398
Y-329398
X49563Y-334398
T09
X287441Y-46654
Y-26969
X307126
Y-46654
T10
X107240Y-406142
X124957
X177238
X194954
X246936
X264653
X316635
X334351
X386333
X404050
X456032
X473748
X525731
X543447
X595429
X613146
T11
X810827Y-199016
X826968
X852559
X785236
X769095
X743504
X743504Y-181299
X769095
X785236
X810827
X826968
X852559
X842548Y-52319
X855075Y-39792
X824452Y-34224
X836980Y-21696
T13
X319193Y-79528
X339075
T14
X56142Y-418898
X66142
X76142Y-418898
X822795Y-223878
X832795
X842795
X852795
X24500Y-227000
Y-217000
Y-207000
Y-197000
Y-187000
X14500
Y-197000
Y-207000
Y-217000
Y-227000
Y-237000
X24500
Y-247000
X14500
Y-257000
X24500
Y-267000
X14500
Y-277000
X24500
Y-287000
X14500
Y-297000
X24500
Y-177000
Y-167000
Y-157000
Y-147000
Y-137000
X14500
Y-147000
Y-157000
Y-167000
Y-177000
X297284Y-56496
Y-36811
X586577Y-35276
X596577
Y-45276
X586577
X746453Y-64428
X766453
Y-6928
X756453
X746453
X596577Y-15276
X586577
Y-25276
X596577
T15
X746398Y-165217
X756240
X766083
X829862
X839705
X849547
T16
X102319Y-396299
X129878
X172317
X199876
X242015
X269574
X311714
X339273
X381412
X408971
X451111
X478670
X520809
X548368
X590508
X618067
T17
X542500Y-25591
X557500
X413799
X398799
X338976
X323976
T18
X199409Y-69685
T19
X23010Y-402027
X706461Y-401879
X20899Y-31634
X706563Y-31640
T20
X11811Y-423228
Y-381890
X724409
X854331Y-423228
X11811Y-110236
X724409
X854331Y-11811
X11811
T21
X743071Y-354429
X824961Y-307185
X742972Y-260039
T22
X24563Y-361898
Y-321898
M30
