G04*
G04 #@! TF.GenerationSoftware,Altium Limited,Altium Designer,21.5.1 (32)*
G04*
G04 Layer_Physical_Order=2*
G04 Layer_Color=16711680*
%FSLAX25Y25*%
%MOIN*%
G70*
G04*
G04 #@! TF.SameCoordinates,D9A27908-B339-4E15-AEEB-BE0A6D91D8F4*
G04*
G04*
G04 #@! TF.FilePolarity,Positive*
G04*
G01*
G75*
%ADD11C,0.01000*%
%ADD17C,0.07874*%
%ADD69R,0.05906X0.05118*%
%ADD73R,0.05118X0.05906*%
%ADD81R,0.07874X0.08661*%
%ADD95R,0.08465X0.08661*%
%ADD97C,0.01181*%
%ADD98C,0.02362*%
%ADD99C,0.01968*%
%ADD100C,0.03150*%
%ADD101C,0.00906*%
%ADD102C,0.03937*%
%ADD104R,0.06693X0.06693*%
%ADD105C,0.06693*%
%ADD106C,0.13189*%
%ADD107C,0.07400*%
%ADD108C,0.05906*%
%ADD109C,0.07874*%
%ADD110R,0.08661X0.08661*%
%ADD111C,0.08661*%
%ADD112C,0.06000*%
%ADD113C,0.08000*%
%ADD114P,0.12249X4X180.0*%
%ADD115R,0.10630X0.10630*%
%ADD116C,0.10630*%
%ADD117R,0.09843X0.13780*%
%ADD118C,0.05965*%
%ADD119R,0.06693X0.06693*%
%ADD120R,0.09843X0.11811*%
%ADD121C,0.19685*%
G04:AMPARAMS|DCode=122|XSize=118.11mil|YSize=59.06mil|CornerRadius=14.76mil|HoleSize=0mil|Usage=FLASHONLY|Rotation=0.000|XOffset=0mil|YOffset=0mil|HoleType=Round|Shape=RoundedRectangle|*
%AMROUNDEDRECTD122*
21,1,0.11811,0.02953,0,0,0.0*
21,1,0.08858,0.05906,0,0,0.0*
1,1,0.02953,0.04429,-0.01476*
1,1,0.02953,-0.04429,-0.01476*
1,1,0.02953,-0.04429,0.01476*
1,1,0.02953,0.04429,0.01476*
%
%ADD122ROUNDEDRECTD122*%
G04:AMPARAMS|DCode=123|XSize=118.11mil|YSize=59.06mil|CornerRadius=14.76mil|HoleSize=0mil|Usage=FLASHONLY|Rotation=90.000|XOffset=0mil|YOffset=0mil|HoleType=Round|Shape=RoundedRectangle|*
%AMROUNDEDRECTD123*
21,1,0.11811,0.02953,0,0,90.0*
21,1,0.08858,0.05906,0,0,90.0*
1,1,0.02953,0.01476,0.04429*
1,1,0.02953,0.01476,-0.04429*
1,1,0.02953,-0.01476,-0.04429*
1,1,0.02953,-0.01476,0.04429*
%
%ADD123ROUNDEDRECTD123*%
%ADD124C,0.03937*%
%ADD125C,0.03150*%
%ADD126C,0.05512*%
%ADD127C,0.02756*%
%ADD128C,0.11811*%
%ADD129R,0.11811X0.08661*%
%ADD130R,0.05118X0.01181*%
%ADD131R,0.04921X0.03937*%
%ADD132R,0.02362X0.03937*%
%ADD133R,0.02362X0.07874*%
%ADD134C,0.01378*%
%ADD135C,0.01575*%
%ADD136R,0.05709X0.05118*%
G36*
X864937Y-433835D02*
X1204D01*
X1204Y-1204D01*
X864936D01*
X864937Y-433835D01*
D02*
G37*
%LPC*%
G36*
X228248Y-2515D02*
X224803D01*
Y-5315D01*
X230556D01*
Y-4823D01*
X230381Y-3940D01*
X229880Y-3191D01*
X229131Y-2690D01*
X228248Y-2515D01*
D02*
G37*
G36*
X222835D02*
X219390D01*
X218507Y-2690D01*
X217758Y-3191D01*
X217257Y-3940D01*
X217082Y-4823D01*
Y-5315D01*
X222835D01*
Y-2515D01*
D02*
G37*
G36*
X122736D02*
X119291D01*
Y-5315D01*
X125044D01*
Y-4823D01*
X124869Y-3940D01*
X124368Y-3191D01*
X123619Y-2690D01*
X122736Y-2515D01*
D02*
G37*
G36*
X117323D02*
X113878D01*
X112995Y-2690D01*
X112246Y-3191D01*
X111746Y-3940D01*
X111570Y-4823D01*
Y-5315D01*
X117323D01*
Y-2515D01*
D02*
G37*
G36*
X784798Y-2804D02*
Y-5559D01*
X787160D01*
Y-2804D01*
X784798D01*
D02*
G37*
G36*
X766453Y-1964D02*
X765168Y-2133D01*
X763971Y-2629D01*
X762943Y-3418D01*
X762154Y-4446D01*
X761658Y-5643D01*
X761651Y-5695D01*
X761056D01*
X761056Y-5694D01*
X760579Y-4545D01*
X759822Y-3558D01*
X758835Y-2801D01*
X757686Y-2325D01*
X757437Y-2292D01*
Y-6928D01*
Y-11563D01*
X757686Y-11530D01*
X758835Y-11054D01*
X759822Y-10297D01*
X760579Y-9310D01*
X761056Y-8161D01*
X761056Y-8160D01*
X761651D01*
X761658Y-8212D01*
X762154Y-9409D01*
X762943Y-10437D01*
X763971Y-11226D01*
X764245Y-11340D01*
Y-13827D01*
X762358D01*
Y-22882D01*
X764284D01*
Y-24330D01*
X749167Y-39448D01*
X748621Y-39222D01*
Y-22882D01*
X750547D01*
Y-13827D01*
X748661D01*
Y-11340D01*
X748935Y-11226D01*
X749963Y-10437D01*
X750751Y-9409D01*
X751247Y-8212D01*
X751254Y-8160D01*
X751850D01*
X751850Y-8161D01*
X752326Y-9310D01*
X753083Y-10297D01*
X754070Y-11054D01*
X755219Y-11530D01*
X755469Y-11563D01*
Y-6928D01*
Y-2292D01*
X755219Y-2325D01*
X754070Y-2801D01*
X753083Y-3558D01*
X752326Y-4545D01*
X751850Y-5694D01*
X751850Y-5695D01*
X751254D01*
X751247Y-5643D01*
X750751Y-4446D01*
X749963Y-3418D01*
X748935Y-2629D01*
X747738Y-2133D01*
X746453Y-1964D01*
X745168Y-2133D01*
X743971Y-2629D01*
X742943Y-3418D01*
X742154Y-4446D01*
X742040Y-4720D01*
X741100D01*
Y-2410D01*
X732832D01*
Y-2607D01*
X732832Y-3197D01*
X732241Y-3197D01*
X730470D01*
Y-6937D01*
Y-10678D01*
X732832Y-10678D01*
X732832Y-11268D01*
Y-11465D01*
X741100D01*
Y-9135D01*
X742040D01*
X742154Y-9409D01*
X742943Y-10437D01*
X743971Y-11226D01*
X744245Y-11340D01*
Y-13827D01*
X734799D01*
Y-14959D01*
X734209Y-15353D01*
X734047Y-15286D01*
X733224Y-15178D01*
X732402Y-15286D01*
X731636Y-15604D01*
X730978Y-16108D01*
X730473Y-16766D01*
X730156Y-17533D01*
X730048Y-18355D01*
X730156Y-19177D01*
X730473Y-19943D01*
X730978Y-20601D01*
X731636Y-21106D01*
X732402Y-21423D01*
X733224Y-21531D01*
X734047Y-21423D01*
X734209Y-21356D01*
X734799Y-21751D01*
Y-22882D01*
X744206D01*
Y-41903D01*
X541222Y-244887D01*
X274952D01*
X274108Y-245055D01*
X273391Y-245534D01*
X261841Y-257084D01*
X222638D01*
Y-251564D01*
X260000D01*
X260809Y-251403D01*
X261496Y-250945D01*
X302677Y-209764D01*
X303135Y-209077D01*
X303296Y-208268D01*
Y-154420D01*
X365443Y-92273D01*
X541695D01*
X542505Y-92112D01*
X543191Y-91653D01*
X585238Y-49606D01*
X590907D01*
Y-40945D01*
X582246D01*
Y-46615D01*
X540819Y-88042D01*
X523595D01*
X523369Y-87496D01*
X575118Y-35748D01*
X575576Y-35061D01*
X575737Y-34252D01*
Y-12294D01*
X578042Y-9990D01*
X592825D01*
X594039Y-11204D01*
X594001Y-11794D01*
X593488Y-12187D01*
X592794Y-13092D01*
X592358Y-14145D01*
X592209Y-15276D01*
X592358Y-16406D01*
X592794Y-17460D01*
X593488Y-18364D01*
X594393Y-19058D01*
X595446Y-19495D01*
X596577Y-19644D01*
X597707Y-19495D01*
X598761Y-19058D01*
X599665Y-18364D01*
X600360Y-17460D01*
X600796Y-16406D01*
X600945Y-15276D01*
X600796Y-14145D01*
X600360Y-13092D01*
X599665Y-12187D01*
X598761Y-11493D01*
X598692Y-11464D01*
Y-10750D01*
X598531Y-9940D01*
X598073Y-9254D01*
X595197Y-6378D01*
X594510Y-5920D01*
X593701Y-5759D01*
X577165D01*
X576356Y-5920D01*
X575669Y-6378D01*
X572126Y-9922D01*
X571668Y-10608D01*
X571507Y-11417D01*
Y-33376D01*
X519990Y-84892D01*
X362992D01*
X362183Y-85053D01*
X361496Y-85512D01*
X296142Y-150866D01*
X295683Y-151553D01*
X295522Y-152362D01*
Y-207392D01*
X257549Y-245365D01*
X222638D01*
Y-241378D01*
X221850D01*
Y-239803D01*
X222638D01*
Y-237835D01*
Y-233848D01*
X235000D01*
X235809Y-233687D01*
X236496Y-233228D01*
X249823Y-219901D01*
X250281Y-219215D01*
X250442Y-218406D01*
Y-109335D01*
X250573Y-109234D01*
X251078Y-108577D01*
X251395Y-107810D01*
X251504Y-106988D01*
X251395Y-106166D01*
X251078Y-105400D01*
X250573Y-104742D01*
X249915Y-104237D01*
X249149Y-103920D01*
X248327Y-103811D01*
X247505Y-103920D01*
X246738Y-104237D01*
X246080Y-104742D01*
X245576Y-105400D01*
X245258Y-106166D01*
X245150Y-106988D01*
X245258Y-107810D01*
X245576Y-108577D01*
X246080Y-109234D01*
X246211Y-109335D01*
Y-217529D01*
X242425Y-221316D01*
X241879Y-221090D01*
Y-104026D01*
X252311Y-93594D01*
X288272D01*
X288920Y-94092D01*
X289687Y-94409D01*
X290509Y-94518D01*
X291118Y-94437D01*
X291708Y-94822D01*
Y-114173D01*
X291803Y-114893D01*
X292081Y-115563D01*
X292523Y-116139D01*
X302472Y-126088D01*
X302761Y-126785D01*
X303266Y-127443D01*
X303923Y-127948D01*
X304690Y-128265D01*
X305512Y-128374D01*
X306334Y-128265D01*
X307100Y-127948D01*
X307758Y-127443D01*
X308263Y-126785D01*
X308580Y-126019D01*
X308689Y-125197D01*
X308580Y-124375D01*
X308263Y-123609D01*
X307758Y-122950D01*
X307100Y-122446D01*
X306403Y-122157D01*
X297268Y-113022D01*
Y-83016D01*
X297557Y-82318D01*
X297665Y-81496D01*
X297557Y-80674D01*
X297239Y-79908D01*
X296734Y-79250D01*
X296077Y-78745D01*
X295310Y-78427D01*
X294488Y-78319D01*
X293666Y-78427D01*
X292900Y-78745D01*
X292242Y-79250D01*
X291737Y-79908D01*
X291420Y-80674D01*
X291311Y-81496D01*
X291420Y-82318D01*
X291708Y-83016D01*
Y-87860D01*
X291118Y-88244D01*
X290509Y-88164D01*
X289687Y-88272D01*
X288920Y-88590D01*
X288263Y-89095D01*
X288056Y-89363D01*
X251434D01*
X250625Y-89525D01*
X249939Y-89983D01*
X238268Y-101654D01*
X237809Y-102340D01*
X237648Y-103150D01*
Y-222450D01*
X232451Y-227648D01*
X222638D01*
Y-223661D01*
Y-220118D01*
Y-216181D01*
Y-211850D01*
Y-208307D01*
Y-204370D01*
Y-200039D01*
Y-194527D01*
Y-190591D01*
X222638Y-186260D01*
X223147Y-186063D01*
X224410D01*
Y-181929D01*
X218701D01*
Y-185654D01*
X218542Y-186110D01*
X218174Y-186217D01*
X192647D01*
X168289Y-161859D01*
X168295Y-161811D01*
X168187Y-160989D01*
X167869Y-160223D01*
X167364Y-159565D01*
X166707Y-159060D01*
X165940Y-158742D01*
X165118Y-158634D01*
X164296Y-158742D01*
X163530Y-159060D01*
X162872Y-159565D01*
X162367Y-160223D01*
X162050Y-160989D01*
X161941Y-161811D01*
X162050Y-162633D01*
X162367Y-163399D01*
X162872Y-164057D01*
X163530Y-164562D01*
X164296Y-164880D01*
X164590Y-164918D01*
X164551Y-165509D01*
X157158D01*
X157128Y-165470D01*
X156470Y-164965D01*
X155704Y-164648D01*
X154882Y-164540D01*
X154060Y-164648D01*
X153294Y-164965D01*
X152636Y-165470D01*
X152131Y-166128D01*
X151813Y-166894D01*
X151773Y-167200D01*
X151150Y-167412D01*
X124013Y-140275D01*
X123297Y-139797D01*
X122452Y-139629D01*
X28361Y-139629D01*
X28282Y-139468D01*
X28130Y-139038D01*
X28527Y-138079D01*
X28540Y-137984D01*
X20460D01*
X20473Y-138079D01*
X20827Y-138934D01*
X20557Y-139524D01*
X19768D01*
X19421Y-139593D01*
X18831Y-139109D01*
Y-132669D01*
X10169D01*
Y-141331D01*
X16275D01*
X16501Y-141876D01*
X15601Y-142777D01*
X14500Y-142632D01*
X13370Y-142781D01*
X12316Y-143217D01*
X11411Y-143911D01*
X10717Y-144816D01*
X10281Y-145870D01*
X10132Y-147000D01*
X10281Y-148131D01*
X10717Y-149184D01*
X11411Y-150089D01*
X12316Y-150783D01*
X13370Y-151219D01*
X14500Y-151368D01*
X15631Y-151219D01*
X16684Y-150783D01*
X17009Y-150533D01*
X17400Y-150978D01*
X15601Y-152777D01*
X14500Y-152632D01*
X13370Y-152781D01*
X12316Y-153217D01*
X11411Y-153911D01*
X10717Y-154816D01*
X10281Y-155869D01*
X10132Y-157000D01*
X10281Y-158131D01*
X10717Y-159184D01*
X11411Y-160089D01*
X12316Y-160783D01*
X13370Y-161219D01*
X14500Y-161368D01*
X15631Y-161219D01*
X16684Y-160783D01*
X17009Y-160533D01*
X17400Y-160978D01*
X15601Y-162777D01*
X14500Y-162632D01*
X13370Y-162781D01*
X12316Y-163217D01*
X11411Y-163911D01*
X10717Y-164816D01*
X10281Y-165869D01*
X10132Y-167000D01*
X10281Y-168131D01*
X10717Y-169184D01*
X11411Y-170089D01*
X12316Y-170783D01*
X13370Y-171219D01*
X14500Y-171368D01*
X15631Y-171219D01*
X16684Y-170783D01*
X17009Y-170533D01*
X17400Y-170978D01*
X15601Y-172777D01*
X14500Y-172632D01*
X13370Y-172781D01*
X12316Y-173217D01*
X11411Y-173911D01*
X10717Y-174816D01*
X10281Y-175870D01*
X10132Y-177000D01*
X10281Y-178130D01*
X10717Y-179184D01*
X11411Y-180089D01*
X12316Y-180783D01*
X13370Y-181219D01*
X14500Y-181368D01*
X15631Y-181219D01*
X16684Y-180783D01*
X17009Y-180533D01*
X17400Y-180978D01*
X15601Y-182777D01*
X14500Y-182632D01*
X13370Y-182781D01*
X12316Y-183217D01*
X11411Y-183911D01*
X10717Y-184816D01*
X10281Y-185870D01*
X10132Y-187000D01*
X10281Y-188130D01*
X10717Y-189184D01*
X11411Y-190089D01*
X12316Y-190783D01*
X13370Y-191219D01*
X14500Y-191368D01*
X15631Y-191219D01*
X16684Y-190783D01*
X17009Y-190533D01*
X17400Y-190978D01*
X15601Y-192777D01*
X14500Y-192632D01*
X13370Y-192781D01*
X12316Y-193217D01*
X11411Y-193911D01*
X10717Y-194816D01*
X10281Y-195870D01*
X10132Y-197000D01*
X10281Y-198131D01*
X10717Y-199184D01*
X11411Y-200089D01*
X12316Y-200783D01*
X13370Y-201219D01*
X14500Y-201368D01*
X15631Y-201219D01*
X16684Y-200783D01*
X17009Y-200533D01*
X17400Y-200978D01*
X15601Y-202777D01*
X14500Y-202632D01*
X13370Y-202781D01*
X12316Y-203217D01*
X11411Y-203911D01*
X10717Y-204816D01*
X10281Y-205870D01*
X10132Y-207000D01*
X10281Y-208131D01*
X10717Y-209184D01*
X11411Y-210089D01*
X12316Y-210783D01*
X13370Y-211219D01*
X14500Y-211368D01*
X15631Y-211219D01*
X16684Y-210783D01*
X17009Y-210533D01*
X17400Y-210978D01*
X15601Y-212777D01*
X14500Y-212632D01*
X13370Y-212781D01*
X12316Y-213217D01*
X11411Y-213911D01*
X10717Y-214816D01*
X10281Y-215869D01*
X10132Y-217000D01*
X10281Y-218130D01*
X10717Y-219184D01*
X11411Y-220089D01*
X12316Y-220783D01*
X13370Y-221219D01*
X14500Y-221368D01*
X15631Y-221219D01*
X16684Y-220783D01*
X17589Y-220089D01*
X18283Y-219184D01*
X18719Y-218130D01*
X18868Y-217000D01*
X18723Y-215899D01*
X20034Y-214588D01*
X20163Y-214610D01*
X20530Y-215269D01*
X20281Y-215869D01*
X20132Y-217000D01*
X20281Y-218130D01*
X20717Y-219184D01*
X21411Y-220089D01*
X22316Y-220783D01*
X23370Y-221219D01*
X24500Y-221368D01*
X25631Y-221219D01*
X26684Y-220783D01*
X27589Y-220089D01*
X28188Y-219308D01*
X50060D01*
X60179Y-229427D01*
X60928Y-229928D01*
X61811Y-230103D01*
X61811Y-230103D01*
X176138D01*
X176220Y-230343D01*
X176236Y-230694D01*
X175604Y-231116D01*
X154207Y-252514D01*
X153728Y-253230D01*
X153560Y-254075D01*
X152975Y-254060D01*
Y-250737D01*
X163633Y-240080D01*
X163681Y-240086D01*
X164503Y-239978D01*
X165269Y-239661D01*
X165927Y-239156D01*
X166432Y-238498D01*
X166750Y-237732D01*
X166858Y-236910D01*
X166750Y-236087D01*
X166432Y-235321D01*
X165927Y-234663D01*
X165269Y-234158D01*
X164503Y-233841D01*
X163681Y-233733D01*
X162859Y-233841D01*
X162093Y-234158D01*
X161435Y-234663D01*
X160930Y-235321D01*
X160613Y-236087D01*
X160504Y-236910D01*
X160511Y-236958D01*
X149207Y-248262D01*
X148728Y-248978D01*
X148560Y-249823D01*
Y-254199D01*
X147969Y-254367D01*
X147415Y-253942D01*
X146649Y-253624D01*
X145827Y-253516D01*
X145005Y-253624D01*
X144238Y-253942D01*
X143580Y-254447D01*
X143076Y-255104D01*
X142758Y-255871D01*
X142650Y-256693D01*
X142758Y-257515D01*
X143076Y-258281D01*
X143580Y-258939D01*
X143589Y-258946D01*
Y-277559D01*
X143169D01*
Y-277870D01*
X142894Y-278346D01*
X142579Y-278346D01*
X141909D01*
Y-283071D01*
Y-287795D01*
X142579D01*
X142894Y-287795D01*
X143169Y-288272D01*
Y-288583D01*
X163681D01*
Y-288272D01*
X163957Y-287795D01*
X164272Y-287795D01*
X164941D01*
Y-283071D01*
Y-278346D01*
X164272D01*
X163957Y-278346D01*
X163681Y-277870D01*
Y-277559D01*
X162976D01*
Y-254478D01*
X174125Y-243328D01*
X174173Y-243334D01*
X174995Y-243226D01*
X175762Y-242909D01*
X176420Y-242404D01*
X176449Y-242365D01*
X198062D01*
X203447Y-247750D01*
X203221Y-248295D01*
X186933D01*
X184320Y-245683D01*
X183604Y-245204D01*
X182759Y-245036D01*
X178024D01*
X177994Y-244998D01*
X177336Y-244493D01*
X176570Y-244176D01*
X175748Y-244067D01*
X174926Y-244176D01*
X174160Y-244493D01*
X173502Y-244998D01*
X172997Y-245656D01*
X172679Y-246422D01*
X172571Y-247244D01*
X172679Y-248066D01*
X172997Y-248833D01*
X173502Y-249490D01*
X174160Y-249995D01*
X174926Y-250313D01*
X175748Y-250421D01*
X176570Y-250313D01*
X177336Y-249995D01*
X177994Y-249490D01*
X178024Y-249452D01*
X181844D01*
X182297Y-249904D01*
X182071Y-250450D01*
X178996D01*
X178151Y-250618D01*
X177435Y-251096D01*
X175009Y-253522D01*
X174961Y-253516D01*
X174138Y-253624D01*
X173372Y-253942D01*
X172714Y-254447D01*
X172210Y-255104D01*
X171892Y-255871D01*
X171784Y-256693D01*
X171892Y-257515D01*
X172210Y-258281D01*
X172714Y-258939D01*
X173372Y-259444D01*
X174138Y-259761D01*
X174961Y-259870D01*
X175783Y-259761D01*
X176549Y-259444D01*
X177207Y-258939D01*
X177712Y-258281D01*
X178029Y-257515D01*
X178137Y-256693D01*
X178131Y-256645D01*
X179911Y-254865D01*
X198746D01*
X199037Y-255456D01*
X198824Y-255734D01*
X198506Y-256501D01*
X198398Y-257323D01*
X198506Y-258145D01*
X198824Y-258911D01*
X199328Y-259569D01*
X199986Y-260074D01*
X200753Y-260391D01*
X201575Y-260500D01*
X202397Y-260391D01*
X203163Y-260074D01*
X203821Y-259569D01*
X203851Y-259531D01*
X214370D01*
Y-261021D01*
X211879D01*
X211273Y-260556D01*
X210507Y-260239D01*
X209685Y-260130D01*
X208863Y-260239D01*
X208097Y-260556D01*
X207439Y-261061D01*
X206934Y-261719D01*
X206616Y-262485D01*
X206508Y-263307D01*
X206616Y-264129D01*
X206934Y-264896D01*
X207439Y-265553D01*
X208097Y-266058D01*
X208863Y-266376D01*
X208725Y-266926D01*
X195344D01*
X189652Y-261234D01*
X188935Y-260756D01*
X188091Y-260588D01*
X170583D01*
X170553Y-260549D01*
X169896Y-260044D01*
X169129Y-259727D01*
X168307Y-259618D01*
X167485Y-259727D01*
X166719Y-260044D01*
X166061Y-260549D01*
X165556Y-261207D01*
X165239Y-261973D01*
X165130Y-262795D01*
X165239Y-263617D01*
X165556Y-264384D01*
X166061Y-265042D01*
X166719Y-265546D01*
X167485Y-265864D01*
X168307Y-265972D01*
X169129Y-265864D01*
X169896Y-265546D01*
X170553Y-265042D01*
X170583Y-265003D01*
X187176D01*
X190522Y-268349D01*
X190296Y-268895D01*
X170725D01*
X170514Y-268620D01*
X169856Y-268115D01*
X169090Y-267798D01*
X168268Y-267689D01*
X167446Y-267798D01*
X166679Y-268115D01*
X166021Y-268620D01*
X165516Y-269278D01*
X165199Y-270044D01*
X165091Y-270866D01*
X165199Y-271688D01*
X165516Y-272455D01*
X166021Y-273113D01*
X166679Y-273617D01*
X167446Y-273935D01*
X168268Y-274043D01*
X169090Y-273935D01*
X169856Y-273617D01*
X170256Y-273310D01*
X206783D01*
X207178Y-273901D01*
X207123Y-274032D01*
X207022Y-274803D01*
X207123Y-275574D01*
X207421Y-276292D01*
X207894Y-276909D01*
X208511Y-277382D01*
X209229Y-277680D01*
X210000Y-277781D01*
X210771Y-277680D01*
X211489Y-277382D01*
X212106Y-276909D01*
X212579Y-276292D01*
X212877Y-275574D01*
X212916Y-275279D01*
X215158D01*
Y-276417D01*
X221850D01*
Y-275236D01*
X222638D01*
Y-273310D01*
X266693D01*
X267538Y-273142D01*
X268254Y-272663D01*
X278473Y-262444D01*
X306850D01*
X686221Y-262444D01*
X695669D01*
X696514Y-262276D01*
X697230Y-261797D01*
X727686Y-231342D01*
X823101D01*
X843321Y-251561D01*
X844037Y-252040D01*
X844882Y-252208D01*
X846543D01*
X846573Y-252246D01*
X847231Y-252751D01*
X847997Y-253068D01*
X848819Y-253177D01*
X849641Y-253068D01*
X850407Y-252751D01*
X851065Y-252246D01*
X851570Y-251588D01*
X851887Y-250822D01*
X851996Y-250000D01*
X851887Y-249178D01*
X851570Y-248412D01*
X851065Y-247754D01*
X850407Y-247249D01*
X849641Y-246932D01*
X848819Y-246823D01*
X847997Y-246932D01*
X847231Y-247249D01*
X846573Y-247754D01*
X846543Y-247792D01*
X845796D01*
X844458Y-246454D01*
X844684Y-245909D01*
X852559D01*
Y-247637D01*
X852756D01*
X853347Y-247637D01*
X853347Y-248227D01*
Y-249999D01*
X857087D01*
X860827D01*
X860827Y-247637D01*
X861417Y-247637D01*
X861614D01*
Y-239369D01*
X852559D01*
Y-241493D01*
X843533D01*
X829896Y-227856D01*
X830286Y-227411D01*
X830611Y-227661D01*
X831665Y-228097D01*
X832795Y-228246D01*
X833926Y-228097D01*
X834979Y-227661D01*
X835884Y-226967D01*
X836578Y-226062D01*
X837014Y-225009D01*
X837163Y-223878D01*
X837014Y-222747D01*
X836578Y-221694D01*
X835884Y-220789D01*
X834979Y-220095D01*
X833926Y-219659D01*
X832795Y-219510D01*
X831694Y-219655D01*
X827801Y-215762D01*
X827085Y-215283D01*
X826240Y-215115D01*
X815748D01*
X814903Y-215283D01*
X814187Y-215762D01*
X807353Y-222595D01*
X747835D01*
Y-214962D01*
X747638D01*
X747047Y-214962D01*
X747047Y-214371D01*
Y-212600D01*
X743307D01*
X739567D01*
X739567Y-214962D01*
X738976Y-214962D01*
X738779D01*
Y-222595D01*
X721260D01*
X720415Y-222763D01*
X719699Y-223242D01*
X690818Y-252123D01*
X688189D01*
X543571Y-252123D01*
X543327Y-251532D01*
X768053Y-26806D01*
X768532Y-26089D01*
X768700Y-25245D01*
Y-22882D01*
X771193D01*
Y-24881D01*
X767873Y-28200D01*
X767431Y-28776D01*
X767154Y-29446D01*
X767059Y-30166D01*
Y-52213D01*
X767154Y-52932D01*
X767431Y-53603D01*
X767873Y-54179D01*
X773358Y-59664D01*
Y-97518D01*
X754487Y-116389D01*
X754045Y-116965D01*
X753768Y-117635D01*
X753673Y-118355D01*
Y-143577D01*
X743798Y-153452D01*
X743357Y-154027D01*
X743079Y-154698D01*
X742984Y-155417D01*
Y-161136D01*
X742607Y-161426D01*
X741755Y-162536D01*
X741220Y-163829D01*
X741037Y-165217D01*
X741220Y-166604D01*
X741755Y-167897D01*
X742607Y-169007D01*
X743717Y-169859D01*
X745010Y-170395D01*
X746398Y-170577D01*
X747785Y-170395D01*
X749078Y-169859D01*
X750188Y-169007D01*
X750987Y-167966D01*
X751319Y-167929D01*
X751651Y-167966D01*
X752450Y-169007D01*
X752217Y-169573D01*
X750577Y-171214D01*
X741155D01*
X738586Y-168644D01*
Y-166977D01*
X740311D01*
Y-157922D01*
X724563D01*
Y-159126D01*
X724169Y-159471D01*
X723398Y-159573D01*
X722680Y-159870D01*
X722441Y-160054D01*
X721850Y-159762D01*
Y-158269D01*
X721654D01*
X721063Y-158269D01*
X721063Y-157678D01*
Y-155907D01*
X717323D01*
X713583D01*
X713583Y-158269D01*
X712992Y-158269D01*
X712795D01*
Y-166537D01*
X721850D01*
Y-165136D01*
X722441Y-164845D01*
X722680Y-165028D01*
X723398Y-165326D01*
X724169Y-165427D01*
X724563Y-165773D01*
Y-166977D01*
X733769D01*
Y-169642D01*
X733952Y-170563D01*
X734474Y-171345D01*
X738454Y-175325D01*
X739236Y-175847D01*
X740158Y-176031D01*
X741306D01*
X741423Y-176621D01*
X740922Y-176829D01*
X739853Y-177649D01*
X739033Y-178718D01*
X738517Y-179963D01*
X738471Y-180315D01*
X743504D01*
X748536D01*
X748490Y-179963D01*
X747974Y-178718D01*
X747154Y-177649D01*
X746085Y-176829D01*
X745584Y-176621D01*
X745701Y-176031D01*
X751575D01*
X752496Y-175847D01*
X753278Y-175325D01*
X756738Y-171865D01*
X757260Y-171084D01*
X757391Y-170426D01*
X757628Y-170395D01*
X758921Y-169859D01*
X760031Y-169007D01*
X760883Y-167897D01*
X760973Y-167680D01*
X761563Y-167680D01*
X761612Y-167798D01*
X762432Y-168867D01*
X763502Y-169687D01*
X764747Y-170203D01*
X765098Y-170249D01*
Y-165217D01*
Y-160184D01*
X764747Y-160230D01*
X763502Y-160746D01*
X762432Y-161566D01*
X761612Y-162635D01*
X761563Y-162753D01*
X760973Y-162753D01*
X760883Y-162536D01*
X760031Y-161426D01*
X758921Y-160574D01*
X757628Y-160038D01*
X756240Y-159856D01*
X754853Y-160038D01*
X753560Y-160574D01*
X752450Y-161426D01*
X751651Y-162467D01*
X751319Y-162504D01*
X750987Y-162467D01*
X750188Y-161426D01*
X749078Y-160574D01*
X748544Y-160353D01*
Y-156569D01*
X758418Y-146694D01*
X758860Y-146118D01*
X759138Y-145448D01*
X759232Y-144728D01*
Y-119506D01*
X778103Y-100635D01*
X778545Y-100059D01*
X778823Y-99389D01*
X778918Y-98670D01*
Y-58512D01*
X778823Y-57793D01*
X778545Y-57122D01*
X778103Y-56547D01*
X772618Y-51062D01*
Y-31317D01*
X773829Y-30107D01*
X774366Y-30404D01*
X774366Y-30755D01*
Y-35943D01*
X779090D01*
Y-30235D01*
X774928D01*
X774536Y-30235D01*
X774238Y-29697D01*
X775938Y-27997D01*
X776380Y-27422D01*
X776657Y-26751D01*
X776752Y-26032D01*
Y-22882D01*
X778106D01*
Y-21751D01*
X778697Y-21356D01*
X778859Y-21423D01*
X779681Y-21531D01*
X780503Y-21423D01*
X781270Y-21106D01*
X781927Y-20601D01*
X782432Y-19943D01*
X782750Y-19177D01*
X782858Y-18355D01*
X782750Y-17533D01*
X782432Y-16766D01*
X781927Y-16108D01*
X781270Y-15604D01*
X780503Y-15286D01*
X779681Y-15178D01*
X778859Y-15286D01*
X778697Y-15353D01*
X778106Y-14959D01*
Y-13827D01*
X768660D01*
Y-11340D01*
X768935Y-11226D01*
X769963Y-10437D01*
X770751Y-9409D01*
X770865Y-9135D01*
X772200D01*
Y-11071D01*
X780467D01*
Y-10874D01*
X780467Y-10284D01*
X781058Y-10284D01*
X782830D01*
Y-6544D01*
Y-2804D01*
X780467Y-2803D01*
X780467Y-2213D01*
Y-2016D01*
X772200D01*
Y-4720D01*
X770865D01*
X770751Y-4446D01*
X769963Y-3418D01*
X768935Y-2629D01*
X767737Y-2133D01*
X766453Y-1964D01*
D02*
G37*
G36*
X728501Y-3197D02*
X726139D01*
Y-5953D01*
X728501D01*
Y-3197D01*
D02*
G37*
G36*
X230556Y-7283D02*
X224803D01*
Y-10084D01*
X228248D01*
X229131Y-9908D01*
X229880Y-9408D01*
X230381Y-8659D01*
X230556Y-7776D01*
Y-7283D01*
D02*
G37*
G36*
X222835D02*
X217082D01*
Y-7776D01*
X217257Y-8659D01*
X217758Y-9408D01*
X218507Y-9908D01*
X219390Y-10084D01*
X222835D01*
Y-7283D01*
D02*
G37*
G36*
X125044D02*
X119291D01*
Y-10084D01*
X122736D01*
X123619Y-9908D01*
X124368Y-9408D01*
X124869Y-8659D01*
X125044Y-7776D01*
Y-7283D01*
D02*
G37*
G36*
X117323D02*
X111570D01*
Y-7776D01*
X111746Y-8659D01*
X112246Y-9408D01*
X112995Y-9908D01*
X113878Y-10084D01*
X117323D01*
Y-7283D01*
D02*
G37*
G36*
X787160Y-7528D02*
X784798D01*
Y-10284D01*
X787160D01*
Y-7528D01*
D02*
G37*
G36*
X728501Y-7922D02*
X726139D01*
Y-10678D01*
X728501D01*
Y-7922D01*
D02*
G37*
G36*
X586577Y-10908D02*
X585446Y-11056D01*
X584393Y-11493D01*
X583488Y-12187D01*
X582794Y-13092D01*
X582358Y-14145D01*
X582209Y-15276D01*
X582358Y-16406D01*
X582794Y-17460D01*
X583488Y-18364D01*
X584393Y-19058D01*
X585446Y-19495D01*
X586577Y-19644D01*
X587707Y-19495D01*
X588761Y-19058D01*
X589666Y-18364D01*
X590360Y-17460D01*
X590796Y-16406D01*
X590945Y-15276D01*
X590796Y-14145D01*
X590360Y-13092D01*
X589666Y-12187D01*
X588761Y-11493D01*
X587707Y-11056D01*
X586577Y-10908D01*
D02*
G37*
G36*
X836980Y-16534D02*
X835643Y-16710D01*
X834398Y-17226D01*
X834117Y-17442D01*
X836980Y-20304D01*
X839842Y-17442D01*
X839561Y-17226D01*
X838316Y-16710D01*
X836980Y-16534D01*
D02*
G37*
G36*
X105413Y-15901D02*
X104921D01*
Y-21654D01*
X107721D01*
Y-18209D01*
X107546Y-17325D01*
X107045Y-16577D01*
X106297Y-16076D01*
X105413Y-15901D01*
D02*
G37*
G36*
X102953D02*
X102461D01*
X101577Y-16076D01*
X100829Y-16577D01*
X100328Y-17325D01*
X100153Y-18209D01*
Y-21654D01*
X102953D01*
Y-15901D01*
D02*
G37*
G36*
X239272D02*
X238779D01*
Y-21654D01*
X241580D01*
Y-18209D01*
X241404Y-17325D01*
X240904Y-16577D01*
X240155Y-16076D01*
X239272Y-15901D01*
D02*
G37*
G36*
X236811D02*
X236319D01*
X235436Y-16076D01*
X234687Y-16577D01*
X234187Y-17325D01*
X234011Y-18209D01*
Y-21654D01*
X236811D01*
Y-15901D01*
D02*
G37*
G36*
X832725Y-18834D02*
X832509Y-19115D01*
X831993Y-20360D01*
X831817Y-21696D01*
X831993Y-23032D01*
X832509Y-24277D01*
X832725Y-24559D01*
X835588Y-21696D01*
X832725Y-18834D01*
D02*
G37*
G36*
X841234Y-18834D02*
X838371Y-21696D01*
X841234Y-24559D01*
X841450Y-24277D01*
X841966Y-23032D01*
X842142Y-21696D01*
X841966Y-20360D01*
X841450Y-19115D01*
X841234Y-18834D01*
D02*
G37*
G36*
X548602Y-19488D02*
X543484D01*
Y-24606D01*
X548602D01*
Y-19488D01*
D02*
G37*
G36*
X541516D02*
X536398D01*
Y-24606D01*
X541516D01*
Y-19488D01*
D02*
G37*
G36*
X404902D02*
X399783D01*
Y-24606D01*
X404902D01*
Y-19488D01*
D02*
G37*
G36*
X397815D02*
X392697D01*
Y-24606D01*
X397815D01*
Y-19488D01*
D02*
G37*
G36*
X288425Y-23328D02*
Y-25984D01*
X291082D01*
X290708Y-25082D01*
X290108Y-24301D01*
X289327Y-23701D01*
X288425Y-23328D01*
D02*
G37*
G36*
X286457Y-23328D02*
X285555Y-23701D01*
X284773Y-24301D01*
X284174Y-25082D01*
X283800Y-25984D01*
X286457D01*
Y-23328D01*
D02*
G37*
G36*
X494095Y-19655D02*
X493169Y-19776D01*
X492308Y-20133D01*
X491567Y-20701D01*
X490999Y-21441D01*
X490642Y-22303D01*
X490521Y-23228D01*
X490642Y-24153D01*
X490999Y-25015D01*
X491567Y-25756D01*
X492308Y-26323D01*
X493169Y-26680D01*
X494095Y-26802D01*
X495019Y-26680D01*
X495881Y-26323D01*
X496622Y-25756D01*
X497190Y-25015D01*
X497547Y-24153D01*
X497668Y-23228D01*
X497547Y-22303D01*
X497190Y-21441D01*
X496622Y-20701D01*
X495881Y-20133D01*
X495019Y-19776D01*
X494095Y-19655D01*
D02*
G37*
G36*
X368898D02*
X367973Y-19776D01*
X367111Y-20133D01*
X366371Y-20701D01*
X365803Y-21441D01*
X365446Y-22303D01*
X365324Y-23228D01*
X365446Y-24153D01*
X365803Y-25015D01*
X366371Y-25756D01*
X367111Y-26323D01*
X367973Y-26680D01*
X368898Y-26802D01*
X369823Y-26680D01*
X370685Y-26323D01*
X371425Y-25756D01*
X371993Y-25015D01*
X372350Y-24153D01*
X372471Y-23228D01*
X372350Y-22303D01*
X371993Y-21441D01*
X371425Y-20701D01*
X370685Y-20133D01*
X369823Y-19776D01*
X368898Y-19655D01*
D02*
G37*
G36*
X836980Y-23088D02*
X834117Y-25951D01*
X834398Y-26167D01*
X835643Y-26683D01*
X836980Y-26858D01*
X838316Y-26683D01*
X839561Y-26167D01*
X839842Y-25951D01*
X836980Y-23088D01*
D02*
G37*
G36*
X241580Y-23622D02*
X238779D01*
Y-29375D01*
X239272D01*
X240155Y-29199D01*
X240904Y-28699D01*
X241404Y-27950D01*
X241580Y-27067D01*
Y-23622D01*
D02*
G37*
G36*
X236811D02*
X234011D01*
Y-27067D01*
X234187Y-27950D01*
X234687Y-28699D01*
X235436Y-29199D01*
X236319Y-29375D01*
X236811D01*
Y-23622D01*
D02*
G37*
G36*
X107721Y-23622D02*
X104921D01*
Y-29375D01*
X105413D01*
X106297Y-29199D01*
X107045Y-28699D01*
X107546Y-27950D01*
X107721Y-27067D01*
Y-23622D01*
D02*
G37*
G36*
X102953D02*
X100153D01*
Y-27067D01*
X100328Y-27950D01*
X100829Y-28699D01*
X101577Y-29199D01*
X102461Y-29375D01*
X102953D01*
Y-23622D01*
D02*
G37*
G36*
X596577Y-20908D02*
X595446Y-21056D01*
X594393Y-21493D01*
X593488Y-22187D01*
X592794Y-23092D01*
X592358Y-24145D01*
X592209Y-25276D01*
X592358Y-26406D01*
X592794Y-27460D01*
X593488Y-28364D01*
X594393Y-29058D01*
X595446Y-29495D01*
X596577Y-29644D01*
X597707Y-29495D01*
X598761Y-29058D01*
X599665Y-28364D01*
X600360Y-27460D01*
X600796Y-26406D01*
X600945Y-25276D01*
X600796Y-24145D01*
X600360Y-23092D01*
X599665Y-22187D01*
X598761Y-21493D01*
X597707Y-21056D01*
X596577Y-20908D01*
D02*
G37*
G36*
X586577D02*
X585446Y-21056D01*
X584393Y-21493D01*
X583488Y-22187D01*
X582794Y-23092D01*
X582358Y-24145D01*
X582209Y-25276D01*
X582358Y-26406D01*
X582794Y-27460D01*
X583488Y-28364D01*
X584393Y-29058D01*
X585446Y-29495D01*
X586577Y-29644D01*
X587707Y-29495D01*
X588761Y-29058D01*
X589666Y-28364D01*
X590360Y-27460D01*
X590796Y-26406D01*
X590945Y-25276D01*
X590796Y-24145D01*
X590360Y-23092D01*
X589666Y-22187D01*
X588761Y-21493D01*
X587707Y-21056D01*
X586577Y-20908D01*
D02*
G37*
G36*
X291082Y-27953D02*
X288425D01*
Y-30609D01*
X289327Y-30235D01*
X290108Y-29636D01*
X290708Y-28855D01*
X291082Y-27953D01*
D02*
G37*
G36*
X286457D02*
X283800D01*
X284174Y-28855D01*
X284773Y-29636D01*
X285555Y-30235D01*
X286457Y-30609D01*
Y-27953D01*
D02*
G37*
G36*
X307126Y-22998D02*
X306098Y-23133D01*
X305140Y-23529D01*
X304318Y-24161D01*
X303687Y-24983D01*
X303290Y-25941D01*
X303155Y-26969D01*
X303290Y-27996D01*
X303687Y-28954D01*
X304318Y-29776D01*
X305140Y-30408D01*
X306098Y-30804D01*
X307126Y-30939D01*
X308154Y-30804D01*
X309111Y-30408D01*
X309934Y-29776D01*
X310565Y-28954D01*
X310962Y-27996D01*
X311097Y-26969D01*
X310962Y-25941D01*
X310565Y-24983D01*
X309934Y-24161D01*
X309111Y-23529D01*
X308154Y-23133D01*
X307126Y-22998D01*
D02*
G37*
G36*
X548602Y-26575D02*
X543484D01*
Y-31693D01*
X548602D01*
Y-26575D01*
D02*
G37*
G36*
X541516D02*
X536398D01*
Y-31693D01*
X541516D01*
Y-26575D01*
D02*
G37*
G36*
X404902D02*
X399783D01*
Y-31693D01*
X404902D01*
Y-26575D01*
D02*
G37*
G36*
X397815D02*
X392697D01*
Y-31693D01*
X397815D01*
Y-26575D01*
D02*
G37*
G36*
X330276Y-19291D02*
X317677D01*
Y-31890D01*
X330276D01*
Y-19291D01*
D02*
G37*
G36*
X557500Y-19261D02*
X556265Y-19383D01*
X555078Y-19743D01*
X553983Y-20328D01*
X553024Y-21115D01*
X552237Y-22074D01*
X551652Y-23168D01*
X551292Y-24356D01*
X551170Y-25591D01*
X551292Y-26825D01*
X551652Y-28013D01*
X552237Y-29107D01*
X553024Y-30066D01*
X553983Y-30854D01*
X555078Y-31438D01*
X556265Y-31799D01*
X557500Y-31920D01*
X558735Y-31799D01*
X559922Y-31438D01*
X561017Y-30854D01*
X561976Y-30066D01*
X562763Y-29107D01*
X563348Y-28013D01*
X563708Y-26825D01*
X563830Y-25591D01*
X563708Y-24356D01*
X563348Y-23168D01*
X562763Y-22074D01*
X561976Y-21115D01*
X561017Y-20328D01*
X559922Y-19743D01*
X558735Y-19383D01*
X557500Y-19261D01*
D02*
G37*
G36*
X409167Y-5858D02*
X282283D01*
X280845Y-6047D01*
X279504Y-6603D01*
X278352Y-7486D01*
X264573Y-21266D01*
X263689Y-22417D01*
X263134Y-23758D01*
X262945Y-25197D01*
Y-31842D01*
X211640D01*
X210201Y-32032D01*
X208860Y-32587D01*
X207709Y-33470D01*
X206825Y-34622D01*
X206270Y-35963D01*
X206080Y-37402D01*
X206270Y-38840D01*
X206825Y-40181D01*
X207709Y-41333D01*
X208860Y-42216D01*
X210201Y-42772D01*
X211640Y-42961D01*
X267323D01*
X267913Y-42883D01*
X268504Y-42961D01*
X269943Y-42772D01*
X271284Y-42216D01*
X272435Y-41333D01*
X273319Y-40181D01*
X273874Y-38840D01*
X274063Y-37402D01*
Y-27500D01*
X284586Y-16977D01*
X406864D01*
X407713Y-17825D01*
Y-23956D01*
X407591Y-24356D01*
X407470Y-25591D01*
X407591Y-26825D01*
X407951Y-28013D01*
X408536Y-29107D01*
X409323Y-30066D01*
X410283Y-30854D01*
X411377Y-31438D01*
X412564Y-31799D01*
X413799Y-31920D01*
X415034Y-31799D01*
X416222Y-31438D01*
X417316Y-30854D01*
X418275Y-30066D01*
X419062Y-29107D01*
X419647Y-28013D01*
X420007Y-26825D01*
X420129Y-25591D01*
X420007Y-24356D01*
X419647Y-23168D01*
X419062Y-22074D01*
X418831Y-21793D01*
Y-15522D01*
X418642Y-14083D01*
X418086Y-12743D01*
X417203Y-11591D01*
X413098Y-7486D01*
X411947Y-6603D01*
X410606Y-6047D01*
X409167Y-5858D01*
D02*
G37*
G36*
X338976Y-19261D02*
X337741Y-19383D01*
X336554Y-19743D01*
X335460Y-20328D01*
X334501Y-21115D01*
X333713Y-22074D01*
X333128Y-23168D01*
X332768Y-24356D01*
X332647Y-25591D01*
X332768Y-26825D01*
X333128Y-28013D01*
X333713Y-29107D01*
X334501Y-30066D01*
X335460Y-30854D01*
X336554Y-31438D01*
X337741Y-31799D01*
X338976Y-31920D01*
X340211Y-31799D01*
X341399Y-31438D01*
X342493Y-30854D01*
X343452Y-30066D01*
X344239Y-29107D01*
X344824Y-28013D01*
X345184Y-26825D01*
X345306Y-25591D01*
X345184Y-24356D01*
X344824Y-23168D01*
X344239Y-22074D01*
X343452Y-21115D01*
X342493Y-20328D01*
X341399Y-19743D01*
X340211Y-19383D01*
X338976Y-19261D01*
D02*
G37*
G36*
X298268Y-32175D02*
Y-35827D01*
X301919D01*
X301886Y-35578D01*
X301410Y-34428D01*
X300653Y-33441D01*
X299666Y-32684D01*
X298517Y-32208D01*
X298268Y-32175D01*
D02*
G37*
G36*
X296299D02*
X296050Y-32208D01*
X294901Y-32684D01*
X293914Y-33441D01*
X293157Y-34428D01*
X292681Y-35578D01*
X292648Y-35827D01*
X296299D01*
Y-32175D01*
D02*
G37*
G36*
X781059Y-30235D02*
Y-35943D01*
X785783D01*
Y-30235D01*
X781059D01*
D02*
G37*
G36*
X737752D02*
X733028D01*
Y-35943D01*
X737752D01*
Y-30235D01*
D02*
G37*
G36*
X731059D02*
X726335D01*
Y-35943D01*
X731059D01*
Y-30235D01*
D02*
G37*
G36*
X855075Y-34630D02*
X853739Y-34806D01*
X852494Y-35321D01*
X852213Y-35537D01*
X855075Y-38400D01*
X857938Y-35537D01*
X857657Y-35321D01*
X856411Y-34806D01*
X855075Y-34630D01*
D02*
G37*
G36*
X596577Y-30907D02*
X595446Y-31056D01*
X594393Y-31493D01*
X593488Y-32187D01*
X592794Y-33092D01*
X592358Y-34145D01*
X592209Y-35276D01*
X592358Y-36406D01*
X592794Y-37460D01*
X593488Y-38364D01*
X594393Y-39058D01*
X595446Y-39495D01*
X596577Y-39644D01*
X597707Y-39495D01*
X598761Y-39058D01*
X599665Y-38364D01*
X600360Y-37460D01*
X600796Y-36406D01*
X600945Y-35276D01*
X600796Y-34145D01*
X600360Y-33092D01*
X599665Y-32187D01*
X598761Y-31493D01*
X597707Y-31056D01*
X596577Y-30907D01*
D02*
G37*
G36*
X586577D02*
X585446Y-31056D01*
X584393Y-31493D01*
X583488Y-32187D01*
X582794Y-33092D01*
X582358Y-34145D01*
X582209Y-35276D01*
X582358Y-36406D01*
X582794Y-37460D01*
X583488Y-38364D01*
X584393Y-39058D01*
X585446Y-39495D01*
X586577Y-39644D01*
X587707Y-39495D01*
X588761Y-39058D01*
X589666Y-38364D01*
X590360Y-37460D01*
X590796Y-36406D01*
X590945Y-35276D01*
X590796Y-34145D01*
X590360Y-33092D01*
X589666Y-32187D01*
X588761Y-31493D01*
X587707Y-31056D01*
X586577Y-30907D01*
D02*
G37*
G36*
X296299Y-37795D02*
X292648D01*
X292681Y-38044D01*
X293157Y-39194D01*
X293914Y-40181D01*
X294901Y-40938D01*
X296050Y-41414D01*
X296299Y-41447D01*
Y-37795D01*
D02*
G37*
G36*
X301919D02*
X298268D01*
Y-41447D01*
X298517Y-41414D01*
X299666Y-40938D01*
X300653Y-40181D01*
X301410Y-39194D01*
X301886Y-38044D01*
X301919Y-37795D01*
D02*
G37*
G36*
X81791Y-37402D02*
X77756D01*
Y-41535D01*
X81791D01*
Y-37402D01*
D02*
G37*
G36*
X75787D02*
X71752D01*
Y-41535D01*
X75787D01*
Y-37402D01*
D02*
G37*
G36*
X859330Y-36929D02*
X856467Y-39792D01*
X859330Y-42655D01*
X859546Y-42373D01*
X860062Y-41128D01*
X860238Y-39792D01*
X860062Y-38456D01*
X859546Y-37211D01*
X859330Y-36929D01*
D02*
G37*
G36*
X850821Y-36929D02*
X850605Y-37211D01*
X850089Y-38456D01*
X849913Y-39792D01*
X850089Y-41128D01*
X850605Y-42373D01*
X850821Y-42655D01*
X853683Y-39792D01*
X850821Y-36929D01*
D02*
G37*
G36*
X785783Y-37912D02*
X781059D01*
Y-43620D01*
X785783D01*
Y-37912D01*
D02*
G37*
G36*
X779090D02*
X774366D01*
Y-43620D01*
X779090D01*
Y-37912D01*
D02*
G37*
G36*
X737752D02*
X733028D01*
Y-43620D01*
X737752D01*
Y-37912D01*
D02*
G37*
G36*
X731059D02*
X726335D01*
Y-43620D01*
X731059D01*
Y-37912D01*
D02*
G37*
G36*
X597561Y-41236D02*
Y-44291D01*
X600617D01*
X600604Y-44196D01*
X600188Y-43191D01*
X599525Y-42327D01*
X598662Y-41665D01*
X597656Y-41248D01*
X597561Y-41236D01*
D02*
G37*
G36*
X595593D02*
X595498Y-41248D01*
X594492Y-41665D01*
X593629Y-42327D01*
X592966Y-43191D01*
X592549Y-44196D01*
X592537Y-44291D01*
X595593D01*
Y-41236D01*
D02*
G37*
G36*
X855075Y-41184D02*
X852213Y-44047D01*
X852494Y-44263D01*
X853739Y-44778D01*
X855075Y-44954D01*
X856411Y-44778D01*
X857657Y-44263D01*
X857938Y-44047D01*
X855075Y-41184D01*
D02*
G37*
G36*
X81791Y-43504D02*
X77756D01*
Y-47638D01*
X81791D01*
Y-43504D01*
D02*
G37*
G36*
X75787D02*
X71752D01*
Y-47638D01*
X75787D01*
Y-43504D01*
D02*
G37*
G36*
X595593Y-46260D02*
X592537D01*
X592549Y-46355D01*
X592966Y-47360D01*
X593629Y-48224D01*
X594492Y-48886D01*
X595498Y-49303D01*
X595593Y-49316D01*
Y-46260D01*
D02*
G37*
G36*
X600617D02*
X597561D01*
Y-49316D01*
X597656Y-49303D01*
X598662Y-48886D01*
X599525Y-48224D01*
X600188Y-47360D01*
X600604Y-46355D01*
X600617Y-46260D01*
D02*
G37*
G36*
X307126Y-42683D02*
X306098Y-42818D01*
X305140Y-43215D01*
X304318Y-43846D01*
X303687Y-44668D01*
X303290Y-45626D01*
X303155Y-46654D01*
X303290Y-47681D01*
X303687Y-48639D01*
X304318Y-49461D01*
X305140Y-50093D01*
X306098Y-50489D01*
X307126Y-50625D01*
X308154Y-50489D01*
X309111Y-50093D01*
X309934Y-49461D01*
X310565Y-48639D01*
X310962Y-47681D01*
X311097Y-46654D01*
X310962Y-45626D01*
X310565Y-44668D01*
X309934Y-43846D01*
X309111Y-43215D01*
X308154Y-42818D01*
X307126Y-42683D01*
D02*
G37*
G36*
X287441D02*
X286413Y-42818D01*
X285455Y-43215D01*
X284633Y-43846D01*
X284002Y-44668D01*
X283605Y-45626D01*
X283470Y-46654D01*
X283605Y-47681D01*
X284002Y-48639D01*
X284633Y-49461D01*
X285455Y-50093D01*
X286413Y-50489D01*
X287441Y-50625D01*
X288469Y-50489D01*
X289426Y-50093D01*
X290249Y-49461D01*
X290880Y-48639D01*
X291277Y-47681D01*
X291412Y-46654D01*
X291277Y-45626D01*
X290880Y-44668D01*
X290249Y-43846D01*
X289426Y-43215D01*
X288469Y-42818D01*
X287441Y-42683D01*
D02*
G37*
G36*
X298268Y-51860D02*
Y-55512D01*
X301919D01*
X301886Y-55263D01*
X301410Y-54114D01*
X300653Y-53127D01*
X299666Y-52369D01*
X298517Y-51893D01*
X298268Y-51860D01*
D02*
G37*
G36*
X296299D02*
X296050Y-51893D01*
X294901Y-52369D01*
X293914Y-53127D01*
X293157Y-54114D01*
X292681Y-55263D01*
X292648Y-55512D01*
X296299D01*
Y-51860D01*
D02*
G37*
G36*
X824452Y-28863D02*
X823065Y-29046D01*
X821772Y-29581D01*
X820662Y-30433D01*
X819810Y-31544D01*
X819274Y-32836D01*
X819092Y-34224D01*
X819274Y-35612D01*
X819810Y-36904D01*
X820662Y-38015D01*
X821772Y-38867D01*
X823065Y-39402D01*
X824452Y-39585D01*
X825716Y-39419D01*
X836824Y-50526D01*
X835031Y-52319D01*
X842548Y-59836D01*
X850064Y-52319D01*
X842548Y-44803D01*
X840755Y-46595D01*
X829647Y-35487D01*
X829813Y-34224D01*
X829631Y-32836D01*
X829095Y-31544D01*
X828243Y-30433D01*
X827133Y-29581D01*
X825840Y-29046D01*
X824452Y-28863D01*
D02*
G37*
G36*
X296299Y-57480D02*
X292648D01*
X292681Y-57729D01*
X293157Y-58879D01*
X293914Y-59865D01*
X294901Y-60623D01*
X296050Y-61099D01*
X296299Y-61132D01*
Y-57480D01*
D02*
G37*
G36*
X301919D02*
X298268D01*
Y-61132D01*
X298517Y-61099D01*
X299666Y-60623D01*
X300653Y-59865D01*
X301410Y-58879D01*
X301886Y-57729D01*
X301919Y-57480D01*
D02*
G37*
G36*
X747437Y-59792D02*
Y-63443D01*
X751088D01*
X751056Y-63194D01*
X750580Y-62045D01*
X749822Y-61058D01*
X748835Y-60301D01*
X747686Y-59825D01*
X747437Y-59792D01*
D02*
G37*
G36*
X745469D02*
X745219Y-59825D01*
X744070Y-60301D01*
X743083Y-61058D01*
X742326Y-62045D01*
X741850Y-63194D01*
X741817Y-63443D01*
X745469D01*
Y-59792D01*
D02*
G37*
G36*
X751088Y-65412D02*
X747437D01*
Y-69063D01*
X747686Y-69030D01*
X748835Y-68554D01*
X749822Y-67797D01*
X750580Y-66810D01*
X751056Y-65661D01*
X751088Y-65412D01*
D02*
G37*
G36*
X745469D02*
X741817D01*
X741850Y-65661D01*
X742326Y-66810D01*
X743083Y-67797D01*
X744070Y-68554D01*
X745219Y-69030D01*
X745469Y-69063D01*
Y-65412D01*
D02*
G37*
G36*
X766453Y-59464D02*
X765168Y-59633D01*
X763971Y-60129D01*
X762943Y-60918D01*
X762154Y-61946D01*
X761658Y-63143D01*
X761489Y-64428D01*
X761658Y-65712D01*
X762154Y-66909D01*
X762943Y-67937D01*
X763971Y-68726D01*
X765168Y-69222D01*
X766453Y-69391D01*
X767737Y-69222D01*
X768935Y-68726D01*
X769963Y-67937D01*
X770751Y-66909D01*
X771247Y-65712D01*
X771417Y-64428D01*
X771247Y-63143D01*
X770751Y-61946D01*
X769963Y-60918D01*
X768935Y-60129D01*
X767737Y-59633D01*
X766453Y-59464D01*
D02*
G37*
G36*
X87008Y-72047D02*
X83268D01*
Y-76181D01*
X87008D01*
Y-72047D01*
D02*
G37*
G36*
X81299D02*
X77559D01*
Y-76181D01*
X81299D01*
Y-72047D01*
D02*
G37*
G36*
X193658Y-28954D02*
X192733Y-29076D01*
X191870Y-29433D01*
X191130Y-30001D01*
X190562Y-30741D01*
X190205Y-31603D01*
X190084Y-32528D01*
Y-51043D01*
X181193Y-59934D01*
X180625Y-60674D01*
X180268Y-61536D01*
X180147Y-62461D01*
Y-67579D01*
X180268Y-68504D01*
X180625Y-69366D01*
X181193Y-70106D01*
X181933Y-70674D01*
X182796Y-71031D01*
X183721Y-71153D01*
X184645Y-71031D01*
X185507Y-70674D01*
X186248Y-70106D01*
X186816Y-69366D01*
X187173Y-68504D01*
X187294Y-67579D01*
Y-63941D01*
X194661Y-56574D01*
X205366D01*
X206422Y-57630D01*
Y-75048D01*
X206544Y-75973D01*
X206901Y-76835D01*
X207469Y-77575D01*
X208209Y-78143D01*
X209071Y-78500D01*
X209996Y-78622D01*
X210921Y-78500D01*
X211783Y-78143D01*
X212523Y-77575D01*
X213091Y-76835D01*
X213448Y-75973D01*
X213570Y-75048D01*
Y-56150D01*
X213448Y-55225D01*
X213091Y-54363D01*
X212523Y-53623D01*
X209374Y-50473D01*
X208633Y-49905D01*
X207771Y-49548D01*
X206846Y-49426D01*
X197231D01*
Y-32528D01*
X197110Y-31603D01*
X196753Y-30741D01*
X196185Y-30001D01*
X195444Y-29433D01*
X194582Y-29076D01*
X193658Y-28954D01*
D02*
G37*
G36*
X105413Y-73381D02*
X104921D01*
Y-79134D01*
X107721D01*
Y-75689D01*
X107546Y-74806D01*
X107045Y-74057D01*
X106297Y-73557D01*
X105413Y-73381D01*
D02*
G37*
G36*
X102953D02*
X102461D01*
X101577Y-73557D01*
X100829Y-74057D01*
X100328Y-74806D01*
X100153Y-75689D01*
Y-79134D01*
X102953D01*
Y-73381D01*
D02*
G37*
G36*
X239272D02*
X238779D01*
Y-79134D01*
X241580D01*
Y-75689D01*
X241404Y-74806D01*
X240904Y-74057D01*
X240155Y-73557D01*
X239272Y-73381D01*
D02*
G37*
G36*
X236811D02*
X236319D01*
X235436Y-73557D01*
X234687Y-74057D01*
X234187Y-74806D01*
X234011Y-75689D01*
Y-79134D01*
X236811D01*
Y-73381D01*
D02*
G37*
G36*
X82579Y-53937D02*
X70965D01*
Y-56272D01*
X54724D01*
X53902Y-56380D01*
X53136Y-56698D01*
X52478Y-57203D01*
X43423Y-66258D01*
X42918Y-66916D01*
X42601Y-67682D01*
X42492Y-68504D01*
Y-108192D01*
X27483Y-123201D01*
X10236D01*
X9414Y-123309D01*
X8648Y-123627D01*
X7990Y-124132D01*
X3659Y-128462D01*
X3154Y-129120D01*
X2837Y-129886D01*
X2729Y-130709D01*
Y-256693D01*
Y-288405D01*
X2837Y-289228D01*
X3154Y-289994D01*
X3659Y-290652D01*
X10151Y-297144D01*
X10281Y-298130D01*
X10717Y-299184D01*
X11411Y-300089D01*
X12316Y-300783D01*
X13370Y-301219D01*
X14500Y-301368D01*
X15631Y-301219D01*
X16684Y-300783D01*
X17589Y-300089D01*
X18283Y-299184D01*
X18719Y-298130D01*
X18868Y-297000D01*
X18719Y-295869D01*
X18283Y-294816D01*
X17589Y-293911D01*
X16684Y-293217D01*
X15631Y-292781D01*
X14643Y-292651D01*
X13874Y-291881D01*
X14150Y-291322D01*
X14500Y-291368D01*
X15631Y-291219D01*
X16684Y-290783D01*
X17589Y-290089D01*
X18283Y-289184D01*
X18719Y-288130D01*
X18868Y-287000D01*
X18719Y-285870D01*
X18283Y-284816D01*
X17589Y-283911D01*
X16684Y-283217D01*
X15631Y-282781D01*
X14500Y-282632D01*
X13370Y-282781D01*
X12316Y-283217D01*
X11411Y-283911D01*
X10717Y-284816D01*
X10281Y-285870D01*
X10132Y-287000D01*
X10178Y-287350D01*
X9619Y-287626D01*
X9082Y-287090D01*
Y-260177D01*
X11526D01*
X12316Y-260783D01*
X13370Y-261219D01*
X14500Y-261368D01*
X15631Y-261219D01*
X16684Y-260783D01*
X17589Y-260089D01*
X18283Y-259184D01*
X18719Y-258131D01*
X18868Y-257000D01*
X18719Y-255870D01*
X18283Y-254816D01*
X17589Y-253911D01*
X16684Y-253217D01*
X15631Y-252781D01*
X14500Y-252632D01*
X13370Y-252781D01*
X12316Y-253217D01*
X11526Y-253823D01*
X9082D01*
Y-132025D01*
X11552Y-129555D01*
X28799D01*
X29621Y-129446D01*
X30388Y-129129D01*
X31045Y-128624D01*
X47916Y-111754D01*
X48421Y-111096D01*
X48738Y-110330D01*
X48846Y-109508D01*
Y-69820D01*
X56040Y-62626D01*
X70965D01*
Y-65748D01*
X82579D01*
Y-62626D01*
X115121D01*
X127233Y-74738D01*
X127225Y-74803D01*
X127380Y-75985D01*
X127837Y-77087D01*
X128562Y-78032D01*
X129508Y-78758D01*
X130609Y-79214D01*
X131791Y-79370D01*
X132973Y-79214D01*
X134075Y-78758D01*
X135020Y-78032D01*
X135746Y-77087D01*
X136202Y-75985D01*
X136358Y-74803D01*
X136202Y-73621D01*
X135746Y-72520D01*
X135020Y-71574D01*
X134075Y-70848D01*
X132973Y-70392D01*
X131791Y-70236D01*
X131726Y-70245D01*
X118683Y-57203D01*
X118025Y-56698D01*
X117259Y-56380D01*
X116437Y-56272D01*
X82579D01*
Y-53937D01*
D02*
G37*
G36*
X87008Y-78150D02*
X83268D01*
Y-82284D01*
X87008D01*
Y-78150D01*
D02*
G37*
G36*
X81299D02*
X77559D01*
Y-82284D01*
X81299D01*
Y-78150D01*
D02*
G37*
G36*
X339075Y-75527D02*
X338039Y-75663D01*
X337074Y-76063D01*
X336246Y-76699D01*
X335610Y-77527D01*
X335210Y-78492D01*
X335074Y-79528D01*
X335210Y-80563D01*
X335610Y-81528D01*
X336246Y-82357D01*
X337074Y-82992D01*
X338039Y-83392D01*
X339075Y-83528D01*
X340110Y-83392D01*
X341075Y-82992D01*
X341904Y-82357D01*
X342540Y-81528D01*
X342939Y-80563D01*
X343076Y-79528D01*
X342939Y-78492D01*
X342540Y-77527D01*
X341904Y-76699D01*
X341075Y-76063D01*
X340110Y-75663D01*
X339075Y-75527D01*
D02*
G37*
G36*
X319193D02*
X318158Y-75663D01*
X317193Y-76063D01*
X316364Y-76699D01*
X315728Y-77527D01*
X315329Y-78492D01*
X315192Y-79528D01*
X315329Y-80563D01*
X315728Y-81528D01*
X316364Y-82357D01*
X317193Y-82992D01*
X318158Y-83392D01*
X319193Y-83528D01*
X320228Y-83392D01*
X321193Y-82992D01*
X322022Y-82357D01*
X322658Y-81528D01*
X323057Y-80563D01*
X323194Y-79528D01*
X323057Y-78492D01*
X322658Y-77527D01*
X322022Y-76699D01*
X321193Y-76063D01*
X320228Y-75663D01*
X319193Y-75527D01*
D02*
G37*
G36*
X241580Y-81102D02*
X238779D01*
Y-86855D01*
X239272D01*
X240155Y-86680D01*
X240904Y-86179D01*
X241404Y-85431D01*
X241580Y-84547D01*
Y-81102D01*
D02*
G37*
G36*
X236811D02*
X234011D01*
Y-84547D01*
X234187Y-85431D01*
X234687Y-86179D01*
X235436Y-86680D01*
X236319Y-86855D01*
X236811D01*
Y-81102D01*
D02*
G37*
G36*
X107721Y-81102D02*
X104921D01*
Y-86855D01*
X105413D01*
X106297Y-86680D01*
X107045Y-86179D01*
X107546Y-85431D01*
X107721Y-84547D01*
Y-81102D01*
D02*
G37*
G36*
X102953D02*
X100153D01*
Y-84547D01*
X100328Y-85431D01*
X100829Y-86179D01*
X101577Y-86680D01*
X102461Y-86855D01*
X102953D01*
Y-81102D01*
D02*
G37*
G36*
X77560Y-86024D02*
Y-88779D01*
X79922D01*
Y-86024D01*
X77560D01*
D02*
G37*
G36*
X79922Y-90748D02*
X77560D01*
Y-93504D01*
X79922D01*
Y-90748D01*
D02*
G37*
G36*
X228051Y-91097D02*
X224606D01*
Y-93898D01*
X230359D01*
Y-93405D01*
X230184Y-92522D01*
X229683Y-91773D01*
X228935Y-91273D01*
X228051Y-91097D01*
D02*
G37*
G36*
X222638D02*
X219193D01*
X218310Y-91273D01*
X217561Y-91773D01*
X217060Y-92522D01*
X216885Y-93405D01*
Y-93898D01*
X222638D01*
Y-91097D01*
D02*
G37*
G36*
X122539D02*
X119095D01*
Y-93898D01*
X124847D01*
Y-93405D01*
X124672Y-92522D01*
X124171Y-91773D01*
X123423Y-91273D01*
X122539Y-91097D01*
D02*
G37*
G36*
X117126D02*
X113681D01*
X112798Y-91273D01*
X112049Y-91773D01*
X111549Y-92522D01*
X111373Y-93405D01*
Y-93898D01*
X117126D01*
Y-91097D01*
D02*
G37*
G36*
X230359Y-95866D02*
X224606D01*
Y-98666D01*
X228051D01*
X228935Y-98491D01*
X229683Y-97990D01*
X230184Y-97242D01*
X230359Y-96358D01*
Y-95866D01*
D02*
G37*
G36*
X222638D02*
X216885D01*
Y-96358D01*
X217060Y-97242D01*
X217561Y-97990D01*
X218310Y-98491D01*
X219193Y-98666D01*
X222638D01*
Y-95866D01*
D02*
G37*
G36*
X124847D02*
X119095D01*
Y-98666D01*
X122539D01*
X123423Y-98491D01*
X124171Y-97990D01*
X124672Y-97242D01*
X124847Y-96358D01*
Y-95866D01*
D02*
G37*
G36*
X117126D02*
X111373D01*
Y-96358D01*
X111549Y-97242D01*
X112049Y-97990D01*
X112798Y-98491D01*
X113681Y-98666D01*
X117126D01*
Y-95866D01*
D02*
G37*
G36*
X218110Y-52729D02*
X217288Y-52837D01*
X216522Y-53154D01*
X215864Y-53659D01*
X215359Y-54317D01*
X215042Y-55083D01*
X214933Y-55905D01*
X215042Y-56728D01*
X215359Y-57494D01*
X215864Y-58152D01*
X215902Y-58181D01*
Y-84912D01*
X212218Y-88596D01*
X211740Y-89313D01*
X211572Y-90158D01*
Y-103236D01*
X211533Y-103266D01*
X211028Y-103923D01*
X210711Y-104690D01*
X210603Y-105512D01*
X210711Y-106334D01*
X211028Y-107100D01*
X211533Y-107758D01*
X212191Y-108263D01*
X212957Y-108580D01*
X213779Y-108689D01*
X214602Y-108580D01*
X215368Y-108263D01*
X216026Y-107758D01*
X216531Y-107100D01*
X216848Y-106334D01*
X216956Y-105512D01*
X216848Y-104690D01*
X216531Y-103923D01*
X216026Y-103266D01*
X215987Y-103236D01*
Y-91072D01*
X219671Y-87388D01*
X220150Y-86672D01*
X220318Y-85827D01*
Y-58181D01*
X220357Y-58152D01*
X220861Y-57494D01*
X221179Y-56728D01*
X221287Y-55905D01*
X221179Y-55083D01*
X220861Y-54317D01*
X220357Y-53659D01*
X219699Y-53154D01*
X218933Y-52837D01*
X218110Y-52729D01*
D02*
G37*
G36*
X67716Y-66508D02*
X66894Y-66616D01*
X66128Y-66934D01*
X65470Y-67439D01*
X64965Y-68097D01*
X64648Y-68863D01*
X64540Y-69685D01*
X64648Y-70507D01*
X64937Y-71205D01*
Y-96063D01*
X65032Y-96782D01*
X65309Y-97453D01*
X65751Y-98028D01*
X84353Y-116631D01*
X84929Y-117073D01*
X85599Y-117350D01*
X86319Y-117445D01*
X154882Y-117445D01*
X223025Y-117445D01*
X223116Y-117515D01*
X223883Y-117832D01*
X224705Y-117940D01*
X225527Y-117832D01*
X226293Y-117515D01*
X226951Y-117010D01*
X227456Y-116352D01*
X227773Y-115586D01*
X227882Y-114764D01*
X227773Y-113942D01*
X227456Y-113175D01*
X226951Y-112517D01*
X226293Y-112013D01*
X225527Y-111695D01*
X224705Y-111587D01*
X223883Y-111695D01*
X223423Y-111886D01*
X154882Y-111886D01*
X87470Y-111886D01*
X70496Y-94912D01*
Y-94291D01*
X73229D01*
Y-94095D01*
X73229Y-93504D01*
X73820Y-93504D01*
X75592D01*
Y-89764D01*
Y-86024D01*
X73229Y-86024D01*
X73229Y-85433D01*
Y-85236D01*
X70496D01*
Y-83071D01*
X75984D01*
Y-71260D01*
X71113D01*
X70718Y-70669D01*
X70785Y-70507D01*
X70893Y-69685D01*
X70785Y-68863D01*
X70468Y-68097D01*
X69963Y-67439D01*
X69305Y-66934D01*
X68539Y-66616D01*
X67716Y-66508D01*
D02*
G37*
G36*
X25484Y-132960D02*
Y-136016D01*
X28540D01*
X28527Y-135921D01*
X28111Y-134915D01*
X27448Y-134052D01*
X26585Y-133389D01*
X25579Y-132973D01*
X25484Y-132960D01*
D02*
G37*
G36*
X23516D02*
X23421Y-132973D01*
X22415Y-133389D01*
X21552Y-134052D01*
X20889Y-134915D01*
X20473Y-135921D01*
X20460Y-136016D01*
X23516D01*
Y-132960D01*
D02*
G37*
G36*
X862390Y-129980D02*
X857665D01*
Y-136673D01*
X862390D01*
Y-129980D01*
D02*
G37*
G36*
X855697D02*
X850972D01*
Y-136673D01*
X855697D01*
Y-129980D01*
D02*
G37*
G36*
X828435D02*
X823711D01*
Y-136673D01*
X828435D01*
Y-129980D01*
D02*
G37*
G36*
X821742D02*
X817018D01*
Y-136673D01*
X821742D01*
Y-129980D01*
D02*
G37*
G36*
X778925D02*
X774201D01*
Y-136673D01*
X778925D01*
Y-129980D01*
D02*
G37*
G36*
X772232D02*
X767508D01*
Y-136673D01*
X772232D01*
Y-129980D01*
D02*
G37*
G36*
X744971D02*
X740246D01*
Y-136673D01*
X744971D01*
Y-129980D01*
D02*
G37*
G36*
X738278D02*
X733553D01*
Y-136673D01*
X738278D01*
Y-129980D01*
D02*
G37*
G36*
X803740Y-137403D02*
X800984D01*
Y-139765D01*
X803740D01*
Y-137403D01*
D02*
G37*
G36*
X799016D02*
X796260D01*
Y-139765D01*
X799016D01*
Y-137403D01*
D02*
G37*
G36*
X862390Y-138642D02*
X857665D01*
Y-145335D01*
X862390D01*
Y-138642D01*
D02*
G37*
G36*
X855697D02*
X850972D01*
Y-145335D01*
X855697D01*
Y-138642D01*
D02*
G37*
G36*
X828435D02*
X823711D01*
Y-145335D01*
X828435D01*
Y-138642D01*
D02*
G37*
G36*
X821742D02*
X817018D01*
Y-145335D01*
X821742D01*
Y-138642D01*
D02*
G37*
G36*
X778925D02*
X774201D01*
Y-145335D01*
X778925D01*
Y-138642D01*
D02*
G37*
G36*
X772232D02*
X767508D01*
Y-145335D01*
X772232D01*
Y-138642D01*
D02*
G37*
G36*
X744971D02*
X740246D01*
Y-145335D01*
X744971D01*
Y-138642D01*
D02*
G37*
G36*
X738278D02*
X733553D01*
Y-145335D01*
X738278D01*
Y-138642D01*
D02*
G37*
G36*
X803740Y-141734D02*
X800000D01*
X796260D01*
X796260Y-144096D01*
X795669Y-144096D01*
X795472D01*
Y-151922D01*
X776497D01*
X776233Y-151658D01*
X776116Y-151482D01*
X775419Y-150785D01*
X775318Y-150017D01*
X775020Y-149298D01*
X774547Y-148681D01*
X773930Y-148208D01*
X773212Y-147911D01*
X772441Y-147809D01*
X771670Y-147911D01*
X770952Y-148208D01*
X770335Y-148681D01*
X769862Y-149298D01*
X769564Y-150017D01*
X769463Y-150787D01*
X769564Y-151558D01*
X769862Y-152277D01*
X770335Y-152893D01*
X770952Y-153367D01*
X771355Y-153534D01*
X772592Y-154771D01*
X772710Y-154947D01*
X773797Y-156034D01*
X774578Y-156556D01*
X775500Y-156739D01*
X828347D01*
Y-158858D01*
X837296D01*
Y-160461D01*
X837024Y-160574D01*
X835914Y-161426D01*
X835115Y-162467D01*
X834783Y-162504D01*
X834452Y-162467D01*
X833653Y-161426D01*
X832543Y-160574D01*
X831250Y-160038D01*
X829862Y-159856D01*
X828475Y-160038D01*
X827182Y-160574D01*
X826071Y-161426D01*
X825220Y-162536D01*
X824684Y-163829D01*
X824501Y-165217D01*
X824684Y-166604D01*
X825220Y-167897D01*
X826071Y-169007D01*
X827182Y-169859D01*
X828475Y-170395D01*
X829862Y-170577D01*
X831250Y-170395D01*
X832543Y-169859D01*
X833653Y-169007D01*
X834452Y-167966D01*
X834783Y-167929D01*
X835115Y-167966D01*
X835914Y-169007D01*
X837024Y-169859D01*
X838317Y-170395D01*
X839705Y-170577D01*
X841092Y-170395D01*
X842385Y-169859D01*
X843495Y-169007D01*
X844347Y-167897D01*
X844437Y-167680D01*
X845028Y-167680D01*
X845077Y-167798D01*
X845897Y-168867D01*
X846966Y-169687D01*
X848211Y-170203D01*
X848563Y-170249D01*
Y-165217D01*
Y-160184D01*
X848211Y-160230D01*
X846966Y-160746D01*
X845897Y-161566D01*
X845077Y-162635D01*
X845028Y-162753D01*
X844437Y-162753D01*
X844347Y-162536D01*
X843495Y-161426D01*
X842385Y-160574D01*
X842113Y-160461D01*
Y-158858D01*
X844094D01*
Y-149803D01*
X828347D01*
Y-151922D01*
X804527D01*
Y-144096D01*
X804331D01*
X803740Y-144096D01*
X803740Y-143505D01*
Y-141734D01*
D02*
G37*
G36*
X721063Y-151576D02*
X718307D01*
Y-153938D01*
X721063D01*
Y-151576D01*
D02*
G37*
G36*
X716339D02*
X713583D01*
Y-153938D01*
X716339D01*
Y-151576D01*
D02*
G37*
G36*
X850531Y-160184D02*
Y-164232D01*
X854580D01*
X854534Y-163880D01*
X854018Y-162635D01*
X853197Y-161566D01*
X852128Y-160746D01*
X850883Y-160230D01*
X850531Y-160184D01*
D02*
G37*
G36*
X767067D02*
Y-164232D01*
X771115D01*
X771069Y-163880D01*
X770553Y-162635D01*
X769733Y-161566D01*
X768664Y-160746D01*
X767419Y-160230D01*
X767067Y-160184D01*
D02*
G37*
G36*
X854580Y-166201D02*
X850531D01*
Y-170249D01*
X850883Y-170203D01*
X852128Y-169687D01*
X853197Y-168867D01*
X854018Y-167798D01*
X854534Y-166553D01*
X854580Y-166201D01*
D02*
G37*
G36*
X771115D02*
X767067D01*
Y-170249D01*
X767419Y-170203D01*
X768664Y-169687D01*
X769733Y-168867D01*
X770553Y-167798D01*
X771069Y-166553D01*
X771115Y-166201D01*
D02*
G37*
G36*
X232087Y-175827D02*
X226378D01*
Y-179961D01*
X232087D01*
Y-175827D01*
D02*
G37*
G36*
X224410D02*
X218701D01*
Y-179961D01*
X224410D01*
Y-175827D01*
D02*
G37*
G36*
X811812Y-176267D02*
Y-180315D01*
X815860D01*
X815814Y-179963D01*
X815298Y-178718D01*
X814477Y-177649D01*
X813408Y-176829D01*
X812163Y-176313D01*
X811812Y-176267D01*
D02*
G37*
G36*
X786220Y-176267D02*
Y-180315D01*
X790269D01*
X790222Y-179963D01*
X789707Y-178718D01*
X788886Y-177649D01*
X787817Y-176829D01*
X786572Y-176313D01*
X786220Y-176267D01*
D02*
G37*
G36*
X853544D02*
Y-180315D01*
X857592D01*
X857546Y-179963D01*
X857030Y-178718D01*
X856210Y-177649D01*
X855141Y-176829D01*
X853895Y-176313D01*
X853544Y-176267D01*
D02*
G37*
G36*
X770079D02*
Y-180315D01*
X774128D01*
X774081Y-179963D01*
X773565Y-178718D01*
X772745Y-177649D01*
X771676Y-176829D01*
X770431Y-176313D01*
X770079Y-176267D01*
D02*
G37*
G36*
X827952Y-176267D02*
Y-180315D01*
X832001D01*
X831954Y-179963D01*
X831439Y-178718D01*
X830618Y-177649D01*
X829549Y-176829D01*
X828304Y-176313D01*
X827952Y-176267D01*
D02*
G37*
G36*
X825984Y-176267D02*
X825632Y-176313D01*
X824387Y-176829D01*
X823318Y-177649D01*
X822497Y-178718D01*
X821982Y-179963D01*
X821935Y-180315D01*
X825984D01*
Y-176267D01*
D02*
G37*
G36*
X851575D02*
X851223Y-176313D01*
X849978Y-176829D01*
X848909Y-177649D01*
X848089Y-178718D01*
X847573Y-179963D01*
X847527Y-180315D01*
X851575D01*
Y-176267D01*
D02*
G37*
G36*
X768111D02*
X767759Y-176313D01*
X766514Y-176829D01*
X765445Y-177649D01*
X764624Y-178718D01*
X764109Y-179963D01*
X764062Y-180315D01*
X768111D01*
Y-176267D01*
D02*
G37*
G36*
X784252Y-176267D02*
X783900Y-176313D01*
X782655Y-176829D01*
X781586Y-177649D01*
X780765Y-178718D01*
X780249Y-179963D01*
X780203Y-180315D01*
X784252D01*
Y-176267D01*
D02*
G37*
G36*
X809843D02*
X809491Y-176313D01*
X808246Y-176829D01*
X807177Y-177649D01*
X806357Y-178718D01*
X805841Y-179963D01*
X805795Y-180315D01*
X809843D01*
Y-176267D01*
D02*
G37*
G36*
X232087Y-181929D02*
X226378D01*
Y-186063D01*
X232087D01*
Y-181929D01*
D02*
G37*
G36*
X815860Y-182283D02*
X811812D01*
Y-186332D01*
X812163Y-186286D01*
X813408Y-185770D01*
X814477Y-184950D01*
X815298Y-183880D01*
X815814Y-182635D01*
X815860Y-182283D01*
D02*
G37*
G36*
X790269D02*
X786220D01*
Y-186332D01*
X786572Y-186286D01*
X787817Y-185770D01*
X788886Y-184950D01*
X789707Y-183880D01*
X790222Y-182635D01*
X790269Y-182283D01*
D02*
G37*
G36*
X825984D02*
X821935D01*
X821982Y-182635D01*
X822497Y-183880D01*
X823318Y-184950D01*
X824387Y-185770D01*
X825632Y-186286D01*
X825984Y-186332D01*
Y-182283D01*
D02*
G37*
G36*
X742519D02*
X738471D01*
X738517Y-182635D01*
X739033Y-183880D01*
X739853Y-184950D01*
X740922Y-185770D01*
X742168Y-186286D01*
X742519Y-186332D01*
Y-182283D01*
D02*
G37*
G36*
X857592D02*
X853544D01*
Y-186332D01*
X853895Y-186286D01*
X855141Y-185770D01*
X856210Y-184950D01*
X857030Y-183880D01*
X857546Y-182635D01*
X857592Y-182283D01*
D02*
G37*
G36*
X774128D02*
X770079D01*
Y-186332D01*
X770431Y-186286D01*
X771676Y-185770D01*
X772745Y-184950D01*
X773565Y-183880D01*
X774081Y-182635D01*
X774128Y-182283D01*
D02*
G37*
G36*
X851575D02*
X847527D01*
X847573Y-182635D01*
X848089Y-183880D01*
X848909Y-184950D01*
X849978Y-185770D01*
X851223Y-186286D01*
X851575Y-186332D01*
Y-182283D01*
D02*
G37*
G36*
X768111D02*
X764062D01*
X764109Y-182635D01*
X764624Y-183880D01*
X765445Y-184950D01*
X766514Y-185770D01*
X767759Y-186286D01*
X768111Y-186332D01*
Y-182283D01*
D02*
G37*
G36*
X832001D02*
X827952D01*
Y-186332D01*
X828304Y-186286D01*
X829549Y-185770D01*
X830618Y-184950D01*
X831439Y-183880D01*
X831954Y-182635D01*
X832001Y-182283D01*
D02*
G37*
G36*
X748536D02*
X744488D01*
Y-186332D01*
X744840Y-186286D01*
X746085Y-185770D01*
X747154Y-184950D01*
X747974Y-183880D01*
X748490Y-182635D01*
X748536Y-182283D01*
D02*
G37*
G36*
X784252D02*
X780203D01*
X780249Y-182635D01*
X780765Y-183880D01*
X781586Y-184950D01*
X782655Y-185770D01*
X783900Y-186286D01*
X784252Y-186332D01*
Y-182283D01*
D02*
G37*
G36*
X809843D02*
X805795D01*
X805841Y-182635D01*
X806357Y-183880D01*
X807177Y-184950D01*
X808246Y-185770D01*
X809491Y-186286D01*
X809843Y-186332D01*
Y-182283D01*
D02*
G37*
G36*
X844291Y-187402D02*
X835236D01*
Y-188756D01*
X818307D01*
X817588Y-188850D01*
X816917Y-189128D01*
X816342Y-189570D01*
X812211Y-193701D01*
X805512D01*
Y-196236D01*
X802151D01*
X802120Y-196232D01*
X802088Y-196236D01*
X789803D01*
X789027Y-195225D01*
X787917Y-194373D01*
X786624Y-193838D01*
X785236Y-193655D01*
X783849Y-193838D01*
X782556Y-194373D01*
X781446Y-195225D01*
X780594Y-196335D01*
X780058Y-197628D01*
X779875Y-199016D01*
X780058Y-200403D01*
X780594Y-201696D01*
X781446Y-202806D01*
X782556Y-203658D01*
X783849Y-204194D01*
X785236Y-204377D01*
X786624Y-204194D01*
X787917Y-203658D01*
X789027Y-202806D01*
X789803Y-201795D01*
X799386D01*
Y-204134D01*
X790551D01*
Y-205490D01*
X773819D01*
Y-204331D01*
X774409D01*
Y-193701D01*
X763779D01*
Y-196435D01*
X748188D01*
X748146Y-196335D01*
X747295Y-195225D01*
X746184Y-194373D01*
X744891Y-193838D01*
X743504Y-193655D01*
X742116Y-193838D01*
X740824Y-194373D01*
X739713Y-195225D01*
X738861Y-196335D01*
X738326Y-197628D01*
X738143Y-199016D01*
X738326Y-200403D01*
X738861Y-201696D01*
X739713Y-202806D01*
X740824Y-203658D01*
X742116Y-204194D01*
X743504Y-204377D01*
X744891Y-204194D01*
X746184Y-203658D01*
X747295Y-202806D01*
X748146Y-201696D01*
X748188Y-201597D01*
X763779D01*
Y-204331D01*
X764764D01*
Y-212970D01*
X762099D01*
X759460Y-210332D01*
X759424Y-210055D01*
X759106Y-209288D01*
X758601Y-208630D01*
X757943Y-208126D01*
X757177Y-207808D01*
X756355Y-207700D01*
X755533Y-207808D01*
X754767Y-208126D01*
X754109Y-208630D01*
X753604Y-209288D01*
X753287Y-210055D01*
X753178Y-210877D01*
X753287Y-211699D01*
X753604Y-212465D01*
X754109Y-213123D01*
X754767Y-213628D01*
X755533Y-213945D01*
X755810Y-213982D01*
X759204Y-217376D01*
X759739Y-217787D01*
X760361Y-218044D01*
X761029Y-218132D01*
X764764D01*
Y-219685D01*
X773228D01*
Y-219882D01*
X788976D01*
Y-218134D01*
X797635D01*
X798120Y-218619D01*
X798123Y-218641D01*
X798480Y-219503D01*
X799048Y-220244D01*
X799788Y-220812D01*
X800650Y-221169D01*
X801575Y-221290D01*
X802500Y-221169D01*
X803362Y-220812D01*
X804102Y-220244D01*
X804670Y-219503D01*
X805027Y-218641D01*
X805149Y-217717D01*
X805027Y-216792D01*
X804670Y-215930D01*
X804102Y-215189D01*
X803362Y-214621D01*
X802500Y-214264D01*
X801575Y-214143D01*
X801548Y-214146D01*
X801167Y-213721D01*
X801387Y-213189D01*
X806299D01*
Y-204331D01*
X816142D01*
Y-197632D01*
X819458Y-194315D01*
X823394D01*
X823594Y-194906D01*
X823178Y-195225D01*
X822326Y-196335D01*
X821790Y-197628D01*
X821608Y-199016D01*
X821790Y-200403D01*
X822326Y-201696D01*
X823178Y-202806D01*
X824288Y-203658D01*
X825581Y-204194D01*
X826968Y-204377D01*
X828356Y-204194D01*
X829649Y-203658D01*
X830759Y-202806D01*
X831535Y-201795D01*
X835236D01*
Y-203150D01*
X844291D01*
Y-201795D01*
X847244D01*
Y-204331D01*
X857874D01*
Y-193701D01*
X847244D01*
Y-196236D01*
X844291D01*
Y-195669D01*
Y-187402D01*
D02*
G37*
G36*
X747047Y-208269D02*
X744291D01*
Y-210631D01*
X747047D01*
Y-208269D01*
D02*
G37*
G36*
X742323D02*
X739567D01*
Y-210631D01*
X742323D01*
Y-208269D01*
D02*
G37*
G36*
X856929Y-219744D02*
X853780D01*
Y-222894D01*
X856929D01*
Y-219744D01*
D02*
G37*
G36*
X851811D02*
X848661D01*
Y-222894D01*
X851811D01*
Y-219744D01*
D02*
G37*
G36*
X856929Y-224862D02*
X853780D01*
Y-228012D01*
X856929D01*
Y-224862D01*
D02*
G37*
G36*
X851811D02*
X848661D01*
Y-228012D01*
X851811D01*
Y-224862D01*
D02*
G37*
G36*
X842795Y-219510D02*
X841665Y-219659D01*
X840611Y-220095D01*
X839707Y-220789D01*
X839012Y-221694D01*
X838576Y-222747D01*
X838427Y-223878D01*
X838576Y-225009D01*
X839012Y-226062D01*
X839707Y-226967D01*
X840611Y-227661D01*
X841665Y-228097D01*
X842795Y-228246D01*
X843926Y-228097D01*
X844979Y-227661D01*
X845884Y-226967D01*
X846578Y-226062D01*
X847015Y-225009D01*
X847163Y-223878D01*
X847015Y-222747D01*
X846578Y-221694D01*
X845884Y-220789D01*
X844979Y-220095D01*
X843926Y-219659D01*
X842795Y-219510D01*
D02*
G37*
G36*
X24500Y-222632D02*
X23370Y-222781D01*
X22316Y-223217D01*
X21411Y-223911D01*
X20717Y-224816D01*
X20281Y-225869D01*
X20132Y-227000D01*
X20281Y-228131D01*
X20717Y-229184D01*
X21411Y-230089D01*
X22316Y-230783D01*
X23370Y-231219D01*
X24500Y-231368D01*
X25631Y-231219D01*
X26684Y-230783D01*
X27589Y-230089D01*
X28283Y-229184D01*
X28719Y-228131D01*
X28868Y-227000D01*
X28719Y-225869D01*
X28283Y-224816D01*
X27589Y-223911D01*
X26684Y-223217D01*
X25631Y-222781D01*
X24500Y-222632D01*
D02*
G37*
G36*
X14500D02*
X13370Y-222781D01*
X12316Y-223217D01*
X11411Y-223911D01*
X10717Y-224816D01*
X10281Y-225869D01*
X10132Y-227000D01*
X10281Y-228131D01*
X10717Y-229184D01*
X11411Y-230089D01*
X12316Y-230783D01*
X13370Y-231219D01*
X14500Y-231368D01*
X15631Y-231219D01*
X16684Y-230783D01*
X17589Y-230089D01*
X18283Y-229184D01*
X18719Y-228131D01*
X18868Y-227000D01*
X18719Y-225869D01*
X18283Y-224816D01*
X17589Y-223911D01*
X16684Y-223217D01*
X15631Y-222781D01*
X14500Y-222632D01*
D02*
G37*
G36*
X24500Y-232632D02*
X23370Y-232781D01*
X22316Y-233217D01*
X21411Y-233911D01*
X20717Y-234816D01*
X20281Y-235870D01*
X20132Y-237000D01*
X20281Y-238130D01*
X20717Y-239184D01*
X21411Y-240089D01*
X22316Y-240783D01*
X23370Y-241219D01*
X24500Y-241368D01*
X25631Y-241219D01*
X26684Y-240783D01*
X27589Y-240089D01*
X28283Y-239184D01*
X28719Y-238130D01*
X28868Y-237000D01*
X28719Y-235870D01*
X28283Y-234816D01*
X27589Y-233911D01*
X26684Y-233217D01*
X25631Y-232781D01*
X24500Y-232632D01*
D02*
G37*
G36*
X14500D02*
X13370Y-232781D01*
X12316Y-233217D01*
X11411Y-233911D01*
X10717Y-234816D01*
X10281Y-235870D01*
X10132Y-237000D01*
X10281Y-238130D01*
X10717Y-239184D01*
X11411Y-240089D01*
X12316Y-240783D01*
X13370Y-241219D01*
X14500Y-241368D01*
X15631Y-241219D01*
X16684Y-240783D01*
X17589Y-240089D01*
X18283Y-239184D01*
X18719Y-238130D01*
X18868Y-237000D01*
X18719Y-235870D01*
X18283Y-234816D01*
X17589Y-233911D01*
X16684Y-233217D01*
X15631Y-232781D01*
X14500Y-232632D01*
D02*
G37*
G36*
X24500Y-242632D02*
X23370Y-242781D01*
X22316Y-243217D01*
X21411Y-243911D01*
X20717Y-244816D01*
X20281Y-245869D01*
X20132Y-247000D01*
X20281Y-248130D01*
X20717Y-249184D01*
X21411Y-250089D01*
X22316Y-250783D01*
X23370Y-251219D01*
X24500Y-251368D01*
X25631Y-251219D01*
X26684Y-250783D01*
X27589Y-250089D01*
X28283Y-249184D01*
X28719Y-248130D01*
X28868Y-247000D01*
X28719Y-245869D01*
X28283Y-244816D01*
X27589Y-243911D01*
X26684Y-243217D01*
X25631Y-242781D01*
X24500Y-242632D01*
D02*
G37*
G36*
X14500D02*
X13370Y-242781D01*
X12316Y-243217D01*
X11411Y-243911D01*
X10717Y-244816D01*
X10281Y-245869D01*
X10132Y-247000D01*
X10281Y-248130D01*
X10717Y-249184D01*
X11411Y-250089D01*
X12316Y-250783D01*
X13370Y-251219D01*
X14500Y-251368D01*
X15631Y-251219D01*
X16684Y-250783D01*
X17589Y-250089D01*
X18283Y-249184D01*
X18719Y-248130D01*
X18868Y-247000D01*
X18719Y-245869D01*
X18283Y-244816D01*
X17589Y-243911D01*
X16684Y-243217D01*
X15631Y-242781D01*
X14500Y-242632D01*
D02*
G37*
G36*
X860827Y-251967D02*
X858071D01*
Y-254329D01*
X860827D01*
Y-251967D01*
D02*
G37*
G36*
X856102D02*
X853347D01*
Y-254329D01*
X856102D01*
Y-251967D01*
D02*
G37*
G36*
X25484Y-252960D02*
Y-256016D01*
X28540D01*
X28527Y-255921D01*
X28111Y-254915D01*
X27448Y-254052D01*
X26585Y-253389D01*
X25579Y-252973D01*
X25484Y-252960D01*
D02*
G37*
G36*
X23516D02*
X23421Y-252973D01*
X22415Y-253389D01*
X21552Y-254052D01*
X20889Y-254915D01*
X20473Y-255921D01*
X20460Y-256016D01*
X23516D01*
Y-252960D01*
D02*
G37*
G36*
X28540Y-257984D02*
X25484D01*
Y-261040D01*
X25579Y-261027D01*
X26585Y-260611D01*
X27448Y-259948D01*
X28111Y-259085D01*
X28527Y-258079D01*
X28540Y-257984D01*
D02*
G37*
G36*
X23516D02*
X20460D01*
X20473Y-258079D01*
X20889Y-259085D01*
X21552Y-259948D01*
X22415Y-260611D01*
X23421Y-261027D01*
X23516Y-261040D01*
Y-257984D01*
D02*
G37*
G36*
X24500Y-262632D02*
X23370Y-262781D01*
X22316Y-263217D01*
X21411Y-263911D01*
X20717Y-264816D01*
X20281Y-265869D01*
X20132Y-267000D01*
X20281Y-268130D01*
X20717Y-269184D01*
X21411Y-270089D01*
X22316Y-270783D01*
X23370Y-271219D01*
X24500Y-271368D01*
X25631Y-271219D01*
X26684Y-270783D01*
X27589Y-270089D01*
X28283Y-269184D01*
X28719Y-268130D01*
X28868Y-267000D01*
X28719Y-265869D01*
X28283Y-264816D01*
X27589Y-263911D01*
X26684Y-263217D01*
X25631Y-262781D01*
X24500Y-262632D01*
D02*
G37*
G36*
X14500D02*
X13370Y-262781D01*
X12316Y-263217D01*
X11411Y-263911D01*
X10717Y-264816D01*
X10281Y-265869D01*
X10132Y-267000D01*
X10281Y-268130D01*
X10717Y-269184D01*
X11411Y-270089D01*
X12316Y-270783D01*
X13370Y-271219D01*
X14500Y-271368D01*
X15631Y-271219D01*
X16684Y-270783D01*
X17589Y-270089D01*
X18283Y-269184D01*
X18719Y-268130D01*
X18868Y-267000D01*
X18719Y-265869D01*
X18283Y-264816D01*
X17589Y-263911D01*
X16684Y-263217D01*
X15631Y-262781D01*
X14500Y-262632D01*
D02*
G37*
G36*
X766678Y-265715D02*
X766496Y-265726D01*
X766452Y-265728D01*
X765919Y-265798D01*
X762852Y-266202D01*
X759308Y-266988D01*
X755845Y-268079D01*
X752491Y-269469D01*
X749271Y-271145D01*
X746209Y-273096D01*
X743329Y-275306D01*
X740652Y-277759D01*
X738200Y-280435D01*
X735989Y-283315D01*
X734039Y-286377D01*
X732362Y-289598D01*
X730973Y-292952D01*
X729881Y-296414D01*
X729096Y-299959D01*
X728635Y-303455D01*
X728635Y-303455D01*
X728621Y-303644D01*
X728694Y-304008D01*
X728694Y-304008D01*
X728697Y-304023D01*
X728782Y-304454D01*
X729241Y-305140D01*
X729927Y-305599D01*
X730737Y-305760D01*
X730778Y-305751D01*
X730807Y-305757D01*
X734547D01*
X735357Y-305596D01*
X736043Y-305138D01*
X736502Y-304451D01*
X736622Y-303849D01*
X736623Y-303849D01*
X736663Y-303642D01*
X736658Y-303617D01*
X737101Y-300625D01*
X737903Y-297425D01*
X739015Y-294318D01*
X740425Y-291335D01*
X742122Y-288505D01*
X744088Y-285855D01*
X746303Y-283410D01*
X748748Y-281194D01*
X751399Y-279228D01*
X754229Y-277532D01*
X757212Y-276121D01*
X760318Y-275009D01*
X763519Y-274208D01*
X766623Y-273747D01*
X766732Y-273769D01*
X767542Y-273608D01*
X768228Y-273149D01*
X768687Y-272463D01*
X768848Y-271654D01*
Y-267913D01*
X768687Y-267104D01*
X768633Y-267023D01*
X768632Y-267021D01*
X768174Y-266335D01*
X767487Y-265876D01*
X766678Y-265715D01*
D02*
G37*
G36*
X665748Y-269069D02*
X664977Y-269170D01*
X664259Y-269468D01*
X663775Y-269840D01*
X293012D01*
X292167Y-270007D01*
X291451Y-270486D01*
X269263Y-292674D01*
X187791D01*
X186946Y-292842D01*
X186230Y-293321D01*
X179227Y-300324D01*
X178681Y-300098D01*
Y-298819D01*
X168133D01*
Y-296476D01*
X167965Y-295632D01*
X167486Y-294915D01*
X163333Y-290762D01*
X162617Y-290283D01*
X161772Y-290115D01*
X106457D01*
X105612Y-290283D01*
X104896Y-290762D01*
X101956Y-293701D01*
X98779D01*
Y-294488D01*
X98779D01*
Y-297244D01*
Y-300000D01*
X98779D01*
Y-300787D01*
X99328D01*
Y-303150D01*
X98779D01*
Y-310236D01*
X98918D01*
X99144Y-310782D01*
X92598Y-317328D01*
X69425D01*
X68580Y-317496D01*
X67864Y-317975D01*
X60940Y-324898D01*
X60786Y-324834D01*
X59563Y-324673D01*
X58340Y-324834D01*
X57201Y-325306D01*
X56222Y-326057D01*
X55471Y-327036D01*
X54999Y-328175D01*
X54838Y-329398D01*
X54999Y-330621D01*
X55471Y-331760D01*
X56222Y-332739D01*
X57201Y-333490D01*
X58340Y-333962D01*
X59156Y-334069D01*
X59392Y-334100D01*
Y-334696D01*
X59156Y-334727D01*
X58340Y-334834D01*
X57201Y-335306D01*
X56222Y-336057D01*
X55471Y-337036D01*
X54999Y-338175D01*
X54838Y-339398D01*
X54999Y-340621D01*
X55471Y-341760D01*
X56222Y-342739D01*
X57201Y-343490D01*
X58340Y-343962D01*
X59156Y-344069D01*
X59392Y-344100D01*
Y-344696D01*
X59156Y-344727D01*
X58340Y-344834D01*
X57201Y-345306D01*
X56222Y-346057D01*
X55471Y-347036D01*
X54999Y-348175D01*
X54838Y-349398D01*
X54999Y-350621D01*
X55471Y-351760D01*
X56222Y-352739D01*
X57201Y-353490D01*
X58340Y-353962D01*
X59563Y-354123D01*
X60786Y-353962D01*
X61925Y-353490D01*
X62904Y-352739D01*
X63655Y-351760D01*
X64127Y-350621D01*
X64288Y-349398D01*
X64127Y-348175D01*
X63655Y-347036D01*
X62904Y-346057D01*
X61925Y-345306D01*
X60786Y-344834D01*
X59970Y-344727D01*
X59734Y-344696D01*
Y-344100D01*
X59970Y-344069D01*
X60786Y-343962D01*
X61925Y-343490D01*
X62904Y-342739D01*
X63655Y-341760D01*
X64127Y-340621D01*
X64288Y-339398D01*
X64127Y-338175D01*
X63655Y-337036D01*
X62904Y-336057D01*
X61925Y-335306D01*
X60786Y-334834D01*
X59970Y-334727D01*
X59734Y-334696D01*
Y-334100D01*
X59970Y-334069D01*
X60786Y-333962D01*
X61925Y-333490D01*
X62904Y-332739D01*
X63655Y-331760D01*
X64127Y-330621D01*
X64288Y-329398D01*
X64127Y-328175D01*
X64063Y-328021D01*
X70340Y-321744D01*
X93512D01*
X94357Y-321576D01*
X95074Y-321097D01*
X104663Y-311507D01*
X108031D01*
X108876Y-311339D01*
X109593Y-310861D01*
X110071Y-310144D01*
X110239Y-309300D01*
Y-299452D01*
X111083D01*
Y-300787D01*
X119153D01*
Y-299452D01*
X121417D01*
Y-300787D01*
X126929D01*
Y-300000D01*
X126929D01*
Y-297244D01*
X128897D01*
Y-300000D01*
X128898D01*
Y-300787D01*
X129446D01*
Y-303150D01*
X128898D01*
Y-310236D01*
X134409D01*
Y-303150D01*
X133861D01*
Y-300787D01*
X134409D01*
Y-299452D01*
X138169D01*
Y-309842D01*
X138187D01*
Y-385151D01*
X137305Y-386033D01*
X136895Y-386568D01*
X136637Y-387190D01*
X136549Y-387858D01*
Y-399055D01*
X134602D01*
Y-407890D01*
X130834D01*
X128958Y-406014D01*
X128838Y-405102D01*
X128437Y-404132D01*
X127798Y-403300D01*
X126966Y-402662D01*
X125997Y-402260D01*
X124957Y-402123D01*
X123917Y-402260D01*
X122947Y-402662D01*
X122115Y-403300D01*
X121476Y-404132D01*
X121075Y-405102D01*
X120938Y-406142D01*
X121075Y-407182D01*
X121476Y-408151D01*
X122115Y-408983D01*
X122947Y-409622D01*
X123917Y-410023D01*
X124957Y-410160D01*
X125209Y-410127D01*
X127717Y-412635D01*
X128293Y-413077D01*
X128963Y-413354D01*
X129683Y-413449D01*
X134602D01*
Y-414803D01*
X143658D01*
Y-413449D01*
X146020D01*
Y-414803D01*
X155075D01*
Y-407323D01*
Y-405969D01*
X157467D01*
X169448Y-417950D01*
X170024Y-418392D01*
X170694Y-418669D01*
X171413Y-418764D01*
X185112D01*
X185831Y-418669D01*
X186502Y-418392D01*
X187077Y-417950D01*
X194877Y-410150D01*
X194954Y-410160D01*
X195994Y-410023D01*
X196964Y-409622D01*
X197796Y-408983D01*
X197843Y-408921D01*
X214327D01*
Y-410669D01*
X230075D01*
Y-409325D01*
X230665Y-409089D01*
X239527Y-417950D01*
X240102Y-418392D01*
X240773Y-418669D01*
X241492Y-418764D01*
X254810D01*
X255530Y-418669D01*
X256200Y-418392D01*
X256776Y-417950D01*
X264576Y-410150D01*
X264653Y-410160D01*
X265693Y-410023D01*
X266662Y-409622D01*
X267495Y-408983D01*
X268133Y-408151D01*
X268535Y-407182D01*
X268671Y-406142D01*
X268535Y-405102D01*
X268133Y-404132D01*
X267495Y-403300D01*
X266662Y-402662D01*
X265693Y-402260D01*
X264653Y-402123D01*
X263613Y-402260D01*
X262644Y-402662D01*
X261811Y-403300D01*
X261173Y-404132D01*
X260771Y-405102D01*
X260634Y-406142D01*
X260644Y-406219D01*
X253659Y-413205D01*
X242643D01*
X233615Y-404176D01*
X233039Y-403734D01*
X232369Y-403457D01*
X231650Y-403362D01*
X230075D01*
Y-401614D01*
X214327D01*
Y-403362D01*
X197843D01*
X197796Y-403300D01*
X196964Y-402662D01*
X195994Y-402260D01*
X194954Y-402123D01*
X193914Y-402260D01*
X192945Y-402662D01*
X192113Y-403300D01*
X191474Y-404132D01*
X191073Y-405102D01*
X190936Y-406142D01*
X190946Y-406219D01*
X183960Y-413205D01*
X172565D01*
X160584Y-401223D01*
X160008Y-400782D01*
X159337Y-400504D01*
X158618Y-400409D01*
X155075D01*
Y-399055D01*
X146020D01*
Y-407890D01*
X143658D01*
Y-399055D01*
X141711D01*
Y-388927D01*
X141837Y-388802D01*
X152516D01*
Y-390748D01*
X168264D01*
Y-385624D01*
X175675Y-378213D01*
X179111D01*
X179348Y-378522D01*
X180253Y-379216D01*
X181307Y-379652D01*
X182437Y-379801D01*
X183568Y-379652D01*
X184621Y-379216D01*
X185526Y-378522D01*
X185914Y-378016D01*
X362433D01*
Y-381693D01*
X361177D01*
Y-390748D01*
X370210D01*
Y-393150D01*
Y-399055D01*
X368461D01*
Y-407890D01*
X364917D01*
Y-399055D01*
X355862D01*
Y-400409D01*
X351925D01*
Y-399055D01*
X343884D01*
X343558Y-398465D01*
X343937Y-397549D01*
X343972Y-397284D01*
X340257D01*
Y-400998D01*
X340522Y-400963D01*
X341687Y-400481D01*
X342280Y-400026D01*
X342870Y-400318D01*
Y-407890D01*
X340229D01*
X338353Y-406014D01*
X338233Y-405102D01*
X337832Y-404132D01*
X337193Y-403300D01*
X336361Y-402662D01*
X335391Y-402260D01*
X334351Y-402123D01*
X333311Y-402260D01*
X332342Y-402662D01*
X331510Y-403300D01*
X330871Y-404132D01*
X330470Y-405102D01*
X330333Y-406142D01*
X330470Y-407182D01*
X330871Y-408151D01*
X331510Y-408983D01*
X332342Y-409622D01*
X333311Y-410023D01*
X334351Y-410160D01*
X334604Y-410127D01*
X337112Y-412635D01*
X337688Y-413077D01*
X338358Y-413354D01*
X339077Y-413449D01*
X342870D01*
Y-414803D01*
X351114D01*
Y-416098D01*
X351209Y-416818D01*
X351486Y-417488D01*
X351928Y-418064D01*
X355357Y-421493D01*
X355933Y-421935D01*
X356603Y-422213D01*
X357323Y-422307D01*
X460363D01*
X461082Y-422213D01*
X461753Y-421935D01*
X462328Y-421493D01*
X473671Y-410150D01*
X473748Y-410160D01*
X474789Y-410023D01*
X475758Y-409622D01*
X476590Y-408983D01*
X477229Y-408151D01*
X477630Y-407182D01*
X477767Y-406142D01*
X477630Y-405102D01*
X477229Y-404132D01*
X476590Y-403300D01*
X475758Y-402662D01*
X474789Y-402260D01*
X473748Y-402123D01*
X472708Y-402260D01*
X471739Y-402662D01*
X470907Y-403300D01*
X470268Y-404132D01*
X469867Y-405102D01*
X469730Y-406142D01*
X469740Y-406219D01*
X459211Y-416748D01*
X398974D01*
X398748Y-416202D01*
X404903Y-410048D01*
X405090Y-410023D01*
X406059Y-409622D01*
X406892Y-408983D01*
X407530Y-408151D01*
X407932Y-407182D01*
X408069Y-406142D01*
X407932Y-405102D01*
X407530Y-404132D01*
X406892Y-403300D01*
X406059Y-402662D01*
X405090Y-402260D01*
X404050Y-402123D01*
X403010Y-402260D01*
X402041Y-402662D01*
X401208Y-403300D01*
X400570Y-404132D01*
X400168Y-405102D01*
X400031Y-406142D01*
X400138Y-406951D01*
X393884Y-413205D01*
X379848D01*
X377516Y-410872D01*
Y-407323D01*
Y-399970D01*
X378106Y-399797D01*
X378998Y-400481D01*
X380162Y-400963D01*
X380428Y-400998D01*
Y-397284D01*
X376713D01*
X376748Y-397549D01*
X377127Y-398465D01*
X376800Y-399055D01*
X375373D01*
Y-393150D01*
Y-390748D01*
X376925D01*
Y-381693D01*
X375373D01*
Y-374162D01*
X375285Y-373494D01*
X375027Y-372871D01*
X374617Y-372337D01*
X370603Y-368324D01*
X370829Y-367778D01*
X540076D01*
X540297Y-367948D01*
X541064Y-368265D01*
X541886Y-368374D01*
X542708Y-368265D01*
X543474Y-367948D01*
X544132Y-367443D01*
X544637Y-366785D01*
X544954Y-366019D01*
X545063Y-365197D01*
X544954Y-364375D01*
X544637Y-363609D01*
X544132Y-362950D01*
X543474Y-362446D01*
X542708Y-362128D01*
X542260Y-362069D01*
X542299Y-361479D01*
X547510D01*
X556628Y-370597D01*
Y-381693D01*
X555512D01*
Y-390748D01*
X556628D01*
Y-391581D01*
X554720D01*
Y-399849D01*
Y-407329D01*
X554720D01*
X554686Y-407906D01*
X554555Y-408088D01*
X549044D01*
X547423Y-406467D01*
X547466Y-406142D01*
X547329Y-405102D01*
X546927Y-404132D01*
X546289Y-403300D01*
X545456Y-402662D01*
X544487Y-402260D01*
X543447Y-402123D01*
X542407Y-402260D01*
X541438Y-402662D01*
X540605Y-403300D01*
X539967Y-404132D01*
X539565Y-405102D01*
X539428Y-406142D01*
X539565Y-407182D01*
X539967Y-408151D01*
X540605Y-408983D01*
X541438Y-409622D01*
X542407Y-410023D01*
X543447Y-410160D01*
X543773Y-410117D01*
X546149Y-412494D01*
X546684Y-412905D01*
X547307Y-413163D01*
X547975Y-413250D01*
X555962D01*
X556630Y-413163D01*
X557252Y-412905D01*
X557787Y-412494D01*
X560536Y-409745D01*
X560946Y-409210D01*
X561204Y-408588D01*
X561292Y-407920D01*
Y-407329D01*
X563775D01*
Y-405773D01*
X565705D01*
Y-407323D01*
Y-414803D01*
X574760D01*
Y-413250D01*
X575941D01*
Y-414803D01*
X581346D01*
X584352Y-417809D01*
X584887Y-418220D01*
X585509Y-418477D01*
X586177Y-418565D01*
X603303D01*
X603971Y-418477D01*
X604594Y-418220D01*
X605128Y-417809D01*
X612820Y-410117D01*
X613146Y-410160D01*
X614186Y-410023D01*
X615155Y-409622D01*
X615987Y-408983D01*
X616626Y-408151D01*
X617027Y-407182D01*
X617164Y-406142D01*
X617027Y-405102D01*
X616626Y-404132D01*
X615987Y-403300D01*
X615155Y-402662D01*
X614186Y-402260D01*
X613146Y-402123D01*
X612106Y-402260D01*
X611136Y-402662D01*
X610304Y-403300D01*
X609665Y-404132D01*
X609264Y-405102D01*
X609127Y-406142D01*
X609170Y-406467D01*
X602234Y-413403D01*
X587246D01*
X584996Y-411153D01*
Y-407323D01*
Y-399055D01*
X582676D01*
Y-340229D01*
X606448Y-316458D01*
X606496Y-316464D01*
X607318Y-316356D01*
X608084Y-316039D01*
X608742Y-315534D01*
X609247Y-314876D01*
X609565Y-314110D01*
X609673Y-313287D01*
X609565Y-312465D01*
X609247Y-311699D01*
X608742Y-311041D01*
X608084Y-310536D01*
X607318Y-310219D01*
X606496Y-310111D01*
X605674Y-310219D01*
X604908Y-310536D01*
X604250Y-311041D01*
X603745Y-311699D01*
X603428Y-312465D01*
X603319Y-313287D01*
X603326Y-313336D01*
X578907Y-337754D01*
X578429Y-338470D01*
X578261Y-339315D01*
Y-399055D01*
X575941D01*
Y-407323D01*
Y-408088D01*
X574760D01*
Y-407323D01*
Y-399055D01*
X565705D01*
Y-400611D01*
X563775D01*
Y-399849D01*
Y-391581D01*
X561790D01*
Y-390748D01*
X571260D01*
Y-381693D01*
X569884D01*
Y-377209D01*
X570178Y-376826D01*
X570535Y-375964D01*
X570656Y-375039D01*
X570535Y-374114D01*
X570178Y-373252D01*
X569610Y-372512D01*
X568870Y-371944D01*
X568008Y-371587D01*
X567083Y-371465D01*
X566158Y-371587D01*
X565296Y-371944D01*
X564556Y-372512D01*
X563988Y-373252D01*
X563631Y-374114D01*
X563509Y-375039D01*
X563631Y-375964D01*
X563988Y-376826D01*
X564325Y-377266D01*
Y-381693D01*
X561790D01*
Y-369528D01*
X561702Y-368860D01*
X561444Y-368237D01*
X561034Y-367702D01*
X550404Y-357072D01*
X549869Y-356662D01*
X549247Y-356404D01*
X548579Y-356316D01*
X199648D01*
X158349Y-315018D01*
Y-309842D01*
X168717D01*
Y-310772D01*
X168886Y-311616D01*
X169364Y-312333D01*
X171033Y-314002D01*
X171750Y-314481D01*
X172594Y-314649D01*
X176925D01*
X177770Y-314481D01*
X178486Y-314002D01*
X192407Y-300082D01*
X270626D01*
X271471Y-299914D01*
X272187Y-299435D01*
X293037Y-278586D01*
X653539D01*
X654023Y-278957D01*
X654741Y-279255D01*
X655512Y-279356D01*
X656283Y-279255D01*
X657001Y-278957D01*
X657618Y-278484D01*
X658091Y-277867D01*
X658389Y-277149D01*
X658490Y-276378D01*
X658389Y-275607D01*
X658091Y-274889D01*
X658058Y-274846D01*
X658349Y-274255D01*
X663775D01*
X664259Y-274626D01*
X664977Y-274924D01*
X665748Y-275026D01*
X666519Y-274924D01*
X667237Y-274626D01*
X667854Y-274153D01*
X668327Y-273536D01*
X668625Y-272818D01*
X668726Y-272047D01*
X668625Y-271276D01*
X668327Y-270558D01*
X667854Y-269941D01*
X667237Y-269468D01*
X666519Y-269170D01*
X665748Y-269069D01*
D02*
G37*
G36*
X178681Y-277559D02*
X168169D01*
Y-277870D01*
X167894Y-278346D01*
X167579Y-278346D01*
X166909D01*
Y-283071D01*
Y-287795D01*
X167579D01*
X167894Y-287795D01*
X168169Y-288272D01*
Y-288583D01*
X178681D01*
Y-285851D01*
X181030D01*
X181441Y-286166D01*
X182303Y-286523D01*
X183228Y-286645D01*
X184153Y-286523D01*
X185015Y-286166D01*
X185755Y-285598D01*
X186323Y-284858D01*
X186680Y-283996D01*
X186802Y-283071D01*
X186680Y-282146D01*
X186323Y-281284D01*
X185755Y-280544D01*
X185015Y-279976D01*
X184153Y-279619D01*
X183228Y-279497D01*
X182303Y-279619D01*
X181441Y-279976D01*
X181030Y-280291D01*
X178681D01*
Y-277559D01*
D02*
G37*
G36*
X24500Y-272632D02*
X23370Y-272781D01*
X22316Y-273217D01*
X21411Y-273911D01*
X20717Y-274816D01*
X20281Y-275869D01*
X20132Y-277000D01*
X20281Y-278131D01*
X20717Y-279184D01*
X21411Y-280089D01*
X22316Y-280783D01*
X23370Y-281219D01*
X24500Y-281368D01*
X25631Y-281219D01*
X26684Y-280783D01*
X27589Y-280089D01*
X28283Y-279184D01*
X28719Y-278131D01*
X28868Y-277000D01*
X28719Y-275869D01*
X28283Y-274816D01*
X27589Y-273911D01*
X26684Y-273217D01*
X25631Y-272781D01*
X24500Y-272632D01*
D02*
G37*
G36*
X14500D02*
X13370Y-272781D01*
X12316Y-273217D01*
X11411Y-273911D01*
X10717Y-274816D01*
X10281Y-275869D01*
X10132Y-277000D01*
X10281Y-278131D01*
X10717Y-279184D01*
X11411Y-280089D01*
X12316Y-280783D01*
X13370Y-281219D01*
X14500Y-281368D01*
X15631Y-281219D01*
X16684Y-280783D01*
X17589Y-280089D01*
X18283Y-279184D01*
X18719Y-278131D01*
X18868Y-277000D01*
X18719Y-275869D01*
X18283Y-274816D01*
X17589Y-273911D01*
X16684Y-273217D01*
X15631Y-272781D01*
X14500Y-272632D01*
D02*
G37*
G36*
X231850Y-277402D02*
X226142D01*
Y-281535D01*
X231850D01*
Y-277402D01*
D02*
G37*
G36*
X224173D02*
X218465D01*
Y-281535D01*
X224173D01*
Y-277402D01*
D02*
G37*
G36*
X139941Y-278346D02*
X138957D01*
Y-282087D01*
X139941D01*
Y-278346D01*
D02*
G37*
G36*
X231850Y-283504D02*
X226142D01*
Y-287638D01*
X231850D01*
Y-283504D01*
D02*
G37*
G36*
X224173D02*
X218465D01*
Y-287638D01*
X224173D01*
Y-283504D01*
D02*
G37*
G36*
X139941Y-284055D02*
X138957D01*
Y-287795D01*
X139941D01*
Y-284055D01*
D02*
G37*
G36*
X24500Y-282632D02*
X23370Y-282781D01*
X22316Y-283217D01*
X21411Y-283911D01*
X20717Y-284816D01*
X20281Y-285870D01*
X20132Y-287000D01*
X20281Y-288130D01*
X20717Y-289184D01*
X21411Y-290089D01*
X22316Y-290783D01*
X23370Y-291219D01*
X24500Y-291368D01*
X25631Y-291219D01*
X26684Y-290783D01*
X27589Y-290089D01*
X28283Y-289184D01*
X28719Y-288130D01*
X28868Y-287000D01*
X28719Y-285870D01*
X28283Y-284816D01*
X27589Y-283911D01*
X26684Y-283217D01*
X25631Y-282781D01*
X24500Y-282632D01*
D02*
G37*
G36*
X96811Y-293701D02*
X91299D01*
Y-295036D01*
X89232D01*
Y-293701D01*
X81161D01*
Y-295036D01*
X77953D01*
X77108Y-295204D01*
X76392Y-295683D01*
X48002Y-324073D01*
X47523Y-324789D01*
X47355Y-325634D01*
Y-330242D01*
X47201Y-330306D01*
X46222Y-331057D01*
X45471Y-332036D01*
X44999Y-333175D01*
X44838Y-334398D01*
X44999Y-335621D01*
X45471Y-336760D01*
X46222Y-337739D01*
X47201Y-338490D01*
X48340Y-338962D01*
X49563Y-339123D01*
X50786Y-338962D01*
X51925Y-338490D01*
X52904Y-337739D01*
X53655Y-336760D01*
X54127Y-335621D01*
X54288Y-334398D01*
X54127Y-333175D01*
X53655Y-332036D01*
X52904Y-331057D01*
X51925Y-330306D01*
X51771Y-330242D01*
Y-326548D01*
X78867Y-299452D01*
X81161D01*
Y-300787D01*
X89232D01*
Y-299452D01*
X91299D01*
Y-300787D01*
X96811D01*
Y-300000D01*
X96811D01*
Y-297244D01*
Y-294488D01*
X96811D01*
Y-293701D01*
D02*
G37*
G36*
X25484Y-292960D02*
Y-296016D01*
X28540D01*
X28527Y-295921D01*
X28111Y-294915D01*
X27448Y-294052D01*
X26585Y-293389D01*
X25579Y-292973D01*
X25484Y-292960D01*
D02*
G37*
G36*
X23516D02*
X23421Y-292973D01*
X22415Y-293389D01*
X21552Y-294052D01*
X20889Y-294915D01*
X20473Y-295921D01*
X20460Y-296016D01*
X23516D01*
Y-292960D01*
D02*
G37*
G36*
X28540Y-297984D02*
X25484D01*
Y-301040D01*
X25579Y-301027D01*
X26585Y-300611D01*
X27448Y-299948D01*
X28111Y-299085D01*
X28527Y-298079D01*
X28540Y-297984D01*
D02*
G37*
G36*
X23516D02*
X20460D01*
X20473Y-298079D01*
X20889Y-299085D01*
X21552Y-299948D01*
X22415Y-300611D01*
X23421Y-301027D01*
X23516Y-301040D01*
Y-297984D01*
D02*
G37*
G36*
X773647Y-265717D02*
X773287Y-265789D01*
X772838Y-265878D01*
X772152Y-266336D01*
X771693Y-267023D01*
X771681Y-267084D01*
X771668Y-267104D01*
X771507Y-267913D01*
Y-271654D01*
X771513Y-271687D01*
X771513Y-271689D01*
X771674Y-272499D01*
X772132Y-273185D01*
X772819Y-273644D01*
X773421Y-273763D01*
X773421Y-273766D01*
X776631Y-274242D01*
X779829Y-275043D01*
X782933Y-276153D01*
X785912Y-277563D01*
X788739Y-279257D01*
X791387Y-281221D01*
X793829Y-283434D01*
X796043Y-285877D01*
X798007Y-288524D01*
X799701Y-291352D01*
X801110Y-294331D01*
X802221Y-297435D01*
X803022Y-300632D01*
X803493Y-303807D01*
X803497Y-303807D01*
X803616Y-304407D01*
X804075Y-305093D01*
X804092Y-305105D01*
X804114Y-305138D01*
X804801Y-305596D01*
X805610Y-305757D01*
X809350Y-305757D01*
X809410Y-305745D01*
X809433Y-305750D01*
X810243Y-305589D01*
X810929Y-305130D01*
X811387Y-304444D01*
X811473Y-304012D01*
X811476Y-303998D01*
X811476Y-303998D01*
X811549Y-303634D01*
X811534Y-303445D01*
X811534D01*
X811075Y-299956D01*
X810289Y-296411D01*
X809197Y-292947D01*
X807807Y-289592D01*
X806130Y-286371D01*
X804179Y-283308D01*
X801968Y-280427D01*
X799515Y-277749D01*
X796837Y-275296D01*
X793956Y-273085D01*
X790893Y-271134D01*
X787672Y-269457D01*
X784316Y-268067D01*
X780853Y-266975D01*
X777308Y-266189D01*
X773838Y-265732D01*
Y-265732D01*
X773647Y-265717D01*
D02*
G37*
G36*
X119153Y-301575D02*
X111083D01*
Y-308661D01*
X111654D01*
X112046Y-309252D01*
X111969Y-309842D01*
X112077Y-310665D01*
X112394Y-311431D01*
X112899Y-312089D01*
X113557Y-312594D01*
X114323Y-312911D01*
X115145Y-313019D01*
X115968Y-312911D01*
X116734Y-312594D01*
X117392Y-312089D01*
X117896Y-311431D01*
X118214Y-310665D01*
X118322Y-309842D01*
X118647Y-309473D01*
X121417D01*
Y-310236D01*
X126929D01*
Y-306873D01*
X126953Y-306693D01*
X126929Y-306512D01*
Y-303150D01*
X121417D01*
Y-303913D01*
X119153D01*
Y-301575D01*
D02*
G37*
G36*
X89232D02*
X81161D01*
Y-308661D01*
X81705D01*
X82098Y-309252D01*
X82020Y-309842D01*
X82128Y-310665D01*
X82446Y-311431D01*
X82951Y-312089D01*
X83609Y-312594D01*
X84375Y-312911D01*
X85197Y-313019D01*
X86019Y-312911D01*
X86785Y-312594D01*
X87443Y-312089D01*
X87948Y-311431D01*
X88265Y-310665D01*
X88374Y-309842D01*
X88698Y-309473D01*
X91299D01*
Y-310236D01*
X96811D01*
Y-306873D01*
X96835Y-306693D01*
Y-305906D01*
X96811Y-305725D01*
Y-303150D01*
X94236D01*
X94055Y-303126D01*
X93874Y-303150D01*
X91299D01*
Y-303913D01*
X89232D01*
Y-301575D01*
D02*
G37*
G36*
X24563Y-314283D02*
X23077Y-314429D01*
X21649Y-314862D01*
X20332Y-315566D01*
X19178Y-316513D01*
X18231Y-317667D01*
X17527Y-318984D01*
X17094Y-320412D01*
X16948Y-321898D01*
X17094Y-323384D01*
X17527Y-324812D01*
X18231Y-326129D01*
X19178Y-327283D01*
X20332Y-328230D01*
X21649Y-328934D01*
X23077Y-329367D01*
X24563Y-329514D01*
X26049Y-329367D01*
X27477Y-328934D01*
X28794Y-328230D01*
X29948Y-327283D01*
X30895Y-326129D01*
X31599Y-324812D01*
X32032Y-323384D01*
X32178Y-321898D01*
X32032Y-320412D01*
X31599Y-318984D01*
X30895Y-317667D01*
X29948Y-316513D01*
X28794Y-315566D01*
X27477Y-314862D01*
X26049Y-314429D01*
X24563Y-314283D01*
D02*
G37*
G36*
X770079Y-284005D02*
X767053Y-284204D01*
X764079Y-284795D01*
X761208Y-285770D01*
X758489Y-287111D01*
X755968Y-288795D01*
X753688Y-290795D01*
X751689Y-293074D01*
X750005Y-295595D01*
X748664Y-298315D01*
X747689Y-301186D01*
X747097Y-304159D01*
X746899Y-307185D01*
X747097Y-310211D01*
X747689Y-313184D01*
X748664Y-316055D01*
X750005Y-318775D01*
X751689Y-321296D01*
X753688Y-323575D01*
X755968Y-325575D01*
X758489Y-327259D01*
X761208Y-328600D01*
X764079Y-329575D01*
X767053Y-330166D01*
X770079Y-330365D01*
X773104Y-330166D01*
X776078Y-329575D01*
X778949Y-328600D01*
X781669Y-327259D01*
X784190Y-325575D01*
X786469Y-323575D01*
X788468Y-321296D01*
X790153Y-318775D01*
X791494Y-316055D01*
X792469Y-313184D01*
X793060Y-310211D01*
X793258Y-307185D01*
X793060Y-304159D01*
X792469Y-301186D01*
X791494Y-298315D01*
X790153Y-295595D01*
X788468Y-293074D01*
X786469Y-290795D01*
X784190Y-288795D01*
X781669Y-287111D01*
X778949Y-285770D01*
X776078Y-284795D01*
X773104Y-284204D01*
X770079Y-284005D01*
D02*
G37*
G36*
X50547Y-340002D02*
Y-343414D01*
X53960D01*
X53935Y-343227D01*
X53483Y-342135D01*
X52763Y-341198D01*
X51826Y-340478D01*
X50734Y-340026D01*
X50547Y-340002D01*
D02*
G37*
G36*
X48579Y-340002D02*
X48392Y-340026D01*
X47300Y-340478D01*
X46363Y-341198D01*
X45643Y-342135D01*
X45191Y-343227D01*
X45166Y-343414D01*
X48579D01*
Y-340002D01*
D02*
G37*
G36*
X809252Y-308415D02*
X805610D01*
X804801Y-308576D01*
X804114Y-309035D01*
X803656Y-309721D01*
X803495Y-310531D01*
X803506Y-310588D01*
X803039Y-313741D01*
X802237Y-316940D01*
X801126Y-320045D01*
X799716Y-323027D01*
X798021Y-325855D01*
X796056Y-328504D01*
X793841Y-330948D01*
X791398Y-333162D01*
X788749Y-335127D01*
X785920Y-336822D01*
X782939Y-338232D01*
X779834Y-339344D01*
X776635Y-340145D01*
X773586Y-340597D01*
X773587Y-340608D01*
X772995Y-340725D01*
X772309Y-341184D01*
X771850Y-341870D01*
X771848Y-341883D01*
X771766Y-342005D01*
X771605Y-342815D01*
Y-346457D01*
X771766Y-347266D01*
X772225Y-347953D01*
X772911Y-348411D01*
X772919Y-348413D01*
X772995Y-348463D01*
X773433Y-348551D01*
X773447Y-348553D01*
X773447Y-348553D01*
X773804Y-348624D01*
X774003Y-348602D01*
Y-348602D01*
X777305Y-348167D01*
X780849Y-347381D01*
X784312Y-346290D01*
X787666Y-344900D01*
X790886Y-343224D01*
X793948Y-341273D01*
X796828Y-339064D01*
X799505Y-336611D01*
X801957Y-333934D01*
X804167Y-331054D01*
X806118Y-327992D01*
X807794Y-324772D01*
X809183Y-321418D01*
X810275Y-317956D01*
X811061Y-314411D01*
X811534Y-310821D01*
X811534Y-310821D01*
X811543Y-310637D01*
X811470Y-310269D01*
X811470Y-310269D01*
X811467Y-310255D01*
X811382Y-309827D01*
X810923Y-309141D01*
X810237Y-308682D01*
X810213Y-308677D01*
X810061Y-308576D01*
X809252Y-308415D01*
D02*
G37*
G36*
X730706Y-308408D02*
X729896Y-308569D01*
X729210Y-309028D01*
X728752Y-309714D01*
X728590Y-310523D01*
X728604Y-310702D01*
X728609Y-310813D01*
X728670Y-311281D01*
X729083Y-314414D01*
X729869Y-317959D01*
X730961Y-321423D01*
X732351Y-324778D01*
X734027Y-327999D01*
X735979Y-331062D01*
X738190Y-333943D01*
X740643Y-336621D01*
X743321Y-339074D01*
X746202Y-341285D01*
X749264Y-343236D01*
X752486Y-344913D01*
X755841Y-346303D01*
X759305Y-347395D01*
X762850Y-348181D01*
X765949Y-348589D01*
X766451Y-348655D01*
X766536Y-348659D01*
X766715Y-348671D01*
X767525Y-348510D01*
X768211Y-348052D01*
X768670Y-347365D01*
X768831Y-346556D01*
X768829Y-346549D01*
X768848Y-346457D01*
Y-342815D01*
X768845Y-342801D01*
X768853Y-342761D01*
X768692Y-341951D01*
X768233Y-341265D01*
X767547Y-340806D01*
X766932Y-340684D01*
X766933Y-340678D01*
X766781Y-340671D01*
X763514Y-340186D01*
X760311Y-339384D01*
X757202Y-338272D01*
X754217Y-336860D01*
X751385Y-335162D01*
X748733Y-333195D01*
X746286Y-330978D01*
X744069Y-328531D01*
X742102Y-325879D01*
X740404Y-323046D01*
X738992Y-320061D01*
X737880Y-316952D01*
X737077Y-313749D01*
X736593Y-310483D01*
X736589Y-310405D01*
X736586Y-310405D01*
X736465Y-309795D01*
X736006Y-309109D01*
X735984Y-309094D01*
X735945Y-309036D01*
X735258Y-308577D01*
X734449Y-308416D01*
X730747D01*
X730706Y-308408D01*
D02*
G37*
G36*
X53960Y-345382D02*
X50547D01*
Y-348795D01*
X50734Y-348770D01*
X51826Y-348318D01*
X52763Y-347599D01*
X53483Y-346661D01*
X53935Y-345569D01*
X53960Y-345382D01*
D02*
G37*
G36*
X48579D02*
X45166D01*
X45191Y-345569D01*
X45643Y-346661D01*
X46363Y-347599D01*
X47300Y-348318D01*
X48392Y-348770D01*
X48579Y-348795D01*
Y-345382D01*
D02*
G37*
G36*
X61910Y-361811D02*
X59646D01*
Y-363583D01*
X61910D01*
Y-361811D01*
D02*
G37*
G36*
X57677D02*
X55413D01*
Y-363583D01*
X57677D01*
Y-361811D01*
D02*
G37*
G36*
X61910Y-365551D02*
X59646D01*
Y-367323D01*
X61910D01*
Y-365551D01*
D02*
G37*
G36*
X57677D02*
X55413D01*
Y-367323D01*
X57677D01*
Y-365551D01*
D02*
G37*
G36*
X49563Y-349673D02*
X48340Y-349834D01*
X47201Y-350306D01*
X46222Y-351057D01*
X45471Y-352036D01*
X44999Y-353175D01*
X44838Y-354398D01*
X44999Y-355621D01*
X45471Y-356760D01*
X46222Y-357739D01*
X47003Y-358338D01*
Y-361024D01*
X45571D01*
Y-368110D01*
X53642D01*
Y-361024D01*
X52166D01*
Y-358305D01*
X52904Y-357739D01*
X53655Y-356760D01*
X54127Y-355621D01*
X54288Y-354398D01*
X54127Y-353175D01*
X53655Y-352036D01*
X52904Y-351057D01*
X51925Y-350306D01*
X50786Y-349834D01*
X49563Y-349673D01*
D02*
G37*
G36*
X24563Y-354283D02*
X23077Y-354429D01*
X21649Y-354862D01*
X20332Y-355566D01*
X19178Y-356513D01*
X18231Y-357667D01*
X17527Y-358984D01*
X17094Y-360412D01*
X16948Y-361898D01*
X17094Y-363384D01*
X17527Y-364812D01*
X18231Y-366129D01*
X19178Y-367283D01*
X20332Y-368230D01*
X21649Y-368934D01*
X23077Y-369367D01*
X24563Y-369514D01*
X26049Y-369367D01*
X27477Y-368934D01*
X28794Y-368230D01*
X29948Y-367283D01*
X30895Y-366129D01*
X31599Y-364812D01*
X32032Y-363384D01*
X32178Y-361898D01*
X32032Y-360412D01*
X31599Y-358984D01*
X30895Y-357667D01*
X29948Y-356513D01*
X28794Y-355566D01*
X27477Y-354862D01*
X26049Y-354429D01*
X24563Y-354283D01*
D02*
G37*
G36*
X62697Y-368898D02*
X54626D01*
Y-369860D01*
X53642D01*
Y-368898D01*
X45571D01*
Y-375984D01*
X53642D01*
Y-375022D01*
X54626D01*
Y-375984D01*
X58555D01*
X73561Y-390990D01*
Y-415420D01*
X73053Y-415809D01*
X72359Y-416714D01*
X71922Y-417767D01*
X71774Y-418898D01*
X71922Y-420028D01*
X72359Y-421082D01*
X73053Y-421986D01*
X73958Y-422681D01*
X75011Y-423117D01*
X76142Y-423266D01*
X77272Y-423117D01*
X78326Y-422681D01*
X79230Y-421986D01*
X79925Y-421082D01*
X80361Y-420028D01*
X80510Y-418898D01*
X80361Y-417767D01*
X79925Y-416714D01*
X79230Y-415809D01*
X78723Y-415420D01*
Y-389921D01*
X78635Y-389253D01*
X78377Y-388631D01*
X77967Y-388096D01*
X62697Y-372826D01*
Y-368898D01*
D02*
G37*
G36*
X591492Y-391600D02*
Y-395315D01*
X595207D01*
X595172Y-395049D01*
X594690Y-393885D01*
X593922Y-392885D01*
X592922Y-392117D01*
X591758Y-391635D01*
X591492Y-391600D01*
D02*
G37*
G36*
X521794D02*
Y-395315D01*
X525508D01*
X525473Y-395049D01*
X524991Y-393885D01*
X524224Y-392885D01*
X523224Y-392117D01*
X522059Y-391635D01*
X521794Y-391600D01*
D02*
G37*
G36*
X452095D02*
Y-395315D01*
X455810D01*
X455775Y-395049D01*
X455293Y-393885D01*
X454525Y-392885D01*
X453525Y-392117D01*
X452360Y-391635D01*
X452095Y-391600D01*
D02*
G37*
G36*
X619051D02*
Y-395315D01*
X622766D01*
X622731Y-395049D01*
X622249Y-393885D01*
X621481Y-392885D01*
X620481Y-392117D01*
X619317Y-391635D01*
X619051Y-391600D01*
D02*
G37*
G36*
X130862D02*
Y-395315D01*
X134577D01*
X134542Y-395049D01*
X134060Y-393885D01*
X133292Y-392885D01*
X132292Y-392117D01*
X131128Y-391635D01*
X130862Y-391600D01*
D02*
G37*
G36*
X340257D02*
Y-395315D01*
X343972D01*
X343937Y-395049D01*
X343455Y-393885D01*
X342687Y-392885D01*
X341687Y-392117D01*
X340522Y-391635D01*
X340257Y-391600D01*
D02*
G37*
G36*
X173301D02*
Y-395315D01*
X177016D01*
X176981Y-395049D01*
X176498Y-393885D01*
X175731Y-392885D01*
X174731Y-392117D01*
X173566Y-391635D01*
X173301Y-391600D01*
D02*
G37*
G36*
X382396D02*
Y-395315D01*
X386111D01*
X386076Y-395049D01*
X385594Y-393885D01*
X384827Y-392885D01*
X383826Y-392117D01*
X382662Y-391635D01*
X382396Y-391600D01*
D02*
G37*
G36*
X549353D02*
Y-395315D01*
X553067D01*
X553032Y-395049D01*
X552550Y-393885D01*
X551783Y-392885D01*
X550783Y-392117D01*
X549618Y-391635D01*
X549353Y-391600D01*
D02*
G37*
G36*
X270558D02*
Y-395315D01*
X274273D01*
X274238Y-395049D01*
X273756Y-393885D01*
X272989Y-392885D01*
X271989Y-392117D01*
X270824Y-391635D01*
X270558Y-391600D01*
D02*
G37*
G36*
X312698Y-391600D02*
Y-395315D01*
X316413D01*
X316378Y-395049D01*
X315895Y-393885D01*
X315128Y-392885D01*
X314128Y-392117D01*
X312963Y-391635D01*
X312698Y-391600D01*
D02*
G37*
G36*
X200860D02*
Y-395315D01*
X204575D01*
X204540Y-395049D01*
X204057Y-393885D01*
X203290Y-392885D01*
X202290Y-392117D01*
X201125Y-391635D01*
X200860Y-391600D01*
D02*
G37*
G36*
X479654D02*
Y-395315D01*
X483369D01*
X483334Y-395049D01*
X482852Y-393885D01*
X482084Y-392885D01*
X481084Y-392117D01*
X479919Y-391635D01*
X479654Y-391600D01*
D02*
G37*
G36*
X103303D02*
Y-395315D01*
X107018D01*
X106983Y-395049D01*
X106501Y-393885D01*
X105733Y-392885D01*
X104733Y-392117D01*
X103569Y-391635D01*
X103303Y-391600D01*
D02*
G37*
G36*
X242999D02*
Y-395315D01*
X246714D01*
X246679Y-395049D01*
X246197Y-393885D01*
X245429Y-392885D01*
X244429Y-392117D01*
X243265Y-391635D01*
X242999Y-391600D01*
D02*
G37*
G36*
X409955D02*
Y-395315D01*
X413670D01*
X413635Y-395049D01*
X413153Y-393885D01*
X412386Y-392885D01*
X411386Y-392117D01*
X410221Y-391635D01*
X409955Y-391600D01*
D02*
G37*
G36*
X241031Y-391600D02*
X240765Y-391635D01*
X239601Y-392117D01*
X238601Y-392885D01*
X237833Y-393885D01*
X237351Y-395049D01*
X237316Y-395315D01*
X241031D01*
Y-391600D01*
D02*
G37*
G36*
X407987D02*
X407722Y-391635D01*
X406557Y-392117D01*
X405557Y-392885D01*
X404789Y-393885D01*
X404307Y-395049D01*
X404272Y-395315D01*
X407987D01*
Y-391600D01*
D02*
G37*
G36*
X310729D02*
X310464Y-391635D01*
X309299Y-392117D01*
X308299Y-392885D01*
X307532Y-393885D01*
X307049Y-395049D01*
X307014Y-395315D01*
X310729D01*
Y-391600D01*
D02*
G37*
G36*
X198891D02*
X198626Y-391635D01*
X197461Y-392117D01*
X196461Y-392885D01*
X195694Y-393885D01*
X195211Y-395049D01*
X195176Y-395315D01*
X198891D01*
Y-391600D01*
D02*
G37*
G36*
X477685D02*
X477420Y-391635D01*
X476255Y-392117D01*
X475255Y-392885D01*
X474488Y-393885D01*
X474006Y-395049D01*
X473971Y-395315D01*
X477685D01*
Y-391600D01*
D02*
G37*
G36*
X101335D02*
X101069Y-391635D01*
X99905Y-392117D01*
X98905Y-392885D01*
X98137Y-393885D01*
X97655Y-395049D01*
X97620Y-395315D01*
X101335D01*
Y-391600D01*
D02*
G37*
G36*
X380428D02*
X380162Y-391635D01*
X378998Y-392117D01*
X377998Y-392885D01*
X377230Y-393885D01*
X376748Y-395049D01*
X376713Y-395315D01*
X380428D01*
Y-391600D01*
D02*
G37*
G36*
X268590D02*
X268324Y-391635D01*
X267160Y-392117D01*
X266160Y-392885D01*
X265392Y-393885D01*
X264910Y-395049D01*
X264875Y-395315D01*
X268590D01*
Y-391600D01*
D02*
G37*
G36*
X547384D02*
X547119Y-391635D01*
X545954Y-392117D01*
X544954Y-392885D01*
X544186Y-393885D01*
X543704Y-395049D01*
X543669Y-395315D01*
X547384D01*
Y-391600D01*
D02*
G37*
G36*
X450127Y-391600D02*
X449861Y-391635D01*
X448696Y-392117D01*
X447696Y-392885D01*
X446929Y-393885D01*
X446447Y-395049D01*
X446412Y-395315D01*
X450127D01*
Y-391600D01*
D02*
G37*
G36*
X617083D02*
X616817Y-391635D01*
X615653Y-392117D01*
X614652Y-392885D01*
X613885Y-393885D01*
X613403Y-395049D01*
X613368Y-395315D01*
X617083D01*
Y-391600D01*
D02*
G37*
G36*
X128894D02*
X128628Y-391635D01*
X127464Y-392117D01*
X126463Y-392885D01*
X125696Y-393885D01*
X125214Y-395049D01*
X125179Y-395315D01*
X128894D01*
Y-391600D01*
D02*
G37*
G36*
X171332D02*
X171067Y-391635D01*
X169902Y-392117D01*
X168902Y-392885D01*
X168135Y-393885D01*
X167652Y-395049D01*
X167617Y-395315D01*
X171332D01*
Y-391600D01*
D02*
G37*
G36*
X338288D02*
X338023Y-391635D01*
X336858Y-392117D01*
X335858Y-392885D01*
X335091Y-393885D01*
X334609Y-395049D01*
X334574Y-395315D01*
X338288D01*
Y-391600D01*
D02*
G37*
G36*
X519825D02*
X519559Y-391635D01*
X518395Y-392117D01*
X517395Y-392885D01*
X516628Y-393885D01*
X516145Y-395049D01*
X516110Y-395315D01*
X519825D01*
Y-391600D01*
D02*
G37*
G36*
X589524D02*
X589258Y-391635D01*
X588094Y-392117D01*
X587093Y-392885D01*
X586326Y-393885D01*
X585844Y-395049D01*
X585809Y-395315D01*
X589524D01*
Y-391600D01*
D02*
G37*
G36*
X595207Y-397284D02*
X591492D01*
Y-400998D01*
X591758Y-400963D01*
X592922Y-400481D01*
X593922Y-399714D01*
X594690Y-398714D01*
X595172Y-397549D01*
X595207Y-397284D01*
D02*
G37*
G36*
X525508D02*
X521794D01*
Y-400998D01*
X522059Y-400963D01*
X523224Y-400481D01*
X524224Y-399714D01*
X524991Y-398714D01*
X525473Y-397549D01*
X525508Y-397284D01*
D02*
G37*
G36*
X407987D02*
X404272D01*
X404307Y-397549D01*
X404789Y-398714D01*
X405557Y-399714D01*
X406557Y-400481D01*
X407722Y-400963D01*
X407987Y-400998D01*
Y-397284D01*
D02*
G37*
G36*
X241031D02*
X237316D01*
X237351Y-397549D01*
X237833Y-398714D01*
X238601Y-399714D01*
X239601Y-400481D01*
X240765Y-400963D01*
X241031Y-400998D01*
Y-397284D01*
D02*
G37*
G36*
X177016D02*
X173301D01*
Y-400998D01*
X173566Y-400963D01*
X174731Y-400481D01*
X175731Y-399714D01*
X176498Y-398714D01*
X176981Y-397549D01*
X177016Y-397284D01*
D02*
G37*
G36*
X134577D02*
X130862D01*
Y-400998D01*
X131128Y-400963D01*
X132292Y-400481D01*
X133292Y-399714D01*
X134060Y-398714D01*
X134542Y-397549D01*
X134577Y-397284D01*
D02*
G37*
G36*
X622766D02*
X619051D01*
Y-400998D01*
X619317Y-400963D01*
X620481Y-400481D01*
X621481Y-399714D01*
X622249Y-398714D01*
X622731Y-397549D01*
X622766Y-397284D01*
D02*
G37*
G36*
X455810D02*
X452095D01*
Y-400998D01*
X452360Y-400963D01*
X453525Y-400481D01*
X454525Y-399714D01*
X455293Y-398714D01*
X455775Y-397549D01*
X455810Y-397284D01*
D02*
G37*
G36*
X477685D02*
X473971D01*
X474006Y-397549D01*
X474488Y-398714D01*
X475255Y-399714D01*
X476255Y-400481D01*
X477420Y-400963D01*
X477685Y-400998D01*
Y-397284D01*
D02*
G37*
G36*
X310729D02*
X307014D01*
X307049Y-397549D01*
X307532Y-398714D01*
X308299Y-399714D01*
X309299Y-400481D01*
X310464Y-400963D01*
X310729Y-400998D01*
Y-397284D01*
D02*
G37*
G36*
X198891D02*
X195176D01*
X195211Y-397549D01*
X195694Y-398714D01*
X196461Y-399714D01*
X197461Y-400481D01*
X198626Y-400963D01*
X198891Y-400998D01*
Y-397284D01*
D02*
G37*
G36*
X101335D02*
X97620D01*
X97655Y-397549D01*
X98137Y-398714D01*
X98905Y-399714D01*
X99905Y-400481D01*
X101069Y-400963D01*
X101335Y-400998D01*
Y-397284D01*
D02*
G37*
G36*
X274273D02*
X270558D01*
Y-400998D01*
X270824Y-400963D01*
X271989Y-400481D01*
X272989Y-399714D01*
X273756Y-398714D01*
X274238Y-397549D01*
X274273Y-397284D01*
D02*
G37*
G36*
X553067D02*
X549353D01*
Y-400998D01*
X549618Y-400963D01*
X550783Y-400481D01*
X551783Y-399714D01*
X552550Y-398714D01*
X553032Y-397549D01*
X553067Y-397284D01*
D02*
G37*
G36*
X386111D02*
X382396D01*
Y-400998D01*
X382662Y-400963D01*
X383826Y-400481D01*
X384827Y-399714D01*
X385594Y-398714D01*
X386076Y-397549D01*
X386111Y-397284D01*
D02*
G37*
G36*
X547384D02*
X543669D01*
X543704Y-397549D01*
X544186Y-398714D01*
X544954Y-399714D01*
X545954Y-400481D01*
X547119Y-400963D01*
X547384Y-400998D01*
Y-397284D01*
D02*
G37*
G36*
X268590D02*
X264875D01*
X264910Y-397549D01*
X265392Y-398714D01*
X266160Y-399714D01*
X267160Y-400481D01*
X268324Y-400963D01*
X268590Y-400998D01*
Y-397284D01*
D02*
G37*
G36*
X316413D02*
X312698D01*
Y-400998D01*
X312963Y-400963D01*
X314128Y-400481D01*
X315128Y-399714D01*
X315895Y-398714D01*
X316378Y-397549D01*
X316413Y-397284D01*
D02*
G37*
G36*
X204575D02*
X200860D01*
Y-400998D01*
X201125Y-400963D01*
X202290Y-400481D01*
X203290Y-399714D01*
X204057Y-398714D01*
X204540Y-397549D01*
X204575Y-397284D01*
D02*
G37*
G36*
X107018D02*
X103303D01*
Y-400998D01*
X103569Y-400963D01*
X104733Y-400481D01*
X105733Y-399714D01*
X106501Y-398714D01*
X106983Y-397549D01*
X107018Y-397284D01*
D02*
G37*
G36*
X483369D02*
X479654D01*
Y-400998D01*
X479919Y-400963D01*
X481084Y-400481D01*
X482084Y-399714D01*
X482852Y-398714D01*
X483334Y-397549D01*
X483369Y-397284D01*
D02*
G37*
G36*
X617083D02*
X613368D01*
X613403Y-397549D01*
X613885Y-398714D01*
X614652Y-399714D01*
X615653Y-400481D01*
X616817Y-400963D01*
X617083Y-400998D01*
Y-397284D01*
D02*
G37*
G36*
X450127D02*
X446412D01*
X446447Y-397549D01*
X446929Y-398714D01*
X447696Y-399714D01*
X448696Y-400481D01*
X449861Y-400963D01*
X450127Y-400998D01*
Y-397284D01*
D02*
G37*
G36*
X338288D02*
X334574D01*
X334609Y-397549D01*
X335091Y-398714D01*
X335858Y-399714D01*
X336858Y-400481D01*
X338023Y-400963D01*
X338288Y-400998D01*
Y-397284D01*
D02*
G37*
G36*
X171332D02*
X167617D01*
X167652Y-397549D01*
X168135Y-398714D01*
X168902Y-399714D01*
X169902Y-400481D01*
X171067Y-400963D01*
X171332Y-400998D01*
Y-397284D01*
D02*
G37*
G36*
X128894D02*
X125179D01*
X125214Y-397549D01*
X125696Y-398714D01*
X126463Y-399714D01*
X127464Y-400481D01*
X128628Y-400963D01*
X128894Y-400998D01*
Y-397284D01*
D02*
G37*
G36*
X246714D02*
X242999D01*
Y-400998D01*
X243265Y-400963D01*
X244429Y-400481D01*
X245429Y-399714D01*
X246197Y-398714D01*
X246679Y-397549D01*
X246714Y-397284D01*
D02*
G37*
G36*
X413670D02*
X409955D01*
Y-400998D01*
X410221Y-400963D01*
X411386Y-400481D01*
X412386Y-399714D01*
X413153Y-398714D01*
X413635Y-397549D01*
X413670Y-397284D01*
D02*
G37*
G36*
X519825D02*
X516110D01*
X516145Y-397549D01*
X516628Y-398714D01*
X517395Y-399714D01*
X518395Y-400481D01*
X519559Y-400963D01*
X519825Y-400998D01*
Y-397284D01*
D02*
G37*
G36*
X589524D02*
X585809D01*
X585844Y-397549D01*
X586326Y-398714D01*
X587093Y-399714D01*
X588094Y-400481D01*
X589258Y-400963D01*
X589524Y-400998D01*
Y-397284D01*
D02*
G37*
G36*
X526715Y-402451D02*
Y-405158D01*
X529421D01*
X529420Y-405153D01*
X529039Y-404232D01*
X528432Y-403441D01*
X527641Y-402833D01*
X526719Y-402452D01*
X526715Y-402451D01*
D02*
G37*
G36*
X457016D02*
Y-405158D01*
X459723D01*
X459722Y-405153D01*
X459340Y-404232D01*
X458733Y-403441D01*
X457942Y-402833D01*
X457021Y-402452D01*
X457016Y-402451D01*
D02*
G37*
G36*
X387318D02*
Y-405158D01*
X390024D01*
X390023Y-405153D01*
X389642Y-404232D01*
X389035Y-403441D01*
X388244Y-402833D01*
X387322Y-402452D01*
X387318Y-402451D01*
D02*
G37*
G36*
X108224D02*
Y-405158D01*
X110931D01*
X110930Y-405153D01*
X110548Y-404232D01*
X109941Y-403441D01*
X109150Y-402833D01*
X108229Y-402452D01*
X108224Y-402451D01*
D02*
G37*
G36*
X317619D02*
Y-405158D01*
X320325D01*
X320325Y-405153D01*
X319943Y-404232D01*
X319336Y-403441D01*
X318545Y-402833D01*
X317624Y-402452D01*
X317619Y-402451D01*
D02*
G37*
G36*
X247921Y-402451D02*
Y-405158D01*
X250627D01*
X250626Y-405153D01*
X250245Y-404232D01*
X249638Y-403441D01*
X248846Y-402833D01*
X247925Y-402452D01*
X247921Y-402451D01*
D02*
G37*
G36*
X178222D02*
Y-405158D01*
X180928D01*
X180928Y-405153D01*
X180546Y-404232D01*
X179939Y-403441D01*
X179148Y-402833D01*
X178226Y-402452D01*
X178222Y-402451D01*
D02*
G37*
G36*
X596413Y-402451D02*
Y-405158D01*
X599120D01*
X599119Y-405153D01*
X598737Y-404232D01*
X598130Y-403441D01*
X597339Y-402833D01*
X596418Y-402452D01*
X596413Y-402451D01*
D02*
G37*
G36*
X594445Y-402451D02*
X594440Y-402452D01*
X593519Y-402833D01*
X592728Y-403441D01*
X592121Y-404232D01*
X591739Y-405153D01*
X591739Y-405158D01*
X594445D01*
Y-402451D01*
D02*
G37*
G36*
X176253D02*
X176249Y-402452D01*
X175328Y-402833D01*
X174537Y-403441D01*
X173930Y-404232D01*
X173548Y-405153D01*
X173547Y-405158D01*
X176253D01*
Y-402451D01*
D02*
G37*
G36*
X245952Y-402451D02*
X245948Y-402452D01*
X245026Y-402833D01*
X244235Y-403441D01*
X243628Y-404232D01*
X243246Y-405153D01*
X243246Y-405158D01*
X245952D01*
Y-402451D01*
D02*
G37*
G36*
X106256D02*
X106251Y-402452D01*
X105330Y-402833D01*
X104539Y-403441D01*
X103932Y-404232D01*
X103550Y-405153D01*
X103550Y-405158D01*
X106256D01*
Y-402451D01*
D02*
G37*
G36*
X315651D02*
X315646Y-402452D01*
X314725Y-402833D01*
X313934Y-403441D01*
X313327Y-404232D01*
X312945Y-405153D01*
X312944Y-405158D01*
X315651D01*
Y-402451D01*
D02*
G37*
G36*
X385349D02*
X385345Y-402452D01*
X384423Y-402833D01*
X383632Y-403441D01*
X383025Y-404232D01*
X382644Y-405153D01*
X382643Y-405158D01*
X385349D01*
Y-402451D01*
D02*
G37*
G36*
X455048Y-402451D02*
X455043Y-402452D01*
X454122Y-402833D01*
X453331Y-403441D01*
X452724Y-404232D01*
X452342Y-405153D01*
X452342Y-405158D01*
X455048D01*
Y-402451D01*
D02*
G37*
G36*
X524746D02*
X524742Y-402452D01*
X523820Y-402833D01*
X523029Y-403441D01*
X522422Y-404232D01*
X522041Y-405153D01*
X522040Y-405158D01*
X524746D01*
Y-402451D01*
D02*
G37*
G36*
X529421Y-407126D02*
X526715D01*
Y-409832D01*
X526719Y-409832D01*
X527641Y-409450D01*
X528432Y-408843D01*
X529039Y-408052D01*
X529420Y-407130D01*
X529421Y-407126D01*
D02*
G37*
G36*
X459723D02*
X457016D01*
Y-409832D01*
X457021Y-409832D01*
X457942Y-409450D01*
X458733Y-408843D01*
X459340Y-408052D01*
X459722Y-407130D01*
X459723Y-407126D01*
D02*
G37*
G36*
X594445D02*
X591739D01*
X591739Y-407130D01*
X592121Y-408052D01*
X592728Y-408843D01*
X593519Y-409450D01*
X594440Y-409832D01*
X594445Y-409832D01*
Y-407126D01*
D02*
G37*
G36*
X390024D02*
X387318D01*
Y-409832D01*
X387322Y-409832D01*
X388244Y-409450D01*
X389035Y-408843D01*
X389642Y-408052D01*
X390023Y-407130D01*
X390024Y-407126D01*
D02*
G37*
G36*
X320325D02*
X317619D01*
Y-409832D01*
X317624Y-409832D01*
X318545Y-409450D01*
X319336Y-408843D01*
X319943Y-408052D01*
X320325Y-407130D01*
X320325Y-407126D01*
D02*
G37*
G36*
X110931D02*
X108224D01*
Y-409832D01*
X108229Y-409832D01*
X109150Y-409450D01*
X109941Y-408843D01*
X110548Y-408052D01*
X110930Y-407130D01*
X110931Y-407126D01*
D02*
G37*
G36*
X176253D02*
X173547D01*
X173548Y-407130D01*
X173930Y-408052D01*
X174537Y-408843D01*
X175328Y-409450D01*
X176249Y-409832D01*
X176253Y-409832D01*
Y-407126D01*
D02*
G37*
G36*
X250627D02*
X247921D01*
Y-409832D01*
X247925Y-409832D01*
X248846Y-409450D01*
X249638Y-408843D01*
X250245Y-408052D01*
X250626Y-407130D01*
X250627Y-407126D01*
D02*
G37*
G36*
X245952D02*
X243246D01*
X243246Y-407130D01*
X243628Y-408052D01*
X244235Y-408843D01*
X245026Y-409450D01*
X245948Y-409832D01*
X245952Y-409832D01*
Y-407126D01*
D02*
G37*
G36*
X180928D02*
X178222D01*
Y-409832D01*
X178226Y-409832D01*
X179148Y-409450D01*
X179939Y-408843D01*
X180546Y-408052D01*
X180928Y-407130D01*
X180928Y-407126D01*
D02*
G37*
G36*
X315651D02*
X312944D01*
X312945Y-407130D01*
X313327Y-408052D01*
X313934Y-408843D01*
X314725Y-409450D01*
X315646Y-409832D01*
X315651Y-409832D01*
Y-407126D01*
D02*
G37*
G36*
X106256D02*
X103550D01*
X103550Y-407130D01*
X103932Y-408052D01*
X104539Y-408843D01*
X105330Y-409450D01*
X106251Y-409832D01*
X106256Y-409832D01*
Y-407126D01*
D02*
G37*
G36*
X385349D02*
X382643D01*
X382644Y-407130D01*
X383025Y-408052D01*
X383632Y-408843D01*
X384423Y-409450D01*
X385345Y-409832D01*
X385349Y-409832D01*
Y-407126D01*
D02*
G37*
G36*
X599120D02*
X596413D01*
Y-409832D01*
X596418Y-409832D01*
X597339Y-409450D01*
X598130Y-408843D01*
X598737Y-408052D01*
X599119Y-407130D01*
X599120Y-407126D01*
D02*
G37*
G36*
X455048D02*
X452342D01*
X452342Y-407130D01*
X452724Y-408052D01*
X453331Y-408843D01*
X454122Y-409450D01*
X455043Y-409832D01*
X455048Y-409832D01*
Y-407126D01*
D02*
G37*
G36*
X524746D02*
X522040D01*
X522041Y-407130D01*
X522422Y-408052D01*
X523029Y-408843D01*
X523820Y-409450D01*
X524742Y-409832D01*
X524746Y-409832D01*
Y-407126D01*
D02*
G37*
G36*
X60276Y-414764D02*
X57126D01*
Y-417913D01*
X60276D01*
Y-414764D01*
D02*
G37*
G36*
X55158D02*
X52008D01*
Y-417913D01*
X55158D01*
Y-414764D01*
D02*
G37*
G36*
X60276Y-419882D02*
X57126D01*
Y-423032D01*
X60276D01*
Y-419882D01*
D02*
G37*
G36*
X55158D02*
X52008D01*
Y-423032D01*
X55158D01*
Y-419882D01*
D02*
G37*
G36*
X66142Y-414530D02*
X65011Y-414678D01*
X63958Y-415115D01*
X63053Y-415809D01*
X62359Y-416714D01*
X61923Y-417767D01*
X61774Y-418898D01*
X61923Y-420028D01*
X62359Y-421082D01*
X63053Y-421986D01*
X63958Y-422681D01*
X65011Y-423117D01*
X66142Y-423266D01*
X67272Y-423117D01*
X68326Y-422681D01*
X69230Y-421986D01*
X69925Y-421082D01*
X70361Y-420028D01*
X70510Y-418898D01*
X70361Y-417767D01*
X69925Y-416714D01*
X69230Y-415809D01*
X68326Y-415115D01*
X67272Y-414678D01*
X66142Y-414530D01*
D02*
G37*
%LPD*%
D11*
X251434Y-91479D02*
X290371D01*
X239764Y-103150D02*
X251434Y-91479D01*
X218504Y-249449D02*
X260000D01*
X218504Y-247480D02*
X258425D01*
X218504Y-231732D02*
X235000D01*
X218504Y-229764D02*
X233327D01*
X239764Y-223327D01*
X235000Y-231732D02*
X248327Y-218406D01*
X239764Y-223327D02*
Y-103150D01*
X248327Y-218406D02*
Y-106988D01*
X260000Y-249449D02*
X301181Y-208268D01*
X258425Y-247480D02*
X297638Y-208268D01*
Y-152362D01*
X301181Y-208268D02*
Y-153543D01*
X290371Y-91479D02*
X290509Y-91341D01*
X301181Y-153543D02*
X364567Y-90158D01*
X297638Y-152362D02*
X362992Y-87008D01*
X364567Y-90158D02*
X541695D01*
X362992Y-87008D02*
X520866D01*
X541695Y-90158D02*
X586577Y-45276D01*
X520866Y-87008D02*
X573622Y-34252D01*
Y-11417D01*
X577165Y-7874D01*
X593701D01*
X596577Y-10750D01*
Y-15276D02*
Y-10750D01*
D17*
X211640Y-37402D02*
X267323D01*
X268504Y-37402D02*
Y-25197D01*
X282283Y-11417D01*
X409167D01*
X413272Y-15522D01*
Y-25063D02*
Y-15522D01*
Y-25063D02*
X413799Y-25591D01*
D69*
X717323Y-162403D02*
D03*
Y-154922D02*
D03*
X800000Y-148230D02*
D03*
Y-140749D02*
D03*
X580469Y-403189D02*
D03*
Y-410669D02*
D03*
X839764Y-199016D02*
D03*
Y-191535D02*
D03*
X347398Y-410669D02*
D03*
Y-403189D02*
D03*
X570232D02*
D03*
Y-410669D02*
D03*
X150547Y-403189D02*
D03*
Y-410669D02*
D03*
X360390Y-403189D02*
D03*
Y-410669D02*
D03*
X559247Y-403195D02*
D03*
Y-395715D02*
D03*
X769291Y-208071D02*
D03*
Y-215551D02*
D03*
X139130Y-410669D02*
D03*
Y-403189D02*
D03*
X372988Y-410669D02*
D03*
Y-403189D02*
D03*
X743307Y-211615D02*
D03*
Y-219096D02*
D03*
X857087Y-243503D02*
D03*
Y-250983D02*
D03*
D73*
X736177Y-162449D02*
D03*
X728697D02*
D03*
X832480Y-154331D02*
D03*
X839961D02*
D03*
X773972Y-18355D02*
D03*
X766492D02*
D03*
X738933D02*
D03*
X746413D02*
D03*
X225941Y-406142D02*
D03*
X218461D02*
D03*
X802165Y-208661D02*
D03*
X794685D02*
D03*
X777362Y-215354D02*
D03*
X784842D02*
D03*
X365311Y-386221D02*
D03*
X372791D02*
D03*
X559646D02*
D03*
X567126D02*
D03*
X156650D02*
D03*
X164130D02*
D03*
X776334Y-6544D02*
D03*
X783814D02*
D03*
X76576Y-89764D02*
D03*
X69096D02*
D03*
X736966Y-6937D02*
D03*
X729485D02*
D03*
D81*
X70472Y-77165D02*
D03*
X82284D02*
D03*
D95*
X76772Y-59842D02*
D03*
Y-42520D02*
D03*
D97*
X213779Y-105512D02*
Y-90158D01*
X218110Y-85827D01*
X217916Y-235669D02*
Y-233754D01*
X217818Y-237576D02*
Y-235669D01*
X210039Y-237638D02*
Y-233799D01*
X59563Y-349398D02*
X59661D01*
X49563Y-334398D02*
Y-325634D01*
X59563Y-329398D02*
X69425Y-319536D01*
X49563Y-325634D02*
X77953Y-297244D01*
X69425Y-319536D02*
X93512D01*
X103749Y-309300D01*
X108031D01*
X101535Y-306693D02*
Y-297244D01*
X77953D02*
X85197D01*
X94055D01*
X108031Y-309300D02*
Y-298425D01*
X131653Y-306693D02*
Y-297244D01*
X108031Y-298425D02*
X109213Y-297244D01*
X115118D01*
X131653D02*
X156595D01*
X115118D02*
X124173D01*
X101535D02*
X106457Y-292323D01*
X161772D01*
X145797Y-282943D02*
X145925Y-283071D01*
X145797Y-282943D02*
Y-256722D01*
X150768Y-283071D02*
Y-249823D01*
X145797Y-256722D02*
X145827Y-256693D01*
X172594Y-312441D02*
X176925D01*
X170925Y-310772D02*
X172594Y-312441D01*
X170925Y-310772D02*
Y-304331D01*
X160925D02*
Y-301575D01*
X165925Y-304331D02*
Y-296476D01*
X156595Y-297244D02*
X160925Y-301575D01*
X161772Y-292323D02*
X165925Y-296476D01*
X176925Y-312441D02*
X191492Y-297874D01*
X175925Y-304331D02*
X178342D01*
X187791Y-294882D01*
X191492Y-297874D02*
X270626D01*
X187791Y-294882D02*
X270177D01*
X213937Y-275590D02*
X214488Y-275039D01*
X224016D02*
X224173Y-275197D01*
X210000Y-274803D02*
X211732Y-273071D01*
X168504Y-271102D02*
X218504D01*
X168268Y-270866D02*
X168504Y-271102D01*
X194429Y-269134D02*
X218504D01*
X155768Y-283071D02*
Y-254075D01*
X160768Y-283071D02*
Y-253563D01*
X188091Y-262795D02*
X194429Y-269134D01*
X209685Y-263307D02*
X209764Y-263228D01*
X168307Y-262795D02*
X188091D01*
X201575Y-257323D02*
X218504D01*
X207480Y-255354D02*
X218504D01*
X174961Y-256693D02*
X178996Y-252658D01*
X204784D02*
X207480Y-255354D01*
X208661Y-253386D02*
X218504D01*
X178996Y-252658D02*
X204784D01*
X205779Y-250503D02*
X208661Y-253386D01*
X186018Y-250503D02*
X205779D01*
X182759Y-247244D02*
X186018Y-250503D01*
X175748Y-247244D02*
X182759D01*
X160768Y-253563D02*
X174173Y-240158D01*
X198976D02*
X210236Y-251417D01*
X207960Y-245512D02*
X218504D01*
X150768Y-249823D02*
X163287Y-237303D01*
X209449Y-243543D02*
X218504D01*
X155768Y-254075D02*
X177165Y-232677D01*
X214488Y-275039D02*
X218504D01*
X224016D01*
X211732Y-273071D02*
X218504D01*
Y-271102D02*
X266693D01*
X218504Y-267165D02*
X264331D01*
X218504Y-265197D02*
X263543D01*
X209764Y-263228D02*
X218504D01*
Y-261260D02*
X264331D01*
X218504Y-259291D02*
X262756D01*
X274952Y-247095D01*
X210236Y-251417D02*
X218504D01*
X224016Y-241575D02*
X224173Y-241732D01*
X218504Y-241575D02*
X224016D01*
X14500Y-217000D02*
X19491Y-212009D01*
X22679D01*
X14500Y-207000D02*
X19532Y-201969D01*
X22643D01*
X14500Y-197000D02*
X19491Y-192009D01*
Y-191979D02*
X22540D01*
X14500Y-187000D02*
X19491Y-182009D01*
X22481D01*
X14500Y-177000D02*
X19453Y-172047D01*
X22441D01*
X149513Y-212008D02*
X163332Y-225827D01*
X148246Y-207000D02*
X165104Y-223858D01*
X26378Y-212008D02*
X149513Y-212008D01*
X146757Y-201969D02*
X166679Y-221890D01*
X145332Y-197000D02*
X168254Y-219921D01*
X24500Y-207000D02*
X148246D01*
X143559Y-191979D02*
X169533Y-217953D01*
X26378Y-201969D02*
X146757Y-201969D01*
X141730Y-187000D02*
X170714Y-215984D01*
X139572Y-181988D02*
X171600Y-214016D01*
X24500Y-197000D02*
X145332D01*
X137394Y-177000D02*
X172441Y-212047D01*
X26378Y-191979D02*
X143559Y-191979D01*
X134946Y-172047D02*
X172978Y-210079D01*
X133049Y-167000D02*
X174159Y-208110D01*
X24500Y-187000D02*
X141730D01*
X131108Y-162008D02*
X175242Y-206142D01*
X26378Y-181988D02*
X139572Y-181988D01*
X128758Y-157000D02*
X175931Y-204173D01*
X126727Y-152016D02*
X176915Y-202205D01*
X24500Y-177000D02*
X137394D01*
X124663Y-147000D02*
X177899Y-200236D01*
X26378Y-172047D02*
X134946Y-172047D01*
X122452Y-141837D02*
X178883Y-198268D01*
X14500Y-167000D02*
X19535Y-161965D01*
X22466D01*
X14500Y-157000D02*
X19532Y-151969D01*
X22441D01*
X14500Y-147000D02*
X19768Y-141732D01*
X22441D01*
X154882Y-167717D02*
X166693D01*
X24500Y-167000D02*
X133049D01*
X26772Y-162008D02*
X131108Y-162008D01*
X24500Y-157000D02*
X128758D01*
X26772Y-152016D02*
X126727Y-152016D01*
X24500Y-147000D02*
X124663D01*
X26772Y-141837D02*
X122452Y-141837D01*
X199361Y-236913D02*
X207960Y-245512D01*
X174173Y-240158D02*
X198976D01*
X198583Y-232677D02*
X209449Y-243543D01*
X163287Y-237303D02*
Y-236909D01*
X177323Y-237008D02*
X177418Y-236913D01*
X199361D01*
X210039Y-235669D02*
X217818D01*
X210039Y-233799D02*
X210138Y-233701D01*
X177165Y-232677D02*
X187874D01*
X198583D01*
X163332Y-225827D02*
X218504D01*
X165104Y-223858D02*
X218504D01*
X166679Y-221890D02*
X218504D01*
X168254Y-219921D02*
X218504D01*
X169533Y-217953D02*
X218504D01*
X170714Y-215984D02*
X218504D01*
X171600Y-214016D02*
X218504D01*
X172441Y-212047D02*
X218504D01*
X172978Y-210079D02*
X218504D01*
X174159Y-208110D02*
X218504D01*
X175242Y-206142D02*
X218504D01*
X175931Y-204173D02*
X218504D01*
X176915Y-202205D02*
X218504D01*
X177899Y-200236D02*
X218504D01*
X219193Y-239606D02*
X224213D01*
X210039Y-237638D02*
X217913D01*
X217818Y-235669D02*
X217916D01*
X218504D01*
X210138Y-233701D02*
X218504D01*
X178883Y-198268D02*
X218504D01*
X181496Y-196299D02*
X218504D01*
X183858Y-194331D02*
X218504D01*
X186221Y-192362D02*
X218504D01*
X189370Y-190394D02*
X218504D01*
X191732Y-188425D02*
X218504D01*
X164724Y-179528D02*
X181496Y-196299D01*
X161181Y-171653D02*
X183858Y-194331D01*
X166299Y-172441D02*
X186221Y-192362D01*
X166693Y-167717D02*
X189370Y-190394D01*
X165118Y-161811D02*
X191732Y-188425D01*
X218110Y-85827D02*
Y-55905D01*
X270626Y-297874D02*
X292122Y-276378D01*
X270177Y-294882D02*
X293012Y-272047D01*
X266693Y-271102D02*
X277559Y-260236D01*
X264331Y-267165D02*
X275197Y-256299D01*
X277559Y-260236D02*
X306850D01*
X263543Y-265197D02*
X274409Y-254331D01*
X275197Y-256299D02*
X304488D01*
X264331Y-261260D02*
X275197Y-250394D01*
X274409Y-254331D02*
X312756D01*
X275197Y-250394D02*
X541343D01*
X274952Y-247095D02*
X542136D01*
X580469Y-403189D02*
Y-339315D01*
X606496Y-313287D01*
X292122Y-276378D02*
X655512D01*
X293012Y-272047D02*
X665748D01*
X306850Y-260236D02*
X686221Y-260236D01*
X695669D01*
X304488Y-256299D02*
X688976Y-256299D01*
X692886D01*
X312756Y-254331D02*
X688189Y-254331D01*
X691732D01*
X542136Y-247095D02*
X746413Y-42818D01*
X541343Y-250394D02*
X766492Y-25245D01*
X695669Y-260236D02*
X726772Y-229134D01*
X692886Y-256299D02*
X722020Y-227165D01*
X691732Y-254331D02*
X721260Y-224803D01*
X726772Y-229134D02*
X824016D01*
X722020Y-227165D02*
X818016D01*
X721260Y-224803D02*
X743307D01*
X808268D01*
X743307D02*
Y-219096D01*
X844882Y-250000D02*
X848819D01*
X842618Y-243701D02*
X856889D01*
X857087Y-243503D01*
X824016Y-229134D02*
X844882Y-250000D01*
X822795Y-223878D02*
X842618Y-243701D01*
X818016Y-227165D02*
X821304Y-223878D01*
X822795D01*
X808268Y-224803D02*
X815748Y-217323D01*
X826240D02*
X832795Y-223878D01*
X815748Y-217323D02*
X826240D01*
X724169Y-162449D02*
X728697D01*
X717369D02*
X724169D01*
X717323Y-162403D02*
X717369Y-162449D01*
X774413Y-153244D02*
Y-153185D01*
X772441Y-151214D02*
Y-150787D01*
X839705Y-154587D02*
X839961Y-154331D01*
X800000Y-154331D02*
X800000Y-154331D01*
X337638Y-90256D02*
X339712Y-88181D01*
X746413Y-42818D02*
Y-18355D01*
X766492Y-25245D02*
Y-18355D01*
X736966Y-6937D02*
X736976Y-6928D01*
X746453D01*
X746413Y-18355D02*
X746453Y-18315D01*
Y-6928D01*
X766453Y-18315D02*
Y-6928D01*
Y-18315D02*
X766492Y-18355D01*
X766453Y-6928D02*
X775950D01*
X776334Y-6544D01*
D98*
X67716Y-96063D02*
Y-69685D01*
X86319Y-114665D02*
X154882Y-114665D01*
X67716Y-96063D02*
X86319Y-114665D01*
X154882Y-114665D02*
X224705Y-114665D01*
X164130Y-385827D02*
X174524Y-375433D01*
X164130Y-386221D02*
Y-385827D01*
X365114Y-375039D02*
X365213Y-375138D01*
Y-386122D02*
X365311Y-386221D01*
X365213Y-386122D02*
Y-375138D01*
X357323Y-419528D02*
X460363D01*
X353894Y-416098D02*
Y-403189D01*
Y-416098D02*
X357323Y-419528D01*
X567104Y-386199D02*
Y-375061D01*
Y-386199D02*
X567126Y-386221D01*
X567083Y-375039D02*
X567104Y-375061D01*
X139130Y-410669D02*
X150547D01*
X129683D02*
X139130D01*
X125155Y-406142D02*
X129683Y-410669D01*
X124957Y-406142D02*
X125155D01*
X115132Y-309829D02*
X115145Y-309842D01*
Y-309629D01*
X115132Y-309829D02*
Y-305132D01*
X85197Y-309842D02*
Y-305118D01*
X87264Y-306693D02*
X94055D01*
Y-305906D01*
X85689Y-305118D02*
X87264Y-306693D01*
X85197Y-305118D02*
X85689D01*
X117185Y-306693D02*
X124173D01*
X115610Y-305118D02*
X117185Y-306693D01*
X115118Y-305118D02*
X115132Y-305132D01*
X115118Y-305118D02*
X115610D01*
X158618Y-403189D02*
X171413Y-415984D01*
X150547Y-403189D02*
X158618D01*
X174524Y-375433D02*
X182437D01*
X170925Y-283071D02*
X175925D01*
X171413Y-415984D02*
X185112D01*
X241492D02*
X254810D01*
X185112D02*
X194954Y-406142D01*
X231650D02*
X241492Y-415984D01*
X254810D02*
X264653Y-406142D01*
X194954D02*
X218461D01*
X225941D02*
X231650D01*
X182437Y-375433D02*
X182634Y-375236D01*
X175925Y-283071D02*
X183228D01*
X378697Y-415984D02*
X395035D01*
X373382Y-410669D02*
X378697Y-415984D01*
X395035D02*
X404050Y-406970D01*
X339077Y-410669D02*
X347398D01*
X360390D02*
X372988D01*
X373382D01*
X334550Y-406142D02*
X339077Y-410669D01*
X404050Y-406970D02*
Y-406142D01*
X334351D02*
X334550D01*
X347398Y-403189D02*
X353894D01*
X360390D01*
X460363Y-419528D02*
X473748Y-406142D01*
X182634Y-375236D02*
X364917D01*
X365114Y-375039D01*
X566984Y-375138D02*
X567083Y-375039D01*
X801149Y-217717D02*
X801575D01*
X798786Y-215354D02*
X801149Y-217717D01*
X784842Y-215354D02*
X798786D01*
X802165Y-208661D02*
Y-199057D01*
X826968Y-200000D02*
Y-199016D01*
X802124D02*
X802165Y-199057D01*
X755035Y-166422D02*
X756240Y-165217D01*
X745764Y-162311D02*
Y-155417D01*
X756453Y-144728D01*
X785236Y-199016D02*
X802124D01*
X826968D02*
X852559D01*
X802124D02*
X810827D01*
X802120Y-199012D02*
X802124Y-199016D01*
X810827D02*
X818307Y-191535D01*
X839764D01*
X294488Y-114173D02*
X305512Y-125197D01*
X294488Y-114173D02*
Y-81496D01*
X756453Y-144728D02*
Y-118355D01*
X776138Y-98670D01*
X769839Y-52213D02*
Y-30166D01*
X773972Y-26032D01*
X769839Y-52213D02*
X776138Y-58512D01*
X773972Y-26032D02*
Y-18355D01*
X776138Y-98670D02*
Y-58512D01*
X773972Y-18355D02*
X779681D01*
X824452Y-34224D02*
X842548Y-52319D01*
X733224Y-18355D02*
X738933D01*
D99*
X139130Y-387858D02*
X140768Y-386221D01*
X139130Y-403189D02*
Y-387858D01*
X140768Y-386221D02*
X157342D01*
X140768D02*
Y-304331D01*
X558711Y-407920D02*
Y-403732D01*
X559247Y-403195D01*
X555962Y-410669D02*
X558711Y-407920D01*
X547975Y-410669D02*
X555962D01*
X559247Y-403195D02*
X559251Y-403192D01*
X569835D01*
X569839Y-403189D01*
X559209Y-395676D02*
Y-369528D01*
Y-395676D02*
X559247Y-395715D01*
X60138Y-373917D02*
X76142Y-389921D01*
X60138Y-373917D02*
Y-373425D01*
X59153Y-372441D02*
X60138Y-373425D01*
X49606Y-372441D02*
X58661D01*
X59153D01*
X49585Y-364545D02*
X49606Y-364567D01*
X49585Y-364545D02*
Y-354420D01*
X49563Y-354398D02*
X49585Y-354420D01*
X76142Y-418898D02*
Y-389921D01*
X145768Y-321047D02*
Y-304331D01*
X150768Y-319354D02*
Y-304331D01*
X145768Y-321047D02*
X193067Y-368347D01*
X150768Y-319354D02*
X196610Y-365197D01*
X155768Y-316087D02*
Y-304331D01*
Y-316087D02*
X198579Y-358898D01*
X372791Y-402992D02*
X372988Y-403189D01*
X372791Y-402992D02*
Y-393150D01*
X586177Y-415984D02*
X603303D01*
X580862Y-410669D02*
X586177Y-415984D01*
X603303D02*
X613146Y-406142D01*
X570232Y-410669D02*
X580469D01*
X580862D01*
X543447Y-406142D02*
X547975Y-410669D01*
X569839Y-403189D02*
X570232D01*
X372791Y-393150D02*
Y-374162D01*
X366976Y-368347D02*
X372791Y-374162D01*
X193067Y-368347D02*
X366976D01*
X196610Y-365197D02*
X541886D01*
X198579Y-358898D02*
X548579D01*
X559209Y-369528D01*
X761029Y-215551D02*
X769291D01*
X777165D01*
X777362Y-215354D01*
X756355Y-210877D02*
X761029Y-215551D01*
X756355Y-210877D02*
X756455Y-210777D01*
X769291Y-208071D02*
X794095D01*
X769095Y-207874D02*
X769291Y-208071D01*
X769095Y-207874D02*
Y-199016D01*
X794095Y-208071D02*
X794685Y-208661D01*
X743504Y-199016D02*
X769095D01*
D100*
X5906Y-288405D02*
X14500Y-297000D01*
X5906Y-288405D02*
Y-256693D01*
X6213Y-257000D02*
X14500D01*
X5906Y-256693D02*
X6213Y-257000D01*
X5906Y-256693D02*
Y-130709D01*
X10236Y-126378D01*
X28799D01*
X45669Y-109508D01*
Y-68504D01*
X54724Y-59449D01*
X116437D02*
X131791Y-74803D01*
X54724Y-59449D02*
X116437D01*
D101*
X22679Y-212009D02*
X26377D01*
X22643Y-201969D02*
X26378D01*
X22643Y-201969D02*
X22643Y-201969D01*
X22540Y-191979D02*
X26378D01*
X22481Y-182009D02*
X26358D01*
X26378Y-181988D01*
X22441Y-172047D02*
X26378D01*
X26377Y-212009D02*
X26378Y-212008D01*
X26378Y-191979D02*
X26378Y-191979D01*
X26378Y-172047D02*
X26378Y-172047D01*
X26728Y-161965D02*
X26772Y-162008D01*
X22466Y-161965D02*
X26728D01*
X26724Y-151969D02*
X26772Y-152016D01*
X22441Y-151969D02*
X26724D01*
X26719Y-141783D02*
X26772Y-141837D01*
X22519Y-141783D02*
X26719D01*
X22467Y-141732D02*
X22519Y-141783D01*
X22441Y-141732D02*
X22467D01*
D102*
X183721Y-67579D02*
Y-62461D01*
X193658Y-52524D01*
X206846Y-53000D02*
X209996Y-56150D01*
X194134Y-53000D02*
X206846D01*
X193658Y-52524D02*
X194134Y-53000D01*
X193658Y-52524D02*
Y-32528D01*
X209996Y-75048D02*
Y-56150D01*
D104*
X14500Y-137000D02*
D03*
X56142Y-418898D02*
D03*
X852795Y-223878D02*
D03*
D105*
X24500Y-137000D02*
D03*
X14500Y-147000D02*
D03*
X24500D02*
D03*
X14500Y-157000D02*
D03*
X24500D02*
D03*
X14500Y-167000D02*
D03*
X24500D02*
D03*
X14500Y-177000D02*
D03*
X24500D02*
D03*
X14500Y-187000D02*
D03*
X24500D02*
D03*
X14500Y-197000D02*
D03*
X24500D02*
D03*
X14500Y-207000D02*
D03*
X24500D02*
D03*
X14500Y-217000D02*
D03*
X24500D02*
D03*
X14500Y-227000D02*
D03*
X24500D02*
D03*
X14500Y-237000D02*
D03*
X24500D02*
D03*
X14500Y-247000D02*
D03*
X24500D02*
D03*
X14500Y-257000D02*
D03*
X24500D02*
D03*
X14500Y-267000D02*
D03*
X24500D02*
D03*
X14500Y-277000D02*
D03*
X24500D02*
D03*
X14500Y-287000D02*
D03*
X24500D02*
D03*
X14500Y-297000D02*
D03*
X24500D02*
D03*
X76142Y-418898D02*
D03*
X66142Y-418898D02*
D03*
X596577Y-15276D02*
D03*
X586577D02*
D03*
X596577Y-25276D02*
D03*
X586577D02*
D03*
X596577Y-35276D02*
D03*
X586577D02*
D03*
X596577Y-45276D02*
D03*
X822795Y-223878D02*
D03*
X832795D02*
D03*
X842795D02*
D03*
D106*
X24563Y-361898D02*
D03*
Y-321898D02*
D03*
D107*
X49563Y-354398D02*
D03*
X59563Y-349398D02*
D03*
X49563Y-344398D02*
D03*
X59563Y-339398D02*
D03*
X49563Y-334398D02*
D03*
X59563Y-329398D02*
D03*
D108*
X287441Y-46654D02*
D03*
Y-26969D02*
D03*
X307126Y-46654D02*
D03*
Y-26969D02*
D03*
X131791Y-74803D02*
D03*
X211640Y-37402D02*
D03*
X268504Y-37402D02*
D03*
X252756D02*
D03*
X260630D02*
D03*
D109*
X297284Y-56496D02*
D03*
Y-36811D02*
D03*
X766453Y-64428D02*
D03*
X746453D02*
D03*
X766453Y-6928D02*
D03*
X756453D02*
D03*
X746453D02*
D03*
D110*
X852559Y-199016D02*
D03*
X810827D02*
D03*
X769095D02*
D03*
D111*
X852559Y-181299D02*
D03*
X826968D02*
D03*
X826968Y-199016D02*
D03*
X785236D02*
D03*
X785236Y-181299D02*
D03*
X810827D02*
D03*
X743504Y-199016D02*
D03*
X743504Y-181299D02*
D03*
X769095D02*
D03*
X824452Y-34224D02*
D03*
X836980Y-21696D02*
D03*
X855075Y-39792D02*
D03*
X756240Y-165217D02*
D03*
X746398D02*
D03*
X766083D02*
D03*
X849547D02*
D03*
X829862D02*
D03*
X839705D02*
D03*
D112*
X316635Y-406142D02*
D03*
X334351D02*
D03*
X246936D02*
D03*
X264653D02*
D03*
X595429D02*
D03*
X613146D02*
D03*
X456032D02*
D03*
X473748D02*
D03*
X177238D02*
D03*
X194954D02*
D03*
X525731D02*
D03*
X543447D02*
D03*
X386333D02*
D03*
X404050D02*
D03*
X107240D02*
D03*
X124957D02*
D03*
D113*
X311714Y-396299D02*
D03*
X339273D02*
D03*
X242015D02*
D03*
X269574D02*
D03*
X590508D02*
D03*
X618067D02*
D03*
X451111D02*
D03*
X478670D02*
D03*
X172317D02*
D03*
X199876D02*
D03*
X520809D02*
D03*
X548368D02*
D03*
X381412D02*
D03*
X408971D02*
D03*
X102319D02*
D03*
X129878D02*
D03*
D114*
X842548Y-52319D02*
D03*
D115*
X398799Y-25591D02*
D03*
X542500D02*
D03*
X323976D02*
D03*
D116*
X413799D02*
D03*
X557500D02*
D03*
X338976D02*
D03*
D117*
X739262Y-137657D02*
D03*
X773216D02*
D03*
X856681D02*
D03*
X822726D02*
D03*
D118*
X339075Y-79528D02*
D03*
X319193D02*
D03*
D119*
X586577Y-45276D02*
D03*
D120*
X780075Y-36928D02*
D03*
X732043D02*
D03*
D121*
X11811Y-381890D02*
D03*
Y-110236D02*
D03*
X854331Y-423228D02*
D03*
X724409Y-381890D02*
D03*
X743071Y-354429D02*
D03*
X824961Y-307185D02*
D03*
X742972Y-260039D02*
D03*
X724409Y-110236D02*
D03*
X854331Y-11811D02*
D03*
X706563Y-31640D02*
D03*
X706461Y-401879D02*
D03*
X23010Y-402027D02*
D03*
X20899Y-31634D02*
D03*
X11811Y-423228D02*
D03*
Y-11811D02*
D03*
D122*
X118110Y-94882D02*
D03*
X118307Y-6299D02*
D03*
X223622Y-94882D02*
D03*
X223819Y-6299D02*
D03*
D123*
X103937Y-80118D02*
D03*
Y-22638D02*
D03*
X237795Y-80118D02*
D03*
Y-22638D02*
D03*
D124*
X208959Y-95473D02*
D03*
X183228Y-283071D02*
D03*
X129232Y-6299D02*
D03*
X208858Y-235669D02*
D03*
X130020Y-95473D02*
D03*
X143291D02*
D03*
X156562D02*
D03*
X169833D02*
D03*
X196375D02*
D03*
X183104D02*
D03*
X142503Y-6299D02*
D03*
X155774D02*
D03*
X169045D02*
D03*
X195587D02*
D03*
X182316D02*
D03*
X208858D02*
D03*
X365114Y-375039D02*
D03*
X567083D02*
D03*
X801575Y-217717D02*
D03*
X368898Y-43701D02*
D03*
X494095D02*
D03*
X368898Y-23228D02*
D03*
X494095D02*
D03*
D125*
X213779Y-105512D02*
D03*
X145827Y-256693D02*
D03*
X550394Y-248819D02*
D03*
X201575Y-274803D02*
D03*
X131496Y-257874D02*
D03*
X137008Y-244882D02*
D03*
X155118Y-160630D02*
D03*
X225984Y-240551D02*
D03*
X215354Y-180709D02*
D03*
X201575Y-263779D02*
D03*
X198031Y-245669D02*
D03*
X231102Y-254331D02*
D03*
X137795Y-283071D02*
D03*
X85197Y-309842D02*
D03*
X115145D02*
D03*
X193701Y-302756D02*
D03*
X187795Y-288189D02*
D03*
X168268Y-270866D02*
D03*
X209685Y-263307D02*
D03*
X168307Y-262795D02*
D03*
X201575Y-257323D02*
D03*
X174961Y-256693D02*
D03*
X175748Y-247244D02*
D03*
X88583Y-77165D02*
D03*
X67716Y-69685D02*
D03*
X174173Y-240158D02*
D03*
X177323Y-237008D02*
D03*
X163681Y-236910D02*
D03*
X170472Y-232677D02*
D03*
X187874Y-232677D02*
D03*
X164724Y-179528D02*
D03*
X166299Y-172441D02*
D03*
X161181Y-171653D02*
D03*
X154882Y-167717D02*
D03*
X165118Y-161811D02*
D03*
X209996Y-75048D02*
D03*
X183721Y-67579D02*
D03*
X218110Y-55905D02*
D03*
X193658Y-32528D02*
D03*
X541886Y-365197D02*
D03*
X606496Y-313287D02*
D03*
X848819Y-250000D02*
D03*
X756355Y-210877D02*
D03*
X305512Y-125197D02*
D03*
X224705Y-114764D02*
D03*
X248327Y-106988D02*
D03*
X290509Y-91341D02*
D03*
X294488Y-81496D02*
D03*
X605118Y-98819D02*
D03*
X604724Y-77165D02*
D03*
X779681Y-18355D02*
D03*
X733224D02*
D03*
D126*
X182437Y-375433D02*
D03*
D127*
X210000Y-274803D02*
D03*
X655512Y-276378D02*
D03*
X665748Y-272047D02*
D03*
X724169Y-162449D02*
D03*
X772441Y-150787D02*
D03*
D128*
X199409Y-69685D02*
D03*
D129*
X225394Y-180945D02*
D03*
X225157Y-282520D02*
D03*
D130*
X218504Y-188425D02*
D03*
Y-190394D02*
D03*
Y-192362D02*
D03*
Y-194331D02*
D03*
Y-196299D02*
D03*
Y-198268D02*
D03*
Y-200236D02*
D03*
Y-202205D02*
D03*
Y-204173D02*
D03*
Y-206142D02*
D03*
Y-208110D02*
D03*
Y-210079D02*
D03*
Y-212047D02*
D03*
Y-214016D02*
D03*
Y-215984D02*
D03*
Y-217953D02*
D03*
Y-219921D02*
D03*
Y-221890D02*
D03*
Y-223858D02*
D03*
Y-225827D02*
D03*
Y-227795D02*
D03*
Y-229764D02*
D03*
Y-231732D02*
D03*
Y-233701D02*
D03*
Y-235669D02*
D03*
Y-237638D02*
D03*
Y-239606D02*
D03*
Y-241575D02*
D03*
Y-243543D02*
D03*
Y-245512D02*
D03*
Y-247480D02*
D03*
Y-249449D02*
D03*
Y-251417D02*
D03*
Y-253386D02*
D03*
Y-255354D02*
D03*
Y-257323D02*
D03*
Y-259291D02*
D03*
Y-261260D02*
D03*
Y-263228D02*
D03*
Y-265197D02*
D03*
Y-267165D02*
D03*
Y-269134D02*
D03*
Y-271102D02*
D03*
Y-273071D02*
D03*
Y-275039D02*
D03*
D131*
X115118Y-305118D02*
D03*
Y-297244D02*
D03*
X85197Y-305118D02*
D03*
Y-297244D02*
D03*
X49606Y-364567D02*
D03*
Y-372441D02*
D03*
X58661D02*
D03*
Y-364567D02*
D03*
D132*
X124173Y-297244D02*
D03*
X127913D02*
D03*
X131653D02*
D03*
Y-306693D02*
D03*
X124173D02*
D03*
X94055D02*
D03*
X101535D02*
D03*
Y-297244D02*
D03*
X97795D02*
D03*
X94055D02*
D03*
D133*
X175925Y-304331D02*
D03*
X170925D02*
D03*
X165925D02*
D03*
X160925D02*
D03*
X155925D02*
D03*
X150925D02*
D03*
X145925D02*
D03*
X140925D02*
D03*
Y-283071D02*
D03*
X145925D02*
D03*
X150925D02*
D03*
X155925D02*
D03*
X160925D02*
D03*
X165925D02*
D03*
X170925D02*
D03*
X175925D02*
D03*
D134*
X61811Y-227795D02*
X218504D01*
X51016Y-217000D02*
X61811Y-227795D01*
X24500Y-217000D02*
X51016D01*
D135*
X740158Y-173622D02*
X751575D01*
X755035Y-170162D01*
X736177Y-169642D02*
X740158Y-173622D01*
X755035Y-170162D02*
Y-166422D01*
X736177Y-169642D02*
Y-162449D01*
X774413Y-153244D02*
X775500Y-154331D01*
X772441Y-151214D02*
X774413Y-153185D01*
X839705Y-165217D02*
Y-154587D01*
X775500Y-154331D02*
X800000D01*
X832480D01*
X800000Y-154331D02*
Y-148230D01*
D136*
X208957Y-235669D02*
D03*
M02*
