G04*
G04 #@! TF.GenerationSoftware,Altium Limited,Altium Designer,19.1.8 (144)*
G04*
G04 Layer_Color=65535*
%FSLAX25Y25*%
%MOIN*%
G70*
G01*
G75*
%ADD10C,0.00984*%
%ADD11C,0.01000*%
%ADD12C,0.00787*%
G36*
X41873Y-137757D02*
X41861Y-137620D01*
X41826Y-137487D01*
X41768Y-137363D01*
X41689Y-137250D01*
X41592Y-137153D01*
X41479Y-137074D01*
X41354Y-137016D01*
X41222Y-136980D01*
X41085Y-136969D01*
X40948Y-136980D01*
X40815Y-137016D01*
X40691Y-137074D01*
X40578Y-137153D01*
X40481Y-137250D01*
X40402Y-137363D01*
X40344Y-137487D01*
X40309Y-137620D01*
X40297Y-137757D01*
X40309Y-137893D01*
X40344Y-138026D01*
X40402Y-138150D01*
X40481Y-138263D01*
X40578Y-138360D01*
X40691Y-138439D01*
X40815Y-138497D01*
X40948Y-138533D01*
X41085Y-138544D01*
X41222Y-138533D01*
X41354Y-138497D01*
X41479Y-138439D01*
X41592Y-138360D01*
X41689Y-138263D01*
X41768Y-138150D01*
X41826Y-138026D01*
X41861Y-137893D01*
X41873Y-137757D01*
D01*
D02*
G37*
G36*
X163779Y-280906D02*
X163609Y-280921D01*
X163443Y-280965D01*
X163288Y-281037D01*
X163147Y-281136D01*
X163026Y-281257D01*
X162928Y-281398D01*
X162855Y-281553D01*
X162811Y-281719D01*
X162796Y-281890D01*
X162811Y-282061D01*
X162855Y-282226D01*
X162928Y-282382D01*
X163026Y-282522D01*
X163147Y-282644D01*
X163288Y-282742D01*
X163443Y-282815D01*
X163609Y-282859D01*
X163779Y-282874D01*
X163950Y-282859D01*
X164116Y-282815D01*
X164271Y-282742D01*
X164412Y-282644D01*
X164533Y-282522D01*
X164631Y-282382D01*
X164704Y-282226D01*
X164748Y-282061D01*
X164763Y-281890D01*
X164748Y-281719D01*
X164704Y-281553D01*
X164631Y-281398D01*
X164533Y-281257D01*
X164412Y-281136D01*
X164271Y-281037D01*
X164116Y-280965D01*
X163950Y-280921D01*
X163779Y-280906D01*
D01*
D02*
G37*
G36*
X189370Y-232677D02*
X189385Y-232848D01*
X189429Y-233014D01*
X189502Y-233169D01*
X189600Y-233310D01*
X189722Y-233431D01*
X189862Y-233529D01*
X190018Y-233602D01*
X190183Y-233646D01*
X190354Y-233661D01*
X190525Y-233646D01*
X190691Y-233602D01*
X190847Y-233529D01*
X190987Y-233431D01*
X191108Y-233310D01*
X191207Y-233169D01*
X191279Y-233014D01*
X191324Y-232848D01*
X191339Y-232677D01*
X191324Y-232506D01*
X191279Y-232341D01*
X191207Y-232185D01*
X191108Y-232045D01*
X190987Y-231924D01*
X190847Y-231825D01*
X190691Y-231753D01*
X190525Y-231708D01*
X190354Y-231693D01*
X190183Y-231708D01*
X190018Y-231753D01*
X189862Y-231825D01*
X189722Y-231924D01*
X189600Y-232045D01*
X189502Y-232185D01*
X189429Y-232341D01*
X189385Y-232506D01*
X189370Y-232677D01*
D01*
D02*
G37*
G36*
X21655Y-122244D02*
X21643Y-122107D01*
X21608Y-121974D01*
X21550Y-121850D01*
X21471Y-121737D01*
X21374Y-121641D01*
X21261Y-121562D01*
X21137Y-121503D01*
X21004Y-121468D01*
X20868Y-121456D01*
X20731Y-121468D01*
X20598Y-121503D01*
X20474Y-121562D01*
X20361Y-121641D01*
X20265Y-121737D01*
X20186Y-121850D01*
X20128Y-121974D01*
X20092Y-122107D01*
X20080Y-122244D01*
X20092Y-122381D01*
X20128Y-122513D01*
X20186Y-122638D01*
X20265Y-122750D01*
X20361Y-122848D01*
X20474Y-122926D01*
X20598Y-122984D01*
X20731Y-123020D01*
X20868Y-123032D01*
X21004Y-123020D01*
X21137Y-122984D01*
X21261Y-122926D01*
X21374Y-122848D01*
X21471Y-122750D01*
X21550Y-122638D01*
X21608Y-122513D01*
X21643Y-122381D01*
X21655Y-122244D01*
D01*
D02*
G37*
G36*
X56878Y-100707D02*
X57012Y-100696D01*
X57142Y-100661D01*
X57263Y-100604D01*
X57373Y-100528D01*
X57468Y-100433D01*
X57545Y-100323D01*
X57602Y-100201D01*
X57637Y-100072D01*
X57648Y-99938D01*
X57637Y-99804D01*
X57602Y-99674D01*
X57545Y-99553D01*
X57468Y-99443D01*
X57373Y-99348D01*
X57263Y-99271D01*
X57142Y-99215D01*
X57012Y-99180D01*
X56878Y-99168D01*
X56744Y-99180D01*
X56615Y-99215D01*
X56493Y-99271D01*
X56384Y-99348D01*
X56289Y-99443D01*
X56211Y-99553D01*
X56155Y-99674D01*
X56120Y-99804D01*
X56108Y-99938D01*
X56120Y-100072D01*
X56155Y-100201D01*
X56211Y-100323D01*
X56289Y-100433D01*
X56384Y-100528D01*
X56493Y-100604D01*
X56615Y-100661D01*
X56744Y-100696D01*
X56878Y-100707D01*
D01*
D02*
G37*
G36*
X64173Y-118181D02*
X64002Y-118196D01*
X63837Y-118240D01*
X63682Y-118313D01*
X63541Y-118411D01*
X63420Y-118532D01*
X63321Y-118673D01*
X63249Y-118828D01*
X63204Y-118994D01*
X63189Y-119165D01*
X63204Y-119336D01*
X63249Y-119502D01*
X63321Y-119657D01*
X63420Y-119798D01*
X63541Y-119919D01*
X63682Y-120017D01*
X63837Y-120090D01*
X64002Y-120134D01*
X64173Y-120149D01*
X64344Y-120134D01*
X64510Y-120090D01*
X64665Y-120017D01*
X64806Y-119919D01*
X64927Y-119798D01*
X65025Y-119657D01*
X65098Y-119502D01*
X65142Y-119336D01*
X65157Y-119165D01*
X65142Y-118994D01*
X65098Y-118828D01*
X65025Y-118673D01*
X64927Y-118532D01*
X64806Y-118411D01*
X64665Y-118313D01*
X64510Y-118240D01*
X64344Y-118196D01*
X64173Y-118181D01*
D01*
D02*
G37*
G36*
X191073Y-72442D02*
X191085Y-72579D01*
X191120Y-72711D01*
X191178Y-72835D01*
X191256Y-72947D01*
X191353Y-73044D01*
X191465Y-73122D01*
X191589Y-73180D01*
X191721Y-73215D01*
X191858Y-73227D01*
X191994Y-73215D01*
X192126Y-73180D01*
X192250Y-73122D01*
X192362Y-73044D01*
X192459Y-72947D01*
X192537Y-72835D01*
X192595Y-72711D01*
X192631Y-72579D01*
X192642Y-72442D01*
X192631Y-72306D01*
X192595Y-72174D01*
X192537Y-72050D01*
X192459Y-71938D01*
X192362Y-71841D01*
X192250Y-71763D01*
X192126Y-71705D01*
X191994Y-71669D01*
X191858Y-71657D01*
X191721Y-71669D01*
X191589Y-71705D01*
X191465Y-71763D01*
X191353Y-71841D01*
X191256Y-71938D01*
X191178Y-72050D01*
X191120Y-72174D01*
X191085Y-72306D01*
X191073Y-72442D01*
D01*
D02*
G37*
G36*
X198806Y-183264D02*
Y-178148D01*
X193699Y-183264D01*
X198806D01*
D02*
G37*
G36*
X202741Y-182481D02*
X202752Y-182617D01*
X202788Y-182750D01*
X202847Y-182874D01*
X202926Y-182987D01*
X203023Y-183084D01*
X203137Y-183163D01*
X203262Y-183221D01*
X203395Y-183256D01*
X203533Y-183268D01*
X203670Y-183256D01*
X203803Y-183221D01*
X203929Y-183163D01*
X204042Y-183084D01*
X204140Y-182987D01*
X204219Y-182874D01*
X204277Y-182750D01*
X204313Y-182617D01*
X204325Y-182481D01*
X204313Y-182344D01*
X204277Y-182211D01*
X204219Y-182087D01*
X204140Y-181974D01*
X204042Y-181877D01*
X203929Y-181798D01*
X203803Y-181740D01*
X203670Y-181705D01*
X203533Y-181693D01*
X203395Y-181705D01*
X203262Y-181740D01*
X203137Y-181798D01*
X203023Y-181877D01*
X202926Y-181974D01*
X202847Y-182087D01*
X202788Y-182211D01*
X202752Y-182344D01*
X202741Y-182481D01*
D01*
D02*
G37*
G36*
X205801Y-250508D02*
X205935Y-250497D01*
X206065Y-250461D01*
X206186Y-250405D01*
X206296Y-250328D01*
X206391Y-250232D01*
X206468Y-250122D01*
X206525Y-250000D01*
X206560Y-249870D01*
X206572Y-249737D01*
X206560Y-249602D01*
X206525Y-249472D01*
X206468Y-249351D01*
X206391Y-249240D01*
X206296Y-249145D01*
X206186Y-249068D01*
X206065Y-249011D01*
X205935Y-248977D01*
X205801Y-248965D01*
X205668Y-248977D01*
X205538Y-249011D01*
X205416Y-249068D01*
X205306Y-249145D01*
X205211Y-249240D01*
X205134Y-249351D01*
X205078Y-249472D01*
X205043Y-249602D01*
X205031Y-249737D01*
X205043Y-249870D01*
X205078Y-250000D01*
X205134Y-250122D01*
X205211Y-250232D01*
X205306Y-250328D01*
X205416Y-250405D01*
X205538Y-250461D01*
X205668Y-250497D01*
X205801Y-250508D01*
D01*
D02*
G37*
G36*
X495276Y-263189D02*
X495446Y-263174D01*
X495612Y-263129D01*
X495767Y-263057D01*
X495908Y-262959D01*
X496029Y-262837D01*
X496128Y-262697D01*
X496200Y-262541D01*
X496244Y-262376D01*
X496259Y-262205D01*
X496244Y-262034D01*
X496200Y-261868D01*
X496128Y-261713D01*
X496029Y-261572D01*
X495908Y-261451D01*
X495767Y-261352D01*
X495612Y-261280D01*
X495446Y-261235D01*
X495276Y-261221D01*
X495105Y-261235D01*
X494939Y-261280D01*
X494784Y-261352D01*
X494643Y-261451D01*
X494522Y-261572D01*
X494424Y-261713D01*
X494351Y-261868D01*
X494307Y-262034D01*
X494292Y-262205D01*
X494307Y-262376D01*
X494351Y-262541D01*
X494424Y-262697D01*
X494522Y-262837D01*
X494643Y-262959D01*
X494784Y-263057D01*
X494939Y-263129D01*
X495105Y-263174D01*
X495276Y-263189D01*
D01*
D02*
G37*
G36*
X519149Y-285916D02*
X519015Y-285928D01*
X518885Y-285963D01*
X518764Y-286020D01*
X518653Y-286097D01*
X518559Y-286192D01*
X518482Y-286302D01*
X518425Y-286424D01*
X518391Y-286554D01*
X518379Y-286687D01*
X518391Y-286821D01*
X518425Y-286951D01*
X518482Y-287073D01*
X518559Y-287183D01*
X518653Y-287278D01*
X518764Y-287355D01*
X518885Y-287412D01*
X519015Y-287446D01*
X519149Y-287458D01*
X519282Y-287446D01*
X519412Y-287412D01*
X519533Y-287355D01*
X519644Y-287278D01*
X519739Y-287183D01*
X519815Y-287073D01*
X519872Y-286951D01*
X519907Y-286821D01*
X519918Y-286687D01*
X519907Y-286554D01*
X519872Y-286424D01*
X519815Y-286302D01*
X519739Y-286192D01*
X519644Y-286097D01*
X519533Y-286020D01*
X519412Y-285963D01*
X519282Y-285928D01*
X519149Y-285916D01*
D01*
D02*
G37*
G36*
X502759Y-97241D02*
X498817D01*
X502759Y-101183D01*
Y-97241D01*
D02*
G37*
G36*
X503304Y-93299D02*
X503447Y-93286D01*
X503585Y-93249D01*
X503715Y-93189D01*
X503831Y-93107D01*
X503933Y-93006D01*
X504015Y-92889D01*
X504075Y-92760D01*
X504112Y-92621D01*
X504124Y-92479D01*
X504112Y-92337D01*
X504075Y-92198D01*
X504015Y-92069D01*
X503933Y-91952D01*
X503831Y-91851D01*
X503715Y-91769D01*
X503585Y-91709D01*
X503447Y-91672D01*
X503304Y-91659D01*
X503162Y-91672D01*
X503024Y-91709D01*
X502894Y-91769D01*
X502778Y-91851D01*
X502676Y-91952D01*
X502595Y-92069D01*
X502534Y-92198D01*
X502497Y-92337D01*
X502485Y-92479D01*
X502497Y-92621D01*
X502534Y-92760D01*
X502595Y-92889D01*
X502676Y-93006D01*
X502778Y-93107D01*
X502894Y-93189D01*
X503024Y-93249D01*
X503162Y-93286D01*
X503304Y-93299D01*
D01*
D02*
G37*
G36*
X564173Y-294685D02*
X564002Y-294700D01*
X563837Y-294744D01*
X563682Y-294817D01*
X563541Y-294915D01*
X563420Y-295037D01*
X563321Y-295177D01*
X563249Y-295333D01*
X563204Y-295498D01*
X563189Y-295669D01*
X563204Y-295840D01*
X563249Y-296006D01*
X563321Y-296161D01*
X563420Y-296302D01*
X563541Y-296423D01*
X563682Y-296522D01*
X563837Y-296594D01*
X564002Y-296639D01*
X564173Y-296654D01*
X564344Y-296639D01*
X564510Y-296594D01*
X564665Y-296522D01*
X564806Y-296423D01*
X564927Y-296302D01*
X565025Y-296161D01*
X565098Y-296006D01*
X565142Y-295840D01*
X565157Y-295669D01*
X565142Y-295498D01*
X565098Y-295333D01*
X565025Y-295177D01*
X564927Y-295037D01*
X564806Y-294915D01*
X564665Y-294817D01*
X564510Y-294744D01*
X564344Y-294700D01*
X564173Y-294685D01*
D01*
D02*
G37*
G36*
X643765Y-240163D02*
X643970Y-240145D01*
X644169Y-240092D01*
X644356Y-240005D01*
X644524Y-239887D01*
X644670Y-239742D01*
X644788Y-239573D01*
X644875Y-239387D01*
X644928Y-239188D01*
X644946Y-238983D01*
X644928Y-238778D01*
X644875Y-238580D01*
X644788Y-238393D01*
X644670Y-238224D01*
X644524Y-238079D01*
X644356Y-237961D01*
X644169Y-237874D01*
X643970Y-237821D01*
X643765Y-237803D01*
X643560Y-237821D01*
X643361Y-237874D01*
X643175Y-237961D01*
X643006Y-238079D01*
X642861Y-238224D01*
X642742Y-238393D01*
X642656Y-238580D01*
X642602Y-238778D01*
X642584Y-238983D01*
X642602Y-239188D01*
X642656Y-239387D01*
X642742Y-239573D01*
X642861Y-239742D01*
X643006Y-239887D01*
X643175Y-240005D01*
X643361Y-240092D01*
X643560Y-240145D01*
X643765Y-240163D01*
D01*
D02*
G37*
G36*
X603745Y-206298D02*
X603727Y-206093D01*
X603673Y-205894D01*
X603586Y-205708D01*
X603468Y-205539D01*
X603322Y-205393D01*
X603153Y-205276D01*
X602966Y-205189D01*
X602767Y-205135D01*
X602561Y-205117D01*
X602355Y-205135D01*
X602156Y-205189D01*
X601969Y-205276D01*
X601800Y-205393D01*
X601654Y-205539D01*
X601536Y-205708D01*
X601448Y-205894D01*
X601395Y-206093D01*
X601377Y-206298D01*
X601395Y-206503D01*
X601448Y-206702D01*
X601536Y-206889D01*
X601654Y-207057D01*
X601800Y-207203D01*
X601969Y-207320D01*
X602156Y-207407D01*
X602355Y-207461D01*
X602561Y-207479D01*
X602767Y-207461D01*
X602966Y-207407D01*
X603153Y-207320D01*
X603322Y-207203D01*
X603468Y-207057D01*
X603586Y-206889D01*
X603673Y-206702D01*
X603727Y-206503D01*
X603745Y-206298D01*
D01*
D02*
G37*
G36*
X628740Y-170866D02*
X628911Y-170851D01*
X629077Y-170807D01*
X629232Y-170734D01*
X629372Y-170636D01*
X629494Y-170515D01*
X629592Y-170374D01*
X629665Y-170219D01*
X629709Y-170053D01*
X629724Y-169882D01*
X629709Y-169711D01*
X629665Y-169545D01*
X629592Y-169390D01*
X629494Y-169249D01*
X629372Y-169128D01*
X629232Y-169029D01*
X629077Y-168957D01*
X628911Y-168913D01*
X628740Y-168898D01*
X628569Y-168913D01*
X628404Y-168957D01*
X628248Y-169029D01*
X628108Y-169128D01*
X627987Y-169249D01*
X627888Y-169390D01*
X627816Y-169545D01*
X627771Y-169711D01*
X627756Y-169882D01*
X627771Y-170053D01*
X627816Y-170219D01*
X627888Y-170374D01*
X627987Y-170515D01*
X628108Y-170636D01*
X628248Y-170734D01*
X628404Y-170807D01*
X628569Y-170851D01*
X628740Y-170866D01*
D01*
D02*
G37*
G36*
X555118Y-165748D02*
X555289Y-165733D01*
X555455Y-165689D01*
X555610Y-165616D01*
X555750Y-165518D01*
X555872Y-165396D01*
X555970Y-165256D01*
X556042Y-165100D01*
X556087Y-164935D01*
X556102Y-164764D01*
X556087Y-164593D01*
X556042Y-164427D01*
X555970Y-164272D01*
X555872Y-164131D01*
X555750Y-164010D01*
X555610Y-163911D01*
X555455Y-163839D01*
X555289Y-163795D01*
X555118Y-163779D01*
X554947Y-163795D01*
X554781Y-163839D01*
X554626Y-163911D01*
X554486Y-164010D01*
X554365Y-164131D01*
X554266Y-164272D01*
X554194Y-164427D01*
X554149Y-164593D01*
X554134Y-164764D01*
X554149Y-164935D01*
X554194Y-165100D01*
X554266Y-165256D01*
X554365Y-165396D01*
X554486Y-165518D01*
X554626Y-165616D01*
X554781Y-165689D01*
X554947Y-165733D01*
X555118Y-165748D01*
D01*
D02*
G37*
G36*
X596850Y-168110D02*
X597021Y-168095D01*
X597187Y-168051D01*
X597342Y-167978D01*
X597483Y-167880D01*
X597604Y-167759D01*
X597702Y-167618D01*
X597775Y-167463D01*
X597819Y-167297D01*
X597834Y-167126D01*
X597819Y-166955D01*
X597775Y-166789D01*
X597702Y-166634D01*
X597604Y-166493D01*
X597483Y-166372D01*
X597342Y-166274D01*
X597187Y-166201D01*
X597021Y-166157D01*
X596850Y-166142D01*
X596679Y-166157D01*
X596514Y-166201D01*
X596359Y-166274D01*
X596218Y-166372D01*
X596097Y-166493D01*
X595998Y-166634D01*
X595926Y-166789D01*
X595882Y-166955D01*
X595866Y-167126D01*
X595882Y-167297D01*
X595926Y-167463D01*
X595998Y-167618D01*
X596097Y-167759D01*
X596218Y-167880D01*
X596359Y-167978D01*
X596514Y-168051D01*
X596679Y-168095D01*
X596850Y-168110D01*
D01*
D02*
G37*
G36*
X615354Y-164173D02*
X615339Y-164002D01*
X615295Y-163837D01*
X615222Y-163681D01*
X615124Y-163541D01*
X615003Y-163420D01*
X614862Y-163321D01*
X614707Y-163249D01*
X614541Y-163204D01*
X614370Y-163189D01*
X614199Y-163204D01*
X614034Y-163249D01*
X613878Y-163321D01*
X613737Y-163420D01*
X613616Y-163541D01*
X613518Y-163681D01*
X613445Y-163837D01*
X613401Y-164002D01*
X613386Y-164173D01*
X613401Y-164344D01*
X613445Y-164510D01*
X613518Y-164665D01*
X613616Y-164805D01*
X613737Y-164927D01*
X613878Y-165025D01*
X614034Y-165098D01*
X614199Y-165142D01*
X614370Y-165157D01*
X614541Y-165142D01*
X614707Y-165098D01*
X614862Y-165025D01*
X615003Y-164927D01*
X615124Y-164805D01*
X615222Y-164665D01*
X615295Y-164510D01*
X615339Y-164344D01*
X615354Y-164173D01*
D01*
D02*
G37*
G36*
X698596Y-57300D02*
X698761Y-57345D01*
X698917Y-57417D01*
X699057Y-57515D01*
X699178Y-57637D01*
X699277Y-57777D01*
X699349Y-57932D01*
X699394Y-58098D01*
X699409Y-58268D01*
X699394Y-58439D01*
X699349Y-58604D01*
X699277Y-58759D01*
X699178Y-58900D01*
X699057Y-59021D01*
X698917Y-59119D01*
X698761Y-59192D01*
X698596Y-59236D01*
X698425Y-59251D01*
X698254Y-59236D01*
X698088Y-59192D01*
X697933Y-59119D01*
X697792Y-59021D01*
X697671Y-58900D01*
X697573Y-58759D01*
X697500Y-58604D01*
X697456Y-58439D01*
X697441Y-58268D01*
X697456Y-58098D01*
X697500Y-57932D01*
X697573Y-57777D01*
X697671Y-57637D01*
X697792Y-57515D01*
X697933Y-57417D01*
X698088Y-57345D01*
X698254Y-57300D01*
X698425Y-57285D01*
X698596Y-57300D01*
D02*
G37*
G36*
X601942Y-110055D02*
X602108Y-110099D01*
X602264Y-110172D01*
X602404Y-110270D01*
X602526Y-110391D01*
X602624Y-110532D01*
X602697Y-110687D01*
X602741Y-110853D01*
X602756Y-111024D01*
X602741Y-111195D01*
X602697Y-111360D01*
X602624Y-111515D01*
X602526Y-111656D01*
X602404Y-111777D01*
X602264Y-111876D01*
X602108Y-111948D01*
X601942Y-111993D01*
X601772Y-112007D01*
X601601Y-111993D01*
X601435Y-111948D01*
X601279Y-111876D01*
X601139Y-111777D01*
X601018Y-111656D01*
X600919Y-111515D01*
X600847Y-111360D01*
X600802Y-111195D01*
X600787Y-111024D01*
X600802Y-110853D01*
X600847Y-110687D01*
X600919Y-110532D01*
X601018Y-110391D01*
X601139Y-110270D01*
X601279Y-110172D01*
X601435Y-110099D01*
X601601Y-110055D01*
X601772Y-110040D01*
X601942Y-110055D01*
D02*
G37*
G36*
Y-123047D02*
X602108Y-123091D01*
X602264Y-123164D01*
X602404Y-123262D01*
X602526Y-123383D01*
X602624Y-123524D01*
X602697Y-123679D01*
X602741Y-123845D01*
X602756Y-124016D01*
X602741Y-124187D01*
X602697Y-124352D01*
X602624Y-124507D01*
X602526Y-124648D01*
X602404Y-124769D01*
X602264Y-124868D01*
X602108Y-124940D01*
X601942Y-124985D01*
X601772Y-125000D01*
X601601Y-124985D01*
X601435Y-124940D01*
X601279Y-124868D01*
X601139Y-124769D01*
X601018Y-124648D01*
X600919Y-124507D01*
X600847Y-124352D01*
X600802Y-124187D01*
X600787Y-124016D01*
X600802Y-123845D01*
X600847Y-123679D01*
X600919Y-123524D01*
X601018Y-123383D01*
X601139Y-123262D01*
X601279Y-123164D01*
X601435Y-123091D01*
X601601Y-123047D01*
X601772Y-123032D01*
X601942Y-123047D01*
D02*
G37*
G36*
X574580Y-125212D02*
X574746Y-125256D01*
X574901Y-125329D01*
X575042Y-125427D01*
X575163Y-125548D01*
X575261Y-125689D01*
X575334Y-125845D01*
X575378Y-126010D01*
X575393Y-126181D01*
X575378Y-126352D01*
X575334Y-126518D01*
X575261Y-126673D01*
X575163Y-126814D01*
X575042Y-126935D01*
X574901Y-127033D01*
X574746Y-127106D01*
X574580Y-127150D01*
X574409Y-127165D01*
X574239Y-127150D01*
X574073Y-127106D01*
X573918Y-127033D01*
X573777Y-126935D01*
X573656Y-126814D01*
X573558Y-126673D01*
X573485Y-126518D01*
X573441Y-126352D01*
X573426Y-126181D01*
X573441Y-126010D01*
X573485Y-125845D01*
X573558Y-125689D01*
X573656Y-125548D01*
X573777Y-125427D01*
X573918Y-125329D01*
X574073Y-125256D01*
X574239Y-125212D01*
X574409Y-125197D01*
X574580Y-125212D01*
D02*
G37*
G36*
X554895Y-125605D02*
X555061Y-125650D01*
X555216Y-125723D01*
X555357Y-125821D01*
X555478Y-125942D01*
X555576Y-126083D01*
X555649Y-126238D01*
X555693Y-126404D01*
X555708Y-126575D01*
X555693Y-126746D01*
X555649Y-126911D01*
X555576Y-127067D01*
X555478Y-127208D01*
X555357Y-127329D01*
X555216Y-127427D01*
X555061Y-127500D01*
X554895Y-127544D01*
X554724Y-127559D01*
X554554Y-127544D01*
X554388Y-127500D01*
X554233Y-127427D01*
X554092Y-127329D01*
X553971Y-127208D01*
X553872Y-127067D01*
X553800Y-126911D01*
X553756Y-126746D01*
X553741Y-126575D01*
X553756Y-126404D01*
X553800Y-126238D01*
X553872Y-126083D01*
X553971Y-125942D01*
X554092Y-125821D01*
X554233Y-125723D01*
X554388Y-125650D01*
X554554Y-125605D01*
X554724Y-125591D01*
X554895Y-125605D01*
D02*
G37*
G36*
X543171Y-143598D02*
X543337Y-143642D01*
X543492Y-143715D01*
X543632Y-143813D01*
X543753Y-143934D01*
X543852Y-144075D01*
X543924Y-144230D01*
X543969Y-144396D01*
X543984Y-144567D01*
X543969Y-144738D01*
X543924Y-144904D01*
X543852Y-145059D01*
X543753Y-145200D01*
X543632Y-145321D01*
X543492Y-145419D01*
X543337Y-145492D01*
X543171Y-145536D01*
X543000Y-145551D01*
X542829Y-145536D01*
X542663Y-145492D01*
X542508Y-145419D01*
X542368Y-145321D01*
X542246Y-145200D01*
X542148Y-145059D01*
X542076Y-144904D01*
X542031Y-144738D01*
X542016Y-144567D01*
X542031Y-144396D01*
X542076Y-144230D01*
X542148Y-144075D01*
X542246Y-143934D01*
X542368Y-143813D01*
X542508Y-143715D01*
X542663Y-143642D01*
X542829Y-143598D01*
X543000Y-143583D01*
X543171Y-143598D01*
D02*
G37*
G36*
X614541Y-150212D02*
X614707Y-150257D01*
X614862Y-150329D01*
X615003Y-150428D01*
X615124Y-150549D01*
X615222Y-150689D01*
X615295Y-150845D01*
X615339Y-151010D01*
X615354Y-151181D01*
X615339Y-151352D01*
X615295Y-151518D01*
X615222Y-151673D01*
X615124Y-151813D01*
X615003Y-151935D01*
X614862Y-152033D01*
X614707Y-152105D01*
X614541Y-152150D01*
X614370Y-152165D01*
X614199Y-152150D01*
X614034Y-152105D01*
X613878Y-152033D01*
X613737Y-151935D01*
X613616Y-151813D01*
X613518Y-151673D01*
X613445Y-151518D01*
X613401Y-151352D01*
X613386Y-151181D01*
X613401Y-151010D01*
X613445Y-150845D01*
X613518Y-150689D01*
X613616Y-150549D01*
X613737Y-150428D01*
X613878Y-150329D01*
X614034Y-150257D01*
X614199Y-150212D01*
X614370Y-150197D01*
X614541Y-150212D01*
D02*
G37*
D10*
X232185Y-48228D02*
X231447Y-47802D01*
Y-48654D01*
X232185Y-48228D01*
D11*
X66969Y-203544D02*
X67954Y-203280D01*
X68675Y-202559D01*
X68939Y-201575D01*
X68675Y-200590D01*
X67954Y-199869D01*
X66969Y-199606D01*
X154629Y-219685D02*
X153645Y-219949D01*
X152924Y-220670D01*
X152660Y-221654D01*
X152924Y-222638D01*
X153645Y-223359D01*
X154629Y-223623D01*
X48424Y-220511D02*
X47440Y-220775D01*
X46719Y-221496D01*
X46455Y-222480D01*
X46719Y-223465D01*
X47440Y-224186D01*
X48424Y-224450D01*
X575986Y-126067D02*
X576016Y-127013D01*
X576361Y-127895D01*
X576983Y-128609D01*
X577808Y-129074D01*
X578741Y-129235D01*
X579674Y-129074D01*
X580499Y-128609D01*
X581120Y-127895D01*
X581465Y-127013D01*
X581495Y-126067D01*
X603829Y-261328D02*
X604820Y-261063D01*
X605545Y-260337D01*
X605811Y-259347D01*
X605545Y-258356D01*
X604820Y-257631D01*
X603829Y-257366D01*
X455676Y-40318D02*
X454699Y-40456D01*
X453741Y-40697D01*
X452814Y-41037D01*
X451928Y-41474D01*
X451094Y-42002D01*
X450320Y-42616D01*
X449615Y-43307D01*
X448987Y-44070D01*
X448444Y-44894D01*
X447990Y-45772D01*
X447633Y-46692D01*
X447374Y-47645D01*
X447218Y-48620D01*
X447165Y-49606D01*
X447218Y-50592D01*
X447374Y-51568D01*
X447633Y-52521D01*
X447990Y-53441D01*
X448444Y-54318D01*
X448987Y-55143D01*
X449615Y-55905D01*
X450320Y-56597D01*
X451094Y-57210D01*
X451928Y-57738D01*
X452814Y-58175D01*
X453741Y-58516D01*
X454699Y-58756D01*
X455676Y-58894D01*
X483591D02*
X484569Y-58756D01*
X485527Y-58516D01*
X486454Y-58175D01*
X487339Y-57738D01*
X488174Y-57210D01*
X488948Y-56597D01*
X489653Y-55905D01*
X490280Y-55143D01*
X490824Y-54318D01*
X491277Y-53441D01*
X491635Y-52521D01*
X491894Y-51568D01*
X492050Y-50592D01*
X492102Y-49606D01*
X492050Y-48620D01*
X491894Y-47645D01*
X491635Y-46692D01*
X491277Y-45772D01*
X490824Y-44894D01*
X490280Y-44070D01*
X489653Y-43307D01*
X488948Y-42616D01*
X488174Y-42002D01*
X487339Y-41474D01*
X486454Y-41037D01*
X485527Y-40697D01*
X484569Y-40456D01*
X483591Y-40318D01*
X253882Y-175737D02*
X252939Y-175903D01*
X252109Y-176382D01*
X251494Y-177116D01*
X251166Y-178015D01*
Y-178973D01*
X251494Y-179873D01*
X252109Y-180606D01*
X252939Y-181085D01*
X253882Y-181251D01*
X488880Y-28716D02*
X487934Y-28317D01*
X486918Y-28163D01*
X485895Y-28264D01*
X484929Y-28613D01*
Y-35954D02*
X485895Y-36303D01*
X486918Y-36404D01*
X487934Y-36250D01*
X488880Y-35851D01*
X299567Y-260906D02*
X319567D01*
Y-200905D01*
X299567D02*
X319567D01*
X299567Y-260906D02*
Y-200905D01*
X197837Y-71652D02*
X202951D01*
X221065Y-72046D02*
X226179D01*
X257088Y-80116D02*
Y-75002D01*
X241945Y-88096D02*
Y-82982D01*
X277933Y-47873D02*
X287933D01*
X277933Y-67875D02*
Y-47873D01*
Y-67875D02*
X287933D01*
Y-47873D01*
X188761Y-41340D02*
Y-39962D01*
X187383D02*
X188761D01*
X153346Y-75392D02*
X154724D01*
X153346D02*
Y-74014D01*
Y-39962D02*
X154724D01*
X153346Y-41340D02*
Y-39962D01*
X187587Y-75787D02*
X189156Y-74214D01*
X246812Y-70906D02*
Y-45944D01*
Y-70906D02*
X267361D01*
Y-45944D01*
X246812D02*
X267361D01*
X124029Y-183264D02*
X198806D01*
X124029D02*
Y-108468D01*
X198806D01*
Y-183264D02*
Y-108468D01*
X554093Y-274806D02*
Y-264175D01*
X513938Y-274806D02*
Y-264175D01*
Y-274806D02*
X554093D01*
X508937Y-246339D02*
Y-226339D01*
X408937D02*
X508937D01*
X408937Y-246339D02*
Y-226339D01*
Y-246339D02*
X508937D01*
X653059Y-202808D02*
Y-192808D01*
Y-202808D02*
X673061D01*
Y-192808D01*
X653059D02*
X673061D01*
X41063Y-139883D02*
X62217Y-139921D01*
X67834Y-140000D02*
X67914Y-171457D01*
X41143Y-171378D02*
X67953Y-171419D01*
X62217Y-139921D02*
X67834D01*
X41102Y-171260D02*
Y-139962D01*
X66968Y-199606D02*
Y-196456D01*
Y-206694D02*
Y-203544D01*
X100827Y-206694D02*
Y-196456D01*
X66968D02*
X100827D01*
X66968Y-206694D02*
X100827D01*
X56302Y-187798D02*
X58658D01*
X56302Y-194091D02*
X58658D01*
X173805Y-218701D02*
X187218D01*
X173805Y-226181D02*
X187218D01*
X173805D02*
Y-218701D01*
X187218Y-226181D02*
Y-218701D01*
X52557Y-137203D02*
Y-132089D01*
X205905Y-269685D02*
Y-258661D01*
X179922Y-269685D02*
Y-258661D01*
Y-269685D02*
X205905D01*
X179922Y-258661D02*
X205905D01*
X215901Y-242400D02*
X247901D01*
X263901D02*
X295901D01*
X247901Y-245400D02*
Y-242400D01*
Y-245400D02*
X263901D01*
Y-242400D01*
X215901Y-277400D02*
X295901D01*
X215901D02*
Y-242400D01*
X295901Y-277400D02*
Y-242400D01*
X215901Y-264902D02*
X218397D01*
Y-254899D01*
X215901D02*
X218397D01*
X293405Y-264902D02*
X295901D01*
X293405D02*
Y-254899D01*
X295901D01*
X172045Y-245667D02*
Y-240553D01*
X56302Y-179137D02*
X58658D01*
X56302Y-185430D02*
X58658D01*
X171260Y-226772D02*
X185433D01*
X171260Y-238583D02*
X185433D01*
X735632Y-89370D02*
Y-83465D01*
Y-118898D02*
Y-112992D01*
X687599Y-124803D02*
X693112D01*
X703346D02*
X714372D01*
X732677Y-118898D02*
X735632D01*
X687599Y-77559D02*
X693112D01*
X703346D02*
X714372D01*
X732677Y-83465D02*
X735632D01*
X721458Y-124803D02*
X724215D01*
X721458Y-77559D02*
X724215D01*
X687599Y-124803D02*
Y-77559D01*
X735632Y-235039D02*
Y-229134D01*
Y-264567D02*
Y-258661D01*
X687599Y-270472D02*
X693112D01*
X703346D02*
X714372D01*
X732677Y-264567D02*
X735632D01*
X687599Y-223228D02*
X693112D01*
X703346D02*
X714372D01*
X732677Y-229134D02*
X735632D01*
X721458Y-270472D02*
X724215D01*
X721458Y-223228D02*
X724215D01*
X687599Y-270472D02*
Y-223228D01*
X557285Y-208467D02*
Y-196850D01*
X598227Y-208467D02*
Y-196850D01*
X557285D02*
X598227D01*
X557285Y-237795D02*
X598227D01*
X557285D02*
Y-226179D01*
X598227Y-237795D02*
Y-226179D01*
X608464Y-222836D02*
X614765D01*
X608464Y-235432D02*
X614765D01*
X562010Y-124609D02*
X567124D01*
X451572Y-97241D02*
X502759D01*
X451572Y-148428D02*
Y-97241D01*
Y-148428D02*
X502759D01*
Y-97241D01*
X71220Y-242481D02*
X96182D01*
X71220Y-263031D02*
Y-242481D01*
Y-263031D02*
X96182D01*
Y-242481D01*
X154624Y-227952D02*
Y-223623D01*
Y-219685D02*
Y-215355D01*
X116045Y-227952D02*
Y-215355D01*
Y-227952D02*
X154624D01*
X116045Y-215355D02*
X154624D01*
X48426Y-227599D02*
Y-224450D01*
Y-220511D02*
Y-217361D01*
X14567Y-227599D02*
Y-217361D01*
Y-227599D02*
X48426D01*
X14567Y-217361D02*
X48426D01*
X56352Y-108493D02*
Y-105344D01*
X44541Y-108493D02*
Y-105344D01*
Y-108493D02*
X56352D01*
X44541Y-105344D02*
X56352D01*
X733860Y-36614D02*
X738779D01*
X712124D02*
X720549D01*
X701773Y-42914D02*
Y-40159D01*
Y-63778D02*
Y-61023D01*
X712124Y-67323D02*
X720549D01*
X733860D02*
X738779D01*
Y-36614D01*
X735632Y-137992D02*
Y-132087D01*
Y-167520D02*
Y-161614D01*
X687599Y-173425D02*
X693112D01*
X703346D02*
X714372D01*
X732677Y-167520D02*
X735632D01*
X687599Y-126181D02*
X693112D01*
X703346D02*
X714372D01*
X732677Y-132087D02*
X735632D01*
X721458Y-173425D02*
X724215D01*
X721458Y-126181D02*
X724215D01*
X687599Y-173425D02*
Y-126181D01*
X735632Y-186614D02*
Y-180709D01*
Y-216142D02*
Y-210236D01*
X687599Y-222047D02*
X693112D01*
X703346D02*
X714372D01*
X732677Y-216142D02*
X735632D01*
X687599Y-174803D02*
X693112D01*
X703346D02*
X714372D01*
X732677Y-180709D02*
X735632D01*
X721458Y-222047D02*
X724215D01*
X721458Y-174803D02*
X724215D01*
X687599Y-222047D02*
Y-174803D01*
X589016Y-50512D02*
Y-30512D01*
X549016D02*
X589016D01*
X549016Y-50512D02*
Y-30512D01*
Y-50512D02*
X589016D01*
X581497Y-126083D02*
X588191D01*
X569290D02*
X575984D01*
X569290Y-167028D02*
X588191D01*
Y-126083D01*
X569290Y-167028D02*
Y-126083D01*
X590945Y-186220D02*
Y-172047D01*
X602756Y-186220D02*
Y-172047D01*
X646065Y-172050D02*
X651179D01*
X619291Y-170079D02*
X633464D01*
X619291Y-158268D02*
X633464D01*
X562010Y-182483D02*
X567124D01*
X604724Y-216732D02*
X604726Y-217323D01*
X607682Y-220276D01*
X621652D01*
X621654Y-216732D01*
X604724Y-206890D02*
X604726Y-206299D01*
X607682Y-203346D01*
X621652D01*
X621654Y-206890D01*
X621952Y-254161D02*
X623527D01*
X621952Y-264533D02*
X623527D01*
X603842Y-257366D02*
Y-254219D01*
Y-264474D02*
Y-261328D01*
X623527Y-264474D02*
Y-254219D01*
X603842D02*
X605811D01*
X603842Y-264533D02*
X605811D01*
X570079Y-290748D02*
Y-276575D01*
X558268Y-290748D02*
Y-276575D01*
X594561Y-281280D02*
Y-276166D01*
X652561Y-252955D02*
X657675D01*
X455667Y-58894D02*
X483600D01*
X455667Y-40319D02*
X483600D01*
X431297Y-52163D02*
Y-47049D01*
X508270Y-53148D02*
Y-48033D01*
X486223Y-23620D02*
Y-18506D01*
X486809Y-23817D02*
Y-18703D01*
X469891Y-278927D02*
X475005D01*
X253880Y-187154D02*
Y-181251D01*
Y-175737D02*
Y-169834D01*
X233407Y-187154D02*
Y-169834D01*
Y-187154D02*
X253880D01*
X233407Y-169834D02*
X253880D01*
X114133Y-265709D02*
X139095D01*
X114133Y-286259D02*
Y-265709D01*
Y-286259D02*
X139095D01*
Y-265709D01*
X153740Y-275408D02*
Y-261994D01*
X146260Y-275408D02*
Y-261994D01*
X153740D01*
X146260Y-275408D02*
X153740D01*
X171852Y-264368D02*
X176967D01*
X113191Y-237990D02*
X118305D01*
X139175Y-243108D02*
X144289D01*
X85238Y-291538D02*
X90352D01*
X39106Y-75691D02*
X52520D01*
X39106Y-83171D02*
X52520D01*
X39106D02*
Y-75691D01*
X52520Y-83171D02*
Y-75691D01*
X40159Y-135630D02*
Y-134450D01*
Y-121850D02*
Y-120669D01*
X30316Y-135630D02*
X40159D01*
X30316Y-120669D02*
X40159D01*
X20869Y-187405D02*
X23225D01*
X20869Y-193698D02*
X23225D01*
X20869D02*
Y-187405D01*
X21614Y-193698D02*
Y-187405D01*
X40948Y-197635D02*
Y-195279D01*
X47241Y-197635D02*
Y-195279D01*
X40948Y-197635D02*
X47241D01*
X40948Y-196890D02*
X47241D01*
X27519Y-263741D02*
X52481D01*
X27519Y-284291D02*
Y-263741D01*
Y-284291D02*
X52481D01*
Y-263741D01*
X21263Y-248816D02*
Y-246460D01*
X27556Y-248816D02*
Y-246460D01*
X21263Y-248816D02*
X27556D01*
X21263Y-248071D02*
X27556D01*
X43310Y-249209D02*
Y-246853D01*
X49603Y-249209D02*
Y-246853D01*
X43310Y-249209D02*
X49603D01*
X43310Y-248465D02*
X49603D01*
X606693Y-129921D02*
X620866D01*
X606693Y-118110D02*
X620866D01*
X606693Y-116929D02*
X620866D01*
X606693Y-105118D02*
X620866D01*
X619291Y-157087D02*
X633464D01*
X619291Y-145276D02*
X633464D01*
X495081Y-176971D02*
X500195D01*
X38812Y-94793D02*
Y-89679D01*
X20869Y-179137D02*
X23225D01*
X20869Y-185430D02*
X23225D01*
X20869D02*
Y-179137D01*
X21614Y-185430D02*
Y-179137D01*
X51184Y-238186D02*
Y-235830D01*
X57477Y-238186D02*
Y-235830D01*
X32125Y-300394D02*
Y-290393D01*
Y-300394D02*
X52127D01*
Y-290393D01*
X32125D02*
X52127D01*
X580315Y-121260D02*
Y-107087D01*
X568504Y-121260D02*
Y-107087D01*
X581892Y-124412D02*
X587006D01*
X560630Y-121654D02*
Y-107481D01*
X548819Y-121654D02*
Y-107481D01*
X70079Y-114244D02*
Y-100071D01*
X58268Y-114244D02*
Y-100071D01*
X636813Y-172242D02*
X641927D01*
X622835Y-188976D02*
Y-174803D01*
X634646Y-188976D02*
Y-174803D01*
X638781Y-141139D02*
X643896D01*
X629397Y-241348D02*
X633137D01*
X625066Y-245678D02*
X629397Y-241348D01*
X625066Y-267329D02*
Y-245678D01*
Y-267329D02*
X633137Y-267332D01*
X642979Y-241348D02*
X646719D01*
X651050Y-245678D01*
Y-267329D02*
Y-245678D01*
X642979Y-267332D02*
X651050Y-267329D01*
X619491Y-201376D02*
Y-196262D01*
X583663Y-183664D02*
X588778D01*
X574215Y-278935D02*
X579329D01*
X537094Y-163661D02*
Y-149488D01*
X548906Y-163661D02*
Y-149488D01*
X550986Y-160829D02*
X556100D01*
X549213Y-183858D02*
Y-169685D01*
X561024Y-183858D02*
Y-169685D01*
X489370Y-281299D02*
Y-267126D01*
X501181Y-281299D02*
Y-267126D01*
X479333Y-278939D02*
X484447D01*
X158466Y-212005D02*
X163581D01*
X169685Y-276969D02*
Y-262796D01*
X157874Y-276969D02*
Y-262796D01*
X161617Y-249801D02*
Y-244687D01*
X127443Y-238412D02*
X132557D01*
X104530Y-291538D02*
X109644D01*
X71336Y-289959D02*
Y-284844D01*
X71852Y-284057D02*
X76967D01*
X32680Y-197635D02*
Y-195279D01*
X38973Y-197635D02*
Y-195279D01*
X32680Y-197635D02*
X38973D01*
X32680Y-196890D02*
X38973D01*
X35043Y-249209D02*
Y-246853D01*
X41335Y-249209D02*
Y-246853D01*
X35043Y-249209D02*
X41335D01*
X35043Y-248465D02*
X41335D01*
X13389Y-248816D02*
Y-246460D01*
X19682Y-248816D02*
Y-246460D01*
X13389Y-248816D02*
X19682D01*
X13389Y-248071D02*
X19682D01*
X666752Y-256496D02*
X674272D01*
X666752Y-272559D02*
Y-256496D01*
Y-272559D02*
X674272D01*
Y-256496D01*
X505711Y-278939D02*
X510825D01*
X75674Y-127915D02*
Y-122800D01*
X28178Y-114781D02*
Y-109667D01*
X5515Y-237792D02*
Y-235436D01*
X11808Y-237792D02*
Y-235436D01*
X300028Y-191422D02*
Y-196420D01*
X301028Y-197420D01*
X303027D01*
X304027Y-196420D01*
Y-191422D01*
X306026Y-197420D02*
X308026D01*
X307026D01*
Y-191422D01*
X306026Y-192421D01*
X311025Y-196420D02*
X312024Y-197420D01*
X314024D01*
X315023Y-196420D01*
Y-192421D01*
X314024Y-191422D01*
X312024D01*
X311025Y-192421D01*
Y-193421D01*
X312024Y-194421D01*
X315023D01*
X324317Y-251119D02*
Y-255118D01*
X330315D01*
Y-251119D01*
X327316Y-255118D02*
Y-253119D01*
X324317Y-249120D02*
X330315Y-245121D01*
X324317D02*
X330315Y-249120D01*
X324317Y-243122D02*
Y-239123D01*
Y-241123D01*
X330315D01*
X327316Y-237124D02*
Y-233125D01*
X325317Y-227127D02*
X324317Y-228127D01*
Y-230126D01*
X325317Y-231126D01*
X329315D01*
X330315Y-230126D01*
Y-228127D01*
X329315Y-227127D01*
X324317Y-222129D02*
Y-224128D01*
X325317Y-225128D01*
X329315D01*
X330315Y-224128D01*
Y-222129D01*
X329315Y-221129D01*
X325317D01*
X324317Y-222129D01*
X330315Y-219130D02*
X324317D01*
X330315Y-215131D01*
X324317D01*
X330315Y-213132D02*
X324317D01*
X330315Y-209133D01*
X324317D01*
X152472Y-29096D02*
Y-34094D01*
X153472Y-35094D01*
X155471D01*
X156471Y-34094D01*
Y-29096D01*
X158470Y-35094D02*
X160469D01*
X159470D01*
Y-29096D01*
X158470Y-30095D01*
X167467Y-29096D02*
X165468Y-30095D01*
X163469Y-32095D01*
Y-34094D01*
X164468Y-35094D01*
X166467D01*
X167467Y-34094D01*
Y-33094D01*
X166467Y-32095D01*
X163469D01*
X197244Y-70079D02*
Y-64081D01*
X200243D01*
X201243Y-65080D01*
Y-67080D01*
X200243Y-68079D01*
X197244D01*
X199243D02*
X201243Y-70079D01*
X207241Y-64081D02*
X205241Y-65080D01*
X203242Y-67080D01*
Y-69079D01*
X204242Y-70079D01*
X206241D01*
X207241Y-69079D01*
Y-68079D01*
X206241Y-67080D01*
X203242D01*
X209240Y-69079D02*
X210240Y-70079D01*
X212239D01*
X213239Y-69079D01*
Y-65080D01*
X212239Y-64081D01*
X210240D01*
X209240Y-65080D01*
Y-66080D01*
X210240Y-67080D01*
X213239D01*
X196457Y-51181D02*
Y-45183D01*
X199456D01*
X200455Y-46183D01*
Y-48182D01*
X199456Y-49182D01*
X196457D01*
X198456D02*
X200455Y-51181D01*
X206453Y-45183D02*
X204454Y-46183D01*
X202455Y-48182D01*
Y-50181D01*
X203454Y-51181D01*
X205454D01*
X206453Y-50181D01*
Y-49182D01*
X205454Y-48182D01*
X202455D01*
X208453Y-46183D02*
X209453Y-45183D01*
X211452D01*
X212452Y-46183D01*
Y-47182D01*
X211452Y-48182D01*
X212452Y-49182D01*
Y-50181D01*
X211452Y-51181D01*
X209453D01*
X208453Y-50181D01*
Y-49182D01*
X209453Y-48182D01*
X208453Y-47182D01*
Y-46183D01*
X209453Y-48182D02*
X211452D01*
X278802Y-36128D02*
X276802D01*
X277802D01*
Y-41126D01*
X276802Y-42126D01*
X275803D01*
X274803Y-41126D01*
X280801Y-42126D02*
X282801D01*
X281801D01*
Y-36128D01*
X280801Y-37128D01*
X285800D02*
X286799Y-36128D01*
X288799D01*
X289798Y-37128D01*
Y-41126D01*
X288799Y-42126D01*
X286799D01*
X285800Y-41126D01*
Y-37128D01*
X302362Y-71260D02*
X298363D01*
X296364Y-69261D01*
X298363Y-67261D01*
X302362D01*
X299363D01*
Y-71260D01*
X296364Y-65262D02*
X302362D01*
Y-62263D01*
X301362Y-61263D01*
X297364D01*
X296364Y-62263D01*
Y-65262D01*
X297364Y-55265D02*
X296364Y-56265D01*
Y-58264D01*
X297364Y-59264D01*
X301362D01*
X302362Y-58264D01*
Y-56265D01*
X301362Y-55265D01*
X303362Y-53266D02*
Y-49267D01*
X296364Y-47268D02*
Y-45268D01*
Y-46268D01*
X302362D01*
Y-47268D01*
Y-45268D01*
Y-42269D02*
X296364D01*
X302362Y-38271D01*
X296364D01*
X218053Y-38293D02*
Y-43291D01*
X219052Y-44291D01*
X221052D01*
X222052Y-43291D01*
Y-38293D01*
X224051Y-44291D02*
X226050D01*
X225050D01*
Y-38293D01*
X224051Y-39292D01*
X229049Y-38293D02*
X233048D01*
Y-39292D01*
X229049Y-43291D01*
Y-44291D01*
X242735Y-36147D02*
X246733D01*
X244734D01*
Y-42145D01*
X251732D02*
Y-36147D01*
X248733Y-39146D01*
X252731D01*
X206693Y-84646D02*
Y-80710D01*
X208661D01*
X209317Y-81366D01*
Y-82678D01*
X208661Y-83334D01*
X206693D01*
X208005D02*
X209317Y-84646D01*
X213252Y-80710D02*
X211941Y-81366D01*
X210629Y-82678D01*
Y-83990D01*
X211285Y-84646D01*
X212597D01*
X213252Y-83990D01*
Y-83334D01*
X212597Y-82678D01*
X210629D01*
X214564Y-80710D02*
X217188D01*
Y-81366D01*
X214564Y-83990D01*
Y-84646D01*
X129966Y-56445D02*
Y-50447D01*
X132965D01*
X133965Y-51446D01*
Y-53446D01*
X132965Y-54445D01*
X129966D01*
X131965D02*
X133965Y-56445D01*
X139963Y-50447D02*
X137964Y-51446D01*
X135964Y-53446D01*
Y-55445D01*
X136964Y-56445D01*
X138963D01*
X139963Y-55445D01*
Y-54445D01*
X138963Y-53446D01*
X135964D01*
X145961Y-50447D02*
X143962Y-51446D01*
X141962Y-53446D01*
Y-55445D01*
X142962Y-56445D01*
X144961D01*
X145961Y-55445D01*
Y-54445D01*
X144961Y-53446D01*
X141962D01*
X191794Y-89490D02*
X190794Y-88490D01*
X188795D01*
X187795Y-89490D01*
Y-93489D01*
X188795Y-94488D01*
X190794D01*
X191794Y-93489D01*
X193793Y-94488D02*
X195793D01*
X194793D01*
Y-88490D01*
X193793Y-89490D01*
X202790Y-94488D02*
X198792D01*
X202790Y-90490D01*
Y-89490D01*
X201791Y-88490D01*
X199791D01*
X198792Y-89490D01*
X208788Y-94488D02*
X204790D01*
X208788Y-90490D01*
Y-89490D01*
X207789Y-88490D01*
X205789D01*
X204790Y-89490D01*
X221773Y-103088D02*
X220774Y-104088D01*
Y-106087D01*
X221773Y-107087D01*
X225772D01*
X226772Y-106087D01*
Y-104088D01*
X225772Y-103088D01*
X226772Y-101089D02*
Y-99089D01*
Y-100089D01*
X220774D01*
X221773Y-101089D01*
X226772Y-92092D02*
Y-96090D01*
X222773Y-92092D01*
X221773D01*
X220774Y-93091D01*
Y-95091D01*
X221773Y-96090D01*
X226772Y-90092D02*
Y-88093D01*
Y-89092D01*
X220774D01*
X221773Y-90092D01*
X262660Y-75317D02*
X261660Y-74317D01*
X259661D01*
X258661Y-75317D01*
Y-79315D01*
X259661Y-80315D01*
X261660D01*
X262660Y-79315D01*
X264660Y-80315D02*
X266659D01*
X265659D01*
Y-74317D01*
X264660Y-75317D01*
X269658Y-80315D02*
X271657D01*
X270657D01*
Y-74317D01*
X269658Y-75317D01*
X274656Y-79315D02*
X275656Y-80315D01*
X277655D01*
X278655Y-79315D01*
Y-75317D01*
X277655Y-74317D01*
X275656D01*
X274656Y-75317D01*
Y-76316D01*
X275656Y-77316D01*
X278655D01*
X261479Y-83191D02*
X260479Y-82191D01*
X258480D01*
X257480Y-83191D01*
Y-87189D01*
X258480Y-88189D01*
X260479D01*
X261479Y-87189D01*
X263478Y-88189D02*
X265478D01*
X264478D01*
Y-82191D01*
X263478Y-83191D01*
X268477Y-88189D02*
X270476D01*
X269476D01*
Y-82191D01*
X268477Y-83191D01*
X277474Y-82191D02*
X275475Y-83191D01*
X273475Y-85190D01*
Y-87189D01*
X274475Y-88189D01*
X276474D01*
X277474Y-87189D01*
Y-86190D01*
X276474Y-85190D01*
X273475D01*
X530507Y-221557D02*
Y-224881D01*
X531172Y-225545D01*
X532501D01*
X533166Y-224881D01*
Y-221557D01*
X537154D02*
X535825Y-222222D01*
X534495Y-223551D01*
Y-224881D01*
X535160Y-225545D01*
X536489D01*
X537154Y-224881D01*
Y-224216D01*
X536489Y-223551D01*
X534495D01*
X458372Y-221124D02*
X457043D01*
X457708D01*
Y-224447D01*
X457043Y-225112D01*
X456379D01*
X455714Y-224447D01*
X459702Y-221124D02*
X462361D01*
Y-221789D01*
X459702Y-224447D01*
Y-225112D01*
X419632Y-250276D02*
X417099D01*
X418366D01*
Y-256608D01*
X417099Y-257874D01*
X415833D01*
X414567Y-256608D01*
X422164Y-250276D02*
X427229D01*
X424697D01*
Y-257874D01*
X429762D02*
Y-252809D01*
X432295Y-250276D01*
X434827Y-252809D01*
Y-257874D01*
Y-254075D01*
X429762D01*
X442425Y-251543D02*
X441158Y-250276D01*
X438626D01*
X437360Y-251543D01*
Y-256608D01*
X438626Y-257874D01*
X441158D01*
X442425Y-256608D01*
Y-254075D01*
X439892D01*
X444957Y-259140D02*
X450022D01*
X457620Y-251543D02*
X456353Y-250276D01*
X453821D01*
X452555Y-251543D01*
Y-252809D01*
X453821Y-254075D01*
X456353D01*
X457620Y-255342D01*
Y-256608D01*
X456353Y-257874D01*
X453821D01*
X452555Y-256608D01*
X460152Y-250276D02*
X465217D01*
X462685D01*
Y-257874D01*
X467750D02*
Y-250276D01*
X470282Y-252809D01*
X472815Y-250276D01*
Y-257874D01*
X475347Y-251543D02*
X476614Y-250276D01*
X479146D01*
X480412Y-251543D01*
Y-252809D01*
X479146Y-254075D01*
X477880D01*
X479146D01*
X480412Y-255342D01*
Y-256608D01*
X479146Y-257874D01*
X476614D01*
X475347Y-256608D01*
X488010Y-257874D02*
X482945D01*
X488010Y-252809D01*
Y-251543D01*
X486744Y-250276D01*
X484211D01*
X482945Y-251543D01*
X156714Y-95376D02*
Y-98699D01*
X157379Y-99364D01*
X158708D01*
X159373Y-98699D01*
Y-95376D01*
X160702Y-99364D02*
X162032D01*
X161367D01*
Y-95376D01*
X160702Y-96041D01*
X164026D02*
X164690Y-95376D01*
X166020D01*
X166684Y-96041D01*
Y-98699D01*
X166020Y-99364D01*
X164690D01*
X164026Y-98699D01*
Y-96041D01*
X119632Y-193584D02*
X114567D01*
Y-201181D01*
X119632D01*
X114567Y-197382D02*
X117099D01*
X122164Y-201181D02*
Y-193584D01*
X125963D01*
X127229Y-194850D01*
Y-197382D01*
X125963Y-198649D01*
X122164D01*
X133561Y-201181D02*
Y-193584D01*
X129762Y-197382D01*
X134827D01*
X142425Y-194850D02*
X141158Y-193584D01*
X138626D01*
X137359Y-194850D01*
Y-199915D01*
X138626Y-201181D01*
X141158D01*
X142425Y-199915D01*
X150022Y-193584D02*
X144957D01*
Y-201181D01*
X150022D01*
X144957Y-197382D02*
X147490D01*
X157620Y-201181D02*
X152555D01*
X157620Y-196116D01*
Y-194850D01*
X156353Y-193584D01*
X153821D01*
X152555Y-194850D01*
X165217Y-201181D02*
X160152D01*
X165217Y-196116D01*
Y-194850D01*
X163951Y-193584D01*
X161418D01*
X160152Y-194850D01*
X172815Y-193584D02*
X167750D01*
Y-201181D01*
X172815D01*
X167750Y-197382D02*
X170282D01*
X180412Y-201181D02*
X175347D01*
X180412Y-196116D01*
Y-194850D01*
X179146Y-193584D01*
X176613D01*
X175347Y-194850D01*
X188010Y-201181D02*
X182945D01*
X188010Y-196116D01*
Y-194850D01*
X186744Y-193584D01*
X184211D01*
X182945Y-194850D01*
X195607D02*
X194341Y-193584D01*
X191809D01*
X190542Y-194850D01*
Y-199915D01*
X191809Y-201181D01*
X194341D01*
X195607Y-199915D01*
X198140Y-194850D02*
X199406Y-193584D01*
X201939D01*
X203205Y-194850D01*
Y-196116D01*
X201939Y-197382D01*
X203205Y-198649D01*
Y-199915D01*
X201939Y-201181D01*
X199406D01*
X198140Y-199915D01*
Y-198649D01*
X199406Y-197382D01*
X198140Y-196116D01*
Y-194850D01*
X199406Y-197382D02*
X201939D01*
X205737Y-201181D02*
Y-193584D01*
X210802Y-201181D01*
Y-193584D01*
X667159Y-164325D02*
Y-160337D01*
X669153D01*
X669817Y-161001D01*
Y-162331D01*
X669153Y-162995D01*
X667159D01*
X668488D02*
X669817Y-164325D01*
X671147Y-163660D02*
X671811Y-164325D01*
X673141D01*
X673806Y-163660D01*
Y-161001D01*
X673141Y-160337D01*
X671811D01*
X671147Y-161001D01*
Y-161666D01*
X671811Y-162331D01*
X673806D01*
X28705Y-165069D02*
X31363Y-169057D01*
Y-165069D02*
X28705Y-169057D01*
X35352Y-165734D02*
X34687Y-165069D01*
X33358D01*
X32693Y-165734D01*
Y-168392D01*
X33358Y-169057D01*
X34687D01*
X35352Y-168392D01*
Y-167063D01*
X34022D01*
X36681Y-169057D02*
X38010D01*
X37346D01*
Y-165069D01*
X36681Y-165734D01*
X79100Y-181793D02*
Y-185117D01*
X79764Y-185781D01*
X81094D01*
X81758Y-185117D01*
Y-181793D01*
X83088Y-185781D02*
X84417D01*
X83752D01*
Y-181793D01*
X83088Y-182458D01*
X88405Y-185781D02*
Y-181793D01*
X86411Y-183787D01*
X89070D01*
X55118Y-200000D02*
Y-196012D01*
X57112D01*
X57777Y-196677D01*
Y-198006D01*
X57112Y-198671D01*
X55118D01*
X56447D02*
X57777Y-200000D01*
X61765Y-196012D02*
X60436Y-196677D01*
X59106Y-198006D01*
Y-199335D01*
X59771Y-200000D01*
X61100D01*
X61765Y-199335D01*
Y-198671D01*
X61100Y-198006D01*
X59106D01*
X65753Y-200000D02*
X63094D01*
X65753Y-197341D01*
Y-196677D01*
X65088Y-196012D01*
X63759D01*
X63094Y-196677D01*
X177196Y-213486D02*
Y-217474D01*
X179854D01*
X183843Y-213486D02*
X182513Y-214151D01*
X181184Y-215480D01*
Y-216810D01*
X181849Y-217474D01*
X183178D01*
X183843Y-216810D01*
Y-216145D01*
X183178Y-215480D01*
X181184D01*
X72504Y-134017D02*
X71839Y-133353D01*
X70510D01*
X69845Y-134017D01*
Y-136676D01*
X70510Y-137341D01*
X71839D01*
X72504Y-136676D01*
X73833Y-137341D02*
X75162D01*
X74498D01*
Y-133353D01*
X73833Y-134017D01*
X77156D02*
X77821Y-133353D01*
X79150D01*
X79815Y-134017D01*
Y-136676D01*
X79150Y-137341D01*
X77821D01*
X77156Y-136676D01*
Y-134017D01*
X188544Y-243309D02*
Y-246633D01*
X189208Y-247297D01*
X190538D01*
X191202Y-246633D01*
Y-243309D01*
X192532Y-247297D02*
X193861D01*
X193196D01*
Y-243309D01*
X192532Y-243974D01*
X195855D02*
X196520Y-243309D01*
X197849D01*
X198514Y-243974D01*
Y-244638D01*
X197849Y-245303D01*
X197185D01*
X197849D01*
X198514Y-245968D01*
Y-246633D01*
X197849Y-247297D01*
X196520D01*
X195855Y-246633D01*
X243604Y-281445D02*
X242274D01*
X242939D01*
Y-284768D01*
X242274Y-285433D01*
X241610D01*
X240945Y-284768D01*
X244933Y-281445D02*
X247592D01*
X246262D01*
Y-285433D01*
X248921D02*
Y-282774D01*
X250251Y-281445D01*
X251580Y-282774D01*
Y-285433D01*
Y-283439D01*
X248921D01*
X255568Y-282110D02*
X254903Y-281445D01*
X253574D01*
X252909Y-282110D01*
Y-284768D01*
X253574Y-285433D01*
X254903D01*
X255568Y-284768D01*
Y-283439D01*
X254239D01*
X256897Y-286098D02*
X259556D01*
X263544Y-281445D02*
X260885D01*
Y-283439D01*
X262215D01*
X260885D01*
Y-285433D01*
X264874D02*
Y-281445D01*
X266868D01*
X267532Y-282110D01*
Y-283439D01*
X266868Y-284104D01*
X264874D01*
X271520Y-282110D02*
X270856Y-281445D01*
X269526D01*
X268862Y-282110D01*
Y-284768D01*
X269526Y-285433D01*
X270856D01*
X271520Y-284768D01*
Y-283439D01*
X270191D01*
X272850Y-285433D02*
Y-282774D01*
X274179Y-281445D01*
X275508Y-282774D01*
Y-285433D01*
Y-283439D01*
X272850D01*
X173452Y-249781D02*
X172787Y-249116D01*
X171458D01*
X170793Y-249781D01*
Y-252440D01*
X171458Y-253104D01*
X172787D01*
X173452Y-252440D01*
X174781Y-249781D02*
X175446Y-249116D01*
X176776D01*
X177440Y-249781D01*
Y-250446D01*
X176776Y-251110D01*
X177440Y-251775D01*
Y-252440D01*
X176776Y-253104D01*
X175446D01*
X174781Y-252440D01*
Y-251775D01*
X175446Y-251110D01*
X174781Y-250446D01*
Y-249781D01*
X175446Y-251110D02*
X176776D01*
X178770Y-253104D02*
X180099D01*
X179434D01*
Y-249116D01*
X178770Y-249781D01*
X667373Y-58025D02*
Y-54037D01*
X669367D01*
X670032Y-54702D01*
Y-56032D01*
X669367Y-56696D01*
X667373D01*
X668703D02*
X670032Y-58025D01*
X673355D02*
Y-54037D01*
X671361Y-56032D01*
X674020D01*
X675350Y-54702D02*
X676014Y-54037D01*
X677344D01*
X678008Y-54702D01*
Y-55367D01*
X677344Y-56032D01*
X676679D01*
X677344D01*
X678008Y-56696D01*
Y-57361D01*
X677344Y-58025D01*
X676014D01*
X675350Y-57361D01*
X666980Y-50151D02*
Y-46163D01*
X668974D01*
X669638Y-46828D01*
Y-48157D01*
X668974Y-48822D01*
X666980D01*
X668309D02*
X669638Y-50151D01*
X672962D02*
Y-46163D01*
X670968Y-48157D01*
X673626D01*
X677614Y-50151D02*
X674956D01*
X677614Y-47493D01*
Y-46828D01*
X676950Y-46163D01*
X675620D01*
X674956Y-46828D01*
X666670Y-155663D02*
Y-151675D01*
X668664D01*
X669328Y-152340D01*
Y-153669D01*
X668664Y-154334D01*
X666670D01*
X667999D02*
X669328Y-155663D01*
X670658Y-151675D02*
X673316D01*
Y-152340D01*
X670658Y-154999D01*
Y-155663D01*
X51968Y-177165D02*
Y-173177D01*
X53963D01*
X54627Y-173842D01*
Y-175171D01*
X53963Y-175836D01*
X51968D01*
X53298D02*
X54627Y-177165D01*
X58615Y-173177D02*
X57286Y-173842D01*
X55957Y-175171D01*
Y-176501D01*
X56621Y-177165D01*
X57951D01*
X58615Y-176501D01*
Y-175836D01*
X57951Y-175171D01*
X55957D01*
X59945Y-173842D02*
X60609Y-173177D01*
X61939D01*
X62603Y-173842D01*
Y-174507D01*
X61939Y-175171D01*
X61274D01*
X61939D01*
X62603Y-175836D01*
Y-176501D01*
X61939Y-177165D01*
X60609D01*
X59945Y-176501D01*
X195034Y-232458D02*
X194370Y-231793D01*
X193040D01*
X192376Y-232458D01*
Y-235117D01*
X193040Y-235781D01*
X194370D01*
X195034Y-235117D01*
X196364Y-232458D02*
X197028Y-231793D01*
X198358D01*
X199022Y-232458D01*
Y-233123D01*
X198358Y-233787D01*
X199022Y-234452D01*
Y-235117D01*
X198358Y-235781D01*
X197028D01*
X196364Y-235117D01*
Y-234452D01*
X197028Y-233787D01*
X196364Y-233123D01*
Y-232458D01*
X197028Y-233787D02*
X198358D01*
X200352Y-232458D02*
X201016Y-231793D01*
X202346D01*
X203011Y-232458D01*
Y-235117D01*
X202346Y-235781D01*
X201016D01*
X200352Y-235117D01*
Y-232458D01*
X680658Y-114664D02*
Y-115993D01*
Y-115329D01*
X683981D01*
X684646Y-115993D01*
Y-116658D01*
X683981Y-117323D01*
X680658Y-110676D02*
Y-113335D01*
X682652D01*
X681987Y-112005D01*
Y-111341D01*
X682652Y-110676D01*
X683981D01*
X684646Y-111341D01*
Y-112670D01*
X683981Y-113335D01*
X680316Y-102756D02*
X684252D01*
X682940D01*
X680316Y-100132D01*
X682284Y-102100D01*
X684252Y-100132D01*
X680316Y-96196D02*
Y-98820D01*
X684252D01*
Y-96196D01*
X682284Y-98820D02*
Y-97508D01*
X680316Y-94884D02*
X680972D01*
X682284Y-93572D01*
X680972Y-92261D01*
X680316D01*
X682284Y-93572D02*
X684252D01*
X684908Y-90949D02*
Y-88325D01*
X680316Y-87013D02*
Y-85701D01*
Y-86357D01*
X684252D01*
Y-87013D01*
Y-85701D01*
Y-83733D02*
X680316D01*
X684252Y-81109D01*
X680316D01*
X681445Y-266239D02*
Y-267568D01*
Y-266904D01*
X684768D01*
X685433Y-267568D01*
Y-268233D01*
X684768Y-268898D01*
X685433Y-262251D02*
Y-264910D01*
X682774Y-262251D01*
X682110D01*
X681445Y-262915D01*
Y-264245D01*
X682110Y-264910D01*
X684646Y-258268D02*
X680710D01*
X682022Y-256956D01*
X680710Y-255644D01*
X684646D01*
X680710Y-254332D02*
Y-253020D01*
Y-253676D01*
X684646D01*
Y-254332D01*
Y-253020D01*
X681366Y-248428D02*
X680710Y-249084D01*
Y-250396D01*
X681366Y-251052D01*
X683990D01*
X684646Y-250396D01*
Y-249084D01*
X683990Y-248428D01*
X685302Y-247116D02*
Y-244493D01*
X680710Y-243181D02*
Y-241869D01*
Y-242525D01*
X684646D01*
Y-243181D01*
Y-241869D01*
Y-239901D02*
X680710D01*
X684646Y-237277D01*
X680710D01*
X572385Y-191636D02*
Y-195624D01*
X575044D01*
X576373Y-192300D02*
X577038Y-191636D01*
X578367D01*
X579032Y-192300D01*
Y-192965D01*
X578367Y-193630D01*
X577703D01*
X578367D01*
X579032Y-194295D01*
Y-194959D01*
X578367Y-195624D01*
X577038D01*
X576373Y-194959D01*
X580361Y-191636D02*
X583020D01*
Y-192300D01*
X580361Y-194959D01*
Y-195624D01*
X624561Y-102538D02*
X620573D01*
Y-100544D01*
X621238Y-99879D01*
X622567D01*
X623232Y-100544D01*
Y-102538D01*
Y-101208D02*
X624561Y-99879D01*
Y-98550D02*
Y-97220D01*
Y-97885D01*
X620573D01*
X621238Y-98550D01*
X620573Y-92567D02*
Y-95226D01*
X622567D01*
X621902Y-93897D01*
Y-93232D01*
X622567Y-92567D01*
X623896D01*
X624561Y-93232D01*
Y-94562D01*
X623896Y-95226D01*
X624684Y-220976D02*
Y-224964D01*
X627343D01*
X628672D02*
X630001D01*
X629337D01*
Y-220976D01*
X628672Y-221641D01*
X563212Y-106396D02*
X562547Y-107061D01*
Y-108390D01*
X563212Y-109055D01*
X565871D01*
X566535Y-108390D01*
Y-107061D01*
X565871Y-106396D01*
X566535Y-105067D02*
Y-103738D01*
Y-104402D01*
X562547D01*
X563212Y-105067D01*
X562547Y-101744D02*
Y-99085D01*
X563212D01*
X565871Y-101744D01*
X566535D01*
X473560Y-84155D02*
Y-87479D01*
X474224Y-88144D01*
X475554D01*
X476218Y-87479D01*
Y-84155D01*
X480206D02*
X477548D01*
Y-86150D01*
X478877Y-85485D01*
X479542D01*
X480206Y-86150D01*
Y-87479D01*
X479542Y-88144D01*
X478212D01*
X477548Y-87479D01*
X435007Y-162258D02*
X433741Y-163524D01*
Y-166057D01*
X435007Y-167323D01*
X436273D01*
X437540Y-166057D01*
Y-163524D01*
X438806Y-162258D01*
X440072D01*
X441339Y-163524D01*
Y-166057D01*
X440072Y-167323D01*
X433741Y-159725D02*
Y-154660D01*
Y-157193D01*
X441339D01*
Y-152128D02*
X433741D01*
X436273Y-149595D01*
X433741Y-147063D01*
X441339D01*
X435007Y-144530D02*
X433741Y-143264D01*
Y-140731D01*
X435007Y-139465D01*
X436273D01*
X437540Y-140731D01*
Y-141998D01*
Y-140731D01*
X438806Y-139465D01*
X440072D01*
X441339Y-140731D01*
Y-143264D01*
X440072Y-144530D01*
X441339Y-131868D02*
Y-136933D01*
X436273Y-131868D01*
X435007D01*
X433741Y-133134D01*
Y-135666D01*
X435007Y-136933D01*
X433741Y-129335D02*
X441339D01*
X437540D01*
Y-124270D01*
X433741D01*
X441339D01*
X433741Y-121738D02*
Y-116673D01*
X435007D01*
X440072Y-121738D01*
X441339D01*
Y-110341D02*
X433741D01*
X437540Y-114140D01*
Y-109075D01*
X435007Y-106543D02*
X433741Y-105276D01*
Y-102744D01*
X435007Y-101478D01*
X436273D01*
X437540Y-102744D01*
Y-104010D01*
Y-102744D01*
X438806Y-101478D01*
X440072D01*
X441339Y-102744D01*
Y-105276D01*
X440072Y-106543D01*
X433741Y-98945D02*
X438806D01*
X441339Y-96412D01*
X438806Y-93880D01*
X433741D01*
Y-91347D02*
Y-88815D01*
Y-90081D01*
X441339D01*
Y-91347D01*
Y-88815D01*
X433741Y-85016D02*
Y-79951D01*
Y-82484D01*
X441339D01*
X433741Y-72354D02*
X435007Y-74886D01*
X437540Y-77419D01*
X440072D01*
X441339Y-76152D01*
Y-73620D01*
X440072Y-72354D01*
X438806D01*
X437540Y-73620D01*
Y-77419D01*
X80252Y-232581D02*
X82911D01*
X81582D01*
Y-236569D01*
X84241Y-233245D02*
X84905Y-232581D01*
X86234D01*
X86899Y-233245D01*
Y-233910D01*
X86234Y-234575D01*
X85570D01*
X86234D01*
X86899Y-235239D01*
Y-235904D01*
X86234Y-236569D01*
X84905D01*
X84241Y-235904D01*
X105711Y-226045D02*
X109034D01*
X109699Y-225380D01*
Y-224050D01*
X109034Y-223386D01*
X105711D01*
X106375Y-222056D02*
X105711Y-221392D01*
Y-220062D01*
X106375Y-219398D01*
X107040D01*
X107705Y-220062D01*
X108369Y-219398D01*
X109034D01*
X109699Y-220062D01*
Y-221392D01*
X109034Y-222056D01*
X108369D01*
X107705Y-221392D01*
X107040Y-222056D01*
X106375D01*
X107705Y-221392D02*
Y-220062D01*
X51387Y-226711D02*
X54710D01*
X55375Y-226046D01*
Y-224717D01*
X54710Y-224052D01*
X51387D01*
X55375Y-222723D02*
Y-221393D01*
Y-222058D01*
X51387D01*
X52051Y-222723D01*
X51387Y-216740D02*
Y-219399D01*
X53381D01*
X52716Y-218070D01*
Y-217405D01*
X53381Y-216740D01*
X54710D01*
X55375Y-217405D01*
Y-218734D01*
X54710Y-219399D01*
X47027Y-118388D02*
Y-121711D01*
X47692Y-122376D01*
X49021D01*
X49685Y-121711D01*
Y-118388D01*
X53674Y-122376D02*
X51015D01*
X53674Y-119717D01*
Y-119053D01*
X53009Y-118388D01*
X51680D01*
X51015Y-119053D01*
X717548Y-25297D02*
X716218D01*
X716883D01*
Y-28621D01*
X716218Y-29285D01*
X715554D01*
X714889Y-28621D01*
X718877Y-25962D02*
X719542Y-25297D01*
X720871D01*
X721536Y-25962D01*
Y-26627D01*
X720871Y-27291D01*
X721536Y-27956D01*
Y-28621D01*
X720871Y-29285D01*
X719542D01*
X718877Y-28621D01*
Y-27956D01*
X719542Y-27291D01*
X718877Y-26627D01*
Y-25962D01*
X719542Y-27291D02*
X720871D01*
X674803Y-31379D02*
Y-37710D01*
X676069Y-38976D01*
X678602D01*
X679868Y-37710D01*
Y-31379D01*
X687466Y-32645D02*
X686200Y-31379D01*
X683667D01*
X682401Y-32645D01*
Y-33911D01*
X683667Y-35178D01*
X686200D01*
X687466Y-36444D01*
Y-37710D01*
X686200Y-38976D01*
X683667D01*
X682401Y-37710D01*
X689998Y-31379D02*
Y-38976D01*
X693797D01*
X695063Y-37710D01*
Y-36444D01*
X693797Y-35178D01*
X689998D01*
X693797D01*
X695063Y-33911D01*
Y-32645D01*
X693797Y-31379D01*
X689998D01*
X681051Y-168601D02*
Y-169931D01*
Y-169266D01*
X684375D01*
X685039Y-169931D01*
Y-170595D01*
X684375Y-171260D01*
X681716Y-167272D02*
X681051Y-166607D01*
Y-165278D01*
X681716Y-164613D01*
X682381D01*
X683045Y-165278D01*
Y-165942D01*
Y-165278D01*
X683710Y-164613D01*
X684375D01*
X685039Y-165278D01*
Y-166607D01*
X684375Y-167272D01*
X685039Y-159449D02*
X681104D01*
Y-157481D01*
X681760Y-156825D01*
X683072D01*
X683728Y-157481D01*
Y-159449D01*
X681104Y-155513D02*
X685039D01*
X683072D01*
Y-152889D01*
X681104D01*
X685039D01*
X681104Y-149609D02*
Y-150921D01*
X681760Y-151577D01*
X684383D01*
X685039Y-150921D01*
Y-149609D01*
X684383Y-148953D01*
X681760D01*
X681104Y-149609D01*
X685039Y-147642D02*
X681104D01*
X685039Y-145018D01*
X681104D01*
Y-141082D02*
Y-143706D01*
X685039D01*
Y-141082D01*
X683072Y-143706D02*
Y-142394D01*
X685695Y-139770D02*
Y-137146D01*
X681104Y-133867D02*
Y-135178D01*
X681760Y-135834D01*
X684383D01*
X685039Y-135178D01*
Y-133867D01*
X684383Y-133211D01*
X681760D01*
X681104Y-133867D01*
Y-131899D02*
X684383D01*
X685039Y-131243D01*
Y-129931D01*
X684383Y-129275D01*
X681104D01*
Y-127963D02*
Y-125339D01*
Y-126651D01*
X685039D01*
X681445Y-215058D02*
Y-216387D01*
Y-215722D01*
X684768D01*
X685433Y-216387D01*
Y-217052D01*
X684768Y-217717D01*
X685433Y-213728D02*
Y-212399D01*
Y-213064D01*
X681445D01*
X682110Y-213728D01*
X681104Y-199213D02*
X685039D01*
Y-196589D01*
X681104Y-195277D02*
Y-193965D01*
Y-194621D01*
X685039D01*
Y-195277D01*
Y-193965D01*
Y-191997D02*
X681104D01*
X685039Y-189373D01*
X681104D01*
Y-185438D02*
Y-188061D01*
X685039D01*
Y-185438D01*
X683072Y-188061D02*
Y-186749D01*
X685695Y-184126D02*
Y-181502D01*
X681104Y-180190D02*
Y-178878D01*
Y-179534D01*
X685039D01*
Y-180190D01*
Y-178878D01*
Y-176910D02*
X681104D01*
X685039Y-174286D01*
X681104D01*
X559239Y-54431D02*
X557910D01*
X558575D01*
Y-57754D01*
X557910Y-58419D01*
X557245D01*
X556581Y-57754D01*
X562563Y-58419D02*
Y-54431D01*
X560569Y-56425D01*
X563228D01*
X549213Y-26772D02*
Y-19174D01*
X553011D01*
X554278Y-20440D01*
Y-22973D01*
X553011Y-24239D01*
X549213D01*
X551745D02*
X554278Y-26772D01*
X561875Y-19174D02*
X556810D01*
Y-22973D01*
X559343D01*
X556810D01*
Y-26772D01*
X564408Y-28038D02*
X569473D01*
X572005Y-19174D02*
Y-25505D01*
X573272Y-26772D01*
X575804D01*
X577070Y-25505D01*
Y-19174D01*
X579603Y-26772D02*
Y-19174D01*
X584668Y-26772D01*
Y-19174D01*
X587200D02*
X589733D01*
X588467D01*
Y-26772D01*
X587200D01*
X589733D01*
X593532Y-19174D02*
X598597D01*
X596064D01*
Y-26772D01*
X575433Y-170081D02*
Y-173404D01*
X576098Y-174069D01*
X577427D01*
X578092Y-173404D01*
Y-170081D01*
X581416Y-174069D02*
Y-170081D01*
X579422Y-172075D01*
X582080D01*
X610920Y-192278D02*
Y-188289D01*
X612915D01*
X613579Y-188954D01*
Y-190283D01*
X612915Y-190948D01*
X610920D01*
X612250D02*
X613579Y-192278D01*
X614909D02*
X616238D01*
X615573D01*
Y-188289D01*
X614909Y-188954D01*
X618232Y-192278D02*
X619561D01*
X618897D01*
Y-188289D01*
X618232Y-188954D01*
X652300Y-174758D02*
Y-170770D01*
X654294D01*
X654958Y-171434D01*
Y-172764D01*
X654294Y-173428D01*
X652300D01*
X653629D02*
X654958Y-174758D01*
X658947Y-170770D02*
X656288D01*
Y-172764D01*
X657617Y-172099D01*
X658282D01*
X658947Y-172764D01*
Y-174093D01*
X658282Y-174758D01*
X656952D01*
X656288Y-174093D01*
X604551Y-181987D02*
X603886Y-182652D01*
Y-183981D01*
X604551Y-184646D01*
X607209D01*
X607874Y-183981D01*
Y-182652D01*
X607209Y-181987D01*
X604551Y-180658D02*
X603886Y-179993D01*
Y-178664D01*
X604551Y-177999D01*
X605215D01*
X605880Y-178664D01*
Y-179328D01*
Y-178664D01*
X606545Y-177999D01*
X607209D01*
X607874Y-178664D01*
Y-179993D01*
X607209Y-180658D01*
X607874Y-174011D02*
Y-176670D01*
X605215Y-174011D01*
X604551D01*
X603886Y-174675D01*
Y-176005D01*
X604551Y-176670D01*
X654875Y-165924D02*
X654210Y-165259D01*
X652880D01*
X652216Y-165924D01*
Y-168582D01*
X652880Y-169247D01*
X654210D01*
X654875Y-168582D01*
X658863Y-169247D02*
X656204D01*
X658863Y-166588D01*
Y-165924D01*
X658198Y-165259D01*
X656869D01*
X656204Y-165924D01*
X660192Y-165259D02*
X662851D01*
Y-165924D01*
X660192Y-168582D01*
Y-169247D01*
X604184Y-162379D02*
X603520Y-161715D01*
X602190D01*
X601526Y-162379D01*
Y-165038D01*
X602190Y-165703D01*
X603520D01*
X604184Y-165038D01*
X608172Y-165703D02*
X605514D01*
X608172Y-163044D01*
Y-162379D01*
X607508Y-161715D01*
X606178D01*
X605514Y-162379D01*
X612160Y-161715D02*
X610831Y-162379D01*
X609502Y-163709D01*
Y-165038D01*
X610167Y-165703D01*
X611496D01*
X612160Y-165038D01*
Y-164373D01*
X611496Y-163709D01*
X609502D01*
X564151Y-191314D02*
X563486Y-191978D01*
Y-193308D01*
X564151Y-193973D01*
X566810D01*
X567474Y-193308D01*
Y-191978D01*
X566810Y-191314D01*
X567474Y-187326D02*
Y-189984D01*
X564816Y-187326D01*
X564151D01*
X563486Y-187990D01*
Y-189320D01*
X564151Y-189984D01*
X567474Y-185996D02*
Y-184667D01*
Y-185331D01*
X563486D01*
X564151Y-185996D01*
X612147Y-230671D02*
X611482Y-230007D01*
X610153D01*
X609488Y-230671D01*
Y-233330D01*
X610153Y-233995D01*
X611482D01*
X612147Y-233330D01*
X616135Y-233995D02*
X613476D01*
X616135Y-231336D01*
Y-230671D01*
X615470Y-230007D01*
X614141D01*
X613476Y-230671D01*
X610079Y-239565D02*
Y-242889D01*
X610743Y-243553D01*
X612073D01*
X612738Y-242889D01*
Y-239565D01*
X614067Y-240230D02*
X614732Y-239565D01*
X616061D01*
X616726Y-240230D01*
Y-240895D01*
X616061Y-241559D01*
X615396D01*
X616061D01*
X616726Y-242224D01*
Y-242889D01*
X616061Y-243553D01*
X614732D01*
X614067Y-242889D01*
X623203Y-277025D02*
Y-273037D01*
X625197D01*
X625862Y-273702D01*
Y-275031D01*
X625197Y-275696D01*
X623203D01*
X624533D02*
X625862Y-277025D01*
X629850D02*
X627191D01*
X629850Y-274366D01*
Y-273702D01*
X629185Y-273037D01*
X627856D01*
X627191Y-273702D01*
X561271Y-269269D02*
X560606Y-268604D01*
X559277D01*
X558612Y-269269D01*
Y-271928D01*
X559277Y-272592D01*
X560606D01*
X561271Y-271928D01*
X565259Y-268604D02*
X563930Y-269269D01*
X562600Y-270598D01*
Y-271928D01*
X563265Y-272592D01*
X564594D01*
X565259Y-271928D01*
Y-271263D01*
X564594Y-270598D01*
X562600D01*
X566588Y-269269D02*
X567253Y-268604D01*
X568582D01*
X569247Y-269269D01*
Y-271928D01*
X568582Y-272592D01*
X567253D01*
X566588Y-271928D01*
Y-269269D01*
X597934Y-270692D02*
X597270Y-270028D01*
X595940D01*
X595276Y-270692D01*
Y-273351D01*
X595940Y-274016D01*
X597270D01*
X597934Y-273351D01*
X601922Y-270028D02*
X599264D01*
Y-272022D01*
X600593Y-271357D01*
X601258D01*
X601922Y-272022D01*
Y-273351D01*
X601258Y-274016D01*
X599928D01*
X599264Y-273351D01*
X655115Y-262006D02*
X654450Y-262670D01*
Y-264000D01*
X655115Y-264665D01*
X657773D01*
X658438Y-264000D01*
Y-262670D01*
X657773Y-262006D01*
X658438Y-258682D02*
X654450D01*
X656444Y-260677D01*
Y-258018D01*
X465444Y-61876D02*
Y-62541D01*
X466774Y-63870D01*
X468103Y-62541D01*
Y-61876D01*
X466774Y-63870D02*
Y-65864D01*
X472091D02*
X469432D01*
X472091Y-63205D01*
Y-62541D01*
X471426Y-61876D01*
X470097D01*
X469432Y-62541D01*
X435290Y-42104D02*
X434626Y-41439D01*
X433296D01*
X432631Y-42104D01*
Y-44762D01*
X433296Y-45427D01*
X434626D01*
X435290Y-44762D01*
X438614Y-45427D02*
Y-41439D01*
X436620Y-43433D01*
X439278D01*
X440608Y-42104D02*
X441272Y-41439D01*
X442602D01*
X443266Y-42104D01*
Y-42768D01*
X442602Y-43433D01*
X441937D01*
X442602D01*
X443266Y-44098D01*
Y-44762D01*
X442602Y-45427D01*
X441272D01*
X440608Y-44762D01*
X498088Y-43088D02*
X497423Y-42423D01*
X496094D01*
X495429Y-43088D01*
Y-45747D01*
X496094Y-46411D01*
X497423D01*
X498088Y-45747D01*
X501411Y-46411D02*
Y-42423D01*
X499417Y-44417D01*
X502076D01*
X506064Y-46411D02*
X503405D01*
X506064Y-43753D01*
Y-43088D01*
X505399Y-42423D01*
X504070D01*
X503405Y-43088D01*
X476231Y-13560D02*
X475566Y-12896D01*
X474237D01*
X473572Y-13560D01*
Y-16219D01*
X474237Y-16884D01*
X475566D01*
X476231Y-16219D01*
X477560Y-13560D02*
X478225Y-12896D01*
X479554D01*
X480219Y-13560D01*
Y-14225D01*
X479554Y-14890D01*
X478890D01*
X479554D01*
X480219Y-15554D01*
Y-16219D01*
X479554Y-16884D01*
X478225D01*
X477560Y-16219D01*
X481548D02*
X482213Y-16884D01*
X483542D01*
X484207Y-16219D01*
Y-13560D01*
X483542Y-12896D01*
X482213D01*
X481548Y-13560D01*
Y-14225D01*
X482213Y-14890D01*
X484207D01*
X490899Y-13757D02*
X490235Y-13092D01*
X488905D01*
X488240Y-13757D01*
Y-16416D01*
X488905Y-17081D01*
X490235D01*
X490899Y-16416D01*
X492229Y-13757D02*
X492893Y-13092D01*
X494223D01*
X494887Y-13757D01*
Y-14422D01*
X494223Y-15087D01*
X493558D01*
X494223D01*
X494887Y-15751D01*
Y-16416D01*
X494223Y-17081D01*
X492893D01*
X492229Y-16416D01*
X496217Y-13757D02*
X496881Y-13092D01*
X498211D01*
X498876Y-13757D01*
Y-14422D01*
X498211Y-15087D01*
X498876Y-15751D01*
Y-16416D01*
X498211Y-17081D01*
X496881D01*
X496217Y-16416D01*
Y-15751D01*
X496881Y-15087D01*
X496217Y-14422D01*
Y-13757D01*
X496881Y-15087D02*
X498211D01*
X471987Y-289293D02*
X471322Y-289958D01*
Y-291287D01*
X471987Y-291952D01*
X474646D01*
X475311Y-291287D01*
Y-289958D01*
X474646Y-289293D01*
X475311Y-285970D02*
X471322D01*
X473316Y-287964D01*
Y-285305D01*
X471322Y-281317D02*
Y-283976D01*
X473316D01*
X472652Y-282646D01*
Y-281982D01*
X473316Y-281317D01*
X474646D01*
X475311Y-281982D01*
Y-283311D01*
X474646Y-283976D01*
X240133Y-154776D02*
Y-158099D01*
X240798Y-158764D01*
X242127D01*
X242792Y-158099D01*
Y-154776D01*
X244121Y-158099D02*
X244786Y-158764D01*
X246115D01*
X246780Y-158099D01*
Y-155440D01*
X246115Y-154776D01*
X244786D01*
X244121Y-155440D01*
Y-156105D01*
X244786Y-156770D01*
X246780D01*
X79285Y-112847D02*
X75297D01*
Y-110852D01*
X75962Y-110188D01*
X77291D01*
X77956Y-110852D01*
Y-112847D01*
Y-111517D02*
X79285Y-110188D01*
Y-106200D02*
Y-108858D01*
X76627Y-106200D01*
X75962D01*
X75297Y-106864D01*
Y-108194D01*
X75962Y-108858D01*
Y-104870D02*
X75297Y-104206D01*
Y-102876D01*
X75962Y-102211D01*
X76627D01*
X77291Y-102876D01*
Y-103541D01*
Y-102876D01*
X77956Y-102211D01*
X78621D01*
X79285Y-102876D01*
Y-104206D01*
X78621Y-104870D01*
X78295Y-223577D02*
Y-219589D01*
X80289D01*
X80954Y-220253D01*
Y-221583D01*
X80289Y-222247D01*
X78295D01*
X79625D02*
X80954Y-223577D01*
X84942Y-219589D02*
X82283D01*
Y-221583D01*
X83613Y-220918D01*
X84277D01*
X84942Y-221583D01*
Y-222912D01*
X84277Y-223577D01*
X82948D01*
X82283Y-222912D01*
X86272Y-220253D02*
X86936Y-219589D01*
X88266D01*
X88930Y-220253D01*
Y-220918D01*
X88266Y-221583D01*
X87601D01*
X88266D01*
X88930Y-222247D01*
Y-222912D01*
X88266Y-223577D01*
X86936D01*
X86272Y-222912D01*
X108171Y-268173D02*
Y-265514D01*
Y-266844D01*
X112159D01*
Y-261526D02*
Y-264185D01*
X109501Y-261526D01*
X108836D01*
X108171Y-262191D01*
Y-263520D01*
X108836Y-264185D01*
X140894Y-272441D02*
X144882D01*
Y-269782D01*
X140894Y-265794D02*
Y-268453D01*
X142888D01*
X142223Y-267124D01*
Y-266459D01*
X142888Y-265794D01*
X144217D01*
X144882Y-266459D01*
Y-267788D01*
X144217Y-268453D01*
X79037Y-283528D02*
X83025D01*
Y-280870D01*
Y-277546D02*
X79037D01*
X81032Y-279540D01*
Y-276882D01*
X173578Y-281866D02*
X172913Y-281202D01*
X171584D01*
X170919Y-281866D01*
Y-284525D01*
X171584Y-285190D01*
X172913D01*
X173578Y-284525D01*
X174907Y-281866D02*
X175572Y-281202D01*
X176901D01*
X177566Y-281866D01*
Y-282531D01*
X176901Y-283196D01*
X177566Y-283860D01*
Y-284525D01*
X176901Y-285190D01*
X175572D01*
X174907Y-284525D01*
Y-283860D01*
X175572Y-283196D01*
X174907Y-282531D01*
Y-281866D01*
X175572Y-283196D02*
X176901D01*
X178895Y-281866D02*
X179560Y-281202D01*
X180889D01*
X181554Y-281866D01*
Y-282531D01*
X180889Y-283196D01*
X180225D01*
X180889D01*
X181554Y-283860D01*
Y-284525D01*
X180889Y-285190D01*
X179560D01*
X178895Y-284525D01*
X108245Y-248075D02*
X107581Y-248739D01*
Y-250069D01*
X108245Y-250733D01*
X110904D01*
X111569Y-250069D01*
Y-248739D01*
X110904Y-248075D01*
X107581Y-246745D02*
Y-244087D01*
X108245D01*
X110904Y-246745D01*
X111569D01*
X108245Y-242757D02*
X107581Y-242093D01*
Y-240763D01*
X108245Y-240099D01*
X108910D01*
X109575Y-240763D01*
X110240Y-240099D01*
X110904D01*
X111569Y-240763D01*
Y-242093D01*
X110904Y-242757D01*
X110240D01*
X109575Y-242093D01*
X108910Y-242757D01*
X108245D01*
X109575Y-242093D02*
Y-240763D01*
X138486Y-238409D02*
X137821Y-237744D01*
X136492D01*
X135827Y-238409D01*
Y-241068D01*
X136492Y-241732D01*
X137821D01*
X138486Y-241068D01*
X139815Y-237744D02*
X142474D01*
Y-238409D01*
X139815Y-241068D01*
Y-241732D01*
X143803Y-237744D02*
X146462D01*
Y-238409D01*
X143803Y-241068D01*
Y-241732D01*
X85336Y-272267D02*
X84671Y-271602D01*
X83342D01*
X82677Y-272267D01*
Y-274926D01*
X83342Y-275590D01*
X84671D01*
X85336Y-274926D01*
X89324Y-271602D02*
X87995Y-272267D01*
X86665Y-273597D01*
Y-274926D01*
X87330Y-275590D01*
X88659D01*
X89324Y-274926D01*
Y-274261D01*
X88659Y-273597D01*
X86665D01*
X90653Y-272267D02*
X91318Y-271602D01*
X92647D01*
X93312Y-272267D01*
Y-272932D01*
X92647Y-273597D01*
X91983D01*
X92647D01*
X93312Y-274261D01*
Y-274926D01*
X92647Y-275590D01*
X91318D01*
X90653Y-274926D01*
X42400Y-70476D02*
Y-74464D01*
X45058D01*
X46388Y-71141D02*
X47052Y-70476D01*
X48382D01*
X49046Y-71141D01*
Y-71806D01*
X48382Y-72470D01*
X47717D01*
X48382D01*
X49046Y-73135D01*
Y-73800D01*
X48382Y-74464D01*
X47052D01*
X46388Y-73800D01*
X44036Y-130466D02*
Y-126478D01*
X46030D01*
X46695Y-127143D01*
Y-128472D01*
X46030Y-129137D01*
X44036D01*
X45366D02*
X46695Y-130466D01*
X50018D02*
Y-126478D01*
X48024Y-128472D01*
X50683D01*
X7306Y-193798D02*
X6642Y-194463D01*
Y-195792D01*
X7306Y-196457D01*
X9965D01*
X10630Y-195792D01*
Y-194463D01*
X9965Y-193798D01*
X10630Y-192469D02*
Y-191139D01*
Y-191804D01*
X6642D01*
X7306Y-192469D01*
X10630Y-189145D02*
Y-187816D01*
Y-188480D01*
X6642D01*
X7306Y-189145D01*
Y-185822D02*
X6642Y-185157D01*
Y-183828D01*
X7306Y-183163D01*
X9965D01*
X10630Y-183828D01*
Y-185157D01*
X9965Y-185822D01*
X7306D01*
X50220Y-207184D02*
X49555Y-207849D01*
Y-209178D01*
X50220Y-209842D01*
X52879D01*
X53543Y-209178D01*
Y-207849D01*
X52879Y-207184D01*
X53543Y-205854D02*
Y-204525D01*
Y-205190D01*
X49555D01*
X50220Y-205854D01*
Y-202531D02*
X49555Y-201866D01*
Y-200537D01*
X50220Y-199872D01*
X52879D01*
X53543Y-200537D01*
Y-201866D01*
X52879Y-202531D01*
X50220D01*
Y-198543D02*
X49555Y-197878D01*
Y-196549D01*
X50220Y-195884D01*
X50885D01*
X51549Y-196549D01*
X52214Y-195884D01*
X52879D01*
X53543Y-196549D01*
Y-197878D01*
X52879Y-198543D01*
X52214D01*
X51549Y-197878D01*
X50885Y-198543D01*
X50220D01*
X51549Y-197878D02*
Y-196549D01*
X21996Y-279921D02*
Y-277262D01*
Y-278592D01*
X25984D01*
X21996Y-273274D02*
X22661Y-274604D01*
X23990Y-275933D01*
X25320D01*
X25984Y-275269D01*
Y-273939D01*
X25320Y-273274D01*
X24655D01*
X23990Y-273939D01*
Y-275933D01*
X53607Y-263340D02*
Y-259352D01*
X55601D01*
X56266Y-260017D01*
Y-261346D01*
X55601Y-262011D01*
X53607D01*
X54936D02*
X56266Y-263340D01*
X60254Y-259352D02*
X57595D01*
Y-261346D01*
X58925Y-260682D01*
X59589D01*
X60254Y-261346D01*
Y-262676D01*
X59589Y-263340D01*
X58260D01*
X57595Y-262676D01*
X64242Y-259352D02*
X62913Y-260017D01*
X61583Y-261346D01*
Y-262676D01*
X62248Y-263340D01*
X63577D01*
X64242Y-262676D01*
Y-262011D01*
X63577Y-261346D01*
X61583D01*
X22661Y-268207D02*
X21996Y-268872D01*
Y-270201D01*
X22661Y-270866D01*
X25320D01*
X25984Y-270201D01*
Y-268872D01*
X25320Y-268207D01*
X25984Y-266878D02*
Y-265549D01*
Y-266213D01*
X21996D01*
X22661Y-266878D01*
Y-263555D02*
X21996Y-262890D01*
Y-261561D01*
X22661Y-260896D01*
X25320D01*
X25984Y-261561D01*
Y-262890D01*
X25320Y-263555D01*
X22661D01*
X21996Y-256908D02*
Y-259566D01*
X23990D01*
X23325Y-258237D01*
Y-257572D01*
X23990Y-256908D01*
X25320D01*
X25984Y-257572D01*
Y-258902D01*
X25320Y-259566D01*
X53018Y-247310D02*
X52559Y-246851D01*
X51640D01*
X51181Y-247310D01*
Y-249147D01*
X51640Y-249606D01*
X52559D01*
X53018Y-249147D01*
X53936Y-249606D02*
X54855D01*
X54395D01*
Y-246851D01*
X53936Y-247310D01*
X56232D02*
X56691Y-246851D01*
X57609D01*
X58069Y-247310D01*
Y-249147D01*
X57609Y-249606D01*
X56691D01*
X56232Y-249147D01*
Y-247310D01*
X60824Y-249606D02*
X58987D01*
X60824Y-247770D01*
Y-247310D01*
X60365Y-246851D01*
X59446D01*
X58987Y-247310D01*
X667840Y-65112D02*
Y-61124D01*
X669834D01*
X670499Y-61789D01*
Y-63118D01*
X669834Y-63783D01*
X667840D01*
X669169D02*
X670499Y-65112D01*
X673822D02*
Y-61124D01*
X671828Y-63118D01*
X674487D01*
X675816Y-65112D02*
X677145D01*
X676481D01*
Y-61124D01*
X675816Y-61789D01*
X610533Y-132110D02*
X609868Y-131445D01*
X608539D01*
X607874Y-132110D01*
Y-134768D01*
X608539Y-135433D01*
X609868D01*
X610533Y-134768D01*
X611862Y-132110D02*
X612527Y-131445D01*
X613856D01*
X614521Y-132110D01*
Y-132774D01*
X613856Y-133439D01*
X613192D01*
X613856D01*
X614521Y-134104D01*
Y-134768D01*
X613856Y-135433D01*
X612527D01*
X611862Y-134768D01*
X617844Y-135433D02*
Y-131445D01*
X615850Y-133439D01*
X618509D01*
X609352Y-99826D02*
X608687Y-99161D01*
X607358D01*
X606693Y-99826D01*
Y-102485D01*
X607358Y-103150D01*
X608687D01*
X609352Y-102485D01*
X610681Y-99826D02*
X611346Y-99161D01*
X612675D01*
X613340Y-99826D01*
Y-100491D01*
X612675Y-101156D01*
X612010D01*
X612675D01*
X613340Y-101820D01*
Y-102485D01*
X612675Y-103150D01*
X611346D01*
X610681Y-102485D01*
X614669Y-99826D02*
X615334Y-99161D01*
X616663D01*
X617328Y-99826D01*
Y-100491D01*
X616663Y-101156D01*
X615999D01*
X616663D01*
X617328Y-101820D01*
Y-102485D01*
X616663Y-103150D01*
X615334D01*
X614669Y-102485D01*
X651529Y-140123D02*
X647541D01*
Y-138129D01*
X648206Y-137464D01*
X649535D01*
X650200Y-138129D01*
Y-140123D01*
Y-138794D02*
X651529Y-137464D01*
X647541Y-133476D02*
X648206Y-134805D01*
X649535Y-136135D01*
X650865D01*
X651529Y-135470D01*
Y-134141D01*
X650865Y-133476D01*
X650200D01*
X649535Y-134141D01*
Y-136135D01*
X606449Y-155293D02*
X605785Y-154628D01*
X604455D01*
X603791Y-155293D01*
Y-157951D01*
X604455Y-158616D01*
X605785D01*
X606449Y-157951D01*
X610437Y-158616D02*
X607779D01*
X610437Y-155957D01*
Y-155293D01*
X609773Y-154628D01*
X608443D01*
X607779Y-155293D01*
X614426Y-154628D02*
X611767D01*
Y-156622D01*
X613096Y-155957D01*
X613761D01*
X614426Y-156622D01*
Y-157951D01*
X613761Y-158616D01*
X612431D01*
X611767Y-157951D01*
X602974Y-171018D02*
Y-167030D01*
X604968D01*
X605633Y-167694D01*
Y-169024D01*
X604968Y-169688D01*
X602974D01*
X604303D02*
X605633Y-171018D01*
X606962D02*
X608291D01*
X607627D01*
Y-167030D01*
X606962Y-167694D01*
X610286D02*
X610950Y-167030D01*
X612280D01*
X612944Y-167694D01*
Y-170353D01*
X612280Y-171018D01*
X610950D01*
X610286Y-170353D01*
Y-167694D01*
X464020Y-31254D02*
Y-27266D01*
X466014D01*
X466679Y-27930D01*
Y-29260D01*
X466014Y-29924D01*
X464020D01*
X465349D02*
X466679Y-31254D01*
X470667D02*
X468008D01*
X470667Y-28595D01*
Y-27930D01*
X470002Y-27266D01*
X468673D01*
X468008Y-27930D01*
X471996Y-30589D02*
X472661Y-31254D01*
X473990D01*
X474655Y-30589D01*
Y-27930D01*
X473990Y-27266D01*
X472661D01*
X471996Y-27930D01*
Y-28595D01*
X472661Y-29260D01*
X474655D01*
X490135Y-172118D02*
X489470Y-172782D01*
Y-174112D01*
X490135Y-174776D01*
X492794D01*
X493459Y-174112D01*
Y-172782D01*
X492794Y-172118D01*
X493459Y-168794D02*
X489470D01*
X491465Y-170788D01*
Y-168130D01*
X493459Y-166800D02*
Y-165471D01*
Y-166136D01*
X489470D01*
X490135Y-166800D01*
X31865Y-91820D02*
X31201Y-91155D01*
X29871D01*
X29207Y-91820D01*
Y-94478D01*
X29871Y-95143D01*
X31201D01*
X31865Y-94478D01*
X33195Y-91155D02*
X35854D01*
Y-91820D01*
X33195Y-94478D01*
Y-95143D01*
X16438Y-173055D02*
X15774Y-172390D01*
X14444D01*
X13780Y-173055D01*
Y-175713D01*
X14444Y-176378D01*
X15774D01*
X16438Y-175713D01*
X17768Y-176378D02*
X19097D01*
X18432D01*
Y-172390D01*
X17768Y-173055D01*
X21091D02*
X21756Y-172390D01*
X23085D01*
X23750Y-173055D01*
Y-175713D01*
X23085Y-176378D01*
X21756D01*
X21091Y-175713D01*
Y-173055D01*
X25079Y-175713D02*
X25744Y-176378D01*
X27073D01*
X27738Y-175713D01*
Y-173055D01*
X27073Y-172390D01*
X25744D01*
X25079Y-173055D01*
Y-173719D01*
X25744Y-174384D01*
X27738D01*
X8115Y-204277D02*
Y-200289D01*
X10109D01*
X10773Y-200954D01*
Y-202283D01*
X10109Y-202948D01*
X8115D01*
X9444D02*
X10773Y-204277D01*
X12103D02*
X13432D01*
X12767D01*
Y-200289D01*
X12103Y-200954D01*
X15426Y-203613D02*
X16091Y-204277D01*
X17420D01*
X18085Y-203613D01*
Y-200954D01*
X17420Y-200289D01*
X16091D01*
X15426Y-200954D01*
Y-201619D01*
X16091Y-202283D01*
X18085D01*
X64128Y-242177D02*
X60140D01*
Y-240183D01*
X60804Y-239518D01*
X62134D01*
X62799Y-240183D01*
Y-242177D01*
Y-240848D02*
X64128Y-239518D01*
X60140Y-235530D02*
Y-238189D01*
X62134D01*
X61469Y-236860D01*
Y-236195D01*
X62134Y-235530D01*
X63463D01*
X64128Y-236195D01*
Y-237524D01*
X63463Y-238189D01*
X64128Y-231542D02*
Y-234201D01*
X61469Y-231542D01*
X60804D01*
X60140Y-232207D01*
Y-233536D01*
X60804Y-234201D01*
X25515Y-293959D02*
X24185D01*
X24850D01*
Y-297282D01*
X24185Y-297947D01*
X23521D01*
X22856Y-297282D01*
X26844D02*
X27509Y-297947D01*
X28838D01*
X29503Y-297282D01*
Y-294623D01*
X28838Y-293959D01*
X27509D01*
X26844Y-294623D01*
Y-295288D01*
X27509Y-295953D01*
X29503D01*
X54331Y-292403D02*
Y-300000D01*
X58130D01*
X59396Y-298734D01*
Y-293669D01*
X58130Y-292403D01*
X54331D01*
X61928Y-300000D02*
Y-294935D01*
X64461Y-292403D01*
X66993Y-294935D01*
Y-300000D01*
Y-296201D01*
X61928D01*
X74591Y-293669D02*
X73325Y-292403D01*
X70792D01*
X69526Y-293669D01*
Y-298734D01*
X70792Y-300000D01*
X73325D01*
X74591Y-298734D01*
X77123Y-301266D02*
X82188D01*
X88520Y-292403D02*
X85987D01*
X84721Y-293669D01*
Y-298734D01*
X85987Y-300000D01*
X88520D01*
X89786Y-298734D01*
Y-293669D01*
X88520Y-292403D01*
X92318D02*
Y-298734D01*
X93585Y-300000D01*
X96117D01*
X97383Y-298734D01*
Y-292403D01*
X99916D02*
X104981D01*
X102448D01*
Y-300000D01*
X571410Y-99781D02*
X570745Y-99116D01*
X569416D01*
X568751Y-99781D01*
Y-102440D01*
X569416Y-103104D01*
X570745D01*
X571410Y-102440D01*
X575398Y-103104D02*
X572739D01*
X575398Y-100445D01*
Y-99781D01*
X574733Y-99116D01*
X573404D01*
X572739Y-99781D01*
X576727D02*
X577392Y-99116D01*
X578722D01*
X579386Y-99781D01*
Y-102440D01*
X578722Y-103104D01*
X577392D01*
X576727Y-102440D01*
Y-99781D01*
X584426Y-105195D02*
X583762Y-105860D01*
Y-107189D01*
X584426Y-107854D01*
X587085D01*
X587750Y-107189D01*
Y-105860D01*
X587085Y-105195D01*
X587750Y-103866D02*
Y-102536D01*
Y-103201D01*
X583762D01*
X584426Y-103866D01*
X587085Y-100542D02*
X587750Y-99878D01*
Y-98548D01*
X587085Y-97884D01*
X584426D01*
X583762Y-98548D01*
Y-99878D01*
X584426Y-100542D01*
X585091D01*
X585756Y-99878D01*
Y-97884D01*
X552587Y-100174D02*
X551922Y-99510D01*
X550593D01*
X549928Y-100174D01*
Y-102833D01*
X550593Y-103498D01*
X551922D01*
X552587Y-102833D01*
X553917Y-103498D02*
X555246D01*
X554581D01*
Y-99510D01*
X553917Y-100174D01*
X557240D02*
X557905Y-99510D01*
X559234D01*
X559899Y-100174D01*
Y-100839D01*
X559234Y-101504D01*
X559899Y-102169D01*
Y-102833D01*
X559234Y-103498D01*
X557905D01*
X557240Y-102833D01*
Y-102169D01*
X557905Y-101504D01*
X557240Y-100839D01*
Y-100174D01*
X557905Y-101504D02*
X559234D01*
X88532Y-107041D02*
Y-103053D01*
X90526D01*
X91190Y-103718D01*
Y-105047D01*
X90526Y-105712D01*
X88532D01*
X89861D02*
X91190Y-107041D01*
X95178D02*
X92520D01*
X95178Y-104383D01*
Y-103718D01*
X94514Y-103053D01*
X93184D01*
X92520Y-103718D01*
X96508D02*
X97172Y-103053D01*
X98502D01*
X99167Y-103718D01*
Y-106377D01*
X98502Y-107041D01*
X97172D01*
X96508Y-106377D01*
Y-103718D01*
X63215Y-91715D02*
X62550Y-91050D01*
X61221D01*
X60556Y-91715D01*
Y-94374D01*
X61221Y-95038D01*
X62550D01*
X63215Y-94374D01*
X64544Y-91715D02*
X65209Y-91050D01*
X66539D01*
X67203Y-91715D01*
Y-92380D01*
X66539Y-93044D01*
X67203Y-93709D01*
Y-94374D01*
X66539Y-95038D01*
X65209D01*
X64544Y-94374D01*
Y-93709D01*
X65209Y-93044D01*
X64544Y-92380D01*
Y-91715D01*
X65209Y-93044D02*
X66539D01*
X638341Y-132554D02*
X634352D01*
Y-130560D01*
X635017Y-129895D01*
X636346D01*
X637011Y-130560D01*
Y-132554D01*
Y-131225D02*
X638341Y-129895D01*
Y-128566D02*
Y-127236D01*
Y-127901D01*
X634352D01*
X635017Y-128566D01*
X638341Y-123248D02*
X634352D01*
X636346Y-125242D01*
Y-122584D01*
X649758Y-198207D02*
X645770D01*
Y-196213D01*
X646434Y-195548D01*
X647764D01*
X648428Y-196213D01*
Y-198207D01*
Y-196878D02*
X649758Y-195548D01*
Y-194219D02*
Y-192890D01*
Y-193554D01*
X645770D01*
X646434Y-194219D01*
X649758Y-188237D02*
Y-190896D01*
X647099Y-188237D01*
X646434D01*
X645770Y-188901D01*
Y-190231D01*
X646434Y-190896D01*
X638954Y-196109D02*
X638289Y-196773D01*
Y-198103D01*
X638954Y-198767D01*
X641613D01*
X642277Y-198103D01*
Y-196773D01*
X641613Y-196109D01*
X638954Y-194779D02*
X638289Y-194114D01*
Y-192785D01*
X638954Y-192121D01*
X639619D01*
X640283Y-192785D01*
Y-193450D01*
Y-192785D01*
X640948Y-192121D01*
X641613D01*
X642277Y-192785D01*
Y-194114D01*
X641613Y-194779D01*
X638954Y-190791D02*
X638289Y-190126D01*
Y-188797D01*
X638954Y-188132D01*
X641613D01*
X642277Y-188797D01*
Y-190126D01*
X641613Y-190791D01*
X638954D01*
X626230Y-196631D02*
X625565Y-195966D01*
X624236D01*
X623571Y-196631D01*
Y-199290D01*
X624236Y-199955D01*
X625565D01*
X626230Y-199290D01*
X630218Y-199955D02*
X627559D01*
X630218Y-197296D01*
Y-196631D01*
X629553Y-195966D01*
X628224D01*
X627559Y-196631D01*
X631547Y-199290D02*
X632212Y-199955D01*
X633541D01*
X634206Y-199290D01*
Y-196631D01*
X633541Y-195966D01*
X632212D01*
X631547Y-196631D01*
Y-197296D01*
X632212Y-197961D01*
X634206D01*
X640377Y-137105D02*
X639713Y-137770D01*
Y-139099D01*
X640377Y-139764D01*
X643036D01*
X643701Y-139099D01*
Y-137770D01*
X643036Y-137105D01*
X643701Y-133117D02*
Y-135776D01*
X641042Y-133117D01*
X640377D01*
X639713Y-133782D01*
Y-135111D01*
X640377Y-135776D01*
Y-131788D02*
X639713Y-131123D01*
Y-129794D01*
X640377Y-129129D01*
X641042D01*
X641707Y-129794D01*
X642371Y-129129D01*
X643036D01*
X643701Y-129794D01*
Y-131123D01*
X643036Y-131788D01*
X642371D01*
X641707Y-131123D01*
X641042Y-131788D01*
X640377D01*
X641707Y-131123D02*
Y-129794D01*
X637876Y-273878D02*
X637211Y-273213D01*
X635882D01*
X635217Y-273878D01*
Y-276537D01*
X635882Y-277202D01*
X637211D01*
X637876Y-276537D01*
X639205Y-277202D02*
X640534D01*
X639870D01*
Y-273213D01*
X639205Y-273878D01*
X605812Y-191266D02*
X605147Y-190602D01*
X603818D01*
X603153Y-191266D01*
Y-193925D01*
X603818Y-194590D01*
X605147D01*
X605812Y-193925D01*
X609800Y-190602D02*
X608471Y-191266D01*
X607141Y-192596D01*
Y-193925D01*
X607806Y-194590D01*
X609135D01*
X609800Y-193925D01*
Y-193260D01*
X609135Y-192596D01*
X607141D01*
X612006Y-287719D02*
X608018D01*
Y-285724D01*
X608683Y-285060D01*
X610012D01*
X610677Y-285724D01*
Y-287719D01*
Y-286389D02*
X612006Y-285060D01*
Y-283730D02*
Y-282401D01*
Y-283066D01*
X608018D01*
X608683Y-283730D01*
X586198Y-192495D02*
X585534Y-193159D01*
Y-194489D01*
X586198Y-195153D01*
X588857D01*
X589522Y-194489D01*
Y-193159D01*
X588857Y-192495D01*
X586198Y-191165D02*
X585534Y-190501D01*
Y-189171D01*
X586198Y-188507D01*
X586863D01*
X587528Y-189171D01*
Y-189836D01*
Y-189171D01*
X588192Y-188507D01*
X588857D01*
X589522Y-189171D01*
Y-190501D01*
X588857Y-191165D01*
X589522Y-187177D02*
Y-185848D01*
Y-186513D01*
X585534D01*
X586198Y-187177D01*
X583442Y-290203D02*
X582778Y-290868D01*
Y-292197D01*
X583442Y-292862D01*
X586101D01*
X586766Y-292197D01*
Y-290868D01*
X586101Y-290203D01*
X582778Y-286215D02*
Y-288874D01*
X584772D01*
X584107Y-287544D01*
Y-286880D01*
X584772Y-286215D01*
X586101D01*
X586766Y-286880D01*
Y-288209D01*
X586101Y-288874D01*
X583442Y-284886D02*
X582778Y-284221D01*
Y-282892D01*
X583442Y-282227D01*
X584107D01*
X584772Y-282892D01*
Y-283556D01*
Y-282892D01*
X585436Y-282227D01*
X586101D01*
X586766Y-282892D01*
Y-284221D01*
X586101Y-284886D01*
X539118Y-168954D02*
X538453Y-168289D01*
X537124D01*
X536459Y-168954D01*
Y-171613D01*
X537124Y-172277D01*
X538453D01*
X539118Y-171613D01*
X543106Y-172277D02*
X540448D01*
X543106Y-169619D01*
Y-168954D01*
X542442Y-168289D01*
X541112D01*
X540448Y-168954D01*
X546430Y-172277D02*
Y-168289D01*
X544436Y-170283D01*
X547094D01*
X552734Y-142568D02*
X552069Y-143232D01*
Y-144562D01*
X552734Y-145226D01*
X555392D01*
X556057Y-144562D01*
Y-143232D01*
X555392Y-142568D01*
X556057Y-138579D02*
Y-141238D01*
X553398Y-138579D01*
X552734D01*
X552069Y-139244D01*
Y-140574D01*
X552734Y-141238D01*
Y-137250D02*
X552069Y-136585D01*
Y-135256D01*
X552734Y-134591D01*
X553398D01*
X554063Y-135256D01*
Y-135921D01*
Y-135256D01*
X554728Y-134591D01*
X555392D01*
X556057Y-135256D01*
Y-136585D01*
X555392Y-137250D01*
X550544Y-189938D02*
X549879Y-189274D01*
X548550D01*
X547885Y-189938D01*
Y-192597D01*
X548550Y-193262D01*
X549879D01*
X550544Y-192597D01*
X554532Y-193262D02*
X551873D01*
X554532Y-190603D01*
Y-189938D01*
X553867Y-189274D01*
X552538D01*
X551873Y-189938D01*
X558520Y-193262D02*
X555861D01*
X558520Y-190603D01*
Y-189938D01*
X557855Y-189274D01*
X556526D01*
X555861Y-189938D01*
X492181Y-256671D02*
X491516Y-256006D01*
X490187D01*
X489522Y-256671D01*
Y-259329D01*
X490187Y-259994D01*
X491516D01*
X492181Y-259329D01*
X496169Y-256006D02*
X493510D01*
Y-258000D01*
X494840Y-257335D01*
X495505D01*
X496169Y-258000D01*
Y-259329D01*
X495505Y-259994D01*
X494175D01*
X493510Y-259329D01*
X499493Y-259994D02*
Y-256006D01*
X497499Y-258000D01*
X500157D01*
X481474Y-289608D02*
X480809Y-290273D01*
Y-291602D01*
X481474Y-292267D01*
X484132D01*
X484797Y-291602D01*
Y-290273D01*
X484132Y-289608D01*
X484797Y-286285D02*
X480809D01*
X482803Y-288279D01*
Y-285620D01*
X484797Y-282297D02*
X480809D01*
X482803Y-284291D01*
Y-281632D01*
X167694Y-215805D02*
X167030Y-216469D01*
Y-217799D01*
X167694Y-218463D01*
X170353D01*
X171018Y-217799D01*
Y-216469D01*
X170353Y-215805D01*
X167694Y-214475D02*
X167030Y-213811D01*
Y-212481D01*
X167694Y-211817D01*
X168359D01*
X169024Y-212481D01*
Y-213146D01*
Y-212481D01*
X169688Y-211817D01*
X170353D01*
X171018Y-212481D01*
Y-213811D01*
X170353Y-214475D01*
X160782Y-255489D02*
X160118Y-254825D01*
X158788D01*
X158124Y-255489D01*
Y-258148D01*
X158788Y-258813D01*
X160118D01*
X160782Y-258148D01*
X162112Y-255489D02*
X162776Y-254825D01*
X164106D01*
X164770Y-255489D01*
Y-256154D01*
X164106Y-256819D01*
X164770Y-257484D01*
Y-258148D01*
X164106Y-258813D01*
X162776D01*
X162112Y-258148D01*
Y-257484D01*
X162776Y-256819D01*
X162112Y-256154D01*
Y-255489D01*
X162776Y-256819D02*
X164106D01*
X168759Y-254825D02*
X166100D01*
Y-256819D01*
X167429Y-256154D01*
X168094D01*
X168759Y-256819D01*
Y-258148D01*
X168094Y-258813D01*
X166764D01*
X166100Y-258148D01*
X151627Y-239741D02*
X150962Y-239077D01*
X149632D01*
X148968Y-239741D01*
Y-242400D01*
X149632Y-243065D01*
X150962D01*
X151627Y-242400D01*
X152956Y-239741D02*
X153621Y-239077D01*
X154950D01*
X155615Y-239741D01*
Y-240406D01*
X154950Y-241071D01*
X154285D01*
X154950D01*
X155615Y-241736D01*
Y-242400D01*
X154950Y-243065D01*
X153621D01*
X152956Y-242400D01*
X159603Y-239077D02*
X158273Y-239741D01*
X156944Y-241071D01*
Y-242400D01*
X157609Y-243065D01*
X158938D01*
X159603Y-242400D01*
Y-241736D01*
X158938Y-241071D01*
X156944D01*
X113701Y-258026D02*
Y-254037D01*
X115695D01*
X116360Y-254702D01*
Y-256031D01*
X115695Y-256696D01*
X113701D01*
X115031D02*
X116360Y-258026D01*
X117689D02*
X119019D01*
X118354D01*
Y-254037D01*
X117689Y-254702D01*
X123671Y-254037D02*
X122342Y-254702D01*
X121013Y-256031D01*
Y-257361D01*
X121677Y-258026D01*
X123007D01*
X123671Y-257361D01*
Y-256696D01*
X123007Y-256031D01*
X121013D01*
X128643Y-254551D02*
X127978Y-253886D01*
X126649D01*
X125984Y-254551D01*
Y-257209D01*
X126649Y-257874D01*
X127978D01*
X128643Y-257209D01*
X129972Y-253886D02*
X132631D01*
Y-254551D01*
X129972Y-257209D01*
Y-257874D01*
X136619Y-253886D02*
X133960D01*
Y-255880D01*
X135290Y-255215D01*
X135954D01*
X136619Y-255880D01*
Y-257209D01*
X135954Y-257874D01*
X134625D01*
X133960Y-257209D01*
X103156Y-230137D02*
X99168D01*
Y-228143D01*
X99832Y-227479D01*
X101162D01*
X101827Y-228143D01*
Y-230137D01*
Y-228808D02*
X103156Y-227479D01*
X99168Y-223491D02*
Y-226149D01*
X101162D01*
X100497Y-224820D01*
Y-224155D01*
X101162Y-223491D01*
X102491D01*
X103156Y-224155D01*
Y-225485D01*
X102491Y-226149D01*
X99832Y-222161D02*
X99168Y-221497D01*
Y-220167D01*
X99832Y-219502D01*
X100497D01*
X101162Y-220167D01*
X101827Y-219502D01*
X102491D01*
X103156Y-220167D01*
Y-221497D01*
X102491Y-222161D01*
X101827D01*
X101162Y-221497D01*
X100497Y-222161D01*
X99832D01*
X101162Y-221497D02*
Y-220167D01*
X91096Y-133319D02*
X87108D01*
Y-131325D01*
X87773Y-130660D01*
X89102D01*
X89767Y-131325D01*
Y-133319D01*
Y-131990D02*
X91096Y-130660D01*
Y-126672D02*
Y-129331D01*
X88438Y-126672D01*
X87773D01*
X87108Y-127337D01*
Y-128666D01*
X87773Y-129331D01*
X91096Y-122684D02*
Y-125343D01*
X88438Y-122684D01*
X87773D01*
X87108Y-123349D01*
Y-124678D01*
X87773Y-125343D01*
X111569Y-132065D02*
X107581D01*
Y-130071D01*
X108245Y-129407D01*
X109575D01*
X110240Y-130071D01*
Y-132065D01*
Y-130736D02*
X111569Y-129407D01*
Y-125418D02*
Y-128077D01*
X108910Y-125418D01*
X108245D01*
X107581Y-126083D01*
Y-127413D01*
X108245Y-128077D01*
X111569Y-124089D02*
Y-122760D01*
Y-123424D01*
X107581D01*
X108245Y-124089D01*
X93634Y-279726D02*
Y-283715D01*
X96293D01*
X100281D02*
X97622D01*
X100281Y-281056D01*
Y-280391D01*
X99616Y-279726D01*
X98287D01*
X97622Y-280391D01*
X102709Y-272420D02*
X102044Y-271755D01*
X100715D01*
X100050Y-272420D01*
Y-275079D01*
X100715Y-275743D01*
X102044D01*
X102709Y-275079D01*
X106697Y-271755D02*
X104039D01*
Y-273749D01*
X105368Y-273084D01*
X106033D01*
X106697Y-273749D01*
Y-275079D01*
X106033Y-275743D01*
X104703D01*
X104039Y-275079D01*
X110685Y-271755D02*
X108027D01*
Y-273749D01*
X109356Y-273084D01*
X110021D01*
X110685Y-273749D01*
Y-275079D01*
X110021Y-275743D01*
X108691D01*
X108027Y-275079D01*
X69640Y-229674D02*
X65652D01*
Y-227680D01*
X66316Y-227015D01*
X67646D01*
X68310Y-227680D01*
Y-229674D01*
Y-228345D02*
X69640Y-227015D01*
X65652Y-223027D02*
Y-225686D01*
X67646D01*
X66981Y-224357D01*
Y-223692D01*
X67646Y-223027D01*
X68975D01*
X69640Y-223692D01*
Y-225021D01*
X68975Y-225686D01*
X69640Y-219704D02*
X65652D01*
X67646Y-221698D01*
Y-219039D01*
X58172Y-279899D02*
X57507Y-279234D01*
X56178D01*
X55513Y-279899D01*
Y-282558D01*
X56178Y-283222D01*
X57507D01*
X58172Y-282558D01*
X59501Y-279234D02*
X62160D01*
Y-279899D01*
X59501Y-282558D01*
Y-283222D01*
X63490D02*
X64819D01*
X64154D01*
Y-279234D01*
X63490Y-279899D01*
X67300Y-275639D02*
X66636Y-276303D01*
Y-277633D01*
X67300Y-278297D01*
X69959D01*
X70624Y-277633D01*
Y-276303D01*
X69959Y-275639D01*
X67300Y-274309D02*
X66636Y-273644D01*
Y-272315D01*
X67300Y-271650D01*
X67965D01*
X68630Y-272315D01*
Y-272980D01*
Y-272315D01*
X69295Y-271650D01*
X69959D01*
X70624Y-272315D01*
Y-273644D01*
X69959Y-274309D01*
X66636Y-270321D02*
Y-267662D01*
X67300D01*
X69959Y-270321D01*
X70624D01*
X35111Y-184189D02*
X34446Y-184854D01*
Y-186183D01*
X35111Y-186848D01*
X37770D01*
X38435Y-186183D01*
Y-184854D01*
X37770Y-184189D01*
X38435Y-182860D02*
Y-181530D01*
Y-182195D01*
X34446D01*
X35111Y-182860D01*
X38435Y-179536D02*
Y-178207D01*
Y-178871D01*
X34446D01*
X35111Y-179536D01*
X38435Y-176213D02*
Y-174883D01*
Y-175548D01*
X34446D01*
X35111Y-176213D01*
X30096Y-252031D02*
X29431Y-252696D01*
Y-254025D01*
X30096Y-254690D01*
X32754D01*
X33419Y-254025D01*
Y-252696D01*
X32754Y-252031D01*
X33419Y-250702D02*
Y-249372D01*
Y-250037D01*
X29431D01*
X30096Y-250702D01*
Y-247378D02*
X29431Y-246713D01*
Y-245384D01*
X30096Y-244720D01*
X32754D01*
X33419Y-245384D01*
Y-246713D01*
X32754Y-247378D01*
X30096D01*
X29431Y-240731D02*
X30096Y-242061D01*
X31425Y-243390D01*
X32754D01*
X33419Y-242725D01*
Y-241396D01*
X32754Y-240731D01*
X32090D01*
X31425Y-241396D01*
Y-243390D01*
X11811Y-275590D02*
X7823D01*
Y-273597D01*
X8488Y-272932D01*
X9817D01*
X10482Y-273597D01*
Y-275590D01*
Y-274261D02*
X11811Y-272932D01*
X7823Y-268944D02*
Y-271602D01*
X9817D01*
X9152Y-270273D01*
Y-269608D01*
X9817Y-268944D01*
X11146D01*
X11811Y-269608D01*
Y-270938D01*
X11146Y-271602D01*
X7823Y-267614D02*
Y-264956D01*
X8488D01*
X11146Y-267614D01*
X11811D01*
X15923Y-268664D02*
X15258Y-269328D01*
Y-270658D01*
X15923Y-271322D01*
X18581D01*
X19246Y-270658D01*
Y-269328D01*
X18581Y-268664D01*
X19246Y-267334D02*
Y-266005D01*
Y-266670D01*
X15258D01*
X15923Y-267334D01*
Y-264011D02*
X15258Y-263346D01*
Y-262017D01*
X15923Y-261352D01*
X18581D01*
X19246Y-262017D01*
Y-263346D01*
X18581Y-264011D01*
X15923D01*
Y-260023D02*
X15258Y-259358D01*
Y-258029D01*
X15923Y-257364D01*
X16587D01*
X17252Y-258029D01*
Y-258693D01*
Y-258029D01*
X17917Y-257364D01*
X18581D01*
X19246Y-258029D01*
Y-259358D01*
X18581Y-260023D01*
X661537Y-267273D02*
Y-264615D01*
Y-265944D01*
X665525D01*
Y-263285D02*
Y-261956D01*
Y-262620D01*
X661537D01*
X662202Y-263285D01*
X601706Y-142294D02*
Y-138306D01*
X603700D01*
X604365Y-138971D01*
Y-140300D01*
X603700Y-140965D01*
X601706D01*
X603036D02*
X604365Y-142294D01*
X605694D02*
X607024D01*
X606359D01*
Y-138306D01*
X605694Y-138971D01*
X609018D02*
X609683Y-138306D01*
X611012D01*
X611677Y-138971D01*
Y-139635D01*
X611012Y-140300D01*
X610347D01*
X611012D01*
X611677Y-140965D01*
Y-141629D01*
X611012Y-142294D01*
X609683D01*
X609018Y-141629D01*
X507458Y-260974D02*
X506793Y-261639D01*
Y-262968D01*
X507458Y-263633D01*
X510117D01*
X510781Y-262968D01*
Y-261639D01*
X510117Y-260974D01*
X506793Y-256986D02*
Y-259645D01*
X508787D01*
X508123Y-258316D01*
Y-257651D01*
X508787Y-256986D01*
X510117D01*
X510781Y-257651D01*
Y-258980D01*
X510117Y-259645D01*
X506793Y-252998D02*
X507458Y-254328D01*
X508787Y-255657D01*
X510117D01*
X510781Y-254992D01*
Y-253663D01*
X510117Y-252998D01*
X509452D01*
X508787Y-253663D01*
Y-255657D01*
X494505Y-31215D02*
Y-31880D01*
X495834Y-33209D01*
X497164Y-31880D01*
Y-31215D01*
X495834Y-33209D02*
Y-35203D01*
X498493D02*
X499823D01*
X499158D01*
Y-31215D01*
X498493Y-31880D01*
X74139Y-117874D02*
X73474Y-117209D01*
X72145D01*
X71480Y-117874D01*
Y-120533D01*
X72145Y-121197D01*
X73474D01*
X74139Y-120533D01*
X75468D02*
X76133Y-121197D01*
X77462D01*
X78127Y-120533D01*
Y-117874D01*
X77462Y-117209D01*
X76133D01*
X75468Y-117874D01*
Y-118538D01*
X76133Y-119203D01*
X78127D01*
X33987Y-104722D02*
X33322Y-104057D01*
X31993D01*
X31328Y-104722D01*
Y-107380D01*
X31993Y-108045D01*
X33322D01*
X33987Y-107380D01*
X35316Y-108045D02*
X36645D01*
X35981D01*
Y-104057D01*
X35316Y-104722D01*
X38640Y-108045D02*
X39969D01*
X39304D01*
Y-104057D01*
X38640Y-104722D01*
X29285Y-154984D02*
X25297D01*
Y-152990D01*
X25962Y-152325D01*
X27291D01*
X27956Y-152990D01*
Y-154984D01*
Y-153655D02*
X29285Y-152325D01*
X25962Y-150996D02*
X25297Y-150331D01*
Y-149002D01*
X25962Y-148337D01*
X26627D01*
X27291Y-149002D01*
Y-149666D01*
Y-149002D01*
X27956Y-148337D01*
X28621D01*
X29285Y-149002D01*
Y-150331D01*
X28621Y-150996D01*
X9843Y-225984D02*
X5854D01*
Y-223990D01*
X6519Y-223325D01*
X7848D01*
X8513Y-223990D01*
Y-225984D01*
Y-224655D02*
X9843Y-223325D01*
X5854Y-219337D02*
Y-221996D01*
X7848D01*
X7184Y-220667D01*
Y-220002D01*
X7848Y-219337D01*
X9178D01*
X9843Y-220002D01*
Y-221331D01*
X9178Y-221996D01*
X5854Y-215349D02*
Y-218008D01*
X7848D01*
X7184Y-216679D01*
Y-216014D01*
X7848Y-215349D01*
X9178D01*
X9843Y-216014D01*
Y-217343D01*
X9178Y-218008D01*
D12*
X218898Y-52461D02*
Y-50787D01*
X220571D01*
X218898Y-64173D02*
Y-62500D01*
Y-64173D02*
X220571D01*
X230610D02*
X232283D01*
Y-62500D01*
Y-52461D02*
Y-50787D01*
X230610D02*
X232283D01*
M02*
