G04*
G04 #@! TF.GenerationSoftware,Altium Limited,Altium Designer,19.1.8 (144)*
G04*
G04 Layer_Color=16711935*
%FSLAX25Y25*%
%MOIN*%
G70*
G01*
G75*
%ADD11C,0.01000*%
%ADD146C,0.00309*%
D11*
X288918Y-71811D02*
Y-43937D01*
X649123Y-191824D02*
X676997D01*
X735632Y-93305D02*
Y-83465D01*
Y-118898D02*
Y-109057D01*
X730905D02*
X735632D01*
X730905Y-93305D02*
X735632D01*
X730905Y-109057D02*
Y-93305D01*
X735632Y-238975D02*
Y-229134D01*
Y-264567D02*
Y-254726D01*
X730905D02*
X735632D01*
X730905Y-238975D02*
X735632D01*
X730905Y-254726D02*
Y-238975D01*
X736022Y-69683D02*
Y-34254D01*
X735632Y-141928D02*
Y-132087D01*
Y-167520D02*
Y-157679D01*
X730905D02*
X735632D01*
X730905Y-141928D02*
X735632D01*
X730905Y-157679D02*
Y-141928D01*
X735632Y-190550D02*
Y-180709D01*
Y-216142D02*
Y-206301D01*
X730905D02*
X735632D01*
X730905Y-190550D02*
X735632D01*
X730905Y-206301D02*
Y-190550D01*
X28189Y-289409D02*
X56063D01*
D146*
X291016Y-49283D02*
X289375D01*
X291016D02*
Y-49986D01*
X290937Y-50220D01*
X290859Y-50298D01*
X290703Y-50376D01*
X290547D01*
X290391Y-50298D01*
X290313Y-50220D01*
X290234Y-49986D01*
Y-49283D02*
Y-49986D01*
X290156Y-50220D01*
X290078Y-50298D01*
X289922Y-50376D01*
X289688D01*
X289531Y-50298D01*
X289453Y-50220D01*
X289375Y-49986D01*
Y-49283D01*
X291016Y-51212D02*
X290937Y-51056D01*
X290781Y-50900D01*
X290625Y-50822D01*
X290391Y-50744D01*
X290000D01*
X289766Y-50822D01*
X289610Y-50900D01*
X289453Y-51056D01*
X289375Y-51212D01*
Y-51525D01*
X289453Y-51681D01*
X289610Y-51837D01*
X289766Y-51915D01*
X290000Y-51993D01*
X290391D01*
X290625Y-51915D01*
X290781Y-51837D01*
X290937Y-51681D01*
X291016Y-51525D01*
Y-51212D01*
X289375Y-53626D02*
X291016Y-53001D01*
X289375Y-52376D01*
X289922Y-52610D02*
Y-53391D01*
X291016Y-54008D02*
X289375D01*
X291016D02*
Y-54711D01*
X290937Y-54945D01*
X290859Y-55023D01*
X290703Y-55102D01*
X290547D01*
X290391Y-55023D01*
X290313Y-54945D01*
X290234Y-54711D01*
Y-54008D01*
Y-54555D02*
X289375Y-55102D01*
X291016Y-55469D02*
X289375D01*
X291016D02*
Y-56015D01*
X290937Y-56250D01*
X290781Y-56406D01*
X290625Y-56484D01*
X290391Y-56562D01*
X290000D01*
X289766Y-56484D01*
X289610Y-56406D01*
X289453Y-56250D01*
X289375Y-56015D01*
Y-55469D01*
X291016Y-59233D02*
Y-58218D01*
X289375D01*
Y-59233D01*
X290234Y-58218D02*
Y-58843D01*
X291016Y-59507D02*
X289375D01*
X291016D02*
Y-60053D01*
X290937Y-60288D01*
X290781Y-60444D01*
X290625Y-60522D01*
X290391Y-60600D01*
X290000D01*
X289766Y-60522D01*
X289610Y-60444D01*
X289453Y-60288D01*
X289375Y-60053D01*
Y-59507D01*
X290625Y-62139D02*
X290781Y-62060D01*
X290937Y-61904D01*
X291016Y-61748D01*
Y-61436D01*
X290937Y-61279D01*
X290781Y-61123D01*
X290625Y-61045D01*
X290391Y-60967D01*
X290000D01*
X289766Y-61045D01*
X289610Y-61123D01*
X289453Y-61279D01*
X289375Y-61436D01*
Y-61748D01*
X289453Y-61904D01*
X289610Y-62060D01*
X289766Y-62139D01*
X290000D01*
Y-61748D02*
Y-62139D01*
X291016Y-63529D02*
Y-62514D01*
X289375D01*
Y-63529D01*
X290234Y-62514D02*
Y-63138D01*
X654469Y-189726D02*
Y-191366D01*
Y-189726D02*
X655172D01*
X655406Y-189804D01*
X655484Y-189882D01*
X655562Y-190038D01*
Y-190194D01*
X655484Y-190351D01*
X655406Y-190429D01*
X655172Y-190507D01*
X654469D02*
X655172D01*
X655406Y-190585D01*
X655484Y-190663D01*
X655562Y-190819D01*
Y-191054D01*
X655484Y-191210D01*
X655406Y-191288D01*
X655172Y-191366D01*
X654469D01*
X656398Y-189726D02*
X656242Y-189804D01*
X656085Y-189960D01*
X656007Y-190116D01*
X655929Y-190351D01*
Y-190741D01*
X656007Y-190975D01*
X656085Y-191132D01*
X656242Y-191288D01*
X656398Y-191366D01*
X656710D01*
X656867Y-191288D01*
X657023Y-191132D01*
X657101Y-190975D01*
X657179Y-190741D01*
Y-190351D01*
X657101Y-190116D01*
X657023Y-189960D01*
X656867Y-189804D01*
X656710Y-189726D01*
X656398D01*
X658811Y-191366D02*
X658186Y-189726D01*
X657562Y-191366D01*
X657796Y-190819D02*
X658577D01*
X659194Y-189726D02*
Y-191366D01*
Y-189726D02*
X659897D01*
X660131Y-189804D01*
X660209Y-189882D01*
X660287Y-190038D01*
Y-190194D01*
X660209Y-190351D01*
X660131Y-190429D01*
X659897Y-190507D01*
X659194D01*
X659741D02*
X660287Y-191366D01*
X660654Y-189726D02*
Y-191366D01*
Y-189726D02*
X661201D01*
X661436Y-189804D01*
X661592Y-189960D01*
X661670Y-190116D01*
X661748Y-190351D01*
Y-190741D01*
X661670Y-190975D01*
X661592Y-191132D01*
X661436Y-191288D01*
X661201Y-191366D01*
X660654D01*
X664419Y-189726D02*
X663404D01*
Y-191366D01*
X664419D01*
X663404Y-190507D02*
X664029D01*
X664692Y-189726D02*
Y-191366D01*
Y-189726D02*
X665239D01*
X665473Y-189804D01*
X665630Y-189960D01*
X665708Y-190116D01*
X665786Y-190351D01*
Y-190741D01*
X665708Y-190975D01*
X665630Y-191132D01*
X665473Y-191288D01*
X665239Y-191366D01*
X664692D01*
X667324Y-190116D02*
X667246Y-189960D01*
X667090Y-189804D01*
X666934Y-189726D01*
X666621D01*
X666465Y-189804D01*
X666309Y-189960D01*
X666231Y-190116D01*
X666153Y-190351D01*
Y-190741D01*
X666231Y-190975D01*
X666309Y-191132D01*
X666465Y-191288D01*
X666621Y-191366D01*
X666934D01*
X667090Y-191288D01*
X667246Y-191132D01*
X667324Y-190975D01*
Y-190741D01*
X666934D02*
X667324D01*
X668715Y-189726D02*
X667699D01*
Y-191366D01*
X668715D01*
X667699Y-190507D02*
X668324D01*
X739195Y-93006D02*
X740835D01*
X739195D02*
Y-92303D01*
X739273Y-92068D01*
X739351Y-91990D01*
X739508Y-91912D01*
X739664D01*
X739820Y-91990D01*
X739898Y-92068D01*
X739976Y-92303D01*
Y-93006D02*
Y-92303D01*
X740054Y-92068D01*
X740132Y-91990D01*
X740289Y-91912D01*
X740523D01*
X740679Y-91990D01*
X740757Y-92068D01*
X740835Y-92303D01*
Y-93006D01*
X739195Y-91076D02*
X739273Y-91233D01*
X739430Y-91389D01*
X739586Y-91467D01*
X739820Y-91545D01*
X740210D01*
X740445Y-91467D01*
X740601Y-91389D01*
X740757Y-91233D01*
X740835Y-91076D01*
Y-90764D01*
X740757Y-90608D01*
X740601Y-90452D01*
X740445Y-90374D01*
X740210Y-90295D01*
X739820D01*
X739586Y-90374D01*
X739430Y-90452D01*
X739273Y-90608D01*
X739195Y-90764D01*
Y-91076D01*
X740835Y-88663D02*
X739195Y-89288D01*
X740835Y-89913D01*
X740289Y-89679D02*
Y-88898D01*
X739195Y-88280D02*
X740835D01*
X739195D02*
Y-87577D01*
X739273Y-87343D01*
X739351Y-87265D01*
X739508Y-87187D01*
X739664D01*
X739820Y-87265D01*
X739898Y-87343D01*
X739976Y-87577D01*
Y-88280D01*
Y-87734D02*
X740835Y-87187D01*
X739195Y-86820D02*
X740835D01*
X739195D02*
Y-86273D01*
X739273Y-86039D01*
X739430Y-85883D01*
X739586Y-85805D01*
X739820Y-85726D01*
X740210D01*
X740445Y-85805D01*
X740601Y-85883D01*
X740757Y-86039D01*
X740835Y-86273D01*
Y-86820D01*
X742512Y-91330D02*
Y-92346D01*
X744152D01*
Y-91330D01*
X743293Y-92346D02*
Y-91721D01*
X742512Y-91057D02*
X744152D01*
X742512D02*
Y-90510D01*
X742590Y-90276D01*
X742746Y-90120D01*
X742903Y-90042D01*
X743137Y-89964D01*
X743527D01*
X743762Y-90042D01*
X743918Y-90120D01*
X744074Y-90276D01*
X744152Y-90510D01*
Y-91057D01*
X742903Y-88425D02*
X742746Y-88503D01*
X742590Y-88659D01*
X742512Y-88816D01*
Y-89128D01*
X742590Y-89284D01*
X742746Y-89440D01*
X742903Y-89518D01*
X743137Y-89597D01*
X743527D01*
X743762Y-89518D01*
X743918Y-89440D01*
X744074Y-89284D01*
X744152Y-89128D01*
Y-88816D01*
X744074Y-88659D01*
X743918Y-88503D01*
X743762Y-88425D01*
X743527D01*
Y-88816D02*
Y-88425D01*
X742512Y-87035D02*
Y-88050D01*
X744152D01*
Y-87035D01*
X743293Y-88050D02*
Y-87425D01*
X739195Y-118595D02*
X740835D01*
X739195D02*
Y-117893D01*
X739273Y-117658D01*
X739351Y-117580D01*
X739508Y-117502D01*
X739664D01*
X739820Y-117580D01*
X739898Y-117658D01*
X739976Y-117893D01*
Y-118595D02*
Y-117893D01*
X740054Y-117658D01*
X740132Y-117580D01*
X740289Y-117502D01*
X740523D01*
X740679Y-117580D01*
X740757Y-117658D01*
X740835Y-117893D01*
Y-118595D01*
X739195Y-116666D02*
X739273Y-116823D01*
X739430Y-116979D01*
X739586Y-117057D01*
X739820Y-117135D01*
X740210D01*
X740445Y-117057D01*
X740601Y-116979D01*
X740757Y-116823D01*
X740835Y-116666D01*
Y-116354D01*
X740757Y-116198D01*
X740601Y-116042D01*
X740445Y-115963D01*
X740210Y-115885D01*
X739820D01*
X739586Y-115963D01*
X739430Y-116042D01*
X739273Y-116198D01*
X739195Y-116354D01*
Y-116666D01*
X740835Y-114253D02*
X739195Y-114878D01*
X740835Y-115503D01*
X740289Y-115268D02*
Y-114487D01*
X739195Y-113870D02*
X740835D01*
X739195D02*
Y-113167D01*
X739273Y-112933D01*
X739351Y-112855D01*
X739508Y-112777D01*
X739664D01*
X739820Y-112855D01*
X739898Y-112933D01*
X739976Y-113167D01*
Y-113870D01*
Y-113323D02*
X740835Y-112777D01*
X739195Y-112410D02*
X740835D01*
X739195D02*
Y-111863D01*
X739273Y-111629D01*
X739430Y-111472D01*
X739586Y-111394D01*
X739820Y-111316D01*
X740210D01*
X740445Y-111394D01*
X740601Y-111472D01*
X740757Y-111629D01*
X740835Y-111863D01*
Y-112410D01*
X742512Y-116920D02*
Y-117936D01*
X744152D01*
Y-116920D01*
X743293Y-117936D02*
Y-117311D01*
X742512Y-116647D02*
X744152D01*
X742512D02*
Y-116100D01*
X742590Y-115866D01*
X742746Y-115710D01*
X742903Y-115632D01*
X743137Y-115553D01*
X743527D01*
X743762Y-115632D01*
X743918Y-115710D01*
X744074Y-115866D01*
X744152Y-116100D01*
Y-116647D01*
X742903Y-114015D02*
X742746Y-114093D01*
X742590Y-114249D01*
X742512Y-114405D01*
Y-114718D01*
X742590Y-114874D01*
X742746Y-115030D01*
X742903Y-115108D01*
X743137Y-115186D01*
X743527D01*
X743762Y-115108D01*
X743918Y-115030D01*
X744074Y-114874D01*
X744152Y-114718D01*
Y-114405D01*
X744074Y-114249D01*
X743918Y-114093D01*
X743762Y-114015D01*
X743527D01*
Y-114405D02*
Y-114015D01*
X742512Y-112625D02*
Y-113640D01*
X744152D01*
Y-112625D01*
X743293Y-113640D02*
Y-113015D01*
X739195Y-238675D02*
X740835D01*
X739195D02*
Y-237972D01*
X739273Y-237738D01*
X739351Y-237660D01*
X739508Y-237581D01*
X739664D01*
X739820Y-237660D01*
X739898Y-237738D01*
X739976Y-237972D01*
Y-238675D02*
Y-237972D01*
X740054Y-237738D01*
X740132Y-237660D01*
X740289Y-237581D01*
X740523D01*
X740679Y-237660D01*
X740757Y-237738D01*
X740835Y-237972D01*
Y-238675D01*
X739195Y-236746D02*
X739273Y-236902D01*
X739430Y-237058D01*
X739586Y-237136D01*
X739820Y-237214D01*
X740210D01*
X740445Y-237136D01*
X740601Y-237058D01*
X740757Y-236902D01*
X740835Y-236746D01*
Y-236433D01*
X740757Y-236277D01*
X740601Y-236121D01*
X740445Y-236043D01*
X740210Y-235965D01*
X739820D01*
X739586Y-236043D01*
X739430Y-236121D01*
X739273Y-236277D01*
X739195Y-236433D01*
Y-236746D01*
X740835Y-234332D02*
X739195Y-234957D01*
X740835Y-235582D01*
X740289Y-235348D02*
Y-234567D01*
X739195Y-233950D02*
X740835D01*
X739195D02*
Y-233247D01*
X739273Y-233013D01*
X739351Y-232934D01*
X739508Y-232856D01*
X739664D01*
X739820Y-232934D01*
X739898Y-233013D01*
X739976Y-233247D01*
Y-233950D01*
Y-233403D02*
X740835Y-232856D01*
X739195Y-232489D02*
X740835D01*
X739195D02*
Y-231943D01*
X739273Y-231708D01*
X739430Y-231552D01*
X739586Y-231474D01*
X739820Y-231396D01*
X740210D01*
X740445Y-231474D01*
X740601Y-231552D01*
X740757Y-231708D01*
X740835Y-231943D01*
Y-232489D01*
X742512Y-237000D02*
Y-238015D01*
X744152D01*
Y-237000D01*
X743293Y-238015D02*
Y-237390D01*
X742512Y-236726D02*
X744152D01*
X742512D02*
Y-236180D01*
X742590Y-235945D01*
X742746Y-235789D01*
X742903Y-235711D01*
X743137Y-235633D01*
X743527D01*
X743762Y-235711D01*
X743918Y-235789D01*
X744074Y-235945D01*
X744152Y-236180D01*
Y-236726D01*
X742903Y-234094D02*
X742746Y-234173D01*
X742590Y-234329D01*
X742512Y-234485D01*
Y-234797D01*
X742590Y-234953D01*
X742746Y-235110D01*
X742903Y-235188D01*
X743137Y-235266D01*
X743527D01*
X743762Y-235188D01*
X743918Y-235110D01*
X744074Y-234953D01*
X744152Y-234797D01*
Y-234485D01*
X744074Y-234329D01*
X743918Y-234173D01*
X743762Y-234094D01*
X743527D01*
Y-234485D02*
Y-234094D01*
X742512Y-232704D02*
Y-233719D01*
X744152D01*
Y-232704D01*
X743293Y-233719D02*
Y-233095D01*
X739195Y-264265D02*
X740835D01*
X739195D02*
Y-263562D01*
X739273Y-263328D01*
X739351Y-263249D01*
X739508Y-263171D01*
X739664D01*
X739820Y-263249D01*
X739898Y-263328D01*
X739976Y-263562D01*
Y-264265D02*
Y-263562D01*
X740054Y-263328D01*
X740132Y-263249D01*
X740289Y-263171D01*
X740523D01*
X740679Y-263249D01*
X740757Y-263328D01*
X740835Y-263562D01*
Y-264265D01*
X739195Y-262336D02*
X739273Y-262492D01*
X739430Y-262648D01*
X739586Y-262726D01*
X739820Y-262804D01*
X740210D01*
X740445Y-262726D01*
X740601Y-262648D01*
X740757Y-262492D01*
X740835Y-262336D01*
Y-262023D01*
X740757Y-261867D01*
X740601Y-261711D01*
X740445Y-261633D01*
X740210Y-261555D01*
X739820D01*
X739586Y-261633D01*
X739430Y-261711D01*
X739273Y-261867D01*
X739195Y-262023D01*
Y-262336D01*
X740835Y-259922D02*
X739195Y-260547D01*
X740835Y-261172D01*
X740289Y-260938D02*
Y-260156D01*
X739195Y-259540D02*
X740835D01*
X739195D02*
Y-258837D01*
X739273Y-258602D01*
X739351Y-258524D01*
X739508Y-258446D01*
X739664D01*
X739820Y-258524D01*
X739898Y-258602D01*
X739976Y-258837D01*
Y-259540D01*
Y-258993D02*
X740835Y-258446D01*
X739195Y-258079D02*
X740835D01*
X739195D02*
Y-257532D01*
X739273Y-257298D01*
X739430Y-257142D01*
X739586Y-257064D01*
X739820Y-256986D01*
X740210D01*
X740445Y-257064D01*
X740601Y-257142D01*
X740757Y-257298D01*
X740835Y-257532D01*
Y-258079D01*
X742512Y-262590D02*
Y-263605D01*
X744152D01*
Y-262590D01*
X743293Y-263605D02*
Y-262980D01*
X742512Y-262316D02*
X744152D01*
X742512D02*
Y-261770D01*
X742590Y-261535D01*
X742746Y-261379D01*
X742903Y-261301D01*
X743137Y-261223D01*
X743527D01*
X743762Y-261301D01*
X743918Y-261379D01*
X744074Y-261535D01*
X744152Y-261770D01*
Y-262316D01*
X742903Y-259684D02*
X742746Y-259762D01*
X742590Y-259918D01*
X742512Y-260075D01*
Y-260387D01*
X742590Y-260543D01*
X742746Y-260700D01*
X742903Y-260778D01*
X743137Y-260856D01*
X743527D01*
X743762Y-260778D01*
X743918Y-260700D01*
X744074Y-260543D01*
X744152Y-260387D01*
Y-260075D01*
X744074Y-259918D01*
X743918Y-259762D01*
X743762Y-259684D01*
X743527D01*
Y-260075D02*
Y-259684D01*
X742512Y-258294D02*
Y-259309D01*
X744152D01*
Y-258294D01*
X743293Y-259309D02*
Y-258684D01*
X734067Y-61562D02*
X735707D01*
X734067D02*
Y-60859D01*
X734145Y-60625D01*
X734223Y-60547D01*
X734379Y-60469D01*
X734535D01*
X734692Y-60547D01*
X734770Y-60625D01*
X734848Y-60859D01*
Y-61562D02*
Y-60859D01*
X734926Y-60625D01*
X735004Y-60547D01*
X735160Y-60469D01*
X735394D01*
X735551Y-60547D01*
X735629Y-60625D01*
X735707Y-60859D01*
Y-61562D01*
X734067Y-59633D02*
X734145Y-59789D01*
X734301Y-59945D01*
X734457Y-60023D01*
X734692Y-60101D01*
X735082D01*
X735316Y-60023D01*
X735473Y-59945D01*
X735629Y-59789D01*
X735707Y-59633D01*
Y-59320D01*
X735629Y-59164D01*
X735473Y-59008D01*
X735316Y-58930D01*
X735082Y-58852D01*
X734692D01*
X734457Y-58930D01*
X734301Y-59008D01*
X734145Y-59164D01*
X734067Y-59320D01*
Y-59633D01*
X735707Y-57219D02*
X734067Y-57844D01*
X735707Y-58469D01*
X735160Y-58235D02*
Y-57454D01*
X734067Y-56837D02*
X735707D01*
X734067D02*
Y-56134D01*
X734145Y-55900D01*
X734223Y-55821D01*
X734379Y-55743D01*
X734535D01*
X734692Y-55821D01*
X734770Y-55900D01*
X734848Y-56134D01*
Y-56837D01*
Y-56290D02*
X735707Y-55743D01*
X734067Y-55376D02*
X735707D01*
X734067D02*
Y-54830D01*
X734145Y-54595D01*
X734301Y-54439D01*
X734457Y-54361D01*
X734692Y-54283D01*
X735082D01*
X735316Y-54361D01*
X735473Y-54439D01*
X735629Y-54595D01*
X735707Y-54830D01*
Y-55376D01*
X734108Y-49012D02*
Y-50028D01*
X735748D01*
Y-49012D01*
X734889Y-50028D02*
Y-49403D01*
X734108Y-48739D02*
X735748D01*
X734108D02*
Y-48192D01*
X734186Y-47958D01*
X734342Y-47802D01*
X734499Y-47724D01*
X734733Y-47646D01*
X735123D01*
X735358Y-47724D01*
X735514Y-47802D01*
X735670Y-47958D01*
X735748Y-48192D01*
Y-48739D01*
X734499Y-46107D02*
X734342Y-46185D01*
X734186Y-46341D01*
X734108Y-46497D01*
Y-46810D01*
X734186Y-46966D01*
X734342Y-47122D01*
X734499Y-47200D01*
X734733Y-47278D01*
X735123D01*
X735358Y-47200D01*
X735514Y-47122D01*
X735670Y-46966D01*
X735748Y-46810D01*
Y-46497D01*
X735670Y-46341D01*
X735514Y-46185D01*
X735358Y-46107D01*
X735123D01*
Y-46497D02*
Y-46107D01*
X734108Y-44717D02*
Y-45732D01*
X735748D01*
Y-44717D01*
X734889Y-45732D02*
Y-45107D01*
X739195Y-141628D02*
X740835D01*
X739195D02*
Y-140925D01*
X739273Y-140691D01*
X739351Y-140612D01*
X739508Y-140534D01*
X739664D01*
X739820Y-140612D01*
X739898Y-140691D01*
X739976Y-140925D01*
Y-141628D02*
Y-140925D01*
X740054Y-140691D01*
X740132Y-140612D01*
X740289Y-140534D01*
X740523D01*
X740679Y-140612D01*
X740757Y-140691D01*
X740835Y-140925D01*
Y-141628D01*
X739195Y-139699D02*
X739273Y-139855D01*
X739430Y-140011D01*
X739586Y-140089D01*
X739820Y-140167D01*
X740210D01*
X740445Y-140089D01*
X740601Y-140011D01*
X740757Y-139855D01*
X740835Y-139699D01*
Y-139386D01*
X740757Y-139230D01*
X740601Y-139074D01*
X740445Y-138996D01*
X740210Y-138918D01*
X739820D01*
X739586Y-138996D01*
X739430Y-139074D01*
X739273Y-139230D01*
X739195Y-139386D01*
Y-139699D01*
X740835Y-137285D02*
X739195Y-137910D01*
X740835Y-138535D01*
X740289Y-138301D02*
Y-137520D01*
X739195Y-136902D02*
X740835D01*
X739195D02*
Y-136200D01*
X739273Y-135965D01*
X739351Y-135887D01*
X739508Y-135809D01*
X739664D01*
X739820Y-135887D01*
X739898Y-135965D01*
X739976Y-136200D01*
Y-136902D01*
Y-136356D02*
X740835Y-135809D01*
X739195Y-135442D02*
X740835D01*
X739195D02*
Y-134895D01*
X739273Y-134661D01*
X739430Y-134505D01*
X739586Y-134427D01*
X739820Y-134349D01*
X740210D01*
X740445Y-134427D01*
X740601Y-134505D01*
X740757Y-134661D01*
X740835Y-134895D01*
Y-135442D01*
X742512Y-139953D02*
Y-140968D01*
X744152D01*
Y-139953D01*
X743293Y-140968D02*
Y-140343D01*
X742512Y-139679D02*
X744152D01*
X742512D02*
Y-139132D01*
X742590Y-138898D01*
X742746Y-138742D01*
X742903Y-138664D01*
X743137Y-138586D01*
X743527D01*
X743762Y-138664D01*
X743918Y-138742D01*
X744074Y-138898D01*
X744152Y-139132D01*
Y-139679D01*
X742903Y-137047D02*
X742746Y-137125D01*
X742590Y-137281D01*
X742512Y-137438D01*
Y-137750D01*
X742590Y-137906D01*
X742746Y-138063D01*
X742903Y-138141D01*
X743137Y-138219D01*
X743527D01*
X743762Y-138141D01*
X743918Y-138063D01*
X744074Y-137906D01*
X744152Y-137750D01*
Y-137438D01*
X744074Y-137281D01*
X743918Y-137125D01*
X743762Y-137047D01*
X743527D01*
Y-137438D02*
Y-137047D01*
X742512Y-135657D02*
Y-136672D01*
X744152D01*
Y-135657D01*
X743293Y-136672D02*
Y-136047D01*
X739195Y-167218D02*
X740835D01*
X739195D02*
Y-166515D01*
X739273Y-166280D01*
X739351Y-166202D01*
X739508Y-166124D01*
X739664D01*
X739820Y-166202D01*
X739898Y-166280D01*
X739976Y-166515D01*
Y-167218D02*
Y-166515D01*
X740054Y-166280D01*
X740132Y-166202D01*
X740289Y-166124D01*
X740523D01*
X740679Y-166202D01*
X740757Y-166280D01*
X740835Y-166515D01*
Y-167218D01*
X739195Y-165288D02*
X739273Y-165445D01*
X739430Y-165601D01*
X739586Y-165679D01*
X739820Y-165757D01*
X740210D01*
X740445Y-165679D01*
X740601Y-165601D01*
X740757Y-165445D01*
X740835Y-165288D01*
Y-164976D01*
X740757Y-164820D01*
X740601Y-164664D01*
X740445Y-164585D01*
X740210Y-164507D01*
X739820D01*
X739586Y-164585D01*
X739430Y-164664D01*
X739273Y-164820D01*
X739195Y-164976D01*
Y-165288D01*
X740835Y-162875D02*
X739195Y-163500D01*
X740835Y-164125D01*
X740289Y-163890D02*
Y-163109D01*
X739195Y-162492D02*
X740835D01*
X739195D02*
Y-161789D01*
X739273Y-161555D01*
X739351Y-161477D01*
X739508Y-161399D01*
X739664D01*
X739820Y-161477D01*
X739898Y-161555D01*
X739976Y-161789D01*
Y-162492D01*
Y-161945D02*
X740835Y-161399D01*
X739195Y-161032D02*
X740835D01*
X739195D02*
Y-160485D01*
X739273Y-160251D01*
X739430Y-160094D01*
X739586Y-160016D01*
X739820Y-159938D01*
X740210D01*
X740445Y-160016D01*
X740601Y-160094D01*
X740757Y-160251D01*
X740835Y-160485D01*
Y-161032D01*
X742512Y-165542D02*
Y-166558D01*
X744152D01*
Y-165542D01*
X743293Y-166558D02*
Y-165933D01*
X742512Y-165269D02*
X744152D01*
X742512D02*
Y-164722D01*
X742590Y-164488D01*
X742746Y-164332D01*
X742903Y-164254D01*
X743137Y-164175D01*
X743527D01*
X743762Y-164254D01*
X743918Y-164332D01*
X744074Y-164488D01*
X744152Y-164722D01*
Y-165269D01*
X742903Y-162637D02*
X742746Y-162715D01*
X742590Y-162871D01*
X742512Y-163027D01*
Y-163340D01*
X742590Y-163496D01*
X742746Y-163652D01*
X742903Y-163730D01*
X743137Y-163808D01*
X743527D01*
X743762Y-163730D01*
X743918Y-163652D01*
X744074Y-163496D01*
X744152Y-163340D01*
Y-163027D01*
X744074Y-162871D01*
X743918Y-162715D01*
X743762Y-162637D01*
X743527D01*
Y-163027D02*
Y-162637D01*
X742512Y-161247D02*
Y-162262D01*
X744152D01*
Y-161247D01*
X743293Y-162262D02*
Y-161637D01*
X739195Y-190250D02*
X740835D01*
X739195D02*
Y-189547D01*
X739273Y-189313D01*
X739351Y-189234D01*
X739508Y-189156D01*
X739664D01*
X739820Y-189234D01*
X739898Y-189313D01*
X739976Y-189547D01*
Y-190250D02*
Y-189547D01*
X740054Y-189313D01*
X740132Y-189234D01*
X740289Y-189156D01*
X740523D01*
X740679Y-189234D01*
X740757Y-189313D01*
X740835Y-189547D01*
Y-190250D01*
X739195Y-188321D02*
X739273Y-188477D01*
X739430Y-188633D01*
X739586Y-188711D01*
X739820Y-188789D01*
X740210D01*
X740445Y-188711D01*
X740601Y-188633D01*
X740757Y-188477D01*
X740835Y-188321D01*
Y-188008D01*
X740757Y-187852D01*
X740601Y-187696D01*
X740445Y-187618D01*
X740210Y-187540D01*
X739820D01*
X739586Y-187618D01*
X739430Y-187696D01*
X739273Y-187852D01*
X739195Y-188008D01*
Y-188321D01*
X740835Y-185907D02*
X739195Y-186532D01*
X740835Y-187157D01*
X740289Y-186923D02*
Y-186142D01*
X739195Y-185524D02*
X740835D01*
X739195D02*
Y-184822D01*
X739273Y-184587D01*
X739351Y-184509D01*
X739508Y-184431D01*
X739664D01*
X739820Y-184509D01*
X739898Y-184587D01*
X739976Y-184822D01*
Y-185524D01*
Y-184978D02*
X740835Y-184431D01*
X739195Y-184064D02*
X740835D01*
X739195D02*
Y-183517D01*
X739273Y-183283D01*
X739430Y-183127D01*
X739586Y-183049D01*
X739820Y-182971D01*
X740210D01*
X740445Y-183049D01*
X740601Y-183127D01*
X740757Y-183283D01*
X740835Y-183517D01*
Y-184064D01*
X742512Y-188575D02*
Y-189590D01*
X744152D01*
Y-188575D01*
X743293Y-189590D02*
Y-188965D01*
X742512Y-188301D02*
X744152D01*
X742512D02*
Y-187754D01*
X742590Y-187520D01*
X742746Y-187364D01*
X742903Y-187286D01*
X743137Y-187208D01*
X743527D01*
X743762Y-187286D01*
X743918Y-187364D01*
X744074Y-187520D01*
X744152Y-187754D01*
Y-188301D01*
X742903Y-185669D02*
X742746Y-185747D01*
X742590Y-185904D01*
X742512Y-186060D01*
Y-186372D01*
X742590Y-186528D01*
X742746Y-186685D01*
X742903Y-186763D01*
X743137Y-186841D01*
X743527D01*
X743762Y-186763D01*
X743918Y-186685D01*
X744074Y-186528D01*
X744152Y-186372D01*
Y-186060D01*
X744074Y-185904D01*
X743918Y-185747D01*
X743762Y-185669D01*
X743527D01*
Y-186060D02*
Y-185669D01*
X742512Y-184279D02*
Y-185294D01*
X744152D01*
Y-184279D01*
X743293Y-185294D02*
Y-184669D01*
X739195Y-215840D02*
X740835D01*
X739195D02*
Y-215137D01*
X739273Y-214902D01*
X739351Y-214824D01*
X739508Y-214746D01*
X739664D01*
X739820Y-214824D01*
X739898Y-214902D01*
X739976Y-215137D01*
Y-215840D02*
Y-215137D01*
X740054Y-214902D01*
X740132Y-214824D01*
X740289Y-214746D01*
X740523D01*
X740679Y-214824D01*
X740757Y-214902D01*
X740835Y-215137D01*
Y-215840D01*
X739195Y-213910D02*
X739273Y-214067D01*
X739430Y-214223D01*
X739586Y-214301D01*
X739820Y-214379D01*
X740210D01*
X740445Y-214301D01*
X740601Y-214223D01*
X740757Y-214067D01*
X740835Y-213910D01*
Y-213598D01*
X740757Y-213442D01*
X740601Y-213286D01*
X740445Y-213208D01*
X740210Y-213129D01*
X739820D01*
X739586Y-213208D01*
X739430Y-213286D01*
X739273Y-213442D01*
X739195Y-213598D01*
Y-213910D01*
X740835Y-211497D02*
X739195Y-212122D01*
X740835Y-212747D01*
X740289Y-212512D02*
Y-211731D01*
X739195Y-211114D02*
X740835D01*
X739195D02*
Y-210411D01*
X739273Y-210177D01*
X739351Y-210099D01*
X739508Y-210021D01*
X739664D01*
X739820Y-210099D01*
X739898Y-210177D01*
X739976Y-210411D01*
Y-211114D01*
Y-210568D02*
X740835Y-210021D01*
X739195Y-209654D02*
X740835D01*
X739195D02*
Y-209107D01*
X739273Y-208873D01*
X739430Y-208717D01*
X739586Y-208639D01*
X739820Y-208560D01*
X740210D01*
X740445Y-208639D01*
X740601Y-208717D01*
X740757Y-208873D01*
X740835Y-209107D01*
Y-209654D01*
X742512Y-214164D02*
Y-215180D01*
X744152D01*
Y-214164D01*
X743293Y-215180D02*
Y-214555D01*
X742512Y-213891D02*
X744152D01*
X742512D02*
Y-213344D01*
X742590Y-213110D01*
X742746Y-212954D01*
X742903Y-212876D01*
X743137Y-212798D01*
X743527D01*
X743762Y-212876D01*
X743918Y-212954D01*
X744074Y-213110D01*
X744152Y-213344D01*
Y-213891D01*
X742903Y-211259D02*
X742746Y-211337D01*
X742590Y-211493D01*
X742512Y-211649D01*
Y-211962D01*
X742590Y-212118D01*
X742746Y-212274D01*
X742903Y-212352D01*
X743137Y-212431D01*
X743527D01*
X743762Y-212352D01*
X743918Y-212274D01*
X744074Y-212118D01*
X744152Y-211962D01*
Y-211649D01*
X744074Y-211493D01*
X743918Y-211337D01*
X743762Y-211259D01*
X743527D01*
Y-211649D02*
Y-211259D01*
X742512Y-209869D02*
Y-210884D01*
X744152D01*
Y-209869D01*
X743293Y-210884D02*
Y-210259D01*
X33535Y-287311D02*
Y-288951D01*
Y-287311D02*
X34238D01*
X34472Y-287389D01*
X34550Y-287468D01*
X34628Y-287624D01*
Y-287780D01*
X34550Y-287936D01*
X34472Y-288014D01*
X34238Y-288092D01*
X33535D02*
X34238D01*
X34472Y-288170D01*
X34550Y-288248D01*
X34628Y-288405D01*
Y-288639D01*
X34550Y-288795D01*
X34472Y-288873D01*
X34238Y-288951D01*
X33535D01*
X35464Y-287311D02*
X35308Y-287389D01*
X35152Y-287546D01*
X35074Y-287702D01*
X34995Y-287936D01*
Y-288327D01*
X35074Y-288561D01*
X35152Y-288717D01*
X35308Y-288873D01*
X35464Y-288951D01*
X35776D01*
X35933Y-288873D01*
X36089Y-288717D01*
X36167Y-288561D01*
X36245Y-288327D01*
Y-287936D01*
X36167Y-287702D01*
X36089Y-287546D01*
X35933Y-287389D01*
X35776Y-287311D01*
X35464D01*
X37877Y-288951D02*
X37253Y-287311D01*
X36628Y-288951D01*
X36862Y-288405D02*
X37643D01*
X38260Y-287311D02*
Y-288951D01*
Y-287311D02*
X38963D01*
X39197Y-287389D01*
X39276Y-287468D01*
X39354Y-287624D01*
Y-287780D01*
X39276Y-287936D01*
X39197Y-288014D01*
X38963Y-288092D01*
X38260D01*
X38807D02*
X39354Y-288951D01*
X39721Y-287311D02*
Y-288951D01*
Y-287311D02*
X40267D01*
X40502Y-287389D01*
X40658Y-287546D01*
X40736Y-287702D01*
X40814Y-287936D01*
Y-288327D01*
X40736Y-288561D01*
X40658Y-288717D01*
X40502Y-288873D01*
X40267Y-288951D01*
X39721D01*
X43485Y-287311D02*
X42470D01*
Y-288951D01*
X43485D01*
X42470Y-288092D02*
X43095D01*
X43758Y-287311D02*
Y-288951D01*
Y-287311D02*
X44305D01*
X44539Y-287389D01*
X44696Y-287546D01*
X44774Y-287702D01*
X44852Y-287936D01*
Y-288327D01*
X44774Y-288561D01*
X44696Y-288717D01*
X44539Y-288873D01*
X44305Y-288951D01*
X43758D01*
X46391Y-287702D02*
X46312Y-287546D01*
X46156Y-287389D01*
X46000Y-287311D01*
X45688D01*
X45531Y-287389D01*
X45375Y-287546D01*
X45297Y-287702D01*
X45219Y-287936D01*
Y-288327D01*
X45297Y-288561D01*
X45375Y-288717D01*
X45531Y-288873D01*
X45688Y-288951D01*
X46000D01*
X46156Y-288873D01*
X46312Y-288717D01*
X46391Y-288561D01*
Y-288327D01*
X46000D02*
X46391D01*
X47781Y-287311D02*
X46766D01*
Y-288951D01*
X47781D01*
X46766Y-288092D02*
X47390D01*
M02*
