G04*
G04 #@! TF.GenerationSoftware,Altium Limited,Altium Designer,21.5.1 (32)*
G04*
G04 Layer_Color=16711935*
%FSLAX25Y25*%
%MOIN*%
G70*
G04*
G04 #@! TF.SameCoordinates,8E4C272A-96D0-452E-A51F-A0FD0E07019D*
G04*
G04*
G04 #@! TF.FilePolarity,Positive*
G04*
G01*
G75*
%ADD14C,0.00787*%
%ADD16C,0.00394*%
D14*
X-565515Y-30023D02*
X-564492Y-29915D01*
X-563513Y-29597D01*
X-562622Y-29083D01*
X-561858Y-28395D01*
X-561253Y-27562D01*
X-560835Y-26622D01*
X-560621Y-25616D01*
Y-24587D01*
X-560835Y-23581D01*
X-561253Y-22641D01*
X-561858Y-21809D01*
X-562622Y-21120D01*
X-563513Y-20606D01*
X-564492Y-20288D01*
X-565515Y-20180D01*
X-566538Y-20288D01*
X-567517Y-20606D01*
X-568408Y-21120D01*
X-569172Y-21809D01*
X-569777Y-22641D01*
X-570195Y-23581D01*
X-570409Y-24587D01*
Y-25616D01*
X-570195Y-26622D01*
X-569777Y-27562D01*
X-569172Y-28395D01*
X-568408Y-29083D01*
X-567517Y-29597D01*
X-566538Y-29915D01*
X-565515Y-30023D01*
X-375000Y-187795D02*
Y-87008D01*
X-397047D02*
X-375000D01*
X-397047Y-187795D02*
Y-87008D01*
Y-187795D02*
X-375000D01*
X-255906Y-36417D02*
Y-4921D01*
X-240945D01*
Y-36417D02*
Y-4921D01*
X-255906Y-36417D02*
X-240945D01*
X-668126Y-145095D02*
Y-125409D01*
Y-145095D02*
X-655528D01*
Y-125409D01*
X-668126D02*
X-655528D01*
X-382776Y-48819D02*
Y-26772D01*
Y-48819D02*
X-357185D01*
Y-26772D01*
X-382776D02*
X-357185D01*
D16*
X-506102Y-54921D02*
X-506366Y-53937D01*
X-507087Y-53216D01*
X-508071Y-52953D01*
X-509055Y-53216D01*
X-509776Y-53937D01*
X-510039Y-54921D01*
X-509776Y-55906D01*
X-509055Y-56626D01*
X-508071Y-56890D01*
X-507087Y-56626D01*
X-506366Y-55906D01*
X-506102Y-54921D01*
X-269882Y-119685D02*
X-256496D01*
X-269882Y-112598D02*
X-256496D01*
X-269882Y-119685D02*
Y-112598D01*
X-256496Y-119685D02*
Y-112598D01*
X-465157Y-122244D02*
Y-98248D01*
X-490905Y-122244D02*
X-465157D01*
X-490905D02*
Y-98248D01*
X-465157D01*
X-467775Y-123386D02*
Y-122244D01*
X-470345Y-125709D02*
X-467775Y-123386D01*
X-485716Y-125709D02*
X-470345D01*
X-488286Y-123386D02*
X-485716Y-125709D01*
X-488286Y-123386D02*
Y-122244D01*
X-428898Y-241004D02*
Y-239862D01*
Y-241004D02*
X-426327Y-243327D01*
X-410957D01*
X-408386Y-241004D01*
Y-239862D01*
X-431516Y-215866D02*
X-405768D01*
X-431516Y-239862D02*
Y-215866D01*
Y-239862D02*
X-405768D01*
Y-215866D01*
X-660630Y-196850D02*
X-644882D01*
Y-212598D02*
Y-196850D01*
X-660630Y-212598D02*
X-644882D01*
X-660630D02*
Y-196850D01*
Y-199409D02*
X-658071Y-196850D01*
X-516732Y-63583D02*
Y-51378D01*
X-504528Y-63583D02*
Y-51378D01*
X-516732Y-63583D02*
X-504528D01*
X-516732Y-51378D02*
X-504528D01*
X-657756Y-24705D02*
Y-23563D01*
X-660327Y-21240D02*
X-657756Y-23563D01*
X-675697Y-21240D02*
X-660327D01*
X-678268Y-23563D02*
X-675697Y-21240D01*
X-678268Y-24705D02*
Y-23563D01*
X-680886Y-48701D02*
X-655138D01*
Y-24705D01*
X-680886D02*
X-655138D01*
X-680886Y-48701D02*
Y-24705D01*
X-367914Y-138039D02*
Y-123772D01*
Y-138039D02*
X-346850D01*
Y-123772D01*
X-367914D02*
X-346850D01*
X-367914Y-122784D02*
Y-108516D01*
Y-122784D02*
X-346850D01*
Y-108516D01*
X-367914D02*
X-346850D01*
X-580709Y-237402D02*
Y-209843D01*
X-608268Y-237402D02*
X-580709D01*
X-608268D02*
Y-209843D01*
X-580709D01*
X-582677D02*
X-580709Y-211811D01*
X-79823Y-129283D02*
X-58760D01*
X-79823Y-143551D02*
Y-129283D01*
Y-143551D02*
X-58760D01*
Y-129283D01*
X-117028Y-73721D02*
X-87500D01*
X-117028D02*
Y-33169D01*
X-87500D01*
Y-73721D02*
Y-33169D01*
X-92500Y-73721D02*
X-87500Y-68721D01*
X-78740Y-203201D02*
X-57677D01*
X-78740Y-217469D02*
Y-203201D01*
Y-217469D02*
X-57677D01*
Y-203201D01*
X-183661Y-71012D02*
X-162599D01*
Y-56744D01*
X-183661D02*
X-162599D01*
X-183661Y-71012D02*
Y-56744D01*
X-185039Y-24063D02*
X-163977D01*
Y-9795D01*
X-185039D02*
X-163977D01*
X-185039Y-24063D02*
Y-9795D01*
X-344193Y-73575D02*
X-323130D01*
X-344193Y-87843D02*
Y-73575D01*
Y-87843D02*
X-323130D01*
Y-73575D01*
X-80020Y-113535D02*
X-58957D01*
X-80020Y-127803D02*
Y-113535D01*
Y-127803D02*
X-58957D01*
Y-113535D01*
X-112598Y-210976D02*
X-91535D01*
X-112598Y-225244D02*
Y-210976D01*
Y-225244D02*
X-91535D01*
Y-210976D01*
X-78642Y-220130D02*
X-57579D01*
X-78642Y-234398D02*
Y-220130D01*
Y-234398D02*
X-57579D01*
Y-220130D01*
X-78937Y-153102D02*
X-57874D01*
X-78937Y-167370D02*
Y-153102D01*
Y-167370D02*
X-57874D01*
Y-153102D01*
X-63827Y-107677D02*
Y-86614D01*
Y-107677D02*
X-49559D01*
Y-86614D01*
X-63827D02*
X-49559D01*
M02*
