M48
;Layer_Color=9474304
;FILE_FORMAT=2:4
INCH,TZ
;TYPE=PLATED
T7F00S00C0.0315
%
G90
G05
T07
G00X-7110Y-29734
M15
G01X-6637
M16
G00X-3563Y-26654
M15
G01X-4035
M16
G00X-3546Y-25685
M15
G01X-4018
M16
G00X-3546Y-23685
M15
G01X-4018
M16
G00X-3563Y-22717
M15
G01X-4035
M16
G00X-3563Y-21811
M15
G01X-4035
M16
G00X-3546Y-20843
M15
G01X-4018
M16
G00X-3546Y-18843
M15
G01X-4018
M16
G00X-3563Y-17874
M15
G01X-4035
M16
G00X-1831Y-19606
M15
G01Y-20079
M16
G00X-1831Y-24449
M15
G01Y-24921
M16
G00X-5266Y-24749
M15
G01Y-24277
M16
G00X-7110Y-19882
M15
G01X-6637
M16
G00X-17280Y-19882
M15
G01X-16808
M16
G00X-18652Y-24744
M15
G01Y-24272
M16
G00X-17280Y-29724
M15
G01X-16808
M16
G00X-3563Y-16949
M15
G01X-4035
M16
G00X-3546Y-15980
M15
G01X-4018
M16
G00X-3546Y-13980
M15
G01X-4018
M16
G00X-3563Y-13012
M15
G01X-4035
M16
G00X-3563Y-12087
M15
G01X-4035
M16
G00X-3546Y-11118
M15
G01X-4018
M16
G00X-3546Y-9118
M15
G01X-4018
M16
G00X-3563Y-8150
M15
G01X-4035
M16
G00X-1831Y-9882
M15
G01Y-10354
M16
G00X-1831Y-14744
M15
G01Y-15217
M16
M17
M30
