G04*
G04 #@! TF.GenerationSoftware,Altium Limited,Altium Designer,21.5.1 (32)*
G04*
G04 Layer_Color=16711935*
%FSLAX25Y25*%
%MOIN*%
G70*
G04*
G04 #@! TF.SameCoordinates,54AFFEB1-3E94-4089-A03D-164D74B6EA14*
G04*
G04*
G04 #@! TF.FilePolarity,Positive*
G04*
G01*
G75*
%ADD12C,0.01000*%
%ADD16C,0.00394*%
%ADD225C,0.00309*%
G36*
X-472Y-38401D02*
X-4313D01*
Y-35620D01*
X-3858D01*
Y-37890D01*
X-2687D01*
Y-35764D01*
X-2232D01*
Y-37890D01*
X-927D01*
Y-35531D01*
X-472D01*
Y-38401D01*
D02*
G37*
G36*
X-1000Y-39161D02*
X-994Y-39172D01*
X-977Y-39194D01*
X-955Y-39222D01*
X-933Y-39255D01*
X-905Y-39294D01*
X-872Y-39344D01*
X-838Y-39394D01*
X-766Y-39511D01*
X-689Y-39644D01*
X-617Y-39783D01*
X-556Y-39932D01*
Y-39938D01*
X-550Y-39949D01*
X-544Y-39971D01*
X-533Y-39999D01*
X-522Y-40038D01*
X-506Y-40082D01*
X-494Y-40132D01*
X-483Y-40182D01*
X-456Y-40304D01*
X-428Y-40443D01*
X-411Y-40593D01*
X-406Y-40748D01*
Y-40804D01*
X-411Y-40843D01*
Y-40892D01*
X-417Y-40953D01*
X-428Y-41020D01*
X-433Y-41092D01*
X-467Y-41253D01*
X-506Y-41425D01*
X-567Y-41603D01*
X-600Y-41692D01*
X-644Y-41780D01*
X-650Y-41786D01*
X-655Y-41803D01*
X-672Y-41825D01*
X-689Y-41858D01*
X-716Y-41897D01*
X-744Y-41936D01*
X-822Y-42041D01*
X-922Y-42152D01*
X-1044Y-42269D01*
X-1183Y-42380D01*
X-1344Y-42480D01*
X-1349D01*
X-1366Y-42491D01*
X-1388Y-42502D01*
X-1427Y-42519D01*
X-1466Y-42535D01*
X-1521Y-42552D01*
X-1577Y-42574D01*
X-1643Y-42596D01*
X-1715Y-42619D01*
X-1799Y-42641D01*
X-1882Y-42657D01*
X-1971Y-42674D01*
X-2165Y-42702D01*
X-2370Y-42713D01*
X-2376D01*
X-2398D01*
X-2426D01*
X-2465Y-42707D01*
X-2515D01*
X-2576Y-42702D01*
X-2637Y-42691D01*
X-2709Y-42685D01*
X-2787Y-42669D01*
X-2870Y-42657D01*
X-3047Y-42613D01*
X-3231Y-42557D01*
X-3414Y-42480D01*
X-3419Y-42474D01*
X-3436Y-42469D01*
X-3458Y-42458D01*
X-3491Y-42435D01*
X-3536Y-42413D01*
X-3580Y-42385D01*
X-3686Y-42308D01*
X-3808Y-42213D01*
X-3924Y-42097D01*
X-4041Y-41964D01*
X-4091Y-41886D01*
X-4141Y-41808D01*
X-4146Y-41803D01*
X-4152Y-41786D01*
X-4163Y-41764D01*
X-4180Y-41730D01*
X-4196Y-41686D01*
X-4219Y-41636D01*
X-4241Y-41581D01*
X-4263Y-41514D01*
X-4285Y-41442D01*
X-4302Y-41364D01*
X-4324Y-41281D01*
X-4341Y-41192D01*
X-4368Y-40998D01*
X-4379Y-40898D01*
Y-40720D01*
X-4374Y-40687D01*
Y-40643D01*
X-4363Y-40537D01*
X-4346Y-40421D01*
X-4318Y-40299D01*
X-4285Y-40165D01*
X-4241Y-40038D01*
Y-40032D01*
X-4235Y-40021D01*
X-4230Y-40005D01*
X-4219Y-39982D01*
X-4185Y-39921D01*
X-4146Y-39843D01*
X-4091Y-39760D01*
X-4024Y-39671D01*
X-3952Y-39588D01*
X-3863Y-39511D01*
X-3852Y-39499D01*
X-3819Y-39477D01*
X-3769Y-39444D01*
X-3697Y-39399D01*
X-3608Y-39355D01*
X-3497Y-39305D01*
X-3375Y-39255D01*
X-3236Y-39216D01*
X-3114Y-39677D01*
X-3120D01*
X-3125Y-39683D01*
X-3142Y-39688D01*
X-3164Y-39694D01*
X-3214Y-39710D01*
X-3280Y-39733D01*
X-3358Y-39766D01*
X-3430Y-39805D01*
X-3508Y-39843D01*
X-3575Y-39893D01*
X-3580Y-39899D01*
X-3602Y-39916D01*
X-3630Y-39949D01*
X-3669Y-39988D01*
X-3713Y-40038D01*
X-3758Y-40104D01*
X-3802Y-40176D01*
X-3841Y-40260D01*
X-3847Y-40271D01*
X-3858Y-40299D01*
X-3874Y-40349D01*
X-3897Y-40415D01*
X-3913Y-40493D01*
X-3930Y-40582D01*
X-3941Y-40682D01*
X-3946Y-40787D01*
Y-40848D01*
X-3941Y-40876D01*
Y-40909D01*
X-3935Y-40992D01*
X-3919Y-41087D01*
X-3902Y-41192D01*
X-3874Y-41292D01*
X-3836Y-41392D01*
X-3830Y-41403D01*
X-3819Y-41436D01*
X-3791Y-41481D01*
X-3763Y-41536D01*
X-3719Y-41603D01*
X-3675Y-41675D01*
X-3619Y-41742D01*
X-3558Y-41803D01*
X-3553Y-41808D01*
X-3530Y-41830D01*
X-3491Y-41858D01*
X-3447Y-41892D01*
X-3391Y-41930D01*
X-3325Y-41969D01*
X-3253Y-42008D01*
X-3175Y-42047D01*
X-3170D01*
X-3158Y-42052D01*
X-3142Y-42058D01*
X-3114Y-42069D01*
X-3081Y-42080D01*
X-3042Y-42091D01*
X-2998Y-42108D01*
X-2947Y-42119D01*
X-2831Y-42147D01*
X-2698Y-42169D01*
X-2559Y-42186D01*
X-2404Y-42191D01*
X-2398D01*
X-2381D01*
X-2354D01*
X-2320Y-42186D01*
X-2276D01*
X-2221Y-42180D01*
X-2165Y-42175D01*
X-2104Y-42169D01*
X-1965Y-42147D01*
X-1821Y-42119D01*
X-1677Y-42075D01*
X-1538Y-42019D01*
X-1532D01*
X-1521Y-42008D01*
X-1505Y-42002D01*
X-1482Y-41986D01*
X-1421Y-41947D01*
X-1344Y-41886D01*
X-1260Y-41814D01*
X-1177Y-41725D01*
X-1099Y-41620D01*
X-1027Y-41503D01*
Y-41497D01*
X-1022Y-41486D01*
X-1011Y-41470D01*
X-1000Y-41442D01*
X-988Y-41414D01*
X-977Y-41375D01*
X-944Y-41287D01*
X-916Y-41175D01*
X-888Y-41053D01*
X-866Y-40920D01*
X-861Y-40782D01*
Y-40726D01*
X-866Y-40693D01*
Y-40659D01*
X-877Y-40576D01*
X-888Y-40476D01*
X-911Y-40371D01*
X-944Y-40254D01*
X-983Y-40138D01*
Y-40132D01*
X-988Y-40121D01*
X-994Y-40110D01*
X-1005Y-40088D01*
X-1033Y-40027D01*
X-1066Y-39960D01*
X-1105Y-39882D01*
X-1149Y-39799D01*
X-1199Y-39721D01*
X-1255Y-39655D01*
X-1976D01*
Y-40787D01*
X-2431D01*
Y-39155D01*
X-1005D01*
X-1000Y-39161D01*
D02*
G37*
G36*
X-2340Y-43164D02*
X-2295D01*
X-2190Y-43169D01*
X-2068Y-43186D01*
X-1940Y-43203D01*
X-1807Y-43230D01*
X-1674Y-43264D01*
X-1668D01*
X-1657Y-43269D01*
X-1640Y-43275D01*
X-1618Y-43280D01*
X-1557Y-43303D01*
X-1479Y-43336D01*
X-1390Y-43369D01*
X-1302Y-43413D01*
X-1207Y-43469D01*
X-1118Y-43525D01*
X-1107Y-43530D01*
X-1080Y-43552D01*
X-1041Y-43586D01*
X-991Y-43630D01*
X-935Y-43680D01*
X-880Y-43741D01*
X-819Y-43802D01*
X-769Y-43874D01*
X-763Y-43885D01*
X-747Y-43907D01*
X-724Y-43946D01*
X-697Y-44002D01*
X-663Y-44068D01*
X-636Y-44146D01*
X-602Y-44235D01*
X-591Y-44276D01*
X-561Y-44356D01*
X-533Y-44456D01*
Y-44467D01*
X-528Y-44483D01*
X-522Y-44500D01*
X-517Y-44556D01*
X-506Y-44633D01*
X-494Y-44722D01*
X-483Y-44827D01*
X-478Y-44944D01*
X-472Y-45072D01*
Y-46454D01*
X-4313D01*
Y-46333D01*
X-4354D01*
Y-44857D01*
X-4349Y-44757D01*
X-4343Y-44646D01*
X-4332Y-44535D01*
X-4315Y-44424D01*
X-4299Y-44329D01*
Y-44324D01*
X-4293Y-44313D01*
Y-44296D01*
X-4282Y-44274D01*
X-4265Y-44213D01*
X-4238Y-44135D01*
X-4199Y-44046D01*
X-4149Y-43952D01*
X-4093Y-43857D01*
X-4021Y-43769D01*
X-4016Y-43763D01*
X-4010Y-43758D01*
X-3993Y-43741D01*
X-3977Y-43719D01*
X-3921Y-43663D01*
X-3844Y-43597D01*
X-3749Y-43525D01*
X-3638Y-43447D01*
X-3511Y-43375D01*
X-3366Y-43314D01*
X-3361D01*
X-3350Y-43308D01*
X-3327Y-43297D01*
X-3294Y-43291D01*
X-3255Y-43275D01*
X-3211Y-43264D01*
X-3161Y-43253D01*
X-3100Y-43236D01*
X-3039Y-43219D01*
X-2967Y-43208D01*
X-2811Y-43180D01*
X-2639Y-43164D01*
X-2451Y-43158D01*
X-2445D01*
X-2434D01*
X-2406D01*
X-2378D01*
X-2340Y-43164D01*
D02*
G37*
G36*
X-514Y-47158D02*
X-472D01*
Y-50028D01*
X-514D01*
Y-50201D01*
X-4354D01*
Y-48420D01*
X-4349Y-48375D01*
Y-48325D01*
X-4343Y-48209D01*
X-4326Y-48087D01*
X-4313Y-47978D01*
Y-47247D01*
X-3858D01*
Y-47278D01*
X-3838Y-47265D01*
X-3782Y-47243D01*
X-3710Y-47210D01*
X-3627Y-47182D01*
X-3527Y-47154D01*
X-3422Y-47137D01*
X-3305Y-47132D01*
X-3300D01*
X-3289D01*
X-3266D01*
X-3239Y-47137D01*
X-3200D01*
X-3161Y-47143D01*
X-3067Y-47165D01*
X-2956Y-47199D01*
X-2839Y-47243D01*
X-2723Y-47310D01*
X-2667Y-47354D01*
X-2620Y-47392D01*
X-2232D01*
Y-48161D01*
X-2223Y-48148D01*
X-2201Y-48103D01*
X-2140Y-48003D01*
X-2101Y-47953D01*
X-2068Y-47909D01*
X-2056Y-47898D01*
X-2029Y-47870D01*
X-1984Y-47826D01*
X-1929Y-47770D01*
X-1851Y-47709D01*
X-1768Y-47637D01*
X-1668Y-47565D01*
X-1557Y-47487D01*
X-514Y-46827D01*
Y-47158D01*
D02*
G37*
G36*
Y-51195D02*
X-1679Y-51644D01*
Y-53254D01*
X-514Y-53670D01*
Y-54208D01*
X-4354Y-52743D01*
Y-52188D01*
X-514Y-50617D01*
Y-51195D01*
D02*
G37*
G36*
X-2323Y-54447D02*
X-2273D01*
X-2212Y-54452D01*
X-2145Y-54463D01*
X-2073Y-54469D01*
X-1912Y-54497D01*
X-1735Y-54541D01*
X-1557Y-54602D01*
X-1468Y-54636D01*
X-1379Y-54680D01*
X-1374D01*
X-1357Y-54691D01*
X-1335Y-54702D01*
X-1302Y-54724D01*
X-1263Y-54747D01*
X-1224Y-54774D01*
X-1118Y-54852D01*
X-1008Y-54946D01*
X-891Y-55057D01*
X-780Y-55191D01*
X-680Y-55346D01*
Y-55352D01*
X-669Y-55363D01*
X-658Y-55390D01*
X-641Y-55424D01*
X-625Y-55462D01*
X-608Y-55507D01*
X-586Y-55563D01*
X-563Y-55624D01*
X-541Y-55690D01*
X-519Y-55762D01*
X-486Y-55923D01*
X-458Y-56095D01*
X-447Y-56278D01*
Y-56334D01*
X-453Y-56367D01*
Y-56417D01*
X-464Y-56473D01*
X-469Y-56534D01*
X-480Y-56606D01*
X-514Y-56756D01*
X-558Y-56917D01*
X-625Y-57083D01*
X-663Y-57166D01*
X-708Y-57250D01*
X-713Y-57255D01*
X-719Y-57266D01*
X-736Y-57288D01*
X-758Y-57322D01*
X-780Y-57355D01*
X-813Y-57394D01*
X-896Y-57488D01*
X-996Y-57594D01*
X-1118Y-57705D01*
X-1257Y-57805D01*
X-1418Y-57899D01*
X-1424D01*
X-1440Y-57910D01*
X-1463Y-57921D01*
X-1496Y-57932D01*
X-1540Y-57949D01*
X-1590Y-57966D01*
X-1646Y-57988D01*
X-1707Y-58004D01*
X-1779Y-58027D01*
X-1851Y-58049D01*
X-2018Y-58082D01*
X-2190Y-58104D01*
X-2378Y-58115D01*
X-2384D01*
X-2389D01*
X-2423D01*
X-2473Y-58110D01*
X-2539D01*
X-2617Y-58099D01*
X-2711Y-58088D01*
X-2817Y-58071D01*
X-2928Y-58049D01*
X-3044Y-58027D01*
X-3167Y-57993D01*
X-3289Y-57949D01*
X-3416Y-57899D01*
X-3538Y-57844D01*
X-3660Y-57771D01*
X-3771Y-57694D01*
X-3877Y-57605D01*
X-3882Y-57599D01*
X-3899Y-57583D01*
X-3927Y-57549D01*
X-3960Y-57511D01*
X-4005Y-57461D01*
X-4049Y-57399D01*
X-4099Y-57327D01*
X-4149Y-57244D01*
X-4199Y-57155D01*
X-4249Y-57055D01*
X-4293Y-56944D01*
X-4338Y-56828D01*
X-4371Y-56700D01*
X-4399Y-56567D01*
X-4415Y-56428D01*
X-4421Y-56278D01*
Y-56228D01*
X-4415Y-56190D01*
Y-56140D01*
X-4410Y-56090D01*
X-4399Y-56023D01*
X-4388Y-55957D01*
X-4360Y-55812D01*
X-4315Y-55646D01*
X-4249Y-55485D01*
X-4210Y-55401D01*
X-4166Y-55318D01*
X-4160Y-55313D01*
X-4154Y-55302D01*
X-4138Y-55279D01*
X-4121Y-55246D01*
X-4093Y-55213D01*
X-4060Y-55168D01*
X-3982Y-55074D01*
X-3882Y-54974D01*
X-3760Y-54863D01*
X-3616Y-54758D01*
X-3455Y-54669D01*
X-3449D01*
X-3433Y-54658D01*
X-3411Y-54647D01*
X-3377Y-54636D01*
X-3333Y-54613D01*
X-3283Y-54597D01*
X-3222Y-54575D01*
X-3155Y-54552D01*
X-3083Y-54536D01*
X-3005Y-54514D01*
X-2917Y-54491D01*
X-2828Y-54475D01*
X-2634Y-54452D01*
X-2423Y-54441D01*
X-2417D01*
X-2395D01*
X-2367D01*
X-2323Y-54447D01*
D02*
G37*
G36*
X-1529Y-58665D02*
X-1463Y-58676D01*
X-1385Y-58687D01*
X-1302Y-58709D01*
X-1213Y-58737D01*
X-1124Y-58776D01*
X-1113Y-58781D01*
X-1085Y-58798D01*
X-1046Y-58820D01*
X-991Y-58854D01*
X-935Y-58898D01*
X-874Y-58942D01*
X-813Y-58998D01*
X-763Y-59059D01*
X-758Y-59065D01*
X-741Y-59087D01*
X-719Y-59126D01*
X-697Y-59175D01*
X-663Y-59237D01*
X-630Y-59309D01*
X-602Y-59386D01*
X-575Y-59481D01*
Y-59492D01*
X-563Y-59525D01*
X-558Y-59581D01*
X-547Y-59653D01*
X-536Y-59742D01*
X-525Y-59847D01*
X-519Y-59964D01*
X-514Y-60097D01*
Y-61562D01*
X-4354D01*
Y-60052D01*
X-4349Y-60014D01*
Y-59969D01*
X-4338Y-59869D01*
X-4326Y-59758D01*
X-4304Y-59642D01*
X-4276Y-59525D01*
X-4238Y-59420D01*
Y-59414D01*
X-4232Y-59409D01*
X-4215Y-59375D01*
X-4188Y-59325D01*
X-4149Y-59270D01*
X-4099Y-59203D01*
X-4038Y-59131D01*
X-3960Y-59065D01*
X-3877Y-59003D01*
X-3866Y-58998D01*
X-3833Y-58981D01*
X-3788Y-58953D01*
X-3721Y-58926D01*
X-3644Y-58898D01*
X-3560Y-58870D01*
X-3466Y-58854D01*
X-3372Y-58848D01*
X-3361D01*
X-3333D01*
X-3283Y-58854D01*
X-3222Y-58865D01*
X-3150Y-58881D01*
X-3072Y-58909D01*
X-2994Y-58942D01*
X-2911Y-58987D01*
X-2900Y-58992D01*
X-2878Y-59009D01*
X-2833Y-59042D01*
X-2789Y-59087D01*
X-2734Y-59142D01*
X-2672Y-59209D01*
X-2617Y-59292D01*
X-2561Y-59386D01*
Y-59381D01*
X-2556Y-59370D01*
X-2550Y-59353D01*
X-2539Y-59331D01*
X-2517Y-59264D01*
X-2478Y-59187D01*
X-2428Y-59103D01*
X-2367Y-59009D01*
X-2295Y-58926D01*
X-2206Y-58848D01*
X-2195Y-58842D01*
X-2162Y-58820D01*
X-2112Y-58787D01*
X-2045Y-58754D01*
X-1957Y-58720D01*
X-1862Y-58687D01*
X-1751Y-58665D01*
X-1629Y-58659D01*
X-1624D01*
X-1618D01*
X-1585D01*
X-1529Y-58665D01*
D02*
G37*
G36*
X-333299Y-107783D02*
X-333854D01*
X-335424Y-103942D01*
X-334847D01*
X-334398Y-105108D01*
X-332788D01*
X-332372Y-103942D01*
X-331834D01*
X-333299Y-107783D01*
D02*
G37*
G36*
X-335841D02*
X-337622D01*
X-337667Y-107777D01*
X-337717D01*
X-337833Y-107772D01*
X-337955Y-107755D01*
X-338088Y-107738D01*
X-338211Y-107711D01*
X-338272Y-107694D01*
X-338322Y-107677D01*
X-338327D01*
X-338333Y-107672D01*
X-338366Y-107655D01*
X-338416Y-107633D01*
X-338477Y-107594D01*
X-338544Y-107544D01*
X-338616Y-107478D01*
X-338682Y-107400D01*
X-338749Y-107311D01*
Y-107306D01*
X-338755Y-107300D01*
X-338777Y-107267D01*
X-338799Y-107211D01*
X-338832Y-107139D01*
X-338860Y-107056D01*
X-338888Y-106956D01*
X-338904Y-106851D01*
X-338910Y-106734D01*
Y-106728D01*
Y-106717D01*
Y-106695D01*
X-338904Y-106667D01*
Y-106629D01*
X-338899Y-106590D01*
X-338877Y-106495D01*
X-338843Y-106384D01*
X-338799Y-106268D01*
X-338732Y-106151D01*
X-338688Y-106096D01*
X-338644Y-106040D01*
X-338638Y-106035D01*
X-338632Y-106029D01*
X-338616Y-106012D01*
X-338594Y-105996D01*
X-338566Y-105974D01*
X-338532Y-105951D01*
X-338488Y-105924D01*
X-338444Y-105890D01*
X-338388Y-105863D01*
X-338327Y-105835D01*
X-338261Y-105802D01*
X-338188Y-105774D01*
X-338105Y-105752D01*
X-338022Y-105724D01*
X-337928Y-105707D01*
X-337828Y-105691D01*
X-337839Y-105685D01*
X-337861Y-105674D01*
X-337894Y-105652D01*
X-337939Y-105630D01*
X-338038Y-105569D01*
X-338088Y-105530D01*
X-338133Y-105496D01*
X-338144Y-105485D01*
X-338172Y-105457D01*
X-338216Y-105413D01*
X-338272Y-105358D01*
X-338333Y-105280D01*
X-338405Y-105197D01*
X-338477Y-105097D01*
X-338555Y-104986D01*
X-339215Y-103942D01*
X-338582D01*
X-338077Y-104742D01*
Y-104747D01*
X-338066Y-104758D01*
X-338055Y-104775D01*
X-338038Y-104797D01*
X-338000Y-104858D01*
X-337950Y-104936D01*
X-337889Y-105019D01*
X-337828Y-105108D01*
X-337767Y-105191D01*
X-337711Y-105269D01*
X-337705Y-105274D01*
X-337689Y-105297D01*
X-337661Y-105330D01*
X-337622Y-105369D01*
X-337539Y-105452D01*
X-337495Y-105491D01*
X-337450Y-105524D01*
X-337445Y-105530D01*
X-337434Y-105535D01*
X-337411Y-105546D01*
X-337378Y-105563D01*
X-337345Y-105580D01*
X-337306Y-105596D01*
X-337217Y-105624D01*
X-337212D01*
X-337200Y-105630D01*
X-337178D01*
X-337151Y-105635D01*
X-337112Y-105641D01*
X-337067D01*
X-337006Y-105646D01*
X-336351D01*
Y-103942D01*
X-335841D01*
Y-107783D01*
D02*
G37*
G36*
X-354267Y-103881D02*
X-354217D01*
X-354156Y-103887D01*
X-354089Y-103898D01*
X-354017Y-103903D01*
X-353856Y-103937D01*
X-353684Y-103976D01*
X-353506Y-104037D01*
X-353418Y-104070D01*
X-353329Y-104114D01*
X-353323Y-104120D01*
X-353307Y-104125D01*
X-353284Y-104142D01*
X-353251Y-104159D01*
X-353212Y-104186D01*
X-353173Y-104214D01*
X-353068Y-104292D01*
X-352957Y-104392D01*
X-352840Y-104514D01*
X-352729Y-104653D01*
X-352629Y-104814D01*
Y-104819D01*
X-352618Y-104836D01*
X-352607Y-104858D01*
X-352591Y-104897D01*
X-352574Y-104936D01*
X-352557Y-104991D01*
X-352535Y-105047D01*
X-352513Y-105113D01*
X-352491Y-105185D01*
X-352468Y-105269D01*
X-352452Y-105352D01*
X-352435Y-105441D01*
X-352408Y-105635D01*
X-352396Y-105840D01*
Y-105846D01*
Y-105868D01*
Y-105896D01*
X-352402Y-105935D01*
Y-105985D01*
X-352408Y-106046D01*
X-352419Y-106107D01*
X-352424Y-106179D01*
X-352441Y-106257D01*
X-352452Y-106340D01*
X-352496Y-106518D01*
X-352552Y-106701D01*
X-352629Y-106884D01*
X-352635Y-106889D01*
X-352641Y-106906D01*
X-352652Y-106928D01*
X-352674Y-106962D01*
X-352696Y-107006D01*
X-352724Y-107050D01*
X-352801Y-107156D01*
X-352896Y-107278D01*
X-353012Y-107394D01*
X-353146Y-107511D01*
X-353223Y-107561D01*
X-353301Y-107611D01*
X-353307Y-107616D01*
X-353323Y-107622D01*
X-353345Y-107633D01*
X-353379Y-107650D01*
X-353423Y-107666D01*
X-353473Y-107689D01*
X-353529Y-107711D01*
X-353595Y-107733D01*
X-353667Y-107755D01*
X-353745Y-107772D01*
X-353828Y-107794D01*
X-353917Y-107811D01*
X-354111Y-107838D01*
X-354211Y-107850D01*
X-354389D01*
X-354422Y-107844D01*
X-354467D01*
X-354572Y-107833D01*
X-354689Y-107816D01*
X-354811Y-107789D01*
X-354944Y-107755D01*
X-355071Y-107711D01*
X-355077D01*
X-355088Y-107705D01*
X-355105Y-107700D01*
X-355127Y-107689D01*
X-355188Y-107655D01*
X-355266Y-107616D01*
X-355349Y-107561D01*
X-355438Y-107494D01*
X-355521Y-107422D01*
X-355599Y-107333D01*
X-355610Y-107322D01*
X-355632Y-107289D01*
X-355665Y-107239D01*
X-355710Y-107167D01*
X-355754Y-107078D01*
X-355804Y-106967D01*
X-355854Y-106845D01*
X-355893Y-106706D01*
X-355432Y-106584D01*
Y-106590D01*
X-355427Y-106595D01*
X-355421Y-106612D01*
X-355416Y-106634D01*
X-355399Y-106684D01*
X-355377Y-106751D01*
X-355343Y-106828D01*
X-355305Y-106901D01*
X-355266Y-106978D01*
X-355216Y-107045D01*
X-355210Y-107050D01*
X-355194Y-107072D01*
X-355160Y-107100D01*
X-355121Y-107139D01*
X-355071Y-107184D01*
X-355005Y-107228D01*
X-354933Y-107272D01*
X-354850Y-107311D01*
X-354838Y-107317D01*
X-354811Y-107328D01*
X-354761Y-107344D01*
X-354694Y-107367D01*
X-354616Y-107383D01*
X-354528Y-107400D01*
X-354428Y-107411D01*
X-354322Y-107417D01*
X-354261D01*
X-354233Y-107411D01*
X-354200D01*
X-354117Y-107405D01*
X-354023Y-107389D01*
X-353917Y-107372D01*
X-353817Y-107344D01*
X-353717Y-107306D01*
X-353706Y-107300D01*
X-353673Y-107289D01*
X-353628Y-107261D01*
X-353573Y-107234D01*
X-353506Y-107189D01*
X-353434Y-107145D01*
X-353368Y-107089D01*
X-353307Y-107028D01*
X-353301Y-107023D01*
X-353279Y-107000D01*
X-353251Y-106962D01*
X-353218Y-106917D01*
X-353179Y-106862D01*
X-353140Y-106795D01*
X-353101Y-106723D01*
X-353062Y-106645D01*
Y-106640D01*
X-353057Y-106629D01*
X-353051Y-106612D01*
X-353040Y-106584D01*
X-353029Y-106551D01*
X-353018Y-106512D01*
X-353001Y-106468D01*
X-352990Y-106418D01*
X-352962Y-106301D01*
X-352940Y-106168D01*
X-352924Y-106029D01*
X-352918Y-105874D01*
Y-105868D01*
Y-105851D01*
Y-105824D01*
X-352924Y-105790D01*
Y-105746D01*
X-352929Y-105691D01*
X-352935Y-105635D01*
X-352940Y-105574D01*
X-352962Y-105435D01*
X-352990Y-105291D01*
X-353035Y-105147D01*
X-353090Y-105008D01*
Y-105002D01*
X-353101Y-104991D01*
X-353107Y-104975D01*
X-353123Y-104952D01*
X-353162Y-104891D01*
X-353223Y-104814D01*
X-353295Y-104730D01*
X-353384Y-104647D01*
X-353490Y-104569D01*
X-353606Y-104497D01*
X-353612D01*
X-353623Y-104492D01*
X-353640Y-104481D01*
X-353667Y-104470D01*
X-353695Y-104458D01*
X-353734Y-104447D01*
X-353823Y-104414D01*
X-353934Y-104386D01*
X-354056Y-104359D01*
X-354189Y-104336D01*
X-354328Y-104331D01*
X-354383D01*
X-354417Y-104336D01*
X-354450D01*
X-354533Y-104348D01*
X-354633Y-104359D01*
X-354738Y-104381D01*
X-354855Y-104414D01*
X-354972Y-104453D01*
X-354977D01*
X-354988Y-104458D01*
X-354999Y-104464D01*
X-355022Y-104475D01*
X-355083Y-104503D01*
X-355149Y-104536D01*
X-355227Y-104575D01*
X-355310Y-104619D01*
X-355388Y-104669D01*
X-355454Y-104725D01*
Y-105446D01*
X-354322D01*
Y-105902D01*
X-355954D01*
Y-104475D01*
X-355948Y-104470D01*
X-355937Y-104464D01*
X-355915Y-104447D01*
X-355887Y-104425D01*
X-355854Y-104403D01*
X-355815Y-104375D01*
X-355765Y-104342D01*
X-355715Y-104309D01*
X-355599Y-104236D01*
X-355466Y-104159D01*
X-355327Y-104087D01*
X-355177Y-104026D01*
X-355171D01*
X-355160Y-104020D01*
X-355138Y-104015D01*
X-355110Y-104003D01*
X-355071Y-103992D01*
X-355027Y-103976D01*
X-354977Y-103964D01*
X-354927Y-103953D01*
X-354805Y-103926D01*
X-354666Y-103898D01*
X-354517Y-103881D01*
X-354361Y-103876D01*
X-354306D01*
X-354267Y-103881D01*
D02*
G37*
G36*
X-324480Y-107783D02*
X-325990D01*
X-326028Y-107777D01*
X-326073D01*
X-326173Y-107766D01*
X-326284Y-107755D01*
X-326400Y-107733D01*
X-326517Y-107705D01*
X-326622Y-107666D01*
X-326628D01*
X-326633Y-107661D01*
X-326667Y-107644D01*
X-326716Y-107616D01*
X-326772Y-107578D01*
X-326839Y-107528D01*
X-326911Y-107467D01*
X-326977Y-107389D01*
X-327038Y-107306D01*
X-327044Y-107294D01*
X-327061Y-107261D01*
X-327088Y-107217D01*
X-327116Y-107150D01*
X-327144Y-107072D01*
X-327172Y-106989D01*
X-327188Y-106895D01*
X-327194Y-106801D01*
Y-106790D01*
Y-106762D01*
X-327188Y-106712D01*
X-327177Y-106651D01*
X-327161Y-106579D01*
X-327133Y-106501D01*
X-327099Y-106423D01*
X-327055Y-106340D01*
X-327049Y-106329D01*
X-327033Y-106307D01*
X-327000Y-106262D01*
X-326955Y-106218D01*
X-326900Y-106162D01*
X-326833Y-106101D01*
X-326750Y-106046D01*
X-326656Y-105990D01*
X-326661D01*
X-326672Y-105985D01*
X-326689Y-105979D01*
X-326711Y-105968D01*
X-326778Y-105946D01*
X-326855Y-105907D01*
X-326939Y-105857D01*
X-327033Y-105796D01*
X-327116Y-105724D01*
X-327194Y-105635D01*
X-327199Y-105624D01*
X-327222Y-105591D01*
X-327255Y-105541D01*
X-327288Y-105474D01*
X-327322Y-105385D01*
X-327355Y-105291D01*
X-327377Y-105180D01*
X-327382Y-105058D01*
Y-105052D01*
Y-105047D01*
Y-105014D01*
X-327377Y-104958D01*
X-327366Y-104891D01*
X-327355Y-104814D01*
X-327333Y-104730D01*
X-327305Y-104642D01*
X-327266Y-104553D01*
X-327260Y-104542D01*
X-327244Y-104514D01*
X-327222Y-104475D01*
X-327188Y-104420D01*
X-327144Y-104364D01*
X-327099Y-104303D01*
X-327044Y-104242D01*
X-326983Y-104192D01*
X-326977Y-104186D01*
X-326955Y-104170D01*
X-326916Y-104148D01*
X-326866Y-104125D01*
X-326805Y-104092D01*
X-326733Y-104059D01*
X-326656Y-104031D01*
X-326561Y-104003D01*
X-326550D01*
X-326517Y-103992D01*
X-326461Y-103987D01*
X-326389Y-103976D01*
X-326300Y-103964D01*
X-326195Y-103953D01*
X-326078Y-103948D01*
X-325945Y-103942D01*
X-324480D01*
Y-107783D01*
D02*
G37*
G36*
X-339709D02*
X-341185D01*
X-341285Y-107777D01*
X-341396Y-107772D01*
X-341507Y-107761D01*
X-341618Y-107744D01*
X-341713Y-107727D01*
X-341718D01*
X-341729Y-107722D01*
X-341746D01*
X-341768Y-107711D01*
X-341829Y-107694D01*
X-341907Y-107666D01*
X-341996Y-107627D01*
X-342090Y-107578D01*
X-342184Y-107522D01*
X-342273Y-107450D01*
X-342279Y-107444D01*
X-342284Y-107439D01*
X-342301Y-107422D01*
X-342323Y-107405D01*
X-342379Y-107350D01*
X-342445Y-107272D01*
X-342517Y-107178D01*
X-342595Y-107067D01*
X-342667Y-106939D01*
X-342728Y-106795D01*
Y-106790D01*
X-342734Y-106778D01*
X-342745Y-106756D01*
X-342751Y-106723D01*
X-342767Y-106684D01*
X-342778Y-106640D01*
X-342789Y-106590D01*
X-342806Y-106529D01*
X-342823Y-106468D01*
X-342834Y-106395D01*
X-342862Y-106240D01*
X-342878Y-106068D01*
X-342884Y-105879D01*
Y-105874D01*
Y-105863D01*
Y-105835D01*
Y-105807D01*
X-342878Y-105768D01*
Y-105724D01*
X-342873Y-105618D01*
X-342856Y-105496D01*
X-342839Y-105369D01*
X-342811Y-105236D01*
X-342778Y-105102D01*
Y-105097D01*
X-342773Y-105086D01*
X-342767Y-105069D01*
X-342762Y-105047D01*
X-342739Y-104986D01*
X-342706Y-104908D01*
X-342673Y-104819D01*
X-342628Y-104730D01*
X-342573Y-104636D01*
X-342517Y-104547D01*
X-342512Y-104536D01*
X-342490Y-104508D01*
X-342456Y-104470D01*
X-342412Y-104420D01*
X-342362Y-104364D01*
X-342301Y-104309D01*
X-342240Y-104248D01*
X-342168Y-104198D01*
X-342157Y-104192D01*
X-342134Y-104175D01*
X-342096Y-104153D01*
X-342040Y-104125D01*
X-341973Y-104092D01*
X-341896Y-104064D01*
X-341807Y-104031D01*
X-341707Y-104003D01*
X-341696D01*
X-341679Y-103998D01*
X-341663Y-103992D01*
X-341607Y-103987D01*
X-341529Y-103976D01*
X-341441Y-103964D01*
X-341335Y-103953D01*
X-341219Y-103948D01*
X-341091Y-103942D01*
X-339709D01*
Y-107783D01*
D02*
G37*
G36*
X-345081D02*
X-347862D01*
Y-107328D01*
X-345592D01*
Y-106157D01*
X-347718D01*
Y-105702D01*
X-345592D01*
Y-104397D01*
X-347951D01*
Y-103942D01*
X-345081D01*
Y-107783D01*
D02*
G37*
G36*
X-348656D02*
X-350132D01*
X-350232Y-107777D01*
X-350343Y-107772D01*
X-350454Y-107761D01*
X-350565Y-107744D01*
X-350659Y-107727D01*
X-350665D01*
X-350676Y-107722D01*
X-350693D01*
X-350715Y-107711D01*
X-350776Y-107694D01*
X-350853Y-107666D01*
X-350942Y-107627D01*
X-351037Y-107578D01*
X-351131Y-107522D01*
X-351220Y-107450D01*
X-351225Y-107444D01*
X-351231Y-107439D01*
X-351248Y-107422D01*
X-351270Y-107405D01*
X-351325Y-107350D01*
X-351392Y-107272D01*
X-351464Y-107178D01*
X-351542Y-107067D01*
X-351614Y-106939D01*
X-351675Y-106795D01*
Y-106790D01*
X-351680Y-106778D01*
X-351692Y-106756D01*
X-351697Y-106723D01*
X-351714Y-106684D01*
X-351725Y-106640D01*
X-351736Y-106590D01*
X-351753Y-106529D01*
X-351769Y-106468D01*
X-351780Y-106395D01*
X-351808Y-106240D01*
X-351825Y-106068D01*
X-351830Y-105879D01*
Y-105874D01*
Y-105863D01*
Y-105835D01*
Y-105807D01*
X-351825Y-105768D01*
Y-105724D01*
X-351819Y-105618D01*
X-351802Y-105496D01*
X-351786Y-105369D01*
X-351758Y-105236D01*
X-351725Y-105102D01*
Y-105097D01*
X-351719Y-105086D01*
X-351714Y-105069D01*
X-351708Y-105047D01*
X-351686Y-104986D01*
X-351653Y-104908D01*
X-351619Y-104819D01*
X-351575Y-104730D01*
X-351519Y-104636D01*
X-351464Y-104547D01*
X-351458Y-104536D01*
X-351436Y-104508D01*
X-351403Y-104470D01*
X-351359Y-104420D01*
X-351309Y-104364D01*
X-351248Y-104309D01*
X-351186Y-104248D01*
X-351114Y-104198D01*
X-351103Y-104192D01*
X-351081Y-104175D01*
X-351042Y-104153D01*
X-350987Y-104125D01*
X-350920Y-104092D01*
X-350842Y-104064D01*
X-350754Y-104031D01*
X-350654Y-104003D01*
X-350643D01*
X-350626Y-103998D01*
X-350609Y-103992D01*
X-350554Y-103987D01*
X-350476Y-103976D01*
X-350387Y-103964D01*
X-350282Y-103953D01*
X-350165Y-103948D01*
X-350038Y-103942D01*
X-348656D01*
Y-107783D01*
D02*
G37*
G36*
X-356709D02*
X-359489D01*
Y-107328D01*
X-357219D01*
Y-106157D01*
X-359345D01*
Y-105702D01*
X-357219D01*
Y-104397D01*
X-359578D01*
Y-103942D01*
X-356709D01*
Y-107783D01*
D02*
G37*
G36*
X-329675Y-103881D02*
X-329625D01*
X-329569Y-103892D01*
X-329508Y-103898D01*
X-329436Y-103909D01*
X-329286Y-103942D01*
X-329125Y-103987D01*
X-328959Y-104053D01*
X-328875Y-104092D01*
X-328792Y-104137D01*
X-328787Y-104142D01*
X-328776Y-104148D01*
X-328753Y-104164D01*
X-328720Y-104186D01*
X-328687Y-104209D01*
X-328648Y-104242D01*
X-328554Y-104325D01*
X-328448Y-104425D01*
X-328337Y-104547D01*
X-328237Y-104686D01*
X-328143Y-104847D01*
Y-104852D01*
X-328132Y-104869D01*
X-328121Y-104891D01*
X-328110Y-104925D01*
X-328093Y-104969D01*
X-328076Y-105019D01*
X-328054Y-105075D01*
X-328037Y-105136D01*
X-328015Y-105208D01*
X-327993Y-105280D01*
X-327960Y-105446D01*
X-327938Y-105618D01*
X-327926Y-105807D01*
Y-105813D01*
Y-105818D01*
Y-105851D01*
X-327932Y-105902D01*
Y-105968D01*
X-327943Y-106046D01*
X-327954Y-106140D01*
X-327971Y-106246D01*
X-327993Y-106357D01*
X-328015Y-106473D01*
X-328048Y-106595D01*
X-328093Y-106717D01*
X-328143Y-106845D01*
X-328198Y-106967D01*
X-328271Y-107089D01*
X-328348Y-107200D01*
X-328437Y-107306D01*
X-328443Y-107311D01*
X-328459Y-107328D01*
X-328492Y-107356D01*
X-328531Y-107389D01*
X-328581Y-107433D01*
X-328642Y-107478D01*
X-328714Y-107528D01*
X-328798Y-107578D01*
X-328887Y-107627D01*
X-328987Y-107677D01*
X-329098Y-107722D01*
X-329214Y-107766D01*
X-329342Y-107800D01*
X-329475Y-107827D01*
X-329614Y-107844D01*
X-329764Y-107850D01*
X-329813D01*
X-329852Y-107844D01*
X-329902D01*
X-329952Y-107838D01*
X-330019Y-107827D01*
X-330085Y-107816D01*
X-330230Y-107789D01*
X-330396Y-107744D01*
X-330557Y-107677D01*
X-330640Y-107639D01*
X-330724Y-107594D01*
X-330729Y-107589D01*
X-330740Y-107583D01*
X-330763Y-107566D01*
X-330796Y-107550D01*
X-330829Y-107522D01*
X-330873Y-107489D01*
X-330968Y-107411D01*
X-331068Y-107311D01*
X-331179Y-107189D01*
X-331284Y-107045D01*
X-331373Y-106884D01*
Y-106878D01*
X-331384Y-106862D01*
X-331395Y-106839D01*
X-331406Y-106806D01*
X-331429Y-106762D01*
X-331445Y-106712D01*
X-331467Y-106651D01*
X-331489Y-106584D01*
X-331506Y-106512D01*
X-331528Y-106434D01*
X-331551Y-106345D01*
X-331567Y-106257D01*
X-331589Y-106062D01*
X-331600Y-105851D01*
Y-105846D01*
Y-105824D01*
Y-105796D01*
X-331595Y-105752D01*
Y-105702D01*
X-331589Y-105641D01*
X-331578Y-105574D01*
X-331573Y-105502D01*
X-331545Y-105341D01*
X-331501Y-105163D01*
X-331440Y-104986D01*
X-331406Y-104897D01*
X-331362Y-104808D01*
Y-104803D01*
X-331351Y-104786D01*
X-331340Y-104764D01*
X-331317Y-104730D01*
X-331295Y-104692D01*
X-331267Y-104653D01*
X-331190Y-104547D01*
X-331096Y-104436D01*
X-330984Y-104320D01*
X-330851Y-104209D01*
X-330696Y-104109D01*
X-330690D01*
X-330679Y-104098D01*
X-330651Y-104087D01*
X-330618Y-104070D01*
X-330579Y-104053D01*
X-330535Y-104037D01*
X-330479Y-104015D01*
X-330418Y-103992D01*
X-330352Y-103970D01*
X-330280Y-103948D01*
X-330119Y-103915D01*
X-329947Y-103887D01*
X-329764Y-103876D01*
X-329708D01*
X-329675Y-103881D01*
D02*
G37*
G36*
X-274933Y-41838D02*
X-275488D01*
X-277058Y-37997D01*
X-276481D01*
X-276031Y-39163D01*
X-274422D01*
X-274006Y-37997D01*
X-273467D01*
X-274933Y-41838D01*
D02*
G37*
G36*
X-277474D02*
X-279256D01*
X-279300Y-41832D01*
X-279350D01*
X-279467Y-41827D01*
X-279589Y-41810D01*
X-279722Y-41794D01*
X-279844Y-41766D01*
X-279905Y-41749D01*
X-279955Y-41732D01*
X-279961D01*
X-279966Y-41727D01*
X-280000Y-41710D01*
X-280050Y-41688D01*
X-280111Y-41649D01*
X-280177Y-41599D01*
X-280250Y-41533D01*
X-280316Y-41455D01*
X-280383Y-41366D01*
Y-41361D01*
X-280388Y-41355D01*
X-280411Y-41322D01*
X-280433Y-41266D01*
X-280466Y-41194D01*
X-280494Y-41111D01*
X-280521Y-41011D01*
X-280538Y-40906D01*
X-280544Y-40789D01*
Y-40784D01*
Y-40772D01*
Y-40750D01*
X-280538Y-40722D01*
Y-40684D01*
X-280533Y-40645D01*
X-280510Y-40550D01*
X-280477Y-40439D01*
X-280433Y-40323D01*
X-280366Y-40206D01*
X-280322Y-40151D01*
X-280277Y-40095D01*
X-280272Y-40090D01*
X-280266Y-40084D01*
X-280250Y-40067D01*
X-280227Y-40051D01*
X-280200Y-40029D01*
X-280166Y-40007D01*
X-280122Y-39979D01*
X-280078Y-39945D01*
X-280022Y-39918D01*
X-279961Y-39890D01*
X-279894Y-39857D01*
X-279822Y-39829D01*
X-279739Y-39807D01*
X-279656Y-39779D01*
X-279561Y-39762D01*
X-279461Y-39746D01*
X-279472Y-39740D01*
X-279495Y-39729D01*
X-279528Y-39707D01*
X-279572Y-39685D01*
X-279672Y-39623D01*
X-279722Y-39585D01*
X-279767Y-39551D01*
X-279778Y-39540D01*
X-279805Y-39513D01*
X-279850Y-39468D01*
X-279905Y-39413D01*
X-279966Y-39335D01*
X-280039Y-39252D01*
X-280111Y-39152D01*
X-280188Y-39041D01*
X-280849Y-37997D01*
X-280216D01*
X-279711Y-38797D01*
Y-38802D01*
X-279700Y-38813D01*
X-279689Y-38830D01*
X-279672Y-38852D01*
X-279633Y-38913D01*
X-279584Y-38991D01*
X-279522Y-39074D01*
X-279461Y-39163D01*
X-279400Y-39246D01*
X-279345Y-39324D01*
X-279339Y-39329D01*
X-279323Y-39352D01*
X-279295Y-39385D01*
X-279256Y-39424D01*
X-279173Y-39507D01*
X-279128Y-39546D01*
X-279084Y-39579D01*
X-279079Y-39585D01*
X-279067Y-39590D01*
X-279045Y-39601D01*
X-279012Y-39618D01*
X-278979Y-39635D01*
X-278940Y-39651D01*
X-278851Y-39679D01*
X-278845D01*
X-278834Y-39685D01*
X-278812D01*
X-278784Y-39690D01*
X-278746Y-39696D01*
X-278701D01*
X-278640Y-39701D01*
X-277985D01*
Y-37997D01*
X-277474D01*
Y-41838D01*
D02*
G37*
G36*
X-295901Y-37936D02*
X-295851D01*
X-295790Y-37942D01*
X-295723Y-37953D01*
X-295651Y-37958D01*
X-295490Y-37992D01*
X-295318Y-38031D01*
X-295140Y-38092D01*
X-295051Y-38125D01*
X-294963Y-38169D01*
X-294957Y-38175D01*
X-294940Y-38181D01*
X-294918Y-38197D01*
X-294885Y-38214D01*
X-294846Y-38242D01*
X-294807Y-38269D01*
X-294702Y-38347D01*
X-294591Y-38447D01*
X-294474Y-38569D01*
X-294363Y-38708D01*
X-294263Y-38869D01*
Y-38874D01*
X-294252Y-38891D01*
X-294241Y-38913D01*
X-294224Y-38952D01*
X-294208Y-38991D01*
X-294191Y-39046D01*
X-294169Y-39102D01*
X-294147Y-39168D01*
X-294125Y-39241D01*
X-294102Y-39324D01*
X-294086Y-39407D01*
X-294069Y-39496D01*
X-294041Y-39690D01*
X-294030Y-39895D01*
Y-39901D01*
Y-39923D01*
Y-39951D01*
X-294036Y-39990D01*
Y-40040D01*
X-294041Y-40101D01*
X-294052Y-40162D01*
X-294058Y-40234D01*
X-294075Y-40312D01*
X-294086Y-40395D01*
X-294130Y-40573D01*
X-294186Y-40756D01*
X-294263Y-40939D01*
X-294269Y-40944D01*
X-294274Y-40961D01*
X-294285Y-40983D01*
X-294308Y-41017D01*
X-294330Y-41061D01*
X-294358Y-41105D01*
X-294435Y-41211D01*
X-294530Y-41333D01*
X-294646Y-41449D01*
X-294779Y-41566D01*
X-294857Y-41616D01*
X-294935Y-41666D01*
X-294940Y-41671D01*
X-294957Y-41677D01*
X-294979Y-41688D01*
X-295012Y-41705D01*
X-295057Y-41721D01*
X-295107Y-41744D01*
X-295162Y-41766D01*
X-295229Y-41788D01*
X-295301Y-41810D01*
X-295379Y-41827D01*
X-295462Y-41849D01*
X-295551Y-41866D01*
X-295745Y-41894D01*
X-295845Y-41905D01*
X-296023D01*
X-296056Y-41899D01*
X-296100D01*
X-296206Y-41888D01*
X-296322Y-41871D01*
X-296444Y-41844D01*
X-296578Y-41810D01*
X-296705Y-41766D01*
X-296711D01*
X-296722Y-41760D01*
X-296739Y-41755D01*
X-296761Y-41744D01*
X-296822Y-41710D01*
X-296900Y-41671D01*
X-296983Y-41616D01*
X-297072Y-41549D01*
X-297155Y-41477D01*
X-297233Y-41388D01*
X-297244Y-41377D01*
X-297266Y-41344D01*
X-297299Y-41294D01*
X-297343Y-41222D01*
X-297388Y-41133D01*
X-297438Y-41022D01*
X-297488Y-40900D01*
X-297527Y-40761D01*
X-297066Y-40639D01*
Y-40645D01*
X-297060Y-40650D01*
X-297055Y-40667D01*
X-297049Y-40689D01*
X-297033Y-40739D01*
X-297010Y-40806D01*
X-296977Y-40883D01*
X-296938Y-40955D01*
X-296900Y-41033D01*
X-296850Y-41100D01*
X-296844Y-41105D01*
X-296827Y-41128D01*
X-296794Y-41155D01*
X-296755Y-41194D01*
X-296705Y-41239D01*
X-296639Y-41283D01*
X-296567Y-41327D01*
X-296483Y-41366D01*
X-296472Y-41372D01*
X-296444Y-41383D01*
X-296394Y-41399D01*
X-296328Y-41422D01*
X-296250Y-41438D01*
X-296161Y-41455D01*
X-296061Y-41466D01*
X-295956Y-41472D01*
X-295895D01*
X-295867Y-41466D01*
X-295834D01*
X-295751Y-41461D01*
X-295656Y-41444D01*
X-295551Y-41427D01*
X-295451Y-41399D01*
X-295351Y-41361D01*
X-295340Y-41355D01*
X-295307Y-41344D01*
X-295262Y-41316D01*
X-295207Y-41289D01*
X-295140Y-41244D01*
X-295068Y-41200D01*
X-295001Y-41144D01*
X-294940Y-41083D01*
X-294935Y-41078D01*
X-294913Y-41055D01*
X-294885Y-41017D01*
X-294852Y-40972D01*
X-294813Y-40917D01*
X-294774Y-40850D01*
X-294735Y-40778D01*
X-294696Y-40700D01*
Y-40695D01*
X-294691Y-40684D01*
X-294685Y-40667D01*
X-294674Y-40639D01*
X-294663Y-40606D01*
X-294652Y-40567D01*
X-294635Y-40523D01*
X-294624Y-40473D01*
X-294596Y-40356D01*
X-294574Y-40223D01*
X-294557Y-40084D01*
X-294552Y-39929D01*
Y-39923D01*
Y-39907D01*
Y-39879D01*
X-294557Y-39845D01*
Y-39801D01*
X-294563Y-39746D01*
X-294568Y-39690D01*
X-294574Y-39629D01*
X-294596Y-39490D01*
X-294624Y-39346D01*
X-294668Y-39202D01*
X-294724Y-39063D01*
Y-39057D01*
X-294735Y-39046D01*
X-294741Y-39030D01*
X-294757Y-39007D01*
X-294796Y-38946D01*
X-294857Y-38869D01*
X-294929Y-38785D01*
X-295018Y-38702D01*
X-295124Y-38625D01*
X-295240Y-38552D01*
X-295246D01*
X-295257Y-38547D01*
X-295273Y-38536D01*
X-295301Y-38525D01*
X-295329Y-38513D01*
X-295368Y-38502D01*
X-295457Y-38469D01*
X-295567Y-38441D01*
X-295690Y-38414D01*
X-295823Y-38391D01*
X-295962Y-38386D01*
X-296017D01*
X-296050Y-38391D01*
X-296084D01*
X-296167Y-38403D01*
X-296267Y-38414D01*
X-296372Y-38436D01*
X-296489Y-38469D01*
X-296605Y-38508D01*
X-296611D01*
X-296622Y-38513D01*
X-296633Y-38519D01*
X-296655Y-38530D01*
X-296716Y-38558D01*
X-296783Y-38591D01*
X-296861Y-38630D01*
X-296944Y-38675D01*
X-297022Y-38724D01*
X-297088Y-38780D01*
Y-39501D01*
X-295956D01*
Y-39957D01*
X-297588D01*
Y-38530D01*
X-297582Y-38525D01*
X-297571Y-38519D01*
X-297549Y-38502D01*
X-297521Y-38480D01*
X-297488Y-38458D01*
X-297449Y-38430D01*
X-297399Y-38397D01*
X-297349Y-38364D01*
X-297233Y-38291D01*
X-297099Y-38214D01*
X-296961Y-38142D01*
X-296811Y-38081D01*
X-296805D01*
X-296794Y-38075D01*
X-296772Y-38069D01*
X-296744Y-38058D01*
X-296705Y-38047D01*
X-296661Y-38031D01*
X-296611Y-38020D01*
X-296561Y-38008D01*
X-296439Y-37981D01*
X-296300Y-37953D01*
X-296150Y-37936D01*
X-295995Y-37931D01*
X-295939D01*
X-295901Y-37936D01*
D02*
G37*
G36*
X-266114Y-41838D02*
X-267623D01*
X-267662Y-41832D01*
X-267706D01*
X-267806Y-41821D01*
X-267917Y-41810D01*
X-268034Y-41788D01*
X-268150Y-41760D01*
X-268256Y-41721D01*
X-268262D01*
X-268267Y-41716D01*
X-268300Y-41699D01*
X-268350Y-41671D01*
X-268406Y-41633D01*
X-268472Y-41583D01*
X-268545Y-41522D01*
X-268611Y-41444D01*
X-268672Y-41361D01*
X-268678Y-41350D01*
X-268694Y-41316D01*
X-268722Y-41272D01*
X-268750Y-41205D01*
X-268778Y-41128D01*
X-268805Y-41044D01*
X-268822Y-40950D01*
X-268828Y-40856D01*
Y-40845D01*
Y-40817D01*
X-268822Y-40767D01*
X-268811Y-40706D01*
X-268794Y-40634D01*
X-268767Y-40556D01*
X-268733Y-40478D01*
X-268689Y-40395D01*
X-268683Y-40384D01*
X-268667Y-40362D01*
X-268633Y-40317D01*
X-268589Y-40273D01*
X-268533Y-40217D01*
X-268467Y-40156D01*
X-268384Y-40101D01*
X-268289Y-40045D01*
X-268295D01*
X-268306Y-40040D01*
X-268323Y-40034D01*
X-268345Y-40023D01*
X-268411Y-40001D01*
X-268489Y-39962D01*
X-268572Y-39912D01*
X-268667Y-39851D01*
X-268750Y-39779D01*
X-268828Y-39690D01*
X-268833Y-39679D01*
X-268855Y-39646D01*
X-268889Y-39596D01*
X-268922Y-39529D01*
X-268955Y-39440D01*
X-268989Y-39346D01*
X-269011Y-39235D01*
X-269016Y-39113D01*
Y-39107D01*
Y-39102D01*
Y-39068D01*
X-269011Y-39013D01*
X-269000Y-38946D01*
X-268989Y-38869D01*
X-268966Y-38785D01*
X-268939Y-38697D01*
X-268900Y-38608D01*
X-268894Y-38597D01*
X-268878Y-38569D01*
X-268855Y-38530D01*
X-268822Y-38475D01*
X-268778Y-38419D01*
X-268733Y-38358D01*
X-268678Y-38297D01*
X-268617Y-38247D01*
X-268611Y-38242D01*
X-268589Y-38225D01*
X-268550Y-38203D01*
X-268500Y-38181D01*
X-268439Y-38147D01*
X-268367Y-38114D01*
X-268289Y-38086D01*
X-268195Y-38058D01*
X-268184D01*
X-268150Y-38047D01*
X-268095Y-38042D01*
X-268023Y-38031D01*
X-267934Y-38020D01*
X-267829Y-38008D01*
X-267712Y-38003D01*
X-267579Y-37997D01*
X-266114D01*
Y-41838D01*
D02*
G37*
G36*
X-281343D02*
X-282819D01*
X-282919Y-41832D01*
X-283030Y-41827D01*
X-283141Y-41816D01*
X-283252Y-41799D01*
X-283346Y-41783D01*
X-283352D01*
X-283363Y-41777D01*
X-283380D01*
X-283402Y-41766D01*
X-283463Y-41749D01*
X-283541Y-41721D01*
X-283629Y-41683D01*
X-283724Y-41633D01*
X-283818Y-41577D01*
X-283907Y-41505D01*
X-283912Y-41499D01*
X-283918Y-41494D01*
X-283935Y-41477D01*
X-283957Y-41461D01*
X-284012Y-41405D01*
X-284079Y-41327D01*
X-284151Y-41233D01*
X-284229Y-41122D01*
X-284301Y-40994D01*
X-284362Y-40850D01*
Y-40845D01*
X-284368Y-40833D01*
X-284379Y-40811D01*
X-284384Y-40778D01*
X-284401Y-40739D01*
X-284412Y-40695D01*
X-284423Y-40645D01*
X-284440Y-40584D01*
X-284456Y-40523D01*
X-284468Y-40451D01*
X-284495Y-40295D01*
X-284512Y-40123D01*
X-284518Y-39934D01*
Y-39929D01*
Y-39918D01*
Y-39890D01*
Y-39862D01*
X-284512Y-39823D01*
Y-39779D01*
X-284506Y-39674D01*
X-284490Y-39551D01*
X-284473Y-39424D01*
X-284445Y-39290D01*
X-284412Y-39157D01*
Y-39152D01*
X-284406Y-39141D01*
X-284401Y-39124D01*
X-284395Y-39102D01*
X-284373Y-39041D01*
X-284340Y-38963D01*
X-284307Y-38874D01*
X-284262Y-38785D01*
X-284207Y-38691D01*
X-284151Y-38602D01*
X-284146Y-38591D01*
X-284123Y-38563D01*
X-284090Y-38525D01*
X-284046Y-38475D01*
X-283996Y-38419D01*
X-283935Y-38364D01*
X-283874Y-38303D01*
X-283802Y-38253D01*
X-283790Y-38247D01*
X-283768Y-38230D01*
X-283729Y-38208D01*
X-283674Y-38181D01*
X-283607Y-38147D01*
X-283530Y-38120D01*
X-283441Y-38086D01*
X-283341Y-38058D01*
X-283330D01*
X-283313Y-38053D01*
X-283296Y-38047D01*
X-283241Y-38042D01*
X-283163Y-38031D01*
X-283074Y-38020D01*
X-282969Y-38008D01*
X-282853Y-38003D01*
X-282725Y-37997D01*
X-281343D01*
Y-41838D01*
D02*
G37*
G36*
X-286715D02*
X-289496D01*
Y-41383D01*
X-287226D01*
Y-40212D01*
X-289352D01*
Y-39757D01*
X-287226D01*
Y-38453D01*
X-289585D01*
Y-37997D01*
X-286715D01*
Y-41838D01*
D02*
G37*
G36*
X-290289D02*
X-291766D01*
X-291866Y-41832D01*
X-291977Y-41827D01*
X-292088Y-41816D01*
X-292199Y-41799D01*
X-292293Y-41783D01*
X-292299D01*
X-292310Y-41777D01*
X-292326D01*
X-292349Y-41766D01*
X-292410Y-41749D01*
X-292487Y-41721D01*
X-292576Y-41683D01*
X-292670Y-41633D01*
X-292765Y-41577D01*
X-292854Y-41505D01*
X-292859Y-41499D01*
X-292865Y-41494D01*
X-292881Y-41477D01*
X-292903Y-41461D01*
X-292959Y-41405D01*
X-293026Y-41327D01*
X-293098Y-41233D01*
X-293176Y-41122D01*
X-293248Y-40994D01*
X-293309Y-40850D01*
Y-40845D01*
X-293314Y-40833D01*
X-293325Y-40811D01*
X-293331Y-40778D01*
X-293348Y-40739D01*
X-293359Y-40695D01*
X-293370Y-40645D01*
X-293386Y-40584D01*
X-293403Y-40523D01*
X-293414Y-40451D01*
X-293442Y-40295D01*
X-293459Y-40123D01*
X-293464Y-39934D01*
Y-39929D01*
Y-39918D01*
Y-39890D01*
Y-39862D01*
X-293459Y-39823D01*
Y-39779D01*
X-293453Y-39674D01*
X-293436Y-39551D01*
X-293420Y-39424D01*
X-293392Y-39290D01*
X-293359Y-39157D01*
Y-39152D01*
X-293353Y-39141D01*
X-293348Y-39124D01*
X-293342Y-39102D01*
X-293320Y-39041D01*
X-293286Y-38963D01*
X-293253Y-38874D01*
X-293209Y-38785D01*
X-293153Y-38691D01*
X-293098Y-38602D01*
X-293092Y-38591D01*
X-293070Y-38563D01*
X-293037Y-38525D01*
X-292992Y-38475D01*
X-292942Y-38419D01*
X-292881Y-38364D01*
X-292820Y-38303D01*
X-292748Y-38253D01*
X-292737Y-38247D01*
X-292715Y-38230D01*
X-292676Y-38208D01*
X-292620Y-38181D01*
X-292554Y-38147D01*
X-292476Y-38120D01*
X-292387Y-38086D01*
X-292287Y-38058D01*
X-292276D01*
X-292260Y-38053D01*
X-292243Y-38047D01*
X-292188Y-38042D01*
X-292110Y-38031D01*
X-292021Y-38020D01*
X-291916Y-38008D01*
X-291799Y-38003D01*
X-291671Y-37997D01*
X-290289D01*
Y-41838D01*
D02*
G37*
G36*
X-298342D02*
X-301123D01*
Y-41383D01*
X-298853D01*
Y-40212D01*
X-300979D01*
Y-39757D01*
X-298853D01*
Y-38453D01*
X-301212D01*
Y-37997D01*
X-298342D01*
Y-41838D01*
D02*
G37*
G36*
X-271308Y-37936D02*
X-271258D01*
X-271203Y-37947D01*
X-271142Y-37953D01*
X-271070Y-37964D01*
X-270920Y-37997D01*
X-270759Y-38042D01*
X-270592Y-38108D01*
X-270509Y-38147D01*
X-270426Y-38192D01*
X-270421Y-38197D01*
X-270409Y-38203D01*
X-270387Y-38219D01*
X-270354Y-38242D01*
X-270321Y-38264D01*
X-270282Y-38297D01*
X-270187Y-38380D01*
X-270082Y-38480D01*
X-269971Y-38602D01*
X-269871Y-38741D01*
X-269777Y-38902D01*
Y-38908D01*
X-269766Y-38924D01*
X-269755Y-38946D01*
X-269743Y-38980D01*
X-269727Y-39024D01*
X-269710Y-39074D01*
X-269688Y-39130D01*
X-269671Y-39191D01*
X-269649Y-39263D01*
X-269627Y-39335D01*
X-269594Y-39501D01*
X-269571Y-39674D01*
X-269560Y-39862D01*
Y-39868D01*
Y-39873D01*
Y-39907D01*
X-269566Y-39957D01*
Y-40023D01*
X-269577Y-40101D01*
X-269588Y-40195D01*
X-269605Y-40301D01*
X-269627Y-40412D01*
X-269649Y-40528D01*
X-269682Y-40650D01*
X-269727Y-40772D01*
X-269777Y-40900D01*
X-269832Y-41022D01*
X-269904Y-41144D01*
X-269982Y-41255D01*
X-270071Y-41361D01*
X-270076Y-41366D01*
X-270093Y-41383D01*
X-270126Y-41411D01*
X-270165Y-41444D01*
X-270215Y-41488D01*
X-270276Y-41533D01*
X-270348Y-41583D01*
X-270432Y-41633D01*
X-270520Y-41683D01*
X-270620Y-41732D01*
X-270731Y-41777D01*
X-270848Y-41821D01*
X-270975Y-41855D01*
X-271109Y-41882D01*
X-271247Y-41899D01*
X-271397Y-41905D01*
X-271447D01*
X-271486Y-41899D01*
X-271536D01*
X-271586Y-41894D01*
X-271653Y-41882D01*
X-271719Y-41871D01*
X-271864Y-41844D01*
X-272030Y-41799D01*
X-272191Y-41732D01*
X-272274Y-41694D01*
X-272357Y-41649D01*
X-272363Y-41644D01*
X-272374Y-41638D01*
X-272396Y-41622D01*
X-272430Y-41605D01*
X-272463Y-41577D01*
X-272507Y-41544D01*
X-272602Y-41466D01*
X-272702Y-41366D01*
X-272813Y-41244D01*
X-272918Y-41100D01*
X-273007Y-40939D01*
Y-40933D01*
X-273018Y-40917D01*
X-273029Y-40894D01*
X-273040Y-40861D01*
X-273062Y-40817D01*
X-273079Y-40767D01*
X-273101Y-40706D01*
X-273123Y-40639D01*
X-273140Y-40567D01*
X-273162Y-40489D01*
X-273184Y-40400D01*
X-273201Y-40312D01*
X-273223Y-40117D01*
X-273234Y-39907D01*
Y-39901D01*
Y-39879D01*
Y-39851D01*
X-273229Y-39807D01*
Y-39757D01*
X-273223Y-39696D01*
X-273212Y-39629D01*
X-273207Y-39557D01*
X-273179Y-39396D01*
X-273134Y-39218D01*
X-273073Y-39041D01*
X-273040Y-38952D01*
X-272996Y-38863D01*
Y-38858D01*
X-272985Y-38841D01*
X-272973Y-38819D01*
X-272951Y-38785D01*
X-272929Y-38747D01*
X-272901Y-38708D01*
X-272824Y-38602D01*
X-272729Y-38491D01*
X-272618Y-38375D01*
X-272485Y-38264D01*
X-272330Y-38164D01*
X-272324D01*
X-272313Y-38153D01*
X-272285Y-38142D01*
X-272252Y-38125D01*
X-272213Y-38108D01*
X-272169Y-38092D01*
X-272113Y-38069D01*
X-272052Y-38047D01*
X-271986Y-38025D01*
X-271913Y-38003D01*
X-271753Y-37970D01*
X-271580Y-37942D01*
X-271397Y-37931D01*
X-271342D01*
X-271308Y-37936D01*
D02*
G37*
%LPC*%
G36*
X-2420Y-43801D02*
X-2426D01*
X-2448D01*
X-2476D01*
X-2520Y-43806D01*
X-2570D01*
X-2626Y-43812D01*
X-2692Y-43817D01*
X-2759Y-43823D01*
X-2909Y-43851D01*
X-3064Y-43884D01*
X-3208Y-43934D01*
X-3280Y-43967D01*
X-3342Y-44001D01*
X-3347D01*
X-3358Y-44012D01*
X-3375Y-44023D01*
X-3397Y-44034D01*
X-3453Y-44078D01*
X-3519Y-44134D01*
X-3591Y-44206D01*
X-3664Y-44289D01*
X-3725Y-44383D01*
X-3774Y-44483D01*
X-3780Y-44494D01*
X-3786Y-44522D01*
X-3802Y-44572D01*
X-3819Y-44644D01*
X-3830Y-44733D01*
X-3847Y-44844D01*
X-3852Y-44911D01*
Y-44983D01*
X-3858Y-45055D01*
Y-45822D01*
X-969D01*
Y-44912D01*
X-974Y-44873D01*
X-980Y-44790D01*
X-985Y-44695D01*
X-996Y-44596D01*
X-1013Y-44496D01*
X-1027Y-44444D01*
X-1044Y-44406D01*
X-1077Y-44350D01*
X-1111Y-44295D01*
X-1149Y-44239D01*
X-1194Y-44184D01*
X-1205Y-44178D01*
X-1227Y-44156D01*
X-1266Y-44123D01*
X-1321Y-44084D01*
X-1393Y-44039D01*
X-1477Y-43989D01*
X-1571Y-43945D01*
X-1677Y-43906D01*
X-1682D01*
X-1693Y-43901D01*
X-1710Y-43895D01*
X-1732Y-43889D01*
X-1760Y-43884D01*
X-1799Y-43873D01*
X-1837Y-43862D01*
X-1882Y-43851D01*
X-1993Y-43834D01*
X-2121Y-43817D01*
X-2265Y-43806D01*
X-2420Y-43801D01*
D02*
G37*
G36*
X-927Y-47721D02*
X-1313Y-47965D01*
X-1318D01*
X-1329Y-47976D01*
X-1346Y-47987D01*
X-1368Y-48003D01*
X-1429Y-48042D01*
X-1507Y-48092D01*
X-1590Y-48153D01*
X-1679Y-48214D01*
X-1762Y-48275D01*
X-1840Y-48331D01*
X-1846Y-48336D01*
X-1868Y-48353D01*
X-1901Y-48381D01*
X-1940Y-48420D01*
X-2023Y-48503D01*
X-2062Y-48547D01*
X-2095Y-48592D01*
X-2101Y-48597D01*
X-2106Y-48608D01*
X-2118Y-48630D01*
X-2134Y-48664D01*
X-2151Y-48697D01*
X-2167Y-48736D01*
X-2195Y-48825D01*
Y-48830D01*
X-2201Y-48841D01*
Y-48864D01*
X-2206Y-48891D01*
X-2212Y-48930D01*
Y-48975D01*
X-2217Y-49036D01*
Y-49517D01*
X-927D01*
Y-47721D01*
D02*
G37*
G36*
X-3300Y-47654D02*
X-3305D01*
X-3311D01*
X-3344Y-47659D01*
X-3394Y-47665D01*
X-3461Y-47676D01*
X-3527Y-47704D01*
X-3605Y-47737D01*
X-3677Y-47787D01*
X-3749Y-47853D01*
X-3755Y-47865D01*
X-3777Y-47892D01*
X-3805Y-47937D01*
X-3838Y-48009D01*
X-3858Y-48058D01*
Y-49517D01*
X-2687D01*
Y-48209D01*
X-2700Y-48136D01*
X-2723Y-48059D01*
X-2728Y-48048D01*
X-2739Y-48026D01*
X-2756Y-47992D01*
X-2778Y-47948D01*
X-2811Y-47898D01*
X-2850Y-47848D01*
X-2900Y-47798D01*
X-2956Y-47759D01*
X-2961Y-47754D01*
X-2983Y-47743D01*
X-3017Y-47726D01*
X-3061Y-47704D01*
X-3111Y-47687D01*
X-3167Y-47670D01*
X-3233Y-47659D01*
X-3300Y-47654D01*
D02*
G37*
G36*
X-2095Y-51805D02*
X-3150Y-52205D01*
X-3155D01*
X-3172Y-52210D01*
X-3200Y-52221D01*
X-3233Y-52232D01*
X-3272Y-52249D01*
X-3322Y-52266D01*
X-3377Y-52282D01*
X-3433Y-52305D01*
X-3560Y-52349D01*
X-3694Y-52393D01*
X-3827Y-52438D01*
X-3955Y-52477D01*
X-3949D01*
X-3938Y-52482D01*
X-3916D01*
X-3893Y-52493D01*
X-3855Y-52499D01*
X-3816Y-52510D01*
X-3721Y-52532D01*
X-3610Y-52560D01*
X-3488Y-52599D01*
X-3355Y-52638D01*
X-3216Y-52688D01*
X-2095Y-53104D01*
Y-51805D01*
D02*
G37*
G36*
X-2428Y-54963D02*
X-2434D01*
X-2451D01*
X-2473D01*
X-2506D01*
X-2545Y-54969D01*
X-2595D01*
X-2645Y-54974D01*
X-2706Y-54985D01*
X-2833Y-55002D01*
X-2967Y-55030D01*
X-3111Y-55068D01*
X-3244Y-55124D01*
X-3250D01*
X-3261Y-55129D01*
X-3277Y-55141D01*
X-3300Y-55152D01*
X-3366Y-55191D01*
X-3444Y-55240D01*
X-3533Y-55307D01*
X-3622Y-55390D01*
X-3710Y-55485D01*
X-3788Y-55590D01*
Y-55596D01*
X-3799Y-55601D01*
X-3805Y-55618D01*
X-3821Y-55646D01*
X-3833Y-55673D01*
X-3849Y-55707D01*
X-3888Y-55790D01*
X-3921Y-55890D01*
X-3955Y-56006D01*
X-3977Y-56140D01*
X-3982Y-56278D01*
Y-56328D01*
X-3977Y-56367D01*
X-3971Y-56417D01*
X-3960Y-56467D01*
X-3949Y-56528D01*
X-3938Y-56595D01*
X-3893Y-56739D01*
X-3860Y-56817D01*
X-3827Y-56894D01*
X-3782Y-56978D01*
X-3733Y-57055D01*
X-3677Y-57133D01*
X-3610Y-57205D01*
X-3605Y-57211D01*
X-3594Y-57222D01*
X-3572Y-57239D01*
X-3538Y-57266D01*
X-3500Y-57294D01*
X-3449Y-57327D01*
X-3388Y-57361D01*
X-3316Y-57399D01*
X-3239Y-57433D01*
X-3144Y-57472D01*
X-3044Y-57505D01*
X-2933Y-57533D01*
X-2811Y-57560D01*
X-2672Y-57577D01*
X-2528Y-57588D01*
X-2373Y-57594D01*
X-2367D01*
X-2345D01*
X-2306D01*
X-2256Y-57588D01*
X-2201Y-57583D01*
X-2134Y-57572D01*
X-2056Y-57560D01*
X-1979Y-57549D01*
X-1801Y-57505D01*
X-1712Y-57472D01*
X-1618Y-57438D01*
X-1529Y-57394D01*
X-1440Y-57344D01*
X-1357Y-57288D01*
X-1280Y-57222D01*
X-1274Y-57216D01*
X-1263Y-57205D01*
X-1241Y-57183D01*
X-1218Y-57155D01*
X-1185Y-57116D01*
X-1152Y-57072D01*
X-1118Y-57022D01*
X-1080Y-56967D01*
X-1041Y-56900D01*
X-1008Y-56828D01*
X-974Y-56750D01*
X-941Y-56667D01*
X-919Y-56578D01*
X-896Y-56489D01*
X-885Y-56389D01*
X-880Y-56284D01*
Y-56256D01*
X-885Y-56228D01*
Y-56190D01*
X-891Y-56140D01*
X-902Y-56084D01*
X-913Y-56018D01*
X-930Y-55951D01*
X-952Y-55873D01*
X-980Y-55801D01*
X-1008Y-55718D01*
X-1046Y-55640D01*
X-1096Y-55563D01*
X-1146Y-55485D01*
X-1207Y-55407D01*
X-1280Y-55335D01*
X-1285Y-55329D01*
X-1296Y-55318D01*
X-1324Y-55302D01*
X-1357Y-55274D01*
X-1396Y-55246D01*
X-1446Y-55218D01*
X-1507Y-55185D01*
X-1574Y-55146D01*
X-1651Y-55113D01*
X-1740Y-55080D01*
X-1835Y-55052D01*
X-1934Y-55019D01*
X-2045Y-54996D01*
X-2167Y-54980D01*
X-2295Y-54969D01*
X-2428Y-54963D01*
D02*
G37*
G36*
X-1629Y-59181D02*
X-1640D01*
X-1662D01*
X-1707Y-59187D01*
X-1757Y-59198D01*
X-1812Y-59209D01*
X-1873Y-59231D01*
X-1934Y-59259D01*
X-1995Y-59298D01*
X-2001Y-59303D01*
X-2023Y-59320D01*
X-2051Y-59342D01*
X-2084Y-59375D01*
X-2123Y-59420D01*
X-2162Y-59475D01*
X-2195Y-59536D01*
X-2223Y-59608D01*
X-2228Y-59619D01*
X-2234Y-59642D01*
X-2245Y-59692D01*
X-2256Y-59753D01*
X-2267Y-59830D01*
X-2279Y-59925D01*
X-2290Y-60041D01*
Y-61051D01*
X-969D01*
Y-59958D01*
X-974Y-59842D01*
X-980Y-59791D01*
X-985Y-59747D01*
Y-59742D01*
X-991Y-59719D01*
X-996Y-59686D01*
X-1008Y-59647D01*
X-1041Y-59553D01*
X-1085Y-59459D01*
X-1091Y-59453D01*
X-1102Y-59436D01*
X-1118Y-59414D01*
X-1141Y-59386D01*
X-1174Y-59359D01*
X-1207Y-59320D01*
X-1252Y-59292D01*
X-1302Y-59259D01*
X-1307Y-59253D01*
X-1324Y-59248D01*
X-1357Y-59237D01*
X-1396Y-59220D01*
X-1440Y-59203D01*
X-1496Y-59192D01*
X-1562Y-59187D01*
X-1629Y-59181D01*
D02*
G37*
G36*
X-3311Y-59348D02*
X-3322D01*
X-3344D01*
X-3377Y-59353D01*
X-3422Y-59359D01*
X-3477Y-59370D01*
X-3533Y-59386D01*
X-3588Y-59409D01*
X-3644Y-59442D01*
X-3649Y-59447D01*
X-3666Y-59459D01*
X-3694Y-59481D01*
X-3721Y-59509D01*
X-3755Y-59547D01*
X-3788Y-59592D01*
X-3821Y-59647D01*
X-3844Y-59708D01*
Y-59714D01*
X-3855Y-59742D01*
X-3860Y-59780D01*
X-3871Y-59842D01*
X-3882Y-59925D01*
X-3888Y-60019D01*
X-3899Y-60141D01*
Y-61051D01*
X-2745D01*
Y-60108D01*
X-2750Y-60036D01*
X-2756Y-59958D01*
X-2761Y-59880D01*
X-2772Y-59803D01*
X-2784Y-59742D01*
X-2789Y-59730D01*
X-2795Y-59708D01*
X-2811Y-59675D01*
X-2833Y-59631D01*
X-2856Y-59586D01*
X-2889Y-59536D01*
X-2933Y-59486D01*
X-2978Y-59447D01*
X-2983Y-59442D01*
X-3000Y-59431D01*
X-3033Y-59414D01*
X-3072Y-59398D01*
X-3117Y-59381D01*
X-3172Y-59364D01*
X-3239Y-59353D01*
X-3311Y-59348D01*
D02*
G37*
G36*
X-332938Y-105524D02*
X-334237D01*
X-333837Y-106579D01*
Y-106584D01*
X-333832Y-106601D01*
X-333821Y-106629D01*
X-333809Y-106662D01*
X-333793Y-106701D01*
X-333776Y-106751D01*
X-333759Y-106806D01*
X-333737Y-106862D01*
X-333693Y-106989D01*
X-333648Y-107123D01*
X-333604Y-107256D01*
X-333565Y-107383D01*
Y-107378D01*
X-333560Y-107367D01*
Y-107344D01*
X-333549Y-107322D01*
X-333543Y-107283D01*
X-333532Y-107245D01*
X-333510Y-107150D01*
X-333482Y-107039D01*
X-333443Y-106917D01*
X-333404Y-106784D01*
X-333354Y-106645D01*
X-332938Y-105524D01*
D02*
G37*
G36*
X-336351Y-106085D02*
X-337495D01*
X-337561Y-106090D01*
X-337639Y-106096D01*
X-337728Y-106101D01*
X-337817Y-106112D01*
X-337905Y-106129D01*
X-337983Y-106151D01*
X-337994Y-106157D01*
X-338016Y-106168D01*
X-338050Y-106184D01*
X-338094Y-106207D01*
X-338144Y-106240D01*
X-338194Y-106279D01*
X-338244Y-106329D01*
X-338283Y-106384D01*
X-338288Y-106390D01*
X-338299Y-106412D01*
X-338316Y-106445D01*
X-338338Y-106490D01*
X-338355Y-106540D01*
X-338371Y-106595D01*
X-338383Y-106662D01*
X-338388Y-106728D01*
Y-106734D01*
Y-106739D01*
X-338383Y-106773D01*
X-338377Y-106823D01*
X-338366Y-106889D01*
X-338338Y-106956D01*
X-338305Y-107034D01*
X-338255Y-107106D01*
X-338188Y-107178D01*
X-338177Y-107184D01*
X-338149Y-107206D01*
X-338105Y-107234D01*
X-338033Y-107267D01*
X-337950Y-107300D01*
X-337839Y-107328D01*
X-337711Y-107350D01*
X-337561Y-107356D01*
X-336351D01*
Y-106085D01*
D02*
G37*
G36*
X-324991Y-104397D02*
X-326084D01*
X-326200Y-104403D01*
X-326250Y-104409D01*
X-326295Y-104414D01*
X-326300D01*
X-326323Y-104420D01*
X-326356Y-104425D01*
X-326395Y-104436D01*
X-326489Y-104470D01*
X-326583Y-104514D01*
X-326589Y-104519D01*
X-326606Y-104531D01*
X-326628Y-104547D01*
X-326656Y-104569D01*
X-326683Y-104603D01*
X-326722Y-104636D01*
X-326750Y-104681D01*
X-326783Y-104730D01*
X-326789Y-104736D01*
X-326794Y-104753D01*
X-326805Y-104786D01*
X-326822Y-104825D01*
X-326839Y-104869D01*
X-326850Y-104925D01*
X-326855Y-104991D01*
X-326861Y-105058D01*
Y-105069D01*
Y-105091D01*
X-326855Y-105136D01*
X-326844Y-105185D01*
X-326833Y-105241D01*
X-326811Y-105302D01*
X-326783Y-105363D01*
X-326744Y-105424D01*
X-326739Y-105430D01*
X-326722Y-105452D01*
X-326700Y-105480D01*
X-326667Y-105513D01*
X-326622Y-105552D01*
X-326567Y-105591D01*
X-326506Y-105624D01*
X-326433Y-105652D01*
X-326422Y-105657D01*
X-326400Y-105663D01*
X-326350Y-105674D01*
X-326289Y-105685D01*
X-326212Y-105696D01*
X-326117Y-105707D01*
X-326001Y-105718D01*
X-324991D01*
Y-104397D01*
D02*
G37*
G36*
Y-106173D02*
X-325934D01*
X-326006Y-106179D01*
X-326084Y-106184D01*
X-326162Y-106190D01*
X-326239Y-106201D01*
X-326300Y-106212D01*
X-326311Y-106218D01*
X-326334Y-106223D01*
X-326367Y-106240D01*
X-326411Y-106262D01*
X-326456Y-106284D01*
X-326506Y-106318D01*
X-326556Y-106362D01*
X-326594Y-106406D01*
X-326600Y-106412D01*
X-326611Y-106429D01*
X-326628Y-106462D01*
X-326644Y-106501D01*
X-326661Y-106545D01*
X-326678Y-106601D01*
X-326689Y-106667D01*
X-326694Y-106739D01*
Y-106751D01*
Y-106773D01*
X-326689Y-106806D01*
X-326683Y-106851D01*
X-326672Y-106906D01*
X-326656Y-106962D01*
X-326633Y-107017D01*
X-326600Y-107072D01*
X-326594Y-107078D01*
X-326583Y-107095D01*
X-326561Y-107123D01*
X-326533Y-107150D01*
X-326495Y-107184D01*
X-326450Y-107217D01*
X-326395Y-107250D01*
X-326334Y-107272D01*
X-326328D01*
X-326300Y-107283D01*
X-326261Y-107289D01*
X-326200Y-107300D01*
X-326117Y-107311D01*
X-326023Y-107317D01*
X-325901Y-107328D01*
X-324991D01*
Y-106173D01*
D02*
G37*
G36*
X-340220Y-104397D02*
X-341130D01*
X-341169Y-104403D01*
X-341252Y-104409D01*
X-341346Y-104414D01*
X-341446Y-104425D01*
X-341546Y-104442D01*
X-341629Y-104464D01*
X-341640Y-104470D01*
X-341668Y-104475D01*
X-341707Y-104492D01*
X-341757Y-104514D01*
X-341812Y-104547D01*
X-341868Y-104581D01*
X-341923Y-104619D01*
X-341979Y-104664D01*
X-341985Y-104675D01*
X-342007Y-104697D01*
X-342040Y-104736D01*
X-342079Y-104791D01*
X-342123Y-104864D01*
X-342173Y-104947D01*
X-342218Y-105041D01*
X-342256Y-105147D01*
Y-105152D01*
X-342262Y-105163D01*
X-342268Y-105180D01*
X-342273Y-105202D01*
X-342279Y-105230D01*
X-342290Y-105269D01*
X-342301Y-105308D01*
X-342312Y-105352D01*
X-342329Y-105463D01*
X-342345Y-105591D01*
X-342356Y-105735D01*
X-342362Y-105890D01*
Y-105896D01*
Y-105918D01*
Y-105946D01*
X-342356Y-105990D01*
Y-106040D01*
X-342351Y-106096D01*
X-342345Y-106162D01*
X-342340Y-106229D01*
X-342312Y-106379D01*
X-342279Y-106534D01*
X-342229Y-106678D01*
X-342196Y-106751D01*
X-342162Y-106812D01*
Y-106817D01*
X-342151Y-106828D01*
X-342140Y-106845D01*
X-342129Y-106867D01*
X-342085Y-106923D01*
X-342029Y-106989D01*
X-341957Y-107061D01*
X-341874Y-107134D01*
X-341779Y-107195D01*
X-341679Y-107245D01*
X-341668Y-107250D01*
X-341640Y-107256D01*
X-341590Y-107272D01*
X-341518Y-107289D01*
X-341430Y-107300D01*
X-341319Y-107317D01*
X-341252Y-107322D01*
X-341180D01*
X-341108Y-107328D01*
X-340220D01*
Y-104397D01*
D02*
G37*
G36*
X-349166D02*
X-350077D01*
X-350115Y-104403D01*
X-350199Y-104409D01*
X-350293Y-104414D01*
X-350393Y-104425D01*
X-350493Y-104442D01*
X-350576Y-104464D01*
X-350587Y-104470D01*
X-350615Y-104475D01*
X-350654Y-104492D01*
X-350704Y-104514D01*
X-350759Y-104547D01*
X-350815Y-104581D01*
X-350870Y-104619D01*
X-350926Y-104664D01*
X-350931Y-104675D01*
X-350953Y-104697D01*
X-350987Y-104736D01*
X-351026Y-104791D01*
X-351070Y-104864D01*
X-351120Y-104947D01*
X-351164Y-105041D01*
X-351203Y-105147D01*
Y-105152D01*
X-351209Y-105163D01*
X-351214Y-105180D01*
X-351220Y-105202D01*
X-351225Y-105230D01*
X-351236Y-105269D01*
X-351248Y-105308D01*
X-351259Y-105352D01*
X-351275Y-105463D01*
X-351292Y-105591D01*
X-351303Y-105735D01*
X-351309Y-105890D01*
Y-105896D01*
Y-105918D01*
Y-105946D01*
X-351303Y-105990D01*
Y-106040D01*
X-351297Y-106096D01*
X-351292Y-106162D01*
X-351286Y-106229D01*
X-351259Y-106379D01*
X-351225Y-106534D01*
X-351175Y-106678D01*
X-351142Y-106751D01*
X-351109Y-106812D01*
Y-106817D01*
X-351098Y-106828D01*
X-351087Y-106845D01*
X-351076Y-106867D01*
X-351031Y-106923D01*
X-350976Y-106989D01*
X-350903Y-107061D01*
X-350820Y-107134D01*
X-350726Y-107195D01*
X-350626Y-107245D01*
X-350615Y-107250D01*
X-350587Y-107256D01*
X-350537Y-107272D01*
X-350465Y-107289D01*
X-350376Y-107300D01*
X-350265Y-107317D01*
X-350199Y-107322D01*
X-350126D01*
X-350054Y-107328D01*
X-349166D01*
Y-104397D01*
D02*
G37*
G36*
X-329758Y-104309D02*
X-329786D01*
X-329813Y-104314D01*
X-329852D01*
X-329902Y-104320D01*
X-329958Y-104331D01*
X-330024Y-104342D01*
X-330091Y-104359D01*
X-330169Y-104381D01*
X-330241Y-104409D01*
X-330324Y-104436D01*
X-330402Y-104475D01*
X-330479Y-104525D01*
X-330557Y-104575D01*
X-330635Y-104636D01*
X-330707Y-104708D01*
X-330713Y-104714D01*
X-330724Y-104725D01*
X-330740Y-104753D01*
X-330768Y-104786D01*
X-330796Y-104825D01*
X-330823Y-104875D01*
X-330857Y-104936D01*
X-330896Y-105002D01*
X-330929Y-105080D01*
X-330962Y-105169D01*
X-330990Y-105263D01*
X-331023Y-105363D01*
X-331046Y-105474D01*
X-331062Y-105596D01*
X-331073Y-105724D01*
X-331079Y-105857D01*
Y-105863D01*
Y-105879D01*
Y-105902D01*
Y-105935D01*
X-331073Y-105974D01*
Y-106024D01*
X-331068Y-106073D01*
X-331057Y-106135D01*
X-331040Y-106262D01*
X-331012Y-106395D01*
X-330973Y-106540D01*
X-330918Y-106673D01*
Y-106678D01*
X-330912Y-106690D01*
X-330901Y-106706D01*
X-330890Y-106728D01*
X-330851Y-106795D01*
X-330801Y-106873D01*
X-330735Y-106962D01*
X-330651Y-107050D01*
X-330557Y-107139D01*
X-330452Y-107217D01*
X-330446D01*
X-330441Y-107228D01*
X-330424Y-107234D01*
X-330396Y-107250D01*
X-330368Y-107261D01*
X-330335Y-107278D01*
X-330252Y-107317D01*
X-330152Y-107350D01*
X-330035Y-107383D01*
X-329902Y-107405D01*
X-329764Y-107411D01*
X-329714D01*
X-329675Y-107405D01*
X-329625Y-107400D01*
X-329575Y-107389D01*
X-329514Y-107378D01*
X-329447Y-107367D01*
X-329303Y-107322D01*
X-329225Y-107289D01*
X-329147Y-107256D01*
X-329064Y-107211D01*
X-328987Y-107161D01*
X-328909Y-107106D01*
X-328837Y-107039D01*
X-328831Y-107034D01*
X-328820Y-107023D01*
X-328803Y-107000D01*
X-328776Y-106967D01*
X-328748Y-106928D01*
X-328714Y-106878D01*
X-328681Y-106817D01*
X-328642Y-106745D01*
X-328609Y-106667D01*
X-328570Y-106573D01*
X-328537Y-106473D01*
X-328509Y-106362D01*
X-328481Y-106240D01*
X-328465Y-106101D01*
X-328454Y-105957D01*
X-328448Y-105802D01*
Y-105796D01*
Y-105774D01*
Y-105735D01*
X-328454Y-105685D01*
X-328459Y-105630D01*
X-328470Y-105563D01*
X-328481Y-105485D01*
X-328492Y-105408D01*
X-328537Y-105230D01*
X-328570Y-105141D01*
X-328604Y-105047D01*
X-328648Y-104958D01*
X-328698Y-104869D01*
X-328753Y-104786D01*
X-328820Y-104708D01*
X-328825Y-104703D01*
X-328837Y-104692D01*
X-328859Y-104669D01*
X-328887Y-104647D01*
X-328925Y-104614D01*
X-328970Y-104581D01*
X-329020Y-104547D01*
X-329075Y-104508D01*
X-329142Y-104470D01*
X-329214Y-104436D01*
X-329292Y-104403D01*
X-329375Y-104370D01*
X-329464Y-104348D01*
X-329553Y-104325D01*
X-329653Y-104314D01*
X-329758Y-104309D01*
D02*
G37*
G36*
X-274572Y-39579D02*
X-275871D01*
X-275471Y-40634D01*
Y-40639D01*
X-275465Y-40656D01*
X-275454Y-40684D01*
X-275443Y-40717D01*
X-275427Y-40756D01*
X-275410Y-40806D01*
X-275393Y-40861D01*
X-275371Y-40917D01*
X-275327Y-41044D01*
X-275282Y-41177D01*
X-275238Y-41311D01*
X-275199Y-41438D01*
Y-41433D01*
X-275194Y-41422D01*
Y-41399D01*
X-275182Y-41377D01*
X-275177Y-41339D01*
X-275166Y-41300D01*
X-275144Y-41205D01*
X-275116Y-41094D01*
X-275077Y-40972D01*
X-275038Y-40839D01*
X-274988Y-40700D01*
X-274572Y-39579D01*
D02*
G37*
G36*
X-277985Y-40140D02*
X-279128D01*
X-279195Y-40145D01*
X-279273Y-40151D01*
X-279362Y-40156D01*
X-279450Y-40167D01*
X-279539Y-40184D01*
X-279617Y-40206D01*
X-279628Y-40212D01*
X-279650Y-40223D01*
X-279683Y-40240D01*
X-279728Y-40262D01*
X-279778Y-40295D01*
X-279828Y-40334D01*
X-279878Y-40384D01*
X-279917Y-40439D01*
X-279922Y-40445D01*
X-279933Y-40467D01*
X-279950Y-40500D01*
X-279972Y-40545D01*
X-279989Y-40595D01*
X-280005Y-40650D01*
X-280016Y-40717D01*
X-280022Y-40784D01*
Y-40789D01*
Y-40795D01*
X-280016Y-40828D01*
X-280011Y-40878D01*
X-280000Y-40944D01*
X-279972Y-41011D01*
X-279939Y-41089D01*
X-279889Y-41161D01*
X-279822Y-41233D01*
X-279811Y-41239D01*
X-279783Y-41261D01*
X-279739Y-41289D01*
X-279667Y-41322D01*
X-279584Y-41355D01*
X-279472Y-41383D01*
X-279345Y-41405D01*
X-279195Y-41411D01*
X-277985D01*
Y-40140D01*
D02*
G37*
G36*
X-266624Y-38453D02*
X-267718D01*
X-267834Y-38458D01*
X-267884Y-38464D01*
X-267929Y-38469D01*
X-267934D01*
X-267956Y-38475D01*
X-267990Y-38480D01*
X-268028Y-38491D01*
X-268123Y-38525D01*
X-268217Y-38569D01*
X-268223Y-38575D01*
X-268239Y-38586D01*
X-268262Y-38602D01*
X-268289Y-38625D01*
X-268317Y-38658D01*
X-268356Y-38691D01*
X-268384Y-38735D01*
X-268417Y-38785D01*
X-268423Y-38791D01*
X-268428Y-38808D01*
X-268439Y-38841D01*
X-268456Y-38880D01*
X-268472Y-38924D01*
X-268483Y-38980D01*
X-268489Y-39046D01*
X-268495Y-39113D01*
Y-39124D01*
Y-39146D01*
X-268489Y-39191D01*
X-268478Y-39241D01*
X-268467Y-39296D01*
X-268445Y-39357D01*
X-268417Y-39418D01*
X-268378Y-39479D01*
X-268373Y-39485D01*
X-268356Y-39507D01*
X-268334Y-39535D01*
X-268300Y-39568D01*
X-268256Y-39607D01*
X-268200Y-39646D01*
X-268139Y-39679D01*
X-268067Y-39707D01*
X-268056Y-39712D01*
X-268034Y-39718D01*
X-267984Y-39729D01*
X-267923Y-39740D01*
X-267845Y-39751D01*
X-267751Y-39762D01*
X-267634Y-39773D01*
X-266624D01*
Y-38453D01*
D02*
G37*
G36*
Y-40229D02*
X-267568D01*
X-267640Y-40234D01*
X-267718Y-40240D01*
X-267795Y-40245D01*
X-267873Y-40256D01*
X-267934Y-40267D01*
X-267945Y-40273D01*
X-267967Y-40278D01*
X-268001Y-40295D01*
X-268045Y-40317D01*
X-268090Y-40339D01*
X-268139Y-40373D01*
X-268189Y-40417D01*
X-268228Y-40462D01*
X-268234Y-40467D01*
X-268245Y-40484D01*
X-268262Y-40517D01*
X-268278Y-40556D01*
X-268295Y-40600D01*
X-268312Y-40656D01*
X-268323Y-40722D01*
X-268328Y-40795D01*
Y-40806D01*
Y-40828D01*
X-268323Y-40861D01*
X-268317Y-40906D01*
X-268306Y-40961D01*
X-268289Y-41017D01*
X-268267Y-41072D01*
X-268234Y-41128D01*
X-268228Y-41133D01*
X-268217Y-41150D01*
X-268195Y-41177D01*
X-268167Y-41205D01*
X-268128Y-41239D01*
X-268084Y-41272D01*
X-268028Y-41305D01*
X-267967Y-41327D01*
X-267962D01*
X-267934Y-41339D01*
X-267895Y-41344D01*
X-267834Y-41355D01*
X-267751Y-41366D01*
X-267657Y-41372D01*
X-267534Y-41383D01*
X-266624D01*
Y-40229D01*
D02*
G37*
G36*
X-281854Y-38453D02*
X-282764D01*
X-282803Y-38458D01*
X-282886Y-38464D01*
X-282980Y-38469D01*
X-283080Y-38480D01*
X-283180Y-38497D01*
X-283263Y-38519D01*
X-283274Y-38525D01*
X-283302Y-38530D01*
X-283341Y-38547D01*
X-283391Y-38569D01*
X-283446Y-38602D01*
X-283502Y-38636D01*
X-283557Y-38675D01*
X-283613Y-38719D01*
X-283618Y-38730D01*
X-283641Y-38752D01*
X-283674Y-38791D01*
X-283713Y-38846D01*
X-283757Y-38919D01*
X-283807Y-39002D01*
X-283852Y-39096D01*
X-283890Y-39202D01*
Y-39207D01*
X-283896Y-39218D01*
X-283901Y-39235D01*
X-283907Y-39257D01*
X-283912Y-39285D01*
X-283924Y-39324D01*
X-283935Y-39363D01*
X-283946Y-39407D01*
X-283962Y-39518D01*
X-283979Y-39646D01*
X-283990Y-39790D01*
X-283996Y-39945D01*
Y-39951D01*
Y-39973D01*
Y-40001D01*
X-283990Y-40045D01*
Y-40095D01*
X-283985Y-40151D01*
X-283979Y-40217D01*
X-283974Y-40284D01*
X-283946Y-40434D01*
X-283912Y-40589D01*
X-283863Y-40734D01*
X-283829Y-40806D01*
X-283796Y-40867D01*
Y-40872D01*
X-283785Y-40883D01*
X-283774Y-40900D01*
X-283763Y-40922D01*
X-283718Y-40978D01*
X-283663Y-41044D01*
X-283591Y-41116D01*
X-283507Y-41189D01*
X-283413Y-41250D01*
X-283313Y-41300D01*
X-283302Y-41305D01*
X-283274Y-41311D01*
X-283224Y-41327D01*
X-283152Y-41344D01*
X-283063Y-41355D01*
X-282952Y-41372D01*
X-282886Y-41377D01*
X-282814D01*
X-282741Y-41383D01*
X-281854D01*
Y-38453D01*
D02*
G37*
G36*
X-290800D02*
X-291710D01*
X-291749Y-38458D01*
X-291832Y-38464D01*
X-291927Y-38469D01*
X-292027Y-38480D01*
X-292126Y-38497D01*
X-292210Y-38519D01*
X-292221Y-38525D01*
X-292249Y-38530D01*
X-292287Y-38547D01*
X-292337Y-38569D01*
X-292393Y-38602D01*
X-292448Y-38636D01*
X-292504Y-38675D01*
X-292559Y-38719D01*
X-292565Y-38730D01*
X-292587Y-38752D01*
X-292620Y-38791D01*
X-292659Y-38846D01*
X-292704Y-38919D01*
X-292754Y-39002D01*
X-292798Y-39096D01*
X-292837Y-39202D01*
Y-39207D01*
X-292843Y-39218D01*
X-292848Y-39235D01*
X-292854Y-39257D01*
X-292859Y-39285D01*
X-292870Y-39324D01*
X-292881Y-39363D01*
X-292892Y-39407D01*
X-292909Y-39518D01*
X-292926Y-39646D01*
X-292937Y-39790D01*
X-292942Y-39945D01*
Y-39951D01*
Y-39973D01*
Y-40001D01*
X-292937Y-40045D01*
Y-40095D01*
X-292931Y-40151D01*
X-292926Y-40217D01*
X-292920Y-40284D01*
X-292892Y-40434D01*
X-292859Y-40589D01*
X-292809Y-40734D01*
X-292776Y-40806D01*
X-292743Y-40867D01*
Y-40872D01*
X-292731Y-40883D01*
X-292720Y-40900D01*
X-292709Y-40922D01*
X-292665Y-40978D01*
X-292609Y-41044D01*
X-292537Y-41116D01*
X-292454Y-41189D01*
X-292360Y-41250D01*
X-292260Y-41300D01*
X-292249Y-41305D01*
X-292221Y-41311D01*
X-292171Y-41327D01*
X-292099Y-41344D01*
X-292010Y-41355D01*
X-291899Y-41372D01*
X-291832Y-41377D01*
X-291760D01*
X-291688Y-41383D01*
X-290800D01*
Y-38453D01*
D02*
G37*
G36*
X-271392Y-38364D02*
X-271420D01*
X-271447Y-38369D01*
X-271486D01*
X-271536Y-38375D01*
X-271591Y-38386D01*
X-271658Y-38397D01*
X-271725Y-38414D01*
X-271802Y-38436D01*
X-271875Y-38464D01*
X-271958Y-38491D01*
X-272036Y-38530D01*
X-272113Y-38580D01*
X-272191Y-38630D01*
X-272269Y-38691D01*
X-272341Y-38763D01*
X-272346Y-38769D01*
X-272357Y-38780D01*
X-272374Y-38808D01*
X-272402Y-38841D01*
X-272430Y-38880D01*
X-272457Y-38930D01*
X-272491Y-38991D01*
X-272530Y-39057D01*
X-272563Y-39135D01*
X-272596Y-39224D01*
X-272624Y-39318D01*
X-272657Y-39418D01*
X-272679Y-39529D01*
X-272696Y-39651D01*
X-272707Y-39779D01*
X-272713Y-39912D01*
Y-39918D01*
Y-39934D01*
Y-39957D01*
Y-39990D01*
X-272707Y-40029D01*
Y-40079D01*
X-272702Y-40129D01*
X-272690Y-40190D01*
X-272674Y-40317D01*
X-272646Y-40451D01*
X-272607Y-40595D01*
X-272552Y-40728D01*
Y-40734D01*
X-272546Y-40745D01*
X-272535Y-40761D01*
X-272524Y-40784D01*
X-272485Y-40850D01*
X-272435Y-40928D01*
X-272369Y-41017D01*
X-272285Y-41105D01*
X-272191Y-41194D01*
X-272085Y-41272D01*
X-272080D01*
X-272074Y-41283D01*
X-272058Y-41289D01*
X-272030Y-41305D01*
X-272002Y-41316D01*
X-271969Y-41333D01*
X-271886Y-41372D01*
X-271786Y-41405D01*
X-271669Y-41438D01*
X-271536Y-41461D01*
X-271397Y-41466D01*
X-271347D01*
X-271308Y-41461D01*
X-271258Y-41455D01*
X-271209Y-41444D01*
X-271147Y-41433D01*
X-271081Y-41422D01*
X-270937Y-41377D01*
X-270859Y-41344D01*
X-270781Y-41311D01*
X-270698Y-41266D01*
X-270620Y-41216D01*
X-270543Y-41161D01*
X-270470Y-41094D01*
X-270465Y-41089D01*
X-270454Y-41078D01*
X-270437Y-41055D01*
X-270409Y-41022D01*
X-270382Y-40983D01*
X-270348Y-40933D01*
X-270315Y-40872D01*
X-270276Y-40800D01*
X-270243Y-40722D01*
X-270204Y-40628D01*
X-270171Y-40528D01*
X-270143Y-40417D01*
X-270115Y-40295D01*
X-270099Y-40156D01*
X-270088Y-40012D01*
X-270082Y-39857D01*
Y-39851D01*
Y-39829D01*
Y-39790D01*
X-270088Y-39740D01*
X-270093Y-39685D01*
X-270104Y-39618D01*
X-270115Y-39540D01*
X-270126Y-39463D01*
X-270171Y-39285D01*
X-270204Y-39196D01*
X-270237Y-39102D01*
X-270282Y-39013D01*
X-270332Y-38924D01*
X-270387Y-38841D01*
X-270454Y-38763D01*
X-270459Y-38758D01*
X-270470Y-38747D01*
X-270493Y-38724D01*
X-270520Y-38702D01*
X-270559Y-38669D01*
X-270604Y-38636D01*
X-270654Y-38602D01*
X-270709Y-38563D01*
X-270776Y-38525D01*
X-270848Y-38491D01*
X-270925Y-38458D01*
X-271009Y-38425D01*
X-271098Y-38403D01*
X-271186Y-38380D01*
X-271286Y-38369D01*
X-271392Y-38364D01*
D02*
G37*
%LPD*%
D12*
X-234193Y-176004D02*
X-196756D01*
X-92693Y-190886D02*
X-55256D01*
X-198Y-69683D02*
Y-34254D01*
X-589Y-93306D02*
Y-83465D01*
Y-118898D02*
Y-109057D01*
X-5315D02*
X-589D01*
X-5315Y-93306D02*
X-589D01*
X-5315Y-109057D02*
Y-93306D01*
X-416693Y-13838D02*
X-388819D01*
X-589Y-141928D02*
Y-132087D01*
Y-167520D02*
Y-157679D01*
X-5315D02*
X-589D01*
X-5315Y-141928D02*
X-589D01*
X-5315Y-157679D02*
Y-141928D01*
X-589Y-238975D02*
Y-229134D01*
Y-264567D02*
Y-254726D01*
X-5315D02*
X-589D01*
X-5315Y-238975D02*
X-589D01*
X-5315Y-254726D02*
Y-238975D01*
X-589Y-190550D02*
Y-180709D01*
Y-216142D02*
Y-206301D01*
X-5315D02*
X-589D01*
X-5315Y-190550D02*
X-589D01*
X-5315Y-206301D02*
Y-190550D01*
X-347008Y-103485D02*
X-319134D01*
X-288642Y-37540D02*
X-260768D01*
D16*
X-113779Y-223031D02*
X-112205D01*
X-112992Y-223819D02*
Y-222244D01*
X-67520Y-277362D02*
X-65945D01*
X-66732Y-278150D02*
Y-276575D01*
D225*
X-228847Y-173906D02*
Y-175546D01*
Y-173906D02*
X-228144D01*
X-227910Y-173984D01*
X-227832Y-174062D01*
X-227753Y-174218D01*
Y-174374D01*
X-227832Y-174531D01*
X-227910Y-174609D01*
X-228144Y-174687D01*
X-228847D02*
X-228144D01*
X-227910Y-174765D01*
X-227832Y-174843D01*
X-227753Y-174999D01*
Y-175233D01*
X-227832Y-175390D01*
X-227910Y-175468D01*
X-228144Y-175546D01*
X-228847D01*
X-226918Y-173906D02*
X-227074Y-173984D01*
X-227230Y-174140D01*
X-227308Y-174296D01*
X-227386Y-174531D01*
Y-174921D01*
X-227308Y-175155D01*
X-227230Y-175312D01*
X-227074Y-175468D01*
X-226918Y-175546D01*
X-226605D01*
X-226449Y-175468D01*
X-226293Y-175312D01*
X-226215Y-175155D01*
X-226137Y-174921D01*
Y-174531D01*
X-226215Y-174296D01*
X-226293Y-174140D01*
X-226449Y-173984D01*
X-226605Y-173906D01*
X-226918D01*
X-224504Y-175546D02*
X-225129Y-173906D01*
X-225754Y-175546D01*
X-225520Y-174999D02*
X-224739D01*
X-224122Y-173906D02*
Y-175546D01*
Y-173906D02*
X-223419D01*
X-223184Y-173984D01*
X-223106Y-174062D01*
X-223028Y-174218D01*
Y-174374D01*
X-223106Y-174531D01*
X-223184Y-174609D01*
X-223419Y-174687D01*
X-224122D01*
X-223575D02*
X-223028Y-175546D01*
X-222661Y-173906D02*
Y-175546D01*
Y-173906D02*
X-222115D01*
X-221880Y-173984D01*
X-221724Y-174140D01*
X-221646Y-174296D01*
X-221568Y-174531D01*
Y-174921D01*
X-221646Y-175155D01*
X-221724Y-175312D01*
X-221880Y-175468D01*
X-222115Y-175546D01*
X-222661D01*
X-218897Y-173906D02*
X-219912D01*
Y-175546D01*
X-218897D01*
X-219912Y-174687D02*
X-219287D01*
X-218623Y-173906D02*
Y-175546D01*
Y-173906D02*
X-218077D01*
X-217842Y-173984D01*
X-217686Y-174140D01*
X-217608Y-174296D01*
X-217530Y-174531D01*
Y-174921D01*
X-217608Y-175155D01*
X-217686Y-175312D01*
X-217842Y-175468D01*
X-218077Y-175546D01*
X-218623D01*
X-215991Y-174296D02*
X-216069Y-174140D01*
X-216226Y-173984D01*
X-216382Y-173906D01*
X-216694D01*
X-216850Y-173984D01*
X-217007Y-174140D01*
X-217085Y-174296D01*
X-217163Y-174531D01*
Y-174921D01*
X-217085Y-175155D01*
X-217007Y-175312D01*
X-216850Y-175468D01*
X-216694Y-175546D01*
X-216382D01*
X-216226Y-175468D01*
X-216069Y-175312D01*
X-215991Y-175155D01*
Y-174921D01*
X-216382D02*
X-215991D01*
X-214601Y-173906D02*
X-215616D01*
Y-175546D01*
X-214601D01*
X-215616Y-174687D02*
X-214992D01*
X-60602Y-192984D02*
Y-191344D01*
Y-192984D02*
X-61305D01*
X-61539Y-192906D01*
X-61617Y-192828D01*
X-61695Y-192672D01*
Y-192515D01*
X-61617Y-192359D01*
X-61539Y-192281D01*
X-61305Y-192203D01*
X-60602D02*
X-61305D01*
X-61539Y-192125D01*
X-61617Y-192047D01*
X-61695Y-191891D01*
Y-191656D01*
X-61617Y-191500D01*
X-61539Y-191422D01*
X-61305Y-191344D01*
X-60602D01*
X-62531Y-192984D02*
X-62375Y-192906D01*
X-62219Y-192750D01*
X-62141Y-192594D01*
X-62063Y-192359D01*
Y-191969D01*
X-62141Y-191734D01*
X-62219Y-191578D01*
X-62375Y-191422D01*
X-62531Y-191344D01*
X-62844D01*
X-63000Y-191422D01*
X-63156Y-191578D01*
X-63234Y-191734D01*
X-63312Y-191969D01*
Y-192359D01*
X-63234Y-192594D01*
X-63156Y-192750D01*
X-63000Y-192906D01*
X-62844Y-192984D01*
X-62531D01*
X-64944Y-191344D02*
X-64320Y-192984D01*
X-63695Y-191344D01*
X-63929Y-191891D02*
X-64710D01*
X-65327Y-192984D02*
Y-191344D01*
Y-192984D02*
X-66030D01*
X-66264Y-192906D01*
X-66343Y-192828D01*
X-66421Y-192672D01*
Y-192515D01*
X-66343Y-192359D01*
X-66264Y-192281D01*
X-66030Y-192203D01*
X-65327D01*
X-65874D02*
X-66421Y-191344D01*
X-66788Y-192984D02*
Y-191344D01*
Y-192984D02*
X-67334D01*
X-67569Y-192906D01*
X-67725Y-192750D01*
X-67803Y-192594D01*
X-67881Y-192359D01*
Y-191969D01*
X-67803Y-191734D01*
X-67725Y-191578D01*
X-67569Y-191422D01*
X-67334Y-191344D01*
X-66788D01*
X-70552Y-192984D02*
X-69537D01*
Y-191344D01*
X-70552D01*
X-69537Y-192203D02*
X-70162D01*
X-70825Y-192984D02*
Y-191344D01*
Y-192984D02*
X-71372D01*
X-71607Y-192906D01*
X-71763Y-192750D01*
X-71841Y-192594D01*
X-71919Y-192359D01*
Y-191969D01*
X-71841Y-191734D01*
X-71763Y-191578D01*
X-71607Y-191422D01*
X-71372Y-191344D01*
X-70825D01*
X-73458Y-192594D02*
X-73379Y-192750D01*
X-73223Y-192906D01*
X-73067Y-192984D01*
X-72755D01*
X-72598Y-192906D01*
X-72442Y-192750D01*
X-72364Y-192594D01*
X-72286Y-192359D01*
Y-191969D01*
X-72364Y-191734D01*
X-72442Y-191578D01*
X-72598Y-191422D01*
X-72755Y-191344D01*
X-73067D01*
X-73223Y-191422D01*
X-73379Y-191578D01*
X-73458Y-191734D01*
Y-191969D01*
X-73067D02*
X-73458D01*
X-74848Y-192984D02*
X-73832D01*
Y-191344D01*
X-74848D01*
X-73832Y-192203D02*
X-74457D01*
X2975Y-93006D02*
X4615D01*
X2975D02*
Y-92303D01*
X3053Y-92068D01*
X3131Y-91990D01*
X3287Y-91912D01*
X3443D01*
X3599Y-91990D01*
X3678Y-92068D01*
X3756Y-92303D01*
Y-93006D02*
Y-92303D01*
X3834Y-92068D01*
X3912Y-91990D01*
X4068Y-91912D01*
X4302D01*
X4459Y-91990D01*
X4537Y-92068D01*
X4615Y-92303D01*
Y-93006D01*
X2975Y-91077D02*
X3053Y-91233D01*
X3209Y-91389D01*
X3365Y-91467D01*
X3599Y-91545D01*
X3990D01*
X4224Y-91467D01*
X4380Y-91389D01*
X4537Y-91233D01*
X4615Y-91077D01*
Y-90764D01*
X4537Y-90608D01*
X4380Y-90452D01*
X4224Y-90374D01*
X3990Y-90296D01*
X3599D01*
X3365Y-90374D01*
X3209Y-90452D01*
X3053Y-90608D01*
X2975Y-90764D01*
Y-91077D01*
X4615Y-88663D02*
X2975Y-89288D01*
X4615Y-89913D01*
X4068Y-89679D02*
Y-88898D01*
X2975Y-88280D02*
X4615D01*
X2975D02*
Y-87578D01*
X3053Y-87343D01*
X3131Y-87265D01*
X3287Y-87187D01*
X3443D01*
X3599Y-87265D01*
X3678Y-87343D01*
X3756Y-87578D01*
Y-88280D01*
Y-87734D02*
X4615Y-87187D01*
X2975Y-86820D02*
X4615D01*
X2975D02*
Y-86273D01*
X3053Y-86039D01*
X3209Y-85883D01*
X3365Y-85805D01*
X3599Y-85727D01*
X3990D01*
X4224Y-85805D01*
X4380Y-85883D01*
X4537Y-86039D01*
X4615Y-86273D01*
Y-86820D01*
X6292Y-91331D02*
Y-92346D01*
X7932D01*
Y-91331D01*
X7073Y-92346D02*
Y-91721D01*
X6292Y-91057D02*
X7932D01*
X6292D02*
Y-90510D01*
X6370Y-90276D01*
X6526Y-90120D01*
X6682Y-90042D01*
X6916Y-89964D01*
X7307D01*
X7541Y-90042D01*
X7697Y-90120D01*
X7854Y-90276D01*
X7932Y-90510D01*
Y-91057D01*
X6682Y-88425D02*
X6526Y-88503D01*
X6370Y-88660D01*
X6292Y-88816D01*
Y-89128D01*
X6370Y-89284D01*
X6526Y-89441D01*
X6682Y-89519D01*
X6916Y-89597D01*
X7307D01*
X7541Y-89519D01*
X7697Y-89441D01*
X7854Y-89284D01*
X7932Y-89128D01*
Y-88816D01*
X7854Y-88660D01*
X7697Y-88503D01*
X7541Y-88425D01*
X7307D01*
Y-88816D02*
Y-88425D01*
X6292Y-87035D02*
Y-88050D01*
X7932D01*
Y-87035D01*
X7073Y-88050D02*
Y-87425D01*
X2975Y-118596D02*
X4615D01*
X2975D02*
Y-117893D01*
X3053Y-117658D01*
X3131Y-117580D01*
X3287Y-117502D01*
X3443D01*
X3599Y-117580D01*
X3678Y-117658D01*
X3756Y-117893D01*
Y-118596D02*
Y-117893D01*
X3834Y-117658D01*
X3912Y-117580D01*
X4068Y-117502D01*
X4302D01*
X4459Y-117580D01*
X4537Y-117658D01*
X4615Y-117893D01*
Y-118596D01*
X2975Y-116666D02*
X3053Y-116823D01*
X3209Y-116979D01*
X3365Y-117057D01*
X3599Y-117135D01*
X3990D01*
X4224Y-117057D01*
X4380Y-116979D01*
X4537Y-116823D01*
X4615Y-116666D01*
Y-116354D01*
X4537Y-116198D01*
X4380Y-116042D01*
X4224Y-115963D01*
X3990Y-115885D01*
X3599D01*
X3365Y-115963D01*
X3209Y-116042D01*
X3053Y-116198D01*
X2975Y-116354D01*
Y-116666D01*
X4615Y-114253D02*
X2975Y-114878D01*
X4615Y-115503D01*
X4068Y-115268D02*
Y-114487D01*
X2975Y-113870D02*
X4615D01*
X2975D02*
Y-113167D01*
X3053Y-112933D01*
X3131Y-112855D01*
X3287Y-112777D01*
X3443D01*
X3599Y-112855D01*
X3678Y-112933D01*
X3756Y-113167D01*
Y-113870D01*
Y-113324D02*
X4615Y-112777D01*
X2975Y-112410D02*
X4615D01*
X2975D02*
Y-111863D01*
X3053Y-111629D01*
X3209Y-111472D01*
X3365Y-111394D01*
X3599Y-111316D01*
X3990D01*
X4224Y-111394D01*
X4380Y-111472D01*
X4537Y-111629D01*
X4615Y-111863D01*
Y-112410D01*
X6292Y-116920D02*
Y-117936D01*
X7932D01*
Y-116920D01*
X7073Y-117936D02*
Y-117311D01*
X6292Y-116647D02*
X7932D01*
X6292D02*
Y-116100D01*
X6370Y-115866D01*
X6526Y-115710D01*
X6682Y-115632D01*
X6916Y-115553D01*
X7307D01*
X7541Y-115632D01*
X7697Y-115710D01*
X7854Y-115866D01*
X7932Y-116100D01*
Y-116647D01*
X6682Y-114015D02*
X6526Y-114093D01*
X6370Y-114249D01*
X6292Y-114405D01*
Y-114718D01*
X6370Y-114874D01*
X6526Y-115030D01*
X6682Y-115108D01*
X6916Y-115186D01*
X7307D01*
X7541Y-115108D01*
X7697Y-115030D01*
X7854Y-114874D01*
X7932Y-114718D01*
Y-114405D01*
X7854Y-114249D01*
X7697Y-114093D01*
X7541Y-114015D01*
X7307D01*
Y-114405D02*
Y-114015D01*
X6292Y-112625D02*
Y-113640D01*
X7932D01*
Y-112625D01*
X7073Y-113640D02*
Y-113015D01*
X-411347Y-11740D02*
Y-13381D01*
Y-11740D02*
X-410644D01*
X-410410Y-11818D01*
X-410332Y-11897D01*
X-410253Y-12053D01*
Y-12209D01*
X-410332Y-12365D01*
X-410410Y-12443D01*
X-410644Y-12521D01*
X-411347D02*
X-410644D01*
X-410410Y-12600D01*
X-410332Y-12678D01*
X-410253Y-12834D01*
Y-13068D01*
X-410332Y-13224D01*
X-410410Y-13303D01*
X-410644Y-13381D01*
X-411347D01*
X-409418Y-11740D02*
X-409574Y-11818D01*
X-409730Y-11975D01*
X-409808Y-12131D01*
X-409887Y-12365D01*
Y-12756D01*
X-409808Y-12990D01*
X-409730Y-13146D01*
X-409574Y-13303D01*
X-409418Y-13381D01*
X-409105D01*
X-408949Y-13303D01*
X-408793Y-13146D01*
X-408715Y-12990D01*
X-408637Y-12756D01*
Y-12365D01*
X-408715Y-12131D01*
X-408793Y-11975D01*
X-408949Y-11818D01*
X-409105Y-11740D01*
X-409418D01*
X-407004Y-13381D02*
X-407629Y-11740D01*
X-408254Y-13381D01*
X-408020Y-12834D02*
X-407239D01*
X-406622Y-11740D02*
Y-13381D01*
Y-11740D02*
X-405919D01*
X-405685Y-11818D01*
X-405606Y-11897D01*
X-405528Y-12053D01*
Y-12209D01*
X-405606Y-12365D01*
X-405685Y-12443D01*
X-405919Y-12521D01*
X-406622D01*
X-406075D02*
X-405528Y-13381D01*
X-405161Y-11740D02*
Y-13381D01*
Y-11740D02*
X-404615D01*
X-404380Y-11818D01*
X-404224Y-11975D01*
X-404146Y-12131D01*
X-404068Y-12365D01*
Y-12756D01*
X-404146Y-12990D01*
X-404224Y-13146D01*
X-404380Y-13303D01*
X-404615Y-13381D01*
X-405161D01*
X-401397Y-11740D02*
X-402412D01*
Y-13381D01*
X-401397D01*
X-402412Y-12521D02*
X-401787D01*
X-401123Y-11740D02*
Y-13381D01*
Y-11740D02*
X-400577D01*
X-400342Y-11818D01*
X-400186Y-11975D01*
X-400108Y-12131D01*
X-400030Y-12365D01*
Y-12756D01*
X-400108Y-12990D01*
X-400186Y-13146D01*
X-400342Y-13303D01*
X-400577Y-13381D01*
X-401123D01*
X-398491Y-12131D02*
X-398569Y-11975D01*
X-398726Y-11818D01*
X-398882Y-11740D01*
X-399194D01*
X-399351Y-11818D01*
X-399507Y-11975D01*
X-399585Y-12131D01*
X-399663Y-12365D01*
Y-12756D01*
X-399585Y-12990D01*
X-399507Y-13146D01*
X-399351Y-13303D01*
X-399194Y-13381D01*
X-398882D01*
X-398726Y-13303D01*
X-398569Y-13146D01*
X-398491Y-12990D01*
Y-12756D01*
X-398882D02*
X-398491D01*
X-397101Y-11740D02*
X-398116D01*
Y-13381D01*
X-397101D01*
X-398116Y-12521D02*
X-397492D01*
X2975Y-141628D02*
X4615D01*
X2975D02*
Y-140925D01*
X3053Y-140691D01*
X3131Y-140612D01*
X3287Y-140534D01*
X3443D01*
X3599Y-140612D01*
X3678Y-140691D01*
X3756Y-140925D01*
Y-141628D02*
Y-140925D01*
X3834Y-140691D01*
X3912Y-140612D01*
X4068Y-140534D01*
X4302D01*
X4459Y-140612D01*
X4537Y-140691D01*
X4615Y-140925D01*
Y-141628D01*
X2975Y-139699D02*
X3053Y-139855D01*
X3209Y-140011D01*
X3365Y-140089D01*
X3599Y-140167D01*
X3990D01*
X4224Y-140089D01*
X4380Y-140011D01*
X4537Y-139855D01*
X4615Y-139699D01*
Y-139386D01*
X4537Y-139230D01*
X4380Y-139074D01*
X4224Y-138996D01*
X3990Y-138918D01*
X3599D01*
X3365Y-138996D01*
X3209Y-139074D01*
X3053Y-139230D01*
X2975Y-139386D01*
Y-139699D01*
X4615Y-137285D02*
X2975Y-137910D01*
X4615Y-138535D01*
X4068Y-138301D02*
Y-137520D01*
X2975Y-136902D02*
X4615D01*
X2975D02*
Y-136200D01*
X3053Y-135965D01*
X3131Y-135887D01*
X3287Y-135809D01*
X3443D01*
X3599Y-135887D01*
X3678Y-135965D01*
X3756Y-136200D01*
Y-136902D01*
Y-136356D02*
X4615Y-135809D01*
X2975Y-135442D02*
X4615D01*
X2975D02*
Y-134895D01*
X3053Y-134661D01*
X3209Y-134505D01*
X3365Y-134427D01*
X3599Y-134349D01*
X3990D01*
X4224Y-134427D01*
X4380Y-134505D01*
X4537Y-134661D01*
X4615Y-134895D01*
Y-135442D01*
X6292Y-139953D02*
Y-140968D01*
X7932D01*
Y-139953D01*
X7073Y-140968D02*
Y-140343D01*
X6292Y-139679D02*
X7932D01*
X6292D02*
Y-139132D01*
X6370Y-138898D01*
X6526Y-138742D01*
X6682Y-138664D01*
X6916Y-138586D01*
X7307D01*
X7541Y-138664D01*
X7697Y-138742D01*
X7854Y-138898D01*
X7932Y-139132D01*
Y-139679D01*
X6682Y-137047D02*
X6526Y-137125D01*
X6370Y-137282D01*
X6292Y-137438D01*
Y-137750D01*
X6370Y-137906D01*
X6526Y-138063D01*
X6682Y-138141D01*
X6916Y-138219D01*
X7307D01*
X7541Y-138141D01*
X7697Y-138063D01*
X7854Y-137906D01*
X7932Y-137750D01*
Y-137438D01*
X7854Y-137282D01*
X7697Y-137125D01*
X7541Y-137047D01*
X7307D01*
Y-137438D02*
Y-137047D01*
X6292Y-135657D02*
Y-136672D01*
X7932D01*
Y-135657D01*
X7073Y-136672D02*
Y-136047D01*
X2975Y-167218D02*
X4615D01*
X2975D02*
Y-166515D01*
X3053Y-166280D01*
X3131Y-166202D01*
X3287Y-166124D01*
X3443D01*
X3599Y-166202D01*
X3678Y-166280D01*
X3756Y-166515D01*
Y-167218D02*
Y-166515D01*
X3834Y-166280D01*
X3912Y-166202D01*
X4068Y-166124D01*
X4302D01*
X4459Y-166202D01*
X4537Y-166280D01*
X4615Y-166515D01*
Y-167218D01*
X2975Y-165288D02*
X3053Y-165445D01*
X3209Y-165601D01*
X3365Y-165679D01*
X3599Y-165757D01*
X3990D01*
X4224Y-165679D01*
X4380Y-165601D01*
X4537Y-165445D01*
X4615Y-165288D01*
Y-164976D01*
X4537Y-164820D01*
X4380Y-164664D01*
X4224Y-164585D01*
X3990Y-164507D01*
X3599D01*
X3365Y-164585D01*
X3209Y-164664D01*
X3053Y-164820D01*
X2975Y-164976D01*
Y-165288D01*
X4615Y-162875D02*
X2975Y-163500D01*
X4615Y-164125D01*
X4068Y-163890D02*
Y-163109D01*
X2975Y-162492D02*
X4615D01*
X2975D02*
Y-161789D01*
X3053Y-161555D01*
X3131Y-161477D01*
X3287Y-161399D01*
X3443D01*
X3599Y-161477D01*
X3678Y-161555D01*
X3756Y-161789D01*
Y-162492D01*
Y-161946D02*
X4615Y-161399D01*
X2975Y-161032D02*
X4615D01*
X2975D02*
Y-160485D01*
X3053Y-160251D01*
X3209Y-160095D01*
X3365Y-160017D01*
X3599Y-159938D01*
X3990D01*
X4224Y-160017D01*
X4380Y-160095D01*
X4537Y-160251D01*
X4615Y-160485D01*
Y-161032D01*
X6292Y-165542D02*
Y-166558D01*
X7932D01*
Y-165542D01*
X7073Y-166558D02*
Y-165933D01*
X6292Y-165269D02*
X7932D01*
X6292D02*
Y-164722D01*
X6370Y-164488D01*
X6526Y-164332D01*
X6682Y-164254D01*
X6916Y-164176D01*
X7307D01*
X7541Y-164254D01*
X7697Y-164332D01*
X7854Y-164488D01*
X7932Y-164722D01*
Y-165269D01*
X6682Y-162637D02*
X6526Y-162715D01*
X6370Y-162871D01*
X6292Y-163028D01*
Y-163340D01*
X6370Y-163496D01*
X6526Y-163652D01*
X6682Y-163730D01*
X6916Y-163809D01*
X7307D01*
X7541Y-163730D01*
X7697Y-163652D01*
X7854Y-163496D01*
X7932Y-163340D01*
Y-163028D01*
X7854Y-162871D01*
X7697Y-162715D01*
X7541Y-162637D01*
X7307D01*
Y-163028D02*
Y-162637D01*
X6292Y-161247D02*
Y-162262D01*
X7932D01*
Y-161247D01*
X7073Y-162262D02*
Y-161637D01*
X2975Y-238675D02*
X4615D01*
X2975D02*
Y-237972D01*
X3053Y-237738D01*
X3131Y-237660D01*
X3287Y-237582D01*
X3443D01*
X3599Y-237660D01*
X3678Y-237738D01*
X3756Y-237972D01*
Y-238675D02*
Y-237972D01*
X3834Y-237738D01*
X3912Y-237660D01*
X4068Y-237582D01*
X4302D01*
X4459Y-237660D01*
X4537Y-237738D01*
X4615Y-237972D01*
Y-238675D01*
X2975Y-236746D02*
X3053Y-236902D01*
X3209Y-237058D01*
X3365Y-237136D01*
X3599Y-237214D01*
X3990D01*
X4224Y-237136D01*
X4380Y-237058D01*
X4537Y-236902D01*
X4615Y-236746D01*
Y-236434D01*
X4537Y-236277D01*
X4380Y-236121D01*
X4224Y-236043D01*
X3990Y-235965D01*
X3599D01*
X3365Y-236043D01*
X3209Y-236121D01*
X3053Y-236277D01*
X2975Y-236434D01*
Y-236746D01*
X4615Y-234332D02*
X2975Y-234957D01*
X4615Y-235582D01*
X4068Y-235348D02*
Y-234567D01*
X2975Y-233950D02*
X4615D01*
X2975D02*
Y-233247D01*
X3053Y-233013D01*
X3131Y-232934D01*
X3287Y-232856D01*
X3443D01*
X3599Y-232934D01*
X3678Y-233013D01*
X3756Y-233247D01*
Y-233950D01*
Y-233403D02*
X4615Y-232856D01*
X2975Y-232489D02*
X4615D01*
X2975D02*
Y-231943D01*
X3053Y-231708D01*
X3209Y-231552D01*
X3365Y-231474D01*
X3599Y-231396D01*
X3990D01*
X4224Y-231474D01*
X4380Y-231552D01*
X4537Y-231708D01*
X4615Y-231943D01*
Y-232489D01*
X6292Y-237000D02*
Y-238015D01*
X7932D01*
Y-237000D01*
X7073Y-238015D02*
Y-237390D01*
X6292Y-236726D02*
X7932D01*
X6292D02*
Y-236180D01*
X6370Y-235946D01*
X6526Y-235789D01*
X6682Y-235711D01*
X6916Y-235633D01*
X7307D01*
X7541Y-235711D01*
X7697Y-235789D01*
X7854Y-235946D01*
X7932Y-236180D01*
Y-236726D01*
X6682Y-234094D02*
X6526Y-234173D01*
X6370Y-234329D01*
X6292Y-234485D01*
Y-234797D01*
X6370Y-234954D01*
X6526Y-235110D01*
X6682Y-235188D01*
X6916Y-235266D01*
X7307D01*
X7541Y-235188D01*
X7697Y-235110D01*
X7854Y-234954D01*
X7932Y-234797D01*
Y-234485D01*
X7854Y-234329D01*
X7697Y-234173D01*
X7541Y-234094D01*
X7307D01*
Y-234485D02*
Y-234094D01*
X6292Y-232704D02*
Y-233719D01*
X7932D01*
Y-232704D01*
X7073Y-233719D02*
Y-233095D01*
X2975Y-264265D02*
X4615D01*
X2975D02*
Y-263562D01*
X3053Y-263328D01*
X3131Y-263249D01*
X3287Y-263171D01*
X3443D01*
X3599Y-263249D01*
X3678Y-263328D01*
X3756Y-263562D01*
Y-264265D02*
Y-263562D01*
X3834Y-263328D01*
X3912Y-263249D01*
X4068Y-263171D01*
X4302D01*
X4459Y-263249D01*
X4537Y-263328D01*
X4615Y-263562D01*
Y-264265D01*
X2975Y-262336D02*
X3053Y-262492D01*
X3209Y-262648D01*
X3365Y-262726D01*
X3599Y-262804D01*
X3990D01*
X4224Y-262726D01*
X4380Y-262648D01*
X4537Y-262492D01*
X4615Y-262336D01*
Y-262023D01*
X4537Y-261867D01*
X4380Y-261711D01*
X4224Y-261633D01*
X3990Y-261555D01*
X3599D01*
X3365Y-261633D01*
X3209Y-261711D01*
X3053Y-261867D01*
X2975Y-262023D01*
Y-262336D01*
X4615Y-259922D02*
X2975Y-260547D01*
X4615Y-261172D01*
X4068Y-260938D02*
Y-260157D01*
X2975Y-259540D02*
X4615D01*
X2975D02*
Y-258837D01*
X3053Y-258602D01*
X3131Y-258524D01*
X3287Y-258446D01*
X3443D01*
X3599Y-258524D01*
X3678Y-258602D01*
X3756Y-258837D01*
Y-259540D01*
Y-258993D02*
X4615Y-258446D01*
X2975Y-258079D02*
X4615D01*
X2975D02*
Y-257532D01*
X3053Y-257298D01*
X3209Y-257142D01*
X3365Y-257064D01*
X3599Y-256986D01*
X3990D01*
X4224Y-257064D01*
X4380Y-257142D01*
X4537Y-257298D01*
X4615Y-257532D01*
Y-258079D01*
X6292Y-262590D02*
Y-263605D01*
X7932D01*
Y-262590D01*
X7073Y-263605D02*
Y-262980D01*
X6292Y-262316D02*
X7932D01*
X6292D02*
Y-261770D01*
X6370Y-261535D01*
X6526Y-261379D01*
X6682Y-261301D01*
X6916Y-261223D01*
X7307D01*
X7541Y-261301D01*
X7697Y-261379D01*
X7854Y-261535D01*
X7932Y-261770D01*
Y-262316D01*
X6682Y-259684D02*
X6526Y-259762D01*
X6370Y-259918D01*
X6292Y-260075D01*
Y-260387D01*
X6370Y-260543D01*
X6526Y-260700D01*
X6682Y-260778D01*
X6916Y-260856D01*
X7307D01*
X7541Y-260778D01*
X7697Y-260700D01*
X7854Y-260543D01*
X7932Y-260387D01*
Y-260075D01*
X7854Y-259918D01*
X7697Y-259762D01*
X7541Y-259684D01*
X7307D01*
Y-260075D02*
Y-259684D01*
X6292Y-258294D02*
Y-259309D01*
X7932D01*
Y-258294D01*
X7073Y-259309D02*
Y-258684D01*
X2975Y-190250D02*
X4615D01*
X2975D02*
Y-189547D01*
X3053Y-189313D01*
X3131Y-189234D01*
X3287Y-189156D01*
X3443D01*
X3599Y-189234D01*
X3678Y-189313D01*
X3756Y-189547D01*
Y-190250D02*
Y-189547D01*
X3834Y-189313D01*
X3912Y-189234D01*
X4068Y-189156D01*
X4302D01*
X4459Y-189234D01*
X4537Y-189313D01*
X4615Y-189547D01*
Y-190250D01*
X2975Y-188321D02*
X3053Y-188477D01*
X3209Y-188633D01*
X3365Y-188711D01*
X3599Y-188789D01*
X3990D01*
X4224Y-188711D01*
X4380Y-188633D01*
X4537Y-188477D01*
X4615Y-188321D01*
Y-188008D01*
X4537Y-187852D01*
X4380Y-187696D01*
X4224Y-187618D01*
X3990Y-187540D01*
X3599D01*
X3365Y-187618D01*
X3209Y-187696D01*
X3053Y-187852D01*
X2975Y-188008D01*
Y-188321D01*
X4615Y-185907D02*
X2975Y-186532D01*
X4615Y-187157D01*
X4068Y-186923D02*
Y-186142D01*
X2975Y-185525D02*
X4615D01*
X2975D02*
Y-184822D01*
X3053Y-184587D01*
X3131Y-184509D01*
X3287Y-184431D01*
X3443D01*
X3599Y-184509D01*
X3678Y-184587D01*
X3756Y-184822D01*
Y-185525D01*
Y-184978D02*
X4615Y-184431D01*
X2975Y-184064D02*
X4615D01*
X2975D02*
Y-183517D01*
X3053Y-183283D01*
X3209Y-183127D01*
X3365Y-183049D01*
X3599Y-182971D01*
X3990D01*
X4224Y-183049D01*
X4380Y-183127D01*
X4537Y-183283D01*
X4615Y-183517D01*
Y-184064D01*
X6292Y-188575D02*
Y-189590D01*
X7932D01*
Y-188575D01*
X7073Y-189590D02*
Y-188965D01*
X6292Y-188301D02*
X7932D01*
X6292D02*
Y-187755D01*
X6370Y-187520D01*
X6526Y-187364D01*
X6682Y-187286D01*
X6916Y-187208D01*
X7307D01*
X7541Y-187286D01*
X7697Y-187364D01*
X7854Y-187520D01*
X7932Y-187755D01*
Y-188301D01*
X6682Y-185669D02*
X6526Y-185747D01*
X6370Y-185904D01*
X6292Y-186060D01*
Y-186372D01*
X6370Y-186528D01*
X6526Y-186685D01*
X6682Y-186763D01*
X6916Y-186841D01*
X7307D01*
X7541Y-186763D01*
X7697Y-186685D01*
X7854Y-186528D01*
X7932Y-186372D01*
Y-186060D01*
X7854Y-185904D01*
X7697Y-185747D01*
X7541Y-185669D01*
X7307D01*
Y-186060D02*
Y-185669D01*
X6292Y-184279D02*
Y-185294D01*
X7932D01*
Y-184279D01*
X7073Y-185294D02*
Y-184669D01*
X2975Y-215840D02*
X4615D01*
X2975D02*
Y-215137D01*
X3053Y-214902D01*
X3131Y-214824D01*
X3287Y-214746D01*
X3443D01*
X3599Y-214824D01*
X3678Y-214902D01*
X3756Y-215137D01*
Y-215840D02*
Y-215137D01*
X3834Y-214902D01*
X3912Y-214824D01*
X4068Y-214746D01*
X4302D01*
X4459Y-214824D01*
X4537Y-214902D01*
X4615Y-215137D01*
Y-215840D01*
X2975Y-213910D02*
X3053Y-214067D01*
X3209Y-214223D01*
X3365Y-214301D01*
X3599Y-214379D01*
X3990D01*
X4224Y-214301D01*
X4380Y-214223D01*
X4537Y-214067D01*
X4615Y-213910D01*
Y-213598D01*
X4537Y-213442D01*
X4380Y-213286D01*
X4224Y-213208D01*
X3990Y-213129D01*
X3599D01*
X3365Y-213208D01*
X3209Y-213286D01*
X3053Y-213442D01*
X2975Y-213598D01*
Y-213910D01*
X4615Y-211497D02*
X2975Y-212122D01*
X4615Y-212747D01*
X4068Y-212512D02*
Y-211731D01*
X2975Y-211114D02*
X4615D01*
X2975D02*
Y-210411D01*
X3053Y-210177D01*
X3131Y-210099D01*
X3287Y-210021D01*
X3443D01*
X3599Y-210099D01*
X3678Y-210177D01*
X3756Y-210411D01*
Y-211114D01*
Y-210568D02*
X4615Y-210021D01*
X2975Y-209654D02*
X4615D01*
X2975D02*
Y-209107D01*
X3053Y-208873D01*
X3209Y-208717D01*
X3365Y-208639D01*
X3599Y-208560D01*
X3990D01*
X4224Y-208639D01*
X4380Y-208717D01*
X4537Y-208873D01*
X4615Y-209107D01*
Y-209654D01*
X6292Y-214164D02*
Y-215180D01*
X7932D01*
Y-214164D01*
X7073Y-215180D02*
Y-214555D01*
X6292Y-213891D02*
X7932D01*
X6292D02*
Y-213344D01*
X6370Y-213110D01*
X6526Y-212954D01*
X6682Y-212876D01*
X6916Y-212798D01*
X7307D01*
X7541Y-212876D01*
X7697Y-212954D01*
X7854Y-213110D01*
X7932Y-213344D01*
Y-213891D01*
X6682Y-211259D02*
X6526Y-211337D01*
X6370Y-211493D01*
X6292Y-211649D01*
Y-211962D01*
X6370Y-212118D01*
X6526Y-212274D01*
X6682Y-212352D01*
X6916Y-212431D01*
X7307D01*
X7541Y-212352D01*
X7697Y-212274D01*
X7854Y-212118D01*
X7932Y-211962D01*
Y-211649D01*
X7854Y-211493D01*
X7697Y-211337D01*
X7541Y-211259D01*
X7307D01*
Y-211649D02*
Y-211259D01*
X6292Y-209869D02*
Y-210884D01*
X7932D01*
Y-209869D01*
X7073Y-210884D02*
Y-210259D01*
M02*
