G04*
G04 #@! TF.GenerationSoftware,Altium Limited,Altium Designer,21.5.1 (32)*
G04*
G04 Layer_Color=16711935*
%FSLAX25Y25*%
%MOIN*%
G70*
G04*
G04 #@! TF.SameCoordinates,54AFFEB1-3E94-4089-A03D-164D74B6EA14*
G04*
G04*
G04 #@! TF.FilePolarity,Negative*
G04*
G01*
G75*
%ADD19R,0.09252X0.08465*%
%ADD21R,0.05709X0.06496*%
%ADD24R,0.13976X0.06102*%
%ADD25R,0.06496X0.05709*%
%ADD27R,0.02953X0.08465*%
%ADD31R,0.08465X0.09252*%
%ADD48R,0.09252X0.09055*%
%ADD62R,0.13386X0.09055*%
%ADD63R,0.04331X0.09055*%
%ADD71C,0.07284*%
%ADD72R,0.07284X0.07284*%
G04:AMPARAMS|DCode=73|XSize=124.02mil|YSize=64.96mil|CornerRadius=17.72mil|HoleSize=0mil|Usage=FLASHONLY|Rotation=0.000|XOffset=0mil|YOffset=0mil|HoleType=Round|Shape=RoundedRectangle|*
%AMROUNDEDRECTD73*
21,1,0.12402,0.02953,0,0,0.0*
21,1,0.08858,0.06496,0,0,0.0*
1,1,0.03543,0.04429,-0.01476*
1,1,0.03543,-0.04429,-0.01476*
1,1,0.03543,-0.04429,0.01476*
1,1,0.03543,0.04429,0.01476*
%
%ADD73ROUNDEDRECTD73*%
G04:AMPARAMS|DCode=74|XSize=124.02mil|YSize=64.96mil|CornerRadius=17.72mil|HoleSize=0mil|Usage=FLASHONLY|Rotation=90.000|XOffset=0mil|YOffset=0mil|HoleType=Round|Shape=RoundedRectangle|*
%AMROUNDEDRECTD74*
21,1,0.12402,0.02953,0,0,90.0*
21,1,0.08858,0.06496,0,0,90.0*
1,1,0.03543,0.01476,0.04429*
1,1,0.03543,0.01476,-0.04429*
1,1,0.03543,-0.01476,-0.04429*
1,1,0.03543,-0.01476,0.04429*
%
%ADD74ROUNDEDRECTD74*%
%ADD75R,0.11221X0.11221*%
%ADD76C,0.04921*%
%ADD77C,0.06496*%
%ADD78R,0.06496X0.06496*%
%ADD79R,0.08465X0.08465*%
%ADD80C,0.08465*%
%ADD81C,0.11221*%
%ADD82R,0.16339X0.16339*%
%ADD83C,0.05391*%
%ADD84C,0.06890*%
%ADD85C,0.07677*%
%ADD86O,0.11614X0.06102*%
%ADD87O,0.06102X0.11614*%
%ADD88R,0.06496X0.06496*%
%ADD89C,0.10433*%
%ADD90C,0.10827*%
%ADD91C,0.04528*%
%ADD93C,0.12402*%
%ADD94C,0.16339*%
%ADD95C,0.14370*%
%ADD96C,0.20276*%
%ADD214R,0.11221X0.14764*%
%ADD215R,0.04921X0.07284*%
%ADD216R,0.12402X0.09252*%
%ADD217R,0.05709X0.01772*%
%ADD218R,0.04528X0.07480*%
%ADD219R,0.22441X0.25591*%
%ADD220R,0.04724X0.03150*%
%ADD221R,0.08465X0.02953*%
%ADD222R,0.05315X0.06496*%
%ADD223R,0.09055X0.09252*%
%ADD224R,0.32579X0.45866*%
D19*
X-645276Y-61024D02*
D03*
Y-49213D02*
D03*
X-701200Y-59455D02*
D03*
Y-47644D02*
D03*
X-573130Y-278150D02*
D03*
Y-289961D02*
D03*
D21*
X-176084Y-155118D02*
D03*
X-183564D02*
D03*
X-176084Y-147146D02*
D03*
X-183564D02*
D03*
X-45472Y-275394D02*
D03*
X-37992D02*
D03*
X-422440Y-193405D02*
D03*
X-414960D02*
D03*
X-596063Y-79528D02*
D03*
X-588583D02*
D03*
X-226772Y-44882D02*
D03*
X-219291D02*
D03*
X-541143Y-243307D02*
D03*
X-548623D02*
D03*
X-680117Y-127559D02*
D03*
X-672637D02*
D03*
X-706890Y-112599D02*
D03*
X-699409D02*
D03*
X-706889Y-104725D02*
D03*
X-699408D02*
D03*
X-174311Y-75591D02*
D03*
X-181791D02*
D03*
X-579527Y-34646D02*
D03*
X-587007D02*
D03*
X-542322Y-77559D02*
D03*
X-534841D02*
D03*
X-289467Y-144193D02*
D03*
X-296948D02*
D03*
X-656004Y-213091D02*
D03*
X-663484D02*
D03*
X-293701Y-101575D02*
D03*
X-301181D02*
D03*
X-269487Y-190453D02*
D03*
X-276967D02*
D03*
X-524311Y-137697D02*
D03*
X-516831D02*
D03*
X-540945Y-156102D02*
D03*
X-548425D02*
D03*
X-525885Y-129823D02*
D03*
X-533365D02*
D03*
X-495297Y-284327D02*
D03*
X-502777D02*
D03*
X-650001Y-212992D02*
D03*
X-642521D02*
D03*
X-625887Y-168110D02*
D03*
X-618407D02*
D03*
X-638387Y-126969D02*
D03*
X-630907D02*
D03*
X-104034Y-131791D02*
D03*
X-111515D02*
D03*
X-289784Y-31476D02*
D03*
X-297264D02*
D03*
X-316537Y-144488D02*
D03*
X-324018D02*
D03*
X-525885Y-121752D02*
D03*
X-533365D02*
D03*
X-525688Y-171555D02*
D03*
X-533168D02*
D03*
X-525688Y-179528D02*
D03*
X-533168D02*
D03*
X-618308Y-119390D02*
D03*
X-610828D02*
D03*
X-613681Y-142913D02*
D03*
X-621162D02*
D03*
X-447147Y-193405D02*
D03*
X-439667D02*
D03*
X-293898Y-279528D02*
D03*
X-301378D02*
D03*
D24*
X-109252Y-105512D02*
D03*
Y-121653D02*
D03*
D25*
X-269193Y-100789D02*
D03*
Y-108269D02*
D03*
X-652362Y-253641D02*
D03*
X-661811Y-226969D02*
D03*
Y-234449D02*
D03*
X-652362Y-246160D02*
D03*
X-643012Y-233168D02*
D03*
Y-225688D02*
D03*
X-635433Y-225886D02*
D03*
Y-233366D02*
D03*
X-633858Y-62794D02*
D03*
Y-55314D02*
D03*
X-543898Y-96064D02*
D03*
Y-103544D02*
D03*
X-452067Y-82874D02*
D03*
Y-90354D02*
D03*
X-143110Y-99114D02*
D03*
Y-91634D02*
D03*
X-143110Y-114470D02*
D03*
Y-121950D02*
D03*
X-579725Y-237205D02*
D03*
Y-229724D02*
D03*
X-571654Y-246259D02*
D03*
Y-238778D02*
D03*
X-562205Y-284054D02*
D03*
Y-276574D02*
D03*
X-699213Y-142322D02*
D03*
Y-134841D02*
D03*
Y-128150D02*
D03*
Y-120669D02*
D03*
X-714173Y-120274D02*
D03*
Y-112794D02*
D03*
X-194688Y-11617D02*
D03*
Y-19098D02*
D03*
X-501384Y-37607D02*
D03*
Y-45088D02*
D03*
X-521260Y-37993D02*
D03*
Y-45474D02*
D03*
X-520472Y-71458D02*
D03*
Y-78938D02*
D03*
X-546457Y-30117D02*
D03*
Y-22637D02*
D03*
X-689583Y-52362D02*
D03*
Y-59843D02*
D03*
X-662976Y-78328D02*
D03*
Y-70848D02*
D03*
X-401968Y-193109D02*
D03*
Y-200589D02*
D03*
X-496260Y-78739D02*
D03*
Y-86219D02*
D03*
X-660236Y-188978D02*
D03*
Y-181497D02*
D03*
X-114567Y-37794D02*
D03*
Y-45274D02*
D03*
X-134646Y-88092D02*
D03*
Y-80611D02*
D03*
X-297657Y-38563D02*
D03*
Y-46043D02*
D03*
X-237894Y-152459D02*
D03*
Y-159940D02*
D03*
X-225000Y-152263D02*
D03*
Y-159743D02*
D03*
X-346949Y-52165D02*
D03*
Y-59646D02*
D03*
X-274803Y-210433D02*
D03*
Y-217913D02*
D03*
X-561713Y-96357D02*
D03*
Y-103837D02*
D03*
X-585827Y-96456D02*
D03*
Y-103936D02*
D03*
X-598425Y-195080D02*
D03*
Y-187600D02*
D03*
X-652165Y-188780D02*
D03*
Y-181299D02*
D03*
X-644846Y-188784D02*
D03*
Y-181304D02*
D03*
X-254232Y-84448D02*
D03*
Y-91928D02*
D03*
X-236811Y-93997D02*
D03*
Y-86517D02*
D03*
X-244488Y-247244D02*
D03*
Y-239764D02*
D03*
X-293701Y-217913D02*
D03*
Y-210433D02*
D03*
X-532480Y-156004D02*
D03*
Y-148524D02*
D03*
X-524847Y-262281D02*
D03*
Y-254801D02*
D03*
X-615748Y-160434D02*
D03*
Y-152954D02*
D03*
X-106299Y-37794D02*
D03*
Y-45274D02*
D03*
X-122835Y-99606D02*
D03*
Y-92126D02*
D03*
X-271063Y-125000D02*
D03*
Y-132480D02*
D03*
X-551969Y-89467D02*
D03*
Y-96948D02*
D03*
X-543799Y-196163D02*
D03*
Y-188682D02*
D03*
X-552559Y-196261D02*
D03*
Y-188781D02*
D03*
X-577067Y-96357D02*
D03*
Y-103837D02*
D03*
X-563878Y-194194D02*
D03*
Y-186714D02*
D03*
X-584252Y-195080D02*
D03*
Y-187600D02*
D03*
X-604921Y-96357D02*
D03*
Y-103837D02*
D03*
X-122933Y-121852D02*
D03*
Y-114371D02*
D03*
X-229429Y-106791D02*
D03*
Y-114272D02*
D03*
X-277165Y-84054D02*
D03*
Y-91534D02*
D03*
X-639370Y-205512D02*
D03*
Y-198031D02*
D03*
X-667520Y-204921D02*
D03*
Y-197441D02*
D03*
D27*
X-102834Y-55354D02*
D03*
X-107835D02*
D03*
Y-80354D02*
D03*
X-102834D02*
D03*
X-92834Y-55354D02*
D03*
X-97835D02*
D03*
Y-80354D02*
D03*
X-92834D02*
D03*
X-122834Y-55354D02*
D03*
X-127835D02*
D03*
Y-80354D02*
D03*
X-122834D02*
D03*
X-112834Y-55354D02*
D03*
X-117835D02*
D03*
Y-80354D02*
D03*
X-112834D02*
D03*
D31*
X-548432Y-233271D02*
D03*
X-536621D02*
D03*
D48*
X-60630Y-136417D02*
D03*
X-77953D02*
D03*
X-59547Y-210335D02*
D03*
X-76870D02*
D03*
X-181791Y-63878D02*
D03*
X-164469D02*
D03*
X-183169Y-16929D02*
D03*
X-165847D02*
D03*
X-325000Y-80709D02*
D03*
X-342323D02*
D03*
X-60827Y-120669D02*
D03*
X-78150D02*
D03*
X-93405Y-218110D02*
D03*
X-110728D02*
D03*
X-59449Y-227264D02*
D03*
X-76772D02*
D03*
X-59744Y-160236D02*
D03*
X-77067D02*
D03*
D62*
X-543641Y-253150D02*
D03*
D63*
X-552696Y-275984D02*
D03*
X-543641D02*
D03*
X-534586D02*
D03*
D71*
X-215256Y-181988D02*
D03*
X-205256Y-181988D02*
D03*
X-84193Y-184902D02*
D03*
X-74193Y-184902D02*
D03*
X-202205Y-45512D02*
D03*
Y-35012D02*
D03*
X-192205Y-45512D02*
D03*
Y-35512D02*
D03*
X-182205Y-45512D02*
D03*
Y-35512D02*
D03*
X-172205Y-45512D02*
D03*
Y-35512D02*
D03*
X-162205Y-45512D02*
D03*
X-99823Y-91890D02*
D03*
X-79823D02*
D03*
X-89823D02*
D03*
X-397756Y-19823D02*
D03*
X-338071Y-97500D02*
D03*
X-279705Y-31555D02*
D03*
D72*
X-225256Y-181988D02*
D03*
X-407756Y-19823D02*
D03*
X-64193Y-184902D02*
D03*
X-162205Y-35512D02*
D03*
X-69823Y-91890D02*
D03*
X-328071Y-97500D02*
D03*
X-269705Y-31555D02*
D03*
D73*
X-170440Y-198819D02*
D03*
X-68734Y-297342D02*
D03*
Y-198819D02*
D03*
X-170440Y-297244D02*
D03*
D74*
X-52658Y-245128D02*
D03*
X-186516Y-245079D02*
D03*
D75*
X-82579Y-270650D02*
D03*
D76*
X-562169Y-25102D02*
D03*
X-568861D02*
D03*
D77*
X-379528Y-64350D02*
D03*
X-369685Y-74193D02*
D03*
D78*
X-359843Y-64350D02*
D03*
D79*
X-57680Y-9465D02*
D03*
D80*
Y-47457D02*
D03*
X-72540Y-6398D02*
D03*
X-127067D02*
D03*
D81*
X-82579Y-285650D02*
D03*
D82*
X-573622Y-147350D02*
D03*
D83*
X-276035Y-69488D02*
D03*
X-257035D02*
D03*
D84*
X-20866Y-43305D02*
D03*
Y-60628D02*
D03*
X-480320Y-254901D02*
D03*
X-470320D02*
D03*
X-500320Y-264900D02*
D03*
X-490320D02*
D03*
X-480320D02*
D03*
X-470320D02*
D03*
X-460320D02*
D03*
X-490320Y-254901D02*
D03*
X-500320D02*
D03*
X-293819Y-239567D02*
D03*
X-283819D02*
D03*
X-313819Y-249567D02*
D03*
X-303819D02*
D03*
X-293819D02*
D03*
X-283819D02*
D03*
X-273819D02*
D03*
X-303819Y-239567D02*
D03*
X-313819D02*
D03*
D85*
X-18307Y-81496D02*
D03*
X-8465D02*
D03*
X-37992Y-101181D02*
D03*
X-18307Y-120866D02*
D03*
X-8465D02*
D03*
X-18307Y-130118D02*
D03*
X-8465D02*
D03*
X-37992Y-149803D02*
D03*
X-18307Y-169488D02*
D03*
X-8465D02*
D03*
X-18307Y-227165D02*
D03*
X-8465D02*
D03*
X-37992Y-246850D02*
D03*
X-18307Y-266535D02*
D03*
X-8465D02*
D03*
X-18307Y-178740D02*
D03*
X-8465D02*
D03*
X-37992Y-198425D02*
D03*
X-18307Y-218110D02*
D03*
X-8465D02*
D03*
D86*
X-37992Y-81496D02*
D03*
Y-120866D02*
D03*
X-37821Y-111181D02*
D03*
Y-91181D02*
D03*
X-37992Y-130118D02*
D03*
Y-169488D02*
D03*
X-37821Y-159803D02*
D03*
Y-139803D02*
D03*
X-37992Y-227165D02*
D03*
Y-266535D02*
D03*
X-37821Y-256851D02*
D03*
Y-236851D02*
D03*
X-37992Y-178740D02*
D03*
Y-218110D02*
D03*
X-37821Y-208425D02*
D03*
Y-188425D02*
D03*
D87*
X-18307Y-101181D02*
D03*
Y-149803D02*
D03*
Y-246850D02*
D03*
Y-198425D02*
D03*
D88*
X-460320Y-254901D02*
D03*
X-273819Y-239567D02*
D03*
D89*
X-437008Y-50394D02*
D03*
X-692858Y-269548D02*
D03*
D90*
X-427008Y-40394D02*
D03*
Y-60394D02*
D03*
X-447008D02*
D03*
Y-40394D02*
D03*
X-702858Y-259548D02*
D03*
X-682858D02*
D03*
Y-279548D02*
D03*
X-702858D02*
D03*
D91*
X-698032Y-219685D02*
D03*
X-243898Y-9843D02*
D03*
X-252953Y-9941D02*
D03*
X-244181Y-34455D02*
D03*
X-252838D02*
D03*
X-652362Y-239764D02*
D03*
X-642913Y-265748D02*
D03*
X-661811D02*
D03*
X-642913Y-239764D02*
D03*
X-661811D02*
D03*
X-707480Y-245669D02*
D03*
X-688681Y-245768D02*
D03*
X-688583Y-219685D02*
D03*
X-707480D02*
D03*
X-466142Y-48819D02*
D03*
X-492126Y-58268D02*
D03*
X-466142Y-67717D02*
D03*
X-492126Y-48819D02*
D03*
Y-67717D02*
D03*
D93*
X-127422Y-259268D02*
D03*
D94*
X-517913Y-202953D02*
D03*
X-520374Y-102461D02*
D03*
X-303740Y-167224D02*
D03*
X-565158Y-57677D02*
D03*
X-214961Y-77854D02*
D03*
X-629232Y-91043D02*
D03*
X-609547Y-13091D02*
D03*
D95*
X-594685Y-223721D02*
D03*
D96*
X-11811Y-15748D02*
D03*
Y-287402D02*
D03*
X-724409Y-15748D02*
D03*
Y-287402D02*
D03*
D214*
X-602811Y-55709D02*
D03*
X-620311D02*
D03*
D215*
X-257874Y-116142D02*
D03*
X-268504D02*
D03*
D216*
X-379331Y-188189D02*
D03*
X-379095Y-86614D02*
D03*
D217*
X-372441Y-94095D02*
D03*
Y-96063D02*
D03*
Y-98032D02*
D03*
Y-100000D02*
D03*
Y-101969D02*
D03*
Y-103937D02*
D03*
Y-105906D02*
D03*
Y-107874D02*
D03*
Y-109843D02*
D03*
Y-111811D02*
D03*
Y-113780D02*
D03*
Y-115748D02*
D03*
Y-117717D02*
D03*
Y-119685D02*
D03*
Y-121654D02*
D03*
Y-123622D02*
D03*
Y-125591D02*
D03*
Y-127559D02*
D03*
Y-129528D02*
D03*
Y-131496D02*
D03*
Y-133465D02*
D03*
Y-135433D02*
D03*
Y-137402D02*
D03*
Y-139370D02*
D03*
Y-141339D02*
D03*
Y-143307D02*
D03*
Y-145276D02*
D03*
Y-147244D02*
D03*
Y-149213D02*
D03*
Y-151181D02*
D03*
Y-153150D02*
D03*
Y-155118D02*
D03*
Y-157087D02*
D03*
Y-159055D02*
D03*
Y-161024D02*
D03*
Y-162992D02*
D03*
Y-164961D02*
D03*
Y-166929D02*
D03*
Y-168898D02*
D03*
Y-170866D02*
D03*
Y-172835D02*
D03*
Y-174803D02*
D03*
Y-176772D02*
D03*
Y-178740D02*
D03*
Y-180709D02*
D03*
D218*
X-487027Y-87697D02*
D03*
X-469034D02*
D03*
X-409646Y-205315D02*
D03*
X-427638D02*
D03*
X-677008Y-59252D02*
D03*
X-659016D02*
D03*
D219*
X-478031Y-115650D02*
D03*
X-418642Y-233268D02*
D03*
X-668012Y-31299D02*
D03*
D220*
X-143985Y-18463D02*
D03*
X-134930Y-22203D02*
D03*
Y-14723D02*
D03*
D221*
X-308268Y-41339D02*
D03*
Y-36339D02*
D03*
Y-31339D02*
D03*
Y-26339D02*
D03*
X-345276D02*
D03*
Y-31339D02*
D03*
Y-36339D02*
D03*
Y-41339D02*
D03*
D222*
X-657496Y-127772D02*
D03*
Y-142732D02*
D03*
X-666157D02*
D03*
Y-127772D02*
D03*
D223*
X-56693Y-88484D02*
D03*
Y-105807D02*
D03*
D224*
X-668258Y-28937D02*
D03*
M02*
