M48
;Layer_Color=9474304
;FILE_FORMAT=2:4
INCH,TZ
;TYPE=PLATED
T1F00S00C0.0079
T2F00S00C0.0098
T3F00S00C0.0118
T4F00S00C0.0157
T5F00S00C0.0217
T6F00S00C0.0276
T8F00S00C0.0320
T9F00S00C0.0354
T10F00S00C0.0394
T11F00S00C0.0433
T12F00S00C0.0472
T13F00S00C0.0591
T14F00S00C0.0650
T15F00S00C0.0669
T16F00S00C0.0984
T17F00S00C0.1181
T18F00S00C0.1378
%
T01
X-37952Y-18052
X-51063Y-5748
T02
X-38937Y-19705
X-38189Y-17402
X-38169Y-17087
Y-16693
Y-16299
X-38189Y-15906
Y-15512
Y-15118
X-37894Y-14921
Y-15315
X-37933Y-15709
Y-16102
Y-16496
Y-16890
Y-17283
X-35748Y-17736
X-38268Y-13543
Y-13130
Y-12756
Y-12362
Y-11969
Y-11575
Y-11181
Y-10787
Y-10394
Y-10000
T03
X-13957Y-29793
X-13169
X-12382
X-11594
X-10807
X-8219Y-29734
X-8945Y-27792
X-9732
X-10913Y-27005
X-10373Y-26217
X-9921Y-25197
X-8848Y-24434
X-7756Y-23937
X-7766Y-25197
X-7067Y-25217
X-6308Y-25806
X-5768Y-26156
X-4606Y-26165
X-4614Y-25430
X-4320Y-24203
X-3039Y-23855
X-2252
X-1464
X-677
X-1071Y-24643
X-677Y-25430
X-1464
X-2252
X-3039
X-2645Y-24643
Y-23068
X-2252Y-22280
X-1464
Y-20705
X-677
X-1071Y-19918
X-677Y-19131
X-1464
X-2252
X-3039
X-2645Y-18343
X-3433
X-4220Y-18343
X-5541Y-18366
X-7746Y-19124
X-8551Y-19131
X-9338
X-8945Y-19918
X-9732
X-10519
X-10925Y-19163
X-12488Y-19131
X-13275
X-14063
X-13669Y-19918
X-12882
X-12094
X-13228Y-20699
X-14006Y-20709
X-13573Y-21496
X-11093Y-21093
X-10126Y-20705
X-9338
X-8551
X-8543Y-21417
X-8652Y-22530
X-10138Y-23110
X-11073Y-22530
X-6582Y-23068
X-5060
X-4614Y-22280
X-5008Y-21493
X-2645
X-2252Y-20705
X-3039
X-2645Y-19918
X-3039Y-22280
X-2645Y-26217
X-3039Y-27005
X-2645Y-27792
X-1858
X-2252Y-28580
X-3039
X-3826
X-4614
X-5401
X-5008Y-27792
X-5287Y-27082
X-4614Y-27005
X-4220Y-29367
X-3433
X-2645
X-5008
X-5010Y-29774
X-6673Y-27736
X-6988Y-21033
X-8110Y-19911
X-14279Y-25350
X-14850Y-25430
X-14833Y-26191
X-14813Y-23917
X-17037Y-23927
X-18012Y-23868
Y-24636
X-17579
X-17606Y-26217
X-18642Y-26575
X-18787Y-25430
X-18393Y-23068
X-18000Y-22280
X-17212
X-16425
X-16819Y-21493
X-17606
X-17212Y-20705
X-16425
X-16031Y-19918
X-15244
X-14456
X-14833Y-20709
X-14409Y-21486
X-14850Y-19131
X-15638
X-16425
X-17212
X-18000
X-18676Y-19242
X-19586Y-19119
X-19968Y-18343
X-19181
Y-19918
X-20040
X-21543
X-21149Y-19131
Y-20705
X-21937
X-22724
X-23512
X-24299
X-25086
X-25874
X-26267Y-21493
X-25874Y-22280
X-26661
X-26267Y-23068
X-25480
X-24693
X-25086Y-23855
X-25874
X-26661
X-27055Y-23068
X-26661Y-25430
X-25874
X-25086
X-24693Y-26217
X-25480
X-26267
X-27055
X-27842
X-28630
X-29811Y-25430
Y-28580
X-29023
X-28236
X-27449
X-26661
X-26267Y-29367
X-25480
X-24693
X-23905
X-23118
X-22330
X-21543
X-20756
X-18632Y-29793
Y-28238
X-16319Y-29793
X-15532
X-14744
X-23512Y-28580
X-24299
X-27055Y-29367
X-27842
X-28630
X-29417
X-28630Y-21493
X-28236Y-20705
X-24693Y-21493
X-23905
X-23118
X-22330
X-21543
X-20040
X-19181
X-19310Y-20705
X-18787
X-18000
X-18787Y-22280
X-17606Y-18343
X-16819
X-30598Y-20705
X-31386
X-32173
X-32960
X-33748
X-34535
X-35323
X-36110
X-35716Y-21493
X-34929
X-34141
X-33354
X-32567
X-31779
X-30992
X-31386Y-22280
X-32173
X-32960
X-33748
X-34535
X-35323
X-36110
X-37028Y-22303
Y-22648
Y-23012
Y-23366
Y-23730
Y-24094
Y-24459
X-37419
Y-24094
Y-23730
Y-23366
Y-23012
Y-22648
Y-22303
Y-21949
Y-21585
Y-21211
X-37811
Y-21585
Y-21949
Y-22303
Y-22648
Y-23012
Y-23366
Y-23730
Y-24094
Y-24459
X-38203
Y-24094
Y-23730
Y-23366
Y-23012
Y-22648
Y-22303
Y-21949
Y-21585
Y-21211
X-38594
Y-21585
Y-21949
Y-22303
Y-22648
Y-23012
Y-23366
Y-23730
Y-24094
Y-24459
X-38986
Y-24094
Y-23730
Y-23366
Y-23012
Y-22648
Y-22303
Y-21949
Y-21585
Y-21211
X-37028
Y-21585
Y-21949
X-35716Y-23068
X-34929
X-34141
X-33354
X-32567
X-31779
X-30992
X-32173Y-23855
X-32960
X-33748
X-34535
X-35305Y-23848
X-36110Y-23855
X-36897Y-25430
X-37685
X-38472
X-37291Y-26217
X-36504
X-34929
X-34141
X-33354
X-32567
X-31779
X-30992
X-30204
X-30598Y-25430
X-32173
X-32960
X-33748
X-34535
X-34141Y-24643
X-33354
X-32567
X-32173Y-28580
X-31386
X-30598
X-30204Y-29367
X-30992
X-31779
X-32567
X-33354
X-34141
X-34929
X-35716
X-36504
X-37291
X-38078
X-33748Y-28580
X-32960
X-35716Y-18343
X-36635
X-37175Y-18337
X-39653Y-18343
X-39696Y-19918
X-43307Y-19882
X-43590Y-18343
X-44378
X-42803
X-45165Y-19918
X-44771Y-20705
X-44378Y-21493
X-45165
X-44771Y-22280
X-44378Y-23068
X-45165
X-44771Y-23855
X-44378Y-24643
X-45165
X-44771Y-25430
X-44378Y-26217
X-45165
X-45559Y-27005
X-47527Y-26217
Y-24643
X-46740
X-46346Y-23855
X-45559
Y-22280
X-46346
X-46740Y-21493
X-47522Y-21504
X-47527Y-23068
X-46740
X-46346Y-20705
X-45559
X-48514Y-20541
X-49488Y-20561
X-49102Y-21522
X-48708Y-22280
X-49496
Y-23855
X-48708
X-49102Y-24643
X-50677
X-51464
X-52252
X-52627Y-23855
X-51858
X-51071
X-50677Y-23068
X-51464
X-52214Y-23108
X-52156Y-22264
X-51071Y-22280
Y-18916
X-51858
X-53433
X-53022Y-18445
X-53445Y-19833
X-53967Y-20226
X-54614Y-21493
X-56582Y-20705
X-57370
X-56976Y-19918
X-57165Y-22835
X-57190Y-23228
X-58819Y-23002
Y-21742
X-60079
Y-23002
X-59843Y-23415
X-60433Y-23425
X-60913Y-24643
X-58976Y-24724
X-58110Y-24173
X-57764Y-26217
X-56582Y-27005
X-55795
X-53039Y-26217
X-51464
X-50677
X-50283Y-26968
X-49496
X-49102Y-18343
X-47527
X-46740
X-59338Y-27792
X-60126
X-60519Y-27005
X-61701Y-27792
X-62488
X-65638
Y-29367
X-66425
X-67212
X-68000
X-68787
X-69575
X-70362
X-71149
X-70756Y-28580
X-71149Y-27792
X-71937
X-72724
X-72330Y-27005
X-71543
X-70756
X-71149Y-26217
X-71937
X-72724
X-72330Y-25430
X-71543
X-71937Y-24643
X-72724
X-72330Y-23855
X-71543
X-70756
X-69968
X-70748Y-23061
X-71937Y-23068
X-71705Y-22443
X-72933Y-22264
Y-23068
X-68787
X-68000
X-67606Y-22280
X-66819
X-67087Y-21220
X-68393Y-20705
X-68000Y-19918
X-69968Y-19131
X-71543
X-72330
X-71937Y-18343
X-71149
X-70756Y-20705
X-67606Y-23855
X-66819
X-66425Y-24643
X-67212
Y-26217
X-67606Y-27005
X-68393
X-69575Y-27792
X-69181Y-28580
X-67606
X-66819
X-65244Y-25430
X-63669
X-64063Y-24643
X-61585Y-23681
X-61307Y-23855
X-61890Y-23051
X-61811Y-22677
X-62008Y-22431
X-61752Y-22057
X-63275Y-21493
Y-19918
X-61307Y-19131
X-64882Y-21900
X-65217Y-21821
X-66425Y-16768
X-68000
Y-15194
X-64850
X-64045Y-15119
X-63465Y-15118
X-64063Y-13619
X-65638
X-66425
Y-12044
X-65638
X-66031Y-11257
X-66425Y-10469
X-66031Y-9682
X-65244
X-64456
X-64850Y-8894
X-65638
X-66425
X-67212
X-66819Y-8107
X-67212Y-7320
X-68000
X-68787
X-69575
X-69181Y-6532
X-70756
X-71543
X-72330
X-71937Y-5745
X-71149
X-70756Y-4957
X-71543
X-72330
X-71937Y-4170
X-71149
X-70362
X-69575
X-68787
X-69181Y-3383
X-69968
X-70756
X-71543
X-72330
X-71937Y-2595
X-71149
X-70362
X-69575
X-68787
X-64850
X-64063
X-63275
X-62488
X-61701
X-62490Y-3406
X-62146Y-4222
X-63297Y-4203
X-64063Y-4170
X-64850
X-64456Y-3383
X-63669
Y-4957
X-62882Y-6532
X-62488Y-7320
X-61701
X-61339Y-6752
X-62094Y-8107
X-62882
X-63669
X-64456
X-65244
X-64850Y-7320
X-64063
X-63275
X-65404Y-5699
X-71149Y-7320
X-71937
X-72724
X-72330Y-8107
X-71543
X-71937Y-8894
X-72724
X-71543Y-9682
X-70756
X-70362Y-8894
X-71149Y-10469
X-71937
X-72330Y-11257
X-71937Y-12044
X-71543Y-12831
X-70756
X-71149Y-13619
X-71937
X-71543Y-14406
X-72330
X-71937Y-15194
X-71149
X-71543Y-15981
X-72330
X-71937Y-16768
X-71149
X-70362
X-69575
X-72330Y-12831
X-72724Y-5745
Y-4170
Y-2595
X-61407Y-9646
X-59732Y-11257
X-59338Y-13619
X-58945Y-14406
Y-15981
X-56976Y-16768
X-55401
X-55795Y-15981
X-55401Y-15194
X-55008Y-14406
X-55795
X-55401Y-13619
X-54614
X-55008Y-12831
X-55795
X-57370
X-58157
X-56582Y-11257
X-54614Y-12044
X-53189Y-10463
X-50866
X-49890Y-10469
Y-7320
X-49463Y-7288
X-49166Y-7299
X-48875Y-7241
X-48813Y-6951
X-48687Y-6682
X-48391Y-6679
X-47605
X-47308
X-47013Y-6713
Y-7010
X-46893Y-7281
X-46596Y-7299
X-46302Y-7258
X-45953Y-7320
X-46088Y-7052
X-45879Y-6842
X-45669Y-6632
X-46236Y-6060
X-46151Y-5775
X-46058Y-5494
X-45851Y-5281
X-45641Y-5071
X-45953Y-4170
X-46740
X-47527
X-48315
X-48938Y-4370
X-49268Y-4355
X-48813Y-4639
Y-4936
X-48519Y-4975
X-48222
X-48012Y-5185
X-48013Y-5482
X-47591Y-5975
X-47294
X-46997
X-47134Y-4957
Y-3383
X-47921
X-48708
X-51071
X-52645
X-53433
X-53568Y-4955
X-53864Y-4968
X-52563Y-5129
X-52069Y-5083
X-52347Y-6423
X-52750
X-53033Y-6511
X-53309Y-6620
X-53606
X-54002Y-6308
X-52785Y-8169
X-50359Y-6298
X-50117Y-6470
X-49903Y-6676
X-49612Y-6734
Y-7031
X-49677Y-6217
X-49887Y-6007
X-50127Y-5734
X-49919Y-5522
X-49643Y-5412
X-49822Y-4922
X-47527Y-7320
X-46346Y-3383
X-45559
Y-11257
X-45953Y-15194
X-46740
X-47527
X-48315
X-47134Y-15981
X-46346
X-45559
X-45953Y-16768
X-46740
X-51071Y-15981
X-61132Y-4951
X-60913Y-4170
X-60912Y-3386
X-60913Y-2595
X-59823Y-3396
X-43984Y-3383
X-43197
X-42409
X-41622
X-41228Y-4170
X-41622Y-4957
X-42409
X-43006Y-4999
X-43054Y-5292
X-43217Y-5540
X-43470Y-5695
X-43765Y-5731
X-44048Y-5642
X-44267Y-5442
X-44312Y-4636
X-44078Y-4454
X-43546Y-4359
X-43278Y-4488
X-43085Y-4713
X-42015Y-5745
X-41228
X-41622Y-6532
X-39260
X-38472
X-38078Y-7320
X-38866
X-39653
Y-5745
X-38472Y-4957
X-38078Y-4170
X-37291
X-36504
X-36897Y-4957
X-36909Y-5925
X-34737Y-7320
X-34141
X-33354
X-32567
X-31779
X-30992
X-30226Y-7579
X-30598Y-6532
X-31386
X-32173
X-32960
X-33748
X-33354Y-5745
X-32785Y-4951
X-32173Y-4957
X-31386
X-30598
X-30204Y-5745
X-30992
X-31779
X-32173Y-3383
X-31779Y-2595
X-33354
X-35716
X-38866
X-39653
X-40047Y-3383
X-38472
X-38866Y-4170
X-38183Y-9504
X-37953Y-9301
X-37972Y-9803
Y-10197
Y-10582
Y-10984
Y-11378
X-37953Y-11772
Y-12165
Y-12559
Y-12953
Y-13346
X-37913Y-13740
X-38866Y-13619
X-39653
Y-12044
X-38866
X-39260Y-11257
X-38866Y-10469
X-35716
X-34929
X-34141
X-33354
X-32567
X-32173Y-9682
X-31386
X-30598
X-32960Y-11257
X-34535Y-9682
X-35323
X-34141Y-15194
X-42015Y-16768
X-42803
X-43197Y-17556
X-42409
X-45165Y-16768
Y-15194
Y-13619
Y-7320
X-44378
X-43590
X-43984Y-6532
X-45460Y-6422
X-45431Y-4861
X-45201Y-4674
X-29417Y-5745
X-28622Y-4970
X-27842Y-5745
X-28307Y-6506
X-27638Y-7549
X-29321Y-7579
X-29449Y-9567
X-27769Y-12476
X-27126Y-13740
X-26858Y-14125
X-26917Y-14686
X-27441Y-16260
X-27087Y-16693
X-21543Y-16768
X-21937Y-17556
X-19575
X-17559Y-16673
X-16486Y-16142
Y-15709
X-15638Y-15981
X-15244Y-15194
X-16031Y-16768
X-17259Y-11210
X-17606Y-10469
X-16819
X-16425Y-9682
X-15685Y-9635
X-15244Y-10469
Y-7320
X-16031
X-16819
X-18787Y-6532
X-19575
X-20748Y-6555
X-21937Y-6532
X-22579Y-5069
X-24033Y-4043
X-23905Y-2595
X-24693
X-25480
X-27451Y-2313
X-28268Y-2549
X-29744Y-2539
X-23118Y-2595
X-22330
X-21543
X-24537Y-6033
X-25480Y-10469
X-25392Y-12283
X-24299Y-11257
X-23512
Y-12831
X-22333Y-14715
X-19924Y-10469
X-18000Y-9682
X-15244Y-5745
X-14850Y-4957
X-12589Y-2598
X-11307Y-2595
X-9732
X-8945
X-8157
X-7370
X-7764Y-3383
X-9338
X-10126
X-9193Y-4823
X-6582Y-4170
X-5008
X-3433
X-2645
X-2252Y-3383
X-1858Y-2595
X-1071
Y-4170
X-677Y-4957
X-1464
X-2252
X-1071Y-5745
X-1858Y-7320
Y-8894
X-1071
X-677Y-9682
X-1071Y-10469
X-677Y-11257
X-1464
X-2252
X-3039
X-2645Y-10469
X-3039Y-9682
X-2645Y-8894
X-3039Y-8107
X-4220Y-7320
X-5008
Y-8894
X-4614Y-9682
X-5008Y-10469
X-5401Y-11257
X-6189
X-6976
X-7764
X-7370Y-10469
X-6582
X-8157
X-8945
X-8551Y-9682
X-7764
X-9338
X-10913
X-11701
X-11683Y-11703
X-11701Y-12831
X-9338
X-8551
X-3039
X-2645Y-12044
Y-13619
X-1858
X-1071
X-677Y-14406
X-1071Y-15194
X-677Y-15981
X-1464
X-2252
X-2645Y-15194
X-2252Y-14406
X-3039
X-4614
X-2645Y-16768
X-3039Y-17556
X-6189
X-7764
X-12488Y-15981
X-13669Y-13619
X-6976Y-6532
X-3826
Y-3383
X-3433Y-2595
X-2645
X-4220
X-3826Y-1808
X-3039
X-2252
X-2645Y-1020
X-3433
X-4220
X-5008
X-4614Y-1808
X-6976
X-7764
X-8551
X-9338
X-10126
X-11024Y-1821
X-11939Y-1821
X-14850Y-1808
X-17212
X-20362
X-21149
X-21937
X-22724
X-23512
X-24299
X-25086
X-25874
X-27449
X-28257
X-32173
X-32960
X-33748
X-34535
X-35323
X-37291Y-1020
X-38078
X-38866
X-39653
X-40441
X-41228
X-42015
X-42803
X-43590
X-44378
X-45165
X-44771Y-1808
X-43984
X-42409
X-41622
X-45559
X-46346
X-47134
X-47921
X-48708
X-49496
X-50283
X-51071
X-51858
X-52645
X-53433
X-54220
X-55008
X-55795
X-56582
X-57370
X-56976Y-1020
X-56189
X-55401
X-54614
X-53827
X-53039
X-52252
X-51464
X-50677
X-49890
X-49102
X-48315
X-47527
X-46740
X-45953
X-57764
X-58551
X-59338
X-62488
X-63275
X-64063
X-64850
X-64456Y-1808
X-63669
X-62882
X-62094
X-69181
X-68787Y-1020
X-69575
X-70362
X-71149
X-70756Y-1808
T04
X-13406Y-28317
X-13957Y-26988
X-14272Y-23947
X-11644Y-23878
X-11024
X-11649Y-25039
X-12106Y-21319
X-11139Y-20170
X-10167Y-28829
X-9911
X-4528Y-24685
X-14468Y-24764
X-15930Y-25866
Y-26368
Y-26824
X-17129Y-25620
X-19695Y-25443
Y-24921
Y-24400
Y-23878
Y-23356
X-19695Y-22835
X-20233Y-22835
Y-23356
Y-23878
Y-24400
Y-24921
Y-25443
Y-25965
X-20772
Y-25443
Y-24921
Y-24400
Y-23878
Y-23356
Y-22835
X-21310
Y-23356
Y-23878
Y-24400
Y-24921
Y-25443
Y-25965
X-21849
Y-25443
Y-24921
Y-24400
Y-23878
Y-23356
Y-22835
X-22388
Y-23356
Y-23878
Y-24400
Y-24921
Y-25443
Y-25965
X-22926
Y-25443
Y-24921
Y-24400
Y-23878
Y-23356
Y-22835
X-23465Y-22835
Y-23356
Y-23878
Y-24400
Y-24921
Y-25443
Y-25965
X-24409Y-25276
X-24258Y-21480
X-24961Y-20207
X-24456Y-19650
X-23851Y-19162
X-25356Y-17874
X-27775Y-17899
X-28553Y-17844
X-27382Y-20165
X-19980Y-19134
X-18622Y-20079
X-18661Y-21496
X-19695Y-25965
X-14970Y-18287
X-40994Y-18474
X-41299Y-18780
X-42289Y-18342
X-41972Y-28113
X-41663Y-27835
X-43346Y-27638
X-38967Y-27923
Y-28268
X-37963Y-28071
Y-27728
X-39859Y-28826
X-47047Y-27333
X-47411
X-47776
X-49176Y-23079
X-52992Y-22913
X-54528Y-22480
X-54291Y-22244
X-56476Y-21476
X-57136Y-21870
X-57402Y-19528
X-57874Y-19843
X-57992Y-18110
X-58430Y-17807
X-59346
X-59764Y-18189
X-56388Y-17864
X-55719Y-17904
X-54385Y-18163
X-53976Y-17874
X-52727Y-18857
X-48782Y-19298
X-49145Y-17831
X-56220Y-20079
X-57215Y-27087
X-60079Y-26614
X-63110Y-26890
X-63150Y-26220
X-63110Y-25551
X-63032Y-24843
X-62953Y-24252
X-62352Y-23789
Y-23465
X-62913Y-23110
X-62953Y-22559
X-62756Y-21654
X-62677Y-21024
Y-20472
X-63240Y-20382
X-63268Y-19528
X-64567Y-19449
X-65148Y-19291
X-65020Y-20217
X-65532
Y-20728
X-65020
X-65669Y-22175
X-67244Y-23386
X-67477Y-20311
X-66030Y-19495
X-63888Y-18130
X-63406Y-18012
X-72874Y-24035
X-72323Y-17559
X-71614
X-70945
X-69961
X-69331
X-68307
X-67441
X-66811
X-66339
X-65748
X-65157
X-64277Y-15788
X-63711Y-16004
X-62665Y-15864
X-62559Y-14882
X-62441Y-12717
X-62264Y-10650
X-62697Y-10669
X-65249Y-11741
X-64961Y-12402
X-67216Y-12044
X-68976Y-13445
X-66535Y-14803
X-70748Y-16378
X-69921Y-9921
X-70098Y-8002
X-70480Y-7999
X-67992Y-4803
X-66791
X-65591
Y-3568
X-66791
X-67992
Y-2333
X-66791Y-2333
X-65591
X-58712Y-4094
X-57795Y-4488
Y-4915
Y-5341
Y-5768
Y-6194
Y-6621
Y-7047
X-57369
X-56942
X-56516
X-56089
X-55663
Y-6621
Y-6194
X-55236
Y-6621
Y-7047
X-55512Y-8027
X-54252Y-8425
X-53917Y-6791
X-54173Y-5157
X-54213Y-4606
X-55236Y-4488
X-55236Y-4915
Y-5341
Y-5768
X-55663Y-5341
Y-4915
X-56089
Y-4488
X-56516
X-56942
X-57369
Y-4915
Y-5341
Y-6194
Y-6621
X-56942
X-56089
X-56942Y-4915
X-55663Y-4488
X-54646Y-3858
X-51506Y-4409
X-50965Y-4454
X-50354Y-5079
X-50984Y-7047
X-50630Y-7638
X-51693Y-6555
X-53701Y-10315
X-54016Y-11142
X-54134Y-11811
Y-12638
X-54055Y-13307
X-54441Y-14264
X-54055Y-15029
X-54870Y-16206
X-54951Y-17352
X-55295
X-53996Y-17254
X-52525Y-16576
X-50670Y-16419
X-50827Y-15551
X-50994Y-14675
X-50561Y-14291
X-51063Y-13524
X-48740Y-15374
X-49478Y-16891
X-56336Y-16490
X-57323Y-17352
X-58583Y-16457
X-59134Y-15669
X-60551Y-15827
X-60394Y-16299
X-60236Y-16772
X-61142Y-16831
X-61024Y-17795
X-60906Y-15315
Y-14803
X-60394Y-14252
X-60315Y-13780
X-60394Y-13228
X-60945Y-13150
X-60509Y-12047
Y-11060
X-61063Y-11378
X-59149Y-11261
X-58583Y-11102
X-57769Y-11263
X-56015
X-55407Y-11086
X-55394Y-11969
X-56792Y-12569
X-58790Y-12544
X-59220Y-14163
X-55729Y-14062
X-57992Y-7992
X-59134Y-5866
X-59252Y-4882
X-45210Y-10262
X-45492Y-14075
X-39252Y-13130
X-39567Y-11437
X-39449Y-17638
X-39872Y-17648
X-33937Y-15551
X-31067Y-14355
X-30581Y-13691
X-30266Y-13386
X-30906Y-13110
X-30880Y-11977
X-30315Y-12283
X-29961Y-12638
X-32732Y-5731
X-34368Y-4587
X-34993Y-2534
X-30785Y-2237
X-29006Y-2559
X-22717Y-2323
X-22313Y-6545
X-23465Y-6850
X-23819Y-7520
X-24409Y-7087
X-24857Y-7854
X-24498Y-8263
X-24307Y-9976
X-23661Y-10000
X-23486Y-10686
X-24134Y-10669
X-25147Y-11025
X-25428Y-9958
X-26181Y-10098
X-27717Y-10197
X-28169Y-11112
X-27372Y-11614
X-28110Y-13032
Y-13543
X-28061Y-14051
X-28268Y-14528
X-27638Y-14646
X-25332Y-14638
X-25408Y-13779
X-24882Y-13465
X-26087Y-13597
X-23701Y-13307
X-23661Y-14055
X-23622Y-14567
X-24106Y-14554
X-23129Y-14796
X-22205Y-13661
X-21811Y-13071
X-21992Y-12504
X-20866Y-12362
Y-13386
X-20634Y-15789
X-18234Y-16266
X-18365Y-13678
X-15709Y-13768
X-15230Y-13620
X-15555Y-14248
X-15955Y-15020
X-15965Y-15591
X-14414Y-16473
X-15728Y-6398
X-19404Y-7307
X-19911Y-6978
X-25197Y-6102
X-26929Y-7241
X-26949Y-7904
X-29843Y-11260
X-29528Y-11654
X-24388Y-11786
X-25669Y-16063
X-26536Y-16102
X-26575Y-16614
X-28228Y-16772
X-29016Y-16732
X-24922Y-17478
X-14508Y-2333
X-13809Y-3878
X-13770Y-4616
X-11570Y-8878
X-13515Y-11161
Y-12458
X-12992Y-13829
X-12303Y-13809
X-9423Y-13423
X-6870Y-17362
X-4665Y-11063
X-4589Y-3237
X-6742Y-3041
X-15827Y-1575
X-43225Y-1626
X-70000Y-1693
T05
X-56886Y-2510
X-56217
T06
X-70748Y-24567
X-68868Y-24577
X-68858Y-21969
X-69803
X-70748
X-66181Y-23976
X-65236
X-64291
Y-26575
X-66181
X-49213Y-6772
Y-5827
Y-4882
X-46614
Y-6772
X-25284Y-3446
X-24418
X-24390Y-984
X-25295Y-994
T08
X-27604Y-6949
X-25704
T09
X-37953Y-6435
X-36969Y-7419
X-35984Y-6435
X-2087Y-6063
Y-4331
T10
X-29382Y-24957
Y-23957
X-28382
X-27382
Y-24957
X-28382
X-30382
X-31382
Y-23957
X-30382
X-46032Y-25490
X-47032
X-48032
Y-26490
X-49032
X-50032
Y-25490
X-49032
X-47032Y-26490
X-46032
T11
X-8419Y-18490
X-7419Y-18490
X-6419
X-20526Y-18199
X-21526Y-18199
X-22526
X-32807Y-9750
X-33807
X-27970Y-3156
X-26970
X-20220Y-3501
Y-4551
X-19220
Y-3551
X-18220
Y-4551
X-17220
Y-3551
X-16220
Y-4551
X-5768Y-4746
X-6982Y-9189
X-7982
X-8982
X-9982
X-5768Y-946
X-39776Y-1982
X-40776
T12
X-3799Y-24685
X-1831Y-22717
Y-21811
X-846
Y-22717
Y-26654
X-1831
Y-17874
X-846
X-3799Y-19843
Y-14980
X-1831Y-13012
Y-12087
X-846
Y-13012
Y-16949
X-1831
Y-8150
X-846
X-3799Y-10118
T13
X-12707Y-640
X-7254
T14
X-8258Y-28565
Y-27065
T15
X-70286Y-27955
X-69286Y-26955
X-70286Y-25955
X-68286
Y-27955
X-44701Y-6039
X-43701Y-5039
X-42701Y-4039
Y-6039
X-44701Y-4039
T16
X-12742Y-25927
T17
X-1181Y-28740
X-51791Y-20295
X-59469Y-22372
X-72441Y-28740
X-62923Y-9104
X-52037Y-10246
X-30374Y-16722
X-21496Y-7785
X-1181Y-1575
X-60955Y-1309
X-72441Y-1575
T18
X-57362Y-14735
X-56516Y-5768
M30
