G04*
G04 #@! TF.GenerationSoftware,Altium Limited,Altium Designer,21.5.1 (32)*
G04*
G04 Layer_Color=32768*
%FSLAX25Y25*%
%MOIN*%
G70*
G04*
G04 #@! TF.SameCoordinates,8E4C272A-96D0-452E-A51F-A0FD0E07019D*
G04*
G04*
G04 #@! TF.FilePolarity,Positive*
G04*
G01*
G75*
%ADD16C,0.00394*%
%ADD226C,0.00197*%
%ADD227C,0.00004*%
%ADD228C,0.00600*%
%ADD229C,0.00300*%
D16*
X-263189Y-118110D02*
Y-114173D01*
X-265158Y-116142D02*
X-261221D01*
X-271063Y-119882D02*
X-255315D01*
X-271063Y-112402D02*
X-255315D01*
X-271063Y-119882D02*
Y-112402D01*
X-255315Y-119882D02*
Y-112402D01*
X-400984Y-195669D02*
Y-79134D01*
X-365945D01*
Y-195669D02*
Y-79134D01*
X-400984Y-195669D02*
X-365945D01*
X-512599Y-57480D02*
X-508662D01*
X-510630Y-59449D02*
Y-55512D01*
X-670488Y-147654D02*
Y-120685D01*
Y-147654D02*
X-653165D01*
Y-120685D01*
X-670488D02*
X-653165D01*
X-386713Y-58465D02*
Y-11220D01*
Y-58465D02*
X-353248D01*
Y-11220D01*
X-386713D02*
X-353248D01*
X-574964Y-16243D02*
X-556066D01*
X-574964Y-33960D02*
Y-16243D01*
Y-33960D02*
X-556066D01*
Y-16243D01*
D226*
X-476653Y-106201D02*
X-476975Y-105315D01*
X-477791Y-104844D01*
X-478720Y-105008D01*
X-479325Y-105729D01*
Y-106672D01*
X-478720Y-107394D01*
X-477791Y-107558D01*
X-476975Y-107087D01*
X-476653Y-106201D01*
X-417264Y-223819D02*
X-417586Y-222933D01*
X-418403Y-222462D01*
X-419331Y-222626D01*
X-419937Y-223348D01*
Y-224290D01*
X-419331Y-225012D01*
X-418403Y-225176D01*
X-417586Y-224705D01*
X-417264Y-223819D01*
X-666634Y-40748D02*
X-666956Y-39862D01*
X-667773Y-39391D01*
X-668701Y-39555D01*
X-669307Y-40277D01*
Y-41219D01*
X-668701Y-41941D01*
X-667773Y-42105D01*
X-666956Y-41634D01*
X-666634Y-40748D01*
X-463660Y-129232D02*
Y-83169D01*
X-492401Y-129232D02*
X-463660D01*
X-492401D02*
Y-83169D01*
X-463660D01*
X-479999Y-106201D02*
X-476062D01*
X-478031Y-108169D02*
Y-104232D01*
X-418642Y-225787D02*
Y-221850D01*
X-420610Y-223819D02*
X-416673D01*
X-433012Y-200787D02*
X-404272D01*
X-433012Y-246850D02*
Y-200787D01*
Y-246850D02*
X-404272D01*
Y-200787D01*
X-663091Y-194390D02*
X-642421D01*
Y-215059D02*
Y-194390D01*
X-663091Y-215059D02*
X-642421D01*
X-663091D02*
Y-194390D01*
X-519095Y-65945D02*
Y-49016D01*
X-502165Y-65945D02*
Y-49016D01*
X-519095Y-65945D02*
X-502165D01*
X-519095Y-49016D02*
X-502165D01*
X-668012Y-42717D02*
Y-38780D01*
X-669980Y-40748D02*
X-666043D01*
X-682382Y-63780D02*
X-653642D01*
Y-17717D01*
X-682382D02*
X-653642D01*
X-682382Y-63780D02*
Y-17717D01*
X-371358Y-139665D02*
Y-122146D01*
Y-139665D02*
X-343406D01*
Y-122146D01*
X-371358D02*
X-343406D01*
X-371358Y-124409D02*
Y-106890D01*
Y-124409D02*
X-343406D01*
Y-106890D01*
X-371358D02*
X-343406D01*
X-573917Y-244193D02*
Y-203051D01*
X-615059Y-244193D02*
X-573917D01*
X-615059D02*
Y-203051D01*
X-573917D01*
X-83268Y-127657D02*
X-55315D01*
X-83268Y-145177D02*
Y-127657D01*
Y-145177D02*
X-55315D01*
Y-127657D01*
X-125591Y-75099D02*
X-78937D01*
X-125591D02*
Y-31791D01*
X-78937D01*
Y-75099D02*
Y-31791D01*
X-82185Y-201575D02*
X-54232D01*
X-82185Y-219094D02*
Y-201575D01*
Y-219094D02*
X-54232D01*
Y-201575D01*
X-187106Y-72638D02*
X-159154D01*
Y-55118D01*
X-187106D02*
X-159154D01*
X-187106Y-72638D02*
Y-55118D01*
X-188484Y-25689D02*
X-160532D01*
Y-8169D01*
X-188484D02*
X-160532D01*
X-188484Y-25689D02*
Y-8169D01*
X-347638Y-71949D02*
X-319685D01*
X-347638Y-89469D02*
Y-71949D01*
Y-89469D02*
X-319685D01*
Y-71949D01*
X-83465Y-111909D02*
X-55512D01*
X-83465Y-129429D02*
Y-111909D01*
Y-129429D02*
X-55512D01*
Y-111909D01*
X-116043Y-209350D02*
X-88090D01*
X-116043Y-226870D02*
Y-209350D01*
Y-226870D02*
X-88090D01*
Y-209350D01*
X-82087Y-218504D02*
X-54134D01*
X-82087Y-236024D02*
Y-218504D01*
Y-236024D02*
X-54134D01*
Y-218504D01*
X-82382Y-151476D02*
X-54429D01*
X-82382Y-168996D02*
Y-151476D01*
Y-168996D02*
X-54429D01*
Y-151476D01*
X-65453Y-111122D02*
Y-83169D01*
Y-111122D02*
X-47933D01*
Y-83169D01*
X-65453D02*
X-47933D01*
D227*
X-464782Y-122492D02*
Y-98004D01*
X-491279Y-122492D02*
X-464782D01*
X-491279D02*
Y-98004D01*
X-464782D01*
X-431890Y-215622D02*
X-405394D01*
X-431890Y-240110D02*
Y-215622D01*
Y-240110D02*
X-405394D01*
Y-215622D01*
X-681260Y-48945D02*
X-654764D01*
Y-24457D01*
X-681260D02*
X-654764D01*
X-681260Y-48945D02*
Y-24457D01*
D228*
X-538603Y-185266D02*
X-535403D01*
Y-182066D01*
X-614203Y-185266D02*
Y-182066D01*
Y-185266D02*
X-611003D01*
X-614203Y-106466D02*
X-611003D01*
X-614203Y-109666D02*
Y-106466D01*
X-539403Y-184166D02*
X-536503Y-181266D01*
X-535403Y-109666D02*
Y-106466D01*
X-538603D02*
X-535403D01*
X-528103Y-163366D02*
Y-161866D01*
X-529103D02*
X-528103D01*
X-529103Y-163366D02*
Y-161866D01*
Y-163366D02*
X-528103D01*
Y-143666D02*
Y-142166D01*
X-529103D02*
X-528103D01*
X-529103Y-143666D02*
Y-142166D01*
Y-143666D02*
X-528103D01*
Y-123966D02*
Y-122466D01*
X-529103D02*
X-528103D01*
X-529103Y-123966D02*
Y-122466D01*
Y-123966D02*
X-528103D01*
X-545503Y-100166D02*
Y-99166D01*
X-547003D02*
X-545503D01*
X-547003Y-100166D02*
Y-99166D01*
Y-100166D02*
X-545503D01*
X-565203D02*
Y-99166D01*
X-566703D02*
X-565203D01*
X-566703Y-100166D02*
Y-99166D01*
Y-100166D02*
X-565203D01*
X-584903D02*
Y-99166D01*
X-586403D02*
X-584903D01*
X-586403Y-100166D02*
Y-99166D01*
Y-100166D02*
X-584903D01*
X-604603D02*
Y-99166D01*
X-606103D02*
X-604603D01*
X-606103Y-100166D02*
Y-99166D01*
Y-100166D02*
X-604603D01*
X-621503Y-125966D02*
Y-124466D01*
X-620503D01*
Y-125966D02*
Y-124466D01*
X-621503Y-125966D02*
X-620503D01*
X-621503Y-145666D02*
Y-144166D01*
X-620503D01*
Y-145666D02*
Y-144166D01*
X-621503Y-145666D02*
X-620503D01*
X-621503Y-165366D02*
Y-163866D01*
X-620503D01*
Y-165366D02*
Y-163866D01*
X-621503Y-165366D02*
X-620503D01*
X-606503Y-192566D02*
Y-191566D01*
X-608003Y-192566D02*
X-606503D01*
X-608003D02*
Y-191566D01*
X-606503D01*
X-586803Y-192566D02*
Y-191566D01*
X-588303Y-192566D02*
X-586803D01*
X-588303D02*
Y-191566D01*
X-586803D01*
X-567203Y-192566D02*
Y-191566D01*
X-568703Y-192566D02*
X-567203D01*
X-568703D02*
Y-191566D01*
X-567203D01*
X-547503Y-192566D02*
Y-191566D01*
X-549003Y-192566D02*
X-547503D01*
X-549003D02*
Y-191566D01*
X-547503D01*
X-609703Y-185266D02*
X-608703D01*
X-609703Y-189166D02*
Y-185266D01*
Y-189166D02*
X-608703D01*
Y-185266D01*
X-607803D02*
X-606803D01*
X-607803Y-189166D02*
Y-185266D01*
Y-189166D02*
X-606803D01*
Y-185266D01*
X-605803D02*
X-604803D01*
X-605803Y-189166D02*
Y-185266D01*
Y-189166D02*
X-604803D01*
Y-185266D01*
X-603803D02*
X-602803D01*
X-603803Y-189166D02*
Y-185266D01*
Y-189166D02*
X-602803D01*
Y-185266D01*
X-601903D02*
X-600903D01*
X-601903Y-189166D02*
Y-185266D01*
Y-189166D02*
X-600903D01*
Y-185266D01*
X-599903D02*
X-598903D01*
X-599903Y-189166D02*
Y-185266D01*
Y-189166D02*
X-598903D01*
Y-185266D01*
X-597903D02*
X-596903D01*
X-597903Y-189166D02*
Y-185266D01*
Y-189166D02*
X-596903D01*
Y-185266D01*
X-596003D02*
X-595003D01*
X-596003Y-189166D02*
Y-185266D01*
Y-189166D02*
X-595003D01*
Y-185266D01*
X-594003D02*
X-593003D01*
X-594003Y-189166D02*
Y-185266D01*
Y-189166D02*
X-593003D01*
Y-185266D01*
X-592003D02*
X-591003D01*
X-592003Y-189166D02*
Y-185266D01*
Y-189166D02*
X-591003D01*
Y-185266D01*
X-590103D02*
X-589103D01*
X-590103Y-189166D02*
Y-185266D01*
Y-189166D02*
X-589103D01*
Y-185266D01*
X-588103D02*
X-587103D01*
X-588103Y-189166D02*
Y-185266D01*
Y-189166D02*
X-587103D01*
Y-185266D01*
X-586103D02*
X-585103D01*
X-586103Y-189166D02*
Y-185266D01*
Y-189166D02*
X-585103D01*
Y-185266D01*
X-584203D02*
X-583203D01*
X-584203Y-189166D02*
Y-185266D01*
Y-189166D02*
X-583203D01*
Y-185266D01*
X-582203D02*
X-581203D01*
X-582203Y-189166D02*
Y-185266D01*
Y-189166D02*
X-581203D01*
Y-185266D01*
X-580203D02*
X-579203D01*
X-580203Y-189166D02*
Y-185266D01*
Y-189166D02*
X-579203D01*
Y-185266D01*
X-578303D02*
X-577303D01*
X-578303Y-189166D02*
Y-185266D01*
Y-189166D02*
X-577303D01*
Y-185266D01*
X-576303D02*
X-575303D01*
X-576303Y-189166D02*
Y-185266D01*
Y-189166D02*
X-575303D01*
Y-185266D01*
X-574303D02*
X-573303D01*
X-574303Y-189166D02*
Y-185266D01*
Y-189166D02*
X-573303D01*
Y-185266D01*
X-572303D02*
X-571303D01*
X-572303Y-189166D02*
Y-185266D01*
Y-189166D02*
X-571303D01*
Y-185266D01*
X-570403D02*
X-569403D01*
X-570403Y-189166D02*
Y-185266D01*
Y-189166D02*
X-569403D01*
Y-185266D01*
X-568403D02*
X-567403D01*
X-568403Y-189166D02*
Y-185266D01*
Y-189166D02*
X-567403D01*
Y-185266D01*
X-566403D02*
X-565403D01*
X-566403Y-189166D02*
Y-185266D01*
Y-189166D02*
X-565403D01*
Y-185266D01*
X-564503D02*
X-563503D01*
X-564503Y-189166D02*
Y-185266D01*
Y-189166D02*
X-563503D01*
Y-185266D01*
X-562503D02*
X-561503D01*
X-562503Y-189166D02*
Y-185266D01*
Y-189166D02*
X-561503D01*
Y-185266D01*
X-560503D02*
X-559503D01*
X-560503Y-189166D02*
Y-185266D01*
Y-189166D02*
X-559503D01*
Y-185266D01*
X-558603D02*
X-557603D01*
X-558603Y-189166D02*
Y-185266D01*
Y-189166D02*
X-557603D01*
Y-185266D01*
X-556603D02*
X-555603D01*
X-556603Y-189166D02*
Y-185266D01*
Y-189166D02*
X-555603D01*
Y-185266D01*
X-554603D02*
X-553603D01*
X-554603Y-189166D02*
Y-185266D01*
Y-189166D02*
X-553603D01*
Y-185266D01*
X-552703D02*
X-551703D01*
X-552703Y-189166D02*
Y-185266D01*
Y-189166D02*
X-551703D01*
Y-185266D01*
X-550703D02*
X-549703D01*
X-550703Y-189166D02*
Y-185266D01*
Y-189166D02*
X-549703D01*
Y-185266D01*
X-548703D02*
X-547703D01*
X-548703Y-189166D02*
Y-185266D01*
Y-189166D02*
X-547703D01*
Y-185266D01*
X-546803D02*
X-545803D01*
X-546803Y-189166D02*
Y-185266D01*
Y-189166D02*
X-545803D01*
Y-185266D01*
X-544803D02*
X-543803D01*
X-544803Y-189166D02*
Y-185266D01*
Y-189166D02*
X-543803D01*
Y-185266D01*
X-542803D02*
X-541803D01*
X-542803Y-189166D02*
Y-185266D01*
Y-189166D02*
X-541803D01*
Y-185266D01*
X-540403D02*
X-539903D01*
X-540903D02*
X-540403D01*
X-540903Y-189166D02*
Y-185266D01*
Y-189166D02*
X-539903D01*
Y-185266D01*
X-535403Y-180266D02*
Y-179766D01*
Y-180766D02*
Y-180266D01*
Y-180766D02*
X-531503D01*
Y-179766D01*
X-535403D02*
X-531503D01*
X-535403Y-178866D02*
Y-177866D01*
Y-178866D02*
X-531503D01*
Y-177866D01*
X-535403D02*
X-531503D01*
X-535403Y-176866D02*
Y-175866D01*
Y-176866D02*
X-531503D01*
Y-175866D01*
X-535403D02*
X-531503D01*
X-535403Y-174866D02*
Y-173866D01*
Y-174866D02*
X-531503D01*
Y-173866D01*
X-535403D02*
X-531503D01*
X-535403Y-172966D02*
Y-171966D01*
Y-172966D02*
X-531503D01*
Y-171966D01*
X-535403D02*
X-531503D01*
X-535403Y-170966D02*
Y-169966D01*
Y-170966D02*
X-531503D01*
Y-169966D01*
X-535403D02*
X-531503D01*
X-535403Y-168966D02*
Y-167966D01*
Y-168966D02*
X-531503D01*
Y-167966D01*
X-535403D02*
X-531503D01*
X-535403Y-167066D02*
Y-166066D01*
Y-167066D02*
X-531503D01*
Y-166066D01*
X-535403D02*
X-531503D01*
X-535403Y-165066D02*
Y-164066D01*
Y-165066D02*
X-531503D01*
Y-164066D01*
X-535403D02*
X-531503D01*
X-535403Y-163066D02*
Y-162066D01*
Y-163066D02*
X-531503D01*
Y-162066D01*
X-535403D02*
X-531503D01*
X-535403Y-161166D02*
Y-160166D01*
Y-161166D02*
X-531503D01*
Y-160166D01*
X-535403D02*
X-531503D01*
X-535403Y-159166D02*
Y-158166D01*
Y-159166D02*
X-531503D01*
Y-158166D01*
X-535403D02*
X-531503D01*
X-535403Y-157166D02*
Y-156166D01*
Y-157166D02*
X-531503D01*
Y-156166D01*
X-535403D02*
X-531503D01*
X-535403Y-155266D02*
Y-154266D01*
Y-155266D02*
X-531503D01*
Y-154266D01*
X-535403D02*
X-531503D01*
X-535403Y-153266D02*
Y-152266D01*
Y-153266D02*
X-531503D01*
Y-152266D01*
X-535403D02*
X-531503D01*
X-535403Y-151266D02*
Y-150266D01*
Y-151266D02*
X-531503D01*
Y-150266D01*
X-535403D02*
X-531503D01*
X-535403Y-149366D02*
Y-148366D01*
Y-149366D02*
X-531503D01*
Y-148366D01*
X-535403D02*
X-531503D01*
X-535403Y-147366D02*
Y-146366D01*
Y-147366D02*
X-531503D01*
Y-146366D01*
X-535403D02*
X-531503D01*
X-535403Y-145366D02*
Y-144366D01*
Y-145366D02*
X-531503D01*
Y-144366D01*
X-535403D02*
X-531503D01*
X-535403Y-143366D02*
Y-142366D01*
Y-143366D02*
X-531503D01*
Y-142366D01*
X-535403D02*
X-531503D01*
X-535403Y-141466D02*
Y-140466D01*
Y-141466D02*
X-531503D01*
Y-140466D01*
X-535403D02*
X-531503D01*
X-535403Y-139466D02*
Y-138466D01*
Y-139466D02*
X-531503D01*
Y-138466D01*
X-535403D02*
X-531503D01*
X-535403Y-137466D02*
Y-136466D01*
Y-137466D02*
X-531503D01*
Y-136466D01*
X-535403D02*
X-531503D01*
X-535403Y-135566D02*
Y-134566D01*
Y-135566D02*
X-531503D01*
Y-134566D01*
X-535403D02*
X-531503D01*
X-535403Y-133566D02*
Y-132566D01*
Y-133566D02*
X-531503D01*
Y-132566D01*
X-535403D02*
X-531503D01*
X-535403Y-131566D02*
Y-130566D01*
Y-131566D02*
X-531503D01*
Y-130566D01*
X-535403D02*
X-531503D01*
X-535403Y-129666D02*
Y-128666D01*
Y-129666D02*
X-531503D01*
Y-128666D01*
X-535403D02*
X-531503D01*
X-535403Y-127666D02*
Y-126666D01*
Y-127666D02*
X-531503D01*
Y-126666D01*
X-535403D02*
X-531503D01*
X-535403Y-125666D02*
Y-124666D01*
Y-125666D02*
X-531503D01*
Y-124666D01*
X-535403D02*
X-531503D01*
X-535403Y-123766D02*
Y-122766D01*
Y-123766D02*
X-531503D01*
Y-122766D01*
X-535403D02*
X-531503D01*
X-535403Y-121766D02*
Y-120766D01*
Y-121766D02*
X-531503D01*
Y-120766D01*
X-535403D02*
X-531503D01*
X-535403Y-119766D02*
Y-118766D01*
Y-119766D02*
X-531503D01*
Y-118766D01*
X-535403D02*
X-531503D01*
X-535403Y-117866D02*
Y-116866D01*
Y-117866D02*
X-531503D01*
Y-116866D01*
X-535403D02*
X-531503D01*
X-535403Y-115866D02*
Y-114866D01*
Y-115866D02*
X-531503D01*
Y-114866D01*
X-535403D02*
X-531503D01*
X-535403Y-113866D02*
Y-112866D01*
Y-113866D02*
X-531503D01*
Y-112866D01*
X-535403D02*
X-531503D01*
X-535403Y-111966D02*
Y-110966D01*
Y-111966D02*
X-531503D01*
Y-110966D01*
X-535403D02*
X-531503D01*
X-540903Y-106466D02*
X-539903D01*
Y-102566D01*
X-540903D02*
X-539903D01*
X-540903Y-106466D02*
Y-102566D01*
X-542803Y-106466D02*
X-541803D01*
Y-102566D01*
X-542803D02*
X-541803D01*
X-542803Y-106466D02*
Y-102566D01*
X-544803Y-106466D02*
X-543803D01*
Y-102566D01*
X-544803D02*
X-543803D01*
X-544803Y-106466D02*
Y-102566D01*
X-546803Y-106466D02*
X-545803D01*
Y-102566D01*
X-546803D02*
X-545803D01*
X-546803Y-106466D02*
Y-102566D01*
X-548703Y-106466D02*
X-547703D01*
Y-102566D01*
X-548703D02*
X-547703D01*
X-548703Y-106466D02*
Y-102566D01*
X-550703Y-106466D02*
X-549703D01*
Y-102566D01*
X-550703D02*
X-549703D01*
X-550703Y-106466D02*
Y-102566D01*
X-552703Y-106466D02*
X-551703D01*
Y-102566D01*
X-552703D02*
X-551703D01*
X-552703Y-106466D02*
Y-102566D01*
X-554603Y-106466D02*
X-553603D01*
Y-102566D01*
X-554603D02*
X-553603D01*
X-554603Y-106466D02*
Y-102566D01*
X-556603Y-106466D02*
X-555603D01*
Y-102566D01*
X-556603D02*
X-555603D01*
X-556603Y-106466D02*
Y-102566D01*
X-558603Y-106466D02*
X-557603D01*
Y-102566D01*
X-558603D02*
X-557603D01*
X-558603Y-106466D02*
Y-102566D01*
X-560503Y-106466D02*
X-559503D01*
Y-102566D01*
X-560503D02*
X-559503D01*
X-560503Y-106466D02*
Y-102566D01*
X-562503Y-106466D02*
X-561503D01*
Y-102566D01*
X-562503D02*
X-561503D01*
X-562503Y-106466D02*
Y-102566D01*
X-564503Y-106466D02*
X-563503D01*
Y-102566D01*
X-564503D02*
X-563503D01*
X-564503Y-106466D02*
Y-102566D01*
X-566403Y-106466D02*
X-565403D01*
Y-102566D01*
X-566403D02*
X-565403D01*
X-566403Y-106466D02*
Y-102566D01*
X-568403Y-106466D02*
X-567403D01*
Y-102566D01*
X-568403D02*
X-567403D01*
X-568403Y-106466D02*
Y-102566D01*
X-570403Y-106466D02*
X-569403D01*
Y-102566D01*
X-570403D02*
X-569403D01*
X-570403Y-106466D02*
Y-102566D01*
X-572303Y-106466D02*
X-571303D01*
Y-102566D01*
X-572303D02*
X-571303D01*
X-572303Y-106466D02*
Y-102566D01*
X-574303Y-106466D02*
X-573303D01*
Y-102566D01*
X-574303D02*
X-573303D01*
X-574303Y-106466D02*
Y-102566D01*
X-576303Y-106466D02*
X-575303D01*
Y-102566D01*
X-576303D02*
X-575303D01*
X-576303Y-106466D02*
Y-102566D01*
X-578303Y-106466D02*
X-577303D01*
Y-102566D01*
X-578303D02*
X-577303D01*
X-578303Y-106466D02*
Y-102566D01*
X-580203Y-106466D02*
X-579203D01*
Y-102566D01*
X-580203D02*
X-579203D01*
X-580203Y-106466D02*
Y-102566D01*
X-582203Y-106466D02*
X-581203D01*
Y-102566D01*
X-582203D02*
X-581203D01*
X-582203Y-106466D02*
Y-102566D01*
X-584203Y-106466D02*
X-583203D01*
Y-102566D01*
X-584203D02*
X-583203D01*
X-584203Y-106466D02*
Y-102566D01*
X-586103Y-106466D02*
X-585103D01*
Y-102566D01*
X-586103D02*
X-585103D01*
X-586103Y-106466D02*
Y-102566D01*
X-588103Y-106466D02*
X-587103D01*
Y-102566D01*
X-588103D02*
X-587103D01*
X-588103Y-106466D02*
Y-102566D01*
X-590103Y-106466D02*
X-589103D01*
Y-102566D01*
X-590103D02*
X-589103D01*
X-590103Y-106466D02*
Y-102566D01*
X-592003Y-106466D02*
X-591003D01*
Y-102566D01*
X-592003D02*
X-591003D01*
X-592003Y-106466D02*
Y-102566D01*
X-594003Y-106466D02*
X-593003D01*
Y-102566D01*
X-594003D02*
X-593003D01*
X-594003Y-106466D02*
Y-102566D01*
X-596003Y-106466D02*
X-595003D01*
Y-102566D01*
X-596003D02*
X-595003D01*
X-596003Y-106466D02*
Y-102566D01*
X-597903Y-106466D02*
X-596903D01*
Y-102566D01*
X-597903D02*
X-596903D01*
X-597903Y-106466D02*
Y-102566D01*
X-599903Y-106466D02*
X-598903D01*
Y-102566D01*
X-599903D02*
X-598903D01*
X-599903Y-106466D02*
Y-102566D01*
X-601903Y-106466D02*
X-600903D01*
Y-102566D01*
X-601903D02*
X-600903D01*
X-601903Y-106466D02*
Y-102566D01*
X-603803Y-106466D02*
X-602803D01*
Y-102566D01*
X-603803D02*
X-602803D01*
X-603803Y-106466D02*
Y-102566D01*
X-605803Y-106466D02*
X-604803D01*
Y-102566D01*
X-605803D02*
X-604803D01*
X-605803Y-106466D02*
Y-102566D01*
X-607803Y-106466D02*
X-606803D01*
Y-102566D01*
X-607803D02*
X-606803D01*
X-607803Y-106466D02*
Y-102566D01*
X-609703Y-106466D02*
X-608703D01*
Y-102566D01*
X-609703D02*
X-608703D01*
X-609703Y-106466D02*
Y-102566D01*
X-614203Y-111966D02*
Y-110966D01*
X-618103D02*
X-614203D01*
X-618103Y-111966D02*
Y-110966D01*
Y-111966D02*
X-614203D01*
Y-113866D02*
Y-112866D01*
X-618103D02*
X-614203D01*
X-618103Y-113866D02*
Y-112866D01*
Y-113866D02*
X-614203D01*
Y-115866D02*
Y-114866D01*
X-618103D02*
X-614203D01*
X-618103Y-115866D02*
Y-114866D01*
Y-115866D02*
X-614203D01*
Y-117866D02*
Y-116866D01*
X-618103D02*
X-614203D01*
X-618103Y-117866D02*
Y-116866D01*
Y-117866D02*
X-614203D01*
Y-119766D02*
Y-118766D01*
X-618103D02*
X-614203D01*
X-618103Y-119766D02*
Y-118766D01*
Y-119766D02*
X-614203D01*
Y-121766D02*
Y-120766D01*
X-618103D02*
X-614203D01*
X-618103Y-121766D02*
Y-120766D01*
Y-121766D02*
X-614203D01*
Y-123766D02*
Y-122766D01*
X-618103D02*
X-614203D01*
X-618103Y-123766D02*
Y-122766D01*
Y-123766D02*
X-614203D01*
Y-125666D02*
Y-124666D01*
X-618103D02*
X-614203D01*
X-618103Y-125666D02*
Y-124666D01*
Y-125666D02*
X-614203D01*
Y-127666D02*
Y-126666D01*
X-618103D02*
X-614203D01*
X-618103Y-127666D02*
Y-126666D01*
Y-127666D02*
X-614203D01*
Y-129666D02*
Y-128666D01*
X-618103D02*
X-614203D01*
X-618103Y-129666D02*
Y-128666D01*
Y-129666D02*
X-614203D01*
Y-131566D02*
Y-130566D01*
X-618103D02*
X-614203D01*
X-618103Y-131566D02*
Y-130566D01*
Y-131566D02*
X-614203D01*
Y-133566D02*
Y-132566D01*
X-618103D02*
X-614203D01*
X-618103Y-133566D02*
Y-132566D01*
Y-133566D02*
X-614203D01*
Y-135566D02*
Y-134566D01*
X-618103D02*
X-614203D01*
X-618103Y-135566D02*
Y-134566D01*
Y-135566D02*
X-614203D01*
Y-137466D02*
Y-136466D01*
X-618103D02*
X-614203D01*
X-618103Y-137466D02*
Y-136466D01*
Y-137466D02*
X-614203D01*
Y-139466D02*
Y-138466D01*
X-618103D02*
X-614203D01*
X-618103Y-139466D02*
Y-138466D01*
Y-139466D02*
X-614203D01*
Y-141466D02*
Y-140466D01*
X-618103D02*
X-614203D01*
X-618103Y-141466D02*
Y-140466D01*
Y-141466D02*
X-614203D01*
Y-143366D02*
Y-142366D01*
X-618103D02*
X-614203D01*
X-618103Y-143366D02*
Y-142366D01*
Y-143366D02*
X-614203D01*
Y-145366D02*
Y-144366D01*
X-618103D02*
X-614203D01*
X-618103Y-145366D02*
Y-144366D01*
Y-145366D02*
X-614203D01*
Y-147366D02*
Y-146366D01*
X-618103D02*
X-614203D01*
X-618103Y-147366D02*
Y-146366D01*
Y-147366D02*
X-614203D01*
Y-149366D02*
Y-148366D01*
X-618103D02*
X-614203D01*
X-618103Y-149366D02*
Y-148366D01*
Y-149366D02*
X-614203D01*
Y-151266D02*
Y-150266D01*
X-618103D02*
X-614203D01*
X-618103Y-151266D02*
Y-150266D01*
Y-151266D02*
X-614203D01*
Y-153266D02*
Y-152266D01*
X-618103D02*
X-614203D01*
X-618103Y-153266D02*
Y-152266D01*
Y-153266D02*
X-614203D01*
Y-155266D02*
Y-154266D01*
X-618103D02*
X-614203D01*
X-618103Y-155266D02*
Y-154266D01*
Y-155266D02*
X-614203D01*
Y-157166D02*
Y-156166D01*
X-618103D02*
X-614203D01*
X-618103Y-157166D02*
Y-156166D01*
Y-157166D02*
X-614203D01*
Y-159166D02*
Y-158166D01*
X-618103D02*
X-614203D01*
X-618103Y-159166D02*
Y-158166D01*
Y-159166D02*
X-614203D01*
Y-161166D02*
Y-160166D01*
X-618103D02*
X-614203D01*
X-618103Y-161166D02*
Y-160166D01*
Y-161166D02*
X-614203D01*
Y-163066D02*
Y-162066D01*
X-618103D02*
X-614203D01*
X-618103Y-163066D02*
Y-162066D01*
Y-163066D02*
X-614203D01*
Y-165066D02*
Y-164066D01*
X-618103D02*
X-614203D01*
X-618103Y-165066D02*
Y-164066D01*
Y-165066D02*
X-614203D01*
Y-167066D02*
Y-166066D01*
X-618103D02*
X-614203D01*
X-618103Y-167066D02*
Y-166066D01*
Y-167066D02*
X-614203D01*
Y-168966D02*
Y-167966D01*
X-618103D02*
X-614203D01*
X-618103Y-168966D02*
Y-167966D01*
Y-168966D02*
X-614203D01*
Y-170966D02*
Y-169966D01*
X-618103D02*
X-614203D01*
X-618103Y-170966D02*
Y-169966D01*
Y-170966D02*
X-614203D01*
Y-172966D02*
Y-171966D01*
X-618103D02*
X-614203D01*
X-618103Y-172966D02*
Y-171966D01*
Y-172966D02*
X-614203D01*
Y-174866D02*
Y-173866D01*
X-618103D02*
X-614203D01*
X-618103Y-174866D02*
Y-173866D01*
Y-174866D02*
X-614203D01*
Y-176866D02*
Y-175866D01*
X-618103D02*
X-614203D01*
X-618103Y-176866D02*
Y-175866D01*
Y-176866D02*
X-614203D01*
Y-178866D02*
Y-177866D01*
X-618103D02*
X-614203D01*
X-618103Y-178866D02*
Y-177866D01*
Y-178866D02*
X-614203D01*
Y-180766D02*
Y-179766D01*
X-618103D02*
X-614203D01*
X-618103Y-180766D02*
Y-179766D01*
Y-180766D02*
X-614203D01*
X-540403Y-185266D02*
X-535403Y-180266D01*
X-614203Y-106466D02*
X-535403D01*
X-614203Y-185266D02*
Y-106466D01*
Y-185266D02*
X-535403D01*
Y-106466D01*
D229*
X-525303Y-181101D02*
X-521971Y-184433D01*
X-525303D02*
X-521971Y-181101D01*
X-525303Y-182767D02*
X-521971D01*
X-523637Y-184433D02*
Y-181101D01*
X-525303D02*
X-521971Y-184433D01*
X-525303D02*
X-521971Y-181101D01*
X-525303Y-182767D02*
X-521971D01*
X-523637Y-184433D02*
Y-181101D01*
M02*
