G04*
G04 #@! TF.GenerationSoftware,Altium Limited,Altium Designer,21.5.1 (32)*
G04*
G04 Layer_Color=8388736*
%FSLAX25Y25*%
%MOIN*%
G70*
G04*
G04 #@! TF.SameCoordinates,54AFFEB1-3E94-4089-A03D-164D74B6EA14*
G04*
G04*
G04 #@! TF.FilePolarity,Negative*
G04*
G01*
G75*
%ADD18C,0.07874*%
%ADD19R,0.09252X0.08465*%
%ADD20R,0.14764X0.11221*%
%ADD21R,0.05709X0.06496*%
%ADD22R,0.06299X0.12402*%
%ADD23R,0.42323X0.36024*%
%ADD24R,0.13976X0.06102*%
%ADD25R,0.06496X0.05709*%
%ADD26R,0.13583X0.10039*%
%ADD27R,0.02953X0.08465*%
%ADD28R,0.06890X0.10630*%
%ADD29R,0.06890X0.01772*%
%ADD30R,0.08465X0.13189*%
%ADD31R,0.08465X0.09252*%
%ADD32R,0.04724X0.01968*%
%ADD33R,0.01968X0.04724*%
%ADD34R,0.09488X0.09488*%
%ADD35R,0.07087X0.03583*%
%ADD36R,0.04528X0.07087*%
%ADD37R,0.05791X0.01591*%
%ADD38R,0.01591X0.05791*%
%ADD39R,0.01591X0.05791*%
%ADD40R,0.22591X0.22591*%
%ADD41R,0.06299X0.06299*%
%ADD42O,0.04134X0.01575*%
%ADD43O,0.01575X0.04134*%
%ADD44O,0.03937X0.01772*%
%ADD45O,0.01772X0.03937*%
%ADD46R,0.29724X0.29724*%
%ADD47R,0.09646X0.09646*%
%ADD48R,0.09252X0.09055*%
%ADD49R,0.07677X0.06890*%
%ADD50R,0.03583X0.07087*%
%ADD51R,0.07087X0.04528*%
%ADD52R,0.13583X0.10079*%
%ADD53R,0.07677X0.02165*%
%ADD54R,0.10433X0.08465*%
%ADD55R,0.09646X0.02559*%
%ADD56R,0.02953X0.04921*%
%ADD57R,0.01772X0.06398*%
%ADD58R,0.06398X0.01772*%
%ADD59R,0.16732X0.16732*%
%ADD60R,0.01772X0.06890*%
%ADD61R,0.06102X0.13976*%
%ADD62R,0.13386X0.09055*%
%ADD63R,0.04331X0.09055*%
%ADD64R,0.06890X0.07677*%
%ADD65R,0.08465X0.07677*%
%ADD66R,0.04921X0.04528*%
%ADD67R,0.08071X0.05709*%
%ADD68R,0.08169X0.03150*%
%ADD69R,0.04528X0.10433*%
%ADD70R,0.21063X0.22244*%
%ADD71C,0.07284*%
%ADD72R,0.07284X0.07284*%
G04:AMPARAMS|DCode=73|XSize=124.02mil|YSize=64.96mil|CornerRadius=17.72mil|HoleSize=0mil|Usage=FLASHONLY|Rotation=0.000|XOffset=0mil|YOffset=0mil|HoleType=Round|Shape=RoundedRectangle|*
%AMROUNDEDRECTD73*
21,1,0.12402,0.02953,0,0,0.0*
21,1,0.08858,0.06496,0,0,0.0*
1,1,0.03543,0.04429,-0.01476*
1,1,0.03543,-0.04429,-0.01476*
1,1,0.03543,-0.04429,0.01476*
1,1,0.03543,0.04429,0.01476*
%
%ADD73ROUNDEDRECTD73*%
G04:AMPARAMS|DCode=74|XSize=124.02mil|YSize=64.96mil|CornerRadius=17.72mil|HoleSize=0mil|Usage=FLASHONLY|Rotation=90.000|XOffset=0mil|YOffset=0mil|HoleType=Round|Shape=RoundedRectangle|*
%AMROUNDEDRECTD74*
21,1,0.12402,0.02953,0,0,90.0*
21,1,0.08858,0.06496,0,0,90.0*
1,1,0.03543,0.01476,0.04429*
1,1,0.03543,0.01476,-0.04429*
1,1,0.03543,-0.01476,-0.04429*
1,1,0.03543,-0.01476,0.04429*
%
%ADD74ROUNDEDRECTD74*%
%ADD75R,0.11221X0.11221*%
%ADD76C,0.04921*%
%ADD77C,0.06496*%
%ADD78R,0.06496X0.06496*%
%ADD79R,0.08465X0.08465*%
%ADD80C,0.08465*%
%ADD81C,0.11221*%
%ADD82R,0.16339X0.16339*%
%ADD83C,0.05391*%
%ADD84C,0.06890*%
%ADD85C,0.07677*%
%ADD86O,0.11614X0.06102*%
%ADD87O,0.06102X0.11614*%
%ADD88R,0.06496X0.06496*%
%ADD89C,0.10433*%
%ADD90C,0.10827*%
%ADD91C,0.04528*%
%ADD92C,0.02953*%
%ADD93C,0.12402*%
%ADD94C,0.16339*%
%ADD95C,0.14370*%
%ADD96C,0.20276*%
D18*
X-186516Y-198819D02*
X-52164D01*
X-186516Y-281594D02*
Y-198819D01*
X-52164Y-297419D02*
Y-198819D01*
X-186196Y-297047D02*
X-52164Y-297419D01*
D19*
X-174016Y-173228D02*
D03*
Y-185039D02*
D03*
X-62894Y-240059D02*
D03*
Y-251870D02*
D03*
X-355217Y-278543D02*
D03*
X-118576Y-175387D02*
D03*
Y-187198D02*
D03*
X-573130Y-278051D02*
D03*
Y-289862D02*
D03*
X-355217Y-266732D02*
D03*
X-149803Y-185039D02*
D03*
Y-173228D02*
D03*
X-161811Y-108268D02*
D03*
Y-120079D02*
D03*
X-672047Y-101252D02*
D03*
Y-113063D02*
D03*
X-193220Y-162480D02*
D03*
Y-150669D02*
D03*
X-253543Y-281496D02*
D03*
Y-269685D02*
D03*
D20*
X-159252Y-241689D02*
D03*
Y-259189D02*
D03*
X-88484Y-236276D02*
D03*
Y-253776D02*
D03*
D21*
X-417126Y-269291D02*
D03*
X-409646D02*
D03*
X-406988Y-279331D02*
D03*
X-399508D02*
D03*
X-139566Y-278642D02*
D03*
X-147046D02*
D03*
X-220867Y-159449D02*
D03*
X-228348D02*
D03*
X-53642Y-60728D02*
D03*
X-61122D02*
D03*
X-490749Y-77559D02*
D03*
X-483269D02*
D03*
X-483267Y-85433D02*
D03*
X-490747D02*
D03*
X-106299Y-41043D02*
D03*
X-98819D02*
D03*
X-106299Y-48228D02*
D03*
X-98819D02*
D03*
X-138484Y-88681D02*
D03*
X-145965D02*
D03*
X-693306Y-79724D02*
D03*
X-685826D02*
D03*
X-672047Y-134646D02*
D03*
X-679528D02*
D03*
X-75492Y-160827D02*
D03*
X-68012D02*
D03*
X-53839Y-23130D02*
D03*
X-61319D02*
D03*
X-418404Y-230315D02*
D03*
X-425885D02*
D03*
X-130610Y-38780D02*
D03*
X-138091D02*
D03*
X-130314Y-55807D02*
D03*
X-137794D02*
D03*
X-648722Y-227559D02*
D03*
X-656202D02*
D03*
X-668307Y-272441D02*
D03*
X-660827D02*
D03*
X-635630Y-273228D02*
D03*
X-643110D02*
D03*
X-520669Y-75984D02*
D03*
X-528150D02*
D03*
X-552560Y-243307D02*
D03*
X-545080D02*
D03*
X-138091Y-45965D02*
D03*
X-130610D02*
D03*
X-61221Y-36122D02*
D03*
X-53740D02*
D03*
X-75394Y-152264D02*
D03*
X-67914D02*
D03*
X-293011Y-69390D02*
D03*
X-300491D02*
D03*
X-239765Y-55315D02*
D03*
X-232285D02*
D03*
X-244585Y-41831D02*
D03*
X-252066D02*
D03*
X-683169Y-212205D02*
D03*
X-675689D02*
D03*
X-269587Y-55315D02*
D03*
X-262106D02*
D03*
X-685792Y-92236D02*
D03*
X-693272D02*
D03*
X-645866Y-111221D02*
D03*
X-638386D02*
D03*
X-169093Y-231791D02*
D03*
X-176574D02*
D03*
X-585631Y-251969D02*
D03*
X-578151D02*
D03*
X-592322Y-272441D02*
D03*
X-599802D02*
D03*
X-133551Y-146473D02*
D03*
X-126071D02*
D03*
X-672163Y-125357D02*
D03*
X-664683D02*
D03*
X-696426Y-112224D02*
D03*
X-703906D02*
D03*
D22*
X-399764Y-266043D02*
D03*
X-389764D02*
D03*
X-379764D02*
D03*
X-205748Y-281890D02*
D03*
X-215748D02*
D03*
X-225748D02*
D03*
D23*
X-389764Y-228248D02*
D03*
X-215748Y-244094D02*
D03*
D24*
X-100295Y-270768D02*
D03*
Y-286910D02*
D03*
D25*
X-366142Y-280020D02*
D03*
X-109547Y-247440D02*
D03*
X-119587Y-279626D02*
D03*
Y-287106D02*
D03*
X-130709Y-181496D02*
D03*
Y-174016D02*
D03*
X-131004Y-165551D02*
D03*
Y-158071D02*
D03*
X-108366Y-173820D02*
D03*
Y-181300D02*
D03*
X-231791Y-31497D02*
D03*
Y-38978D02*
D03*
X-56103Y-78247D02*
D03*
Y-70767D02*
D03*
X-640650Y-167520D02*
D03*
Y-175000D02*
D03*
X-633268Y-167520D02*
D03*
Y-175000D02*
D03*
X-512599Y-83663D02*
D03*
Y-76182D02*
D03*
X-603937Y-62402D02*
D03*
Y-69882D02*
D03*
X-366142Y-272539D02*
D03*
X-75295Y-57775D02*
D03*
Y-65255D02*
D03*
X-131102Y-71062D02*
D03*
Y-78542D02*
D03*
X-600886Y-252264D02*
D03*
Y-259744D02*
D03*
X-585827Y-267520D02*
D03*
Y-260039D02*
D03*
X-607874Y-259646D02*
D03*
Y-252165D02*
D03*
X-535039Y-61416D02*
D03*
Y-53936D02*
D03*
X-535827Y-75789D02*
D03*
Y-83269D02*
D03*
X-90847Y-111516D02*
D03*
Y-118996D02*
D03*
X-93307Y-160531D02*
D03*
Y-168012D02*
D03*
X-85138Y-160432D02*
D03*
Y-167912D02*
D03*
X-160335Y-174605D02*
D03*
Y-182085D02*
D03*
X-127854Y-287106D02*
D03*
Y-279626D02*
D03*
X-109547Y-254920D02*
D03*
X-273228Y-267912D02*
D03*
Y-275393D02*
D03*
X-652756Y-103543D02*
D03*
Y-111024D02*
D03*
X-561417Y-275786D02*
D03*
Y-283267D02*
D03*
X-593898Y-252263D02*
D03*
Y-259743D02*
D03*
X-85433Y-152264D02*
D03*
Y-144783D02*
D03*
X-151772Y-112795D02*
D03*
Y-120276D02*
D03*
X-100000Y-125394D02*
D03*
Y-132874D02*
D03*
X-101083Y-181299D02*
D03*
Y-173819D02*
D03*
X-93110Y-152265D02*
D03*
Y-144785D02*
D03*
X-139173Y-178739D02*
D03*
Y-186219D02*
D03*
X-196851Y-290356D02*
D03*
Y-282875D02*
D03*
X-182677Y-149213D02*
D03*
Y-156693D02*
D03*
X-263780Y-267912D02*
D03*
Y-275393D02*
D03*
X-640846Y-227953D02*
D03*
Y-220473D02*
D03*
X-640945Y-131496D02*
D03*
Y-124016D02*
D03*
X-633858D02*
D03*
Y-131496D02*
D03*
X-662402Y-220276D02*
D03*
Y-227756D02*
D03*
X-723305Y-226543D02*
D03*
Y-219063D02*
D03*
X-241732Y-268700D02*
D03*
Y-276180D02*
D03*
X-702756Y-155118D02*
D03*
Y-147638D02*
D03*
D26*
X-112992Y-236713D02*
D03*
Y-209350D02*
D03*
D27*
X-124859Y-248717D02*
D03*
X-129859Y-269977D02*
D03*
X-134859D02*
D03*
X-485077Y-193061D02*
D03*
X-490077D02*
D03*
X-495077D02*
D03*
X-500077D02*
D03*
Y-163927D02*
D03*
X-495077D02*
D03*
X-490077D02*
D03*
X-485077D02*
D03*
X-134859Y-248717D02*
D03*
X-129859D02*
D03*
X-119859D02*
D03*
Y-269977D02*
D03*
X-124859D02*
D03*
D28*
X-159153Y-224213D02*
D03*
Y-210433D02*
D03*
D29*
X-289370Y-111024D02*
D03*
X-228740Y-99213D02*
D03*
Y-101181D02*
D03*
Y-103150D02*
D03*
Y-105118D02*
D03*
Y-107087D02*
D03*
Y-109055D02*
D03*
Y-111024D02*
D03*
Y-112992D02*
D03*
Y-114961D02*
D03*
Y-116929D02*
D03*
Y-118898D02*
D03*
Y-120866D02*
D03*
Y-122835D02*
D03*
Y-124803D02*
D03*
Y-126772D02*
D03*
Y-128740D02*
D03*
Y-130709D02*
D03*
Y-132677D02*
D03*
Y-134646D02*
D03*
Y-136614D02*
D03*
Y-138583D02*
D03*
Y-140551D02*
D03*
Y-142520D02*
D03*
Y-144488D02*
D03*
Y-146457D02*
D03*
X-289370D02*
D03*
Y-144488D02*
D03*
Y-142520D02*
D03*
Y-140551D02*
D03*
Y-138583D02*
D03*
Y-136614D02*
D03*
Y-134646D02*
D03*
Y-132677D02*
D03*
Y-130709D02*
D03*
Y-128740D02*
D03*
Y-126772D02*
D03*
Y-124803D02*
D03*
Y-122835D02*
D03*
Y-120866D02*
D03*
Y-118898D02*
D03*
Y-116929D02*
D03*
Y-114961D02*
D03*
Y-112992D02*
D03*
Y-109055D02*
D03*
Y-107087D02*
D03*
Y-105118D02*
D03*
Y-103150D02*
D03*
Y-101181D02*
D03*
Y-99213D02*
D03*
D30*
X-116429Y-107874D02*
D03*
X-133760D02*
D03*
X-110622Y-126772D02*
D03*
X-127953D02*
D03*
D31*
X-552559Y-233268D02*
D03*
X-540748D02*
D03*
X-431595Y-241634D02*
D03*
X-419783D02*
D03*
X-103248Y-161319D02*
D03*
X-115059D02*
D03*
X-172047Y-277953D02*
D03*
X-160236D02*
D03*
X-103248Y-147047D02*
D03*
X-115059D02*
D03*
D32*
X-660039Y-200886D02*
D03*
Y-203445D02*
D03*
Y-206004D02*
D03*
Y-208563D02*
D03*
X-645472D02*
D03*
Y-206004D02*
D03*
Y-203445D02*
D03*
Y-200886D02*
D03*
D33*
X-656595Y-212008D02*
D03*
X-654036D02*
D03*
X-651476D02*
D03*
X-648917D02*
D03*
Y-197441D02*
D03*
X-651476D02*
D03*
X-654036D02*
D03*
X-656595D02*
D03*
D34*
X-652756Y-204725D02*
D03*
D35*
X-485394Y-63268D02*
D03*
X-472874D02*
D03*
Y-53268D02*
D03*
X-485394D02*
D03*
Y-58268D02*
D03*
D36*
X-466142Y-48819D02*
D03*
Y-58268D02*
D03*
Y-67717D02*
D03*
X-492126D02*
D03*
Y-58268D02*
D03*
Y-48819D02*
D03*
D37*
X-532677Y-180314D02*
D03*
Y-178346D02*
D03*
Y-176377D02*
D03*
Y-174409D02*
D03*
Y-172440D02*
D03*
Y-170472D02*
D03*
Y-168503D02*
D03*
Y-166535D02*
D03*
Y-164566D02*
D03*
Y-162598D02*
D03*
Y-160630D02*
D03*
Y-158661D02*
D03*
Y-156693D02*
D03*
Y-154724D02*
D03*
Y-152756D02*
D03*
Y-150787D02*
D03*
Y-148819D02*
D03*
Y-146850D02*
D03*
Y-144882D02*
D03*
Y-142913D02*
D03*
Y-140944D02*
D03*
Y-138976D02*
D03*
Y-137007D02*
D03*
Y-135039D02*
D03*
Y-133070D02*
D03*
Y-131102D02*
D03*
Y-129133D02*
D03*
Y-127165D02*
D03*
Y-125196D02*
D03*
Y-123228D02*
D03*
Y-121259D02*
D03*
Y-119291D02*
D03*
Y-117322D02*
D03*
Y-115354D02*
D03*
Y-113385D02*
D03*
Y-111417D02*
D03*
X-616929D02*
D03*
Y-113385D02*
D03*
Y-115354D02*
D03*
Y-117322D02*
D03*
Y-119291D02*
D03*
Y-121259D02*
D03*
Y-123228D02*
D03*
Y-125196D02*
D03*
Y-127165D02*
D03*
Y-129133D02*
D03*
Y-131102D02*
D03*
Y-133070D02*
D03*
Y-135039D02*
D03*
Y-137007D02*
D03*
Y-138976D02*
D03*
Y-140944D02*
D03*
Y-142913D02*
D03*
Y-144882D02*
D03*
Y-146850D02*
D03*
Y-148819D02*
D03*
Y-150787D02*
D03*
Y-152756D02*
D03*
Y-154724D02*
D03*
Y-156693D02*
D03*
Y-158661D02*
D03*
Y-160630D02*
D03*
Y-162598D02*
D03*
Y-164566D02*
D03*
Y-166535D02*
D03*
Y-168503D02*
D03*
Y-170472D02*
D03*
Y-172440D02*
D03*
Y-174409D02*
D03*
Y-176377D02*
D03*
Y-178346D02*
D03*
Y-180314D02*
D03*
D38*
X-540354Y-103740D02*
D03*
X-544291D02*
D03*
X-548228D02*
D03*
X-552165D02*
D03*
X-556102D02*
D03*
X-562008D02*
D03*
X-565945D02*
D03*
X-569882D02*
D03*
X-573819D02*
D03*
X-577756D02*
D03*
X-581693D02*
D03*
X-585630D02*
D03*
X-589567D02*
D03*
X-593504D02*
D03*
X-595472D02*
D03*
X-599409D02*
D03*
X-603346D02*
D03*
X-607283D02*
D03*
X-609252Y-187992D02*
D03*
X-605315D02*
D03*
X-601378D02*
D03*
X-597441D02*
D03*
X-591535D02*
D03*
X-587598D02*
D03*
X-583661D02*
D03*
X-579724D02*
D03*
X-575787D02*
D03*
X-571850D02*
D03*
X-567913D02*
D03*
X-563976D02*
D03*
X-560039D02*
D03*
X-558071D02*
D03*
X-554134D02*
D03*
X-550197D02*
D03*
X-546260D02*
D03*
X-542323D02*
D03*
D39*
Y-103740D02*
D03*
X-546260D02*
D03*
X-550197D02*
D03*
X-554134D02*
D03*
X-558071D02*
D03*
X-560039D02*
D03*
X-563976D02*
D03*
X-567913D02*
D03*
X-571850D02*
D03*
X-575787D02*
D03*
X-579724D02*
D03*
X-583661D02*
D03*
X-587598D02*
D03*
X-591535D02*
D03*
X-597441D02*
D03*
X-601378D02*
D03*
X-605315D02*
D03*
X-609252D02*
D03*
X-607283Y-187992D02*
D03*
X-603346D02*
D03*
X-599409D02*
D03*
X-595472D02*
D03*
X-593504D02*
D03*
X-589567D02*
D03*
X-585630D02*
D03*
X-581693D02*
D03*
X-577756D02*
D03*
X-573819D02*
D03*
X-569882D02*
D03*
X-565945D02*
D03*
X-562008D02*
D03*
X-556102D02*
D03*
X-552165D02*
D03*
X-548228D02*
D03*
X-544291D02*
D03*
X-540354D02*
D03*
D40*
X-573622Y-147350D02*
D03*
D41*
X-510630Y-57480D02*
D03*
D42*
X-504921Y-54528D02*
D03*
Y-56496D02*
D03*
Y-58465D02*
D03*
Y-60433D02*
D03*
X-516339D02*
D03*
Y-58465D02*
D03*
Y-56496D02*
D03*
Y-54528D02*
D03*
D43*
X-507677Y-63189D02*
D03*
X-509646D02*
D03*
X-511614D02*
D03*
X-513583D02*
D03*
Y-51772D02*
D03*
X-511614D02*
D03*
X-509646D02*
D03*
X-507677D02*
D03*
D44*
X-547638Y-72441D02*
D03*
Y-70473D02*
D03*
Y-68504D02*
D03*
Y-66536D02*
D03*
Y-64567D02*
D03*
Y-62599D02*
D03*
Y-60630D02*
D03*
Y-58662D02*
D03*
Y-56693D02*
D03*
Y-54725D02*
D03*
Y-52756D02*
D03*
Y-50788D02*
D03*
Y-48819D02*
D03*
Y-46850D02*
D03*
Y-44882D02*
D03*
Y-42913D02*
D03*
X-582677D02*
D03*
Y-44882D02*
D03*
Y-46850D02*
D03*
Y-48819D02*
D03*
Y-50788D02*
D03*
Y-52756D02*
D03*
Y-54725D02*
D03*
Y-56693D02*
D03*
Y-58662D02*
D03*
Y-60630D02*
D03*
Y-62599D02*
D03*
Y-64567D02*
D03*
Y-66536D02*
D03*
Y-68504D02*
D03*
Y-70473D02*
D03*
Y-72441D02*
D03*
D45*
X-550394Y-40157D02*
D03*
X-552362D02*
D03*
X-554331D02*
D03*
X-556299D02*
D03*
X-558268D02*
D03*
X-560236D02*
D03*
X-562205D02*
D03*
X-564173D02*
D03*
X-566142D02*
D03*
X-568110D02*
D03*
X-570079D02*
D03*
X-572047D02*
D03*
X-574016D02*
D03*
X-575984D02*
D03*
X-577953D02*
D03*
X-579921D02*
D03*
Y-75197D02*
D03*
X-577953D02*
D03*
X-575984D02*
D03*
X-574016D02*
D03*
X-572047D02*
D03*
X-570079D02*
D03*
X-568110D02*
D03*
X-566142D02*
D03*
X-564173D02*
D03*
X-562205D02*
D03*
X-560236D02*
D03*
X-558268D02*
D03*
X-556299D02*
D03*
X-554331D02*
D03*
X-552362D02*
D03*
X-550394D02*
D03*
D46*
X-565158Y-57677D02*
D03*
D47*
X-66732Y-268504D02*
D03*
Y-286221D02*
D03*
D48*
X-348721Y-130906D02*
D03*
X-366043D02*
D03*
X-348721Y-115650D02*
D03*
X-366043D02*
D03*
D49*
X-713780Y-200787D02*
D03*
Y-211811D02*
D03*
X-691732Y-201181D02*
D03*
Y-212205D02*
D03*
X-701575Y-201181D02*
D03*
Y-212205D02*
D03*
X-723327Y-200886D02*
D03*
Y-211910D02*
D03*
D50*
X-703032Y-226417D02*
D03*
Y-238937D02*
D03*
X-693032D02*
D03*
Y-226417D02*
D03*
X-698032D02*
D03*
X-652362Y-246496D02*
D03*
X-647362D02*
D03*
Y-259016D02*
D03*
X-657362D02*
D03*
Y-246496D02*
D03*
D51*
X-688583Y-245669D02*
D03*
X-698032D02*
D03*
X-707480D02*
D03*
Y-219685D02*
D03*
X-698032D02*
D03*
X-688583D02*
D03*
X-642913Y-239764D02*
D03*
X-652362D02*
D03*
X-661811D02*
D03*
Y-265748D02*
D03*
X-652362D02*
D03*
X-642913D02*
D03*
D52*
X-126965Y-259347D02*
D03*
D53*
X-143307Y-129921D02*
D03*
Y-132480D02*
D03*
Y-135039D02*
D03*
Y-137599D02*
D03*
Y-140157D02*
D03*
Y-142717D02*
D03*
Y-145276D02*
D03*
Y-147835D02*
D03*
Y-150394D02*
D03*
Y-152953D02*
D03*
Y-155512D02*
D03*
Y-158071D02*
D03*
Y-160630D02*
D03*
X-143306Y-163189D02*
D03*
X-171654D02*
D03*
Y-160630D02*
D03*
Y-158071D02*
D03*
Y-155512D02*
D03*
Y-152953D02*
D03*
Y-150394D02*
D03*
Y-147835D02*
D03*
Y-145276D02*
D03*
Y-142717D02*
D03*
Y-140157D02*
D03*
Y-137599D02*
D03*
Y-135039D02*
D03*
Y-132480D02*
D03*
Y-129921D02*
D03*
D54*
X-9055Y-34449D02*
D03*
Y-69488D02*
D03*
X-30709Y-34449D02*
D03*
Y-69488D02*
D03*
D55*
X-31102Y-45669D02*
D03*
Y-48819D02*
D03*
Y-51969D02*
D03*
Y-55118D02*
D03*
Y-58268D02*
D03*
D56*
X-682033Y-112230D02*
D03*
X-689514D02*
D03*
Y-101600D02*
D03*
X-685774D02*
D03*
X-682033D02*
D03*
D57*
X-583662Y-206937D02*
D03*
X-585630D02*
D03*
X-587599D02*
D03*
X-589567D02*
D03*
X-591536D02*
D03*
X-593504D02*
D03*
X-595472D02*
D03*
X-597441D02*
D03*
X-599409D02*
D03*
X-601378D02*
D03*
X-603346D02*
D03*
X-605315D02*
D03*
Y-240307D02*
D03*
X-603346D02*
D03*
X-601378D02*
D03*
X-599409D02*
D03*
X-597441D02*
D03*
X-595472D02*
D03*
X-593504D02*
D03*
X-591536D02*
D03*
X-589567D02*
D03*
X-587599D02*
D03*
X-585630D02*
D03*
X-583662D02*
D03*
D58*
X-611173Y-212795D02*
D03*
Y-214764D02*
D03*
Y-216732D02*
D03*
Y-218701D02*
D03*
Y-220669D02*
D03*
Y-222638D02*
D03*
Y-224606D02*
D03*
Y-226575D02*
D03*
Y-228543D02*
D03*
Y-230512D02*
D03*
Y-232480D02*
D03*
Y-234449D02*
D03*
X-577803D02*
D03*
Y-232480D02*
D03*
Y-230512D02*
D03*
Y-228543D02*
D03*
Y-226575D02*
D03*
Y-224606D02*
D03*
Y-222638D02*
D03*
Y-220669D02*
D03*
Y-218701D02*
D03*
Y-216732D02*
D03*
Y-214764D02*
D03*
Y-212795D02*
D03*
D59*
X-594488Y-223622D02*
D03*
D60*
X-235433Y-153150D02*
D03*
X-237402D02*
D03*
X-239370D02*
D03*
X-241339D02*
D03*
X-243307D02*
D03*
X-245276D02*
D03*
X-247244D02*
D03*
X-249213D02*
D03*
X-251181D02*
D03*
X-253150D02*
D03*
X-255118D02*
D03*
X-257087D02*
D03*
X-259055D02*
D03*
X-261024D02*
D03*
X-262992D02*
D03*
X-264961D02*
D03*
X-266929D02*
D03*
X-268898D02*
D03*
X-270866D02*
D03*
X-272835D02*
D03*
X-274803D02*
D03*
X-276772D02*
D03*
X-278740D02*
D03*
X-280709D02*
D03*
X-282677D02*
D03*
Y-92520D02*
D03*
X-280709D02*
D03*
X-278740D02*
D03*
X-276772D02*
D03*
X-274803D02*
D03*
X-272835D02*
D03*
X-270866D02*
D03*
X-268898D02*
D03*
X-266929D02*
D03*
X-264961D02*
D03*
X-262992D02*
D03*
X-261024D02*
D03*
X-259055D02*
D03*
X-257087D02*
D03*
X-255118D02*
D03*
X-253150D02*
D03*
X-251181D02*
D03*
X-249213D02*
D03*
X-247244D02*
D03*
X-245276D02*
D03*
X-243307D02*
D03*
X-241339D02*
D03*
X-239370D02*
D03*
X-237402D02*
D03*
X-235433D02*
D03*
D61*
X-143012Y-226772D02*
D03*
X-126870D02*
D03*
D62*
X-543307Y-275591D02*
D03*
D63*
X-552362Y-252756D02*
D03*
X-543307D02*
D03*
X-534252D02*
D03*
D64*
X-673228Y-190945D02*
D03*
X-684252D02*
D03*
X-673228Y-182283D02*
D03*
X-684252D02*
D03*
D65*
X-673228Y-155669D02*
D03*
X-689764D02*
D03*
X-673228Y-145669D02*
D03*
Y-165669D02*
D03*
X-689764D02*
D03*
Y-145669D02*
D03*
D66*
X-529035Y-60236D02*
D03*
X-522342D02*
D03*
X-529036Y-54823D02*
D03*
X-522343D02*
D03*
D67*
X-242126Y-31496D02*
D03*
Y-9843D02*
D03*
X-254725D02*
D03*
Y-31496D02*
D03*
D68*
X-83713Y-70945D02*
D03*
Y-65945D02*
D03*
Y-60945D02*
D03*
Y-55945D02*
D03*
Y-50945D02*
D03*
Y-45945D02*
D03*
Y-40945D02*
D03*
Y-35945D02*
D03*
X-120815D02*
D03*
Y-40945D02*
D03*
Y-45945D02*
D03*
Y-50945D02*
D03*
Y-55945D02*
D03*
Y-60945D02*
D03*
Y-65945D02*
D03*
Y-70945D02*
D03*
D69*
X-360925Y-49606D02*
D03*
X-379035D02*
D03*
D70*
X-369980Y-25984D02*
D03*
D71*
X-215256Y-181988D02*
D03*
X-205256Y-181988D02*
D03*
X-84193Y-184902D02*
D03*
X-74193Y-184902D02*
D03*
X-202205Y-45512D02*
D03*
Y-35012D02*
D03*
X-192205Y-45512D02*
D03*
Y-35512D02*
D03*
X-182205Y-45512D02*
D03*
Y-35512D02*
D03*
X-172205Y-45512D02*
D03*
Y-35512D02*
D03*
X-162205Y-45512D02*
D03*
X-99823Y-91890D02*
D03*
X-79823D02*
D03*
X-89823D02*
D03*
X-397756Y-19823D02*
D03*
X-338071Y-97500D02*
D03*
X-279705Y-31555D02*
D03*
D72*
X-225256Y-181988D02*
D03*
X-407756Y-19823D02*
D03*
X-64193Y-184902D02*
D03*
X-162205Y-35512D02*
D03*
X-69823Y-91890D02*
D03*
X-328071Y-97500D02*
D03*
X-269705Y-31555D02*
D03*
D73*
X-170440Y-198819D02*
D03*
X-68734Y-297342D02*
D03*
Y-198819D02*
D03*
X-170440Y-297244D02*
D03*
D74*
X-52658Y-245128D02*
D03*
X-186516Y-245079D02*
D03*
D75*
X-82579Y-270650D02*
D03*
D76*
X-562169Y-25102D02*
D03*
X-568861D02*
D03*
D77*
X-379528Y-64350D02*
D03*
X-369685Y-74193D02*
D03*
D78*
X-359843Y-64350D02*
D03*
D79*
X-57680Y-9465D02*
D03*
D80*
Y-47457D02*
D03*
X-72540Y-6398D02*
D03*
X-127067D02*
D03*
D81*
X-82579Y-285650D02*
D03*
D82*
X-573622Y-147350D02*
D03*
D83*
X-276035Y-69488D02*
D03*
X-257035D02*
D03*
D84*
X-20866Y-43305D02*
D03*
Y-60628D02*
D03*
X-480320Y-254901D02*
D03*
X-470320D02*
D03*
X-500320Y-264900D02*
D03*
X-490320D02*
D03*
X-480320D02*
D03*
X-470320D02*
D03*
X-460320D02*
D03*
X-490320Y-254901D02*
D03*
X-500320D02*
D03*
X-293819Y-239567D02*
D03*
X-283819D02*
D03*
X-313819Y-249567D02*
D03*
X-303819D02*
D03*
X-293819D02*
D03*
X-283819D02*
D03*
X-273819D02*
D03*
X-303819Y-239567D02*
D03*
X-313819D02*
D03*
D85*
X-18307Y-81496D02*
D03*
X-8465D02*
D03*
X-37992Y-101181D02*
D03*
X-18307Y-120866D02*
D03*
X-8465D02*
D03*
X-18307Y-130118D02*
D03*
X-8465D02*
D03*
X-37992Y-149803D02*
D03*
X-18307Y-169488D02*
D03*
X-8465D02*
D03*
X-18307Y-227165D02*
D03*
X-8465D02*
D03*
X-37992Y-246850D02*
D03*
X-18307Y-266535D02*
D03*
X-8465D02*
D03*
X-18307Y-178740D02*
D03*
X-8465D02*
D03*
X-37992Y-198425D02*
D03*
X-18307Y-218110D02*
D03*
X-8465D02*
D03*
D86*
X-37992Y-81496D02*
D03*
Y-120866D02*
D03*
X-37821Y-111181D02*
D03*
Y-91181D02*
D03*
X-37992Y-130118D02*
D03*
Y-169488D02*
D03*
X-37821Y-159803D02*
D03*
Y-139803D02*
D03*
X-37992Y-227165D02*
D03*
Y-266535D02*
D03*
X-37821Y-256851D02*
D03*
Y-236851D02*
D03*
X-37992Y-178740D02*
D03*
Y-218110D02*
D03*
X-37821Y-208425D02*
D03*
Y-188425D02*
D03*
D87*
X-18307Y-101181D02*
D03*
Y-149803D02*
D03*
Y-246850D02*
D03*
Y-198425D02*
D03*
D88*
X-460320Y-254901D02*
D03*
X-273819Y-239567D02*
D03*
D89*
X-437008Y-50394D02*
D03*
X-692858Y-269548D02*
D03*
D90*
X-427008Y-40394D02*
D03*
Y-60394D02*
D03*
X-447008D02*
D03*
Y-40394D02*
D03*
X-702858Y-259548D02*
D03*
X-682858D02*
D03*
Y-279548D02*
D03*
X-702858D02*
D03*
D91*
X-698032Y-219685D02*
D03*
X-243898Y-9843D02*
D03*
X-252953Y-9941D02*
D03*
X-244181Y-34455D02*
D03*
X-252838D02*
D03*
X-652362Y-239764D02*
D03*
X-642913Y-265748D02*
D03*
X-661811D02*
D03*
X-642913Y-239764D02*
D03*
X-661811D02*
D03*
X-707480Y-245669D02*
D03*
X-688681Y-245768D02*
D03*
X-688583Y-219685D02*
D03*
X-707480D02*
D03*
X-466142Y-48819D02*
D03*
X-492126Y-58268D02*
D03*
X-466142Y-67717D02*
D03*
X-492126Y-48819D02*
D03*
Y-67717D02*
D03*
D92*
X-382028Y-233661D02*
D03*
X-385945Y-230118D02*
D03*
X-374193Y-233661D02*
D03*
X-378110Y-244587D02*
D03*
X-382028D02*
D03*
X-385945Y-233661D02*
D03*
X-378110Y-223031D02*
D03*
X-382028Y-240945D02*
D03*
X-385945Y-219488D02*
D03*
Y-212106D02*
D03*
X-378110Y-230118D02*
D03*
X-374193Y-215846D02*
D03*
X-385945D02*
D03*
X-378110Y-237303D02*
D03*
X-382028Y-223031D02*
D03*
X-374193Y-212106D02*
D03*
X-378110Y-233661D02*
D03*
X-374193Y-219488D02*
D03*
Y-244587D02*
D03*
Y-230118D02*
D03*
Y-223031D02*
D03*
Y-237303D02*
D03*
X-382028Y-230118D02*
D03*
X-385945Y-226476D02*
D03*
X-378110Y-219488D02*
D03*
Y-215846D02*
D03*
X-385945Y-240945D02*
D03*
X-382028Y-237303D02*
D03*
X-385945Y-244587D02*
D03*
X-382028Y-215846D02*
D03*
X-385945Y-237303D02*
D03*
Y-223031D02*
D03*
X-378110Y-212106D02*
D03*
X-382028Y-219488D02*
D03*
X-378110Y-240945D02*
D03*
Y-226476D02*
D03*
X-382028D02*
D03*
X-374193D02*
D03*
Y-240945D02*
D03*
X-382028Y-212106D02*
D03*
X-370276Y-244587D02*
D03*
X-389862D02*
D03*
X-370276Y-240945D02*
D03*
X-389862D02*
D03*
X-370276Y-237303D02*
D03*
X-389862D02*
D03*
X-370276Y-233661D02*
D03*
X-389862D02*
D03*
X-370276Y-230118D02*
D03*
X-389862D02*
D03*
X-370276Y-226476D02*
D03*
X-389862D02*
D03*
X-370276Y-223031D02*
D03*
X-389862D02*
D03*
X-370276Y-219488D02*
D03*
X-389862D02*
D03*
X-370276Y-215846D02*
D03*
X-389862D02*
D03*
Y-212106D02*
D03*
X-370276D02*
D03*
D93*
X-127422Y-259268D02*
D03*
D94*
X-517913Y-202953D02*
D03*
X-520374Y-102461D02*
D03*
X-303740Y-167224D02*
D03*
X-565158Y-57677D02*
D03*
X-214961Y-77854D02*
D03*
X-629232Y-91043D02*
D03*
X-609547Y-13091D02*
D03*
D95*
X-594685Y-223721D02*
D03*
D96*
X-11811Y-15748D02*
D03*
Y-287402D02*
D03*
X-724409Y-15748D02*
D03*
Y-287402D02*
D03*
M02*
