G04*
G04 #@! TF.GenerationSoftware,Altium Limited,Altium Designer,19.1.8 (144)*
G04*
G04 Layer_Color=32896*
%FSLAX25Y25*%
%MOIN*%
G70*
G01*
G75*
%ADD10C,0.00984*%
%ADD11C,0.01000*%
%ADD12C,0.00787*%
%ADD153C,0.01544*%
%ADD154C,0.00926*%
%ADD155C,0.01235*%
%ADD156R,0.02362X0.19291*%
G36*
X78090Y-62090D02*
X78224Y-62102D01*
X78353Y-62137D01*
X78475Y-62194D01*
X78585Y-62271D01*
X78680Y-62366D01*
X78757Y-62476D01*
X78814Y-62598D01*
X78848Y-62728D01*
X78860Y-62862D01*
X78848Y-62996D01*
X78814Y-63126D01*
X78757Y-63248D01*
X78680Y-63358D01*
X78585Y-63453D01*
X78475Y-63530D01*
X78353Y-63587D01*
X78224Y-63622D01*
X78090Y-63634D01*
X77956Y-63622D01*
X77826Y-63587D01*
X77705Y-63530D01*
X77595Y-63453D01*
X77500Y-63358D01*
X77423Y-63248D01*
X77366Y-63126D01*
X77332Y-62996D01*
X77320Y-62862D01*
X77332Y-62728D01*
X77366Y-62598D01*
X77423Y-62476D01*
X77500Y-62366D01*
X77595Y-62271D01*
X77705Y-62194D01*
X77826Y-62137D01*
X77956Y-62102D01*
X78090Y-62090D01*
D01*
D02*
G37*
G36*
X244986Y-83362D02*
X244852Y-83350D01*
X244723Y-83315D01*
X244601Y-83259D01*
X244491Y-83182D01*
X244396Y-83086D01*
X244319Y-82976D01*
X244262Y-82854D01*
X244228Y-82724D01*
X244216Y-82591D01*
X244228Y-82456D01*
X244262Y-82326D01*
X244319Y-82205D01*
X244396Y-82095D01*
X244491Y-81999D01*
X244601Y-81922D01*
X244723Y-81865D01*
X244852Y-81831D01*
X244986Y-81819D01*
X245120Y-81831D01*
X245250Y-81865D01*
X245371Y-81922D01*
X245481Y-81999D01*
X245576Y-82095D01*
X245653Y-82205D01*
X245710Y-82326D01*
X245744Y-82456D01*
X245756Y-82591D01*
X245744Y-82724D01*
X245710Y-82854D01*
X245653Y-82976D01*
X245576Y-83086D01*
X245481Y-83182D01*
X245371Y-83259D01*
X245250Y-83315D01*
X245120Y-83350D01*
X244986Y-83362D01*
D01*
D02*
G37*
G36*
X289868Y-84475D02*
X289734Y-84464D01*
X289605Y-84429D01*
X289483Y-84372D01*
X289373Y-84295D01*
X289278Y-84200D01*
X289201Y-84089D01*
X289144Y-83968D01*
X289109Y-83838D01*
X289098Y-83704D01*
X289109Y-83570D01*
X289144Y-83440D01*
X289201Y-83318D01*
X289278Y-83208D01*
X289373Y-83113D01*
X289483Y-83035D01*
X289605Y-82979D01*
X289734Y-82944D01*
X289868Y-82932D01*
X290002Y-82944D01*
X290131Y-82979D01*
X290253Y-83035D01*
X290363Y-83113D01*
X290458Y-83208D01*
X290535Y-83318D01*
X290592Y-83440D01*
X290626Y-83570D01*
X290638Y-83704D01*
X290626Y-83838D01*
X290592Y-83968D01*
X290535Y-84089D01*
X290458Y-84200D01*
X290363Y-84295D01*
X290253Y-84372D01*
X290131Y-84429D01*
X290002Y-84464D01*
X289868Y-84475D01*
D01*
D02*
G37*
G36*
X573228Y-160630D02*
X573058Y-160615D01*
X572892Y-160571D01*
X572737Y-160498D01*
X572596Y-160400D01*
X572475Y-160278D01*
X572376Y-160138D01*
X572304Y-159982D01*
X572260Y-159817D01*
X572245Y-159646D01*
X572260Y-159475D01*
X572304Y-159309D01*
X572376Y-159153D01*
X572475Y-159013D01*
X572596Y-158892D01*
X572737Y-158793D01*
X572892Y-158721D01*
X573058Y-158676D01*
X573228Y-158661D01*
X573399Y-158676D01*
X573565Y-158721D01*
X573720Y-158793D01*
X573861Y-158892D01*
X573982Y-159013D01*
X574080Y-159153D01*
X574153Y-159309D01*
X574197Y-159475D01*
X574212Y-159646D01*
X574197Y-159817D01*
X574153Y-159982D01*
X574080Y-160138D01*
X573982Y-160278D01*
X573861Y-160400D01*
X573720Y-160498D01*
X573565Y-160571D01*
X573399Y-160615D01*
X573228Y-160630D01*
D01*
D02*
G37*
G36*
X630621Y-11876D02*
X630633Y-11742D01*
X630667Y-11612D01*
X630724Y-11491D01*
X630801Y-11381D01*
X630897Y-11286D01*
X631006Y-11209D01*
X631128Y-11152D01*
X631258Y-11117D01*
X631392Y-11106D01*
X631526Y-11117D01*
X631656Y-11152D01*
X631778Y-11209D01*
X631888Y-11286D01*
X631983Y-11381D01*
X632060Y-11491D01*
X632117Y-11612D01*
X632152Y-11742D01*
X632163Y-11876D01*
X632152Y-12009D01*
X632117Y-12139D01*
X632060Y-12261D01*
X631983Y-12371D01*
X631888Y-12466D01*
X631778Y-12543D01*
X631656Y-12600D01*
X631526Y-12634D01*
X631392Y-12646D01*
X631258Y-12634D01*
X631128Y-12600D01*
X631006Y-12543D01*
X630897Y-12466D01*
X630801Y-12371D01*
X630724Y-12261D01*
X630667Y-12139D01*
X630633Y-12009D01*
X630621Y-11876D01*
D01*
D02*
G37*
G36*
X680318Y-9596D02*
X680113Y-9578D01*
X679914Y-9525D01*
X679728Y-9438D01*
X679559Y-9320D01*
X679413Y-9174D01*
X679295Y-9006D01*
X679208Y-8819D01*
X679155Y-8620D01*
X679137Y-8415D01*
X679155Y-8210D01*
X679208Y-8011D01*
X679295Y-7825D01*
X679413Y-7656D01*
X679559Y-7511D01*
X679728Y-7393D01*
X679914Y-7306D01*
X680113Y-7252D01*
X680318Y-7235D01*
X680523Y-7252D01*
X680722Y-7306D01*
X680909Y-7393D01*
X681077Y-7511D01*
X681223Y-7656D01*
X681341Y-7825D01*
X681428Y-8011D01*
X681481Y-8210D01*
X681499Y-8415D01*
X681481Y-8620D01*
X681428Y-8819D01*
X681341Y-9006D01*
X681223Y-9174D01*
X681077Y-9320D01*
X680909Y-9438D01*
X680722Y-9525D01*
X680523Y-9578D01*
X680318Y-9596D01*
D01*
D02*
G37*
D10*
X97342Y-64173D02*
X96604Y-63747D01*
Y-64599D01*
X97342Y-64173D01*
X41618D02*
X40880Y-63747D01*
Y-64599D01*
X41618Y-64173D01*
D11*
X412600Y-44079D02*
X412445Y-43105D01*
X411998Y-42227D01*
X411301Y-41530D01*
X410423Y-41082D01*
X409449Y-40928D01*
X408475Y-41082D01*
X407597Y-41530D01*
X406900Y-42227D01*
X406452Y-43105D01*
X406298Y-44079D01*
X711811Y-47278D02*
X711796Y-46271D01*
X711748Y-45265D01*
X711668Y-44261D01*
X711557Y-43260D01*
X711414Y-42263D01*
X711239Y-41271D01*
X711033Y-40286D01*
X710796Y-39307D01*
X710529Y-38336D01*
X710230Y-37374D01*
X709902Y-36422D01*
X709543Y-35481D01*
X709155Y-34552D01*
X708737Y-33635D01*
X708291Y-32732D01*
X707817Y-31844D01*
X707314Y-30971D01*
X706784Y-30115D01*
X706227Y-29276D01*
X705645Y-28454D01*
X705036Y-27652D01*
X704402Y-26869D01*
X703744Y-26107D01*
X703062Y-25366D01*
X702357Y-24647D01*
X701629Y-23951D01*
X700880Y-23278D01*
X700110Y-22629D01*
X699319Y-22005D01*
X698510Y-21406D01*
X697681Y-20833D01*
X696835Y-20286D01*
X695973Y-19767D01*
X695094Y-19275D01*
X694200Y-18811D01*
X693292Y-18376D01*
X692370Y-17970D01*
X691436Y-17593D01*
X690491Y-17246D01*
X689535Y-16929D01*
X688569Y-16642D01*
X687595Y-16386D01*
X686614Y-16161D01*
X685999Y-78410D02*
X686977Y-78204D01*
X687948Y-77967D01*
X688912Y-77700D01*
X689866Y-77403D01*
X690811Y-77077D01*
X691745Y-76720D01*
X692667Y-76335D01*
X693577Y-75921D01*
X694473Y-75479D01*
X695355Y-75009D01*
X696222Y-74511D01*
X697073Y-73987D01*
X697907Y-73436D01*
X698724Y-72859D01*
X699521Y-72257D01*
X700300Y-71631D01*
X701059Y-70980D01*
X701797Y-70306D01*
X702513Y-69608D01*
X703207Y-68889D01*
X703879Y-68149D01*
X704526Y-67387D01*
X705150Y-66606D01*
X705749Y-65806D01*
X706322Y-64987D01*
X706870Y-64151D01*
X707391Y-63298D01*
X707885Y-62429D01*
X708352Y-61545D01*
X708790Y-60647D01*
X709201Y-59736D01*
X709582Y-58812D01*
X709935Y-57877D01*
X710258Y-56931D01*
X710551Y-55975D01*
X710814Y-55011D01*
X711047Y-54039D01*
X711249Y-53060D01*
X711421Y-52075D01*
X711561Y-51086D01*
X711670Y-50092D01*
X711749Y-49095D01*
X711796Y-48097D01*
X711811Y-47098D01*
X648818Y-47117D02*
X648834Y-48116D01*
X648881Y-49113D01*
X648959Y-50109D01*
X649069Y-51102D01*
X649209Y-52091D01*
X649380Y-53075D01*
X649582Y-54053D01*
X649815Y-55024D01*
X650078Y-55988D01*
X650371Y-56943D01*
X650694Y-57888D01*
X651046Y-58823D01*
X651427Y-59746D01*
X651837Y-60656D01*
X652276Y-61554D01*
X652742Y-62437D01*
X653235Y-63305D01*
X653756Y-64158D01*
X654303Y-64994D01*
X654876Y-65812D01*
X655475Y-66611D01*
X656098Y-67392D01*
X656745Y-68152D01*
X657416Y-68893D01*
X658110Y-69611D01*
X658826Y-70308D01*
X659563Y-70981D01*
X660321Y-71632D01*
X661099Y-72258D01*
X661897Y-72860D01*
X662712Y-73436D01*
X663546Y-73986D01*
X664396Y-74510D01*
X665262Y-75007D01*
X666144Y-75477D01*
X667039Y-75919D01*
X667948Y-76333D01*
X668870Y-76718D01*
X669803Y-77074D01*
X670747Y-77400D01*
X671701Y-77697D01*
X672664Y-77964D01*
X673634Y-78200D01*
X674611Y-78406D01*
X674403Y-16162D02*
X673434Y-16366D01*
X672471Y-16601D01*
X671516Y-16865D01*
X670570Y-17160D01*
X669634Y-17483D01*
X668708Y-17837D01*
X667794Y-18218D01*
X666892Y-18629D01*
X666004Y-19067D01*
X665130Y-19533D01*
X664270Y-20026D01*
X663427Y-20546D01*
X662600Y-21092D01*
X661791Y-21664D01*
X661000Y-22260D01*
X660228Y-22882D01*
X659476Y-23527D01*
X658745Y-24195D01*
X658035Y-24886D01*
X657347Y-25599D01*
X656681Y-26333D01*
X656039Y-27087D01*
X655421Y-27861D01*
X654828Y-28655D01*
X654259Y-29466D01*
X653717Y-30295D01*
X653200Y-31140D01*
X652710Y-32002D01*
X652248Y-32878D01*
X651813Y-33768D01*
X651406Y-34671D01*
X651028Y-35587D01*
X650679Y-36514D01*
X650359Y-37452D01*
X650068Y-38399D01*
X649807Y-39355D01*
X649577Y-40318D01*
X649376Y-41288D01*
X649206Y-42265D01*
X649067Y-43245D01*
X648958Y-44230D01*
X648881Y-45218D01*
X648834Y-46207D01*
X648819Y-47198D01*
X646169Y-66280D02*
X645140Y-66506D01*
X644480Y-67328D01*
Y-68381D01*
X645140Y-69202D01*
X646169Y-69428D01*
X111221Y-53557D02*
Y-40144D01*
X103740Y-53557D02*
Y-40144D01*
Y-53557D02*
X111221D01*
X103740Y-40144D02*
X111221D01*
X235632Y-33463D02*
X240746D01*
X212403Y-33857D02*
X217518D01*
X213191Y-67322D02*
X218305D01*
X187207Y-34253D02*
X192321D01*
X145868Y-37995D02*
X150982D01*
X52211Y-53937D02*
X78194D01*
X52211Y-42913D02*
X78194D01*
X52211Y-53937D02*
Y-42913D01*
X78194Y-53937D02*
Y-42913D01*
X44081Y-48226D02*
X49195D01*
X70687Y-82465D02*
X75801D01*
X151774Y-82085D02*
Y-76970D01*
X189763Y-80116D02*
Y-75002D01*
X412600Y-44075D02*
X422047D01*
X396850D02*
X406298D01*
X396850Y-23602D02*
X422047D01*
Y-44075D02*
Y-23602D01*
X396850Y-44075D02*
Y-23602D01*
X418624Y-216024D02*
Y-206024D01*
X448620D01*
Y-216024D02*
Y-206024D01*
X418624Y-216024D02*
X448620D01*
X289764Y-103652D02*
Y-92629D01*
X315747Y-103652D02*
Y-92629D01*
X289764Y-103652D02*
X315747D01*
X289764Y-92629D02*
X315747D01*
X435434Y-154709D02*
Y-149594D01*
X690787Y-294094D02*
Y-283071D01*
X660787Y-294094D02*
X690787D01*
X660787D02*
Y-283071D01*
X690787D01*
X651299Y-84999D02*
X661299D01*
Y-105001D02*
Y-84999D01*
X651299Y-105001D02*
X661299D01*
X651299D02*
Y-84999D01*
X340118Y-23740D02*
X360118D01*
Y-243740D02*
Y-23740D01*
X340118Y-243740D02*
X360118D01*
X340118D02*
Y-23740D01*
X320086Y-84449D02*
X325200D01*
X237515Y-97047D02*
X242630D01*
X89175Y-217124D02*
X94289D01*
X81301D02*
X86415D01*
X21852Y-245475D02*
X26967D01*
X646162Y-74548D02*
Y-69429D01*
Y-66280D02*
Y-61161D01*
X605611D02*
X646162D01*
X605611Y-74548D02*
X646162D01*
X605611D02*
Y-61161D01*
X624409Y-12796D02*
X626378D01*
X624409Y-24606D02*
Y-12796D01*
Y-24606D02*
X626378D01*
Y-12796D01*
X625593Y-48817D02*
Y-43703D01*
X604530Y-82872D02*
Y-77758D01*
X436006Y-50179D02*
X441120D01*
X430903Y-104132D02*
Y-99018D01*
X436788Y-193082D02*
Y-187968D01*
X497049Y-169884D02*
X502163D01*
X504248Y-169511D02*
X509363D01*
X389103Y-91386D02*
Y-81386D01*
X409105D01*
Y-91386D02*
Y-81386D01*
X389103Y-91386D02*
X409105D01*
X316932Y-73625D02*
X319288D01*
X316932Y-79918D02*
X319288D01*
Y-73625D01*
X318543Y-79918D02*
Y-73625D01*
X334253Y-143108D02*
Y-137994D01*
X244882Y-102539D02*
Y-91515D01*
X270865Y-102539D02*
Y-91515D01*
X244882Y-102539D02*
X270865D01*
X244882Y-91515D02*
X270865D01*
X234643Y-91729D02*
Y-89373D01*
X228350Y-91729D02*
Y-89373D01*
Y-91729D02*
X234643D01*
X228350Y-90984D02*
X234643D01*
X207621Y-130581D02*
Y-125467D01*
X169044Y-100982D02*
X174158D01*
X140125D02*
X145239D01*
X97837Y-214368D02*
Y-209254D01*
X74805Y-177163D02*
X79919D01*
X146385Y-192255D02*
X151499D01*
X81498Y-177163D02*
X86612D01*
X87994Y-177360D02*
X93108D01*
X116358Y-170566D02*
Y-165452D01*
X115978Y-131091D02*
Y-125976D01*
X619640Y-108679D02*
Y-103565D01*
X469097Y-91931D02*
X474211D01*
X511420Y-89762D02*
Y-84648D01*
X408067Y-147045D02*
Y-141931D01*
X207692Y-114474D02*
Y-109360D01*
X208268Y-174663D02*
Y-169548D01*
Y-181356D02*
Y-176241D01*
X115978Y-118248D02*
Y-113134D01*
X115788Y-153105D02*
Y-147991D01*
X17124Y-215549D02*
Y-210435D01*
X274018Y-94489D02*
X279132D01*
X287398Y-88579D02*
Y-86224D01*
X281105Y-88579D02*
Y-86224D01*
Y-88579D02*
X287398D01*
X281105Y-87835D02*
X287398D01*
X29136Y-245278D02*
X34250D01*
X36026Y-245475D02*
X41140D01*
X625785Y-49014D02*
Y-43900D01*
X579134Y-178740D02*
Y-164567D01*
X567323Y-178740D02*
Y-164567D01*
X192062Y-102096D02*
X197176D01*
X191053Y-191419D02*
X196168D01*
X183708D02*
X188822D01*
X162212Y-100982D02*
X167326D01*
X162285Y-192255D02*
X167399D01*
X154399D02*
X159513D01*
X132791Y-100982D02*
X137905D01*
X610829Y-102950D02*
X615943D01*
X456104Y-92325D02*
X461219D01*
X72835Y-23923D02*
Y-28922D01*
X71835Y-29921D01*
X69836D01*
X68836Y-28922D01*
Y-23923D01*
X66837Y-29921D02*
X64837D01*
X65837D01*
Y-23923D01*
X66837Y-24923D01*
X61838D02*
X60839Y-23923D01*
X58839D01*
X57840Y-24923D01*
Y-25923D01*
X58839Y-26922D01*
X57840Y-27922D01*
Y-28922D01*
X58839Y-29921D01*
X60839D01*
X61838Y-28922D01*
Y-27922D01*
X60839Y-26922D01*
X61838Y-25923D01*
Y-24923D01*
X60839Y-26922D02*
X58839D01*
X122441Y-47545D02*
Y-53543D01*
X118442D01*
X116443Y-48545D02*
X115443Y-47545D01*
X113444D01*
X112444Y-48545D01*
Y-49545D01*
X113444Y-50544D01*
X112444Y-51544D01*
Y-52544D01*
X113444Y-53543D01*
X115443D01*
X116443Y-52544D01*
Y-51544D01*
X115443Y-50544D01*
X116443Y-49545D01*
Y-48545D01*
X115443Y-50544D02*
X113444D01*
X88702Y-23290D02*
X87703Y-22290D01*
Y-20291D01*
X88702Y-19291D01*
X92701D01*
X93701Y-20291D01*
Y-22290D01*
X92701Y-23290D01*
X93701Y-25289D02*
Y-27289D01*
Y-26289D01*
X87703D01*
X88702Y-25289D01*
X93701Y-34286D02*
Y-30288D01*
X89702Y-34286D01*
X88702D01*
X87703Y-33287D01*
Y-31288D01*
X88702Y-30288D01*
X87703Y-40285D02*
X88702Y-38285D01*
X90702Y-36286D01*
X92701D01*
X93701Y-37286D01*
Y-39285D01*
X92701Y-40285D01*
X91701D01*
X90702Y-39285D01*
Y-36286D01*
X22167Y-49274D02*
X21167Y-48275D01*
Y-46275D01*
X22167Y-45276D01*
X26166D01*
X27165Y-46275D01*
Y-48275D01*
X26166Y-49274D01*
X27165Y-51274D02*
Y-53273D01*
Y-52273D01*
X21167D01*
X22167Y-51274D01*
X27165Y-60271D02*
Y-56272D01*
X23167Y-60271D01*
X22167D01*
X21167Y-59271D01*
Y-57272D01*
X22167Y-56272D01*
X21167Y-66269D02*
Y-62270D01*
X24166D01*
X23167Y-64269D01*
Y-65269D01*
X24166Y-66269D01*
X26166D01*
X27165Y-65269D01*
Y-63270D01*
X26166Y-62270D01*
X147236Y-68191D02*
X148236Y-67191D01*
X150235D01*
X151235Y-68191D01*
Y-72189D01*
X150235Y-73189D01*
X148236D01*
X147236Y-72189D01*
X145237Y-73189D02*
X143237D01*
X144237D01*
Y-67191D01*
X145237Y-68191D01*
X140238Y-73189D02*
X138239D01*
X139239D01*
Y-67191D01*
X140238Y-68191D01*
X132241Y-73189D02*
Y-67191D01*
X135240Y-70190D01*
X131241D01*
X124985Y-19159D02*
Y-25157D01*
X120986D01*
X118987Y-19159D02*
X114988D01*
Y-20159D01*
X118987Y-24158D01*
Y-25157D01*
X78860Y-70928D02*
X77860Y-69928D01*
Y-67929D01*
X78860Y-66929D01*
X82859D01*
X83858Y-67929D01*
Y-69928D01*
X82859Y-70928D01*
X83858Y-72927D02*
Y-74927D01*
Y-73927D01*
X77860D01*
X78860Y-72927D01*
X83858Y-81924D02*
Y-77926D01*
X79860Y-81924D01*
X78860D01*
X77860Y-80925D01*
Y-78925D01*
X78860Y-77926D01*
X83858Y-86923D02*
X77860D01*
X80859Y-83924D01*
Y-87922D01*
X45002Y-29589D02*
X44002Y-28590D01*
Y-26590D01*
X45002Y-25591D01*
X49000D01*
X50000Y-26590D01*
Y-28590D01*
X49000Y-29589D01*
X50000Y-31589D02*
Y-33588D01*
Y-32588D01*
X44002D01*
X45002Y-31589D01*
X50000Y-40586D02*
Y-36587D01*
X46001Y-40586D01*
X45002D01*
X44002Y-39586D01*
Y-37587D01*
X45002Y-36587D01*
Y-42585D02*
X44002Y-43585D01*
Y-45584D01*
X45002Y-46584D01*
X46001D01*
X47001Y-45584D01*
Y-44584D01*
Y-45584D01*
X48001Y-46584D01*
X49000D01*
X50000Y-45584D01*
Y-43585D01*
X49000Y-42585D01*
X221773Y-66597D02*
X220774Y-65597D01*
Y-63598D01*
X221773Y-62598D01*
X225772D01*
X226772Y-63598D01*
Y-65597D01*
X225772Y-66597D01*
X226772Y-68597D02*
Y-70596D01*
Y-69596D01*
X220774D01*
X221773Y-68597D01*
X226772Y-77594D02*
Y-73595D01*
X222773Y-77594D01*
X221773D01*
X220774Y-76594D01*
Y-74595D01*
X221773Y-73595D01*
Y-79593D02*
X220774Y-80593D01*
Y-82592D01*
X221773Y-83592D01*
X225772D01*
X226772Y-82592D01*
Y-80593D01*
X225772Y-79593D01*
X221773D01*
X204844Y-34707D02*
X203844Y-33708D01*
Y-31708D01*
X204844Y-30709D01*
X208843D01*
X209842Y-31708D01*
Y-33708D01*
X208843Y-34707D01*
X209842Y-36707D02*
Y-38706D01*
Y-37706D01*
X203844D01*
X204844Y-36707D01*
X209842Y-41705D02*
Y-43705D01*
Y-42705D01*
X203844D01*
X204844Y-41705D01*
Y-46703D02*
X203844Y-47703D01*
Y-49703D01*
X204844Y-50702D01*
X205844D01*
X206843Y-49703D01*
X207843Y-50702D01*
X208843D01*
X209842Y-49703D01*
Y-47703D01*
X208843Y-46703D01*
X207843D01*
X206843Y-47703D01*
X205844Y-46703D01*
X204844D01*
X206843Y-47703D02*
Y-49703D01*
X244608Y-34707D02*
X243608Y-33708D01*
Y-31708D01*
X244608Y-30709D01*
X248607D01*
X249606Y-31708D01*
Y-33708D01*
X248607Y-34707D01*
X249606Y-36707D02*
Y-38706D01*
Y-37706D01*
X243608D01*
X244608Y-36707D01*
X249606Y-41705D02*
Y-43705D01*
Y-42705D01*
X243608D01*
X244608Y-41705D01*
X243608Y-46703D02*
Y-50702D01*
X244608D01*
X248607Y-46703D01*
X249606D01*
X194033Y-11143D02*
X195033Y-10144D01*
X197032D01*
X198031Y-11143D01*
Y-15142D01*
X197032Y-16142D01*
X195033D01*
X194033Y-15142D01*
X192033Y-16142D02*
X190034D01*
X191034D01*
Y-10144D01*
X192033Y-11143D01*
X187035Y-16142D02*
X185036D01*
X186035D01*
Y-10144D01*
X187035Y-11143D01*
X178038Y-10144D02*
X182037D01*
Y-13143D01*
X180037Y-12143D01*
X179038D01*
X178038Y-13143D01*
Y-15142D01*
X179038Y-16142D01*
X181037D01*
X182037Y-15142D01*
X153482Y-15474D02*
X154481Y-14474D01*
X156481D01*
X157480Y-15474D01*
Y-19473D01*
X156481Y-20472D01*
X154481D01*
X153482Y-19473D01*
X151482Y-20472D02*
X149483D01*
X150483D01*
Y-14474D01*
X151482Y-15474D01*
X146484Y-20472D02*
X144484D01*
X145484D01*
Y-14474D01*
X146484Y-15474D01*
X141486D02*
X140486Y-14474D01*
X138487D01*
X137487Y-15474D01*
Y-16474D01*
X138487Y-17473D01*
X139486D01*
X138487D01*
X137487Y-18473D01*
Y-19473D01*
X138487Y-20472D01*
X140486D01*
X141486Y-19473D01*
X206284Y-66234D02*
X207284Y-65234D01*
X209283D01*
X210283Y-66234D01*
Y-70233D01*
X209283Y-71232D01*
X207284D01*
X206284Y-70233D01*
X204285Y-71232D02*
X202286D01*
X203285D01*
Y-65234D01*
X204285Y-66234D01*
X199287Y-71232D02*
X197287D01*
X198287D01*
Y-65234D01*
X199287Y-66234D01*
X190290Y-71232D02*
X194288D01*
X190290Y-67234D01*
Y-66234D01*
X191289Y-65234D01*
X193289D01*
X194288Y-66234D01*
X414490Y-18388D02*
Y-21711D01*
X413825Y-22376D01*
X412496D01*
X411831Y-21711D01*
Y-18388D01*
X410502D02*
X407843D01*
Y-19052D01*
X410502Y-21711D01*
Y-22376D01*
X684887Y-2020D02*
Y-6008D01*
X682893D01*
X682228Y-5344D01*
Y-4679D01*
X682893Y-4014D01*
X684887D01*
X682893D01*
X682228Y-3350D01*
Y-2685D01*
X682893Y-2020D01*
X684887D01*
X680899Y-6008D02*
X679569D01*
X680234D01*
Y-2020D01*
X680899Y-2685D01*
X697691Y-45637D02*
X698957Y-44371D01*
X701490D01*
X702756Y-45637D01*
Y-50702D01*
X701490Y-51968D01*
X698957D01*
X697691Y-50702D01*
X695158Y-51968D02*
Y-44371D01*
X691360D01*
X690093Y-45637D01*
Y-48170D01*
X691360Y-49436D01*
X695158D01*
X692626D02*
X690093Y-51968D01*
X687561D02*
X685028D01*
X686295D01*
Y-44371D01*
X687561Y-45637D01*
X676164Y-51968D02*
X681229D01*
X676164Y-46903D01*
Y-45637D01*
X677431Y-44371D01*
X679963D01*
X681229Y-45637D01*
X668567Y-51968D02*
X673632D01*
X668567Y-46903D01*
Y-45637D01*
X669833Y-44371D01*
X672366D01*
X673632Y-45637D01*
X666035D02*
X664768Y-44371D01*
X662236D01*
X660969Y-45637D01*
Y-50702D01*
X662236Y-51968D01*
X664768D01*
X666035Y-50702D01*
Y-45637D01*
X452667Y-200293D02*
Y-204281D01*
X450673D01*
X450008Y-203616D01*
Y-200957D01*
X450673Y-200293D01*
X452667D01*
X446020D02*
X448679D01*
Y-204281D01*
X446020D01*
X448679Y-202287D02*
X447350D01*
X444691Y-200293D02*
Y-204281D01*
X442697D01*
X442032Y-203616D01*
Y-202951D01*
X442697Y-202287D01*
X444691D01*
X442697D01*
X442032Y-201622D01*
Y-200957D01*
X442697Y-200293D01*
X444691D01*
X440703D02*
Y-203616D01*
X440038Y-204281D01*
X438709D01*
X438044Y-203616D01*
Y-200293D01*
X434056Y-200957D02*
X434721Y-200293D01*
X436050D01*
X436715Y-200957D01*
Y-203616D01*
X436050Y-204281D01*
X434721D01*
X434056Y-203616D01*
Y-202287D01*
X435385D01*
X432726Y-204945D02*
X430068D01*
X428738Y-200293D02*
Y-203616D01*
X428074Y-204281D01*
X426744D01*
X426080Y-203616D01*
Y-200293D01*
X424750Y-204281D02*
Y-201622D01*
X423421Y-200293D01*
X422092Y-201622D01*
Y-204281D01*
Y-202287D01*
X424750D01*
X420762Y-204281D02*
Y-200293D01*
X418768D01*
X418104Y-200957D01*
Y-202287D01*
X418768Y-202951D01*
X420762D01*
X419433D02*
X418104Y-204281D01*
X416774Y-200293D02*
X414115D01*
X415445D01*
Y-204281D01*
X305118Y-76721D02*
Y-80044D01*
X304453Y-80709D01*
X303124D01*
X302459Y-80044D01*
Y-76721D01*
X301130Y-80709D02*
X299801D01*
X300465D01*
Y-76721D01*
X301130Y-77385D01*
X297807Y-80709D02*
X296477D01*
X297142D01*
Y-76721D01*
X297807Y-77385D01*
X445373Y-157307D02*
X446037Y-156642D01*
X447367D01*
X448032Y-157307D01*
Y-159965D01*
X447367Y-160630D01*
X446037D01*
X445373Y-159965D01*
X442049Y-160630D02*
Y-156642D01*
X444043Y-158636D01*
X441385D01*
X437396Y-156642D02*
X438726Y-157307D01*
X440055Y-158636D01*
Y-159965D01*
X439391Y-160630D01*
X438061D01*
X437396Y-159965D01*
Y-159300D01*
X438061Y-158636D01*
X440055D01*
X710051Y-292400D02*
X708722D01*
X709387D01*
Y-288411D01*
X710051Y-289076D01*
X706728D02*
X706063Y-288411D01*
X704734D01*
X704069Y-289076D01*
Y-289741D01*
X704734Y-290406D01*
X705399D01*
X704734D01*
X704069Y-291070D01*
Y-291735D01*
X704734Y-292400D01*
X706063D01*
X706728Y-291735D01*
X702740Y-292400D02*
Y-291735D01*
X702075D01*
Y-292400D01*
X702740D01*
X699416Y-289076D02*
X698752Y-288411D01*
X697423D01*
X696758Y-289076D01*
Y-289741D01*
X697423Y-290406D01*
X696758Y-291070D01*
Y-291735D01*
X697423Y-292400D01*
X698752D01*
X699416Y-291735D01*
Y-291070D01*
X698752Y-290406D01*
X699416Y-289741D01*
Y-289076D01*
X698752Y-290406D02*
X697423D01*
X695428Y-288411D02*
Y-291070D01*
X694099Y-292400D01*
X692770Y-291070D01*
Y-288411D01*
X68898Y-214173D02*
Y-210185D01*
X66904D01*
X66239Y-210850D01*
Y-212179D01*
X66904Y-212844D01*
X68898D01*
X67568D02*
X66239Y-214173D01*
X62251Y-210185D02*
X63580Y-210850D01*
X64909Y-212179D01*
Y-213509D01*
X64245Y-214173D01*
X62915D01*
X62251Y-213509D01*
Y-212844D01*
X62915Y-212179D01*
X64909D01*
X60921Y-214173D02*
X59592D01*
X60257D01*
Y-210185D01*
X60921Y-210850D01*
X660042Y-135106D02*
X660707Y-135771D01*
Y-137100D01*
X660042Y-137765D01*
X659377D01*
X658713Y-137100D01*
Y-135771D01*
X658048Y-135106D01*
X657383D01*
X656719Y-135771D01*
Y-137100D01*
X657383Y-137765D01*
X656719Y-133777D02*
X660707D01*
Y-131783D01*
X660042Y-131118D01*
X658713D01*
X658048Y-131783D01*
Y-133777D01*
X660707Y-127130D02*
Y-129789D01*
X656719D01*
Y-127130D01*
X658713Y-129789D02*
Y-128459D01*
X656719Y-125801D02*
X659377D01*
X660707Y-124471D01*
X659377Y-123142D01*
X656719D01*
X658713D01*
Y-125801D01*
X660707Y-121812D02*
X656719D01*
X658048D01*
X660707Y-119154D01*
X658713Y-121148D01*
X656719Y-119154D01*
X660707Y-115166D02*
Y-117824D01*
X656719D01*
Y-115166D01*
X658713Y-117824D02*
Y-116495D01*
X656719Y-113836D02*
X660707D01*
Y-111842D01*
X660042Y-111178D01*
X658713D01*
X658048Y-111842D01*
Y-113836D01*
Y-112507D02*
X656719Y-111178D01*
X352980Y-18526D02*
X354310D01*
X353645D01*
Y-21849D01*
X354310Y-22514D01*
X354974D01*
X355639Y-21849D01*
X348992Y-18526D02*
X350322Y-19190D01*
X351651Y-20520D01*
Y-21849D01*
X350986Y-22514D01*
X349657D01*
X348992Y-21849D01*
Y-21184D01*
X349657Y-20520D01*
X351651D01*
X317291Y-122428D02*
X317956Y-123093D01*
Y-124422D01*
X317291Y-125087D01*
X314633D01*
X313968Y-124422D01*
Y-123093D01*
X314633Y-122428D01*
X317956Y-118440D02*
X317291Y-119770D01*
X315962Y-121099D01*
X314633D01*
X313968Y-120434D01*
Y-119105D01*
X314633Y-118440D01*
X315297D01*
X315962Y-119105D01*
Y-121099D01*
X317956Y-114452D02*
Y-117111D01*
X315962D01*
X316627Y-115781D01*
Y-115117D01*
X315962Y-114452D01*
X314633D01*
X313968Y-115117D01*
Y-116446D01*
X314633Y-117111D01*
X241512Y-107184D02*
X242177Y-107849D01*
Y-109178D01*
X241512Y-109843D01*
X238854D01*
X238189Y-109178D01*
Y-107849D01*
X238854Y-107184D01*
X242177Y-103196D02*
X241512Y-104525D01*
X240183Y-105854D01*
X238854D01*
X238189Y-105190D01*
Y-103860D01*
X238854Y-103196D01*
X239518D01*
X240183Y-103860D01*
Y-105854D01*
X238854Y-101866D02*
X238189Y-101202D01*
Y-99872D01*
X238854Y-99208D01*
X241512D01*
X242177Y-99872D01*
Y-101202D01*
X241512Y-101866D01*
X240848D01*
X240183Y-101202D01*
Y-99208D01*
X92694Y-247341D02*
X93358Y-248006D01*
Y-249335D01*
X92694Y-250000D01*
X90035D01*
X89370Y-249335D01*
Y-248006D01*
X90035Y-247341D01*
X89370Y-246012D02*
Y-244683D01*
Y-245347D01*
X93358D01*
X92694Y-246012D01*
Y-242688D02*
X93358Y-242024D01*
Y-240694D01*
X92694Y-240030D01*
X90035D01*
X89370Y-240694D01*
Y-242024D01*
X90035Y-242688D01*
X92694D01*
X89370Y-236706D02*
X93358D01*
X91364Y-238700D01*
Y-236042D01*
X85213Y-244192D02*
X85878Y-244856D01*
Y-246186D01*
X85213Y-246850D01*
X82554D01*
X81890Y-246186D01*
Y-244856D01*
X82554Y-244192D01*
Y-242862D02*
X81890Y-242198D01*
Y-240868D01*
X82554Y-240203D01*
X85213D01*
X85878Y-240868D01*
Y-242198D01*
X85213Y-242862D01*
X84548D01*
X83884Y-242198D01*
Y-240203D01*
X85213Y-238874D02*
X85878Y-238210D01*
Y-236880D01*
X85213Y-236215D01*
X84548D01*
X83884Y-236880D01*
Y-237545D01*
Y-236880D01*
X83219Y-236215D01*
X82554D01*
X81890Y-236880D01*
Y-238210D01*
X82554Y-238874D01*
X53937Y-228740D02*
X57925D01*
Y-226746D01*
X57260Y-226081D01*
X55931D01*
X55266Y-226746D01*
Y-228740D01*
Y-227411D02*
X53937Y-226081D01*
Y-222093D02*
Y-224752D01*
X56596Y-222093D01*
X57260D01*
X57925Y-222758D01*
Y-224087D01*
X57260Y-224752D01*
X57925Y-218105D02*
X57260Y-219435D01*
X55931Y-220764D01*
X54602D01*
X53937Y-220099D01*
Y-218770D01*
X54602Y-218105D01*
X55266D01*
X55931Y-218770D01*
Y-220764D01*
X24977Y-257577D02*
X25642Y-258242D01*
Y-259572D01*
X24977Y-260236D01*
X22318D01*
X21654Y-259572D01*
Y-258242D01*
X22318Y-257577D01*
Y-256248D02*
X21654Y-255583D01*
Y-254254D01*
X22318Y-253589D01*
X24977D01*
X25642Y-254254D01*
Y-255583D01*
X24977Y-256248D01*
X24312D01*
X23648Y-255583D01*
Y-253589D01*
X21654Y-249601D02*
Y-252260D01*
X24312Y-249601D01*
X24977D01*
X25642Y-250266D01*
Y-251595D01*
X24977Y-252260D01*
X653150Y-66878D02*
Y-70201D01*
X652485Y-70866D01*
X651156D01*
X650491Y-70201D01*
Y-66878D01*
X649161Y-70866D02*
X647832D01*
X648497D01*
Y-66878D01*
X649161Y-67543D01*
X630522Y-5891D02*
Y-9879D01*
X628528D01*
X627863Y-9214D01*
Y-6556D01*
X628528Y-5891D01*
X630522D01*
X623875Y-9879D02*
X626534D01*
X623875Y-7220D01*
Y-6556D01*
X624540Y-5891D01*
X625869D01*
X626534Y-6556D01*
X623019Y-38757D02*
X623683Y-38092D01*
X625013D01*
X625677Y-38757D01*
Y-41416D01*
X625013Y-42081D01*
X623683D01*
X623019Y-41416D01*
X621689Y-42081D02*
X620360D01*
X621025D01*
Y-38092D01*
X621689Y-38757D01*
X615707Y-38092D02*
X618366D01*
Y-40087D01*
X617036Y-39422D01*
X616372D01*
X615707Y-40087D01*
Y-41416D01*
X616372Y-42081D01*
X617701D01*
X618366Y-41416D01*
X599310Y-72267D02*
X599974Y-71602D01*
X601304D01*
X601968Y-72267D01*
Y-74926D01*
X601304Y-75590D01*
X599974D01*
X599310Y-74926D01*
X597980Y-75590D02*
X596651D01*
X597316D01*
Y-71602D01*
X597980Y-72267D01*
X594657D02*
X593992Y-71602D01*
X592663D01*
X591998Y-72267D01*
Y-72932D01*
X592663Y-73597D01*
X593328D01*
X592663D01*
X591998Y-74261D01*
Y-74926D01*
X592663Y-75590D01*
X593992D01*
X594657Y-74926D01*
X447812Y-47735D02*
X448476Y-48400D01*
Y-49729D01*
X447812Y-50394D01*
X445153D01*
X444488Y-49729D01*
Y-48400D01*
X445153Y-47735D01*
X448476Y-43747D02*
Y-46406D01*
X446482D01*
X447147Y-45076D01*
Y-44412D01*
X446482Y-43747D01*
X445153D01*
X444488Y-44412D01*
Y-45741D01*
X445153Y-46406D01*
Y-42417D02*
X444488Y-41753D01*
Y-40423D01*
X445153Y-39759D01*
X447812D01*
X448476Y-40423D01*
Y-41753D01*
X447812Y-42417D01*
X447147D01*
X446482Y-41753D01*
Y-39759D01*
X442617Y-93242D02*
X443282Y-92577D01*
X444611D01*
X445275Y-93242D01*
Y-95901D01*
X444611Y-96565D01*
X443282D01*
X442617Y-95901D01*
X439293Y-96565D02*
Y-92577D01*
X441287Y-94571D01*
X438629D01*
X437299Y-95901D02*
X436635Y-96565D01*
X435305D01*
X434641Y-95901D01*
Y-93242D01*
X435305Y-92577D01*
X436635D01*
X437299Y-93242D01*
Y-93906D01*
X436635Y-94571D01*
X434641D01*
X465244Y-188596D02*
X465909Y-187932D01*
X467238D01*
X467903Y-188596D01*
Y-191255D01*
X467238Y-191920D01*
X465909D01*
X465244Y-191255D01*
X461256Y-187932D02*
X463915D01*
Y-189926D01*
X462585Y-189261D01*
X461920D01*
X461256Y-189926D01*
Y-191255D01*
X461920Y-191920D01*
X463250D01*
X463915Y-191255D01*
X459927Y-187932D02*
X457268D01*
Y-188596D01*
X459927Y-191255D01*
Y-191920D01*
X493861Y-193091D02*
X494526Y-193755D01*
Y-195085D01*
X493861Y-195749D01*
X491202D01*
X490538Y-195085D01*
Y-193755D01*
X491202Y-193091D01*
X490538Y-189767D02*
X494526D01*
X492531Y-191761D01*
Y-189103D01*
X493861Y-187773D02*
X494526Y-187109D01*
Y-185779D01*
X493861Y-185115D01*
X493196D01*
X492531Y-185779D01*
X491867Y-185115D01*
X491202D01*
X490538Y-185779D01*
Y-187109D01*
X491202Y-187773D01*
X491867D01*
X492531Y-187109D01*
X493196Y-187773D01*
X493861D01*
X492531Y-187109D02*
Y-185779D01*
X515134Y-163877D02*
X515799Y-164541D01*
Y-165871D01*
X515134Y-166535D01*
X512476D01*
X511811Y-165871D01*
Y-164541D01*
X512476Y-163877D01*
X511811Y-160553D02*
X515799D01*
X513805Y-162547D01*
Y-159889D01*
X515799Y-158559D02*
Y-155901D01*
X515134D01*
X512476Y-158559D01*
X511811D01*
X370079Y-48031D02*
X374067D01*
Y-46037D01*
X373402Y-45373D01*
X372073D01*
X371408Y-46037D01*
Y-48031D01*
Y-46702D02*
X370079Y-45373D01*
X373402Y-44043D02*
X374067Y-43379D01*
Y-42049D01*
X373402Y-41385D01*
X372738D01*
X372073Y-42049D01*
Y-42714D01*
Y-42049D01*
X371408Y-41385D01*
X370743D01*
X370079Y-42049D01*
Y-43379D01*
X370743Y-44043D01*
Y-40055D02*
X370079Y-39391D01*
Y-38061D01*
X370743Y-37396D01*
X373402D01*
X374067Y-38061D01*
Y-39391D01*
X373402Y-40055D01*
X372738D01*
X372073Y-39391D01*
Y-37396D01*
X367717Y-32283D02*
X371705D01*
Y-30289D01*
X371040Y-29625D01*
X369711D01*
X369046Y-30289D01*
Y-32283D01*
Y-30954D02*
X367717Y-29625D01*
X371040Y-28295D02*
X371705Y-27631D01*
Y-26301D01*
X371040Y-25637D01*
X370375D01*
X369711Y-26301D01*
Y-26966D01*
Y-26301D01*
X369046Y-25637D01*
X368381D01*
X367717Y-26301D01*
Y-27631D01*
X368381Y-28295D01*
X367717Y-22313D02*
X371705D01*
X369711Y-24307D01*
Y-21648D01*
X411495Y-107152D02*
Y-103164D01*
X409501D01*
X408836Y-103829D01*
Y-105158D01*
X409501Y-105823D01*
X411495D01*
X407507Y-103164D02*
X404848D01*
X406177D01*
Y-107152D01*
X403519Y-103164D02*
X400860D01*
X402189D01*
Y-107152D01*
X399531Y-107817D02*
X396872D01*
X395542Y-103164D02*
X394213D01*
X394878D01*
Y-107152D01*
X395542D01*
X394213D01*
X392219D02*
Y-103164D01*
X389560Y-107152D01*
Y-103164D01*
X321643Y-68285D02*
X322308Y-67620D01*
X323637D01*
X324302Y-68285D01*
Y-70943D01*
X323637Y-71608D01*
X322308D01*
X321643Y-70943D01*
X317655Y-67620D02*
X318984Y-68285D01*
X320314Y-69614D01*
Y-70943D01*
X319649Y-71608D01*
X318320D01*
X317655Y-70943D01*
Y-70279D01*
X318320Y-69614D01*
X320314D01*
X314332Y-71608D02*
Y-67620D01*
X316326Y-69614D01*
X313667D01*
X382415Y-221970D02*
Y-217982D01*
X380420D01*
X379756Y-218647D01*
Y-219976D01*
X380420Y-220641D01*
X382415D01*
X381085D02*
X379756Y-221970D01*
X378426Y-218647D02*
X377762Y-217982D01*
X376432D01*
X375768Y-218647D01*
Y-219312D01*
X376432Y-219976D01*
X377097D01*
X376432D01*
X375768Y-220641D01*
Y-221306D01*
X376432Y-221970D01*
X377762D01*
X378426Y-221306D01*
X374438Y-218647D02*
X373774Y-217982D01*
X372444D01*
X371779Y-218647D01*
Y-219312D01*
X372444Y-219976D01*
X373109D01*
X372444D01*
X371779Y-220641D01*
Y-221306D01*
X372444Y-221970D01*
X373774D01*
X374438Y-221306D01*
X327656Y-131322D02*
X328321Y-130658D01*
X329650D01*
X330315Y-131322D01*
Y-133981D01*
X329650Y-134646D01*
X328321D01*
X327656Y-133981D01*
X323668Y-130658D02*
X326327D01*
Y-132652D01*
X324997Y-131987D01*
X324333D01*
X323668Y-132652D01*
Y-133981D01*
X324333Y-134646D01*
X325662D01*
X326327Y-133981D01*
X322339Y-131322D02*
X321674Y-130658D01*
X320345D01*
X319680Y-131322D01*
Y-131987D01*
X320345Y-132652D01*
X319680Y-133316D01*
Y-133981D01*
X320345Y-134646D01*
X321674D01*
X322339Y-133981D01*
Y-133316D01*
X321674Y-132652D01*
X322339Y-131987D01*
Y-131322D01*
X321674Y-132652D02*
X320345D01*
X264808Y-76163D02*
Y-79486D01*
X264143Y-80151D01*
X262814D01*
X262149Y-79486D01*
Y-76163D01*
X260820Y-80151D02*
X259490D01*
X260155D01*
Y-76163D01*
X260820Y-76828D01*
X254837Y-80151D02*
X257496D01*
X254837Y-77492D01*
Y-76828D01*
X255502Y-76163D01*
X256831D01*
X257496Y-76828D01*
X217680Y-104905D02*
X218344Y-105570D01*
Y-106899D01*
X217680Y-107564D01*
X215021D01*
X214356Y-106899D01*
Y-105570D01*
X215021Y-104905D01*
X218344Y-100917D02*
X217680Y-102246D01*
X216351Y-103576D01*
X215021D01*
X214356Y-102911D01*
Y-101582D01*
X215021Y-100917D01*
X215686D01*
X216351Y-101582D01*
Y-103576D01*
X217680Y-99588D02*
X218344Y-98923D01*
Y-97593D01*
X217680Y-96929D01*
X217015D01*
X216351Y-97593D01*
X215686Y-96929D01*
X215021D01*
X214356Y-97593D01*
Y-98923D01*
X215021Y-99588D01*
X215686D01*
X216351Y-98923D01*
X217015Y-99588D01*
X217680D01*
X216351Y-98923D02*
Y-97593D01*
X236871Y-137499D02*
Y-133511D01*
X234877D01*
X234212Y-134175D01*
Y-135505D01*
X234877Y-136169D01*
X236871D01*
X235542D02*
X234212Y-137499D01*
X230889D02*
Y-133511D01*
X232883Y-135505D01*
X230224D01*
X228895Y-134175D02*
X228230Y-133511D01*
X226901D01*
X226236Y-134175D01*
Y-134840D01*
X226901Y-135505D01*
X226236Y-136169D01*
Y-136834D01*
X226901Y-137499D01*
X228230D01*
X228895Y-136834D01*
Y-136169D01*
X228230Y-135505D01*
X228895Y-134840D01*
Y-134175D01*
X228230Y-135505D02*
X226901D01*
X236300Y-159055D02*
Y-155067D01*
X234306D01*
X233641Y-155731D01*
Y-157061D01*
X234306Y-157725D01*
X236300D01*
X234971D02*
X233641Y-159055D01*
X232312Y-155731D02*
X231647Y-155067D01*
X230318D01*
X229653Y-155731D01*
Y-156396D01*
X230318Y-157061D01*
X230982D01*
X230318D01*
X229653Y-157725D01*
Y-158390D01*
X230318Y-159055D01*
X231647D01*
X232312Y-158390D01*
X228324Y-155731D02*
X227659Y-155067D01*
X226330D01*
X225665Y-155731D01*
Y-158390D01*
X226330Y-159055D01*
X227659D01*
X228324Y-158390D01*
Y-155731D01*
X233007Y-127589D02*
X233672Y-126925D01*
X235001D01*
X235666Y-127589D01*
Y-130248D01*
X235001Y-130913D01*
X233672D01*
X233007Y-130248D01*
X231678Y-126925D02*
X229019D01*
Y-127589D01*
X231678Y-130248D01*
Y-130913D01*
X227689Y-127589D02*
X227025Y-126925D01*
X225695D01*
X225031Y-127589D01*
Y-130248D01*
X225695Y-130913D01*
X227025D01*
X227689Y-130248D01*
Y-127589D01*
X243786Y-280148D02*
Y-276160D01*
X241792D01*
X241127Y-276824D01*
Y-278153D01*
X241792Y-278818D01*
X243786D01*
X242457D02*
X241127Y-280148D01*
X239798Y-276824D02*
X239133Y-276160D01*
X237804D01*
X237139Y-276824D01*
Y-277489D01*
X237804Y-278153D01*
X238468D01*
X237804D01*
X237139Y-278818D01*
Y-279483D01*
X237804Y-280148D01*
X239133D01*
X239798Y-279483D01*
X235810Y-280148D02*
X234480D01*
X235145D01*
Y-276160D01*
X235810Y-276824D01*
X179701Y-95373D02*
X180366Y-96037D01*
Y-97367D01*
X179701Y-98032D01*
X177043D01*
X176378Y-97367D01*
Y-96037D01*
X177043Y-95373D01*
X180366Y-94043D02*
Y-91385D01*
X179701D01*
X177043Y-94043D01*
X176378D01*
X180366Y-87397D02*
X179701Y-88726D01*
X178372Y-90055D01*
X177043D01*
X176378Y-89391D01*
Y-88061D01*
X177043Y-87397D01*
X177707D01*
X178372Y-88061D01*
Y-90055D01*
X150567Y-94979D02*
X151232Y-95644D01*
Y-96973D01*
X150567Y-97638D01*
X147909D01*
X147244Y-96973D01*
Y-95644D01*
X147909Y-94979D01*
X151232Y-93650D02*
Y-90991D01*
X150567D01*
X147909Y-93650D01*
X147244D01*
Y-87668D02*
X151232D01*
X149238Y-89662D01*
Y-87003D01*
X110727Y-210850D02*
X111392Y-210185D01*
X112721D01*
X113386Y-210850D01*
Y-213509D01*
X112721Y-214173D01*
X111392D01*
X110727Y-213509D01*
X109398Y-214173D02*
X108068D01*
X108733D01*
Y-210185D01*
X109398Y-210850D01*
X106074D02*
X105410Y-210185D01*
X104080D01*
X103416Y-210850D01*
Y-213509D01*
X104080Y-214173D01*
X105410D01*
X106074Y-213509D01*
Y-210850D01*
X102086Y-210185D02*
X99427D01*
Y-210850D01*
X102086Y-213509D01*
Y-214173D01*
X78914Y-172538D02*
X79579Y-173203D01*
Y-174532D01*
X78914Y-175197D01*
X76255D01*
X75590Y-174532D01*
Y-173203D01*
X76255Y-172538D01*
X75590Y-171209D02*
Y-169879D01*
Y-170544D01*
X79579D01*
X78914Y-171209D01*
Y-167885D02*
X79579Y-167221D01*
Y-165891D01*
X78914Y-165227D01*
X76255D01*
X75590Y-165891D01*
Y-167221D01*
X76255Y-167885D01*
X78914D01*
Y-163897D02*
X79579Y-163233D01*
Y-161903D01*
X78914Y-161239D01*
X76255D01*
X75590Y-161903D01*
Y-163233D01*
X76255Y-163897D01*
X78914D01*
X149780Y-215845D02*
X150445Y-216510D01*
Y-217839D01*
X149780Y-218504D01*
X147121D01*
X146457Y-217839D01*
Y-216510D01*
X147121Y-215845D01*
Y-214516D02*
X146457Y-213851D01*
Y-212522D01*
X147121Y-211857D01*
X149780D01*
X150445Y-212522D01*
Y-213851D01*
X149780Y-214516D01*
X149115D01*
X148451Y-213851D01*
Y-211857D01*
X146457Y-210528D02*
Y-209198D01*
Y-209863D01*
X150445D01*
X149780Y-210528D01*
X85607Y-172932D02*
X86272Y-173597D01*
Y-174926D01*
X85607Y-175591D01*
X82948D01*
X82284Y-174926D01*
Y-173597D01*
X82948Y-172932D01*
Y-171602D02*
X82284Y-170938D01*
Y-169608D01*
X82948Y-168944D01*
X85607D01*
X86272Y-169608D01*
Y-170938D01*
X85607Y-171602D01*
X84942D01*
X84277Y-170938D01*
Y-168944D01*
X85607Y-167614D02*
X86272Y-166950D01*
Y-165620D01*
X85607Y-164956D01*
X82948D01*
X82284Y-165620D01*
Y-166950D01*
X82948Y-167614D01*
X85607D01*
X91906Y-172932D02*
X92571Y-173597D01*
Y-174926D01*
X91906Y-175591D01*
X89247D01*
X88583Y-174926D01*
Y-173597D01*
X89247Y-172932D01*
X91906Y-171602D02*
X92571Y-170938D01*
Y-169608D01*
X91906Y-168944D01*
X91241D01*
X90577Y-169608D01*
X89912Y-168944D01*
X89247D01*
X88583Y-169608D01*
Y-170938D01*
X89247Y-171602D01*
X89912D01*
X90577Y-170938D01*
X91241Y-171602D01*
X91906D01*
X90577Y-170938D02*
Y-169608D01*
X89247Y-167614D02*
X88583Y-166950D01*
Y-165620D01*
X89247Y-164956D01*
X91906D01*
X92571Y-165620D01*
Y-166950D01*
X91906Y-167614D01*
X91241D01*
X90577Y-166950D01*
Y-164956D01*
X113590Y-160507D02*
X114255Y-159842D01*
X115584D01*
X116249Y-160507D01*
Y-163166D01*
X115584Y-163830D01*
X114255D01*
X113590Y-163166D01*
X112261Y-160507D02*
X111596Y-159842D01*
X110267D01*
X109602Y-160507D01*
Y-161171D01*
X110267Y-161836D01*
X109602Y-162501D01*
Y-163166D01*
X110267Y-163830D01*
X111596D01*
X112261Y-163166D01*
Y-162501D01*
X111596Y-161836D01*
X112261Y-161171D01*
Y-160507D01*
X111596Y-161836D02*
X110267D01*
X108273Y-159842D02*
X105614D01*
Y-160507D01*
X108273Y-163166D01*
Y-163830D01*
X113308Y-121031D02*
X113972Y-120366D01*
X115302D01*
X115966Y-121031D01*
Y-123690D01*
X115302Y-124354D01*
X113972D01*
X113308Y-123690D01*
X111978Y-121031D02*
X111314Y-120366D01*
X109984D01*
X109320Y-121031D01*
Y-121695D01*
X109984Y-122360D01*
X109320Y-123025D01*
Y-123690D01*
X109984Y-124354D01*
X111314D01*
X111978Y-123690D01*
Y-123025D01*
X111314Y-122360D01*
X111978Y-121695D01*
Y-121031D01*
X111314Y-122360D02*
X109984D01*
X105332Y-120366D02*
X106661Y-121031D01*
X107990Y-122360D01*
Y-123690D01*
X107325Y-124354D01*
X105996D01*
X105332Y-123690D01*
Y-123025D01*
X105996Y-122360D01*
X107990D01*
X5498Y-215542D02*
X9486D01*
Y-213548D01*
X8822Y-212883D01*
X7492D01*
X6827Y-213548D01*
Y-215542D01*
Y-214212D02*
X5498Y-212883D01*
X9486Y-208895D02*
X8822Y-210224D01*
X7492Y-211554D01*
X6163D01*
X5498Y-210889D01*
Y-209559D01*
X6163Y-208895D01*
X6827D01*
X7492Y-209559D01*
Y-211554D01*
X9486Y-204907D02*
Y-207565D01*
X7492D01*
X8157Y-206236D01*
Y-205571D01*
X7492Y-204907D01*
X6163D01*
X5498Y-205571D01*
Y-206901D01*
X6163Y-207565D01*
X631934Y-112793D02*
X632599Y-112128D01*
X633928D01*
X634593Y-112793D01*
Y-115451D01*
X633928Y-116116D01*
X632599D01*
X631934Y-115451D01*
X630605Y-116116D02*
X629275D01*
X629940D01*
Y-112128D01*
X630605Y-112793D01*
X625287Y-116116D02*
Y-112128D01*
X627281Y-114122D01*
X624622D01*
X593687Y-172986D02*
Y-168998D01*
X591693D01*
X591028Y-169663D01*
Y-170992D01*
X591693Y-171657D01*
X593687D01*
X592357D02*
X591028Y-172986D01*
X589699D02*
X588369D01*
X589034D01*
Y-168998D01*
X589699Y-169663D01*
X586375D02*
X585711Y-168998D01*
X584381D01*
X583716Y-169663D01*
Y-170327D01*
X584381Y-170992D01*
X583716Y-171657D01*
Y-172321D01*
X584381Y-172986D01*
X585711D01*
X586375Y-172321D01*
Y-171657D01*
X585711Y-170992D01*
X586375Y-170327D01*
Y-169663D01*
X585711Y-170992D02*
X584381D01*
X562992Y-172047D02*
Y-168059D01*
X560998D01*
X560333Y-168724D01*
Y-170053D01*
X560998Y-170718D01*
X562992D01*
X561663D02*
X560333Y-172047D01*
X559004D02*
X557675D01*
X558339D01*
Y-168059D01*
X559004Y-168724D01*
X555681Y-168059D02*
X553022D01*
Y-168724D01*
X555681Y-171382D01*
Y-172047D01*
X463152Y-34036D02*
Y-30048D01*
X461157D01*
X460493Y-30713D01*
Y-32042D01*
X461157Y-32707D01*
X463152D01*
X461822D02*
X460493Y-34036D01*
X457169D02*
Y-30048D01*
X459163Y-32042D01*
X456505D01*
X455175Y-30713D02*
X454511Y-30048D01*
X453181D01*
X452517Y-30713D01*
Y-33371D01*
X453181Y-34036D01*
X454511D01*
X455175Y-33371D01*
Y-30713D01*
X466709Y-85530D02*
X467374Y-86195D01*
Y-87524D01*
X466709Y-88189D01*
X464050D01*
X463386Y-87524D01*
Y-86195D01*
X464050Y-85530D01*
X467374Y-81542D02*
Y-84201D01*
X465380D01*
X466045Y-82872D01*
Y-82207D01*
X465380Y-81542D01*
X464050D01*
X463386Y-82207D01*
Y-83536D01*
X464050Y-84201D01*
X463386Y-80213D02*
Y-78883D01*
Y-79548D01*
X467374D01*
X466709Y-80213D01*
X523751Y-87085D02*
X524416Y-86420D01*
X525745D01*
X526410Y-87085D01*
Y-89744D01*
X525745Y-90408D01*
X524416D01*
X523751Y-89744D01*
X519763Y-86420D02*
X522422D01*
Y-88414D01*
X521092Y-87749D01*
X520428D01*
X519763Y-88414D01*
Y-89744D01*
X520428Y-90408D01*
X521757D01*
X522422Y-89744D01*
X518434Y-87085D02*
X517769Y-86420D01*
X516439D01*
X515775Y-87085D01*
Y-89744D01*
X516439Y-90408D01*
X517769D01*
X518434Y-89744D01*
Y-87085D01*
X472047Y-202362D02*
X476035D01*
Y-200368D01*
X475371Y-199704D01*
X474041D01*
X473377Y-200368D01*
Y-202362D01*
Y-201033D02*
X472047Y-199704D01*
X475371Y-198374D02*
X476035Y-197709D01*
Y-196380D01*
X475371Y-195715D01*
X474706D01*
X474041Y-196380D01*
Y-197045D01*
Y-196380D01*
X473377Y-195715D01*
X472712D01*
X472047Y-196380D01*
Y-197709D01*
X472712Y-198374D01*
X476035Y-191727D02*
X475371Y-193057D01*
X474041Y-194386D01*
X472712D01*
X472047Y-193721D01*
Y-192392D01*
X472712Y-191727D01*
X473377D01*
X474041Y-192392D01*
Y-194386D01*
X419377Y-136986D02*
X420042Y-136321D01*
X421372D01*
X422036Y-136986D01*
Y-139644D01*
X421372Y-140309D01*
X420042D01*
X419377Y-139644D01*
X416054Y-140309D02*
Y-136321D01*
X418048Y-138315D01*
X415389D01*
X414060Y-136986D02*
X413395Y-136321D01*
X412066D01*
X411401Y-136986D01*
Y-139644D01*
X412066Y-140309D01*
X413395D01*
X414060Y-139644D01*
Y-136986D01*
X380488Y-215051D02*
Y-211063D01*
X378495D01*
X377830Y-211727D01*
Y-213057D01*
X378495Y-213721D01*
X380488D01*
X379159D02*
X377830Y-215051D01*
X376500Y-211727D02*
X375836Y-211063D01*
X374506D01*
X373842Y-211727D01*
Y-212392D01*
X374506Y-213057D01*
X375171D01*
X374506D01*
X373842Y-213721D01*
Y-214386D01*
X374506Y-215051D01*
X375836D01*
X376500Y-214386D01*
X372512Y-211063D02*
X369853D01*
Y-211727D01*
X372512Y-214386D01*
Y-215051D01*
X231987Y-106519D02*
X232652Y-105854D01*
X233981D01*
X234646Y-106519D01*
Y-109178D01*
X233981Y-109843D01*
X232652D01*
X231987Y-109178D01*
X230658Y-105854D02*
X227999D01*
Y-106519D01*
X230658Y-109178D01*
Y-109843D01*
X226670Y-106519D02*
X226005Y-105854D01*
X224675D01*
X224011Y-106519D01*
Y-107184D01*
X224675Y-107849D01*
X225340D01*
X224675D01*
X224011Y-108513D01*
Y-109178D01*
X224675Y-109843D01*
X226005D01*
X226670Y-109178D01*
X235656Y-149920D02*
Y-145932D01*
X233662D01*
X232997Y-146597D01*
Y-147926D01*
X233662Y-148591D01*
X235656D01*
X234327D02*
X232997Y-149920D01*
X229674D02*
Y-145932D01*
X231668Y-147926D01*
X229009D01*
X227680Y-145932D02*
X225021D01*
Y-146597D01*
X227680Y-149255D01*
Y-149920D01*
X234851Y-170886D02*
X235516Y-170221D01*
X236845D01*
X237510Y-170886D01*
Y-173545D01*
X236845Y-174209D01*
X235516D01*
X234851Y-173545D01*
X230863Y-170221D02*
X232193Y-170886D01*
X233522Y-172215D01*
Y-173545D01*
X232857Y-174209D01*
X231528D01*
X230863Y-173545D01*
Y-172880D01*
X231528Y-172215D01*
X233522D01*
X226875Y-174209D02*
X229534D01*
X226875Y-171551D01*
Y-170886D01*
X227540Y-170221D01*
X228869D01*
X229534Y-170886D01*
X234068Y-178993D02*
X234732Y-178328D01*
X236062D01*
X236726Y-178993D01*
Y-181651D01*
X236062Y-182316D01*
X234732D01*
X234068Y-181651D01*
X230080Y-178328D02*
X231409Y-178993D01*
X232738Y-180322D01*
Y-181651D01*
X232074Y-182316D01*
X230744D01*
X230080Y-181651D01*
Y-180987D01*
X230744Y-180322D01*
X232738D01*
X228750Y-182316D02*
X227421D01*
X228086D01*
Y-178328D01*
X228750Y-178993D01*
X200394Y-264567D02*
X204382D01*
Y-262573D01*
X203717Y-261908D01*
X202388D01*
X201723Y-262573D01*
Y-264567D01*
Y-263238D02*
X200394Y-261908D01*
X203717Y-260579D02*
X204382Y-259914D01*
Y-258585D01*
X203717Y-257920D01*
X203052D01*
X202388Y-258585D01*
Y-259249D01*
Y-258585D01*
X201723Y-257920D01*
X201058D01*
X200394Y-258585D01*
Y-259914D01*
X201058Y-260579D01*
X200394Y-253932D02*
Y-256591D01*
X203052Y-253932D01*
X203717D01*
X204382Y-254597D01*
Y-255926D01*
X203717Y-256591D01*
X113115Y-108188D02*
X113780Y-107523D01*
X115109D01*
X115774Y-108188D01*
Y-110847D01*
X115109Y-111511D01*
X113780D01*
X113115Y-110847D01*
X111786Y-108188D02*
X111121Y-107523D01*
X109792D01*
X109127Y-108188D01*
Y-108853D01*
X109792Y-109517D01*
X109127Y-110182D01*
Y-110847D01*
X109792Y-111511D01*
X111121D01*
X111786Y-110847D01*
Y-110182D01*
X111121Y-109517D01*
X111786Y-108853D01*
Y-108188D01*
X111121Y-109517D02*
X109792D01*
X105804Y-111511D02*
Y-107523D01*
X107798Y-109517D01*
X105139D01*
X107480Y-142126D02*
Y-138138D01*
X105486D01*
X104822Y-138803D01*
Y-140132D01*
X105486Y-140797D01*
X107480D01*
X106151D02*
X104822Y-142126D01*
X100833D02*
X103492D01*
X100833Y-139467D01*
Y-138803D01*
X101498Y-138138D01*
X102828D01*
X103492Y-138803D01*
X97510Y-142126D02*
Y-138138D01*
X99504Y-140132D01*
X96845D01*
X96948Y-149039D02*
X97612Y-148374D01*
X98942D01*
X99606Y-149039D01*
Y-151698D01*
X98942Y-152362D01*
X97612D01*
X96948Y-151698D01*
X95618Y-149039D02*
X94954Y-148374D01*
X93624D01*
X92959Y-149039D01*
Y-149704D01*
X93624Y-150368D01*
X92959Y-151033D01*
Y-151698D01*
X93624Y-152362D01*
X94954D01*
X95618Y-151698D01*
Y-151033D01*
X94954Y-150368D01*
X95618Y-149704D01*
Y-149039D01*
X94954Y-150368D02*
X93624D01*
X91630Y-149039D02*
X90965Y-148374D01*
X89636D01*
X88971Y-149039D01*
Y-149704D01*
X89636Y-150368D01*
X88971Y-151033D01*
Y-151698D01*
X89636Y-152362D01*
X90965D01*
X91630Y-151698D01*
Y-151033D01*
X90965Y-150368D01*
X91630Y-149704D01*
Y-149039D01*
X90965Y-150368D02*
X89636D01*
X30286Y-205489D02*
X30951Y-204825D01*
X32280D01*
X32945Y-205489D01*
Y-208148D01*
X32280Y-208813D01*
X30951D01*
X30286Y-208148D01*
X28957Y-208813D02*
X27627D01*
X28292D01*
Y-204825D01*
X28957Y-205489D01*
X25633D02*
X24969Y-204825D01*
X23639D01*
X22975Y-205489D01*
Y-208148D01*
X23639Y-208813D01*
X24969D01*
X25633Y-208148D01*
Y-205489D01*
X21645Y-208813D02*
X20316D01*
X20980D01*
Y-204825D01*
X21645Y-205489D01*
X270829Y-117112D02*
X271494Y-117777D01*
Y-119106D01*
X270829Y-119771D01*
X268171D01*
X267506Y-119106D01*
Y-117777D01*
X268171Y-117112D01*
X271494Y-113124D02*
X270829Y-114453D01*
X269500Y-115783D01*
X268171D01*
X267506Y-115118D01*
Y-113789D01*
X268171Y-113124D01*
X268835D01*
X269500Y-113789D01*
Y-115783D01*
X271494Y-111795D02*
Y-109136D01*
X270829D01*
X268171Y-111795D01*
X267506D01*
X278310Y-118590D02*
X278974Y-119254D01*
Y-120584D01*
X278310Y-121248D01*
X275651D01*
X274986Y-120584D01*
Y-119254D01*
X275651Y-118590D01*
X278974Y-114602D02*
X278310Y-115931D01*
X276980Y-117260D01*
X275651D01*
X274986Y-116596D01*
Y-115266D01*
X275651Y-114602D01*
X276316D01*
X276980Y-115266D01*
Y-117260D01*
X278974Y-110613D02*
X278310Y-111943D01*
X276980Y-113272D01*
X275651D01*
X274986Y-112607D01*
Y-111278D01*
X275651Y-110613D01*
X276316D01*
X276980Y-111278D01*
Y-113272D01*
X74410Y-245669D02*
X78398D01*
Y-243675D01*
X77733Y-243011D01*
X76403D01*
X75739Y-243675D01*
Y-245669D01*
Y-244340D02*
X74410Y-243011D01*
Y-239687D02*
X78398D01*
X76403Y-241681D01*
Y-239022D01*
X75074Y-237693D02*
X74410Y-237028D01*
Y-235699D01*
X75074Y-235034D01*
X77733D01*
X78398Y-235699D01*
Y-237028D01*
X77733Y-237693D01*
X77068D01*
X76403Y-237028D01*
Y-235034D01*
X32851Y-256003D02*
X33516Y-256667D01*
Y-257997D01*
X32851Y-258661D01*
X30192D01*
X29528Y-257997D01*
Y-256667D01*
X30192Y-256003D01*
Y-254673D02*
X29528Y-254009D01*
Y-252679D01*
X30192Y-252015D01*
X32851D01*
X33516Y-252679D01*
Y-254009D01*
X32851Y-254673D01*
X32186D01*
X31522Y-254009D01*
Y-252015D01*
X33516Y-250685D02*
Y-248026D01*
X32851D01*
X30192Y-250685D01*
X29528D01*
X39938Y-257184D02*
X40602Y-257849D01*
Y-259178D01*
X39938Y-259842D01*
X37279D01*
X36614Y-259178D01*
Y-257849D01*
X37279Y-257184D01*
Y-255854D02*
X36614Y-255190D01*
Y-253860D01*
X37279Y-253196D01*
X39938D01*
X40602Y-253860D01*
Y-255190D01*
X39938Y-255854D01*
X39273D01*
X38608Y-255190D01*
Y-253196D01*
X40602Y-249208D02*
X39938Y-250537D01*
X38608Y-251866D01*
X37279D01*
X36614Y-251202D01*
Y-249872D01*
X37279Y-249208D01*
X37944D01*
X38608Y-249872D01*
Y-251866D01*
X4724Y-238583D02*
X8713D01*
Y-236589D01*
X8048Y-235924D01*
X6718D01*
X6054Y-236589D01*
Y-238583D01*
Y-237253D02*
X4724Y-235924D01*
X8713Y-231936D02*
Y-234595D01*
X6718D01*
X7383Y-233265D01*
Y-232600D01*
X6718Y-231936D01*
X5389D01*
X4724Y-232600D01*
Y-233930D01*
X5389Y-234595D01*
X8048Y-230607D02*
X8713Y-229942D01*
Y-228612D01*
X8048Y-227948D01*
X5389D01*
X4724Y-228612D01*
Y-229942D01*
X5389Y-230607D01*
X8048D01*
X637484Y-38954D02*
X638148Y-38289D01*
X639478D01*
X640142Y-38954D01*
Y-41613D01*
X639478Y-42278D01*
X638148D01*
X637484Y-41613D01*
X636154Y-42278D02*
X634825D01*
X635490D01*
Y-38289D01*
X636154Y-38954D01*
X630172Y-38289D02*
X631501Y-38954D01*
X632831Y-40283D01*
Y-41613D01*
X632166Y-42278D01*
X630837D01*
X630172Y-41613D01*
Y-40948D01*
X630837Y-40283D01*
X632831D01*
X602756Y-98425D02*
X606744D01*
Y-96431D01*
X606079Y-95767D01*
X604750D01*
X604085Y-96431D01*
Y-98425D01*
Y-97096D02*
X602756Y-95767D01*
X606079Y-94437D02*
X606744Y-93772D01*
Y-92443D01*
X606079Y-91778D01*
X605415D01*
X604750Y-92443D01*
X604085Y-91778D01*
X603421D01*
X602756Y-92443D01*
Y-93772D01*
X603421Y-94437D01*
X604085D01*
X604750Y-93772D01*
X605415Y-94437D01*
X606079D01*
X604750Y-93772D02*
Y-92443D01*
X577546Y-154112D02*
X578211Y-153447D01*
X579540D01*
X580205Y-154112D01*
Y-156770D01*
X579540Y-157435D01*
X578211D01*
X577546Y-156770D01*
X576217Y-154112D02*
X575552Y-153447D01*
X574223D01*
X573558Y-154112D01*
Y-154776D01*
X574223Y-155441D01*
X574888D01*
X574223D01*
X573558Y-156106D01*
Y-156770D01*
X574223Y-157435D01*
X575552D01*
X576217Y-156770D01*
X569570Y-153447D02*
X572229D01*
Y-155441D01*
X570899Y-154776D01*
X570235D01*
X569570Y-155441D01*
Y-156770D01*
X570235Y-157435D01*
X571564D01*
X572229Y-156770D01*
X466142Y-209055D02*
Y-205067D01*
X464148D01*
X463483Y-205732D01*
Y-207061D01*
X464148Y-207726D01*
X466142D01*
X464812D02*
X463483Y-209055D01*
X462154Y-205732D02*
X461489Y-205067D01*
X460160D01*
X459495Y-205732D01*
Y-206396D01*
X460160Y-207061D01*
X460824D01*
X460160D01*
X459495Y-207726D01*
Y-208390D01*
X460160Y-209055D01*
X461489D01*
X462154Y-208390D01*
X458166Y-205732D02*
X457501Y-205067D01*
X456172D01*
X455507Y-205732D01*
Y-206396D01*
X456172Y-207061D01*
X455507Y-207726D01*
Y-208390D01*
X456172Y-209055D01*
X457501D01*
X458166Y-208390D01*
Y-207726D01*
X457501Y-207061D01*
X458166Y-206396D01*
Y-205732D01*
X457501Y-207061D02*
X456172D01*
X456299Y-132677D02*
X460287D01*
Y-130683D01*
X459623Y-130018D01*
X458293D01*
X457629Y-130683D01*
Y-132677D01*
Y-131348D02*
X456299Y-130018D01*
Y-126030D02*
Y-128689D01*
X458958Y-126030D01*
X459623D01*
X460287Y-126695D01*
Y-128024D01*
X459623Y-128689D01*
X460287Y-124701D02*
Y-122042D01*
X459623D01*
X456964Y-124701D01*
X456299D01*
X181787Y-110643D02*
X182452Y-111307D01*
Y-112637D01*
X181787Y-113302D01*
X179128D01*
X178463Y-112637D01*
Y-111307D01*
X179128Y-110643D01*
X182452Y-109313D02*
Y-106655D01*
X181787D01*
X179128Y-109313D01*
X178463D01*
Y-102666D02*
Y-105325D01*
X181122Y-102666D01*
X181787D01*
X182452Y-103331D01*
Y-104661D01*
X181787Y-105325D01*
X195056Y-216239D02*
X195720Y-216904D01*
Y-218233D01*
X195056Y-218898D01*
X192397D01*
X191732Y-218233D01*
Y-216904D01*
X192397Y-216239D01*
Y-214910D02*
X191732Y-214245D01*
Y-212915D01*
X192397Y-212251D01*
X195056D01*
X195720Y-212915D01*
Y-214245D01*
X195056Y-214910D01*
X194391D01*
X193726Y-214245D01*
Y-212251D01*
X192397Y-210921D02*
X191732Y-210257D01*
Y-208927D01*
X192397Y-208263D01*
X195056D01*
X195720Y-208927D01*
Y-210257D01*
X195056Y-210921D01*
X194391D01*
X193726Y-210257D01*
Y-208263D01*
X186788Y-215845D02*
X187453Y-216510D01*
Y-217839D01*
X186788Y-218504D01*
X184129D01*
X183465Y-217839D01*
Y-216510D01*
X184129Y-215845D01*
Y-214516D02*
X183465Y-213851D01*
Y-212522D01*
X184129Y-211857D01*
X186788D01*
X187453Y-212522D01*
Y-213851D01*
X186788Y-214516D01*
X186123D01*
X185459Y-213851D01*
Y-211857D01*
X183465Y-208534D02*
X187453D01*
X185459Y-210528D01*
Y-207869D01*
X159417Y-94473D02*
X160082Y-95138D01*
Y-96467D01*
X159417Y-97132D01*
X156758D01*
X156094Y-96467D01*
Y-95138D01*
X156758Y-94473D01*
X160082Y-93144D02*
Y-90485D01*
X159417D01*
X156758Y-93144D01*
X156094D01*
X156758Y-89156D02*
X156094Y-88491D01*
Y-87161D01*
X156758Y-86497D01*
X159417D01*
X160082Y-87161D01*
Y-88491D01*
X159417Y-89156D01*
X158753D01*
X158088Y-88491D01*
Y-86497D01*
X164741Y-215845D02*
X165405Y-216510D01*
Y-217839D01*
X164741Y-218504D01*
X162082D01*
X161417Y-217839D01*
Y-216510D01*
X162082Y-215845D01*
Y-214516D02*
X161417Y-213851D01*
Y-212522D01*
X162082Y-211857D01*
X164741D01*
X165405Y-212522D01*
Y-213851D01*
X164741Y-214516D01*
X164076D01*
X163411Y-213851D01*
Y-211857D01*
X164741Y-210528D02*
X165405Y-209863D01*
Y-208534D01*
X164741Y-207869D01*
X164076D01*
X163411Y-208534D01*
X162747Y-207869D01*
X162082D01*
X161417Y-208534D01*
Y-209863D01*
X162082Y-210528D01*
X162747D01*
X163411Y-209863D01*
X164076Y-210528D01*
X164741D01*
X163411Y-209863D02*
Y-208534D01*
X158048Y-218207D02*
X158712Y-218872D01*
Y-220201D01*
X158048Y-220866D01*
X155389D01*
X154724Y-220201D01*
Y-218872D01*
X155389Y-218207D01*
Y-216878D02*
X154724Y-216213D01*
Y-214884D01*
X155389Y-214219D01*
X158048D01*
X158712Y-214884D01*
Y-216213D01*
X158048Y-216878D01*
X157383D01*
X156719Y-216213D01*
Y-214219D01*
X158712Y-210231D02*
Y-212890D01*
X156719D01*
X157383Y-211561D01*
Y-210896D01*
X156719Y-210231D01*
X155389D01*
X154724Y-210896D01*
Y-212225D01*
X155389Y-212890D01*
X129209Y-94566D02*
X129873Y-95231D01*
Y-96560D01*
X129209Y-97225D01*
X126550D01*
X125885Y-96560D01*
Y-95231D01*
X126550Y-94566D01*
X129209Y-93237D02*
X129873Y-92572D01*
Y-91243D01*
X129209Y-90578D01*
X128544D01*
X127879Y-91243D01*
X127215Y-90578D01*
X126550D01*
X125885Y-91243D01*
Y-92572D01*
X126550Y-93237D01*
X127215D01*
X127879Y-92572D01*
X128544Y-93237D01*
X129209D01*
X127879Y-92572D02*
Y-91243D01*
X125885Y-86590D02*
Y-89249D01*
X128544Y-86590D01*
X129209D01*
X129873Y-87254D01*
Y-88584D01*
X129209Y-89249D01*
X48819Y-201969D02*
X52807D01*
Y-199974D01*
X52142Y-199310D01*
X50813D01*
X50148Y-199974D01*
Y-201969D01*
Y-200639D02*
X48819Y-199310D01*
X52807Y-195322D02*
X52142Y-196651D01*
X50813Y-197980D01*
X49484D01*
X48819Y-197316D01*
Y-195986D01*
X49484Y-195322D01*
X50148D01*
X50813Y-195986D01*
Y-197980D01*
X48819Y-191998D02*
X52807D01*
X50813Y-193992D01*
Y-191333D01*
X607260Y-113877D02*
X607925Y-114541D01*
Y-115871D01*
X607260Y-116535D01*
X604602D01*
X603937Y-115871D01*
Y-114541D01*
X604602Y-113877D01*
X603937Y-112547D02*
Y-111218D01*
Y-111883D01*
X607925D01*
X607260Y-112547D01*
X603937Y-106565D02*
Y-109224D01*
X606596Y-106565D01*
X607260D01*
X607925Y-107230D01*
Y-108559D01*
X607260Y-109224D01*
X562573Y-124691D02*
Y-120703D01*
X560579D01*
X559914Y-121367D01*
Y-122697D01*
X560579Y-123362D01*
X562573D01*
X561243D02*
X559914Y-124691D01*
X555926D02*
X558585D01*
X555926Y-122032D01*
Y-121367D01*
X556591Y-120703D01*
X557920D01*
X558585Y-121367D01*
X554597D02*
X553932Y-120703D01*
X552602D01*
X551938Y-121367D01*
Y-122032D01*
X552602Y-122697D01*
X551938Y-123362D01*
Y-124026D01*
X552602Y-124691D01*
X553932D01*
X554597Y-124026D01*
Y-123362D01*
X553932Y-122697D01*
X554597Y-122032D01*
Y-121367D01*
X553932Y-122697D02*
X552602D01*
X481890Y-203150D02*
X485878D01*
Y-201155D01*
X485213Y-200491D01*
X483884D01*
X483219Y-201155D01*
Y-203150D01*
Y-201820D02*
X481890Y-200491D01*
X485213Y-199162D02*
X485878Y-198497D01*
Y-197167D01*
X485213Y-196503D01*
X484549D01*
X483884Y-197167D01*
Y-197832D01*
Y-197167D01*
X483219Y-196503D01*
X482554D01*
X481890Y-197167D01*
Y-198497D01*
X482554Y-199162D01*
X485878Y-192515D02*
Y-195173D01*
X483884D01*
X484549Y-193844D01*
Y-193179D01*
X483884Y-192515D01*
X482554D01*
X481890Y-193179D01*
Y-194509D01*
X482554Y-195173D01*
X453189Y-87533D02*
X453854Y-88197D01*
Y-89527D01*
X453189Y-90191D01*
X450530D01*
X449865Y-89527D01*
Y-88197D01*
X450530Y-87533D01*
X453854Y-83544D02*
Y-86203D01*
X451860D01*
X452524Y-84874D01*
Y-84209D01*
X451860Y-83544D01*
X450530D01*
X449865Y-84209D01*
Y-85539D01*
X450530Y-86203D01*
X449865Y-79556D02*
Y-82215D01*
X452524Y-79556D01*
X453189D01*
X453854Y-80221D01*
Y-81550D01*
X453189Y-82215D01*
X102362Y-207874D02*
X106350D01*
Y-205880D01*
X105686Y-205215D01*
X104356D01*
X103692Y-205880D01*
Y-207874D01*
Y-206545D02*
X102362Y-205215D01*
X106350Y-201227D02*
X105686Y-202556D01*
X104356Y-203886D01*
X103027D01*
X102362Y-203221D01*
Y-201892D01*
X103027Y-201227D01*
X103692D01*
X104356Y-201892D01*
Y-203886D01*
X105686Y-199898D02*
X106350Y-199233D01*
Y-197904D01*
X105686Y-197239D01*
X103027D01*
X102362Y-197904D01*
Y-199233D01*
X103027Y-199898D01*
X105686D01*
X96443Y-250678D02*
X100431D01*
Y-248684D01*
X99766Y-248020D01*
X98437D01*
X97772Y-248684D01*
Y-250678D01*
Y-249349D02*
X96443Y-248020D01*
Y-244031D02*
Y-246690D01*
X99102Y-244031D01*
X99766D01*
X100431Y-244696D01*
Y-246025D01*
X99766Y-246690D01*
X100431Y-240043D02*
Y-242702D01*
X98437D01*
X99102Y-241373D01*
Y-240708D01*
X98437Y-240043D01*
X97108D01*
X96443Y-240708D01*
Y-242037D01*
X97108Y-242702D01*
X59055Y-205906D02*
X63043D01*
Y-203911D01*
X62379Y-203247D01*
X61049D01*
X60385Y-203911D01*
Y-205906D01*
Y-204576D02*
X59055Y-203247D01*
X63043Y-199259D02*
Y-201917D01*
X61049D01*
X61714Y-200588D01*
Y-199923D01*
X61049Y-199259D01*
X59720D01*
X59055Y-199923D01*
Y-201253D01*
X59720Y-201917D01*
Y-197929D02*
X59055Y-197265D01*
Y-195935D01*
X59720Y-195271D01*
X62379D01*
X63043Y-195935D01*
Y-197265D01*
X62379Y-197929D01*
X61714D01*
X61049Y-197265D01*
Y-195271D01*
X45382Y-208813D02*
Y-204825D01*
X43388D01*
X42723Y-205489D01*
Y-206819D01*
X43388Y-207484D01*
X45382D01*
X44053D02*
X42723Y-208813D01*
X38735Y-204825D02*
X41394D01*
Y-206819D01*
X40064Y-206154D01*
X39400D01*
X38735Y-206819D01*
Y-208148D01*
X39400Y-208813D01*
X40729D01*
X41394Y-208148D01*
X37406Y-208813D02*
X36076D01*
X36741D01*
Y-204825D01*
X37406Y-205489D01*
D12*
X96653Y-60827D02*
Y-55512D01*
Y-46260D02*
X96850D01*
X85236Y-60827D02*
Y-55512D01*
X85039Y-46260D02*
X85236D01*
X96850Y-60827D02*
Y-46260D01*
X85039Y-60827D02*
Y-46260D01*
X40929Y-60827D02*
Y-55512D01*
Y-46260D02*
X41126D01*
X29512Y-60827D02*
Y-55512D01*
X29315Y-46260D02*
X29512D01*
X41126Y-60827D02*
Y-46260D01*
X29315Y-60827D02*
Y-46260D01*
X120472Y-29134D02*
X123622D01*
X120472Y-38583D02*
X123622D01*
D153*
X234646Y-217390D02*
Y-223248D01*
X235036Y-224419D01*
X235817Y-225200D01*
X236989Y-225590D01*
X237770D01*
X238941Y-225200D01*
X239722Y-224419D01*
X240112Y-223248D01*
Y-217390D01*
X248625Y-225590D02*
X245501Y-217390D01*
X242377Y-225590D01*
X243549Y-222857D02*
X247454D01*
X251320Y-217390D02*
X255615D01*
X253272Y-220514D01*
X254443D01*
X255224Y-220905D01*
X255615Y-221295D01*
X256005Y-222467D01*
Y-223248D01*
X255615Y-224419D01*
X254834Y-225200D01*
X253662Y-225590D01*
X252491D01*
X251320Y-225200D01*
X250929Y-224810D01*
X250539Y-224029D01*
X257841Y-217390D02*
Y-225590D01*
Y-217390D02*
X261355D01*
X262527Y-217781D01*
X262917Y-218171D01*
X263307Y-218952D01*
Y-219733D01*
X262917Y-220514D01*
X262527Y-220905D01*
X261355Y-221295D01*
X257841D01*
X260574D02*
X263307Y-225590D01*
X270219Y-217390D02*
X265143D01*
Y-225590D01*
X270219D01*
X265143Y-221295D02*
X268267D01*
X273929Y-217390D02*
X273148Y-217781D01*
X272367Y-218562D01*
X271976Y-219343D01*
X271586Y-220514D01*
Y-222467D01*
X271976Y-223638D01*
X272367Y-224419D01*
X273148Y-225200D01*
X273929Y-225590D01*
X275491D01*
X276272Y-225200D01*
X277053Y-224419D01*
X277443Y-223638D01*
X277834Y-222467D01*
Y-220514D01*
X277443Y-219343D01*
X277053Y-218562D01*
X276272Y-217781D01*
X275491Y-217390D01*
X273929D01*
D154*
X219291Y-234450D02*
Y-239370D01*
Y-234450D02*
X221166Y-239370D01*
X223040Y-234450D02*
X221166Y-239370D01*
X223040Y-234450D02*
Y-239370D01*
X225852Y-234450D02*
X225383Y-234684D01*
X224914Y-235153D01*
X224680Y-235621D01*
X224446Y-236324D01*
Y-237496D01*
X224680Y-238199D01*
X224914Y-238667D01*
X225383Y-239136D01*
X225852Y-239370D01*
X226789D01*
X227257Y-239136D01*
X227726Y-238667D01*
X227960Y-238199D01*
X228195Y-237496D01*
Y-236324D01*
X227960Y-235621D01*
X227726Y-235153D01*
X227257Y-234684D01*
X226789Y-234450D01*
X225852D01*
X230983D02*
Y-239370D01*
X229343Y-234450D02*
X232623D01*
X233208D02*
Y-239370D01*
X236489Y-234450D02*
Y-239370D01*
X233208Y-236793D02*
X236489D01*
X240893Y-234450D02*
X237848D01*
Y-239370D01*
X240893D01*
X237848Y-236793D02*
X239722D01*
X241713Y-234450D02*
Y-239370D01*
Y-234450D02*
X243822D01*
X244525Y-234684D01*
X244759Y-234918D01*
X244994Y-235387D01*
Y-235856D01*
X244759Y-236324D01*
X244525Y-236559D01*
X243822Y-236793D01*
X241713D01*
X243354D02*
X244994Y-239370D01*
X246095Y-234450D02*
Y-239370D01*
Y-234450D02*
X248203D01*
X248906Y-234684D01*
X249141Y-234918D01*
X249375Y-235387D01*
Y-235856D01*
X249141Y-236324D01*
X248906Y-236559D01*
X248203Y-236793D01*
X246095D02*
X248203D01*
X248906Y-237027D01*
X249141Y-237261D01*
X249375Y-237730D01*
Y-238433D01*
X249141Y-238901D01*
X248906Y-239136D01*
X248203Y-239370D01*
X246095D01*
X251882Y-234450D02*
X251413Y-234684D01*
X250945Y-235153D01*
X250710Y-235621D01*
X250476Y-236324D01*
Y-237496D01*
X250710Y-238199D01*
X250945Y-238667D01*
X251413Y-239136D01*
X251882Y-239370D01*
X252819D01*
X253288Y-239136D01*
X253756Y-238667D01*
X253991Y-238199D01*
X254225Y-237496D01*
Y-236324D01*
X253991Y-235621D01*
X253756Y-235153D01*
X253288Y-234684D01*
X252819Y-234450D01*
X251882D01*
X259122Y-239370D02*
X257247Y-234450D01*
X255373Y-239370D01*
X256076Y-237730D02*
X258419D01*
X260270Y-234450D02*
Y-239370D01*
Y-234450D02*
X262378D01*
X263081Y-234684D01*
X263316Y-234918D01*
X263550Y-235387D01*
Y-235856D01*
X263316Y-236324D01*
X263081Y-236559D01*
X262378Y-236793D01*
X260270D01*
X261910D02*
X263550Y-239370D01*
X264651Y-234450D02*
Y-239370D01*
Y-234450D02*
X266291D01*
X266994Y-234684D01*
X267462Y-235153D01*
X267697Y-235621D01*
X267931Y-236324D01*
Y-237496D01*
X267697Y-238199D01*
X267462Y-238667D01*
X266994Y-239136D01*
X266291Y-239370D01*
X264651D01*
X272898Y-236090D02*
Y-239370D01*
Y-237496D02*
X273132Y-236793D01*
X273601Y-236324D01*
X274070Y-236090D01*
X274773D01*
X275218Y-237496D02*
X278029D01*
Y-237027D01*
X277795Y-236559D01*
X277561Y-236324D01*
X277092Y-236090D01*
X276389D01*
X275921Y-236324D01*
X275452Y-236793D01*
X275218Y-237496D01*
Y-237964D01*
X275452Y-238667D01*
X275921Y-239136D01*
X276389Y-239370D01*
X277092D01*
X277561Y-239136D01*
X278029Y-238667D01*
X279084Y-236090D02*
X280489Y-239370D01*
X281895Y-236090D02*
X280489Y-239370D01*
X282692Y-235387D02*
X283160Y-235153D01*
X283863Y-234450D01*
Y-239370D01*
X287471Y-234450D02*
X286769Y-234684D01*
X286534Y-235153D01*
Y-235621D01*
X286769Y-236090D01*
X287237Y-236324D01*
X288174Y-236559D01*
X288877Y-236793D01*
X289346Y-237261D01*
X289580Y-237730D01*
Y-238433D01*
X289346Y-238901D01*
X289111Y-239136D01*
X288409Y-239370D01*
X287471D01*
X286769Y-239136D01*
X286534Y-238901D01*
X286300Y-238433D01*
Y-237730D01*
X286534Y-237261D01*
X287003Y-236793D01*
X287706Y-236559D01*
X288643Y-236324D01*
X289111Y-236090D01*
X289346Y-235621D01*
Y-235153D01*
X289111Y-234684D01*
X288409Y-234450D01*
X287471D01*
D155*
X372767Y-167040D02*
X379327D01*
X372767D02*
Y-162978D01*
X375891Y-167040D02*
Y-164540D01*
X372767Y-162229D02*
X379327D01*
X372767D02*
Y-159417D01*
X373079Y-158480D01*
X373392Y-158168D01*
X374016Y-157855D01*
X374641D01*
X375266Y-158168D01*
X375578Y-158480D01*
X375891Y-159417D01*
Y-162229D01*
Y-160042D02*
X379327Y-157855D01*
X372767Y-154512D02*
X373079Y-155137D01*
X373704Y-155762D01*
X374329Y-156074D01*
X375266Y-156387D01*
X376828D01*
X377765Y-156074D01*
X378390Y-155762D01*
X379015Y-155137D01*
X379327Y-154512D01*
Y-153263D01*
X379015Y-152638D01*
X378390Y-152013D01*
X377765Y-151701D01*
X376828Y-151389D01*
X375266D01*
X374329Y-151701D01*
X373704Y-152013D01*
X373079Y-152638D01*
X372767Y-153263D01*
Y-154512D01*
Y-149858D02*
X379327D01*
X372767D02*
X379327Y-145484D01*
X372767D02*
X379327D01*
X372767Y-141485D02*
X379327D01*
X372767Y-143672D02*
Y-139299D01*
X376203Y-133363D02*
Y-130552D01*
X375891Y-129614D01*
X375578Y-129302D01*
X374954Y-128990D01*
X374016D01*
X373392Y-129302D01*
X373079Y-129614D01*
X372767Y-130552D01*
Y-133363D01*
X379327D01*
Y-122523D02*
X372767Y-125022D01*
X379327Y-127521D01*
X377140Y-126584D02*
Y-123460D01*
X372767Y-120992D02*
X379327D01*
X372767D02*
X379327Y-116619D01*
X372767D02*
X379327D01*
X372767Y-110746D02*
Y-114807D01*
X379327D01*
Y-110746D01*
X375891Y-114807D02*
Y-112308D01*
X372767Y-109652D02*
X379327D01*
Y-105903D01*
D156*
X361024Y-133661D02*
D03*
M02*
