G04*
G04 #@! TF.GenerationSoftware,Altium Limited,Altium Designer,19.1.8 (144)*
G04*
G04 Layer_Color=8388736*
%FSLAX25Y25*%
%MOIN*%
G70*
G01*
G75*
%ADD11C,0.01000*%
%ADD157C,0.00309*%
D11*
X414685Y-217008D02*
X452559D01*
X650315Y-108937D02*
Y-81063D01*
X385167Y-92370D02*
X413041D01*
D157*
X425034Y-219106D02*
Y-217466D01*
Y-219106D02*
X425737D01*
X425971Y-219028D01*
X426050Y-218950D01*
X426128Y-218794D01*
Y-218637D01*
X426050Y-218481D01*
X425971Y-218403D01*
X425737Y-218325D01*
X425034D02*
X425737D01*
X425971Y-218247D01*
X426050Y-218169D01*
X426128Y-218013D01*
Y-217778D01*
X426050Y-217622D01*
X425971Y-217544D01*
X425737Y-217466D01*
X425034D01*
X426963Y-219106D02*
X426807Y-219028D01*
X426651Y-218872D01*
X426573Y-218716D01*
X426495Y-218481D01*
Y-218091D01*
X426573Y-217856D01*
X426651Y-217700D01*
X426807Y-217544D01*
X426963Y-217466D01*
X427276D01*
X427432Y-217544D01*
X427588Y-217700D01*
X427666Y-217856D01*
X427744Y-218091D01*
Y-218481D01*
X427666Y-218716D01*
X427588Y-218872D01*
X427432Y-219028D01*
X427276Y-219106D01*
X426963D01*
X429377Y-217466D02*
X428752Y-219106D01*
X428127Y-217466D01*
X428361Y-218013D02*
X429142D01*
X429759Y-219106D02*
Y-217466D01*
Y-219106D02*
X430462D01*
X430697Y-219028D01*
X430775Y-218950D01*
X430853Y-218794D01*
Y-218637D01*
X430775Y-218481D01*
X430697Y-218403D01*
X430462Y-218325D01*
X429759D01*
X430306D02*
X430853Y-217466D01*
X431220Y-219106D02*
Y-217466D01*
Y-219106D02*
X431767D01*
X432001Y-219028D01*
X432157Y-218872D01*
X432235Y-218716D01*
X432313Y-218481D01*
Y-218091D01*
X432235Y-217856D01*
X432157Y-217700D01*
X432001Y-217544D01*
X431767Y-217466D01*
X431220D01*
X434984Y-219106D02*
X433969D01*
Y-217466D01*
X434984D01*
X433969Y-218325D02*
X434594D01*
X435258Y-219106D02*
Y-217466D01*
Y-219106D02*
X435804D01*
X436039Y-219028D01*
X436195Y-218872D01*
X436273Y-218716D01*
X436351Y-218481D01*
Y-218091D01*
X436273Y-217856D01*
X436195Y-217700D01*
X436039Y-217544D01*
X435804Y-217466D01*
X435258D01*
X437890Y-218716D02*
X437812Y-218872D01*
X437655Y-219028D01*
X437499Y-219106D01*
X437187D01*
X437031Y-219028D01*
X436874Y-218872D01*
X436796Y-218716D01*
X436718Y-218481D01*
Y-218091D01*
X436796Y-217856D01*
X436874Y-217700D01*
X437031Y-217544D01*
X437187Y-217466D01*
X437499D01*
X437655Y-217544D01*
X437812Y-217700D01*
X437890Y-217856D01*
Y-218091D01*
X437499D02*
X437890D01*
X439280Y-219106D02*
X438265D01*
Y-217466D01*
X439280D01*
X438265Y-218325D02*
X438890D01*
X648217Y-86409D02*
X649857D01*
X648217D02*
Y-87112D01*
X648295Y-87346D01*
X648373Y-87424D01*
X648529Y-87502D01*
X648685D01*
X648842Y-87424D01*
X648920Y-87346D01*
X648998Y-87112D01*
Y-86409D02*
Y-87112D01*
X649076Y-87346D01*
X649154Y-87424D01*
X649310Y-87502D01*
X649544D01*
X649701Y-87424D01*
X649779Y-87346D01*
X649857Y-87112D01*
Y-86409D01*
X648217Y-88338D02*
X648295Y-88182D01*
X648451Y-88026D01*
X648607Y-87948D01*
X648842Y-87869D01*
X649232D01*
X649466Y-87948D01*
X649623Y-88026D01*
X649779Y-88182D01*
X649857Y-88338D01*
Y-88651D01*
X649779Y-88807D01*
X649623Y-88963D01*
X649466Y-89041D01*
X649232Y-89119D01*
X648842D01*
X648607Y-89041D01*
X648451Y-88963D01*
X648295Y-88807D01*
X648217Y-88651D01*
Y-88338D01*
X649857Y-90751D02*
X648217Y-90127D01*
X649857Y-89502D01*
X649310Y-89736D02*
Y-90517D01*
X648217Y-91134D02*
X649857D01*
X648217D02*
Y-91837D01*
X648295Y-92071D01*
X648373Y-92150D01*
X648529Y-92228D01*
X648685D01*
X648842Y-92150D01*
X648920Y-92071D01*
X648998Y-91837D01*
Y-91134D01*
Y-91681D02*
X649857Y-92228D01*
X648217Y-92595D02*
X649857D01*
X648217D02*
Y-93141D01*
X648295Y-93376D01*
X648451Y-93532D01*
X648607Y-93610D01*
X648842Y-93688D01*
X649232D01*
X649466Y-93610D01*
X649623Y-93532D01*
X649779Y-93376D01*
X649857Y-93141D01*
Y-92595D01*
X648217Y-96359D02*
Y-95344D01*
X649857D01*
Y-96359D01*
X648998Y-95344D02*
Y-95969D01*
X648217Y-96632D02*
X649857D01*
X648217D02*
Y-97179D01*
X648295Y-97413D01*
X648451Y-97570D01*
X648607Y-97648D01*
X648842Y-97726D01*
X649232D01*
X649466Y-97648D01*
X649623Y-97570D01*
X649779Y-97413D01*
X649857Y-97179D01*
Y-96632D01*
X648607Y-99265D02*
X648451Y-99186D01*
X648295Y-99030D01*
X648217Y-98874D01*
Y-98562D01*
X648295Y-98405D01*
X648451Y-98249D01*
X648607Y-98171D01*
X648842Y-98093D01*
X649232D01*
X649466Y-98171D01*
X649623Y-98249D01*
X649779Y-98405D01*
X649857Y-98562D01*
Y-98874D01*
X649779Y-99030D01*
X649623Y-99186D01*
X649466Y-99265D01*
X649232D01*
Y-98874D02*
Y-99265D01*
X648217Y-100655D02*
Y-99639D01*
X649857D01*
Y-100655D01*
X648998Y-99639D02*
Y-100264D01*
X390513Y-94468D02*
Y-92828D01*
Y-94468D02*
X391216D01*
X391450Y-94390D01*
X391528Y-94312D01*
X391606Y-94156D01*
Y-94000D01*
X391528Y-93843D01*
X391450Y-93765D01*
X391216Y-93687D01*
X390513D02*
X391216D01*
X391450Y-93609D01*
X391528Y-93531D01*
X391606Y-93375D01*
Y-93141D01*
X391528Y-92984D01*
X391450Y-92906D01*
X391216Y-92828D01*
X390513D01*
X392442Y-94468D02*
X392286Y-94390D01*
X392130Y-94234D01*
X392052Y-94078D01*
X391973Y-93843D01*
Y-93453D01*
X392052Y-93219D01*
X392130Y-93062D01*
X392286Y-92906D01*
X392442Y-92828D01*
X392754D01*
X392911Y-92906D01*
X393067Y-93062D01*
X393145Y-93219D01*
X393223Y-93453D01*
Y-93843D01*
X393145Y-94078D01*
X393067Y-94234D01*
X392911Y-94390D01*
X392754Y-94468D01*
X392442D01*
X394855Y-92828D02*
X394231Y-94468D01*
X393606Y-92828D01*
X393840Y-93375D02*
X394621D01*
X395238Y-94468D02*
Y-92828D01*
Y-94468D02*
X395941D01*
X396175Y-94390D01*
X396253Y-94312D01*
X396332Y-94156D01*
Y-94000D01*
X396253Y-93843D01*
X396175Y-93765D01*
X395941Y-93687D01*
X395238D01*
X395785D02*
X396332Y-92828D01*
X396699Y-94468D02*
Y-92828D01*
Y-94468D02*
X397245D01*
X397480Y-94390D01*
X397636Y-94234D01*
X397714Y-94078D01*
X397792Y-93843D01*
Y-93453D01*
X397714Y-93219D01*
X397636Y-93062D01*
X397480Y-92906D01*
X397245Y-92828D01*
X396699D01*
X400463Y-94468D02*
X399448D01*
Y-92828D01*
X400463D01*
X399448Y-93687D02*
X400073D01*
X400737Y-94468D02*
Y-92828D01*
Y-94468D02*
X401283D01*
X401517Y-94390D01*
X401674Y-94234D01*
X401752Y-94078D01*
X401830Y-93843D01*
Y-93453D01*
X401752Y-93219D01*
X401674Y-93062D01*
X401517Y-92906D01*
X401283Y-92828D01*
X400737D01*
X403369Y-94078D02*
X403290Y-94234D01*
X403134Y-94390D01*
X402978Y-94468D01*
X402666D01*
X402509Y-94390D01*
X402353Y-94234D01*
X402275Y-94078D01*
X402197Y-93843D01*
Y-93453D01*
X402275Y-93219D01*
X402353Y-93062D01*
X402509Y-92906D01*
X402666Y-92828D01*
X402978D01*
X403134Y-92906D01*
X403290Y-93062D01*
X403369Y-93219D01*
Y-93453D01*
X402978D02*
X403369D01*
X404759Y-94468D02*
X403743D01*
Y-92828D01*
X404759D01*
X403743Y-93687D02*
X404368D01*
M02*
