G04*
G04 #@! TF.GenerationSoftware,Altium Limited,Altium Designer,19.1.8 (144)*
G04*
G04 Layer_Physical_Order=3*
G04 Layer_Color=16440176*
%FSLAX25Y25*%
%MOIN*%
G70*
G01*
G75*
%ADD12C,0.00787*%
%ADD121C,0.00906*%
%ADD122C,0.03937*%
%ADD123C,0.01968*%
%ADD131C,0.06693*%
%ADD136C,0.05315*%
%ADD144O,0.11024X0.05512*%
%ADD149C,0.04000*%
D12*
X189538Y-33858D02*
X216110Y-60430D01*
X162205Y-33858D02*
X189538D01*
X216110Y-66672D02*
Y-60430D01*
X194153Y-78681D02*
Y-51910D01*
X194488Y-51575D01*
X182283Y-90551D02*
X194153Y-78681D01*
X453484Y-175256D02*
X466218D01*
X450000Y-178740D02*
X453484Y-175256D01*
X355118Y-178740D02*
X450000D01*
X460236Y-183465D02*
X476345Y-167355D01*
X466218Y-175256D02*
X474771Y-166703D01*
Y-136558D01*
X475355Y-135974D01*
X476345Y-143583D02*
X482138Y-137791D01*
X476345Y-167355D02*
Y-143583D01*
X349843Y-183465D02*
X460236D01*
X345118Y-178740D02*
X349843Y-183465D01*
X219911Y-70472D02*
X226378D01*
X216110Y-66672D02*
X219911Y-70472D01*
X229921Y-76378D02*
Y-55512D01*
X226772Y-52362D02*
X229921Y-55512D01*
X226772Y-52362D02*
Y-46457D01*
X143701Y-48819D02*
X147244D01*
X162205Y-33858D01*
X190945Y-49213D02*
X194095Y-46063D01*
X190945Y-78740D02*
Y-49213D01*
X180709Y-88976D02*
X190945Y-78740D01*
X111946Y-88976D02*
X180709D01*
X83734Y-117188D02*
X111946Y-88976D01*
X83734Y-117409D02*
Y-117188D01*
X86915Y-123715D02*
Y-116234D01*
X86614Y-124016D02*
X86915Y-123715D01*
Y-116234D02*
X112598Y-90551D01*
X182283D01*
D121*
X196063Y-111417D02*
X275324D01*
X196063D02*
Y-109836D01*
Y-111417D02*
X196645D01*
X122981Y-108440D02*
X130121Y-101300D01*
X187527D02*
X196063Y-109836D01*
X125590Y-113779D02*
Y-113779D01*
X122981Y-111170D02*
X125590Y-113779D01*
X122981Y-111170D02*
Y-108440D01*
X275324Y-111417D02*
X284121Y-102621D01*
X130121Y-101300D02*
X187527D01*
X190998Y-114227D02*
X195275Y-118504D01*
X190998Y-114227D02*
Y-112868D01*
X199626Y-128250D02*
X200847Y-129471D01*
X198379Y-128250D02*
X199626D01*
X196506Y-126378D02*
X198379Y-128250D01*
X195669Y-126378D02*
X196506D01*
X195275Y-125984D02*
Y-118504D01*
Y-125984D02*
X195669Y-126378D01*
X196457Y-173622D02*
X200847Y-169232D01*
Y-129471D01*
X121410Y-139219D02*
X127165Y-133464D01*
X121410Y-158991D02*
Y-139219D01*
X106878Y-125122D02*
X118220Y-113779D01*
X130315Y-117640D02*
X131132Y-116823D01*
X118220Y-113779D02*
X125590D01*
X130315Y-120472D02*
Y-117640D01*
X106878Y-129208D02*
X119269Y-141599D01*
Y-158639D02*
Y-141599D01*
X106878Y-129208D02*
Y-125122D01*
X131132Y-116823D02*
Y-110597D01*
X465354Y-167323D02*
Y-166929D01*
X461024Y-161811D02*
X461811Y-162598D01*
X470079Y-166142D02*
X470472D01*
X459735Y-186328D02*
X479527Y-166536D01*
X354832Y-198454D02*
X359107D01*
X479527Y-166536D02*
Y-160630D01*
X371234Y-186328D02*
X459735D01*
X455370Y-170866D02*
X461811D01*
X455279Y-170957D02*
X455370Y-170866D01*
X442216Y-170957D02*
X455279D01*
X461811Y-170866D02*
X465354Y-167323D01*
X437402Y-161811D02*
X461024D01*
X400000Y-128740D02*
X442216Y-170957D01*
X464567Y-173622D02*
X470079Y-168110D01*
X343307Y-13780D02*
X437795D01*
X331102Y-25984D02*
X343307Y-13780D01*
X331102Y-25984D02*
X331102Y-189764D01*
X335039Y-193701D01*
X150394Y-111024D02*
X150542Y-110876D01*
Y-109725D01*
X446850Y-131748D02*
X455609Y-140506D01*
X446850Y-131748D02*
Y-115748D01*
X189100Y-110970D02*
X190998Y-112868D01*
X188923Y-110970D02*
X189100D01*
X188815Y-110862D02*
X188923Y-110970D01*
X182147Y-110862D02*
X188815D01*
X579135Y-137678D02*
Y-137375D01*
X570690Y-128930D02*
X579135Y-137375D01*
X535328Y-73138D02*
X548693D01*
X535237Y-73228D02*
X535328Y-73138D01*
X548693D02*
X557051Y-81496D01*
X534645Y-72636D02*
Y-72441D01*
Y-72636D02*
X535237Y-73228D01*
X355000Y-109500D02*
X355760Y-108740D01*
X445354Y-108740D02*
X451575Y-114961D01*
Y-131890D02*
Y-114961D01*
Y-131890D02*
X455118Y-135433D01*
X506299Y-136614D02*
X514172D01*
X433185Y-63500D02*
X506299Y-136614D01*
X434115Y-23091D02*
X434224Y-23200D01*
X429528Y-18504D02*
X434115Y-23091D01*
X344882Y-38189D02*
X345433Y-38740D01*
X522047Y-126770D02*
Y-75591D01*
X518109Y-130708D02*
X522047Y-126770D01*
X514567Y-126772D02*
X514961D01*
X150542Y-109725D02*
X155397Y-104870D01*
X150542Y-109725D02*
Y-108590D01*
X156299Y-183313D02*
Y-181581D01*
X470079Y-168110D02*
Y-166142D01*
X400787Y-133858D02*
X440551Y-173622D01*
X349213Y-133858D02*
X400787D01*
X345118Y-129764D02*
X349213Y-133858D01*
X418745Y-103543D02*
X421659Y-106458D01*
X350394Y-103543D02*
X418745D01*
X345590Y-98740D02*
X350394Y-103543D01*
X350508Y-63500D02*
X433185D01*
X345748Y-58740D02*
X350508Y-63500D01*
X355118Y-38740D02*
X456063D01*
X349213Y-33858D02*
X456693D01*
X343307Y-18504D02*
X429528D01*
X355118Y-68740D02*
X433701D01*
X355760Y-108740D02*
X445354Y-108740D01*
X545885Y-76378D02*
X590812Y-121305D01*
X423150Y-48740D02*
X475197Y-100787D01*
X498395Y-206357D02*
X557300Y-147452D01*
X399606Y-124016D02*
X437402Y-161811D01*
X404961Y-118740D02*
X435433Y-149213D01*
X391969Y-43246D02*
X433010D01*
X557051Y-81496D02*
X698228D01*
X533095Y-128930D02*
X570690D01*
X526111Y-123013D02*
X578165D01*
X391732Y-111417D02*
X442520D01*
X421659Y-106458D02*
X449765D01*
X590812Y-121305D02*
X697789D01*
X499606Y-140551D02*
X548487D01*
X433701Y-68740D02*
X499606Y-134646D01*
X433010Y-43246D02*
X487402Y-97638D01*
X456063Y-38740D02*
X482283Y-64961D01*
X456693Y-33858D02*
X484646Y-61811D01*
X528607Y-133418D02*
X533095Y-128930D01*
X452533Y-204444D02*
X478237Y-178740D01*
X468937Y-202902D02*
X487002Y-184837D01*
X488778Y-210363D02*
X516374Y-182766D01*
X350157Y-193701D02*
X355118Y-188740D01*
X126496Y-182498D02*
X141688Y-197690D01*
X437795Y-13780D02*
X451711Y-27696D01*
X482283Y-64961D02*
X503937D01*
X484646Y-61811D02*
X508268D01*
X497874Y-117292D02*
X504158Y-123576D01*
X442520Y-111417D02*
X446850Y-115748D01*
X528397Y-137870D02*
X534052Y-132215D01*
X435433Y-149213D02*
X456693D01*
X440551Y-173622D02*
X464567D01*
X355118Y-48740D02*
X423150D01*
X350394Y-113779D02*
X389370D01*
X355118Y-128740D02*
X400000D01*
X350787Y-124016D02*
X399606D01*
X355118Y-118740D02*
X404961D01*
X196645Y-111417D02*
X203378Y-118150D01*
X223528Y-178308D02*
X244771D01*
X196457Y-178740D02*
X203378Y-171819D01*
X155397Y-104870D02*
X176155D01*
X136984Y-104494D02*
X146445D01*
X109571Y-158639D02*
X119269D01*
X170416Y-189550D02*
X179249Y-180718D01*
X141354Y-183665D02*
X154216D01*
X141688Y-197690D02*
X183671D01*
X514961Y-126772D02*
Y-75984D01*
X455118Y-130315D02*
Y-111811D01*
X333858Y-157480D02*
Y-27953D01*
X578165Y-123013D02*
X590459Y-135306D01*
X503937Y-64961D02*
X514961Y-75984D01*
X508268Y-61811D02*
X522047Y-75591D01*
X505778Y-123576D02*
X520072Y-137870D01*
X516374Y-182766D02*
Y-147525D01*
X487402Y-107596D02*
Y-97638D01*
X479004Y-226271D02*
Y-197473D01*
X495161Y-181315D01*
Y-145545D01*
X498395Y-226607D02*
Y-206357D01*
X488778Y-226498D02*
Y-210363D01*
X452533Y-223302D02*
Y-204444D01*
X468937Y-226338D02*
Y-202902D01*
X359107Y-198454D02*
X371234Y-186328D01*
X333858Y-157480D02*
X345118Y-168740D01*
X203378Y-171819D02*
Y-118150D01*
X183671Y-197690D02*
X196666Y-184695D01*
X119269Y-171038D02*
Y-158639D01*
X121410Y-158991D02*
X126865Y-164446D01*
X697789Y-121305D02*
X698228Y-120866D01*
X580673Y-142475D02*
X586587D01*
X590459Y-138603D01*
Y-135306D01*
X537795Y-76378D02*
X545885D01*
X534052Y-132215D02*
X555258D01*
X557300Y-134257D01*
Y-147452D02*
Y-134257D01*
X548487Y-140551D02*
X552572Y-136467D01*
X504158Y-123576D02*
X505778D01*
X527137Y-133418D02*
X528607D01*
X520072Y-137870D02*
X528397D01*
X484746Y-110252D02*
X487402Y-107596D01*
X478237Y-178740D02*
X482664D01*
X487002Y-184837D02*
Y-174784D01*
X473937Y-231339D02*
X479004Y-226271D01*
X494890Y-230112D02*
X498395Y-226607D01*
X492304Y-230112D02*
X494890D01*
X492304D02*
X493937Y-231745D01*
Y-231339D01*
X483937D02*
X488778Y-226498D01*
X451711Y-27696D02*
X451817D01*
X449765Y-106458D02*
X455118Y-111811D01*
X456693Y-149213D02*
X459055Y-146850D01*
X443937Y-231339D02*
X444497D01*
X452533Y-223302D01*
X463937Y-231339D02*
X468937Y-226338D01*
X434224Y-23200D02*
Y-22983D01*
X389370Y-113779D02*
X391732Y-111417D01*
X354832Y-198454D02*
X355118Y-198740D01*
X344882Y-38189D02*
X349213Y-33858D01*
X345118Y-38740D02*
X345433D01*
X333858Y-27953D02*
X343307Y-18504D01*
X345118Y-58740D02*
X345748D01*
X345118Y-98740D02*
X345590D01*
X345354Y-108740D02*
X350394Y-113779D01*
X345118Y-108740D02*
X345354D01*
X345118Y-129764D02*
Y-128740D01*
X345512Y-118740D02*
X350787Y-124016D01*
X345118Y-118740D02*
X345512D01*
X335039Y-193701D02*
X350157D01*
X210975Y-165756D02*
X223528Y-178308D01*
X176155Y-104870D02*
X182147Y-110862D01*
X196457Y-178740D02*
X196666Y-178950D01*
Y-184695D02*
Y-178950D01*
X190316Y-183693D02*
X192374Y-181634D01*
X190316Y-186156D02*
Y-183693D01*
X188070Y-188402D02*
X190316Y-186156D01*
X182368Y-188402D02*
X188070D01*
X179249Y-185284D02*
X182368Y-188402D01*
X179249Y-185284D02*
Y-180718D01*
X196426Y-173591D02*
X196457Y-173622D01*
X193940Y-173591D02*
X196426D01*
X192374Y-175157D02*
X193940Y-173591D01*
X192374Y-181634D02*
Y-175157D01*
X146445Y-104494D02*
X150542Y-108590D01*
X162537Y-189550D02*
X170416D01*
X156299Y-183313D02*
X162537Y-189550D01*
X154216Y-183665D02*
X156299Y-181581D01*
Y-181102D01*
X131132Y-110346D02*
X136984Y-104494D01*
X131132Y-110597D02*
Y-110346D01*
X119269Y-171038D02*
X126496Y-178265D01*
Y-182498D02*
Y-178265D01*
X126865Y-168014D02*
Y-164446D01*
X137557Y-179867D02*
X141354Y-183665D01*
X126865Y-169175D02*
X137557Y-179867D01*
X126865Y-169175D02*
Y-168014D01*
D122*
X333465Y-267717D02*
Y-228346D01*
Y-203150D01*
Y-228346D02*
X333858Y-228740D01*
X345118D01*
X323228Y-192913D02*
X333465Y-203150D01*
X323228Y-192913D02*
Y-68504D01*
X310630Y-274277D02*
Y-255906D01*
X320047Y-281134D02*
X333465Y-267717D01*
X310630Y-274277D02*
X317487Y-281134D01*
X320047D01*
X214598D02*
X317487D01*
X201181Y-267717D02*
X214598Y-281134D01*
X201181Y-267717D02*
Y-257874D01*
X184646D02*
X201181D01*
X176378Y-238189D02*
X192126Y-222441D01*
X193307D01*
X176378Y-249606D02*
X184646Y-257874D01*
X176378Y-249606D02*
Y-238189D01*
D123*
X194516Y-131501D02*
X195669Y-132654D01*
Y-133071D02*
Y-132654D01*
X190811Y-131501D02*
X194516D01*
X195669Y-132439D02*
X197606Y-134377D01*
X183787Y-124476D02*
X190811Y-131501D01*
X197606Y-149534D02*
Y-134377D01*
X196850Y-150291D02*
X197606Y-149534D01*
X196850Y-159657D02*
Y-150291D01*
X181966Y-174541D02*
X196850Y-159657D01*
X133058Y-157252D02*
X142762Y-166955D01*
X131268Y-157252D02*
X133058D01*
X127381Y-153365D02*
X131268Y-157252D01*
X127381Y-153365D02*
Y-153150D01*
X142762Y-178766D02*
Y-166955D01*
Y-178766D02*
X151221D01*
X151921Y-178065D01*
X152316D01*
X131724Y-126822D02*
Y-126784D01*
X114401Y-124575D02*
X129515D01*
X111811Y-127165D02*
X114401Y-124575D01*
X129515D02*
X131724Y-126784D01*
Y-126822D02*
X133083Y-128181D01*
X136843D01*
X137008Y-128347D01*
Y-143523D02*
Y-128347D01*
X127381Y-153150D02*
X137008Y-143523D01*
X138129Y-128347D02*
X140075D01*
X144920Y-123502D01*
Y-115703D01*
X127165Y-153150D02*
X127381D01*
X144735Y-112608D02*
X144920Y-112793D01*
Y-115703D02*
Y-112793D01*
X209055Y-294882D02*
X590158D01*
X149606Y-235433D02*
X209055Y-294882D01*
X194130Y-242428D02*
X243577Y-192982D01*
X606299Y-273622D02*
X638189Y-241732D01*
X590158Y-294882D02*
X606299Y-278740D01*
X158609Y-113590D02*
X176075Y-114291D01*
X171002Y-173271D02*
X172272Y-174541D01*
X181966D01*
X167737Y-179076D02*
X172272Y-174541D01*
X113386Y-235433D02*
X149606D01*
X248404Y-192982D02*
X251354Y-190031D01*
Y-174217D01*
X606299Y-278740D02*
Y-273622D01*
X246043Y-168906D02*
X251354Y-174217D01*
X241441Y-168906D02*
X246043D01*
X243577Y-192982D02*
X248404D01*
X183787Y-124476D02*
Y-118182D01*
X187758Y-114210D01*
X179966Y-118182D02*
X183787D01*
X176075Y-114291D02*
X179966Y-118182D01*
X176075Y-114291D02*
Y-111175D01*
X185433Y-181102D02*
Y-178008D01*
X181966Y-174541D02*
X185433Y-178008D01*
X158528Y-112626D02*
X158609Y-112708D01*
Y-113590D02*
Y-112708D01*
X156497Y-115703D02*
X158609Y-113590D01*
X144920Y-115703D02*
X156497D01*
X157111Y-173271D02*
X171002D01*
X152316Y-178065D02*
X157111Y-173271D01*
X167737Y-180918D02*
Y-179076D01*
D131*
X311142Y-256102D02*
D03*
X443937Y-231339D02*
D03*
X463937D02*
D03*
X473937D02*
D03*
X483937D02*
D03*
X493937D02*
D03*
X345118Y-228740D02*
D03*
X355118Y-198740D02*
D03*
Y-188740D02*
D03*
X345118Y-178740D02*
D03*
X355118D02*
D03*
X345118Y-168740D02*
D03*
Y-128740D02*
D03*
X355118D02*
D03*
X345118Y-118740D02*
D03*
X355118D02*
D03*
X345118Y-108740D02*
D03*
X355118D02*
D03*
X345118Y-98740D02*
D03*
X355118Y-68740D02*
D03*
X345118Y-58740D02*
D03*
X355118Y-48740D02*
D03*
X345118Y-38740D02*
D03*
X355118D02*
D03*
D136*
X193307Y-222441D02*
D03*
D144*
X698228Y-81496D02*
D03*
Y-120866D02*
D03*
D149*
X196063Y-111417D02*
D03*
X195669Y-133071D02*
D03*
Y-126378D02*
D03*
X194881Y-118110D02*
D03*
X197606Y-150291D02*
D03*
X142762Y-178766D02*
D03*
X151921Y-178065D02*
D03*
X125590Y-113779D02*
D03*
X130315Y-120472D02*
D03*
X127165Y-133464D02*
D03*
X111811Y-127165D02*
D03*
X127165Y-153150D02*
D03*
X126496Y-178265D02*
D03*
X126865Y-168014D02*
D03*
X187758Y-114210D02*
D03*
X196457Y-173622D02*
D03*
X156299Y-181102D02*
D03*
X109571Y-158639D02*
D03*
X131132Y-110597D02*
D03*
X150394Y-111024D02*
D03*
X192374Y-181634D02*
D03*
X137557Y-179867D02*
D03*
X182147Y-110862D02*
D03*
X167737Y-180918D02*
D03*
X158528Y-112626D02*
D03*
X176075Y-111175D02*
D03*
X179249Y-180718D02*
D03*
X196457Y-178740D02*
D03*
X210975Y-165756D02*
D03*
X185433Y-181102D02*
D03*
X144735Y-112608D02*
D03*
X465354Y-166929D02*
D03*
X461811Y-162598D02*
D03*
X470472Y-166142D02*
D03*
X479527Y-160630D02*
D03*
X323228Y-68504D02*
D03*
X229921Y-76378D02*
D03*
X226772Y-46457D02*
D03*
X194095Y-46063D02*
D03*
X143701Y-48819D02*
D03*
X226378Y-70472D02*
D03*
X194488Y-51575D02*
D03*
X455609Y-140506D02*
D03*
X579135Y-137678D02*
D03*
X534645Y-72441D02*
D03*
X475355Y-135974D02*
D03*
X514172Y-136614D02*
D03*
X518109Y-130708D02*
D03*
X514567Y-126772D02*
D03*
X475197Y-100787D02*
D03*
X499606Y-140551D02*
D03*
Y-134646D02*
D03*
X83734Y-117409D02*
D03*
X113386Y-235433D02*
D03*
X606299Y-278740D02*
D03*
X527137Y-133418D02*
D03*
X455118Y-130315D02*
D03*
X391969Y-43246D02*
D03*
X284121Y-102621D02*
D03*
X248404Y-192982D02*
D03*
X638189Y-241732D02*
D03*
X580673Y-142475D02*
D03*
X537795Y-76378D02*
D03*
X552572Y-136467D02*
D03*
X526111Y-123013D02*
D03*
X516374Y-147525D02*
D03*
X484746Y-110252D02*
D03*
X497874Y-117292D02*
D03*
X482138Y-137791D02*
D03*
X495161Y-145545D02*
D03*
X487002Y-174784D02*
D03*
X482664Y-178740D02*
D03*
X451817Y-27696D02*
D03*
X459055Y-146850D02*
D03*
X455118Y-135433D02*
D03*
X434224Y-22983D02*
D03*
X241441Y-168906D02*
D03*
X244771Y-178308D02*
D03*
X194130Y-242428D02*
D03*
X86614Y-124016D02*
D03*
M02*
