G04*
G04 #@! TF.GenerationSoftware,Altium Limited,Altium Designer,19.1.8 (144)*
G04*
G04 Layer_Color=255*
%FSLAX25Y25*%
%MOIN*%
G70*
G01*
G75*
%ADD87R,0.05906X0.05118*%
%ADD90R,0.05118X0.05906*%
%ADD97R,0.02362X0.07874*%
%ADD98R,0.06299X0.07087*%
%ADD99R,0.12795X0.08465*%
%ADD100R,0.03740X0.08465*%
%ADD111R,0.08661X0.07874*%
%ADD117R,0.07087X0.06299*%
%ADD130C,0.15748*%
%ADD131C,0.06693*%
%ADD132R,0.06693X0.06693*%
%ADD133C,0.09843*%
%ADD134C,0.10236*%
%ADD135R,0.06693X0.06693*%
%ADD136C,0.05315*%
%ADD137C,0.07480*%
%ADD138R,0.07480X0.07480*%
%ADD139R,0.05906X0.05906*%
%ADD140C,0.06299*%
%ADD141C,0.09055*%
%ADD142R,0.09055X0.09055*%
%ADD143C,0.07087*%
%ADD144O,0.11024X0.05512*%
%ADD145O,0.05512X0.11024*%
%ADD146C,0.04800*%
%ADD147C,0.04724*%
%ADD150R,0.04331X0.10236*%
%ADD151R,0.07874X0.02362*%
%ADD152R,0.04134X0.02559*%
D87*
X238189Y-37600D02*
D03*
Y-45080D02*
D03*
X214961Y-37993D02*
D03*
Y-45474D02*
D03*
X215748Y-71458D02*
D03*
Y-78938D02*
D03*
X189764Y-30117D02*
D03*
Y-22637D02*
D03*
X148425Y-26378D02*
D03*
Y-33858D02*
D03*
X46638Y-52362D02*
D03*
Y-59842D02*
D03*
X73244Y-78328D02*
D03*
Y-70848D02*
D03*
X322643Y-96065D02*
D03*
Y-88585D02*
D03*
X240072Y-85431D02*
D03*
Y-92911D02*
D03*
X91732Y-228740D02*
D03*
Y-221260D02*
D03*
X83858Y-228740D02*
D03*
Y-221260D02*
D03*
X48819Y-219685D02*
D03*
Y-227165D02*
D03*
X24409Y-233858D02*
D03*
Y-241339D02*
D03*
X438563Y-38563D02*
D03*
Y-46043D02*
D03*
X499606Y-158268D02*
D03*
Y-165748D02*
D03*
X506806Y-157895D02*
D03*
Y-165375D02*
D03*
X379400Y-46800D02*
D03*
Y-39320D02*
D03*
X379508Y-23602D02*
D03*
Y-31083D02*
D03*
X171601Y-89366D02*
D03*
Y-96846D02*
D03*
X142682Y-89366D02*
D03*
Y-96846D02*
D03*
X77362Y-188779D02*
D03*
Y-181299D02*
D03*
X148942Y-203872D02*
D03*
Y-196392D02*
D03*
X84055Y-188779D02*
D03*
Y-181299D02*
D03*
X90551Y-188976D02*
D03*
Y-181496D02*
D03*
X21654Y-193701D02*
D03*
Y-201181D02*
D03*
X471654Y-80315D02*
D03*
Y-87795D02*
D03*
X473838Y-214987D02*
D03*
Y-207506D02*
D03*
X211374Y-262281D02*
D03*
Y-254801D02*
D03*
X276575Y-82873D02*
D03*
Y-90353D02*
D03*
X76378Y-220866D02*
D03*
Y-228346D02*
D03*
X31693Y-233661D02*
D03*
Y-241142D02*
D03*
X38583Y-233858D02*
D03*
Y-241339D02*
D03*
X14173Y-218898D02*
D03*
Y-226378D02*
D03*
X613386Y-99606D02*
D03*
Y-92126D02*
D03*
X465146Y-123304D02*
D03*
Y-130784D02*
D03*
X194619Y-90479D02*
D03*
Y-97960D02*
D03*
X193611Y-203036D02*
D03*
Y-195555D02*
D03*
X186265Y-203036D02*
D03*
Y-195555D02*
D03*
X164769Y-89366D02*
D03*
Y-96846D02*
D03*
X164842Y-203872D02*
D03*
Y-196392D02*
D03*
X156956Y-203872D02*
D03*
Y-196392D02*
D03*
X135348Y-89366D02*
D03*
Y-96846D02*
D03*
X42520Y-200787D02*
D03*
Y-193307D02*
D03*
X613386Y-114567D02*
D03*
Y-107087D02*
D03*
X483789Y-214868D02*
D03*
Y-207388D02*
D03*
X458661Y-80709D02*
D03*
Y-88189D02*
D03*
X96850Y-205512D02*
D03*
Y-198031D02*
D03*
X99606Y-236221D02*
D03*
Y-228740D02*
D03*
X68701Y-204921D02*
D03*
Y-197441D02*
D03*
D90*
X147638Y-79528D02*
D03*
X140157D02*
D03*
X193899Y-77559D02*
D03*
X201379D02*
D03*
X447051Y-152152D02*
D03*
X439571D02*
D03*
X79921Y-211811D02*
D03*
X72441D02*
D03*
X613976Y-46260D02*
D03*
X621457D02*
D03*
X592913Y-80315D02*
D03*
X600394D02*
D03*
X442520Y-101575D02*
D03*
X435039D02*
D03*
X448404Y-190525D02*
D03*
X440924D02*
D03*
X385776Y-219063D02*
D03*
X393256D02*
D03*
X322637Y-140551D02*
D03*
X330117D02*
D03*
X211858Y-135081D02*
D03*
X219338D02*
D03*
X209937Y-156951D02*
D03*
X217417D02*
D03*
X219237Y-128024D02*
D03*
X211757D02*
D03*
X240924Y-284327D02*
D03*
X233443D02*
D03*
X86221Y-211811D02*
D03*
X93701D02*
D03*
X104741Y-168009D02*
D03*
X112222D02*
D03*
X104361Y-128533D02*
D03*
X111842D02*
D03*
X631257Y-106122D02*
D03*
X623777D02*
D03*
X590158Y-177165D02*
D03*
X582677D02*
D03*
X563189Y-176969D02*
D03*
X555709D02*
D03*
X446437Y-31476D02*
D03*
X438957D02*
D03*
X499803Y-87205D02*
D03*
X507283D02*
D03*
X419683Y-144488D02*
D03*
X412203D02*
D03*
X393256Y-211871D02*
D03*
X385776D02*
D03*
X219309Y-111917D02*
D03*
X211828D02*
D03*
X210331Y-147502D02*
D03*
X217811D02*
D03*
X219885Y-172106D02*
D03*
X212405D02*
D03*
X219885Y-178798D02*
D03*
X212405D02*
D03*
X104361Y-115691D02*
D03*
X111842D02*
D03*
X119095Y-139961D02*
D03*
X111614D02*
D03*
X104171Y-150548D02*
D03*
X111652D02*
D03*
X28740Y-212992D02*
D03*
X21260D02*
D03*
X637402Y-46457D02*
D03*
X629921D02*
D03*
X465945Y-214173D02*
D03*
X458465D02*
D03*
X536934Y-121837D02*
D03*
X544414D02*
D03*
X35039Y-212992D02*
D03*
X42520D02*
D03*
D97*
X633386Y-55354D02*
D03*
X628386D02*
D03*
Y-80354D02*
D03*
X633386D02*
D03*
X643386Y-55354D02*
D03*
X638386D02*
D03*
Y-80354D02*
D03*
X643386D02*
D03*
X613386Y-55354D02*
D03*
X608386D02*
D03*
Y-80354D02*
D03*
X613386D02*
D03*
X623386Y-55354D02*
D03*
X618386D02*
D03*
Y-80354D02*
D03*
X623386D02*
D03*
D98*
X312598Y-76772D02*
D03*
X323622D02*
D03*
D99*
X65202Y-37008D02*
D03*
X302756Y-109558D02*
D03*
X257874Y-108444D02*
D03*
D100*
X74257Y-59842D02*
D03*
X65202D02*
D03*
X56147D02*
D03*
X311811Y-86723D02*
D03*
X302756D02*
D03*
X293701D02*
D03*
X266929Y-85610D02*
D03*
X257874D02*
D03*
X248819D02*
D03*
D111*
X90945Y-59449D02*
D03*
Y-47638D02*
D03*
X35221Y-59449D02*
D03*
Y-47638D02*
D03*
X573228Y-177559D02*
D03*
Y-165748D02*
D03*
D117*
X231496Y-85039D02*
D03*
Y-96063D02*
D03*
X284252Y-81890D02*
D03*
Y-92913D02*
D03*
D130*
X162598Y-147350D02*
D03*
D131*
X657874Y-99764D02*
D03*
X537284Y-112343D02*
D03*
X311142Y-206102D02*
D03*
X321142D02*
D03*
X311142Y-216102D02*
D03*
X321142D02*
D03*
X311142Y-226102D02*
D03*
X321142D02*
D03*
X311142Y-236102D02*
D03*
X321142D02*
D03*
X311142Y-246102D02*
D03*
X321142D02*
D03*
X311142Y-256102D02*
D03*
X413937Y-241339D02*
D03*
Y-231339D02*
D03*
X423937Y-241339D02*
D03*
Y-231339D02*
D03*
X433937Y-241339D02*
D03*
Y-231339D02*
D03*
X443937Y-241339D02*
D03*
Y-231339D02*
D03*
X453937Y-241339D02*
D03*
Y-231339D02*
D03*
X463937Y-241339D02*
D03*
Y-231339D02*
D03*
X473937Y-241339D02*
D03*
Y-231339D02*
D03*
X483937Y-241339D02*
D03*
Y-231339D02*
D03*
X493937Y-241339D02*
D03*
Y-231339D02*
D03*
X503937Y-241339D02*
D03*
X668060Y-197808D02*
D03*
X443622Y-211024D02*
D03*
X433622D02*
D03*
X345118Y-238740D02*
D03*
X355118D02*
D03*
X345118Y-228740D02*
D03*
X355118D02*
D03*
X345118Y-218740D02*
D03*
X355118D02*
D03*
X345118Y-208740D02*
D03*
X355118D02*
D03*
X345118Y-198740D02*
D03*
X355118D02*
D03*
X345118Y-188740D02*
D03*
X355118D02*
D03*
X345118Y-178740D02*
D03*
X355118D02*
D03*
X345118Y-168740D02*
D03*
X355118D02*
D03*
X345118Y-158740D02*
D03*
X355118D02*
D03*
X345118Y-148740D02*
D03*
X355118D02*
D03*
X345118Y-138740D02*
D03*
X355118D02*
D03*
X345118Y-128740D02*
D03*
X355118D02*
D03*
X345118Y-118740D02*
D03*
X355118D02*
D03*
X345118Y-108740D02*
D03*
X355118D02*
D03*
X345118Y-98740D02*
D03*
X355118D02*
D03*
X345118Y-88740D02*
D03*
X355118D02*
D03*
X345118Y-78740D02*
D03*
X355118D02*
D03*
X345118Y-68740D02*
D03*
X355118D02*
D03*
X345118Y-58740D02*
D03*
X355118D02*
D03*
X345118Y-48740D02*
D03*
X355118D02*
D03*
X345118Y-38740D02*
D03*
X355118D02*
D03*
X345118Y-28740D02*
D03*
X554016Y-45512D02*
D03*
Y-35512D02*
D03*
X564016Y-45512D02*
D03*
Y-35512D02*
D03*
X574016Y-45512D02*
D03*
Y-35512D02*
D03*
X584016Y-45512D02*
D03*
X404104Y-86386D02*
D03*
X47126Y-295394D02*
D03*
D132*
X657874Y-89764D02*
D03*
X321142Y-256102D02*
D03*
X355118Y-28740D02*
D03*
D133*
X296063Y-57874D02*
D03*
D134*
X306063Y-47874D02*
D03*
Y-67874D02*
D03*
X286063D02*
D03*
Y-47874D02*
D03*
D135*
X527283Y-112343D02*
D03*
X503937Y-231339D02*
D03*
X658060Y-197808D02*
D03*
X423622Y-211024D02*
D03*
X584016Y-35512D02*
D03*
X394104Y-86386D02*
D03*
X37126Y-295394D02*
D03*
D136*
X107480Y-34055D02*
D03*
Y-59646D02*
D03*
X193307Y-222441D02*
D03*
X167717D02*
D03*
X150000Y-255906D02*
D03*
Y-281496D02*
D03*
X58608Y-79431D02*
D03*
X33018D02*
D03*
D137*
X680315Y-74410D02*
D03*
D138*
Y-14567D02*
D03*
D139*
X275901Y-254900D02*
D03*
D140*
X255901D02*
D03*
X265901D02*
D03*
X235901Y-264900D02*
D03*
X245901D02*
D03*
X255901D02*
D03*
X265901D02*
D03*
X275901D02*
D03*
X245901Y-254900D02*
D03*
X235901D02*
D03*
X715354Y-43305D02*
D03*
Y-60628D02*
D03*
D141*
X668287Y-288583D02*
D03*
D142*
X683287D02*
D03*
D143*
X717913Y-81496D02*
D03*
X727756D02*
D03*
X698228Y-101181D02*
D03*
X717913Y-120866D02*
D03*
X727756D02*
D03*
X717913Y-227165D02*
D03*
X727756D02*
D03*
X698228Y-246850D02*
D03*
X717913Y-266535D02*
D03*
X727756D02*
D03*
X717913Y-130118D02*
D03*
X727756D02*
D03*
X698228Y-149803D02*
D03*
X717913Y-169488D02*
D03*
X727756D02*
D03*
X717913Y-178740D02*
D03*
X727756D02*
D03*
X698228Y-198425D02*
D03*
X717913Y-218110D02*
D03*
X727756D02*
D03*
D144*
X698228Y-81496D02*
D03*
Y-120866D02*
D03*
Y-227165D02*
D03*
Y-266535D02*
D03*
Y-130118D02*
D03*
Y-169488D02*
D03*
Y-178740D02*
D03*
Y-218110D02*
D03*
D145*
X717913Y-101181D02*
D03*
Y-246850D02*
D03*
Y-149803D02*
D03*
Y-198425D02*
D03*
D146*
X460134Y-49606D02*
D03*
X479134D02*
D03*
D147*
X490945Y-32283D02*
D03*
X482677D02*
D03*
D150*
X127362Y-33858D02*
D03*
X116732D02*
D03*
D151*
X427953Y-41339D02*
D03*
Y-36339D02*
D03*
Y-31339D02*
D03*
Y-26339D02*
D03*
X390945D02*
D03*
Y-31339D02*
D03*
Y-36339D02*
D03*
Y-41339D02*
D03*
D152*
X620866Y-18701D02*
D03*
X629921Y-22441D02*
D03*
Y-14961D02*
D03*
M02*
