G04*
G04 #@! TF.GenerationSoftware,Altium Limited,Altium Designer,19.1.8 (144)*
G04*
G04 Layer_Physical_Order=2*
G04 Layer_Color=36540*
%FSLAX25Y25*%
%MOIN*%
G70*
G01*
G75*
%ADD12C,0.00787*%
%ADD114C,0.01500*%
%ADD115C,0.00906*%
%ADD117C,0.01968*%
%ADD126R,0.06693X0.06693*%
%ADD127C,0.06693*%
%ADD128C,0.05315*%
%ADD129R,0.06693X0.06693*%
%ADD132R,0.05906X0.05906*%
%ADD133C,0.06299*%
%ADD140C,0.04000*%
D12*
X299055Y-245905D02*
X311142D01*
X316929Y-251181D02*
X321260Y-246850D01*
X299606Y-251181D02*
X316929D01*
X278740Y-230315D02*
X299606Y-251181D01*
X316299Y-240945D02*
X321142Y-236102D01*
X299606Y-240945D02*
X316299D01*
X281890Y-223228D02*
X299606Y-240945D01*
X316929Y-231102D02*
X321535Y-226496D01*
X300000Y-231102D02*
X316929D01*
X285039Y-216142D02*
X300000Y-231102D01*
X315984Y-221260D02*
X321142Y-216102D01*
X300000Y-221260D02*
X315984D01*
X288189Y-209449D02*
X300000Y-221260D01*
X316220Y-211024D02*
X321142Y-206102D01*
X300000Y-211024D02*
X316220D01*
X291339Y-202362D02*
X300000Y-211024D01*
X299134Y-225905D02*
X311142D01*
X299764Y-215905D02*
X311142D01*
X300000Y-205906D02*
X311142D01*
X293375Y-199280D02*
X300000Y-205906D01*
X281890Y-223228D02*
Y-177661D01*
X249767Y-145539D02*
X281890Y-177661D01*
X179426Y-136614D02*
X191779Y-148968D01*
X144533Y-136614D02*
X179426D01*
X135446Y-145701D02*
X144533Y-136614D01*
X143880Y-135039D02*
X186482D01*
X136400Y-142519D02*
X143880Y-135039D01*
X132677Y-142519D02*
X136400D01*
X143228Y-133465D02*
X187135D01*
X139291Y-137402D02*
X143228Y-133465D01*
X133071Y-137402D02*
X139291D01*
X129890Y-145701D02*
X135446D01*
X191779Y-148968D02*
X194430D01*
X215386Y-142157D02*
X220215D01*
X212630Y-139401D02*
X215386Y-142157D01*
X190844Y-139401D02*
X212630D01*
X186482Y-135039D02*
X190844Y-139401D01*
X187135Y-133465D02*
X191497Y-137827D01*
X201117D01*
X203936Y-135008D01*
X188583Y-131890D02*
X192945Y-136252D01*
X132735Y-131890D02*
X188583D01*
X132283Y-132342D02*
X132735Y-131890D01*
X192945Y-136252D02*
X200348D01*
X293375Y-199280D02*
Y-173557D01*
X234747Y-114929D02*
X293375Y-173557D01*
X191538Y-114929D02*
X234747D01*
X291339Y-202362D02*
Y-173748D01*
X238882Y-121291D02*
X291339Y-173748D01*
X193564Y-121291D02*
X238882D01*
X289764Y-205906D02*
Y-174400D01*
X238230Y-122866D02*
X289764Y-174400D01*
X192912Y-122866D02*
X238230D01*
X205581Y-128791D02*
X241928D01*
X241275Y-130366D02*
X286614Y-175705D01*
X206234Y-130366D02*
X241275D01*
X278740Y-230315D02*
Y-178966D01*
X280315Y-227165D02*
X299055Y-245905D01*
X280315Y-227165D02*
Y-178314D01*
X299291Y-235906D02*
X310236D01*
X283465Y-220079D02*
X299291Y-235906D01*
X283465Y-220079D02*
Y-177009D01*
X285039Y-216142D02*
Y-176357D01*
X286614Y-213386D02*
X299134Y-225905D01*
X286614Y-213386D02*
Y-175705D01*
X288189Y-209449D02*
Y-175052D01*
X289764Y-205906D02*
X299764Y-215905D01*
X128478Y-128872D02*
X186874D01*
X144944Y-124312D02*
X147001Y-122256D01*
X200348Y-136252D02*
X206234Y-130366D01*
X187561Y-129559D02*
X204814D01*
X186874Y-128872D02*
X187561Y-129559D01*
X189076Y-117391D02*
X191538Y-114929D01*
X145020Y-117391D02*
X189076D01*
X142195Y-114567D02*
X145020Y-117391D01*
X135039Y-114567D02*
X142195D01*
X192302Y-122256D02*
X192912Y-122866D01*
X147001Y-122256D02*
X192302D01*
X204814Y-129559D02*
X205581Y-128791D01*
X191761Y-119488D02*
X193564Y-121291D01*
X136417Y-119488D02*
X191761D01*
X134587Y-124312D02*
X144944D01*
X127953Y-128347D02*
X128478Y-128872D01*
X241928Y-128791D02*
X288189Y-175052D01*
X251072Y-142389D02*
X285039Y-176357D01*
X250419Y-143964D02*
X283465Y-177009D01*
X249115Y-147113D02*
X280315Y-178314D01*
X248462Y-148688D02*
X278740Y-178966D01*
X240023Y-148688D02*
X248462D01*
X241327Y-145539D02*
X249767D01*
X240675Y-147113D02*
X249115D01*
X241980Y-143964D02*
X250419D01*
X242632Y-142389D02*
X251072D01*
X203936Y-135008D02*
X235251D01*
X242632Y-142389D01*
X234598Y-136582D02*
X241980Y-143964D01*
X225790Y-136582D02*
X234598D01*
X233946Y-138157D02*
X241327Y-145539D01*
X226442Y-138157D02*
X233946D01*
X233294Y-139732D02*
X240675Y-147113D01*
X227094Y-139732D02*
X233294D01*
X232641Y-141307D02*
X240023Y-148688D01*
X229391Y-141307D02*
X232641D01*
X199666Y-143732D02*
X220867D01*
X194430Y-148968D02*
X199666Y-143732D01*
X191603Y-153472D02*
X211976D01*
X184051Y-161024D02*
X191603Y-153472D01*
X211976D02*
X220141Y-145307D01*
X223816Y-146882D02*
X229391Y-141307D01*
X220794Y-146882D02*
X223816D01*
X218758Y-148918D02*
X220794Y-146882D01*
X221519Y-145307D02*
X227094Y-139732D01*
X220141Y-145307D02*
X221519D01*
X220867Y-143732D02*
X226442Y-138157D01*
X220215Y-142157D02*
X225790Y-136582D01*
X218758Y-162472D02*
Y-148918D01*
X127165Y-142976D02*
X129890Y-145701D01*
X131496Y-161024D02*
X184051D01*
X157214Y-168937D02*
X212293D01*
X218758Y-162472D01*
X154419Y-166142D02*
X157214Y-168937D01*
X131890Y-166142D02*
X154419D01*
X388976Y-151181D02*
X462992D01*
X467323Y-146850D01*
X376535Y-138740D02*
X388976Y-151181D01*
X355118Y-138740D02*
X376535D01*
X219685Y-51181D02*
Y-50000D01*
X100787Y-159055D02*
Y-102756D01*
X144882Y-58661D01*
D114*
X162008Y-180118D02*
X162205Y-180315D01*
Y-193504D02*
Y-180315D01*
X155905Y-199803D02*
X162205Y-193504D01*
X155905Y-233071D02*
Y-199803D01*
X155709Y-233268D02*
X155905Y-233071D01*
D115*
X247244Y-151968D02*
X247665D01*
X276153Y-180456D01*
X227952Y-155511D02*
X228441D01*
X236182Y-163253D01*
X230878Y-143529D02*
X265781Y-178432D01*
X227648Y-148986D02*
Y-148514D01*
X227559Y-148425D02*
X227648Y-148514D01*
Y-148986D02*
X255409Y-176746D01*
Y-254408D02*
Y-176746D01*
X432761Y-230509D02*
X438830Y-224440D01*
X432761Y-230509D02*
X433764Y-231512D01*
X433937Y-231685D01*
X483079Y-166528D02*
Y-155330D01*
X470313Y-179294D02*
X483079Y-166528D01*
X458777Y-179294D02*
X470313D01*
X470865Y-161023D02*
Y-98788D01*
X482807Y-170075D02*
X485804Y-167078D01*
X482807Y-178740D02*
Y-170075D01*
X482664Y-178740D02*
X482807D01*
X478779Y-151030D02*
X483079Y-155330D01*
X478779Y-151030D02*
Y-123267D01*
X475197Y-119685D02*
X478779Y-123267D01*
X485804Y-167078D02*
Y-148849D01*
X492344Y-142310D01*
X83071Y-142913D02*
Y-117409D01*
X86614Y-137795D02*
X96572Y-147753D01*
Y-156062D02*
Y-147753D01*
X471260Y-96031D02*
Y-95669D01*
Y-96031D02*
X472441Y-97213D01*
X420823Y-53500D02*
X468201Y-100878D01*
Y-141157D02*
Y-100878D01*
X467625Y-141732D02*
X468201Y-141157D01*
X470865Y-98788D02*
X472441Y-97213D01*
X409449Y-33858D02*
X471260Y-95669D01*
X519594Y-71957D02*
X555118Y-107480D01*
X493217Y-71957D02*
X519594D01*
X492126Y-70866D02*
X493217Y-71957D01*
X475197Y-119685D02*
Y-100787D01*
X355659Y-58199D02*
X360841Y-63381D01*
X355118Y-57658D02*
X355659Y-58199D01*
X432891Y-123014D02*
X433070Y-122834D01*
X403521Y-123014D02*
X432891D01*
X359247Y-78740D02*
X403521Y-123014D01*
X435826Y-127165D02*
X436613Y-126378D01*
X402674Y-127165D02*
X435826D01*
X436524Y-133949D02*
X437402Y-133071D01*
X398891Y-133949D02*
X436524D01*
X358643Y-93701D02*
X398891Y-133949D01*
X350744Y-53500D02*
X420823D01*
X345984Y-48740D02*
X350744Y-53500D01*
X360841Y-63381D02*
X427160D01*
X350079Y-163779D02*
X450000D01*
X356535Y-167323D02*
X446063D01*
X508198Y-191622D02*
X652522Y-47298D01*
X542084Y-196499D02*
X643307Y-95276D01*
Y-83575D02*
X671545Y-55337D01*
X413960Y-25025D02*
X487243Y-98307D01*
X518504Y-75197D02*
X551575Y-108268D01*
X520079Y-68504D02*
X558268Y-106693D01*
X427160Y-63381D02*
X466142Y-102362D01*
X409193Y-28740D02*
X478678Y-98225D01*
X517910Y-78540D02*
X548032Y-108661D01*
X483858Y-194882D02*
X555118Y-123622D01*
X482283Y-192520D02*
X551575Y-123228D01*
X485827Y-197244D02*
X558268Y-124803D01*
X481890Y-188976D02*
X548032Y-122835D01*
X652522Y-47298D02*
X671628D01*
X487312Y-62797D02*
X595403D01*
X405421Y-119774D02*
X427421D01*
X418725Y-108361D02*
X455219D01*
X396453Y-137795D02*
X432677D01*
X402613Y-131102D02*
X432283D01*
X413779Y-185827D02*
X481328D01*
X415354Y-188976D02*
X481890D01*
X418110Y-194882D02*
X483858D01*
X416929Y-192520D02*
X482283D01*
X419291Y-197244D02*
X485827D01*
X572564Y-139002D02*
X601069Y-110496D01*
X357398Y-98740D02*
X396453Y-137795D01*
X360251Y-88740D02*
X402613Y-131102D01*
X359367Y-83858D02*
X402674Y-127165D01*
X359663Y-74016D02*
X405421Y-119774D01*
X576154Y-154189D02*
X601289Y-129054D01*
X491245Y-82634D02*
X522047Y-113436D01*
X487002Y-174784D02*
X504931Y-156855D01*
X438830Y-224309D02*
X443841Y-219298D01*
X481328Y-185827D02*
X508487Y-158668D01*
X396750Y-86386D02*
X418725Y-108361D01*
X390866Y-208740D02*
X413779Y-185827D01*
X388976Y-224016D02*
X418110Y-194882D01*
X387795Y-228740D02*
X419291Y-197244D01*
X390551Y-213779D02*
X415354Y-188976D01*
X501575Y-68504D02*
X520079D01*
X498032Y-75197D02*
X518504D01*
X487652Y-78540D02*
X517910D01*
X497706Y-191622D02*
X508198D01*
X491659Y-196499D02*
X542084D01*
X405949Y-25025D02*
X413960D01*
X349213Y-33858D02*
X409449D01*
X355118Y-28740D02*
X409193D01*
X350000Y-93701D02*
X358643D01*
X350394Y-83858D02*
X359367D01*
X350787Y-74016D02*
X359663D01*
X355118Y-208740D02*
X390866D01*
X390709Y-218740D02*
X416929Y-192520D01*
X355118Y-218740D02*
X390709D01*
X349606Y-213779D02*
X390551D01*
X350394Y-224016D02*
X388976D01*
X355118Y-228740D02*
X387795D01*
X522047Y-135972D02*
Y-113436D01*
X478678Y-119588D02*
Y-98225D01*
X466142Y-136221D02*
Y-102362D01*
X265781Y-254781D02*
Y-178432D01*
X276153Y-254648D02*
Y-180456D01*
X236182Y-254619D02*
Y-163253D01*
X616332Y-41869D02*
Y-23642D01*
X487243Y-106004D02*
Y-98307D01*
X481333Y-80046D02*
Y-68777D01*
X492344Y-142310D02*
Y-117860D01*
X432283Y-131102D02*
X432677Y-130709D01*
X345512Y-68740D02*
X350787Y-74016D01*
X345118Y-218740D02*
X350394Y-224016D01*
X86614Y-137795D02*
Y-124016D01*
X671628Y-47298D02*
X672064Y-47734D01*
X643307Y-95276D02*
Y-83575D01*
X616332Y-23642D02*
X616362Y-23611D01*
X595403Y-62797D02*
X616332Y-41869D01*
X601069Y-124584D02*
X601289Y-124804D01*
Y-129054D02*
Y-124804D01*
X601069Y-111614D02*
Y-110496D01*
X572710Y-154189D02*
X576154D01*
X572564Y-148986D02*
Y-139002D01*
X555118Y-123622D02*
Y-107480D01*
X551575Y-123228D02*
Y-108268D01*
X558268Y-124803D02*
Y-106693D01*
X548032Y-122835D02*
Y-108661D01*
X504931Y-156855D02*
Y-147962D01*
X508487Y-149533D02*
X522047Y-135972D01*
X508487Y-158668D02*
Y-149533D01*
X481333Y-68777D02*
X487312Y-62797D01*
X483858Y-44882D02*
X484252Y-44488D01*
X483858Y-54331D02*
Y-44882D01*
X490955Y-57975D02*
X491170Y-57760D01*
Y-41560D01*
X481333Y-80046D02*
X493148Y-91861D01*
Y-99765D02*
Y-91861D01*
X487243Y-106004D02*
X497874Y-116636D01*
Y-117292D02*
Y-116636D01*
X481924Y-122835D02*
X482296D01*
X478678Y-119588D02*
X481924Y-122835D01*
X455219Y-108361D02*
X459592Y-112735D01*
X464961Y-137402D02*
X466142Y-136221D01*
X458468Y-178985D02*
X458777Y-179294D01*
X450000Y-163779D02*
X453937Y-167717D01*
X463786Y-207646D02*
Y-200738D01*
X452134Y-219298D02*
X463786Y-207646D01*
X443841Y-219298D02*
X452134D01*
X432677Y-137795D02*
X433071Y-137402D01*
X438830Y-224440D02*
Y-224309D01*
X433937Y-231685D02*
Y-231339D01*
X405478Y-25497D02*
X405949Y-25025D01*
X394104Y-86386D02*
X396750D01*
X355118Y-58740D02*
Y-57658D01*
Y-98740D02*
X357398D01*
X355118Y-88740D02*
X360251D01*
X355118Y-78740D02*
X359247D01*
X355118Y-168740D02*
X356535Y-167323D01*
X345118Y-29764D02*
X349213Y-33858D01*
X345118Y-29764D02*
Y-28740D01*
Y-68740D02*
X345512D01*
X345118Y-48740D02*
X345984D01*
X345118Y-88819D02*
X350000Y-93701D01*
X345118Y-88819D02*
Y-88740D01*
X345276Y-78740D02*
X350394Y-83858D01*
X345118Y-78740D02*
X345276D01*
X345118Y-168740D02*
X350079Y-163779D01*
X345118Y-209291D02*
X349606Y-213779D01*
X345118Y-209291D02*
Y-208740D01*
X265781Y-254781D02*
X265901Y-254900D01*
X275901D02*
X276153Y-254648D01*
X255409Y-254408D02*
X255901Y-254900D01*
X235901D02*
X236182Y-254619D01*
X83071Y-117409D02*
X83734D01*
X83071Y-142913D02*
X92404Y-152247D01*
Y-152405D02*
Y-152247D01*
D117*
X189764Y-61417D02*
X196260Y-67913D01*
X189764Y-80315D02*
Y-61417D01*
Y-38583D01*
X151459Y-75081D02*
Y-40945D01*
X196260Y-67913D02*
X197047D01*
X589387Y-268112D02*
X589517Y-267982D01*
X579761Y-277738D02*
X589387Y-268112D01*
X209055Y-38583D02*
X219291Y-48819D01*
X189764Y-38583D02*
X209055D01*
X232127Y-50787D02*
X232677D01*
X231568Y-50228D02*
X232127Y-50787D01*
X220701Y-50228D02*
X231568D01*
X219685Y-64173D02*
Y-51181D01*
X151459Y-40945D02*
X187402D01*
X148819D02*
X151459D01*
Y-75081D02*
X156299Y-79921D01*
X187402Y-40945D02*
X189764Y-38583D01*
X181143Y-80315D02*
X189764D01*
X181102Y-80274D02*
X181143Y-80315D01*
X189764D02*
X193701Y-84252D01*
X129902Y-221083D02*
X195460Y-286641D01*
X15571Y-221083D02*
X129902D01*
X423290Y-277738D02*
X579761D01*
X195460Y-286641D02*
X311138D01*
X342739Y-255040D01*
X194130Y-242428D02*
X232167Y-280465D01*
X263528D01*
X7304Y-105145D02*
X33018Y-79431D01*
X342739Y-255040D02*
X400593D01*
X423290Y-277738D01*
X7304Y-212815D02*
Y-105145D01*
X334653Y-246955D02*
X342739Y-255040D01*
X263528Y-280465D02*
X265901Y-278092D01*
X185433Y-233732D02*
Y-181102D01*
X7304Y-212815D02*
X15571Y-221083D01*
X589517Y-268243D02*
Y-267982D01*
X338733Y-228740D02*
X345118D01*
X334653Y-232820D02*
X338733Y-228740D01*
X334653Y-246955D02*
Y-232820D01*
X265901Y-278092D02*
Y-264900D01*
X185433Y-233732D02*
X194130Y-242428D01*
D126*
X394104Y-86386D02*
D03*
D127*
X311142Y-206102D02*
D03*
X321142D02*
D03*
X311142Y-216102D02*
D03*
X321142D02*
D03*
X311142Y-226102D02*
D03*
X321142D02*
D03*
X311142Y-236102D02*
D03*
X321142D02*
D03*
X311142Y-246102D02*
D03*
X321142D02*
D03*
X433937Y-231339D02*
D03*
X345118Y-228740D02*
D03*
X355118D02*
D03*
X345118Y-218740D02*
D03*
X355118D02*
D03*
X345118Y-208740D02*
D03*
X355118D02*
D03*
X345118Y-168740D02*
D03*
X355118D02*
D03*
Y-138740D02*
D03*
Y-98740D02*
D03*
X345118Y-88740D02*
D03*
X355118D02*
D03*
X345118Y-78740D02*
D03*
X355118D02*
D03*
X345118Y-68740D02*
D03*
X355118Y-58740D02*
D03*
X345118Y-48740D02*
D03*
Y-28740D02*
D03*
D128*
X33018Y-79431D02*
D03*
D129*
X355118Y-28740D02*
D03*
D132*
X275901Y-254900D02*
D03*
D133*
X255901D02*
D03*
X265901D02*
D03*
Y-264900D02*
D03*
X235901Y-254900D02*
D03*
D140*
X162205Y-180118D02*
D03*
X197047Y-67913D02*
D03*
X247244Y-151968D02*
D03*
X227952Y-155511D02*
D03*
X227559Y-148425D02*
D03*
X230708Y-144488D02*
D03*
X132283Y-132342D02*
D03*
X134587Y-124312D02*
D03*
X127165Y-142976D02*
D03*
X127953Y-128347D02*
D03*
X136417Y-119488D02*
D03*
X132677Y-142519D02*
D03*
X133071Y-137402D02*
D03*
X131496Y-161024D02*
D03*
X131890Y-166142D02*
D03*
X96572Y-156062D02*
D03*
X92404Y-152405D02*
D03*
X100787Y-159055D02*
D03*
X185433Y-181102D02*
D03*
X135039Y-114567D02*
D03*
X467323Y-146850D02*
D03*
X470865Y-161023D02*
D03*
X219291Y-65354D02*
D03*
Y-48819D02*
D03*
X232677Y-50787D02*
D03*
X156299Y-79921D02*
D03*
X181102Y-80274D02*
D03*
X193701Y-84252D02*
D03*
X189764Y-38583D02*
D03*
X148819Y-40945D02*
D03*
X144882Y-58661D02*
D03*
X467625Y-141732D02*
D03*
X436613Y-126378D02*
D03*
X433070Y-122834D02*
D03*
X437402Y-133071D02*
D03*
X501575Y-68504D02*
D03*
X475197Y-100787D02*
D03*
X589517Y-268243D02*
D03*
X504931Y-147962D02*
D03*
X83734Y-117409D02*
D03*
X493148Y-99765D02*
D03*
X491170Y-41560D02*
D03*
X492126Y-70866D02*
D03*
X497706Y-191622D02*
D03*
X432677Y-130709D02*
D03*
X671545Y-55337D02*
D03*
X672064Y-47734D02*
D03*
X616362Y-23611D02*
D03*
X601069Y-124584D02*
D03*
Y-111614D02*
D03*
X572710Y-154189D02*
D03*
X572564Y-148986D02*
D03*
X490955Y-57975D02*
D03*
X483858Y-54331D02*
D03*
X484252Y-44488D02*
D03*
X498032Y-75197D02*
D03*
X491245Y-82634D02*
D03*
X487652Y-78540D02*
D03*
X492344Y-117860D02*
D03*
X497874Y-117292D02*
D03*
X482296Y-122835D02*
D03*
X487002Y-174784D02*
D03*
X482664Y-178740D02*
D03*
X491659Y-196499D02*
D03*
X459592Y-112735D02*
D03*
X464961Y-137402D02*
D03*
X458468Y-178985D02*
D03*
X446063Y-167323D02*
D03*
X453937Y-167717D02*
D03*
X463786Y-200738D02*
D03*
X427421Y-119774D02*
D03*
X433071Y-137402D02*
D03*
X405478Y-25497D02*
D03*
X194130Y-242428D02*
D03*
X155905Y-233071D02*
D03*
X86614Y-124016D02*
D03*
M02*
